<?xml version="1.0" encoding="utf-8" standalone="no"?>
<!DOCTYPE svg PUBLIC "-//W3C//DTD SVG 1.1//EN"
  "http://www.w3.org/Graphics/SVG/1.1/DTD/svg11.dtd">
<svg xmlns:xlink="http://www.w3.org/1999/xlink" width="460.8pt" height="345.6pt" viewBox="0 0 460.8 345.6" xmlns="http://www.w3.org/2000/svg" version="1.1">
 <metadata>
  <rdf:RDF xmlns:dc="http://purl.org/dc/elements/1.1/" xmlns:cc="http://creativecommons.org/ns#" xmlns:rdf="http://www.w3.org/1999/02/22-rdf-syntax-ns#">
   <cc:Work>
    <dc:type rdf:resource="http://purl.org/dc/dcmitype/StillImage"/>
    <dc:date>2022-10-13T12:58:09.749937</dc:date>
    <dc:format>image/svg+xml</dc:format>
    <dc:creator>
     <cc:Agent>
      <dc:title>Matplotlib v3.6.0, https://matplotlib.org/</dc:title>
     </cc:Agent>
    </dc:creator>
   </cc:Work>
  </rdf:RDF>
 </metadata>
 <defs>
  <style type="text/css">*{stroke-linejoin: round; stroke-linecap: butt}</style>
 </defs>
 <g id="figure_1">
  <g id="patch_1">
   <path d="M 0 345.6 
L 460.8 345.6 
L 460.8 0 
L 0 0 
z
" style="fill: #ffffff"/>
  </g>
  <g id="axes_1">
   <g id="patch_2">
    <path d="M 57.6 307.584 
L 414.72 307.584 
L 414.72 41.472 
L 57.6 41.472 
z
" style="fill: #ffffff"/>
   </g>
   <g id="PolyCollection_1">
    <path d="M 73.832727 221.829731 
L 73.832727 295.488 
L 77.942278 271.215377 
L 82.05183 241.058435 
L 86.161381 231.356489 
L 90.270932 227.185457 
L 94.380483 220.197799 
L 98.490035 212.758525 
L 102.599586 204.26043 
L 106.709137 211.482656 
L 110.818688 210.975314 
L 114.928239 208.648726 
L 119.037791 207.030375 
L 123.147342 213.668272 
L 127.256893 208.983626 
L 131.366444 207.690757 
L 135.475995 208.52248 
L 139.585547 199.807465 
L 143.695098 201.871822 
L 147.804649 200.000922 
L 151.9142 204.93195 
L 156.023751 204.943421 
L 160.133303 206.846523 
L 164.242854 208.168562 
L 168.352405 211.64004 
L 172.461956 209.960885 
L 176.571507 199.983629 
L 180.681059 194.293593 
L 184.79061 196.77967 
L 188.900161 185.523751 
L 193.009712 175.623966 
L 197.119264 168.451678 
L 201.228815 162.463831 
L 205.338366 159.166205 
L 209.447917 145.727205 
L 213.557468 147.112864 
L 217.66702 144.418513 
L 221.776571 144.409254 
L 225.886122 144.117504 
L 229.995673 144.116787 
L 234.105224 143.589498 
L 238.214776 143.589498 
L 242.324327 144.413185 
L 246.433878 144.406031 
L 250.543429 145.187983 
L 254.65298 142.69823 
L 258.762532 141.774026 
L 262.872083 144.166055 
L 266.981634 149.961994 
L 271.091185 158.143875 
L 275.200736 146.241047 
L 279.310288 144.800487 
L 283.419839 141.427307 
L 287.52939 147.597323 
L 291.638941 146.590187 
L 295.748493 147.006755 
L 299.858044 143.045004 
L 303.967595 143.045004 
L 308.077146 142.611256 
L 312.186697 142.559389 
L 316.296249 142.493166 
L 320.4058 142.529203 
L 324.515351 135.230132 
L 328.624902 135.24771 
L 332.734453 135.267134 
L 336.844005 134.650802 
L 340.953556 126.643598 
L 345.063107 127.919008 
L 349.172658 127.150602 
L 353.282209 115.902296 
L 357.391761 115.902296 
L 361.501312 122.341948 
L 365.610863 115.918682 
L 369.720414 120.663684 
L 373.829965 117.445825 
L 377.939517 119.892126 
L 382.049068 119.889248 
L 386.158619 119.926631 
L 390.26817 120.717232 
L 394.377722 118.018286 
L 398.487273 117.526382 
L 398.487273 72.182067 
L 398.487273 72.182067 
L 394.377722 73.180957 
L 390.26817 73.883793 
L 386.158619 75.0298 
L 382.049068 74.711844 
L 377.939517 74.774997 
L 373.829965 72.389844 
L 369.720414 73.607609 
L 365.610863 71.634347 
L 361.501312 70.415624 
L 357.391761 71.517144 
L 353.282209 71.517144 
L 349.172658 67.534609 
L 345.063107 67.749516 
L 340.953556 66.824034 
L 336.844005 63.97093 
L 332.734453 65.234453 
L 328.624902 65.174765 
L 324.515351 65.121134 
L 320.4058 60.57045 
L 316.296249 60.456688 
L 312.186697 60.699871 
L 308.077146 60.885746 
L 303.967595 61.563569 
L 299.858044 61.563569 
L 295.748493 63.758906 
L 291.638941 62.993924 
L 287.52939 64.115293 
L 283.419839 68.466483 
L 279.310288 68.044104 
L 275.200736 68.585602 
L 271.091185 70.402887 
L 266.981634 69.384681 
L 262.872083 71.244364 
L 258.762532 72.73593 
L 254.65298 74.700802 
L 250.543429 77.770686 
L 246.433878 77.603546 
L 242.324327 77.769832 
L 238.214776 76.470855 
L 234.105224 76.470855 
L 229.995673 76.253725 
L 225.886122 76.259004 
L 221.776571 77.424958 
L 217.66702 77.536438 
L 213.557468 75.665986 
L 209.447917 75.092757 
L 205.338366 71.882838 
L 201.228815 73.60342 
L 197.119264 74.384129 
L 193.009712 76.145268 
L 188.900161 80.061105 
L 184.79061 86.014733 
L 180.681059 84.629911 
L 176.571507 87.649805 
L 172.461956 91.612383 
L 168.352405 93.887919 
L 164.242854 91.490569 
L 160.133303 91.639613 
L 156.023751 92.750768 
L 151.9142 93.901204 
L 147.804649 92.028133 
L 143.695098 92.030425 
L 139.585547 89.304843 
L 135.475995 98.136535 
L 131.366444 98.314906 
L 127.256893 97.00566 
L 123.147342 98.928402 
L 119.037791 96.722244 
L 114.928239 95.998224 
L 110.818688 104.772083 
L 106.709137 115.406244 
L 102.599586 119.897966 
L 98.490035 129.975506 
L 94.380483 133.477649 
L 90.270932 143.400226 
L 86.161381 158.046825 
L 82.05183 163.9642 
L 77.942278 185.481039 
L 73.832727 221.829731 
z
" clip-path="url(#p8199686eaa)" style="fill: #1f77b4; fill-opacity: 0.3"/>
   </g>
   <g id="PolyCollection_2">
    <path d="M 73.832727 239.95126 
L 73.832727 290.271624 
L 77.942278 273.136211 
L 82.05183 255.544763 
L 86.161381 255.189443 
L 90.270932 253.345008 
L 94.380483 259.53141 
L 98.490035 258.42878 
L 102.599586 260.818421 
L 106.709137 258.096776 
L 110.818688 253.485178 
L 114.928239 249.145859 
L 119.037791 249.653846 
L 123.147342 249.707974 
L 127.256893 250.833968 
L 131.366444 241.839667 
L 135.475995 239.72424 
L 139.585547 238.803863 
L 143.695098 233.758483 
L 147.804649 233.771886 
L 151.9142 229.654044 
L 156.023751 229.654044 
L 160.133303 228.646606 
L 164.242854 226.249585 
L 168.352405 224.770863 
L 172.461956 226.203768 
L 176.571507 226.871071 
L 180.681059 229.59085 
L 184.79061 226.774848 
L 188.900161 230.060435 
L 193.009712 232.809619 
L 197.119264 231.848234 
L 201.228815 231.542128 
L 205.338366 233.016043 
L 209.447917 233.227341 
L 213.557468 230.686201 
L 217.66702 231.106067 
L 221.776571 231.098538 
L 225.886122 233.228817 
L 229.995673 233.228076 
L 234.105224 226.805406 
L 238.214776 226.805406 
L 242.324327 223.820358 
L 246.433878 222.691877 
L 250.543429 215.492576 
L 254.65298 216.113238 
L 258.762532 212.083466 
L 262.872083 210.770407 
L 266.981634 210.552204 
L 271.091185 202.120741 
L 275.200736 211.690567 
L 279.310288 211.685963 
L 283.419839 211.674144 
L 287.52939 215.637117 
L 291.638941 216.352343 
L 295.748493 212.416966 
L 299.858044 221.843783 
L 303.967595 221.843783 
L 308.077146 218.049347 
L 312.186697 220.783085 
L 316.296249 218.216212 
L 320.4058 213.212322 
L 324.515351 207.300164 
L 328.624902 205.934837 
L 332.734453 198.161761 
L 336.844005 206.451665 
L 340.953556 209.574781 
L 345.063107 206.777487 
L 349.172658 206.79666 
L 353.282209 211.004302 
L 357.391761 211.004302 
L 361.501312 204.33469 
L 365.610863 208.585031 
L 369.720414 196.63112 
L 373.829965 195.302209 
L 377.939517 182.71444 
L 382.049068 182.710302 
L 386.158619 176.305036 
L 390.26817 176.007825 
L 394.377722 183.572328 
L 398.487273 183.574927 
L 398.487273 53.568 
L 398.487273 53.568 
L 394.377722 53.576449 
L 390.26817 54.186862 
L 386.158619 54.86397 
L 382.049068 56.665142 
L 377.939517 56.664172 
L 373.829965 62.925823 
L 369.720414 64.551567 
L 365.610863 67.815047 
L 361.501312 65.08334 
L 357.391761 67.376191 
L 353.282209 67.376191 
L 349.172658 64.319953 
L 345.063107 64.157625 
L 340.953556 65.587731 
L 336.844005 65.239093 
L 332.734453 61.718051 
L 328.624902 64.727172 
L 324.515351 65.305533 
L 320.4058 68.629774 
L 316.296249 71.641241 
L 312.186697 71.907267 
L 308.077146 70.834296 
L 303.967595 73.830031 
L 299.858044 73.830031 
L 295.748493 70.479263 
L 291.638941 73.573968 
L 287.52939 72.338278 
L 283.419839 69.493903 
L 279.310288 69.871956 
L 275.200736 69.958963 
L 271.091185 64.66823 
L 266.981634 70.045714 
L 262.872083 71.326446 
L 258.762532 73.890059 
L 254.65298 81.138148 
L 250.543429 82.042747 
L 246.433878 88.993158 
L 242.324327 89.921428 
L 238.214776 91.914414 
L 234.105224 91.914414 
L 229.995673 105.964882 
L 225.886122 105.964959 
L 221.776571 106.108374 
L 217.66702 106.108996 
L 213.557468 102.240085 
L 209.447917 106.872148 
L 205.338366 110.031948 
L 201.228815 109.544279 
L 197.119264 111.739438 
L 193.009712 111.676207 
L 188.900161 108.579013 
L 184.79061 108.464594 
L 180.681059 113.387005 
L 176.571507 112.152904 
L 172.461956 127.714506 
L 168.352405 127.277031 
L 164.242854 127.75027 
L 160.133303 134.108277 
L 156.023751 135.102232 
L 151.9142 135.102232 
L 147.804649 136.820008 
L 143.695098 136.804256 
L 139.585547 138.610463 
L 135.475995 138.617425 
L 131.366444 139.435936 
L 127.256893 145.024325 
L 123.147342 153.299796 
L 119.037791 161.3909 
L 114.928239 169.971854 
L 110.818688 172.313641 
L 106.709137 176.195712 
L 102.599586 188.326334 
L 98.490035 186.816197 
L 94.380483 189.638225 
L 90.270932 202.319983 
L 86.161381 206.058361 
L 82.05183 205.583621 
L 77.942278 223.924256 
L 73.832727 239.95126 
z
" clip-path="url(#p8199686eaa)" style="fill: #ff7f0e; fill-opacity: 0.3"/>
   </g>
   <g id="matplotlib.axis_1">
    <g id="xtick_1">
     <g id="line2d_1">
      <defs>
       <path id="m8e5bedc785" d="M 0 0 
L 0 3.5 
" style="stroke: #000000; stroke-width: 0.8"/>
      </defs>
      <g>
       <use xlink:href="#m8e5bedc785" x="73.832727" y="307.584" style="stroke: #000000; stroke-width: 0.8"/>
      </g>
     </g>
     <g id="text_1">
      <!-- 0 -->
      <g transform="translate(70.651477 322.182437) scale(0.1 -0.1)">
       <defs>
        <path id="DejaVuSans-30" d="M 2034 4250 
Q 1547 4250 1301 3770 
Q 1056 3291 1056 2328 
Q 1056 1369 1301 889 
Q 1547 409 2034 409 
Q 2525 409 2770 889 
Q 3016 1369 3016 2328 
Q 3016 3291 2770 3770 
Q 2525 4250 2034 4250 
z
M 2034 4750 
Q 2819 4750 3233 4129 
Q 3647 3509 3647 2328 
Q 3647 1150 3233 529 
Q 2819 -91 2034 -91 
Q 1250 -91 836 529 
Q 422 1150 422 2328 
Q 422 3509 836 4129 
Q 1250 4750 2034 4750 
z
" transform="scale(0.015625)"/>
       </defs>
       <use xlink:href="#DejaVuSans-30"/>
      </g>
     </g>
    </g>
    <g id="xtick_2">
     <g id="line2d_2">
      <g>
       <use xlink:href="#m8e5bedc785" x="114.928239" y="307.584" style="stroke: #000000; stroke-width: 0.8"/>
      </g>
     </g>
     <g id="text_2">
      <!-- 10 -->
      <g transform="translate(108.565739 322.182437) scale(0.1 -0.1)">
       <defs>
        <path id="DejaVuSans-31" d="M 794 531 
L 1825 531 
L 1825 4091 
L 703 3866 
L 703 4441 
L 1819 4666 
L 2450 4666 
L 2450 531 
L 3481 531 
L 3481 0 
L 794 0 
L 794 531 
z
" transform="scale(0.015625)"/>
       </defs>
       <use xlink:href="#DejaVuSans-31"/>
       <use xlink:href="#DejaVuSans-30" x="63.623047"/>
      </g>
     </g>
    </g>
    <g id="xtick_3">
     <g id="line2d_3">
      <g>
       <use xlink:href="#m8e5bedc785" x="156.023751" y="307.584" style="stroke: #000000; stroke-width: 0.8"/>
      </g>
     </g>
     <g id="text_3">
      <!-- 20 -->
      <g transform="translate(149.661251 322.182437) scale(0.1 -0.1)">
       <defs>
        <path id="DejaVuSans-32" d="M 1228 531 
L 3431 531 
L 3431 0 
L 469 0 
L 469 531 
Q 828 903 1448 1529 
Q 2069 2156 2228 2338 
Q 2531 2678 2651 2914 
Q 2772 3150 2772 3378 
Q 2772 3750 2511 3984 
Q 2250 4219 1831 4219 
Q 1534 4219 1204 4116 
Q 875 4013 500 3803 
L 500 4441 
Q 881 4594 1212 4672 
Q 1544 4750 1819 4750 
Q 2544 4750 2975 4387 
Q 3406 4025 3406 3419 
Q 3406 3131 3298 2873 
Q 3191 2616 2906 2266 
Q 2828 2175 2409 1742 
Q 1991 1309 1228 531 
z
" transform="scale(0.015625)"/>
       </defs>
       <use xlink:href="#DejaVuSans-32"/>
       <use xlink:href="#DejaVuSans-30" x="63.623047"/>
      </g>
     </g>
    </g>
    <g id="xtick_4">
     <g id="line2d_4">
      <g>
       <use xlink:href="#m8e5bedc785" x="197.119264" y="307.584" style="stroke: #000000; stroke-width: 0.8"/>
      </g>
     </g>
     <g id="text_4">
      <!-- 30 -->
      <g transform="translate(190.756764 322.182437) scale(0.1 -0.1)">
       <defs>
        <path id="DejaVuSans-33" d="M 2597 2516 
Q 3050 2419 3304 2112 
Q 3559 1806 3559 1356 
Q 3559 666 3084 287 
Q 2609 -91 1734 -91 
Q 1441 -91 1130 -33 
Q 819 25 488 141 
L 488 750 
Q 750 597 1062 519 
Q 1375 441 1716 441 
Q 2309 441 2620 675 
Q 2931 909 2931 1356 
Q 2931 1769 2642 2001 
Q 2353 2234 1838 2234 
L 1294 2234 
L 1294 2753 
L 1863 2753 
Q 2328 2753 2575 2939 
Q 2822 3125 2822 3475 
Q 2822 3834 2567 4026 
Q 2313 4219 1838 4219 
Q 1578 4219 1281 4162 
Q 984 4106 628 3988 
L 628 4550 
Q 988 4650 1302 4700 
Q 1616 4750 1894 4750 
Q 2613 4750 3031 4423 
Q 3450 4097 3450 3541 
Q 3450 3153 3228 2886 
Q 3006 2619 2597 2516 
z
" transform="scale(0.015625)"/>
       </defs>
       <use xlink:href="#DejaVuSans-33"/>
       <use xlink:href="#DejaVuSans-30" x="63.623047"/>
      </g>
     </g>
    </g>
    <g id="xtick_5">
     <g id="line2d_5">
      <g>
       <use xlink:href="#m8e5bedc785" x="238.214776" y="307.584" style="stroke: #000000; stroke-width: 0.8"/>
      </g>
     </g>
     <g id="text_5">
      <!-- 40 -->
      <g transform="translate(231.852276 322.182437) scale(0.1 -0.1)">
       <defs>
        <path id="DejaVuSans-34" d="M 2419 4116 
L 825 1625 
L 2419 1625 
L 2419 4116 
z
M 2253 4666 
L 3047 4666 
L 3047 1625 
L 3713 1625 
L 3713 1100 
L 3047 1100 
L 3047 0 
L 2419 0 
L 2419 1100 
L 313 1100 
L 313 1709 
L 2253 4666 
z
" transform="scale(0.015625)"/>
       </defs>
       <use xlink:href="#DejaVuSans-34"/>
       <use xlink:href="#DejaVuSans-30" x="63.623047"/>
      </g>
     </g>
    </g>
    <g id="xtick_6">
     <g id="line2d_6">
      <g>
       <use xlink:href="#m8e5bedc785" x="279.310288" y="307.584" style="stroke: #000000; stroke-width: 0.8"/>
      </g>
     </g>
     <g id="text_6">
      <!-- 50 -->
      <g transform="translate(272.947788 322.182437) scale(0.1 -0.1)">
       <defs>
        <path id="DejaVuSans-35" d="M 691 4666 
L 3169 4666 
L 3169 4134 
L 1269 4134 
L 1269 2991 
Q 1406 3038 1543 3061 
Q 1681 3084 1819 3084 
Q 2600 3084 3056 2656 
Q 3513 2228 3513 1497 
Q 3513 744 3044 326 
Q 2575 -91 1722 -91 
Q 1428 -91 1123 -41 
Q 819 9 494 109 
L 494 744 
Q 775 591 1075 516 
Q 1375 441 1709 441 
Q 2250 441 2565 725 
Q 2881 1009 2881 1497 
Q 2881 1984 2565 2268 
Q 2250 2553 1709 2553 
Q 1456 2553 1204 2497 
Q 953 2441 691 2322 
L 691 4666 
z
" transform="scale(0.015625)"/>
       </defs>
       <use xlink:href="#DejaVuSans-35"/>
       <use xlink:href="#DejaVuSans-30" x="63.623047"/>
      </g>
     </g>
    </g>
    <g id="xtick_7">
     <g id="line2d_7">
      <g>
       <use xlink:href="#m8e5bedc785" x="320.4058" y="307.584" style="stroke: #000000; stroke-width: 0.8"/>
      </g>
     </g>
     <g id="text_7">
      <!-- 60 -->
      <g transform="translate(314.0433 322.182437) scale(0.1 -0.1)">
       <defs>
        <path id="DejaVuSans-36" d="M 2113 2584 
Q 1688 2584 1439 2293 
Q 1191 2003 1191 1497 
Q 1191 994 1439 701 
Q 1688 409 2113 409 
Q 2538 409 2786 701 
Q 3034 994 3034 1497 
Q 3034 2003 2786 2293 
Q 2538 2584 2113 2584 
z
M 3366 4563 
L 3366 3988 
Q 3128 4100 2886 4159 
Q 2644 4219 2406 4219 
Q 1781 4219 1451 3797 
Q 1122 3375 1075 2522 
Q 1259 2794 1537 2939 
Q 1816 3084 2150 3084 
Q 2853 3084 3261 2657 
Q 3669 2231 3669 1497 
Q 3669 778 3244 343 
Q 2819 -91 2113 -91 
Q 1303 -91 875 529 
Q 447 1150 447 2328 
Q 447 3434 972 4092 
Q 1497 4750 2381 4750 
Q 2619 4750 2861 4703 
Q 3103 4656 3366 4563 
z
" transform="scale(0.015625)"/>
       </defs>
       <use xlink:href="#DejaVuSans-36"/>
       <use xlink:href="#DejaVuSans-30" x="63.623047"/>
      </g>
     </g>
    </g>
    <g id="xtick_8">
     <g id="line2d_8">
      <g>
       <use xlink:href="#m8e5bedc785" x="361.501312" y="307.584" style="stroke: #000000; stroke-width: 0.8"/>
      </g>
     </g>
     <g id="text_8">
      <!-- 70 -->
      <g transform="translate(355.138812 322.182437) scale(0.1 -0.1)">
       <defs>
        <path id="DejaVuSans-37" d="M 525 4666 
L 3525 4666 
L 3525 4397 
L 1831 0 
L 1172 0 
L 2766 4134 
L 525 4134 
L 525 4666 
z
" transform="scale(0.015625)"/>
       </defs>
       <use xlink:href="#DejaVuSans-37"/>
       <use xlink:href="#DejaVuSans-30" x="63.623047"/>
      </g>
     </g>
    </g>
    <g id="xtick_9">
     <g id="line2d_9">
      <g>
       <use xlink:href="#m8e5bedc785" x="402.596824" y="307.584" style="stroke: #000000; stroke-width: 0.8"/>
      </g>
     </g>
     <g id="text_9">
      <!-- 80 -->
      <g transform="translate(396.234324 322.182437) scale(0.1 -0.1)">
       <defs>
        <path id="DejaVuSans-38" d="M 2034 2216 
Q 1584 2216 1326 1975 
Q 1069 1734 1069 1313 
Q 1069 891 1326 650 
Q 1584 409 2034 409 
Q 2484 409 2743 651 
Q 3003 894 3003 1313 
Q 3003 1734 2745 1975 
Q 2488 2216 2034 2216 
z
M 1403 2484 
Q 997 2584 770 2862 
Q 544 3141 544 3541 
Q 544 4100 942 4425 
Q 1341 4750 2034 4750 
Q 2731 4750 3128 4425 
Q 3525 4100 3525 3541 
Q 3525 3141 3298 2862 
Q 3072 2584 2669 2484 
Q 3125 2378 3379 2068 
Q 3634 1759 3634 1313 
Q 3634 634 3220 271 
Q 2806 -91 2034 -91 
Q 1263 -91 848 271 
Q 434 634 434 1313 
Q 434 1759 690 2068 
Q 947 2378 1403 2484 
z
M 1172 3481 
Q 1172 3119 1398 2916 
Q 1625 2713 2034 2713 
Q 2441 2713 2670 2916 
Q 2900 3119 2900 3481 
Q 2900 3844 2670 4047 
Q 2441 4250 2034 4250 
Q 1625 4250 1398 4047 
Q 1172 3844 1172 3481 
z
" transform="scale(0.015625)"/>
       </defs>
       <use xlink:href="#DejaVuSans-38"/>
       <use xlink:href="#DejaVuSans-30" x="63.623047"/>
      </g>
     </g>
    </g>
   </g>
   <g id="matplotlib.axis_2">
    <g id="ytick_1">
     <g id="line2d_10">
      <defs>
       <path id="m29dd825c73" d="M 0 0 
L -3.5 0 
" style="stroke: #000000; stroke-width: 0.8"/>
      </defs>
      <g>
       <use xlink:href="#m29dd825c73" x="57.6" y="268.047004" style="stroke: #000000; stroke-width: 0.8"/>
      </g>
     </g>
     <g id="text_10">
      <!-- 0 -->
      <g transform="translate(44.2375 271.846223) scale(0.1 -0.1)">
       <use xlink:href="#DejaVuSans-30"/>
      </g>
     </g>
    </g>
    <g id="ytick_2">
     <g id="line2d_11">
      <g>
       <use xlink:href="#m29dd825c73" x="57.6" y="224.334582" style="stroke: #000000; stroke-width: 0.8"/>
      </g>
     </g>
     <g id="text_11">
      <!-- 20 -->
      <g transform="translate(37.875 228.133801) scale(0.1 -0.1)">
       <use xlink:href="#DejaVuSans-32"/>
       <use xlink:href="#DejaVuSans-30" x="63.623047"/>
      </g>
     </g>
    </g>
    <g id="ytick_3">
     <g id="line2d_12">
      <g>
       <use xlink:href="#m29dd825c73" x="57.6" y="180.62216" style="stroke: #000000; stroke-width: 0.8"/>
      </g>
     </g>
     <g id="text_12">
      <!-- 40 -->
      <g transform="translate(37.875 184.421379) scale(0.1 -0.1)">
       <use xlink:href="#DejaVuSans-34"/>
       <use xlink:href="#DejaVuSans-30" x="63.623047"/>
      </g>
     </g>
    </g>
    <g id="ytick_4">
     <g id="line2d_13">
      <g>
       <use xlink:href="#m29dd825c73" x="57.6" y="136.909738" style="stroke: #000000; stroke-width: 0.8"/>
      </g>
     </g>
     <g id="text_13">
      <!-- 60 -->
      <g transform="translate(37.875 140.708957) scale(0.1 -0.1)">
       <use xlink:href="#DejaVuSans-36"/>
       <use xlink:href="#DejaVuSans-30" x="63.623047"/>
      </g>
     </g>
    </g>
    <g id="ytick_5">
     <g id="line2d_14">
      <g>
       <use xlink:href="#m29dd825c73" x="57.6" y="93.197316" style="stroke: #000000; stroke-width: 0.8"/>
      </g>
     </g>
     <g id="text_14">
      <!-- 80 -->
      <g transform="translate(37.875 96.996535) scale(0.1 -0.1)">
       <use xlink:href="#DejaVuSans-38"/>
       <use xlink:href="#DejaVuSans-30" x="63.623047"/>
      </g>
     </g>
    </g>
    <g id="ytick_6">
     <g id="line2d_15">
      <g>
       <use xlink:href="#m29dd825c73" x="57.6" y="49.484894" style="stroke: #000000; stroke-width: 0.8"/>
      </g>
     </g>
     <g id="text_15">
      <!-- 100 -->
      <g transform="translate(31.5125 53.284113) scale(0.1 -0.1)">
       <use xlink:href="#DejaVuSans-31"/>
       <use xlink:href="#DejaVuSans-30" x="63.623047"/>
       <use xlink:href="#DejaVuSans-30" x="127.246094"/>
      </g>
     </g>
    </g>
   </g>
   <g id="line2d_16">
    <path d="M 73.832727 258.658866 
L 77.942278 228.348208 
L 82.05183 202.511317 
L 86.161381 194.701657 
L 90.270932 185.292841 
L 94.380483 176.837724 
L 98.490035 171.367016 
L 102.599586 162.079198 
L 106.709137 163.44445 
L 110.818688 157.873698 
L 114.928239 152.323475 
L 119.037791 151.87631 
L 123.147342 156.298337 
L 127.256893 152.994643 
L 131.366444 153.002832 
L 135.475995 153.329508 
L 139.585547 144.556154 
L 143.695098 146.951124 
L 147.804649 146.014527 
L 151.9142 149.416577 
L 156.023751 148.847095 
L 160.133303 149.243068 
L 164.242854 149.829566 
L 168.352405 152.763979 
L 172.461956 150.786634 
L 176.571507 143.816717 
L 180.681059 139.461752 
L 184.79061 141.397202 
L 188.900161 132.792428 
L 193.009712 125.884617 
L 197.119264 121.417903 
L 201.228815 118.033625 
L 205.338366 115.524521 
L 209.447917 110.409981 
L 213.557468 111.389425 
L 217.66702 110.977475 
L 221.776571 110.917106 
L 225.886122 110.188254 
L 229.995673 110.185256 
L 234.105224 110.030176 
L 238.214776 110.030176 
L 242.324327 111.091509 
L 246.433878 111.004789 
L 250.543429 111.479334 
L 254.65298 108.699516 
L 258.762532 107.254978 
L 262.872083 107.705209 
L 266.981634 109.673337 
L 271.091185 114.273381 
L 275.200736 107.413325 
L 279.310288 106.422296 
L 283.419839 104.946895 
L 287.52939 105.856308 
L 291.638941 104.792056 
L 295.748493 105.38283 
L 299.858044 102.304287 
L 303.967595 102.304287 
L 308.077146 101.748501 
L 312.186697 101.62963 
L 316.296249 101.474927 
L 320.4058 101.549827 
L 324.515351 100.175633 
L 328.624902 100.211238 
L 332.734453 100.250793 
L 336.844005 99.310866 
L 340.953556 96.733816 
L 345.063107 97.834262 
L 349.172658 97.342605 
L 353.282209 93.70972 
L 357.391761 93.70972 
L 361.501312 96.378786 
L 365.610863 93.776514 
L 369.720414 97.135647 
L 373.829965 94.917835 
L 377.939517 97.333562 
L 382.049068 97.300546 
L 386.158619 97.478216 
L 390.26817 97.300513 
L 394.377722 95.599621 
L 398.487273 94.854225 
" clip-path="url(#p8199686eaa)" style="fill: none; stroke: #1f77b4; stroke-width: 1.5; stroke-linecap: square"/>
   </g>
   <g id="line2d_17">
    <path d="M 73.832727 265.111442 
L 77.942278 248.530233 
L 82.05183 230.564192 
L 86.161381 230.623902 
L 90.270932 227.832496 
L 94.380483 224.584817 
L 98.490035 222.622488 
L 102.599586 224.572378 
L 106.709137 217.146244 
L 110.818688 212.899409 
L 114.928239 209.558856 
L 119.037791 205.522373 
L 123.147342 201.503885 
L 127.256893 197.929147 
L 131.366444 190.637802 
L 135.475995 189.170832 
L 139.585547 188.707163 
L 143.695098 185.281369 
L 147.804649 185.295947 
L 151.9142 182.378138 
L 156.023751 182.378138 
L 160.133303 181.377441 
L 164.242854 176.999928 
L 168.352405 176.023947 
L 172.461956 176.959137 
L 176.571507 169.511988 
L 180.681059 171.488927 
L 184.79061 167.619721 
L 188.900161 169.319724 
L 193.009712 172.242913 
L 197.119264 171.793836 
L 201.228815 170.543203 
L 205.338366 171.523996 
L 209.447917 170.049745 
L 213.557468 166.463143 
L 217.66702 168.607531 
L 221.776571 168.603456 
L 225.886122 169.596888 
L 229.995673 169.596479 
L 234.105224 159.35991 
L 238.214776 159.35991 
L 242.324327 156.870893 
L 246.433878 155.842518 
L 250.543429 148.767661 
L 254.65298 148.625693 
L 258.762532 142.986763 
L 262.872083 141.048426 
L 266.981634 140.298959 
L 271.091185 133.394485 
L 275.200736 140.824765 
L 279.310288 140.778959 
L 283.419839 140.584024 
L 287.52939 143.987697 
L 291.638941 144.963156 
L 295.748493 141.448115 
L 299.858044 147.836907 
L 303.967595 147.836907 
L 308.077146 144.441821 
L 312.186697 146.345176 
L 316.296249 144.928727 
L 320.4058 140.921048 
L 324.515351 136.302848 
L 328.624902 135.331004 
L 332.734453 129.939906 
L 336.844005 135.845379 
L 340.953556 137.581256 
L 345.063107 135.467556 
L 349.172658 135.558307 
L 353.282209 139.190246 
L 357.391761 139.190246 
L 361.501312 134.709015 
L 365.610863 138.200039 
L 369.720414 130.591343 
L 373.829965 129.114016 
L 377.939517 119.689306 
L 382.049068 119.687722 
L 386.158619 115.584503 
L 390.26817 115.097344 
L 394.377722 118.574389 
L 398.487273 118.571464 
" clip-path="url(#p8199686eaa)" style="fill: none; stroke: #ff7f0e; stroke-width: 1.5; stroke-linecap: square"/>
   </g>
   <g id="line2d_18">
    <path d="M 73.832727 143.724717 
L 77.942278 143.724717 
L 82.05183 124.0733 
L 86.161381 124.0733 
L 90.270932 104.620545 
L 94.380483 82.283583 
L 98.490035 82.283583 
L 102.599586 82.283583 
L 106.709137 82.283583 
L 110.818688 78.250307 
L 114.928239 78.250307 
L 119.037791 78.250307 
L 123.147342 78.250307 
L 127.256893 78.250307 
L 131.366444 78.250307 
L 135.475995 78.250307 
L 139.585547 78.250307 
L 143.695098 78.250307 
L 147.804649 78.250307 
L 151.9142 78.250307 
L 156.023751 78.250307 
L 160.133303 78.250307 
L 164.242854 78.250307 
L 168.352405 78.250307 
L 172.461956 78.250307 
L 176.571507 78.250307 
L 180.681059 78.250307 
L 184.79061 78.250307 
L 188.900161 73.234876 
L 193.009712 73.234876 
L 197.119264 73.234876 
L 201.228815 73.234876 
L 205.338366 73.234876 
L 209.447917 73.234876 
L 213.557468 73.234876 
L 217.66702 73.234876 
L 221.776571 73.234876 
L 225.886122 73.234876 
L 229.995673 73.234876 
L 234.105224 73.234876 
L 238.214776 73.234876 
L 242.324327 73.234876 
L 246.433878 73.234876 
L 250.543429 73.234876 
L 254.65298 73.234876 
L 258.762532 73.234876 
L 262.872083 73.234876 
L 266.981634 73.234876 
L 271.091185 73.234876 
L 275.200736 73.234876 
L 279.310288 73.234876 
L 283.419839 73.234876 
L 287.52939 73.234876 
L 291.638941 73.234876 
L 295.748493 73.234876 
L 299.858044 73.234876 
L 303.967595 73.234876 
L 308.077146 73.234876 
L 312.186697 73.234876 
L 316.296249 73.234876 
L 320.4058 73.234876 
L 324.515351 73.234876 
L 328.624902 73.234876 
L 332.734453 73.234876 
L 336.844005 73.103975 
L 340.953556 73.103975 
L 345.063107 73.103975 
L 349.172658 73.103975 
L 353.282209 73.103975 
L 357.391761 73.103975 
L 361.501312 73.103975 
L 365.610863 73.103975 
L 369.720414 73.103975 
L 373.829965 73.103975 
L 377.939517 73.103975 
L 382.049068 73.103975 
L 386.158619 73.103975 
L 390.26817 73.103975 
L 394.377722 73.103975 
L 398.487273 67.561593 
" clip-path="url(#p8199686eaa)" style="fill: none; stroke-dasharray: 5.55,2.4; stroke-dashoffset: 0; stroke: #2ca02c; stroke-width: 1.5"/>
   </g>
   <g id="line2d_19">
    <path d="M 73.832727 183.863671 
L 77.942278 183.863671 
L 82.05183 145.263613 
L 86.161381 145.263613 
L 90.270932 145.263613 
L 94.380483 82.836781 
L 98.490035 82.836781 
L 102.599586 82.836781 
L 106.709137 82.836781 
L 110.818688 82.836781 
L 114.928239 82.836781 
L 119.037791 79.380221 
L 123.147342 79.380221 
L 127.256893 77.886083 
L 131.366444 77.886083 
L 135.475995 77.886083 
L 139.585547 77.886083 
L 143.695098 77.886083 
L 147.804649 77.886083 
L 151.9142 77.886083 
L 156.023751 77.886083 
L 160.133303 77.886083 
L 164.242854 77.886083 
L 168.352405 77.886083 
L 172.461956 77.886083 
L 176.571507 75.919024 
L 180.681059 75.919024 
L 184.79061 75.919024 
L 188.900161 74.888474 
L 193.009712 74.888474 
L 197.119264 74.888474 
L 201.228815 71.988798 
L 205.338366 71.988798 
L 209.447917 71.801607 
L 213.557468 71.801607 
L 217.66702 71.801607 
L 221.776571 71.801607 
L 225.886122 71.801607 
L 229.995673 71.801607 
L 234.105224 71.801607 
L 238.214776 71.801607 
L 242.324327 71.801607 
L 246.433878 71.801607 
L 250.543429 71.801607 
L 254.65298 71.801607 
L 258.762532 71.801607 
L 262.872083 71.801607 
L 266.981634 71.801607 
L 271.091185 71.170484 
L 275.200736 71.170484 
L 279.310288 71.170484 
L 283.419839 70.088673 
L 287.52939 70.088673 
L 291.638941 70.088673 
L 295.748493 70.088673 
L 299.858044 70.088673 
L 303.967595 70.088673 
L 308.077146 70.088673 
L 312.186697 70.088673 
L 316.296249 70.088673 
L 320.4058 70.088673 
L 324.515351 70.088673 
L 328.624902 70.088673 
L 332.734453 70.088673 
L 336.844005 70.088673 
L 340.953556 70.088673 
L 345.063107 70.088673 
L 349.172658 70.088673 
L 353.282209 70.088673 
L 357.391761 70.088673 
L 361.501312 70.088673 
L 365.610863 70.088673 
L 369.720414 70.088673 
L 373.829965 70.088673 
L 377.939517 70.088673 
L 382.049068 70.088673 
L 386.158619 70.088673 
L 390.26817 70.088673 
L 394.377722 70.088673 
L 398.487273 70.088673 
" clip-path="url(#p8199686eaa)" style="fill: none; stroke-dasharray: 5.55,2.4; stroke-dashoffset: 0; stroke: #d62728; stroke-width: 1.5"/>
   </g>
   <g id="patch_3">
    <path d="M 57.6 307.584 
L 57.6 41.472 
" style="fill: none; stroke: #000000; stroke-width: 0.8; stroke-linejoin: miter; stroke-linecap: square"/>
   </g>
   <g id="patch_4">
    <path d="M 414.72 307.584 
L 414.72 41.472 
" style="fill: none; stroke: #000000; stroke-width: 0.8; stroke-linejoin: miter; stroke-linecap: square"/>
   </g>
   <g id="patch_5">
    <path d="M 57.6 307.584 
L 414.72 307.584 
" style="fill: none; stroke: #000000; stroke-width: 0.8; stroke-linejoin: miter; stroke-linecap: square"/>
   </g>
   <g id="patch_6">
    <path d="M 57.6 41.472 
L 414.72 41.472 
" style="fill: none; stroke: #000000; stroke-width: 0.8; stroke-linejoin: miter; stroke-linecap: square"/>
   </g>
   <g id="text_16">
    <!-- fitness on 4_pymoo -->
    <g transform="translate(177.630938 35.472) scale(0.12 -0.12)">
     <defs>
      <path id="DejaVuSans-66" d="M 2375 4863 
L 2375 4384 
L 1825 4384 
Q 1516 4384 1395 4259 
Q 1275 4134 1275 3809 
L 1275 3500 
L 2222 3500 
L 2222 3053 
L 1275 3053 
L 1275 0 
L 697 0 
L 697 3053 
L 147 3053 
L 147 3500 
L 697 3500 
L 697 3744 
Q 697 4328 969 4595 
Q 1241 4863 1831 4863 
L 2375 4863 
z
" transform="scale(0.015625)"/>
      <path id="DejaVuSans-69" d="M 603 3500 
L 1178 3500 
L 1178 0 
L 603 0 
L 603 3500 
z
M 603 4863 
L 1178 4863 
L 1178 4134 
L 603 4134 
L 603 4863 
z
" transform="scale(0.015625)"/>
      <path id="DejaVuSans-74" d="M 1172 4494 
L 1172 3500 
L 2356 3500 
L 2356 3053 
L 1172 3053 
L 1172 1153 
Q 1172 725 1289 603 
Q 1406 481 1766 481 
L 2356 481 
L 2356 0 
L 1766 0 
Q 1100 0 847 248 
Q 594 497 594 1153 
L 594 3053 
L 172 3053 
L 172 3500 
L 594 3500 
L 594 4494 
L 1172 4494 
z
" transform="scale(0.015625)"/>
      <path id="DejaVuSans-6e" d="M 3513 2113 
L 3513 0 
L 2938 0 
L 2938 2094 
Q 2938 2591 2744 2837 
Q 2550 3084 2163 3084 
Q 1697 3084 1428 2787 
Q 1159 2491 1159 1978 
L 1159 0 
L 581 0 
L 581 3500 
L 1159 3500 
L 1159 2956 
Q 1366 3272 1645 3428 
Q 1925 3584 2291 3584 
Q 2894 3584 3203 3211 
Q 3513 2838 3513 2113 
z
" transform="scale(0.015625)"/>
      <path id="DejaVuSans-65" d="M 3597 1894 
L 3597 1613 
L 953 1613 
Q 991 1019 1311 708 
Q 1631 397 2203 397 
Q 2534 397 2845 478 
Q 3156 559 3463 722 
L 3463 178 
Q 3153 47 2828 -22 
Q 2503 -91 2169 -91 
Q 1331 -91 842 396 
Q 353 884 353 1716 
Q 353 2575 817 3079 
Q 1281 3584 2069 3584 
Q 2775 3584 3186 3129 
Q 3597 2675 3597 1894 
z
M 3022 2063 
Q 3016 2534 2758 2815 
Q 2500 3097 2075 3097 
Q 1594 3097 1305 2825 
Q 1016 2553 972 2059 
L 3022 2063 
z
" transform="scale(0.015625)"/>
      <path id="DejaVuSans-73" d="M 2834 3397 
L 2834 2853 
Q 2591 2978 2328 3040 
Q 2066 3103 1784 3103 
Q 1356 3103 1142 2972 
Q 928 2841 928 2578 
Q 928 2378 1081 2264 
Q 1234 2150 1697 2047 
L 1894 2003 
Q 2506 1872 2764 1633 
Q 3022 1394 3022 966 
Q 3022 478 2636 193 
Q 2250 -91 1575 -91 
Q 1294 -91 989 -36 
Q 684 19 347 128 
L 347 722 
Q 666 556 975 473 
Q 1284 391 1588 391 
Q 1994 391 2212 530 
Q 2431 669 2431 922 
Q 2431 1156 2273 1281 
Q 2116 1406 1581 1522 
L 1381 1569 
Q 847 1681 609 1914 
Q 372 2147 372 2553 
Q 372 3047 722 3315 
Q 1072 3584 1716 3584 
Q 2034 3584 2315 3537 
Q 2597 3491 2834 3397 
z
" transform="scale(0.015625)"/>
      <path id="DejaVuSans-20" transform="scale(0.015625)"/>
      <path id="DejaVuSans-6f" d="M 1959 3097 
Q 1497 3097 1228 2736 
Q 959 2375 959 1747 
Q 959 1119 1226 758 
Q 1494 397 1959 397 
Q 2419 397 2687 759 
Q 2956 1122 2956 1747 
Q 2956 2369 2687 2733 
Q 2419 3097 1959 3097 
z
M 1959 3584 
Q 2709 3584 3137 3096 
Q 3566 2609 3566 1747 
Q 3566 888 3137 398 
Q 2709 -91 1959 -91 
Q 1206 -91 779 398 
Q 353 888 353 1747 
Q 353 2609 779 3096 
Q 1206 3584 1959 3584 
z
" transform="scale(0.015625)"/>
      <path id="DejaVuSans-5f" d="M 3263 -1063 
L 3263 -1509 
L -63 -1509 
L -63 -1063 
L 3263 -1063 
z
" transform="scale(0.015625)"/>
      <path id="DejaVuSans-70" d="M 1159 525 
L 1159 -1331 
L 581 -1331 
L 581 3500 
L 1159 3500 
L 1159 2969 
Q 1341 3281 1617 3432 
Q 1894 3584 2278 3584 
Q 2916 3584 3314 3078 
Q 3713 2572 3713 1747 
Q 3713 922 3314 415 
Q 2916 -91 2278 -91 
Q 1894 -91 1617 61 
Q 1341 213 1159 525 
z
M 3116 1747 
Q 3116 2381 2855 2742 
Q 2594 3103 2138 3103 
Q 1681 3103 1420 2742 
Q 1159 2381 1159 1747 
Q 1159 1113 1420 752 
Q 1681 391 2138 391 
Q 2594 391 2855 752 
Q 3116 1113 3116 1747 
z
" transform="scale(0.015625)"/>
      <path id="DejaVuSans-79" d="M 2059 -325 
Q 1816 -950 1584 -1140 
Q 1353 -1331 966 -1331 
L 506 -1331 
L 506 -850 
L 844 -850 
Q 1081 -850 1212 -737 
Q 1344 -625 1503 -206 
L 1606 56 
L 191 3500 
L 800 3500 
L 1894 763 
L 2988 3500 
L 3597 3500 
L 2059 -325 
z
" transform="scale(0.015625)"/>
      <path id="DejaVuSans-6d" d="M 3328 2828 
Q 3544 3216 3844 3400 
Q 4144 3584 4550 3584 
Q 5097 3584 5394 3201 
Q 5691 2819 5691 2113 
L 5691 0 
L 5113 0 
L 5113 2094 
Q 5113 2597 4934 2840 
Q 4756 3084 4391 3084 
Q 3944 3084 3684 2787 
Q 3425 2491 3425 1978 
L 3425 0 
L 2847 0 
L 2847 2094 
Q 2847 2600 2669 2842 
Q 2491 3084 2119 3084 
Q 1678 3084 1418 2786 
Q 1159 2488 1159 1978 
L 1159 0 
L 581 0 
L 581 3500 
L 1159 3500 
L 1159 2956 
Q 1356 3278 1631 3431 
Q 1906 3584 2284 3584 
Q 2666 3584 2933 3390 
Q 3200 3197 3328 2828 
z
" transform="scale(0.015625)"/>
     </defs>
     <use xlink:href="#DejaVuSans-66"/>
     <use xlink:href="#DejaVuSans-69" x="35.205078"/>
     <use xlink:href="#DejaVuSans-74" x="62.988281"/>
     <use xlink:href="#DejaVuSans-6e" x="102.197266"/>
     <use xlink:href="#DejaVuSans-65" x="165.576172"/>
     <use xlink:href="#DejaVuSans-73" x="227.099609"/>
     <use xlink:href="#DejaVuSans-73" x="279.199219"/>
     <use xlink:href="#DejaVuSans-20" x="331.298828"/>
     <use xlink:href="#DejaVuSans-6f" x="363.085938"/>
     <use xlink:href="#DejaVuSans-6e" x="424.267578"/>
     <use xlink:href="#DejaVuSans-20" x="487.646484"/>
     <use xlink:href="#DejaVuSans-34" x="519.433594"/>
     <use xlink:href="#DejaVuSans-5f" x="583.056641"/>
     <use xlink:href="#DejaVuSans-70" x="633.056641"/>
     <use xlink:href="#DejaVuSans-79" x="696.533203"/>
     <use xlink:href="#DejaVuSans-6d" x="755.712891"/>
     <use xlink:href="#DejaVuSans-6f" x="853.125"/>
     <use xlink:href="#DejaVuSans-6f" x="914.306641"/>
    </g>
   </g>
   <g id="legend_1">
    <g id="patch_7">
     <path d="M 334.555938 302.584 
L 407.72 302.584 
Q 409.72 302.584 409.72 300.584 
L 409.72 242.8715 
Q 409.72 240.8715 407.72 240.8715 
L 334.555938 240.8715 
Q 332.555938 240.8715 332.555938 242.8715 
L 332.555938 300.584 
Q 332.555938 302.584 334.555938 302.584 
z
" style="fill: #ffffff; opacity: 0.8; stroke: #cccccc; stroke-linejoin: miter"/>
    </g>
    <g id="line2d_20">
     <path d="M 336.555938 248.969937 
L 346.555938 248.969937 
L 356.555938 248.969937 
" style="fill: none; stroke: #1f77b4; stroke-width: 1.5; stroke-linecap: square"/>
    </g>
    <g id="text_17">
     <!-- enemyA -->
     <g transform="translate(364.555938 252.469937) scale(0.1 -0.1)">
      <defs>
       <path id="DejaVuSans-41" d="M 2188 4044 
L 1331 1722 
L 3047 1722 
L 2188 4044 
z
M 1831 4666 
L 2547 4666 
L 4325 0 
L 3669 0 
L 3244 1197 
L 1141 1197 
L 716 0 
L 50 0 
L 1831 4666 
z
" transform="scale(0.015625)"/>
      </defs>
      <use xlink:href="#DejaVuSans-65"/>
      <use xlink:href="#DejaVuSans-6e" x="61.523438"/>
      <use xlink:href="#DejaVuSans-65" x="124.902344"/>
      <use xlink:href="#DejaVuSans-6d" x="186.425781"/>
      <use xlink:href="#DejaVuSans-79" x="283.837891"/>
      <use xlink:href="#DejaVuSans-41" x="343.017578"/>
     </g>
    </g>
    <g id="line2d_21">
     <path d="M 336.555938 263.648062 
L 346.555938 263.648062 
L 356.555938 263.648062 
" style="fill: none; stroke: #ff7f0e; stroke-width: 1.5; stroke-linecap: square"/>
    </g>
    <g id="text_18">
     <!-- enemyB -->
     <g transform="translate(364.555938 267.148062) scale(0.1 -0.1)">
      <defs>
       <path id="DejaVuSans-42" d="M 1259 2228 
L 1259 519 
L 2272 519 
Q 2781 519 3026 730 
Q 3272 941 3272 1375 
Q 3272 1813 3026 2020 
Q 2781 2228 2272 2228 
L 1259 2228 
z
M 1259 4147 
L 1259 2741 
L 2194 2741 
Q 2656 2741 2882 2914 
Q 3109 3088 3109 3444 
Q 3109 3797 2882 3972 
Q 2656 4147 2194 4147 
L 1259 4147 
z
M 628 4666 
L 2241 4666 
Q 2963 4666 3353 4366 
Q 3744 4066 3744 3513 
Q 3744 3084 3544 2831 
Q 3344 2578 2956 2516 
Q 3422 2416 3680 2098 
Q 3938 1781 3938 1306 
Q 3938 681 3513 340 
Q 3088 0 2303 0 
L 628 0 
L 628 4666 
z
" transform="scale(0.015625)"/>
      </defs>
      <use xlink:href="#DejaVuSans-65"/>
      <use xlink:href="#DejaVuSans-6e" x="61.523438"/>
      <use xlink:href="#DejaVuSans-65" x="124.902344"/>
      <use xlink:href="#DejaVuSans-6d" x="186.425781"/>
      <use xlink:href="#DejaVuSans-79" x="283.837891"/>
      <use xlink:href="#DejaVuSans-42" x="343.017578"/>
     </g>
    </g>
    <g id="line2d_22">
     <path d="M 336.555938 278.326187 
L 346.555938 278.326187 
L 356.555938 278.326187 
" style="fill: none; stroke-dasharray: 5.55,2.4; stroke-dashoffset: 0; stroke: #2ca02c; stroke-width: 1.5"/>
    </g>
    <g id="text_19">
     <!-- enemyA -->
     <g transform="translate(364.555938 281.826187) scale(0.1 -0.1)">
      <use xlink:href="#DejaVuSans-65"/>
      <use xlink:href="#DejaVuSans-6e" x="61.523438"/>
      <use xlink:href="#DejaVuSans-65" x="124.902344"/>
      <use xlink:href="#DejaVuSans-6d" x="186.425781"/>
      <use xlink:href="#DejaVuSans-79" x="283.837891"/>
      <use xlink:href="#DejaVuSans-41" x="343.017578"/>
     </g>
    </g>
    <g id="line2d_23">
     <path d="M 336.555938 293.004312 
L 346.555938 293.004312 
L 356.555938 293.004312 
" style="fill: none; stroke-dasharray: 5.55,2.4; stroke-dashoffset: 0; stroke: #d62728; stroke-width: 1.5"/>
    </g>
    <g id="text_20">
     <!-- enemyB -->
     <g transform="translate(364.555938 296.504312) scale(0.1 -0.1)">
      <use xlink:href="#DejaVuSans-65"/>
      <use xlink:href="#DejaVuSans-6e" x="61.523438"/>
      <use xlink:href="#DejaVuSans-65" x="124.902344"/>
      <use xlink:href="#DejaVuSans-6d" x="186.425781"/>
      <use xlink:href="#DejaVuSans-79" x="283.837891"/>
      <use xlink:href="#DejaVuSans-42" x="343.017578"/>
     </g>
    </g>
   </g>
  </g>
 </g>
 <defs>
  <clipPath id="p8199686eaa">
   <rect x="57.6" y="41.472" width="357.12" height="266.112"/>
  </clipPath>
 </defs>
</svg>
