<?xml version="1.0" encoding="utf-8" standalone="no"?>
<!DOCTYPE svg PUBLIC "-//W3C//DTD SVG 1.1//EN"
  "http://www.w3.org/Graphics/SVG/1.1/DTD/svg11.dtd">
<svg xmlns:xlink="http://www.w3.org/1999/xlink" width="460.8pt" height="345.6pt" viewBox="0 0 460.8 345.6" xmlns="http://www.w3.org/2000/svg" version="1.1">
 <metadata>
  <rdf:RDF xmlns:dc="http://purl.org/dc/elements/1.1/" xmlns:cc="http://creativecommons.org/ns#" xmlns:rdf="http://www.w3.org/1999/02/22-rdf-syntax-ns#">
   <cc:Work>
    <dc:type rdf:resource="http://purl.org/dc/dcmitype/StillImage"/>
    <dc:date>2022-10-13T09:26:00.521955</dc:date>
    <dc:format>image/svg+xml</dc:format>
    <dc:creator>
     <cc:Agent>
      <dc:title>Matplotlib v3.5.3, https://matplotlib.org/</dc:title>
     </cc:Agent>
    </dc:creator>
   </cc:Work>
  </rdf:RDF>
 </metadata>
 <defs>
  <style type="text/css">*{stroke-linejoin: round; stroke-linecap: butt}</style>
 </defs>
 <g id="figure_1">
  <g id="patch_1">
   <path d="M 0 345.6 
L 460.8 345.6 
L 460.8 0 
L 0 0 
z
" style="fill: #ffffff"/>
  </g>
  <g id="axes_1">
   <g id="patch_2">
    <path d="M 57.6 307.584 
L 414.72 307.584 
L 414.72 41.472 
L 57.6 41.472 
z
" style="fill: #ffffff"/>
   </g>
   <g id="PolyCollection_1">
    <path d="M 73.832727 244.269196 
L 73.832727 278.901942 
L 80.45833 277.869271 
L 87.083933 268.117315 
L 93.709536 262.144214 
L 100.335139 262.945751 
L 106.960742 238.691318 
L 113.586345 235.256456 
L 120.211948 234.736182 
L 126.837551 228.301046 
L 133.463154 227.868059 
L 140.088757 229.847142 
L 146.71436 237.884413 
L 153.339963 236.957038 
L 159.965566 237.255809 
L 166.591169 232.796028 
L 173.216772 236.919616 
L 179.842375 242.41557 
L 186.467978 237.75566 
L 193.093581 241.431677 
L 199.719184 245.973492 
L 206.344787 245.973492 
L 212.97039 242.681651 
L 219.595993 242.1125 
L 226.221596 242.993421 
L 232.847199 242.993421 
L 239.472801 245.519514 
L 246.098404 248.514457 
L 252.724007 244.047202 
L 259.34961 241.564112 
L 265.975213 244.940252 
L 272.600816 237.416585 
L 279.226419 235.995133 
L 285.852022 231.843017 
L 292.477625 228.187705 
L 299.103228 228.187705 
L 305.728831 230.410831 
L 312.354434 228.259313 
L 318.980037 226.293744 
L 325.60564 225.574497 
L 332.231243 220.60316 
L 338.856846 226.089268 
L 345.482449 222.258017 
L 352.108052 217.197711 
L 358.733655 215.621328 
L 365.359258 210.223327 
L 371.984861 208.877008 
L 378.610464 208.888564 
L 385.236067 212.195582 
L 391.86167 215.715537 
L 398.487273 216.595931 
L 398.487273 106.135062 
L 398.487273 106.135062 
L 391.86167 109.677463 
L 385.236067 105.996882 
L 378.610464 105.998215 
L 371.984861 104.228804 
L 365.359258 110.898507 
L 358.733655 114.614773 
L 352.108052 116.681994 
L 345.482449 117.929861 
L 338.856846 117.673931 
L 332.231243 116.889957 
L 325.60564 121.192803 
L 318.980037 121.377933 
L 312.354434 122.112421 
L 305.728831 125.356286 
L 299.103228 126.709155 
L 292.477625 126.709155 
L 285.852022 126.657075 
L 279.226419 126.967693 
L 272.600816 127.348225 
L 265.975213 134.134439 
L 259.34961 132.106777 
L 252.724007 137.04703 
L 246.098404 139.819338 
L 239.472801 137.462342 
L 232.847199 136.438597 
L 226.221596 136.438597 
L 219.595993 136.421815 
L 212.97039 136.735771 
L 206.344787 137.940254 
L 199.719184 137.940254 
L 193.093581 134.427556 
L 186.467978 137.425686 
L 179.842375 142.641771 
L 173.216772 136.509488 
L 166.591169 141.603564 
L 159.965566 144.291619 
L 153.339963 142.847203 
L 146.71436 142.821416 
L 140.088757 140.905847 
L 133.463154 141.918204 
L 126.837551 147.699346 
L 120.211948 157.46651 
L 113.586345 159.557988 
L 106.960742 175.056584 
L 100.335139 181.382384 
L 93.709536 194.610952 
L 87.083933 208.663895 
L 80.45833 221.714386 
L 73.832727 244.269196 
z
" clip-path="url(#pdea5ac51be)" style="fill: #1f77b4; fill-opacity: 0.3"/>
   </g>
   <g id="PolyCollection_2">
    <path d="M 73.832727 176.366925 
L 73.832727 295.488 
L 80.45833 254.323677 
L 87.083933 231.454804 
L 93.709536 183.908322 
L 100.335139 170.339265 
L 106.960742 185.095946 
L 113.586345 179.205819 
L 120.211948 164.970877 
L 126.837551 174.883102 
L 133.463154 173.98994 
L 140.088757 172.04448 
L 146.71436 170.447294 
L 153.339963 164.717837 
L 159.965566 155.878982 
L 166.591169 155.426472 
L 173.216772 148.747861 
L 179.842375 128.914735 
L 186.467978 135.210485 
L 193.093581 133.315901 
L 199.719184 128.667196 
L 206.344787 128.667196 
L 212.97039 128.581212 
L 219.595993 128.552611 
L 226.221596 128.473591 
L 232.847199 128.473591 
L 239.472801 128.372126 
L 246.098404 118.10496 
L 252.724007 118.165097 
L 259.34961 118.171514 
L 265.975213 99.106066 
L 272.600816 99.124805 
L 279.226419 99.141808 
L 285.852022 99.073288 
L 292.477625 99.083438 
L 299.103228 99.083438 
L 305.728831 98.969857 
L 312.354434 114.735859 
L 318.980037 109.465143 
L 325.60564 109.4418 
L 332.231243 119.407278 
L 338.856846 113.471588 
L 345.482449 113.431323 
L 352.108052 104.277561 
L 358.733655 104.276772 
L 365.359258 115.893922 
L 371.984861 120.084338 
L 378.610464 115.730226 
L 385.236067 115.543138 
L 391.86167 115.432188 
L 398.487273 124.86837 
L 398.487273 53.568 
L 398.487273 53.568 
L 391.86167 56.387069 
L 385.236067 56.536279 
L 378.610464 56.832881 
L 371.984861 56.961695 
L 365.359258 57.117384 
L 358.733655 61.961637 
L 352.108052 61.962883 
L 345.482449 58.329312 
L 338.856846 58.406455 
L 332.231243 57.4274 
L 325.60564 61.73586 
L 318.980037 61.780228 
L 312.354434 58.345954 
L 305.728831 67.081749 
L 299.103228 67.253899 
L 292.477625 67.253899 
L 285.852022 67.234044 
L 279.226419 67.419216 
L 272.600816 67.388953 
L 265.975213 67.349901 
L 259.34961 57.564419 
L 252.724007 57.54877 
L 246.098404 57.459618 
L 239.472801 53.820211 
L 232.847199 54.001829 
L 226.221596 54.001829 
L 219.595993 54.145219 
L 212.97039 54.190637 
L 206.344787 54.345764 
L 199.719184 54.345764 
L 193.093581 56.005269 
L 186.467978 57.538468 
L 179.842375 58.068063 
L 173.216772 55.883223 
L 166.591169 58.019192 
L 159.965566 58.15829 
L 153.339963 57.646307 
L 146.71436 60.788493 
L 140.088757 63.416529 
L 133.463154 65.656001 
L 126.837551 66.861077 
L 120.211948 63.114527 
L 113.586345 66.148409 
L 106.960742 66.351926 
L 100.335139 60.28922 
L 93.709536 63.855045 
L 87.083933 79.278594 
L 80.45833 106.239665 
L 73.832727 176.366925 
z
" clip-path="url(#pdea5ac51be)" style="fill: #ff7f0e; fill-opacity: 0.3"/>
   </g>
   <g id="matplotlib.axis_1">
    <g id="xtick_1">
     <g id="line2d_1">
      <defs>
       <path id="m14400d27e6" d="M 0 0 
L 0 3.5 
" style="stroke: #000000; stroke-width: 0.8"/>
      </defs>
      <g>
       <use xlink:href="#m14400d27e6" x="73.832727" y="307.584" style="stroke: #000000; stroke-width: 0.8"/>
      </g>
     </g>
     <g id="text_1">
      <!-- 0 -->
      <g transform="translate(70.651477 322.182437)scale(0.1 -0.1)">
       <defs>
        <path id="DejaVuSans-30" d="M 2034 4250 
Q 1547 4250 1301 3770 
Q 1056 3291 1056 2328 
Q 1056 1369 1301 889 
Q 1547 409 2034 409 
Q 2525 409 2770 889 
Q 3016 1369 3016 2328 
Q 3016 3291 2770 3770 
Q 2525 4250 2034 4250 
z
M 2034 4750 
Q 2819 4750 3233 4129 
Q 3647 3509 3647 2328 
Q 3647 1150 3233 529 
Q 2819 -91 2034 -91 
Q 1250 -91 836 529 
Q 422 1150 422 2328 
Q 422 3509 836 4129 
Q 1250 4750 2034 4750 
z
" transform="scale(0.015625)"/>
       </defs>
       <use xlink:href="#DejaVuSans-30"/>
      </g>
     </g>
    </g>
    <g id="xtick_2">
     <g id="line2d_2">
      <g>
       <use xlink:href="#m14400d27e6" x="140.088757" y="307.584" style="stroke: #000000; stroke-width: 0.8"/>
      </g>
     </g>
     <g id="text_2">
      <!-- 10 -->
      <g transform="translate(133.726257 322.182437)scale(0.1 -0.1)">
       <defs>
        <path id="DejaVuSans-31" d="M 794 531 
L 1825 531 
L 1825 4091 
L 703 3866 
L 703 4441 
L 1819 4666 
L 2450 4666 
L 2450 531 
L 3481 531 
L 3481 0 
L 794 0 
L 794 531 
z
" transform="scale(0.015625)"/>
       </defs>
       <use xlink:href="#DejaVuSans-31"/>
       <use xlink:href="#DejaVuSans-30" x="63.623047"/>
      </g>
     </g>
    </g>
    <g id="xtick_3">
     <g id="line2d_3">
      <g>
       <use xlink:href="#m14400d27e6" x="206.344787" y="307.584" style="stroke: #000000; stroke-width: 0.8"/>
      </g>
     </g>
     <g id="text_3">
      <!-- 20 -->
      <g transform="translate(199.982287 322.182437)scale(0.1 -0.1)">
       <defs>
        <path id="DejaVuSans-32" d="M 1228 531 
L 3431 531 
L 3431 0 
L 469 0 
L 469 531 
Q 828 903 1448 1529 
Q 2069 2156 2228 2338 
Q 2531 2678 2651 2914 
Q 2772 3150 2772 3378 
Q 2772 3750 2511 3984 
Q 2250 4219 1831 4219 
Q 1534 4219 1204 4116 
Q 875 4013 500 3803 
L 500 4441 
Q 881 4594 1212 4672 
Q 1544 4750 1819 4750 
Q 2544 4750 2975 4387 
Q 3406 4025 3406 3419 
Q 3406 3131 3298 2873 
Q 3191 2616 2906 2266 
Q 2828 2175 2409 1742 
Q 1991 1309 1228 531 
z
" transform="scale(0.015625)"/>
       </defs>
       <use xlink:href="#DejaVuSans-32"/>
       <use xlink:href="#DejaVuSans-30" x="63.623047"/>
      </g>
     </g>
    </g>
    <g id="xtick_4">
     <g id="line2d_4">
      <g>
       <use xlink:href="#m14400d27e6" x="272.600816" y="307.584" style="stroke: #000000; stroke-width: 0.8"/>
      </g>
     </g>
     <g id="text_4">
      <!-- 30 -->
      <g transform="translate(266.238316 322.182437)scale(0.1 -0.1)">
       <defs>
        <path id="DejaVuSans-33" d="M 2597 2516 
Q 3050 2419 3304 2112 
Q 3559 1806 3559 1356 
Q 3559 666 3084 287 
Q 2609 -91 1734 -91 
Q 1441 -91 1130 -33 
Q 819 25 488 141 
L 488 750 
Q 750 597 1062 519 
Q 1375 441 1716 441 
Q 2309 441 2620 675 
Q 2931 909 2931 1356 
Q 2931 1769 2642 2001 
Q 2353 2234 1838 2234 
L 1294 2234 
L 1294 2753 
L 1863 2753 
Q 2328 2753 2575 2939 
Q 2822 3125 2822 3475 
Q 2822 3834 2567 4026 
Q 2313 4219 1838 4219 
Q 1578 4219 1281 4162 
Q 984 4106 628 3988 
L 628 4550 
Q 988 4650 1302 4700 
Q 1616 4750 1894 4750 
Q 2613 4750 3031 4423 
Q 3450 4097 3450 3541 
Q 3450 3153 3228 2886 
Q 3006 2619 2597 2516 
z
" transform="scale(0.015625)"/>
       </defs>
       <use xlink:href="#DejaVuSans-33"/>
       <use xlink:href="#DejaVuSans-30" x="63.623047"/>
      </g>
     </g>
    </g>
    <g id="xtick_5">
     <g id="line2d_5">
      <g>
       <use xlink:href="#m14400d27e6" x="338.856846" y="307.584" style="stroke: #000000; stroke-width: 0.8"/>
      </g>
     </g>
     <g id="text_5">
      <!-- 40 -->
      <g transform="translate(332.494346 322.182437)scale(0.1 -0.1)">
       <defs>
        <path id="DejaVuSans-34" d="M 2419 4116 
L 825 1625 
L 2419 1625 
L 2419 4116 
z
M 2253 4666 
L 3047 4666 
L 3047 1625 
L 3713 1625 
L 3713 1100 
L 3047 1100 
L 3047 0 
L 2419 0 
L 2419 1100 
L 313 1100 
L 313 1709 
L 2253 4666 
z
" transform="scale(0.015625)"/>
       </defs>
       <use xlink:href="#DejaVuSans-34"/>
       <use xlink:href="#DejaVuSans-30" x="63.623047"/>
      </g>
     </g>
    </g>
    <g id="xtick_6">
     <g id="line2d_6">
      <g>
       <use xlink:href="#m14400d27e6" x="405.112876" y="307.584" style="stroke: #000000; stroke-width: 0.8"/>
      </g>
     </g>
     <g id="text_6">
      <!-- 50 -->
      <g transform="translate(398.750376 322.182437)scale(0.1 -0.1)">
       <defs>
        <path id="DejaVuSans-35" d="M 691 4666 
L 3169 4666 
L 3169 4134 
L 1269 4134 
L 1269 2991 
Q 1406 3038 1543 3061 
Q 1681 3084 1819 3084 
Q 2600 3084 3056 2656 
Q 3513 2228 3513 1497 
Q 3513 744 3044 326 
Q 2575 -91 1722 -91 
Q 1428 -91 1123 -41 
Q 819 9 494 109 
L 494 744 
Q 775 591 1075 516 
Q 1375 441 1709 441 
Q 2250 441 2565 725 
Q 2881 1009 2881 1497 
Q 2881 1984 2565 2268 
Q 2250 2553 1709 2553 
Q 1456 2553 1204 2497 
Q 953 2441 691 2322 
L 691 4666 
z
" transform="scale(0.015625)"/>
       </defs>
       <use xlink:href="#DejaVuSans-35"/>
       <use xlink:href="#DejaVuSans-30" x="63.623047"/>
      </g>
     </g>
    </g>
   </g>
   <g id="matplotlib.axis_2">
    <g id="ytick_1">
     <g id="line2d_7">
      <defs>
       <path id="mde461bbcb2" d="M 0 0 
L -3.5 0 
" style="stroke: #000000; stroke-width: 0.8"/>
      </defs>
      <g>
       <use xlink:href="#mde461bbcb2" x="57.6" y="296.59383" style="stroke: #000000; stroke-width: 0.8"/>
      </g>
     </g>
     <g id="text_7">
      <!-- −20 -->
      <g transform="translate(29.495313 300.393049)scale(0.1 -0.1)">
       <defs>
        <path id="DejaVuSans-2212" d="M 678 2272 
L 4684 2272 
L 4684 1741 
L 678 1741 
L 678 2272 
z
" transform="scale(0.015625)"/>
       </defs>
       <use xlink:href="#DejaVuSans-2212"/>
       <use xlink:href="#DejaVuSans-32" x="83.789062"/>
       <use xlink:href="#DejaVuSans-30" x="147.412109"/>
      </g>
     </g>
    </g>
    <g id="ytick_2">
     <g id="line2d_8">
      <g>
       <use xlink:href="#mde461bbcb2" x="57.6" y="256.586173" style="stroke: #000000; stroke-width: 0.8"/>
      </g>
     </g>
     <g id="text_8">
      <!-- 0 -->
      <g transform="translate(44.2375 260.385392)scale(0.1 -0.1)">
       <use xlink:href="#DejaVuSans-30"/>
      </g>
     </g>
    </g>
    <g id="ytick_3">
     <g id="line2d_9">
      <g>
       <use xlink:href="#mde461bbcb2" x="57.6" y="216.578516" style="stroke: #000000; stroke-width: 0.8"/>
      </g>
     </g>
     <g id="text_9">
      <!-- 20 -->
      <g transform="translate(37.875 220.377735)scale(0.1 -0.1)">
       <use xlink:href="#DejaVuSans-32"/>
       <use xlink:href="#DejaVuSans-30" x="63.623047"/>
      </g>
     </g>
    </g>
    <g id="ytick_4">
     <g id="line2d_10">
      <g>
       <use xlink:href="#mde461bbcb2" x="57.6" y="176.570859" style="stroke: #000000; stroke-width: 0.8"/>
      </g>
     </g>
     <g id="text_10">
      <!-- 40 -->
      <g transform="translate(37.875 180.370078)scale(0.1 -0.1)">
       <use xlink:href="#DejaVuSans-34"/>
       <use xlink:href="#DejaVuSans-30" x="63.623047"/>
      </g>
     </g>
    </g>
    <g id="ytick_5">
     <g id="line2d_11">
      <g>
       <use xlink:href="#mde461bbcb2" x="57.6" y="136.563202" style="stroke: #000000; stroke-width: 0.8"/>
      </g>
     </g>
     <g id="text_11">
      <!-- 60 -->
      <g transform="translate(37.875 140.362421)scale(0.1 -0.1)">
       <defs>
        <path id="DejaVuSans-36" d="M 2113 2584 
Q 1688 2584 1439 2293 
Q 1191 2003 1191 1497 
Q 1191 994 1439 701 
Q 1688 409 2113 409 
Q 2538 409 2786 701 
Q 3034 994 3034 1497 
Q 3034 2003 2786 2293 
Q 2538 2584 2113 2584 
z
M 3366 4563 
L 3366 3988 
Q 3128 4100 2886 4159 
Q 2644 4219 2406 4219 
Q 1781 4219 1451 3797 
Q 1122 3375 1075 2522 
Q 1259 2794 1537 2939 
Q 1816 3084 2150 3084 
Q 2853 3084 3261 2657 
Q 3669 2231 3669 1497 
Q 3669 778 3244 343 
Q 2819 -91 2113 -91 
Q 1303 -91 875 529 
Q 447 1150 447 2328 
Q 447 3434 972 4092 
Q 1497 4750 2381 4750 
Q 2619 4750 2861 4703 
Q 3103 4656 3366 4563 
z
" transform="scale(0.015625)"/>
       </defs>
       <use xlink:href="#DejaVuSans-36"/>
       <use xlink:href="#DejaVuSans-30" x="63.623047"/>
      </g>
     </g>
    </g>
    <g id="ytick_6">
     <g id="line2d_12">
      <g>
       <use xlink:href="#mde461bbcb2" x="57.6" y="96.555545" style="stroke: #000000; stroke-width: 0.8"/>
      </g>
     </g>
     <g id="text_12">
      <!-- 80 -->
      <g transform="translate(37.875 100.354764)scale(0.1 -0.1)">
       <defs>
        <path id="DejaVuSans-38" d="M 2034 2216 
Q 1584 2216 1326 1975 
Q 1069 1734 1069 1313 
Q 1069 891 1326 650 
Q 1584 409 2034 409 
Q 2484 409 2743 651 
Q 3003 894 3003 1313 
Q 3003 1734 2745 1975 
Q 2488 2216 2034 2216 
z
M 1403 2484 
Q 997 2584 770 2862 
Q 544 3141 544 3541 
Q 544 4100 942 4425 
Q 1341 4750 2034 4750 
Q 2731 4750 3128 4425 
Q 3525 4100 3525 3541 
Q 3525 3141 3298 2862 
Q 3072 2584 2669 2484 
Q 3125 2378 3379 2068 
Q 3634 1759 3634 1313 
Q 3634 634 3220 271 
Q 2806 -91 2034 -91 
Q 1263 -91 848 271 
Q 434 634 434 1313 
Q 434 1759 690 2068 
Q 947 2378 1403 2484 
z
M 1172 3481 
Q 1172 3119 1398 2916 
Q 1625 2713 2034 2713 
Q 2441 2713 2670 2916 
Q 2900 3119 2900 3481 
Q 2900 3844 2670 4047 
Q 2441 4250 2034 4250 
Q 1625 4250 1398 4047 
Q 1172 3844 1172 3481 
z
" transform="scale(0.015625)"/>
       </defs>
       <use xlink:href="#DejaVuSans-38"/>
       <use xlink:href="#DejaVuSans-30" x="63.623047"/>
      </g>
     </g>
    </g>
    <g id="ytick_7">
     <g id="line2d_13">
      <g>
       <use xlink:href="#mde461bbcb2" x="57.6" y="56.547888" style="stroke: #000000; stroke-width: 0.8"/>
      </g>
     </g>
     <g id="text_13">
      <!-- 100 -->
      <g transform="translate(31.5125 60.347107)scale(0.1 -0.1)">
       <use xlink:href="#DejaVuSans-31"/>
       <use xlink:href="#DejaVuSans-30" x="63.623047"/>
       <use xlink:href="#DejaVuSans-30" x="127.246094"/>
      </g>
     </g>
    </g>
   </g>
   <g id="line2d_14">
    <path d="M 73.832727 261.585569 
L 80.45833 249.791829 
L 87.083933 238.390605 
L 93.709536 228.377583 
L 100.335139 222.164068 
L 106.960742 206.873951 
L 113.586345 197.407222 
L 120.211948 196.101346 
L 126.837551 188.000196 
L 133.463154 184.893131 
L 140.088757 185.376495 
L 146.71436 190.352914 
L 153.339963 189.902121 
L 159.965566 190.773714 
L 166.591169 187.199796 
L 173.216772 186.714552 
L 179.842375 192.528671 
L 186.467978 187.590673 
L 193.093581 187.929616 
L 199.719184 191.956873 
L 206.344787 191.956873 
L 212.97039 189.708711 
L 219.595993 189.267158 
L 226.221596 189.716009 
L 232.847199 189.716009 
L 239.472801 191.490928 
L 246.098404 194.166898 
L 252.724007 190.547116 
L 259.34961 186.835444 
L 265.975213 189.537346 
L 272.600816 182.382405 
L 279.226419 181.481413 
L 285.852022 179.250046 
L 292.477625 177.44843 
L 299.103228 177.44843 
L 305.728831 177.883558 
L 312.354434 175.185867 
L 318.980037 173.835839 
L 325.60564 173.38365 
L 332.231243 168.746559 
L 338.856846 171.8816 
L 345.482449 170.093939 
L 352.108052 166.939853 
L 358.733655 165.11805 
L 365.359258 160.560917 
L 371.984861 156.552906 
L 378.610464 157.443389 
L 385.236067 159.096232 
L 391.86167 162.6965 
L 398.487273 161.365497 
" clip-path="url(#pdea5ac51be)" style="fill: none; stroke: #1f77b4; stroke-width: 1.5; stroke-linecap: square"/>
   </g>
   <g id="line2d_15">
    <path d="M 73.832727 235.927462 
L 80.45833 180.281671 
L 87.083933 155.366699 
L 93.709536 123.881683 
L 100.335139 115.314243 
L 106.960742 125.723936 
L 113.586345 122.677114 
L 120.211948 114.042702 
L 126.837551 120.872089 
L 133.463154 119.822971 
L 140.088757 117.730505 
L 146.71436 115.617894 
L 153.339963 111.182072 
L 159.965566 107.018636 
L 166.591169 106.722832 
L 173.216772 102.315542 
L 179.842375 93.491399 
L 186.467978 96.374477 
L 193.093581 94.660585 
L 199.719184 91.50648 
L 206.344787 91.50648 
L 212.97039 91.385925 
L 219.595993 91.348915 
L 226.221596 91.23771 
L 232.847199 91.23771 
L 239.472801 91.096168 
L 246.098404 87.782289 
L 252.724007 87.856933 
L 259.34961 87.867966 
L 265.975213 83.227983 
L 272.600816 83.256879 
L 279.226419 83.280512 
L 285.852022 83.153666 
L 292.477625 83.168669 
L 299.103228 83.168669 
L 305.728831 83.025803 
L 312.354434 86.540906 
L 318.980037 85.622685 
L 325.60564 85.58883 
L 332.231243 88.417339 
L 338.856846 85.939022 
L 345.482449 85.880318 
L 352.108052 83.120222 
L 358.733655 83.119205 
L 365.359258 86.505653 
L 371.984861 88.523016 
L 378.610464 86.281553 
L 385.236067 86.039709 
L 391.86167 85.909628 
L 398.487273 89.218185 
" clip-path="url(#pdea5ac51be)" style="fill: none; stroke: #ff7f0e; stroke-width: 1.5; stroke-linecap: square"/>
   </g>
   <g id="line2d_16">
    <path d="M 73.832727 195.24951 
L 80.45833 141.897076 
L 87.083933 141.897076 
L 93.709536 141.897076 
L 100.335139 141.058111 
L 106.960742 141.058111 
L 113.586345 85.279308 
L 120.211948 85.279308 
L 126.837551 85.279308 
L 133.463154 85.279308 
L 140.088757 85.279308 
L 146.71436 85.279308 
L 153.339963 85.279308 
L 159.965566 85.279308 
L 166.591169 85.279308 
L 173.216772 85.279308 
L 179.842375 85.279308 
L 186.467978 85.279308 
L 193.093581 83.266544 
L 199.719184 83.266544 
L 206.344787 83.266544 
L 212.97039 83.266544 
L 219.595993 83.266544 
L 226.221596 83.266544 
L 232.847199 83.266544 
L 239.472801 83.266544 
L 246.098404 83.266544 
L 252.724007 83.266544 
L 259.34961 83.266544 
L 265.975213 83.266544 
L 272.600816 83.266544 
L 279.226419 83.266544 
L 285.852022 83.266544 
L 292.477625 83.266544 
L 299.103228 83.266544 
L 305.728831 83.266544 
L 312.354434 83.266544 
L 318.980037 83.266544 
L 325.60564 83.266544 
L 332.231243 82.126999 
L 338.856846 82.126999 
L 345.482449 82.126999 
L 352.108052 82.126999 
L 358.733655 82.126999 
L 365.359258 82.126999 
L 371.984861 82.126999 
L 378.610464 82.126999 
L 385.236067 81.520331 
L 391.86167 81.520331 
L 398.487273 81.520331 
" clip-path="url(#pdea5ac51be)" style="fill: none; stroke-dasharray: 5.55,2.4; stroke-dashoffset: 0; stroke: #2ca02c; stroke-width: 1.5"/>
   </g>
   <g id="line2d_17">
    <path d="M 73.832727 83.881631 
L 80.45833 78.679774 
L 87.083933 78.679774 
L 93.709536 78.679774 
L 100.335139 78.679774 
L 106.960742 78.679774 
L 113.586345 78.679774 
L 120.211948 78.386255 
L 126.837551 78.297029 
L 133.463154 78.297029 
L 140.088757 78.297029 
L 146.71436 77.059278 
L 153.339963 77.059278 
L 159.965566 77.059278 
L 166.591169 77.059278 
L 173.216772 77.059278 
L 179.842375 77.059278 
L 186.467978 75.349258 
L 193.093581 75.349258 
L 199.719184 75.349258 
L 206.344787 75.349258 
L 212.97039 75.349258 
L 219.595993 75.349258 
L 226.221596 75.349258 
L 232.847199 75.349258 
L 239.472801 75.349258 
L 246.098404 75.349258 
L 252.724007 75.349258 
L 259.34961 75.349258 
L 265.975213 75.349258 
L 272.600816 75.349258 
L 279.226419 75.349258 
L 285.852022 73.289742 
L 292.477625 73.289742 
L 299.103228 73.289742 
L 305.728831 73.289742 
L 312.354434 73.289742 
L 318.980037 73.289742 
L 325.60564 73.289742 
L 332.231243 73.289742 
L 338.856846 73.289742 
L 345.482449 73.289742 
L 352.108052 73.289742 
L 358.733655 73.289742 
L 365.359258 73.289742 
L 371.984861 73.289742 
L 378.610464 73.289742 
L 385.236067 73.289742 
L 391.86167 73.289742 
L 398.487273 73.289742 
" clip-path="url(#pdea5ac51be)" style="fill: none; stroke-dasharray: 5.55,2.4; stroke-dashoffset: 0; stroke: #d62728; stroke-width: 1.5"/>
   </g>
   <g id="patch_3">
    <path d="M 57.6 307.584 
L 57.6 41.472 
" style="fill: none; stroke: #000000; stroke-width: 0.8; stroke-linejoin: miter; stroke-linecap: square"/>
   </g>
   <g id="patch_4">
    <path d="M 414.72 307.584 
L 414.72 41.472 
" style="fill: none; stroke: #000000; stroke-width: 0.8; stroke-linejoin: miter; stroke-linecap: square"/>
   </g>
   <g id="patch_5">
    <path d="M 57.6 307.584 
L 414.72 307.584 
" style="fill: none; stroke: #000000; stroke-width: 0.8; stroke-linejoin: miter; stroke-linecap: square"/>
   </g>
   <g id="patch_6">
    <path d="M 57.6 41.472 
L 414.72 41.472 
" style="fill: none; stroke: #000000; stroke-width: 0.8; stroke-linejoin: miter; stroke-linecap: square"/>
   </g>
   <g id="text_14">
    <!-- fitness on pymoo_6&amp;8_6 -->
    <g transform="translate(162.316875 35.472)scale(0.12 -0.12)">
     <defs>
      <path id="DejaVuSans-66" d="M 2375 4863 
L 2375 4384 
L 1825 4384 
Q 1516 4384 1395 4259 
Q 1275 4134 1275 3809 
L 1275 3500 
L 2222 3500 
L 2222 3053 
L 1275 3053 
L 1275 0 
L 697 0 
L 697 3053 
L 147 3053 
L 147 3500 
L 697 3500 
L 697 3744 
Q 697 4328 969 4595 
Q 1241 4863 1831 4863 
L 2375 4863 
z
" transform="scale(0.015625)"/>
      <path id="DejaVuSans-69" d="M 603 3500 
L 1178 3500 
L 1178 0 
L 603 0 
L 603 3500 
z
M 603 4863 
L 1178 4863 
L 1178 4134 
L 603 4134 
L 603 4863 
z
" transform="scale(0.015625)"/>
      <path id="DejaVuSans-74" d="M 1172 4494 
L 1172 3500 
L 2356 3500 
L 2356 3053 
L 1172 3053 
L 1172 1153 
Q 1172 725 1289 603 
Q 1406 481 1766 481 
L 2356 481 
L 2356 0 
L 1766 0 
Q 1100 0 847 248 
Q 594 497 594 1153 
L 594 3053 
L 172 3053 
L 172 3500 
L 594 3500 
L 594 4494 
L 1172 4494 
z
" transform="scale(0.015625)"/>
      <path id="DejaVuSans-6e" d="M 3513 2113 
L 3513 0 
L 2938 0 
L 2938 2094 
Q 2938 2591 2744 2837 
Q 2550 3084 2163 3084 
Q 1697 3084 1428 2787 
Q 1159 2491 1159 1978 
L 1159 0 
L 581 0 
L 581 3500 
L 1159 3500 
L 1159 2956 
Q 1366 3272 1645 3428 
Q 1925 3584 2291 3584 
Q 2894 3584 3203 3211 
Q 3513 2838 3513 2113 
z
" transform="scale(0.015625)"/>
      <path id="DejaVuSans-65" d="M 3597 1894 
L 3597 1613 
L 953 1613 
Q 991 1019 1311 708 
Q 1631 397 2203 397 
Q 2534 397 2845 478 
Q 3156 559 3463 722 
L 3463 178 
Q 3153 47 2828 -22 
Q 2503 -91 2169 -91 
Q 1331 -91 842 396 
Q 353 884 353 1716 
Q 353 2575 817 3079 
Q 1281 3584 2069 3584 
Q 2775 3584 3186 3129 
Q 3597 2675 3597 1894 
z
M 3022 2063 
Q 3016 2534 2758 2815 
Q 2500 3097 2075 3097 
Q 1594 3097 1305 2825 
Q 1016 2553 972 2059 
L 3022 2063 
z
" transform="scale(0.015625)"/>
      <path id="DejaVuSans-73" d="M 2834 3397 
L 2834 2853 
Q 2591 2978 2328 3040 
Q 2066 3103 1784 3103 
Q 1356 3103 1142 2972 
Q 928 2841 928 2578 
Q 928 2378 1081 2264 
Q 1234 2150 1697 2047 
L 1894 2003 
Q 2506 1872 2764 1633 
Q 3022 1394 3022 966 
Q 3022 478 2636 193 
Q 2250 -91 1575 -91 
Q 1294 -91 989 -36 
Q 684 19 347 128 
L 347 722 
Q 666 556 975 473 
Q 1284 391 1588 391 
Q 1994 391 2212 530 
Q 2431 669 2431 922 
Q 2431 1156 2273 1281 
Q 2116 1406 1581 1522 
L 1381 1569 
Q 847 1681 609 1914 
Q 372 2147 372 2553 
Q 372 3047 722 3315 
Q 1072 3584 1716 3584 
Q 2034 3584 2315 3537 
Q 2597 3491 2834 3397 
z
" transform="scale(0.015625)"/>
      <path id="DejaVuSans-20" transform="scale(0.015625)"/>
      <path id="DejaVuSans-6f" d="M 1959 3097 
Q 1497 3097 1228 2736 
Q 959 2375 959 1747 
Q 959 1119 1226 758 
Q 1494 397 1959 397 
Q 2419 397 2687 759 
Q 2956 1122 2956 1747 
Q 2956 2369 2687 2733 
Q 2419 3097 1959 3097 
z
M 1959 3584 
Q 2709 3584 3137 3096 
Q 3566 2609 3566 1747 
Q 3566 888 3137 398 
Q 2709 -91 1959 -91 
Q 1206 -91 779 398 
Q 353 888 353 1747 
Q 353 2609 779 3096 
Q 1206 3584 1959 3584 
z
" transform="scale(0.015625)"/>
      <path id="DejaVuSans-70" d="M 1159 525 
L 1159 -1331 
L 581 -1331 
L 581 3500 
L 1159 3500 
L 1159 2969 
Q 1341 3281 1617 3432 
Q 1894 3584 2278 3584 
Q 2916 3584 3314 3078 
Q 3713 2572 3713 1747 
Q 3713 922 3314 415 
Q 2916 -91 2278 -91 
Q 1894 -91 1617 61 
Q 1341 213 1159 525 
z
M 3116 1747 
Q 3116 2381 2855 2742 
Q 2594 3103 2138 3103 
Q 1681 3103 1420 2742 
Q 1159 2381 1159 1747 
Q 1159 1113 1420 752 
Q 1681 391 2138 391 
Q 2594 391 2855 752 
Q 3116 1113 3116 1747 
z
" transform="scale(0.015625)"/>
      <path id="DejaVuSans-79" d="M 2059 -325 
Q 1816 -950 1584 -1140 
Q 1353 -1331 966 -1331 
L 506 -1331 
L 506 -850 
L 844 -850 
Q 1081 -850 1212 -737 
Q 1344 -625 1503 -206 
L 1606 56 
L 191 3500 
L 800 3500 
L 1894 763 
L 2988 3500 
L 3597 3500 
L 2059 -325 
z
" transform="scale(0.015625)"/>
      <path id="DejaVuSans-6d" d="M 3328 2828 
Q 3544 3216 3844 3400 
Q 4144 3584 4550 3584 
Q 5097 3584 5394 3201 
Q 5691 2819 5691 2113 
L 5691 0 
L 5113 0 
L 5113 2094 
Q 5113 2597 4934 2840 
Q 4756 3084 4391 3084 
Q 3944 3084 3684 2787 
Q 3425 2491 3425 1978 
L 3425 0 
L 2847 0 
L 2847 2094 
Q 2847 2600 2669 2842 
Q 2491 3084 2119 3084 
Q 1678 3084 1418 2786 
Q 1159 2488 1159 1978 
L 1159 0 
L 581 0 
L 581 3500 
L 1159 3500 
L 1159 2956 
Q 1356 3278 1631 3431 
Q 1906 3584 2284 3584 
Q 2666 3584 2933 3390 
Q 3200 3197 3328 2828 
z
" transform="scale(0.015625)"/>
      <path id="DejaVuSans-5f" d="M 3263 -1063 
L 3263 -1509 
L -63 -1509 
L -63 -1063 
L 3263 -1063 
z
" transform="scale(0.015625)"/>
      <path id="DejaVuSans-26" d="M 1556 2509 
Q 1272 2256 1139 2004 
Q 1006 1753 1006 1478 
Q 1006 1022 1337 719 
Q 1669 416 2169 416 
Q 2466 416 2725 514 
Q 2984 613 3213 813 
L 1556 2509 
z
M 1997 2859 
L 3584 1234 
Q 3769 1513 3872 1830 
Q 3975 2147 3994 2503 
L 4575 2503 
Q 4538 2091 4375 1687 
Q 4213 1284 3922 891 
L 4794 0 
L 4006 0 
L 3559 459 
Q 3234 181 2878 45 
Q 2522 -91 2113 -91 
Q 1359 -91 881 339 
Q 403 769 403 1441 
Q 403 1841 612 2192 
Q 822 2544 1241 2853 
Q 1091 3050 1012 3245 
Q 934 3441 934 3628 
Q 934 4134 1281 4442 
Q 1628 4750 2203 4750 
Q 2463 4750 2720 4694 
Q 2978 4638 3244 4525 
L 3244 3956 
Q 2972 4103 2725 4179 
Q 2478 4256 2266 4256 
Q 1938 4256 1733 4082 
Q 1528 3909 1528 3634 
Q 1528 3475 1620 3314 
Q 1713 3153 1997 2859 
z
" transform="scale(0.015625)"/>
     </defs>
     <use xlink:href="#DejaVuSans-66"/>
     <use xlink:href="#DejaVuSans-69" x="35.205078"/>
     <use xlink:href="#DejaVuSans-74" x="62.988281"/>
     <use xlink:href="#DejaVuSans-6e" x="102.197266"/>
     <use xlink:href="#DejaVuSans-65" x="165.576172"/>
     <use xlink:href="#DejaVuSans-73" x="227.099609"/>
     <use xlink:href="#DejaVuSans-73" x="279.199219"/>
     <use xlink:href="#DejaVuSans-20" x="331.298828"/>
     <use xlink:href="#DejaVuSans-6f" x="363.085938"/>
     <use xlink:href="#DejaVuSans-6e" x="424.267578"/>
     <use xlink:href="#DejaVuSans-20" x="487.646484"/>
     <use xlink:href="#DejaVuSans-70" x="519.433594"/>
     <use xlink:href="#DejaVuSans-79" x="582.910156"/>
     <use xlink:href="#DejaVuSans-6d" x="642.089844"/>
     <use xlink:href="#DejaVuSans-6f" x="739.501953"/>
     <use xlink:href="#DejaVuSans-6f" x="800.683594"/>
     <use xlink:href="#DejaVuSans-5f" x="861.865234"/>
     <use xlink:href="#DejaVuSans-36" x="911.865234"/>
     <use xlink:href="#DejaVuSans-26" x="975.488281"/>
     <use xlink:href="#DejaVuSans-38" x="1053.466797"/>
     <use xlink:href="#DejaVuSans-5f" x="1117.089844"/>
     <use xlink:href="#DejaVuSans-36" x="1167.089844"/>
    </g>
   </g>
   <g id="legend_1">
    <g id="patch_7">
     <path d="M 334.555938 302.584 
L 407.72 302.584 
Q 409.72 302.584 409.72 300.584 
L 409.72 242.8715 
Q 409.72 240.8715 407.72 240.8715 
L 334.555938 240.8715 
Q 332.555938 240.8715 332.555938 242.8715 
L 332.555938 300.584 
Q 332.555938 302.584 334.555938 302.584 
z
" style="fill: #ffffff; opacity: 0.8; stroke: #cccccc; stroke-linejoin: miter"/>
    </g>
    <g id="line2d_18">
     <path d="M 336.555938 248.969937 
L 346.555938 248.969937 
L 356.555938 248.969937 
" style="fill: none; stroke: #1f77b4; stroke-width: 1.5; stroke-linecap: square"/>
    </g>
    <g id="text_15">
     <!-- enemyA -->
     <g transform="translate(364.555938 252.469937)scale(0.1 -0.1)">
      <defs>
       <path id="DejaVuSans-41" d="M 2188 4044 
L 1331 1722 
L 3047 1722 
L 2188 4044 
z
M 1831 4666 
L 2547 4666 
L 4325 0 
L 3669 0 
L 3244 1197 
L 1141 1197 
L 716 0 
L 50 0 
L 1831 4666 
z
" transform="scale(0.015625)"/>
      </defs>
      <use xlink:href="#DejaVuSans-65"/>
      <use xlink:href="#DejaVuSans-6e" x="61.523438"/>
      <use xlink:href="#DejaVuSans-65" x="124.902344"/>
      <use xlink:href="#DejaVuSans-6d" x="186.425781"/>
      <use xlink:href="#DejaVuSans-79" x="283.837891"/>
      <use xlink:href="#DejaVuSans-41" x="343.017578"/>
     </g>
    </g>
    <g id="line2d_19">
     <path d="M 336.555938 263.648062 
L 346.555938 263.648062 
L 356.555938 263.648062 
" style="fill: none; stroke: #ff7f0e; stroke-width: 1.5; stroke-linecap: square"/>
    </g>
    <g id="text_16">
     <!-- enemyB -->
     <g transform="translate(364.555938 267.148062)scale(0.1 -0.1)">
      <defs>
       <path id="DejaVuSans-42" d="M 1259 2228 
L 1259 519 
L 2272 519 
Q 2781 519 3026 730 
Q 3272 941 3272 1375 
Q 3272 1813 3026 2020 
Q 2781 2228 2272 2228 
L 1259 2228 
z
M 1259 4147 
L 1259 2741 
L 2194 2741 
Q 2656 2741 2882 2914 
Q 3109 3088 3109 3444 
Q 3109 3797 2882 3972 
Q 2656 4147 2194 4147 
L 1259 4147 
z
M 628 4666 
L 2241 4666 
Q 2963 4666 3353 4366 
Q 3744 4066 3744 3513 
Q 3744 3084 3544 2831 
Q 3344 2578 2956 2516 
Q 3422 2416 3680 2098 
Q 3938 1781 3938 1306 
Q 3938 681 3513 340 
Q 3088 0 2303 0 
L 628 0 
L 628 4666 
z
" transform="scale(0.015625)"/>
      </defs>
      <use xlink:href="#DejaVuSans-65"/>
      <use xlink:href="#DejaVuSans-6e" x="61.523438"/>
      <use xlink:href="#DejaVuSans-65" x="124.902344"/>
      <use xlink:href="#DejaVuSans-6d" x="186.425781"/>
      <use xlink:href="#DejaVuSans-79" x="283.837891"/>
      <use xlink:href="#DejaVuSans-42" x="343.017578"/>
     </g>
    </g>
    <g id="line2d_20">
     <path d="M 336.555938 278.326187 
L 346.555938 278.326187 
L 356.555938 278.326187 
" style="fill: none; stroke-dasharray: 5.55,2.4; stroke-dashoffset: 0; stroke: #2ca02c; stroke-width: 1.5"/>
    </g>
    <g id="text_17">
     <!-- enemyA -->
     <g transform="translate(364.555938 281.826187)scale(0.1 -0.1)">
      <use xlink:href="#DejaVuSans-65"/>
      <use xlink:href="#DejaVuSans-6e" x="61.523438"/>
      <use xlink:href="#DejaVuSans-65" x="124.902344"/>
      <use xlink:href="#DejaVuSans-6d" x="186.425781"/>
      <use xlink:href="#DejaVuSans-79" x="283.837891"/>
      <use xlink:href="#DejaVuSans-41" x="343.017578"/>
     </g>
    </g>
    <g id="line2d_21">
     <path d="M 336.555938 293.004312 
L 346.555938 293.004312 
L 356.555938 293.004312 
" style="fill: none; stroke-dasharray: 5.55,2.4; stroke-dashoffset: 0; stroke: #d62728; stroke-width: 1.5"/>
    </g>
    <g id="text_18">
     <!-- enemyB -->
     <g transform="translate(364.555938 296.504312)scale(0.1 -0.1)">
      <use xlink:href="#DejaVuSans-65"/>
      <use xlink:href="#DejaVuSans-6e" x="61.523438"/>
      <use xlink:href="#DejaVuSans-65" x="124.902344"/>
      <use xlink:href="#DejaVuSans-6d" x="186.425781"/>
      <use xlink:href="#DejaVuSans-79" x="283.837891"/>
      <use xlink:href="#DejaVuSans-42" x="343.017578"/>
     </g>
    </g>
   </g>
  </g>
 </g>
 <defs>
  <clipPath id="pdea5ac51be">
   <rect x="57.6" y="41.472" width="357.12" height="266.112"/>
  </clipPath>
 </defs>
</svg>
