<?xml version="1.0" encoding="utf-8" standalone="no"?>
<!DOCTYPE svg PUBLIC "-//W3C//DTD SVG 1.1//EN"
  "http://www.w3.org/Graphics/SVG/1.1/DTD/svg11.dtd">
<svg xmlns:xlink="http://www.w3.org/1999/xlink" width="460.8pt" height="345.6pt" viewBox="0 0 460.8 345.6" xmlns="http://www.w3.org/2000/svg" version="1.1">
 <metadata>
  <rdf:RDF xmlns:dc="http://purl.org/dc/elements/1.1/" xmlns:cc="http://creativecommons.org/ns#" xmlns:rdf="http://www.w3.org/1999/02/22-rdf-syntax-ns#">
   <cc:Work>
    <dc:type rdf:resource="http://purl.org/dc/dcmitype/StillImage"/>
    <dc:date>2022-10-13T09:03:10.942851</dc:date>
    <dc:format>image/svg+xml</dc:format>
    <dc:creator>
     <cc:Agent>
      <dc:title>Matplotlib v3.5.3, https://matplotlib.org/</dc:title>
     </cc:Agent>
    </dc:creator>
   </cc:Work>
  </rdf:RDF>
 </metadata>
 <defs>
  <style type="text/css">*{stroke-linejoin: round; stroke-linecap: butt}</style>
 </defs>
 <g id="figure_1">
  <g id="patch_1">
   <path d="M 0 345.6 
L 460.8 345.6 
L 460.8 0 
L 0 0 
z
" style="fill: #ffffff"/>
  </g>
  <g id="axes_1">
   <g id="patch_2">
    <path d="M 57.6 307.584 
L 414.72 307.584 
L 414.72 41.472 
L 57.6 41.472 
z
" style="fill: #ffffff"/>
   </g>
   <g id="PolyCollection_1">
    <path d="M 73.832727 260.968611 
L 73.832727 294.148295 
L 80.45833 285.340013 
L 87.083933 269.04767 
L 93.709536 266.694426 
L 100.335139 254.505995 
L 106.960742 242.285644 
L 113.586345 250.217202 
L 120.211948 240.236073 
L 126.837551 241.143869 
L 133.463154 236.412903 
L 140.088757 233.422378 
L 146.71436 226.831673 
L 153.339963 218.246703 
L 159.965566 213.042897 
L 166.591169 201.206655 
L 173.216772 200.427999 
L 179.842375 208.311078 
L 186.467978 204.372278 
L 193.093581 201.144331 
L 199.719184 205.311893 
L 206.344787 213.524622 
L 212.97039 208.589199 
L 219.595993 210.110962 
L 226.221596 205.749173 
L 232.847199 201.595953 
L 239.472801 196.028738 
L 246.098404 196.028738 
L 252.724007 182.604811 
L 259.34961 177.540843 
L 265.975213 173.631628 
L 272.600816 158.682999 
L 279.226419 156.581466 
L 285.852022 169.905945 
L 292.477625 163.546675 
L 299.103228 164.140452 
L 305.728831 152.835648 
L 312.354434 145.921698 
L 318.980037 145.917802 
L 325.60564 143.41933 
L 332.231243 141.439099 
L 338.856846 141.879794 
L 345.482449 140.520473 
L 352.108052 138.418971 
L 358.733655 129.780995 
L 365.359258 129.765072 
L 371.984861 128.038565 
L 378.610464 129.628779 
L 385.236067 128.443945 
L 391.86167 128.429613 
L 398.487273 127.817135 
L 398.487273 63.605476 
L 398.487273 63.605476 
L 391.86167 64.072514 
L 385.236067 64.077797 
L 378.610464 65.101881 
L 371.984861 64.496734 
L 365.359258 66.732525 
L 358.733655 66.731758 
L 352.108052 65.902242 
L 345.482449 66.999577 
L 338.856846 69.15846 
L 332.231243 68.548593 
L 325.60564 69.76813 
L 318.980037 69.471943 
L 312.354434 69.483219 
L 305.728831 69.079484 
L 299.103228 70.873296 
L 292.477625 70.439559 
L 285.852022 69.416435 
L 279.226419 70.471848 
L 272.600816 70.579945 
L 265.975213 73.226681 
L 259.34961 74.688627 
L 252.724007 78.850782 
L 246.098404 82.699411 
L 239.472801 82.699411 
L 232.847199 84.767264 
L 226.221596 88.269398 
L 219.595993 93.633608 
L 212.97039 93.041321 
L 206.344787 96.622183 
L 199.719184 96.161001 
L 193.093581 101.87733 
L 186.467978 103.096671 
L 179.842375 104.665465 
L 173.216772 106.096343 
L 166.591169 105.422366 
L 159.965566 109.643317 
L 153.339963 112.655797 
L 146.71436 117.979964 
L 140.088757 120.903594 
L 133.463154 125.208186 
L 126.837551 134.227051 
L 120.211948 136.342579 
L 113.586345 153.847942 
L 106.960742 142.769531 
L 100.335139 157.586428 
L 93.709536 179.596492 
L 87.083933 215.500077 
L 80.45833 245.999203 
L 73.832727 260.968611 
z
" clip-path="url(#p5f382434dc)" style="fill: #1f77b4; fill-opacity: 0.3"/>
   </g>
   <g id="PolyCollection_2">
    <path d="M 73.832727 256.43265 
L 73.832727 295.488 
L 80.45833 282.477085 
L 87.083933 250.438836 
L 93.709536 239.059204 
L 100.335139 246.1198 
L 106.960742 250.550772 
L 113.586345 236.647467 
L 120.211948 251.407652 
L 126.837551 246.396224 
L 133.463154 247.920508 
L 140.088757 249.094046 
L 146.71436 252.509551 
L 153.339963 251.311081 
L 159.965566 252.018736 
L 166.591169 256.136084 
L 173.216772 251.695337 
L 179.842375 248.358727 
L 186.467978 248.661134 
L 193.093581 248.236352 
L 199.719184 240.929444 
L 206.344787 226.263936 
L 212.97039 224.695955 
L 219.595993 217.294618 
L 226.221596 223.377411 
L 232.847199 224.266124 
L 239.472801 223.068638 
L 246.098404 223.068638 
L 252.724007 230.103932 
L 259.34961 232.339362 
L 265.975213 232.694608 
L 272.600816 241.217389 
L 279.226419 241.145695 
L 285.852022 227.069312 
L 292.477625 223.781019 
L 299.103228 219.434964 
L 305.728831 228.381277 
L 312.354434 225.816299 
L 318.980037 224.837624 
L 325.60564 224.567002 
L 332.231243 229.45276 
L 338.856846 224.636067 
L 345.482449 223.873336 
L 352.108052 225.432463 
L 358.733655 230.931004 
L 365.359258 230.947615 
L 371.984861 232.951719 
L 378.610464 230.15019 
L 385.236067 229.78456 
L 391.86167 229.019297 
L 398.487273 228.253186 
L 398.487273 81.523529 
L 398.487273 81.523529 
L 391.86167 82.902995 
L 385.236067 84.320804 
L 378.610464 84.990177 
L 371.984861 90.40876 
L 365.359258 85.645839 
L 358.733655 85.774068 
L 352.108052 81.018475 
L 345.482449 80.577937 
L 338.856846 84.784382 
L 332.231243 85.198677 
L 325.60564 85.9441 
L 318.980037 89.355665 
L 312.354434 89.474929 
L 305.728831 87.072764 
L 299.103228 78.725329 
L 292.477625 82.32878 
L 285.852022 84.45174 
L 279.226419 91.218625 
L 272.600816 91.226115 
L 265.975213 79.151368 
L 259.34961 76.405934 
L 252.724007 74.061261 
L 246.098404 67.907374 
L 239.472801 67.907374 
L 232.847199 66.226322 
L 226.221596 64.092313 
L 219.595993 63.160081 
L 212.97039 69.756339 
L 206.344787 70.708867 
L 199.719184 84.529815 
L 193.093581 93.617322 
L 186.467978 91.113124 
L 179.842375 89.457624 
L 173.216772 99.254021 
L 166.591169 105.751624 
L 159.965566 113.423333 
L 153.339963 129.297526 
L 146.71436 144.793417 
L 140.088757 154.606589 
L 133.463154 157.667391 
L 126.837551 171.926947 
L 120.211948 190.782844 
L 113.586345 190.858416 
L 106.960742 193.719119 
L 100.335139 191.852503 
L 93.709536 193.382798 
L 87.083933 203.958017 
L 80.45833 231.241222 
L 73.832727 256.43265 
z
" clip-path="url(#p5f382434dc)" style="fill: #ff7f0e; fill-opacity: 0.3"/>
   </g>
   <g id="matplotlib.axis_1">
    <g id="xtick_1">
     <g id="line2d_1">
      <defs>
       <path id="m87110a0a6b" d="M 0 0 
L 0 3.5 
" style="stroke: #000000; stroke-width: 0.8"/>
      </defs>
      <g>
       <use xlink:href="#m87110a0a6b" x="73.832727" y="307.584" style="stroke: #000000; stroke-width: 0.8"/>
      </g>
     </g>
     <g id="text_1">
      <!-- 0 -->
      <g transform="translate(70.651477 322.182437)scale(0.1 -0.1)">
       <defs>
        <path id="DejaVuSans-30" d="M 2034 4250 
Q 1547 4250 1301 3770 
Q 1056 3291 1056 2328 
Q 1056 1369 1301 889 
Q 1547 409 2034 409 
Q 2525 409 2770 889 
Q 3016 1369 3016 2328 
Q 3016 3291 2770 3770 
Q 2525 4250 2034 4250 
z
M 2034 4750 
Q 2819 4750 3233 4129 
Q 3647 3509 3647 2328 
Q 3647 1150 3233 529 
Q 2819 -91 2034 -91 
Q 1250 -91 836 529 
Q 422 1150 422 2328 
Q 422 3509 836 4129 
Q 1250 4750 2034 4750 
z
" transform="scale(0.015625)"/>
       </defs>
       <use xlink:href="#DejaVuSans-30"/>
      </g>
     </g>
    </g>
    <g id="xtick_2">
     <g id="line2d_2">
      <g>
       <use xlink:href="#m87110a0a6b" x="140.088757" y="307.584" style="stroke: #000000; stroke-width: 0.8"/>
      </g>
     </g>
     <g id="text_2">
      <!-- 10 -->
      <g transform="translate(133.726257 322.182437)scale(0.1 -0.1)">
       <defs>
        <path id="DejaVuSans-31" d="M 794 531 
L 1825 531 
L 1825 4091 
L 703 3866 
L 703 4441 
L 1819 4666 
L 2450 4666 
L 2450 531 
L 3481 531 
L 3481 0 
L 794 0 
L 794 531 
z
" transform="scale(0.015625)"/>
       </defs>
       <use xlink:href="#DejaVuSans-31"/>
       <use xlink:href="#DejaVuSans-30" x="63.623047"/>
      </g>
     </g>
    </g>
    <g id="xtick_3">
     <g id="line2d_3">
      <g>
       <use xlink:href="#m87110a0a6b" x="206.344787" y="307.584" style="stroke: #000000; stroke-width: 0.8"/>
      </g>
     </g>
     <g id="text_3">
      <!-- 20 -->
      <g transform="translate(199.982287 322.182437)scale(0.1 -0.1)">
       <defs>
        <path id="DejaVuSans-32" d="M 1228 531 
L 3431 531 
L 3431 0 
L 469 0 
L 469 531 
Q 828 903 1448 1529 
Q 2069 2156 2228 2338 
Q 2531 2678 2651 2914 
Q 2772 3150 2772 3378 
Q 2772 3750 2511 3984 
Q 2250 4219 1831 4219 
Q 1534 4219 1204 4116 
Q 875 4013 500 3803 
L 500 4441 
Q 881 4594 1212 4672 
Q 1544 4750 1819 4750 
Q 2544 4750 2975 4387 
Q 3406 4025 3406 3419 
Q 3406 3131 3298 2873 
Q 3191 2616 2906 2266 
Q 2828 2175 2409 1742 
Q 1991 1309 1228 531 
z
" transform="scale(0.015625)"/>
       </defs>
       <use xlink:href="#DejaVuSans-32"/>
       <use xlink:href="#DejaVuSans-30" x="63.623047"/>
      </g>
     </g>
    </g>
    <g id="xtick_4">
     <g id="line2d_4">
      <g>
       <use xlink:href="#m87110a0a6b" x="272.600816" y="307.584" style="stroke: #000000; stroke-width: 0.8"/>
      </g>
     </g>
     <g id="text_4">
      <!-- 30 -->
      <g transform="translate(266.238316 322.182437)scale(0.1 -0.1)">
       <defs>
        <path id="DejaVuSans-33" d="M 2597 2516 
Q 3050 2419 3304 2112 
Q 3559 1806 3559 1356 
Q 3559 666 3084 287 
Q 2609 -91 1734 -91 
Q 1441 -91 1130 -33 
Q 819 25 488 141 
L 488 750 
Q 750 597 1062 519 
Q 1375 441 1716 441 
Q 2309 441 2620 675 
Q 2931 909 2931 1356 
Q 2931 1769 2642 2001 
Q 2353 2234 1838 2234 
L 1294 2234 
L 1294 2753 
L 1863 2753 
Q 2328 2753 2575 2939 
Q 2822 3125 2822 3475 
Q 2822 3834 2567 4026 
Q 2313 4219 1838 4219 
Q 1578 4219 1281 4162 
Q 984 4106 628 3988 
L 628 4550 
Q 988 4650 1302 4700 
Q 1616 4750 1894 4750 
Q 2613 4750 3031 4423 
Q 3450 4097 3450 3541 
Q 3450 3153 3228 2886 
Q 3006 2619 2597 2516 
z
" transform="scale(0.015625)"/>
       </defs>
       <use xlink:href="#DejaVuSans-33"/>
       <use xlink:href="#DejaVuSans-30" x="63.623047"/>
      </g>
     </g>
    </g>
    <g id="xtick_5">
     <g id="line2d_5">
      <g>
       <use xlink:href="#m87110a0a6b" x="338.856846" y="307.584" style="stroke: #000000; stroke-width: 0.8"/>
      </g>
     </g>
     <g id="text_5">
      <!-- 40 -->
      <g transform="translate(332.494346 322.182437)scale(0.1 -0.1)">
       <defs>
        <path id="DejaVuSans-34" d="M 2419 4116 
L 825 1625 
L 2419 1625 
L 2419 4116 
z
M 2253 4666 
L 3047 4666 
L 3047 1625 
L 3713 1625 
L 3713 1100 
L 3047 1100 
L 3047 0 
L 2419 0 
L 2419 1100 
L 313 1100 
L 313 1709 
L 2253 4666 
z
" transform="scale(0.015625)"/>
       </defs>
       <use xlink:href="#DejaVuSans-34"/>
       <use xlink:href="#DejaVuSans-30" x="63.623047"/>
      </g>
     </g>
    </g>
    <g id="xtick_6">
     <g id="line2d_6">
      <g>
       <use xlink:href="#m87110a0a6b" x="405.112876" y="307.584" style="stroke: #000000; stroke-width: 0.8"/>
      </g>
     </g>
     <g id="text_6">
      <!-- 50 -->
      <g transform="translate(398.750376 322.182437)scale(0.1 -0.1)">
       <defs>
        <path id="DejaVuSans-35" d="M 691 4666 
L 3169 4666 
L 3169 4134 
L 1269 4134 
L 1269 2991 
Q 1406 3038 1543 3061 
Q 1681 3084 1819 3084 
Q 2600 3084 3056 2656 
Q 3513 2228 3513 1497 
Q 3513 744 3044 326 
Q 2575 -91 1722 -91 
Q 1428 -91 1123 -41 
Q 819 9 494 109 
L 494 744 
Q 775 591 1075 516 
Q 1375 441 1709 441 
Q 2250 441 2565 725 
Q 2881 1009 2881 1497 
Q 2881 1984 2565 2268 
Q 2250 2553 1709 2553 
Q 1456 2553 1204 2497 
Q 953 2441 691 2322 
L 691 4666 
z
" transform="scale(0.015625)"/>
       </defs>
       <use xlink:href="#DejaVuSans-35"/>
       <use xlink:href="#DejaVuSans-30" x="63.623047"/>
      </g>
     </g>
    </g>
   </g>
   <g id="matplotlib.axis_2">
    <g id="ytick_1">
     <g id="line2d_7">
      <defs>
       <path id="m5ebe102fac" d="M 0 0 
L -3.5 0 
" style="stroke: #000000; stroke-width: 0.8"/>
      </defs>
      <g>
       <use xlink:href="#m5ebe102fac" x="57.6" y="270.777271" style="stroke: #000000; stroke-width: 0.8"/>
      </g>
     </g>
     <g id="text_7">
      <!-- 0 -->
      <g transform="translate(44.2375 274.576489)scale(0.1 -0.1)">
       <use xlink:href="#DejaVuSans-30"/>
      </g>
     </g>
    </g>
    <g id="ytick_2">
     <g id="line2d_8">
      <g>
       <use xlink:href="#m5ebe102fac" x="57.6" y="222.2895" style="stroke: #000000; stroke-width: 0.8"/>
      </g>
     </g>
     <g id="text_8">
      <!-- 20 -->
      <g transform="translate(37.875 226.088719)scale(0.1 -0.1)">
       <use xlink:href="#DejaVuSans-32"/>
       <use xlink:href="#DejaVuSans-30" x="63.623047"/>
      </g>
     </g>
    </g>
    <g id="ytick_3">
     <g id="line2d_9">
      <g>
       <use xlink:href="#m5ebe102fac" x="57.6" y="173.801729" style="stroke: #000000; stroke-width: 0.8"/>
      </g>
     </g>
     <g id="text_9">
      <!-- 40 -->
      <g transform="translate(37.875 177.600948)scale(0.1 -0.1)">
       <use xlink:href="#DejaVuSans-34"/>
       <use xlink:href="#DejaVuSans-30" x="63.623047"/>
      </g>
     </g>
    </g>
    <g id="ytick_4">
     <g id="line2d_10">
      <g>
       <use xlink:href="#m5ebe102fac" x="57.6" y="125.313958" style="stroke: #000000; stroke-width: 0.8"/>
      </g>
     </g>
     <g id="text_10">
      <!-- 60 -->
      <g transform="translate(37.875 129.113177)scale(0.1 -0.1)">
       <defs>
        <path id="DejaVuSans-36" d="M 2113 2584 
Q 1688 2584 1439 2293 
Q 1191 2003 1191 1497 
Q 1191 994 1439 701 
Q 1688 409 2113 409 
Q 2538 409 2786 701 
Q 3034 994 3034 1497 
Q 3034 2003 2786 2293 
Q 2538 2584 2113 2584 
z
M 3366 4563 
L 3366 3988 
Q 3128 4100 2886 4159 
Q 2644 4219 2406 4219 
Q 1781 4219 1451 3797 
Q 1122 3375 1075 2522 
Q 1259 2794 1537 2939 
Q 1816 3084 2150 3084 
Q 2853 3084 3261 2657 
Q 3669 2231 3669 1497 
Q 3669 778 3244 343 
Q 2819 -91 2113 -91 
Q 1303 -91 875 529 
Q 447 1150 447 2328 
Q 447 3434 972 4092 
Q 1497 4750 2381 4750 
Q 2619 4750 2861 4703 
Q 3103 4656 3366 4563 
z
" transform="scale(0.015625)"/>
       </defs>
       <use xlink:href="#DejaVuSans-36"/>
       <use xlink:href="#DejaVuSans-30" x="63.623047"/>
      </g>
     </g>
    </g>
    <g id="ytick_5">
     <g id="line2d_11">
      <g>
       <use xlink:href="#m5ebe102fac" x="57.6" y="76.826187" style="stroke: #000000; stroke-width: 0.8"/>
      </g>
     </g>
     <g id="text_11">
      <!-- 80 -->
      <g transform="translate(37.875 80.625406)scale(0.1 -0.1)">
       <defs>
        <path id="DejaVuSans-38" d="M 2034 2216 
Q 1584 2216 1326 1975 
Q 1069 1734 1069 1313 
Q 1069 891 1326 650 
Q 1584 409 2034 409 
Q 2484 409 2743 651 
Q 3003 894 3003 1313 
Q 3003 1734 2745 1975 
Q 2488 2216 2034 2216 
z
M 1403 2484 
Q 997 2584 770 2862 
Q 544 3141 544 3541 
Q 544 4100 942 4425 
Q 1341 4750 2034 4750 
Q 2731 4750 3128 4425 
Q 3525 4100 3525 3541 
Q 3525 3141 3298 2862 
Q 3072 2584 2669 2484 
Q 3125 2378 3379 2068 
Q 3634 1759 3634 1313 
Q 3634 634 3220 271 
Q 2806 -91 2034 -91 
Q 1263 -91 848 271 
Q 434 634 434 1313 
Q 434 1759 690 2068 
Q 947 2378 1403 2484 
z
M 1172 3481 
Q 1172 3119 1398 2916 
Q 1625 2713 2034 2713 
Q 2441 2713 2670 2916 
Q 2900 3119 2900 3481 
Q 2900 3844 2670 4047 
Q 2441 4250 2034 4250 
Q 1625 4250 1398 4047 
Q 1172 3844 1172 3481 
z
" transform="scale(0.015625)"/>
       </defs>
       <use xlink:href="#DejaVuSans-38"/>
       <use xlink:href="#DejaVuSans-30" x="63.623047"/>
      </g>
     </g>
    </g>
   </g>
   <g id="line2d_12">
    <path d="M 73.832727 277.558453 
L 80.45833 265.669608 
L 87.083933 242.273874 
L 93.709536 223.145459 
L 100.335139 206.046211 
L 106.960742 192.527588 
L 113.586345 202.032572 
L 120.211948 188.289326 
L 126.837551 187.68546 
L 133.463154 180.810545 
L 140.088757 177.162986 
L 146.71436 172.405819 
L 153.339963 165.45125 
L 159.965566 161.343107 
L 166.591169 153.31451 
L 173.216772 153.262171 
L 179.842375 156.488271 
L 186.467978 153.734474 
L 193.093581 151.510831 
L 199.719184 150.736447 
L 206.344787 155.073403 
L 212.97039 150.81526 
L 219.595993 151.872285 
L 226.221596 147.009286 
L 232.847199 143.181609 
L 239.472801 139.364074 
L 246.098404 139.364074 
L 252.724007 130.727797 
L 259.34961 126.114735 
L 265.975213 123.429154 
L 272.600816 114.631472 
L 279.226419 113.526657 
L 285.852022 119.66119 
L 292.477625 116.993117 
L 299.103228 117.506874 
L 305.728831 110.957566 
L 312.354434 107.702459 
L 318.980037 107.694872 
L 325.60564 106.59373 
L 332.231243 104.993846 
L 338.856846 105.519127 
L 345.482449 103.760025 
L 352.108052 102.160606 
L 358.733655 98.256377 
L 365.359258 98.248798 
L 371.984861 96.267649 
L 378.610464 97.36533 
L 385.236067 96.260871 
L 391.86167 96.251063 
L 398.487273 95.711305 
" clip-path="url(#p5f382434dc)" style="fill: none; stroke: #1f77b4; stroke-width: 1.5; stroke-linecap: square"/>
   </g>
   <g id="line2d_13">
    <path d="M 73.832727 275.960325 
L 80.45833 256.859153 
L 87.083933 227.198426 
L 93.709536 216.221001 
L 100.335139 218.986151 
L 106.960742 222.134946 
L 113.586345 213.752942 
L 120.211948 221.095248 
L 126.837551 209.161586 
L 133.463154 202.793949 
L 140.088757 201.850318 
L 146.71436 198.651484 
L 153.339963 190.304304 
L 159.965566 182.721035 
L 166.591169 180.943854 
L 173.216772 175.474679 
L 179.842375 168.908175 
L 186.467978 169.887129 
L 193.093581 170.926837 
L 199.719184 162.72963 
L 206.344787 148.486402 
L 212.97039 147.226147 
L 219.595993 140.22735 
L 226.221596 143.734862 
L 232.847199 145.246223 
L 239.472801 145.488006 
L 246.098404 145.488006 
L 252.724007 152.082597 
L 259.34961 154.372648 
L 265.975213 155.922988 
L 272.600816 166.221752 
L 279.226419 166.18216 
L 285.852022 155.760526 
L 292.477625 153.0549 
L 299.103228 149.080147 
L 305.728831 157.72702 
L 312.354434 157.645614 
L 318.980037 157.096645 
L 325.60564 155.255551 
L 332.231243 157.325718 
L 338.856846 154.710224 
L 345.482449 152.225637 
L 352.108052 153.225469 
L 358.733655 158.352536 
L 365.359258 158.296727 
L 371.984861 161.680239 
L 378.610464 157.570184 
L 385.236067 157.052682 
L 391.86167 155.961146 
L 398.487273 154.888357 
" clip-path="url(#p5f382434dc)" style="fill: none; stroke: #ff7f0e; stroke-width: 1.5; stroke-linecap: square"/>
   </g>
   <g id="line2d_14">
    <path d="M 73.832727 219.713675 
L 80.45833 219.443268 
L 87.083933 174.620052 
L 93.709536 65.298233 
L 100.335139 65.298233 
L 106.960742 65.298233 
L 113.586345 65.298233 
L 120.211948 65.298233 
L 126.837551 65.298233 
L 133.463154 65.298233 
L 140.088757 65.298233 
L 146.71436 65.298233 
L 153.339963 65.298233 
L 159.965566 65.298233 
L 166.591169 65.298233 
L 173.216772 65.298233 
L 179.842375 65.298233 
L 186.467978 65.298233 
L 193.093581 65.298233 
L 199.719184 56.422894 
L 206.344787 56.422894 
L 212.97039 56.422894 
L 219.595993 56.422894 
L 226.221596 56.422894 
L 232.847199 56.422894 
L 239.472801 56.422894 
L 246.098404 56.422894 
L 252.724007 56.422894 
L 259.34961 56.407852 
L 265.975213 56.407852 
L 272.600816 56.407852 
L 279.226419 56.407852 
L 285.852022 55.919111 
L 292.477625 55.919111 
L 299.103228 55.919111 
L 305.728831 55.919111 
L 312.354434 55.919111 
L 318.980037 55.919111 
L 325.60564 55.919111 
L 332.231243 55.919111 
L 338.856846 55.919111 
L 345.482449 55.919111 
L 352.108052 55.919111 
L 358.733655 55.919111 
L 365.359258 55.919111 
L 371.984861 53.568 
L 378.610464 53.568 
L 385.236067 53.568 
L 391.86167 53.568 
L 398.487273 53.568 
" clip-path="url(#p5f382434dc)" style="fill: none; stroke-dasharray: 5.55,2.4; stroke-dashoffset: 0; stroke: #2ca02c; stroke-width: 1.5"/>
   </g>
   <g id="line2d_15">
    <path d="M 73.832727 196.980536 
L 80.45833 196.332311 
L 87.083933 155.517811 
L 93.709536 154.318323 
L 100.335139 154.318323 
L 106.960742 154.318323 
L 113.586345 154.318323 
L 120.211948 154.318323 
L 126.837551 64.545294 
L 133.463154 64.545294 
L 140.088757 64.545294 
L 146.71436 64.427573 
L 153.339963 64.427573 
L 159.965566 58.611338 
L 166.591169 58.611338 
L 173.216772 58.611338 
L 179.842375 58.611338 
L 186.467978 58.611338 
L 193.093581 58.611338 
L 199.719184 58.611338 
L 206.344787 57.61722 
L 212.97039 55.534825 
L 219.595993 55.534825 
L 226.221596 55.534825 
L 232.847199 55.534825 
L 239.472801 55.252271 
L 246.098404 55.252271 
L 252.724007 55.252271 
L 259.34961 55.252271 
L 265.975213 55.252271 
L 272.600816 55.252271 
L 279.226419 55.252271 
L 285.852022 55.252271 
L 292.477625 55.252271 
L 299.103228 55.252271 
L 305.728831 54.815882 
L 312.354434 54.815882 
L 318.980037 54.815882 
L 325.60564 54.815882 
L 332.231243 54.815882 
L 338.856846 54.815882 
L 345.482449 54.719887 
L 352.108052 54.719887 
L 358.733655 54.719887 
L 365.359258 54.719887 
L 371.984861 54.719887 
L 378.610464 54.524955 
L 385.236067 54.524955 
L 391.86167 54.524955 
L 398.487273 54.524955 
" clip-path="url(#p5f382434dc)" style="fill: none; stroke-dasharray: 5.55,2.4; stroke-dashoffset: 0; stroke: #d62728; stroke-width: 1.5"/>
   </g>
   <g id="patch_3">
    <path d="M 57.6 307.584 
L 57.6 41.472 
" style="fill: none; stroke: #000000; stroke-width: 0.8; stroke-linejoin: miter; stroke-linecap: square"/>
   </g>
   <g id="patch_4">
    <path d="M 414.72 307.584 
L 414.72 41.472 
" style="fill: none; stroke: #000000; stroke-width: 0.8; stroke-linejoin: miter; stroke-linecap: square"/>
   </g>
   <g id="patch_5">
    <path d="M 57.6 307.584 
L 414.72 307.584 
" style="fill: none; stroke: #000000; stroke-width: 0.8; stroke-linejoin: miter; stroke-linecap: square"/>
   </g>
   <g id="patch_6">
    <path d="M 57.6 41.472 
L 414.72 41.472 
" style="fill: none; stroke: #000000; stroke-width: 0.8; stroke-linejoin: miter; stroke-linecap: square"/>
   </g>
   <g id="text_12">
    <!-- fitness on 0_pymoo -->
    <g transform="translate(177.630938 35.472)scale(0.12 -0.12)">
     <defs>
      <path id="DejaVuSans-66" d="M 2375 4863 
L 2375 4384 
L 1825 4384 
Q 1516 4384 1395 4259 
Q 1275 4134 1275 3809 
L 1275 3500 
L 2222 3500 
L 2222 3053 
L 1275 3053 
L 1275 0 
L 697 0 
L 697 3053 
L 147 3053 
L 147 3500 
L 697 3500 
L 697 3744 
Q 697 4328 969 4595 
Q 1241 4863 1831 4863 
L 2375 4863 
z
" transform="scale(0.015625)"/>
      <path id="DejaVuSans-69" d="M 603 3500 
L 1178 3500 
L 1178 0 
L 603 0 
L 603 3500 
z
M 603 4863 
L 1178 4863 
L 1178 4134 
L 603 4134 
L 603 4863 
z
" transform="scale(0.015625)"/>
      <path id="DejaVuSans-74" d="M 1172 4494 
L 1172 3500 
L 2356 3500 
L 2356 3053 
L 1172 3053 
L 1172 1153 
Q 1172 725 1289 603 
Q 1406 481 1766 481 
L 2356 481 
L 2356 0 
L 1766 0 
Q 1100 0 847 248 
Q 594 497 594 1153 
L 594 3053 
L 172 3053 
L 172 3500 
L 594 3500 
L 594 4494 
L 1172 4494 
z
" transform="scale(0.015625)"/>
      <path id="DejaVuSans-6e" d="M 3513 2113 
L 3513 0 
L 2938 0 
L 2938 2094 
Q 2938 2591 2744 2837 
Q 2550 3084 2163 3084 
Q 1697 3084 1428 2787 
Q 1159 2491 1159 1978 
L 1159 0 
L 581 0 
L 581 3500 
L 1159 3500 
L 1159 2956 
Q 1366 3272 1645 3428 
Q 1925 3584 2291 3584 
Q 2894 3584 3203 3211 
Q 3513 2838 3513 2113 
z
" transform="scale(0.015625)"/>
      <path id="DejaVuSans-65" d="M 3597 1894 
L 3597 1613 
L 953 1613 
Q 991 1019 1311 708 
Q 1631 397 2203 397 
Q 2534 397 2845 478 
Q 3156 559 3463 722 
L 3463 178 
Q 3153 47 2828 -22 
Q 2503 -91 2169 -91 
Q 1331 -91 842 396 
Q 353 884 353 1716 
Q 353 2575 817 3079 
Q 1281 3584 2069 3584 
Q 2775 3584 3186 3129 
Q 3597 2675 3597 1894 
z
M 3022 2063 
Q 3016 2534 2758 2815 
Q 2500 3097 2075 3097 
Q 1594 3097 1305 2825 
Q 1016 2553 972 2059 
L 3022 2063 
z
" transform="scale(0.015625)"/>
      <path id="DejaVuSans-73" d="M 2834 3397 
L 2834 2853 
Q 2591 2978 2328 3040 
Q 2066 3103 1784 3103 
Q 1356 3103 1142 2972 
Q 928 2841 928 2578 
Q 928 2378 1081 2264 
Q 1234 2150 1697 2047 
L 1894 2003 
Q 2506 1872 2764 1633 
Q 3022 1394 3022 966 
Q 3022 478 2636 193 
Q 2250 -91 1575 -91 
Q 1294 -91 989 -36 
Q 684 19 347 128 
L 347 722 
Q 666 556 975 473 
Q 1284 391 1588 391 
Q 1994 391 2212 530 
Q 2431 669 2431 922 
Q 2431 1156 2273 1281 
Q 2116 1406 1581 1522 
L 1381 1569 
Q 847 1681 609 1914 
Q 372 2147 372 2553 
Q 372 3047 722 3315 
Q 1072 3584 1716 3584 
Q 2034 3584 2315 3537 
Q 2597 3491 2834 3397 
z
" transform="scale(0.015625)"/>
      <path id="DejaVuSans-20" transform="scale(0.015625)"/>
      <path id="DejaVuSans-6f" d="M 1959 3097 
Q 1497 3097 1228 2736 
Q 959 2375 959 1747 
Q 959 1119 1226 758 
Q 1494 397 1959 397 
Q 2419 397 2687 759 
Q 2956 1122 2956 1747 
Q 2956 2369 2687 2733 
Q 2419 3097 1959 3097 
z
M 1959 3584 
Q 2709 3584 3137 3096 
Q 3566 2609 3566 1747 
Q 3566 888 3137 398 
Q 2709 -91 1959 -91 
Q 1206 -91 779 398 
Q 353 888 353 1747 
Q 353 2609 779 3096 
Q 1206 3584 1959 3584 
z
" transform="scale(0.015625)"/>
      <path id="DejaVuSans-5f" d="M 3263 -1063 
L 3263 -1509 
L -63 -1509 
L -63 -1063 
L 3263 -1063 
z
" transform="scale(0.015625)"/>
      <path id="DejaVuSans-70" d="M 1159 525 
L 1159 -1331 
L 581 -1331 
L 581 3500 
L 1159 3500 
L 1159 2969 
Q 1341 3281 1617 3432 
Q 1894 3584 2278 3584 
Q 2916 3584 3314 3078 
Q 3713 2572 3713 1747 
Q 3713 922 3314 415 
Q 2916 -91 2278 -91 
Q 1894 -91 1617 61 
Q 1341 213 1159 525 
z
M 3116 1747 
Q 3116 2381 2855 2742 
Q 2594 3103 2138 3103 
Q 1681 3103 1420 2742 
Q 1159 2381 1159 1747 
Q 1159 1113 1420 752 
Q 1681 391 2138 391 
Q 2594 391 2855 752 
Q 3116 1113 3116 1747 
z
" transform="scale(0.015625)"/>
      <path id="DejaVuSans-79" d="M 2059 -325 
Q 1816 -950 1584 -1140 
Q 1353 -1331 966 -1331 
L 506 -1331 
L 506 -850 
L 844 -850 
Q 1081 -850 1212 -737 
Q 1344 -625 1503 -206 
L 1606 56 
L 191 3500 
L 800 3500 
L 1894 763 
L 2988 3500 
L 3597 3500 
L 2059 -325 
z
" transform="scale(0.015625)"/>
      <path id="DejaVuSans-6d" d="M 3328 2828 
Q 3544 3216 3844 3400 
Q 4144 3584 4550 3584 
Q 5097 3584 5394 3201 
Q 5691 2819 5691 2113 
L 5691 0 
L 5113 0 
L 5113 2094 
Q 5113 2597 4934 2840 
Q 4756 3084 4391 3084 
Q 3944 3084 3684 2787 
Q 3425 2491 3425 1978 
L 3425 0 
L 2847 0 
L 2847 2094 
Q 2847 2600 2669 2842 
Q 2491 3084 2119 3084 
Q 1678 3084 1418 2786 
Q 1159 2488 1159 1978 
L 1159 0 
L 581 0 
L 581 3500 
L 1159 3500 
L 1159 2956 
Q 1356 3278 1631 3431 
Q 1906 3584 2284 3584 
Q 2666 3584 2933 3390 
Q 3200 3197 3328 2828 
z
" transform="scale(0.015625)"/>
     </defs>
     <use xlink:href="#DejaVuSans-66"/>
     <use xlink:href="#DejaVuSans-69" x="35.205078"/>
     <use xlink:href="#DejaVuSans-74" x="62.988281"/>
     <use xlink:href="#DejaVuSans-6e" x="102.197266"/>
     <use xlink:href="#DejaVuSans-65" x="165.576172"/>
     <use xlink:href="#DejaVuSans-73" x="227.099609"/>
     <use xlink:href="#DejaVuSans-73" x="279.199219"/>
     <use xlink:href="#DejaVuSans-20" x="331.298828"/>
     <use xlink:href="#DejaVuSans-6f" x="363.085938"/>
     <use xlink:href="#DejaVuSans-6e" x="424.267578"/>
     <use xlink:href="#DejaVuSans-20" x="487.646484"/>
     <use xlink:href="#DejaVuSans-30" x="519.433594"/>
     <use xlink:href="#DejaVuSans-5f" x="583.056641"/>
     <use xlink:href="#DejaVuSans-70" x="633.056641"/>
     <use xlink:href="#DejaVuSans-79" x="696.533203"/>
     <use xlink:href="#DejaVuSans-6d" x="755.712891"/>
     <use xlink:href="#DejaVuSans-6f" x="853.125"/>
     <use xlink:href="#DejaVuSans-6f" x="914.306641"/>
    </g>
   </g>
   <g id="legend_1">
    <g id="patch_7">
     <path d="M 334.555938 302.584 
L 407.72 302.584 
Q 409.72 302.584 409.72 300.584 
L 409.72 242.8715 
Q 409.72 240.8715 407.72 240.8715 
L 334.555938 240.8715 
Q 332.555938 240.8715 332.555938 242.8715 
L 332.555938 300.584 
Q 332.555938 302.584 334.555938 302.584 
z
" style="fill: #ffffff; opacity: 0.8; stroke: #cccccc; stroke-linejoin: miter"/>
    </g>
    <g id="line2d_16">
     <path d="M 336.555938 248.969937 
L 346.555938 248.969937 
L 356.555938 248.969937 
" style="fill: none; stroke: #1f77b4; stroke-width: 1.5; stroke-linecap: square"/>
    </g>
    <g id="text_13">
     <!-- enemyA -->
     <g transform="translate(364.555938 252.469937)scale(0.1 -0.1)">
      <defs>
       <path id="DejaVuSans-41" d="M 2188 4044 
L 1331 1722 
L 3047 1722 
L 2188 4044 
z
M 1831 4666 
L 2547 4666 
L 4325 0 
L 3669 0 
L 3244 1197 
L 1141 1197 
L 716 0 
L 50 0 
L 1831 4666 
z
" transform="scale(0.015625)"/>
      </defs>
      <use xlink:href="#DejaVuSans-65"/>
      <use xlink:href="#DejaVuSans-6e" x="61.523438"/>
      <use xlink:href="#DejaVuSans-65" x="124.902344"/>
      <use xlink:href="#DejaVuSans-6d" x="186.425781"/>
      <use xlink:href="#DejaVuSans-79" x="283.837891"/>
      <use xlink:href="#DejaVuSans-41" x="343.017578"/>
     </g>
    </g>
    <g id="line2d_17">
     <path d="M 336.555938 263.648062 
L 346.555938 263.648062 
L 356.555938 263.648062 
" style="fill: none; stroke: #ff7f0e; stroke-width: 1.5; stroke-linecap: square"/>
    </g>
    <g id="text_14">
     <!-- enemyB -->
     <g transform="translate(364.555938 267.148062)scale(0.1 -0.1)">
      <defs>
       <path id="DejaVuSans-42" d="M 1259 2228 
L 1259 519 
L 2272 519 
Q 2781 519 3026 730 
Q 3272 941 3272 1375 
Q 3272 1813 3026 2020 
Q 2781 2228 2272 2228 
L 1259 2228 
z
M 1259 4147 
L 1259 2741 
L 2194 2741 
Q 2656 2741 2882 2914 
Q 3109 3088 3109 3444 
Q 3109 3797 2882 3972 
Q 2656 4147 2194 4147 
L 1259 4147 
z
M 628 4666 
L 2241 4666 
Q 2963 4666 3353 4366 
Q 3744 4066 3744 3513 
Q 3744 3084 3544 2831 
Q 3344 2578 2956 2516 
Q 3422 2416 3680 2098 
Q 3938 1781 3938 1306 
Q 3938 681 3513 340 
Q 3088 0 2303 0 
L 628 0 
L 628 4666 
z
" transform="scale(0.015625)"/>
      </defs>
      <use xlink:href="#DejaVuSans-65"/>
      <use xlink:href="#DejaVuSans-6e" x="61.523438"/>
      <use xlink:href="#DejaVuSans-65" x="124.902344"/>
      <use xlink:href="#DejaVuSans-6d" x="186.425781"/>
      <use xlink:href="#DejaVuSans-79" x="283.837891"/>
      <use xlink:href="#DejaVuSans-42" x="343.017578"/>
     </g>
    </g>
    <g id="line2d_18">
     <path d="M 336.555938 278.326187 
L 346.555938 278.326187 
L 356.555938 278.326187 
" style="fill: none; stroke-dasharray: 5.55,2.4; stroke-dashoffset: 0; stroke: #2ca02c; stroke-width: 1.5"/>
    </g>
    <g id="text_15">
     <!-- enemyA -->
     <g transform="translate(364.555938 281.826187)scale(0.1 -0.1)">
      <use xlink:href="#DejaVuSans-65"/>
      <use xlink:href="#DejaVuSans-6e" x="61.523438"/>
      <use xlink:href="#DejaVuSans-65" x="124.902344"/>
      <use xlink:href="#DejaVuSans-6d" x="186.425781"/>
      <use xlink:href="#DejaVuSans-79" x="283.837891"/>
      <use xlink:href="#DejaVuSans-41" x="343.017578"/>
     </g>
    </g>
    <g id="line2d_19">
     <path d="M 336.555938 293.004312 
L 346.555938 293.004312 
L 356.555938 293.004312 
" style="fill: none; stroke-dasharray: 5.55,2.4; stroke-dashoffset: 0; stroke: #d62728; stroke-width: 1.5"/>
    </g>
    <g id="text_16">
     <!-- enemyB -->
     <g transform="translate(364.555938 296.504312)scale(0.1 -0.1)">
      <use xlink:href="#DejaVuSans-65"/>
      <use xlink:href="#DejaVuSans-6e" x="61.523438"/>
      <use xlink:href="#DejaVuSans-65" x="124.902344"/>
      <use xlink:href="#DejaVuSans-6d" x="186.425781"/>
      <use xlink:href="#DejaVuSans-79" x="283.837891"/>
      <use xlink:href="#DejaVuSans-42" x="343.017578"/>
     </g>
    </g>
   </g>
  </g>
 </g>
 <defs>
  <clipPath id="p5f382434dc">
   <rect x="57.6" y="41.472" width="357.12" height="266.112"/>
  </clipPath>
 </defs>
</svg>
