<?xml version="1.0" encoding="utf-8" standalone="no"?>
<!DOCTYPE svg PUBLIC "-//W3C//DTD SVG 1.1//EN"
  "http://www.w3.org/Graphics/SVG/1.1/DTD/svg11.dtd">
<svg xmlns:xlink="http://www.w3.org/1999/xlink" width="460.8pt" height="345.6pt" viewBox="0 0 460.8 345.6" xmlns="http://www.w3.org/2000/svg" version="1.1">
 <metadata>
  <rdf:RDF xmlns:dc="http://purl.org/dc/elements/1.1/" xmlns:cc="http://creativecommons.org/ns#" xmlns:rdf="http://www.w3.org/1999/02/22-rdf-syntax-ns#">
   <cc:Work>
    <dc:type rdf:resource="http://purl.org/dc/dcmitype/StillImage"/>
    <dc:date>2022-10-13T10:25:20.104402</dc:date>
    <dc:format>image/svg+xml</dc:format>
    <dc:creator>
     <cc:Agent>
      <dc:title>Matplotlib v3.5.3, https://matplotlib.org/</dc:title>
     </cc:Agent>
    </dc:creator>
   </cc:Work>
  </rdf:RDF>
 </metadata>
 <defs>
  <style type="text/css">*{stroke-linejoin: round; stroke-linecap: butt}</style>
 </defs>
 <g id="figure_1">
  <g id="patch_1">
   <path d="M 0 345.6 
L 460.8 345.6 
L 460.8 0 
L 0 0 
z
" style="fill: #ffffff"/>
  </g>
  <g id="axes_1">
   <g id="patch_2">
    <path d="M 57.6 307.584 
L 414.72 307.584 
L 414.72 41.472 
L 57.6 41.472 
z
" style="fill: #ffffff"/>
   </g>
   <g id="PolyCollection_1">
    <path d="M 73.832727 245.153179 
L 73.832727 275.023356 
L 77.942278 271.623334 
L 82.05183 263.952737 
L 86.161381 263.890831 
L 90.270932 270.625329 
L 94.380483 269.780499 
L 98.490035 260.674435 
L 102.599586 260.335519 
L 106.709137 260.189511 
L 110.818688 264.098268 
L 114.928239 257.454142 
L 119.037791 259.427305 
L 123.147342 260.149041 
L 127.256893 260.574334 
L 131.366444 264.262301 
L 135.475995 264.11985 
L 139.585547 254.943055 
L 143.695098 256.417736 
L 147.804649 256.52064 
L 151.9142 259.431471 
L 156.023751 255.203274 
L 160.133303 257.709894 
L 164.242854 256.993438 
L 168.352405 259.581625 
L 172.461956 258.240571 
L 176.571507 256.697388 
L 180.681059 250.967473 
L 184.79061 247.505969 
L 188.900161 247.472925 
L 193.009712 243.821516 
L 197.119264 245.599096 
L 201.228815 243.009849 
L 205.338366 237.872752 
L 209.447917 235.857908 
L 213.557468 235.857908 
L 217.66702 234.081817 
L 221.776571 235.253783 
L 225.886122 237.510314 
L 229.995673 237.510314 
L 234.105224 233.561595 
L 238.214776 229.307871 
L 242.324327 233.962706 
L 246.433878 229.961537 
L 250.543429 232.72994 
L 254.65298 234.879791 
L 258.762532 240.391112 
L 262.872083 235.882144 
L 266.981634 233.708643 
L 271.091185 234.774137 
L 275.200736 229.208512 
L 279.310288 228.78689 
L 283.419839 227.687086 
L 287.52939 227.617628 
L 291.638941 226.112867 
L 295.748493 228.684372 
L 299.858044 228.684372 
L 303.967595 225.878469 
L 308.077146 225.878469 
L 312.186697 224.991151 
L 316.296249 221.883148 
L 320.4058 221.256788 
L 324.515351 220.264051 
L 328.624902 219.220427 
L 332.734453 219.287401 
L 336.844005 210.744089 
L 340.953556 218.395516 
L 345.063107 219.556379 
L 349.172658 212.85473 
L 353.282209 211.726528 
L 357.391761 206.578327 
L 361.501312 203.534357 
L 365.610863 209.782947 
L 369.720414 209.819497 
L 373.829965 220.48886 
L 377.939517 215.774519 
L 382.049068 208.545813 
L 386.158619 204.803894 
L 390.26817 201.921434 
L 394.377722 201.685328 
L 398.487273 200.122309 
L 398.487273 89.598039 
L 398.487273 89.598039 
L 394.377722 90.685001 
L 390.26817 88.685332 
L 386.158619 93.929465 
L 382.049068 93.679734 
L 377.939517 94.374157 
L 373.829965 95.877052 
L 369.720414 93.385129 
L 365.610863 95.120341 
L 361.501312 94.441008 
L 357.391761 95.827733 
L 353.282209 94.188954 
L 349.172658 101.030123 
L 345.063107 101.343806 
L 340.953556 101.658297 
L 336.844005 102.227676 
L 332.734453 104.106914 
L 328.624902 104.23671 
L 324.515351 103.958969 
L 320.4058 107.574039 
L 316.296249 109.517888 
L 312.186697 115.198508 
L 308.077146 115.209835 
L 303.967595 115.209835 
L 299.858044 114.904142 
L 295.748493 114.904142 
L 291.638941 113.973874 
L 287.52939 116.790407 
L 283.419839 115.818498 
L 279.310288 115.588072 
L 275.200736 116.032174 
L 271.091185 116.623256 
L 266.981634 116.801428 
L 262.872083 118.197027 
L 258.762532 120.622381 
L 254.65298 124.528926 
L 250.543429 125.852557 
L 246.433878 123.260372 
L 242.324327 126.346424 
L 238.214776 125.624482 
L 234.105224 126.545746 
L 229.995673 130.497038 
L 225.886122 130.497038 
L 221.776571 134.391897 
L 217.66702 138.376492 
L 213.557468 139.167118 
L 209.447917 139.167118 
L 205.338366 140.59258 
L 201.228815 145.862777 
L 197.119264 149.337599 
L 193.009712 146.886745 
L 188.900161 149.402199 
L 184.79061 150.255993 
L 180.681059 152.886947 
L 176.571507 157.689655 
L 172.461956 159.65874 
L 168.352405 162.620042 
L 164.242854 160.89118 
L 160.133303 162.764588 
L 156.023751 162.658052 
L 151.9142 164.553177 
L 147.804649 163.158765 
L 143.695098 164.112318 
L 139.585547 163.800157 
L 135.475995 172.047635 
L 131.366444 172.765099 
L 127.256893 170.303772 
L 123.147342 173.36714 
L 119.037791 174.063337 
L 114.928239 178.771976 
L 110.818688 186.874553 
L 106.709137 187.434686 
L 102.599586 186.400804 
L 98.490035 195.66778 
L 94.380483 213.285934 
L 90.270932 214.905408 
L 86.161381 212.652465 
L 82.05183 215.961863 
L 77.942278 231.750225 
L 73.832727 245.153179 
z
" clip-path="url(#pc02945de77)" style="fill: #1f77b4; fill-opacity: 0.3"/>
   </g>
   <g id="PolyCollection_2">
    <path d="M 73.832727 202.049311 
L 73.832727 295.488 
L 77.942278 286.486451 
L 82.05183 266.799197 
L 86.161381 233.896804 
L 90.270932 185.787864 
L 94.380483 166.934622 
L 98.490035 194.149185 
L 102.599586 196.025571 
L 106.709137 189.436145 
L 110.818688 187.187618 
L 114.928239 200.415491 
L 119.037791 184.754211 
L 123.147342 184.738127 
L 127.256893 163.849052 
L 131.366444 156.243374 
L 135.475995 159.184092 
L 139.585547 167.759956 
L 143.695098 167.621217 
L 147.804649 167.612403 
L 151.9142 153.602514 
L 156.023751 156.032446 
L 160.133303 153.213375 
L 164.242854 153.145908 
L 168.352405 153.010302 
L 172.461956 152.818839 
L 176.571507 152.770023 
L 180.681059 159.048362 
L 184.79061 169.233141 
L 188.900161 174.428154 
L 193.009712 179.508689 
L 197.119264 170.214157 
L 201.228815 170.205362 
L 205.338366 167.43202 
L 209.447917 167.47516 
L 213.557468 167.47516 
L 217.66702 167.526236 
L 221.776571 173.998542 
L 225.886122 178.799811 
L 229.995673 178.799811 
L 234.105224 181.197179 
L 238.214776 180.194626 
L 242.324327 178.165802 
L 246.433878 177.124237 
L 250.543429 163.884776 
L 254.65298 163.775229 
L 258.762532 159.141381 
L 262.872083 164.896748 
L 266.981634 164.759725 
L 271.091185 164.738683 
L 275.200736 164.859807 
L 279.310288 164.853572 
L 283.419839 164.851349 
L 287.52939 164.837299 
L 291.638941 164.931591 
L 295.748493 164.789174 
L 299.858044 164.789174 
L 303.967595 164.784739 
L 308.077146 164.784739 
L 312.186697 164.782098 
L 316.296249 176.595578 
L 320.4058 175.170965 
L 324.515351 179.962768 
L 328.624902 179.957347 
L 332.734453 178.859287 
L 336.844005 183.624051 
L 340.953556 183.543248 
L 345.063107 183.527332 
L 349.172658 183.548595 
L 353.282209 192.625324 
L 357.391761 191.700414 
L 361.501312 192.378353 
L 365.610863 188.884591 
L 369.720414 192.449754 
L 373.829965 186.815856 
L 377.939517 191.314554 
L 382.049068 194.6412 
L 386.158619 194.635186 
L 390.26817 199.161775 
L 394.377722 195.003549 
L 398.487273 194.049583 
L 398.487273 67.218615 
L 398.487273 67.218615 
L 394.377722 67.214001 
L 390.26817 70.047041 
L 386.158619 66.197267 
L 382.049068 66.258783 
L 377.939517 64.067985 
L 373.829965 61.763073 
L 369.720414 64.172773 
L 365.610863 64.802691 
L 361.501312 67.717799 
L 357.391761 66.309731 
L 353.282209 66.158494 
L 349.172658 62.294145 
L 345.063107 62.131884 
L 340.953556 62.234408 
L 336.844005 62.731963 
L 332.734453 61.020845 
L 328.624902 61.142441 
L 324.515351 61.172289 
L 320.4058 60.165566 
L 316.296249 60.348719 
L 312.186697 58.337657 
L 308.077146 58.34816 
L 303.967595 58.34816 
L 299.858044 58.366259 
L 295.748493 58.366259 
L 291.638941 58.854667 
L 287.52939 58.567345 
L 283.419839 58.611227 
L 279.310288 58.620641 
L 275.200736 58.636225 
L 271.091185 58.259023 
L 266.981634 58.336184 
L 262.872083 58.795401 
L 258.762532 57.856576 
L 254.65298 59.511225 
L 250.543429 59.813528 
L 246.433878 61.388461 
L 242.324327 60.853108 
L 238.214776 61.926412 
L 234.105224 61.669118 
L 229.995673 59.04535 
L 225.886122 59.04535 
L 221.776571 58.305462 
L 217.66702 57.726035 
L 213.557468 57.584889 
L 209.447917 57.584889 
L 205.338366 57.474452 
L 201.228815 56.427277 
L 197.119264 56.500285 
L 193.009712 56.286031 
L 188.900161 54.632999 
L 184.79061 53.568 
L 180.681059 54.71103 
L 176.571507 53.865382 
L 172.461956 53.971263 
L 168.352405 54.42173 
L 164.242854 54.705637 
L 160.133303 54.844268 
L 156.023751 56.28118 
L 151.9142 55.739698 
L 147.804649 54.631774 
L 143.695098 54.651988 
L 139.585547 55.043943 
L 135.475995 55.371553 
L 131.366444 56.615263 
L 127.256893 58.734831 
L 123.147342 59.341126 
L 119.037791 59.39372 
L 114.928239 61.987575 
L 110.818688 59.490446 
L 106.709137 62.481009 
L 102.599586 64.200922 
L 98.490035 65.824481 
L 94.380483 59.936331 
L 90.270932 63.929225 
L 86.161381 85.145797 
L 82.05183 147.525713 
L 77.942278 182.762905 
L 73.832727 202.049311 
z
" clip-path="url(#pc02945de77)" style="fill: #ff7f0e; fill-opacity: 0.3"/>
   </g>
   <g id="matplotlib.axis_1">
    <g id="xtick_1">
     <g id="line2d_1">
      <defs>
       <path id="mac93882d5a" d="M 0 0 
L 0 3.5 
" style="stroke: #000000; stroke-width: 0.8"/>
      </defs>
      <g>
       <use xlink:href="#mac93882d5a" x="73.832727" y="307.584" style="stroke: #000000; stroke-width: 0.8"/>
      </g>
     </g>
     <g id="text_1">
      <!-- 0 -->
      <g transform="translate(70.651477 322.182437)scale(0.1 -0.1)">
       <defs>
        <path id="DejaVuSans-30" d="M 2034 4250 
Q 1547 4250 1301 3770 
Q 1056 3291 1056 2328 
Q 1056 1369 1301 889 
Q 1547 409 2034 409 
Q 2525 409 2770 889 
Q 3016 1369 3016 2328 
Q 3016 3291 2770 3770 
Q 2525 4250 2034 4250 
z
M 2034 4750 
Q 2819 4750 3233 4129 
Q 3647 3509 3647 2328 
Q 3647 1150 3233 529 
Q 2819 -91 2034 -91 
Q 1250 -91 836 529 
Q 422 1150 422 2328 
Q 422 3509 836 4129 
Q 1250 4750 2034 4750 
z
" transform="scale(0.015625)"/>
       </defs>
       <use xlink:href="#DejaVuSans-30"/>
      </g>
     </g>
    </g>
    <g id="xtick_2">
     <g id="line2d_2">
      <g>
       <use xlink:href="#mac93882d5a" x="114.928239" y="307.584" style="stroke: #000000; stroke-width: 0.8"/>
      </g>
     </g>
     <g id="text_2">
      <!-- 10 -->
      <g transform="translate(108.565739 322.182437)scale(0.1 -0.1)">
       <defs>
        <path id="DejaVuSans-31" d="M 794 531 
L 1825 531 
L 1825 4091 
L 703 3866 
L 703 4441 
L 1819 4666 
L 2450 4666 
L 2450 531 
L 3481 531 
L 3481 0 
L 794 0 
L 794 531 
z
" transform="scale(0.015625)"/>
       </defs>
       <use xlink:href="#DejaVuSans-31"/>
       <use xlink:href="#DejaVuSans-30" x="63.623047"/>
      </g>
     </g>
    </g>
    <g id="xtick_3">
     <g id="line2d_3">
      <g>
       <use xlink:href="#mac93882d5a" x="156.023751" y="307.584" style="stroke: #000000; stroke-width: 0.8"/>
      </g>
     </g>
     <g id="text_3">
      <!-- 20 -->
      <g transform="translate(149.661251 322.182437)scale(0.1 -0.1)">
       <defs>
        <path id="DejaVuSans-32" d="M 1228 531 
L 3431 531 
L 3431 0 
L 469 0 
L 469 531 
Q 828 903 1448 1529 
Q 2069 2156 2228 2338 
Q 2531 2678 2651 2914 
Q 2772 3150 2772 3378 
Q 2772 3750 2511 3984 
Q 2250 4219 1831 4219 
Q 1534 4219 1204 4116 
Q 875 4013 500 3803 
L 500 4441 
Q 881 4594 1212 4672 
Q 1544 4750 1819 4750 
Q 2544 4750 2975 4387 
Q 3406 4025 3406 3419 
Q 3406 3131 3298 2873 
Q 3191 2616 2906 2266 
Q 2828 2175 2409 1742 
Q 1991 1309 1228 531 
z
" transform="scale(0.015625)"/>
       </defs>
       <use xlink:href="#DejaVuSans-32"/>
       <use xlink:href="#DejaVuSans-30" x="63.623047"/>
      </g>
     </g>
    </g>
    <g id="xtick_4">
     <g id="line2d_4">
      <g>
       <use xlink:href="#mac93882d5a" x="197.119264" y="307.584" style="stroke: #000000; stroke-width: 0.8"/>
      </g>
     </g>
     <g id="text_4">
      <!-- 30 -->
      <g transform="translate(190.756764 322.182437)scale(0.1 -0.1)">
       <defs>
        <path id="DejaVuSans-33" d="M 2597 2516 
Q 3050 2419 3304 2112 
Q 3559 1806 3559 1356 
Q 3559 666 3084 287 
Q 2609 -91 1734 -91 
Q 1441 -91 1130 -33 
Q 819 25 488 141 
L 488 750 
Q 750 597 1062 519 
Q 1375 441 1716 441 
Q 2309 441 2620 675 
Q 2931 909 2931 1356 
Q 2931 1769 2642 2001 
Q 2353 2234 1838 2234 
L 1294 2234 
L 1294 2753 
L 1863 2753 
Q 2328 2753 2575 2939 
Q 2822 3125 2822 3475 
Q 2822 3834 2567 4026 
Q 2313 4219 1838 4219 
Q 1578 4219 1281 4162 
Q 984 4106 628 3988 
L 628 4550 
Q 988 4650 1302 4700 
Q 1616 4750 1894 4750 
Q 2613 4750 3031 4423 
Q 3450 4097 3450 3541 
Q 3450 3153 3228 2886 
Q 3006 2619 2597 2516 
z
" transform="scale(0.015625)"/>
       </defs>
       <use xlink:href="#DejaVuSans-33"/>
       <use xlink:href="#DejaVuSans-30" x="63.623047"/>
      </g>
     </g>
    </g>
    <g id="xtick_5">
     <g id="line2d_5">
      <g>
       <use xlink:href="#mac93882d5a" x="238.214776" y="307.584" style="stroke: #000000; stroke-width: 0.8"/>
      </g>
     </g>
     <g id="text_5">
      <!-- 40 -->
      <g transform="translate(231.852276 322.182437)scale(0.1 -0.1)">
       <defs>
        <path id="DejaVuSans-34" d="M 2419 4116 
L 825 1625 
L 2419 1625 
L 2419 4116 
z
M 2253 4666 
L 3047 4666 
L 3047 1625 
L 3713 1625 
L 3713 1100 
L 3047 1100 
L 3047 0 
L 2419 0 
L 2419 1100 
L 313 1100 
L 313 1709 
L 2253 4666 
z
" transform="scale(0.015625)"/>
       </defs>
       <use xlink:href="#DejaVuSans-34"/>
       <use xlink:href="#DejaVuSans-30" x="63.623047"/>
      </g>
     </g>
    </g>
    <g id="xtick_6">
     <g id="line2d_6">
      <g>
       <use xlink:href="#mac93882d5a" x="279.310288" y="307.584" style="stroke: #000000; stroke-width: 0.8"/>
      </g>
     </g>
     <g id="text_6">
      <!-- 50 -->
      <g transform="translate(272.947788 322.182437)scale(0.1 -0.1)">
       <defs>
        <path id="DejaVuSans-35" d="M 691 4666 
L 3169 4666 
L 3169 4134 
L 1269 4134 
L 1269 2991 
Q 1406 3038 1543 3061 
Q 1681 3084 1819 3084 
Q 2600 3084 3056 2656 
Q 3513 2228 3513 1497 
Q 3513 744 3044 326 
Q 2575 -91 1722 -91 
Q 1428 -91 1123 -41 
Q 819 9 494 109 
L 494 744 
Q 775 591 1075 516 
Q 1375 441 1709 441 
Q 2250 441 2565 725 
Q 2881 1009 2881 1497 
Q 2881 1984 2565 2268 
Q 2250 2553 1709 2553 
Q 1456 2553 1204 2497 
Q 953 2441 691 2322 
L 691 4666 
z
" transform="scale(0.015625)"/>
       </defs>
       <use xlink:href="#DejaVuSans-35"/>
       <use xlink:href="#DejaVuSans-30" x="63.623047"/>
      </g>
     </g>
    </g>
    <g id="xtick_7">
     <g id="line2d_7">
      <g>
       <use xlink:href="#mac93882d5a" x="320.4058" y="307.584" style="stroke: #000000; stroke-width: 0.8"/>
      </g>
     </g>
     <g id="text_7">
      <!-- 60 -->
      <g transform="translate(314.0433 322.182437)scale(0.1 -0.1)">
       <defs>
        <path id="DejaVuSans-36" d="M 2113 2584 
Q 1688 2584 1439 2293 
Q 1191 2003 1191 1497 
Q 1191 994 1439 701 
Q 1688 409 2113 409 
Q 2538 409 2786 701 
Q 3034 994 3034 1497 
Q 3034 2003 2786 2293 
Q 2538 2584 2113 2584 
z
M 3366 4563 
L 3366 3988 
Q 3128 4100 2886 4159 
Q 2644 4219 2406 4219 
Q 1781 4219 1451 3797 
Q 1122 3375 1075 2522 
Q 1259 2794 1537 2939 
Q 1816 3084 2150 3084 
Q 2853 3084 3261 2657 
Q 3669 2231 3669 1497 
Q 3669 778 3244 343 
Q 2819 -91 2113 -91 
Q 1303 -91 875 529 
Q 447 1150 447 2328 
Q 447 3434 972 4092 
Q 1497 4750 2381 4750 
Q 2619 4750 2861 4703 
Q 3103 4656 3366 4563 
z
" transform="scale(0.015625)"/>
       </defs>
       <use xlink:href="#DejaVuSans-36"/>
       <use xlink:href="#DejaVuSans-30" x="63.623047"/>
      </g>
     </g>
    </g>
    <g id="xtick_8">
     <g id="line2d_8">
      <g>
       <use xlink:href="#mac93882d5a" x="361.501312" y="307.584" style="stroke: #000000; stroke-width: 0.8"/>
      </g>
     </g>
     <g id="text_8">
      <!-- 70 -->
      <g transform="translate(355.138812 322.182437)scale(0.1 -0.1)">
       <defs>
        <path id="DejaVuSans-37" d="M 525 4666 
L 3525 4666 
L 3525 4397 
L 1831 0 
L 1172 0 
L 2766 4134 
L 525 4134 
L 525 4666 
z
" transform="scale(0.015625)"/>
       </defs>
       <use xlink:href="#DejaVuSans-37"/>
       <use xlink:href="#DejaVuSans-30" x="63.623047"/>
      </g>
     </g>
    </g>
    <g id="xtick_9">
     <g id="line2d_9">
      <g>
       <use xlink:href="#mac93882d5a" x="402.596824" y="307.584" style="stroke: #000000; stroke-width: 0.8"/>
      </g>
     </g>
     <g id="text_9">
      <!-- 80 -->
      <g transform="translate(396.234324 322.182437)scale(0.1 -0.1)">
       <defs>
        <path id="DejaVuSans-38" d="M 2034 2216 
Q 1584 2216 1326 1975 
Q 1069 1734 1069 1313 
Q 1069 891 1326 650 
Q 1584 409 2034 409 
Q 2484 409 2743 651 
Q 3003 894 3003 1313 
Q 3003 1734 2745 1975 
Q 2488 2216 2034 2216 
z
M 1403 2484 
Q 997 2584 770 2862 
Q 544 3141 544 3541 
Q 544 4100 942 4425 
Q 1341 4750 2034 4750 
Q 2731 4750 3128 4425 
Q 3525 4100 3525 3541 
Q 3525 3141 3298 2862 
Q 3072 2584 2669 2484 
Q 3125 2378 3379 2068 
Q 3634 1759 3634 1313 
Q 3634 634 3220 271 
Q 2806 -91 2034 -91 
Q 1263 -91 848 271 
Q 434 634 434 1313 
Q 434 1759 690 2068 
Q 947 2378 1403 2484 
z
M 1172 3481 
Q 1172 3119 1398 2916 
Q 1625 2713 2034 2713 
Q 2441 2713 2670 2916 
Q 2900 3119 2900 3481 
Q 2900 3844 2670 4047 
Q 2441 4250 2034 4250 
Q 1625 4250 1398 4047 
Q 1172 3844 1172 3481 
z
" transform="scale(0.015625)"/>
       </defs>
       <use xlink:href="#DejaVuSans-38"/>
       <use xlink:href="#DejaVuSans-30" x="63.623047"/>
      </g>
     </g>
    </g>
   </g>
   <g id="matplotlib.axis_2">
    <g id="ytick_1">
     <g id="line2d_10">
      <defs>
       <path id="me082763bf9" d="M 0 0 
L -3.5 0 
" style="stroke: #000000; stroke-width: 0.8"/>
      </defs>
      <g>
       <use xlink:href="#me082763bf9" x="57.6" y="295.02444" style="stroke: #000000; stroke-width: 0.8"/>
      </g>
     </g>
     <g id="text_10">
      <!-- −20 -->
      <g transform="translate(29.495313 298.823659)scale(0.1 -0.1)">
       <defs>
        <path id="DejaVuSans-2212" d="M 678 2272 
L 4684 2272 
L 4684 1741 
L 678 1741 
L 678 2272 
z
" transform="scale(0.015625)"/>
       </defs>
       <use xlink:href="#DejaVuSans-2212"/>
       <use xlink:href="#DejaVuSans-32" x="83.789062"/>
       <use xlink:href="#DejaVuSans-30" x="147.412109"/>
      </g>
     </g>
    </g>
    <g id="ytick_2">
     <g id="line2d_11">
      <g>
       <use xlink:href="#me082763bf9" x="57.6" y="256.236118" style="stroke: #000000; stroke-width: 0.8"/>
      </g>
     </g>
     <g id="text_11">
      <!-- 0 -->
      <g transform="translate(44.2375 260.035337)scale(0.1 -0.1)">
       <use xlink:href="#DejaVuSans-30"/>
      </g>
     </g>
    </g>
    <g id="ytick_3">
     <g id="line2d_12">
      <g>
       <use xlink:href="#me082763bf9" x="57.6" y="217.447795" style="stroke: #000000; stroke-width: 0.8"/>
      </g>
     </g>
     <g id="text_12">
      <!-- 20 -->
      <g transform="translate(37.875 221.247014)scale(0.1 -0.1)">
       <use xlink:href="#DejaVuSans-32"/>
       <use xlink:href="#DejaVuSans-30" x="63.623047"/>
      </g>
     </g>
    </g>
    <g id="ytick_4">
     <g id="line2d_13">
      <g>
       <use xlink:href="#me082763bf9" x="57.6" y="178.659473" style="stroke: #000000; stroke-width: 0.8"/>
      </g>
     </g>
     <g id="text_13">
      <!-- 40 -->
      <g transform="translate(37.875 182.458692)scale(0.1 -0.1)">
       <use xlink:href="#DejaVuSans-34"/>
       <use xlink:href="#DejaVuSans-30" x="63.623047"/>
      </g>
     </g>
    </g>
    <g id="ytick_5">
     <g id="line2d_14">
      <g>
       <use xlink:href="#me082763bf9" x="57.6" y="139.87115" style="stroke: #000000; stroke-width: 0.8"/>
      </g>
     </g>
     <g id="text_14">
      <!-- 60 -->
      <g transform="translate(37.875 143.670369)scale(0.1 -0.1)">
       <use xlink:href="#DejaVuSans-36"/>
       <use xlink:href="#DejaVuSans-30" x="63.623047"/>
      </g>
     </g>
    </g>
    <g id="ytick_6">
     <g id="line2d_15">
      <g>
       <use xlink:href="#me082763bf9" x="57.6" y="101.082828" style="stroke: #000000; stroke-width: 0.8"/>
      </g>
     </g>
     <g id="text_15">
      <!-- 80 -->
      <g transform="translate(37.875 104.882047)scale(0.1 -0.1)">
       <use xlink:href="#DejaVuSans-38"/>
       <use xlink:href="#DejaVuSans-30" x="63.623047"/>
      </g>
     </g>
    </g>
    <g id="ytick_7">
     <g id="line2d_16">
      <g>
       <use xlink:href="#me082763bf9" x="57.6" y="62.294505" style="stroke: #000000; stroke-width: 0.8"/>
      </g>
     </g>
     <g id="text_16">
      <!-- 100 -->
      <g transform="translate(31.5125 66.093724)scale(0.1 -0.1)">
       <use xlink:href="#DejaVuSans-31"/>
       <use xlink:href="#DejaVuSans-30" x="63.623047"/>
       <use xlink:href="#DejaVuSans-30" x="127.246094"/>
      </g>
     </g>
    </g>
   </g>
   <g id="line2d_17">
    <path d="M 73.832727 260.088268 
L 77.942278 251.686779 
L 82.05183 239.9573 
L 86.161381 238.271648 
L 90.270932 242.765369 
L 94.380483 241.533217 
L 98.490035 228.171108 
L 102.599586 223.368162 
L 106.709137 223.812099 
L 110.818688 225.48641 
L 114.928239 218.113059 
L 119.037791 216.745321 
L 123.147342 216.75809 
L 127.256893 215.439053 
L 131.366444 218.5137 
L 135.475995 218.083742 
L 139.585547 209.371606 
L 143.695098 210.265027 
L 147.804649 209.839703 
L 151.9142 211.992324 
L 156.023751 208.930663 
L 160.133303 210.237241 
L 164.242854 208.942309 
L 168.352405 211.100833 
L 172.461956 208.949656 
L 176.571507 207.193522 
L 180.681059 201.92721 
L 184.79061 198.880981 
L 188.900161 198.437562 
L 193.009712 195.35413 
L 197.119264 197.468348 
L 201.228815 194.436313 
L 205.338366 189.232666 
L 209.447917 187.512513 
L 213.557468 187.512513 
L 217.66702 186.229154 
L 221.776571 184.82284 
L 225.886122 184.003676 
L 229.995673 184.003676 
L 234.105224 180.05367 
L 238.214776 177.466176 
L 242.324327 180.154565 
L 246.433878 176.610954 
L 250.543429 179.291248 
L 254.65298 179.704359 
L 258.762532 180.506747 
L 262.872083 177.039586 
L 266.981634 175.255035 
L 271.091185 175.698696 
L 275.200736 172.620343 
L 279.310288 172.187481 
L 283.419839 171.752792 
L 287.52939 172.204018 
L 291.638941 170.043371 
L 295.748493 171.794257 
L 299.858044 171.794257 
L 303.967595 170.544152 
L 308.077146 170.544152 
L 312.186697 170.09483 
L 316.296249 165.700518 
L 320.4058 164.415414 
L 324.515351 162.11151 
L 328.624902 161.728568 
L 332.734453 161.697157 
L 336.844005 156.485882 
L 340.953556 160.026906 
L 345.063107 160.450092 
L 349.172658 156.942427 
L 353.282209 152.957741 
L 357.391761 151.20303 
L 361.501312 148.987683 
L 365.610863 152.451644 
L 369.720414 151.602313 
L 373.829965 158.182956 
L 377.939517 155.074338 
L 382.049068 151.112774 
L 386.158619 149.366679 
L 390.26817 145.303383 
L 394.377722 146.185164 
L 398.487273 144.860174 
" clip-path="url(#pc02945de77)" style="fill: none; stroke: #1f77b4; stroke-width: 1.5; stroke-linecap: square"/>
   </g>
   <g id="line2d_18">
    <path d="M 73.832727 248.768656 
L 77.942278 234.624678 
L 82.05183 207.162455 
L 86.161381 159.5213 
L 90.270932 124.858544 
L 94.380483 113.435476 
L 98.490035 129.986833 
L 102.599586 130.113246 
L 106.709137 125.958577 
L 110.818688 123.339032 
L 114.928239 131.201533 
L 119.037791 122.073966 
L 123.147342 122.039626 
L 127.256893 111.291942 
L 131.366444 106.429319 
L 135.475995 107.277823 
L 139.585547 111.401949 
L 143.695098 111.136603 
L 147.804649 111.122088 
L 151.9142 104.671106 
L 156.023751 106.156813 
L 160.133303 104.028821 
L 164.242854 103.925772 
L 168.352405 103.716016 
L 172.461956 103.395051 
L 176.571507 103.317702 
L 180.681059 106.879696 
L 184.79061 111.400571 
L 188.900161 114.530576 
L 193.009712 117.89736 
L 197.119264 113.357221 
L 201.228815 113.31632 
L 205.338366 112.453236 
L 209.447917 112.530024 
L 213.557468 112.530024 
L 217.66702 112.626135 
L 221.776571 116.152002 
L 225.886122 118.92258 
L 229.995673 118.92258 
L 234.105224 121.433148 
L 238.214776 121.060519 
L 242.324327 119.509455 
L 246.433878 119.256349 
L 250.543429 111.849152 
L 254.65298 111.643227 
L 258.762532 108.498978 
L 262.872083 111.846075 
L 266.981634 111.547955 
L 271.091185 111.498853 
L 275.200736 111.748016 
L 279.310288 111.737106 
L 283.419839 111.731288 
L 287.52939 111.702322 
L 291.638941 111.893129 
L 295.748493 111.577716 
L 299.858044 111.577716 
L 303.967595 111.56645 
L 308.077146 111.56645 
L 312.186697 111.559877 
L 316.296249 118.472148 
L 320.4058 117.668265 
L 324.515351 120.567528 
L 328.624902 120.549894 
L 332.734453 119.940066 
L 336.844005 123.178007 
L 340.953556 122.888828 
L 345.063107 122.829608 
L 349.172658 122.92137 
L 353.282209 129.391909 
L 357.391761 129.005072 
L 361.501312 130.048076 
L 365.610863 126.843641 
L 369.720414 128.311263 
L 373.829965 124.289464 
L 377.939517 127.69127 
L 382.049068 130.449991 
L 386.158619 130.416227 
L 390.26817 134.604408 
L 394.377722 131.108775 
L 398.487273 130.634099 
" clip-path="url(#pc02945de77)" style="fill: none; stroke: #ff7f0e; stroke-width: 1.5; stroke-linecap: square"/>
   </g>
   <g id="line2d_19">
    <path d="M 73.832727 198.131705 
L 77.942278 196.466772 
L 82.05183 179.567236 
L 86.161381 179.567236 
L 90.270932 179.567236 
L 94.380483 179.567236 
L 98.490035 163.377451 
L 102.599586 127.419575 
L 106.709137 127.419575 
L 110.818688 127.419575 
L 114.928239 127.419575 
L 119.037791 127.419575 
L 123.147342 127.419575 
L 127.256893 127.419575 
L 131.366444 127.419575 
L 135.475995 127.419575 
L 139.585547 127.419575 
L 143.695098 127.419575 
L 147.804649 127.419575 
L 151.9142 127.419575 
L 156.023751 127.419575 
L 160.133303 127.419575 
L 164.242854 127.419575 
L 168.352405 127.419575 
L 172.461956 127.419575 
L 176.571507 127.419575 
L 180.681059 127.178295 
L 184.79061 127.178295 
L 188.900161 127.178295 
L 193.009712 127.178295 
L 197.119264 127.178295 
L 201.228815 127.178295 
L 205.338366 109.972134 
L 209.447917 109.972134 
L 213.557468 109.972134 
L 217.66702 109.972134 
L 221.776571 88.600419 
L 225.886122 88.600419 
L 229.995673 88.600419 
L 234.105224 88.600419 
L 238.214776 88.600419 
L 242.324327 88.600419 
L 246.433878 88.600419 
L 250.543429 88.600419 
L 254.65298 88.600419 
L 258.762532 87.795782 
L 262.872083 87.795782 
L 266.981634 87.795782 
L 271.091185 87.795782 
L 275.200736 87.795782 
L 279.310288 87.795782 
L 283.419839 87.795782 
L 287.52939 87.795782 
L 291.638941 87.795782 
L 295.748493 87.795782 
L 299.858044 87.795782 
L 303.967595 87.795782 
L 308.077146 87.795782 
L 312.186697 87.795782 
L 316.296249 87.795782 
L 320.4058 87.795782 
L 324.515351 87.792218 
L 328.624902 87.792218 
L 332.734453 87.792218 
L 336.844005 87.792218 
L 340.953556 87.792218 
L 345.063107 87.792218 
L 349.172658 87.792218 
L 353.282209 87.792218 
L 357.391761 87.792218 
L 361.501312 87.792218 
L 365.610863 87.792218 
L 369.720414 87.792218 
L 373.829965 87.792218 
L 377.939517 87.792218 
L 382.049068 87.792218 
L 386.158619 87.792218 
L 390.26817 87.792218 
L 394.377722 87.792218 
L 398.487273 87.792218 
" clip-path="url(#pc02945de77)" style="fill: none; stroke-dasharray: 5.55,2.4; stroke-dashoffset: 0; stroke: #2ca02c; stroke-width: 1.5"/>
   </g>
   <g id="line2d_20">
    <path d="M 73.832727 89.167932 
L 77.942278 89.153404 
L 82.05183 88.466721 
L 86.161381 82.088396 
L 90.270932 82.088396 
L 94.380483 82.088396 
L 98.490035 82.088396 
L 102.599586 82.088396 
L 106.709137 82.088396 
L 110.818688 80.12433 
L 114.928239 80.12433 
L 119.037791 80.12433 
L 123.147342 80.12433 
L 127.256893 78.67569 
L 131.366444 78.67569 
L 135.475995 78.67569 
L 139.585547 77.915632 
L 143.695098 77.915632 
L 147.804649 77.915632 
L 151.9142 77.915632 
L 156.023751 77.915632 
L 160.133303 77.915632 
L 164.242854 77.915632 
L 168.352405 77.915632 
L 172.461956 77.915632 
L 176.571507 77.915632 
L 180.681059 77.915632 
L 184.79061 77.915632 
L 188.900161 77.915632 
L 193.009712 77.915632 
L 197.119264 77.915632 
L 201.228815 77.915632 
L 205.338366 77.915632 
L 209.447917 77.915632 
L 213.557468 77.915632 
L 217.66702 77.915632 
L 221.776571 77.915632 
L 225.886122 77.915632 
L 229.995673 77.915632 
L 234.105224 77.915632 
L 238.214776 77.915632 
L 242.324327 77.915632 
L 246.433878 77.915632 
L 250.543429 77.915632 
L 254.65298 77.915632 
L 258.762532 77.41756 
L 262.872083 77.41756 
L 266.981634 77.41756 
L 271.091185 77.41756 
L 275.200736 77.41756 
L 279.310288 77.41756 
L 283.419839 77.41756 
L 287.52939 77.41756 
L 291.638941 77.41756 
L 295.748493 76.289527 
L 299.858044 76.289527 
L 303.967595 76.289527 
L 308.077146 76.289527 
L 312.186697 76.289527 
L 316.296249 76.289527 
L 320.4058 76.289527 
L 324.515351 76.289527 
L 328.624902 76.289527 
L 332.734453 76.289527 
L 336.844005 76.289527 
L 340.953556 76.056797 
L 345.063107 75.835018 
L 349.172658 75.835018 
L 353.282209 75.835018 
L 357.391761 75.591337 
L 361.501312 75.591337 
L 365.610863 75.591337 
L 369.720414 75.591337 
L 373.829965 75.253193 
L 377.939517 75.253193 
L 382.049068 75.253193 
L 386.158619 75.253193 
L 390.26817 75.253193 
L 394.377722 75.253193 
L 398.487273 75.253193 
" clip-path="url(#pc02945de77)" style="fill: none; stroke-dasharray: 5.55,2.4; stroke-dashoffset: 0; stroke: #d62728; stroke-width: 1.5"/>
   </g>
   <g id="patch_3">
    <path d="M 57.6 307.584 
L 57.6 41.472 
" style="fill: none; stroke: #000000; stroke-width: 0.8; stroke-linejoin: miter; stroke-linecap: square"/>
   </g>
   <g id="patch_4">
    <path d="M 414.72 307.584 
L 414.72 41.472 
" style="fill: none; stroke: #000000; stroke-width: 0.8; stroke-linejoin: miter; stroke-linecap: square"/>
   </g>
   <g id="patch_5">
    <path d="M 57.6 307.584 
L 414.72 307.584 
" style="fill: none; stroke: #000000; stroke-width: 0.8; stroke-linejoin: miter; stroke-linecap: square"/>
   </g>
   <g id="patch_6">
    <path d="M 57.6 41.472 
L 414.72 41.472 
" style="fill: none; stroke: #000000; stroke-width: 0.8; stroke-linejoin: miter; stroke-linecap: square"/>
   </g>
   <g id="text_17">
    <!-- fitness on pymoo_6&amp;8_9 -->
    <g transform="translate(162.316875 35.472)scale(0.12 -0.12)">
     <defs>
      <path id="DejaVuSans-66" d="M 2375 4863 
L 2375 4384 
L 1825 4384 
Q 1516 4384 1395 4259 
Q 1275 4134 1275 3809 
L 1275 3500 
L 2222 3500 
L 2222 3053 
L 1275 3053 
L 1275 0 
L 697 0 
L 697 3053 
L 147 3053 
L 147 3500 
L 697 3500 
L 697 3744 
Q 697 4328 969 4595 
Q 1241 4863 1831 4863 
L 2375 4863 
z
" transform="scale(0.015625)"/>
      <path id="DejaVuSans-69" d="M 603 3500 
L 1178 3500 
L 1178 0 
L 603 0 
L 603 3500 
z
M 603 4863 
L 1178 4863 
L 1178 4134 
L 603 4134 
L 603 4863 
z
" transform="scale(0.015625)"/>
      <path id="DejaVuSans-74" d="M 1172 4494 
L 1172 3500 
L 2356 3500 
L 2356 3053 
L 1172 3053 
L 1172 1153 
Q 1172 725 1289 603 
Q 1406 481 1766 481 
L 2356 481 
L 2356 0 
L 1766 0 
Q 1100 0 847 248 
Q 594 497 594 1153 
L 594 3053 
L 172 3053 
L 172 3500 
L 594 3500 
L 594 4494 
L 1172 4494 
z
" transform="scale(0.015625)"/>
      <path id="DejaVuSans-6e" d="M 3513 2113 
L 3513 0 
L 2938 0 
L 2938 2094 
Q 2938 2591 2744 2837 
Q 2550 3084 2163 3084 
Q 1697 3084 1428 2787 
Q 1159 2491 1159 1978 
L 1159 0 
L 581 0 
L 581 3500 
L 1159 3500 
L 1159 2956 
Q 1366 3272 1645 3428 
Q 1925 3584 2291 3584 
Q 2894 3584 3203 3211 
Q 3513 2838 3513 2113 
z
" transform="scale(0.015625)"/>
      <path id="DejaVuSans-65" d="M 3597 1894 
L 3597 1613 
L 953 1613 
Q 991 1019 1311 708 
Q 1631 397 2203 397 
Q 2534 397 2845 478 
Q 3156 559 3463 722 
L 3463 178 
Q 3153 47 2828 -22 
Q 2503 -91 2169 -91 
Q 1331 -91 842 396 
Q 353 884 353 1716 
Q 353 2575 817 3079 
Q 1281 3584 2069 3584 
Q 2775 3584 3186 3129 
Q 3597 2675 3597 1894 
z
M 3022 2063 
Q 3016 2534 2758 2815 
Q 2500 3097 2075 3097 
Q 1594 3097 1305 2825 
Q 1016 2553 972 2059 
L 3022 2063 
z
" transform="scale(0.015625)"/>
      <path id="DejaVuSans-73" d="M 2834 3397 
L 2834 2853 
Q 2591 2978 2328 3040 
Q 2066 3103 1784 3103 
Q 1356 3103 1142 2972 
Q 928 2841 928 2578 
Q 928 2378 1081 2264 
Q 1234 2150 1697 2047 
L 1894 2003 
Q 2506 1872 2764 1633 
Q 3022 1394 3022 966 
Q 3022 478 2636 193 
Q 2250 -91 1575 -91 
Q 1294 -91 989 -36 
Q 684 19 347 128 
L 347 722 
Q 666 556 975 473 
Q 1284 391 1588 391 
Q 1994 391 2212 530 
Q 2431 669 2431 922 
Q 2431 1156 2273 1281 
Q 2116 1406 1581 1522 
L 1381 1569 
Q 847 1681 609 1914 
Q 372 2147 372 2553 
Q 372 3047 722 3315 
Q 1072 3584 1716 3584 
Q 2034 3584 2315 3537 
Q 2597 3491 2834 3397 
z
" transform="scale(0.015625)"/>
      <path id="DejaVuSans-20" transform="scale(0.015625)"/>
      <path id="DejaVuSans-6f" d="M 1959 3097 
Q 1497 3097 1228 2736 
Q 959 2375 959 1747 
Q 959 1119 1226 758 
Q 1494 397 1959 397 
Q 2419 397 2687 759 
Q 2956 1122 2956 1747 
Q 2956 2369 2687 2733 
Q 2419 3097 1959 3097 
z
M 1959 3584 
Q 2709 3584 3137 3096 
Q 3566 2609 3566 1747 
Q 3566 888 3137 398 
Q 2709 -91 1959 -91 
Q 1206 -91 779 398 
Q 353 888 353 1747 
Q 353 2609 779 3096 
Q 1206 3584 1959 3584 
z
" transform="scale(0.015625)"/>
      <path id="DejaVuSans-70" d="M 1159 525 
L 1159 -1331 
L 581 -1331 
L 581 3500 
L 1159 3500 
L 1159 2969 
Q 1341 3281 1617 3432 
Q 1894 3584 2278 3584 
Q 2916 3584 3314 3078 
Q 3713 2572 3713 1747 
Q 3713 922 3314 415 
Q 2916 -91 2278 -91 
Q 1894 -91 1617 61 
Q 1341 213 1159 525 
z
M 3116 1747 
Q 3116 2381 2855 2742 
Q 2594 3103 2138 3103 
Q 1681 3103 1420 2742 
Q 1159 2381 1159 1747 
Q 1159 1113 1420 752 
Q 1681 391 2138 391 
Q 2594 391 2855 752 
Q 3116 1113 3116 1747 
z
" transform="scale(0.015625)"/>
      <path id="DejaVuSans-79" d="M 2059 -325 
Q 1816 -950 1584 -1140 
Q 1353 -1331 966 -1331 
L 506 -1331 
L 506 -850 
L 844 -850 
Q 1081 -850 1212 -737 
Q 1344 -625 1503 -206 
L 1606 56 
L 191 3500 
L 800 3500 
L 1894 763 
L 2988 3500 
L 3597 3500 
L 2059 -325 
z
" transform="scale(0.015625)"/>
      <path id="DejaVuSans-6d" d="M 3328 2828 
Q 3544 3216 3844 3400 
Q 4144 3584 4550 3584 
Q 5097 3584 5394 3201 
Q 5691 2819 5691 2113 
L 5691 0 
L 5113 0 
L 5113 2094 
Q 5113 2597 4934 2840 
Q 4756 3084 4391 3084 
Q 3944 3084 3684 2787 
Q 3425 2491 3425 1978 
L 3425 0 
L 2847 0 
L 2847 2094 
Q 2847 2600 2669 2842 
Q 2491 3084 2119 3084 
Q 1678 3084 1418 2786 
Q 1159 2488 1159 1978 
L 1159 0 
L 581 0 
L 581 3500 
L 1159 3500 
L 1159 2956 
Q 1356 3278 1631 3431 
Q 1906 3584 2284 3584 
Q 2666 3584 2933 3390 
Q 3200 3197 3328 2828 
z
" transform="scale(0.015625)"/>
      <path id="DejaVuSans-5f" d="M 3263 -1063 
L 3263 -1509 
L -63 -1509 
L -63 -1063 
L 3263 -1063 
z
" transform="scale(0.015625)"/>
      <path id="DejaVuSans-26" d="M 1556 2509 
Q 1272 2256 1139 2004 
Q 1006 1753 1006 1478 
Q 1006 1022 1337 719 
Q 1669 416 2169 416 
Q 2466 416 2725 514 
Q 2984 613 3213 813 
L 1556 2509 
z
M 1997 2859 
L 3584 1234 
Q 3769 1513 3872 1830 
Q 3975 2147 3994 2503 
L 4575 2503 
Q 4538 2091 4375 1687 
Q 4213 1284 3922 891 
L 4794 0 
L 4006 0 
L 3559 459 
Q 3234 181 2878 45 
Q 2522 -91 2113 -91 
Q 1359 -91 881 339 
Q 403 769 403 1441 
Q 403 1841 612 2192 
Q 822 2544 1241 2853 
Q 1091 3050 1012 3245 
Q 934 3441 934 3628 
Q 934 4134 1281 4442 
Q 1628 4750 2203 4750 
Q 2463 4750 2720 4694 
Q 2978 4638 3244 4525 
L 3244 3956 
Q 2972 4103 2725 4179 
Q 2478 4256 2266 4256 
Q 1938 4256 1733 4082 
Q 1528 3909 1528 3634 
Q 1528 3475 1620 3314 
Q 1713 3153 1997 2859 
z
" transform="scale(0.015625)"/>
      <path id="DejaVuSans-39" d="M 703 97 
L 703 672 
Q 941 559 1184 500 
Q 1428 441 1663 441 
Q 2288 441 2617 861 
Q 2947 1281 2994 2138 
Q 2813 1869 2534 1725 
Q 2256 1581 1919 1581 
Q 1219 1581 811 2004 
Q 403 2428 403 3163 
Q 403 3881 828 4315 
Q 1253 4750 1959 4750 
Q 2769 4750 3195 4129 
Q 3622 3509 3622 2328 
Q 3622 1225 3098 567 
Q 2575 -91 1691 -91 
Q 1453 -91 1209 -44 
Q 966 3 703 97 
z
M 1959 2075 
Q 2384 2075 2632 2365 
Q 2881 2656 2881 3163 
Q 2881 3666 2632 3958 
Q 2384 4250 1959 4250 
Q 1534 4250 1286 3958 
Q 1038 3666 1038 3163 
Q 1038 2656 1286 2365 
Q 1534 2075 1959 2075 
z
" transform="scale(0.015625)"/>
     </defs>
     <use xlink:href="#DejaVuSans-66"/>
     <use xlink:href="#DejaVuSans-69" x="35.205078"/>
     <use xlink:href="#DejaVuSans-74" x="62.988281"/>
     <use xlink:href="#DejaVuSans-6e" x="102.197266"/>
     <use xlink:href="#DejaVuSans-65" x="165.576172"/>
     <use xlink:href="#DejaVuSans-73" x="227.099609"/>
     <use xlink:href="#DejaVuSans-73" x="279.199219"/>
     <use xlink:href="#DejaVuSans-20" x="331.298828"/>
     <use xlink:href="#DejaVuSans-6f" x="363.085938"/>
     <use xlink:href="#DejaVuSans-6e" x="424.267578"/>
     <use xlink:href="#DejaVuSans-20" x="487.646484"/>
     <use xlink:href="#DejaVuSans-70" x="519.433594"/>
     <use xlink:href="#DejaVuSans-79" x="582.910156"/>
     <use xlink:href="#DejaVuSans-6d" x="642.089844"/>
     <use xlink:href="#DejaVuSans-6f" x="739.501953"/>
     <use xlink:href="#DejaVuSans-6f" x="800.683594"/>
     <use xlink:href="#DejaVuSans-5f" x="861.865234"/>
     <use xlink:href="#DejaVuSans-36" x="911.865234"/>
     <use xlink:href="#DejaVuSans-26" x="975.488281"/>
     <use xlink:href="#DejaVuSans-38" x="1053.466797"/>
     <use xlink:href="#DejaVuSans-5f" x="1117.089844"/>
     <use xlink:href="#DejaVuSans-39" x="1167.089844"/>
    </g>
   </g>
   <g id="legend_1">
    <g id="patch_7">
     <path d="M 334.555938 302.584 
L 407.72 302.584 
Q 409.72 302.584 409.72 300.584 
L 409.72 242.8715 
Q 409.72 240.8715 407.72 240.8715 
L 334.555938 240.8715 
Q 332.555938 240.8715 332.555938 242.8715 
L 332.555938 300.584 
Q 332.555938 302.584 334.555938 302.584 
z
" style="fill: #ffffff; opacity: 0.8; stroke: #cccccc; stroke-linejoin: miter"/>
    </g>
    <g id="line2d_21">
     <path d="M 336.555938 248.969937 
L 346.555938 248.969937 
L 356.555938 248.969937 
" style="fill: none; stroke: #1f77b4; stroke-width: 1.5; stroke-linecap: square"/>
    </g>
    <g id="text_18">
     <!-- enemyA -->
     <g transform="translate(364.555938 252.469937)scale(0.1 -0.1)">
      <defs>
       <path id="DejaVuSans-41" d="M 2188 4044 
L 1331 1722 
L 3047 1722 
L 2188 4044 
z
M 1831 4666 
L 2547 4666 
L 4325 0 
L 3669 0 
L 3244 1197 
L 1141 1197 
L 716 0 
L 50 0 
L 1831 4666 
z
" transform="scale(0.015625)"/>
      </defs>
      <use xlink:href="#DejaVuSans-65"/>
      <use xlink:href="#DejaVuSans-6e" x="61.523438"/>
      <use xlink:href="#DejaVuSans-65" x="124.902344"/>
      <use xlink:href="#DejaVuSans-6d" x="186.425781"/>
      <use xlink:href="#DejaVuSans-79" x="283.837891"/>
      <use xlink:href="#DejaVuSans-41" x="343.017578"/>
     </g>
    </g>
    <g id="line2d_22">
     <path d="M 336.555938 263.648062 
L 346.555938 263.648062 
L 356.555938 263.648062 
" style="fill: none; stroke: #ff7f0e; stroke-width: 1.5; stroke-linecap: square"/>
    </g>
    <g id="text_19">
     <!-- enemyB -->
     <g transform="translate(364.555938 267.148062)scale(0.1 -0.1)">
      <defs>
       <path id="DejaVuSans-42" d="M 1259 2228 
L 1259 519 
L 2272 519 
Q 2781 519 3026 730 
Q 3272 941 3272 1375 
Q 3272 1813 3026 2020 
Q 2781 2228 2272 2228 
L 1259 2228 
z
M 1259 4147 
L 1259 2741 
L 2194 2741 
Q 2656 2741 2882 2914 
Q 3109 3088 3109 3444 
Q 3109 3797 2882 3972 
Q 2656 4147 2194 4147 
L 1259 4147 
z
M 628 4666 
L 2241 4666 
Q 2963 4666 3353 4366 
Q 3744 4066 3744 3513 
Q 3744 3084 3544 2831 
Q 3344 2578 2956 2516 
Q 3422 2416 3680 2098 
Q 3938 1781 3938 1306 
Q 3938 681 3513 340 
Q 3088 0 2303 0 
L 628 0 
L 628 4666 
z
" transform="scale(0.015625)"/>
      </defs>
      <use xlink:href="#DejaVuSans-65"/>
      <use xlink:href="#DejaVuSans-6e" x="61.523438"/>
      <use xlink:href="#DejaVuSans-65" x="124.902344"/>
      <use xlink:href="#DejaVuSans-6d" x="186.425781"/>
      <use xlink:href="#DejaVuSans-79" x="283.837891"/>
      <use xlink:href="#DejaVuSans-42" x="343.017578"/>
     </g>
    </g>
    <g id="line2d_23">
     <path d="M 336.555938 278.326187 
L 346.555938 278.326187 
L 356.555938 278.326187 
" style="fill: none; stroke-dasharray: 5.55,2.4; stroke-dashoffset: 0; stroke: #2ca02c; stroke-width: 1.5"/>
    </g>
    <g id="text_20">
     <!-- enemyA -->
     <g transform="translate(364.555938 281.826187)scale(0.1 -0.1)">
      <use xlink:href="#DejaVuSans-65"/>
      <use xlink:href="#DejaVuSans-6e" x="61.523438"/>
      <use xlink:href="#DejaVuSans-65" x="124.902344"/>
      <use xlink:href="#DejaVuSans-6d" x="186.425781"/>
      <use xlink:href="#DejaVuSans-79" x="283.837891"/>
      <use xlink:href="#DejaVuSans-41" x="343.017578"/>
     </g>
    </g>
    <g id="line2d_24">
     <path d="M 336.555938 293.004312 
L 346.555938 293.004312 
L 356.555938 293.004312 
" style="fill: none; stroke-dasharray: 5.55,2.4; stroke-dashoffset: 0; stroke: #d62728; stroke-width: 1.5"/>
    </g>
    <g id="text_21">
     <!-- enemyB -->
     <g transform="translate(364.555938 296.504312)scale(0.1 -0.1)">
      <use xlink:href="#DejaVuSans-65"/>
      <use xlink:href="#DejaVuSans-6e" x="61.523438"/>
      <use xlink:href="#DejaVuSans-65" x="124.902344"/>
      <use xlink:href="#DejaVuSans-6d" x="186.425781"/>
      <use xlink:href="#DejaVuSans-79" x="283.837891"/>
      <use xlink:href="#DejaVuSans-42" x="343.017578"/>
     </g>
    </g>
   </g>
  </g>
 </g>
 <defs>
  <clipPath id="pc02945de77">
   <rect x="57.6" y="41.472" width="357.12" height="266.112"/>
  </clipPath>
 </defs>
</svg>
