<?xml version="1.0" encoding="utf-8" standalone="no"?>
<!DOCTYPE svg PUBLIC "-//W3C//DTD SVG 1.1//EN"
  "http://www.w3.org/Graphics/SVG/1.1/DTD/svg11.dtd">
<svg xmlns:xlink="http://www.w3.org/1999/xlink" width="460.8pt" height="345.6pt" viewBox="0 0 460.8 345.6" xmlns="http://www.w3.org/2000/svg" version="1.1">
 <metadata>
  <rdf:RDF xmlns:dc="http://purl.org/dc/elements/1.1/" xmlns:cc="http://creativecommons.org/ns#" xmlns:rdf="http://www.w3.org/1999/02/22-rdf-syntax-ns#">
   <cc:Work>
    <dc:type rdf:resource="http://purl.org/dc/dcmitype/StillImage"/>
    <dc:date>2022-10-13T09:25:49.956898</dc:date>
    <dc:format>image/svg+xml</dc:format>
    <dc:creator>
     <cc:Agent>
      <dc:title>Matplotlib v3.5.3, https://matplotlib.org/</dc:title>
     </cc:Agent>
    </dc:creator>
   </cc:Work>
  </rdf:RDF>
 </metadata>
 <defs>
  <style type="text/css">*{stroke-linejoin: round; stroke-linecap: butt}</style>
 </defs>
 <g id="figure_1">
  <g id="patch_1">
   <path d="M 0 345.6 
L 460.8 345.6 
L 460.8 0 
L 0 0 
z
" style="fill: #ffffff"/>
  </g>
  <g id="axes_1">
   <g id="patch_2">
    <path d="M 57.6 307.584 
L 414.72 307.584 
L 414.72 41.472 
L 57.6 41.472 
z
" style="fill: #ffffff"/>
   </g>
   <g id="PolyCollection_1">
    <path d="M 73.832727 245.049342 
L 73.832727 280.684068 
L 80.45833 276.925712 
L 87.083933 268.817829 
L 93.709536 266.31368 
L 100.335139 265.284403 
L 106.960742 263.733166 
L 113.586345 261.846291 
L 120.211948 254.260486 
L 126.837551 253.377061 
L 133.463154 248.855604 
L 140.088757 250.685938 
L 146.71436 242.214137 
L 153.339963 242.670603 
L 159.965566 240.339863 
L 166.591169 236.393366 
L 173.216772 235.22763 
L 179.842375 239.264706 
L 186.467978 239.392284 
L 193.093581 240.133107 
L 199.719184 226.925251 
L 206.344787 226.143888 
L 212.97039 230.176187 
L 219.595993 226.782041 
L 226.221596 224.658833 
L 232.847199 227.840334 
L 239.472801 226.226034 
L 246.098404 218.644052 
L 252.724007 218.644052 
L 259.34961 224.197245 
L 265.975213 219.440768 
L 272.600816 213.397654 
L 279.226419 211.296557 
L 285.852022 212.426017 
L 292.477625 211.041386 
L 299.103228 212.753734 
L 305.728831 223.705777 
L 312.354434 216.027474 
L 318.980037 215.377513 
L 325.60564 214.144117 
L 332.231243 199.266501 
L 338.856846 196.1192 
L 345.482449 199.383446 
L 352.108052 199.383446 
L 358.733655 200.439704 
L 365.359258 201.917426 
L 371.984861 203.451176 
L 378.610464 199.996547 
L 385.236067 199.990628 
L 391.86167 196.599953 
L 398.487273 198.090323 
L 398.487273 98.961503 
L 398.487273 98.961503 
L 391.86167 97.714244 
L 385.236067 99.617021 
L 378.610464 99.618508 
L 371.984861 99.354642 
L 365.359258 97.29037 
L 358.733655 96.016015 
L 352.108052 94.661577 
L 345.482449 94.661577 
L 338.856846 95.272403 
L 332.231243 100.395362 
L 325.60564 99.246709 
L 318.980037 100.725157 
L 312.354434 104.674989 
L 305.728831 104.324008 
L 299.103228 101.623271 
L 292.477625 100.607643 
L 285.852022 104.976215 
L 279.226419 104.276363 
L 272.600816 106.695112 
L 265.975213 107.878464 
L 259.34961 113.56851 
L 252.724007 115.584485 
L 246.098404 115.584485 
L 239.472801 118.882552 
L 232.847199 120.016486 
L 226.221596 120.467131 
L 219.595993 122.851424 
L 212.97039 132.077187 
L 206.344787 135.180159 
L 199.719184 134.439338 
L 193.093581 141.338711 
L 186.467978 141.206612 
L 179.842375 146.695873 
L 173.216772 147.186245 
L 166.591169 151.501958 
L 159.965566 154.031265 
L 153.339963 157.184234 
L 146.71436 156.865115 
L 140.088757 163.944979 
L 133.463154 164.808427 
L 126.837551 167.575802 
L 120.211948 171.263034 
L 113.586345 182.837088 
L 106.960742 187.508051 
L 100.335139 195.807356 
L 93.709536 202.707815 
L 87.083933 225.730369 
L 80.45833 235.438678 
L 73.832727 245.049342 
z
" clip-path="url(#pd7985d7a2f)" style="fill: #1f77b4; fill-opacity: 0.3"/>
   </g>
   <g id="PolyCollection_2">
    <path d="M 73.832727 213.688094 
L 73.832727 295.488 
L 80.45833 289.771453 
L 87.083933 257.122414 
L 93.709536 201.18329 
L 100.335139 171.057761 
L 106.960742 158.126808 
L 113.586345 156.807278 
L 120.211948 165.331937 
L 126.837551 168.930209 
L 133.463154 167.565986 
L 140.088757 165.904982 
L 146.71436 178.213092 
L 153.339963 141.05674 
L 159.965566 149.796027 
L 166.591169 150.77068 
L 173.216772 156.140769 
L 179.842375 154.324525 
L 186.467978 160.407093 
L 193.093581 164.851143 
L 199.719184 169.687814 
L 206.344787 169.666194 
L 212.97039 162.350883 
L 219.595993 175.452689 
L 226.221596 180.419357 
L 232.847199 176.586977 
L 239.472801 180.394857 
L 246.098404 177.335211 
L 252.724007 177.315759 
L 259.34961 176.427205 
L 265.975213 181.391039 
L 272.600816 183.43381 
L 279.226419 188.128873 
L 285.852022 179.613786 
L 292.477625 190.24478 
L 299.103228 188.982632 
L 305.728831 185.21583 
L 312.354434 185.237149 
L 318.980037 191.085267 
L 325.60564 194.527483 
L 332.231243 194.582789 
L 338.856846 199.874467 
L 345.482449 199.77396 
L 352.108052 199.77396 
L 358.733655 188.819276 
L 365.359258 183.966293 
L 371.984861 182.449269 
L 378.610464 177.283084 
L 385.236067 177.289256 
L 391.86167 173.229978 
L 398.487273 168.696177 
L 398.487273 55.088921 
L 398.487273 55.088921 
L 391.86167 55.08686 
L 385.236067 53.592674 
L 378.610464 53.568 
L 371.984861 55.259739 
L 365.359258 57.590468 
L 358.733655 59.985193 
L 352.108052 64.23114 
L 345.482449 64.23114 
L 338.856846 64.915888 
L 332.231243 62.707033 
L 325.60564 62.419413 
L 318.980037 60.211491 
L 312.354434 58.720891 
L 305.728831 58.692481 
L 299.103228 64.119735 
L 292.477625 66.567306 
L 285.852022 63.105137 
L 279.226419 67.514772 
L 272.600816 65.400069 
L 265.975213 64.865021 
L 259.34961 63.303807 
L 252.724007 65.251109 
L 246.098404 65.41482 
L 239.472801 65.964612 
L 232.847199 64.079249 
L 226.221596 66.075872 
L 219.595993 64.452318 
L 212.97039 61.709147 
L 206.344787 62.324487 
L 199.719184 62.421205 
L 193.093581 59.68186 
L 186.467978 58.852565 
L 179.842375 58.635133 
L 173.216772 60.232044 
L 166.591169 61.14222 
L 159.965566 60.270848 
L 153.339963 61.62455 
L 146.71436 61.98908 
L 140.088757 60.013821 
L 133.463154 62.163102 
L 126.837551 61.630254 
L 120.211948 64.75084 
L 113.586345 65.528691 
L 106.960742 65.339914 
L 100.335139 70.123923 
L 93.709536 75.606289 
L 87.083933 121.266211 
L 80.45833 190.772811 
L 73.832727 213.688094 
z
" clip-path="url(#pd7985d7a2f)" style="fill: #ff7f0e; fill-opacity: 0.3"/>
   </g>
   <g id="matplotlib.axis_1">
    <g id="xtick_1">
     <g id="line2d_1">
      <defs>
       <path id="me0f4170e74" d="M 0 0 
L 0 3.5 
" style="stroke: #000000; stroke-width: 0.8"/>
      </defs>
      <g>
       <use xlink:href="#me0f4170e74" x="73.832727" y="307.584" style="stroke: #000000; stroke-width: 0.8"/>
      </g>
     </g>
     <g id="text_1">
      <!-- 0 -->
      <g transform="translate(70.651477 322.182437)scale(0.1 -0.1)">
       <defs>
        <path id="DejaVuSans-30" d="M 2034 4250 
Q 1547 4250 1301 3770 
Q 1056 3291 1056 2328 
Q 1056 1369 1301 889 
Q 1547 409 2034 409 
Q 2525 409 2770 889 
Q 3016 1369 3016 2328 
Q 3016 3291 2770 3770 
Q 2525 4250 2034 4250 
z
M 2034 4750 
Q 2819 4750 3233 4129 
Q 3647 3509 3647 2328 
Q 3647 1150 3233 529 
Q 2819 -91 2034 -91 
Q 1250 -91 836 529 
Q 422 1150 422 2328 
Q 422 3509 836 4129 
Q 1250 4750 2034 4750 
z
" transform="scale(0.015625)"/>
       </defs>
       <use xlink:href="#DejaVuSans-30"/>
      </g>
     </g>
    </g>
    <g id="xtick_2">
     <g id="line2d_2">
      <g>
       <use xlink:href="#me0f4170e74" x="140.088757" y="307.584" style="stroke: #000000; stroke-width: 0.8"/>
      </g>
     </g>
     <g id="text_2">
      <!-- 10 -->
      <g transform="translate(133.726257 322.182437)scale(0.1 -0.1)">
       <defs>
        <path id="DejaVuSans-31" d="M 794 531 
L 1825 531 
L 1825 4091 
L 703 3866 
L 703 4441 
L 1819 4666 
L 2450 4666 
L 2450 531 
L 3481 531 
L 3481 0 
L 794 0 
L 794 531 
z
" transform="scale(0.015625)"/>
       </defs>
       <use xlink:href="#DejaVuSans-31"/>
       <use xlink:href="#DejaVuSans-30" x="63.623047"/>
      </g>
     </g>
    </g>
    <g id="xtick_3">
     <g id="line2d_3">
      <g>
       <use xlink:href="#me0f4170e74" x="206.344787" y="307.584" style="stroke: #000000; stroke-width: 0.8"/>
      </g>
     </g>
     <g id="text_3">
      <!-- 20 -->
      <g transform="translate(199.982287 322.182437)scale(0.1 -0.1)">
       <defs>
        <path id="DejaVuSans-32" d="M 1228 531 
L 3431 531 
L 3431 0 
L 469 0 
L 469 531 
Q 828 903 1448 1529 
Q 2069 2156 2228 2338 
Q 2531 2678 2651 2914 
Q 2772 3150 2772 3378 
Q 2772 3750 2511 3984 
Q 2250 4219 1831 4219 
Q 1534 4219 1204 4116 
Q 875 4013 500 3803 
L 500 4441 
Q 881 4594 1212 4672 
Q 1544 4750 1819 4750 
Q 2544 4750 2975 4387 
Q 3406 4025 3406 3419 
Q 3406 3131 3298 2873 
Q 3191 2616 2906 2266 
Q 2828 2175 2409 1742 
Q 1991 1309 1228 531 
z
" transform="scale(0.015625)"/>
       </defs>
       <use xlink:href="#DejaVuSans-32"/>
       <use xlink:href="#DejaVuSans-30" x="63.623047"/>
      </g>
     </g>
    </g>
    <g id="xtick_4">
     <g id="line2d_4">
      <g>
       <use xlink:href="#me0f4170e74" x="272.600816" y="307.584" style="stroke: #000000; stroke-width: 0.8"/>
      </g>
     </g>
     <g id="text_4">
      <!-- 30 -->
      <g transform="translate(266.238316 322.182437)scale(0.1 -0.1)">
       <defs>
        <path id="DejaVuSans-33" d="M 2597 2516 
Q 3050 2419 3304 2112 
Q 3559 1806 3559 1356 
Q 3559 666 3084 287 
Q 2609 -91 1734 -91 
Q 1441 -91 1130 -33 
Q 819 25 488 141 
L 488 750 
Q 750 597 1062 519 
Q 1375 441 1716 441 
Q 2309 441 2620 675 
Q 2931 909 2931 1356 
Q 2931 1769 2642 2001 
Q 2353 2234 1838 2234 
L 1294 2234 
L 1294 2753 
L 1863 2753 
Q 2328 2753 2575 2939 
Q 2822 3125 2822 3475 
Q 2822 3834 2567 4026 
Q 2313 4219 1838 4219 
Q 1578 4219 1281 4162 
Q 984 4106 628 3988 
L 628 4550 
Q 988 4650 1302 4700 
Q 1616 4750 1894 4750 
Q 2613 4750 3031 4423 
Q 3450 4097 3450 3541 
Q 3450 3153 3228 2886 
Q 3006 2619 2597 2516 
z
" transform="scale(0.015625)"/>
       </defs>
       <use xlink:href="#DejaVuSans-33"/>
       <use xlink:href="#DejaVuSans-30" x="63.623047"/>
      </g>
     </g>
    </g>
    <g id="xtick_5">
     <g id="line2d_5">
      <g>
       <use xlink:href="#me0f4170e74" x="338.856846" y="307.584" style="stroke: #000000; stroke-width: 0.8"/>
      </g>
     </g>
     <g id="text_5">
      <!-- 40 -->
      <g transform="translate(332.494346 322.182437)scale(0.1 -0.1)">
       <defs>
        <path id="DejaVuSans-34" d="M 2419 4116 
L 825 1625 
L 2419 1625 
L 2419 4116 
z
M 2253 4666 
L 3047 4666 
L 3047 1625 
L 3713 1625 
L 3713 1100 
L 3047 1100 
L 3047 0 
L 2419 0 
L 2419 1100 
L 313 1100 
L 313 1709 
L 2253 4666 
z
" transform="scale(0.015625)"/>
       </defs>
       <use xlink:href="#DejaVuSans-34"/>
       <use xlink:href="#DejaVuSans-30" x="63.623047"/>
      </g>
     </g>
    </g>
    <g id="xtick_6">
     <g id="line2d_6">
      <g>
       <use xlink:href="#me0f4170e74" x="405.112876" y="307.584" style="stroke: #000000; stroke-width: 0.8"/>
      </g>
     </g>
     <g id="text_6">
      <!-- 50 -->
      <g transform="translate(398.750376 322.182437)scale(0.1 -0.1)">
       <defs>
        <path id="DejaVuSans-35" d="M 691 4666 
L 3169 4666 
L 3169 4134 
L 1269 4134 
L 1269 2991 
Q 1406 3038 1543 3061 
Q 1681 3084 1819 3084 
Q 2600 3084 3056 2656 
Q 3513 2228 3513 1497 
Q 3513 744 3044 326 
Q 2575 -91 1722 -91 
Q 1428 -91 1123 -41 
Q 819 9 494 109 
L 494 744 
Q 775 591 1075 516 
Q 1375 441 1709 441 
Q 2250 441 2565 725 
Q 2881 1009 2881 1497 
Q 2881 1984 2565 2268 
Q 2250 2553 1709 2553 
Q 1456 2553 1204 2497 
Q 953 2441 691 2322 
L 691 4666 
z
" transform="scale(0.015625)"/>
       </defs>
       <use xlink:href="#DejaVuSans-35"/>
       <use xlink:href="#DejaVuSans-30" x="63.623047"/>
      </g>
     </g>
    </g>
   </g>
   <g id="matplotlib.axis_2">
    <g id="ytick_1">
     <g id="line2d_7">
      <defs>
       <path id="mac02f660d3" d="M 0 0 
L -3.5 0 
" style="stroke: #000000; stroke-width: 0.8"/>
      </defs>
      <g>
       <use xlink:href="#mac02f660d3" x="57.6" y="300.485539" style="stroke: #000000; stroke-width: 0.8"/>
      </g>
     </g>
     <g id="text_7">
      <!-- −20 -->
      <g transform="translate(29.495313 304.284757)scale(0.1 -0.1)">
       <defs>
        <path id="DejaVuSans-2212" d="M 678 2272 
L 4684 2272 
L 4684 1741 
L 678 1741 
L 678 2272 
z
" transform="scale(0.015625)"/>
       </defs>
       <use xlink:href="#DejaVuSans-2212"/>
       <use xlink:href="#DejaVuSans-32" x="83.789062"/>
       <use xlink:href="#DejaVuSans-30" x="147.412109"/>
      </g>
     </g>
    </g>
    <g id="ytick_2">
     <g id="line2d_8">
      <g>
       <use xlink:href="#mac02f660d3" x="57.6" y="259.889822" style="stroke: #000000; stroke-width: 0.8"/>
      </g>
     </g>
     <g id="text_8">
      <!-- 0 -->
      <g transform="translate(44.2375 263.689041)scale(0.1 -0.1)">
       <use xlink:href="#DejaVuSans-30"/>
      </g>
     </g>
    </g>
    <g id="ytick_3">
     <g id="line2d_9">
      <g>
       <use xlink:href="#mac02f660d3" x="57.6" y="219.294106" style="stroke: #000000; stroke-width: 0.8"/>
      </g>
     </g>
     <g id="text_9">
      <!-- 20 -->
      <g transform="translate(37.875 223.093325)scale(0.1 -0.1)">
       <use xlink:href="#DejaVuSans-32"/>
       <use xlink:href="#DejaVuSans-30" x="63.623047"/>
      </g>
     </g>
    </g>
    <g id="ytick_4">
     <g id="line2d_10">
      <g>
       <use xlink:href="#mac02f660d3" x="57.6" y="178.69839" style="stroke: #000000; stroke-width: 0.8"/>
      </g>
     </g>
     <g id="text_10">
      <!-- 40 -->
      <g transform="translate(37.875 182.497608)scale(0.1 -0.1)">
       <use xlink:href="#DejaVuSans-34"/>
       <use xlink:href="#DejaVuSans-30" x="63.623047"/>
      </g>
     </g>
    </g>
    <g id="ytick_5">
     <g id="line2d_11">
      <g>
       <use xlink:href="#mac02f660d3" x="57.6" y="138.102673" style="stroke: #000000; stroke-width: 0.8"/>
      </g>
     </g>
     <g id="text_11">
      <!-- 60 -->
      <g transform="translate(37.875 141.901892)scale(0.1 -0.1)">
       <defs>
        <path id="DejaVuSans-36" d="M 2113 2584 
Q 1688 2584 1439 2293 
Q 1191 2003 1191 1497 
Q 1191 994 1439 701 
Q 1688 409 2113 409 
Q 2538 409 2786 701 
Q 3034 994 3034 1497 
Q 3034 2003 2786 2293 
Q 2538 2584 2113 2584 
z
M 3366 4563 
L 3366 3988 
Q 3128 4100 2886 4159 
Q 2644 4219 2406 4219 
Q 1781 4219 1451 3797 
Q 1122 3375 1075 2522 
Q 1259 2794 1537 2939 
Q 1816 3084 2150 3084 
Q 2853 3084 3261 2657 
Q 3669 2231 3669 1497 
Q 3669 778 3244 343 
Q 2819 -91 2113 -91 
Q 1303 -91 875 529 
Q 447 1150 447 2328 
Q 447 3434 972 4092 
Q 1497 4750 2381 4750 
Q 2619 4750 2861 4703 
Q 3103 4656 3366 4563 
z
" transform="scale(0.015625)"/>
       </defs>
       <use xlink:href="#DejaVuSans-36"/>
       <use xlink:href="#DejaVuSans-30" x="63.623047"/>
      </g>
     </g>
    </g>
    <g id="ytick_6">
     <g id="line2d_12">
      <g>
       <use xlink:href="#mac02f660d3" x="57.6" y="97.506957" style="stroke: #000000; stroke-width: 0.8"/>
      </g>
     </g>
     <g id="text_12">
      <!-- 80 -->
      <g transform="translate(37.875 101.306176)scale(0.1 -0.1)">
       <defs>
        <path id="DejaVuSans-38" d="M 2034 2216 
Q 1584 2216 1326 1975 
Q 1069 1734 1069 1313 
Q 1069 891 1326 650 
Q 1584 409 2034 409 
Q 2484 409 2743 651 
Q 3003 894 3003 1313 
Q 3003 1734 2745 1975 
Q 2488 2216 2034 2216 
z
M 1403 2484 
Q 997 2584 770 2862 
Q 544 3141 544 3541 
Q 544 4100 942 4425 
Q 1341 4750 2034 4750 
Q 2731 4750 3128 4425 
Q 3525 4100 3525 3541 
Q 3525 3141 3298 2862 
Q 3072 2584 2669 2484 
Q 3125 2378 3379 2068 
Q 3634 1759 3634 1313 
Q 3634 634 3220 271 
Q 2806 -91 2034 -91 
Q 1263 -91 848 271 
Q 434 634 434 1313 
Q 434 1759 690 2068 
Q 947 2378 1403 2484 
z
M 1172 3481 
Q 1172 3119 1398 2916 
Q 1625 2713 2034 2713 
Q 2441 2713 2670 2916 
Q 2900 3119 2900 3481 
Q 2900 3844 2670 4047 
Q 2441 4250 2034 4250 
Q 1625 4250 1398 4047 
Q 1172 3844 1172 3481 
z
" transform="scale(0.015625)"/>
       </defs>
       <use xlink:href="#DejaVuSans-38"/>
       <use xlink:href="#DejaVuSans-30" x="63.623047"/>
      </g>
     </g>
    </g>
    <g id="ytick_7">
     <g id="line2d_13">
      <g>
       <use xlink:href="#mac02f660d3" x="57.6" y="56.911241" style="stroke: #000000; stroke-width: 0.8"/>
      </g>
     </g>
     <g id="text_13">
      <!-- 100 -->
      <g transform="translate(31.5125 60.710459)scale(0.1 -0.1)">
       <use xlink:href="#DejaVuSans-31"/>
       <use xlink:href="#DejaVuSans-30" x="63.623047"/>
       <use xlink:href="#DejaVuSans-30" x="127.246094"/>
      </g>
     </g>
    </g>
   </g>
   <g id="line2d_14">
    <path d="M 73.832727 262.866705 
L 80.45833 256.182195 
L 87.083933 247.274099 
L 93.709536 234.510747 
L 100.335139 230.545879 
L 106.960742 225.620608 
L 113.586345 222.341689 
L 120.211948 212.76176 
L 126.837551 210.476431 
L 133.463154 206.832015 
L 140.088757 207.315459 
L 146.71436 199.539626 
L 153.339963 199.927418 
L 159.965566 197.185564 
L 166.591169 193.947662 
L 173.216772 191.206937 
L 179.842375 192.980289 
L 186.467978 190.299448 
L 193.093581 190.735909 
L 199.719184 180.682294 
L 206.344787 180.662024 
L 212.97039 181.126687 
L 219.595993 174.816732 
L 226.221596 172.562982 
L 232.847199 173.92841 
L 239.472801 172.554293 
L 246.098404 167.114269 
L 252.724007 167.114269 
L 259.34961 168.882878 
L 265.975213 163.659616 
L 272.600816 160.046383 
L 279.226419 157.78646 
L 285.852022 158.701116 
L 292.477625 155.824515 
L 299.103228 157.188502 
L 305.728831 164.014892 
L 312.354434 160.351232 
L 318.980037 158.051335 
L 325.60564 156.695413 
L 332.231243 149.830931 
L 338.856846 145.695801 
L 345.482449 147.022512 
L 352.108052 147.022512 
L 358.733655 148.22786 
L 365.359258 149.603898 
L 371.984861 151.402909 
L 378.610464 149.807528 
L 385.236067 149.803825 
L 391.86167 147.157098 
L 398.487273 148.525913 
" clip-path="url(#pd7985d7a2f)" style="fill: none; stroke: #1f77b4; stroke-width: 1.5; stroke-linecap: square"/>
   </g>
   <g id="line2d_15">
    <path d="M 73.832727 254.588047 
L 80.45833 240.272132 
L 87.083933 189.194313 
L 93.709536 138.39479 
L 100.335139 120.590842 
L 106.960742 111.733361 
L 113.586345 111.167985 
L 120.211948 115.041388 
L 126.837551 115.280232 
L 133.463154 114.864544 
L 140.088757 112.959401 
L 146.71436 120.101086 
L 153.339963 101.340645 
L 159.965566 105.033437 
L 166.591169 105.95645 
L 173.216772 108.186406 
L 179.842375 106.479829 
L 186.467978 109.629829 
L 193.093581 112.266501 
L 199.719184 116.054509 
L 206.344787 115.99534 
L 212.97039 112.030015 
L 219.595993 119.952503 
L 226.221596 123.247614 
L 232.847199 120.333113 
L 239.472801 123.179734 
L 246.098404 121.375016 
L 252.724007 121.283434 
L 259.34961 119.865506 
L 265.975213 123.12803 
L 272.600816 124.416939 
L 279.226419 127.821823 
L 285.852022 121.359462 
L 292.477625 128.406043 
L 299.103228 126.551184 
L 305.728831 121.954156 
L 312.354434 121.97902 
L 318.980037 125.648379 
L 325.60564 128.473448 
L 332.231243 128.644911 
L 338.856846 132.395178 
L 345.482449 132.00255 
L 352.108052 132.00255 
L 358.733655 124.402235 
L 365.359258 120.77838 
L 371.984861 118.854504 
L 378.610464 115.425542 
L 385.236067 115.440965 
L 391.86167 114.158419 
L 398.487273 111.892549 
" clip-path="url(#pd7985d7a2f)" style="fill: none; stroke: #ff7f0e; stroke-width: 1.5; stroke-linecap: square"/>
   </g>
   <g id="line2d_16">
    <path d="M 73.832727 197.457157 
L 80.45833 197.457157 
L 87.083933 197.457157 
L 93.709536 143.514948 
L 100.335139 143.514948 
L 106.960742 143.384417 
L 113.586345 143.384417 
L 120.211948 125.576755 
L 126.837551 125.576755 
L 133.463154 125.576755 
L 140.088757 125.576755 
L 146.71436 125.576755 
L 153.339963 125.189896 
L 159.965566 125.189896 
L 166.591169 125.189896 
L 173.216772 124.861291 
L 179.842375 124.861291 
L 186.467978 124.861291 
L 193.093581 124.861291 
L 199.719184 106.78745 
L 206.344787 106.78745 
L 212.97039 88.837631 
L 219.595993 88.837631 
L 226.221596 88.837631 
L 232.847199 88.837631 
L 239.472801 88.837631 
L 246.098404 88.837631 
L 252.724007 88.837631 
L 259.34961 86.013199 
L 265.975213 80.41099 
L 272.600816 80.41099 
L 279.226419 80.41099 
L 285.852022 80.41099 
L 292.477625 80.41099 
L 299.103228 80.41099 
L 305.728831 80.41099 
L 312.354434 80.41099 
L 318.980037 80.41099 
L 325.60564 80.41099 
L 332.231243 80.41099 
L 338.856846 80.41099 
L 345.482449 80.41099 
L 352.108052 80.41099 
L 358.733655 80.41099 
L 365.359258 80.41099 
L 371.984861 80.41099 
L 378.610464 80.41099 
L 385.236067 80.41099 
L 391.86167 78.714106 
L 398.487273 78.714106 
" clip-path="url(#pd7985d7a2f)" style="fill: none; stroke-dasharray: 5.55,2.4; stroke-dashoffset: 0; stroke: #2ca02c; stroke-width: 1.5"/>
   </g>
   <g id="line2d_17">
    <path d="M 73.832727 85.071911 
L 80.45833 84.424773 
L 87.083933 83.815837 
L 93.709536 82.879742 
L 100.335139 79.286746 
L 106.960742 79.286746 
L 113.586345 79.286746 
L 120.211948 79.144177 
L 126.837551 79.144177 
L 133.463154 79.144177 
L 140.088757 73.028373 
L 146.71436 73.028373 
L 153.339963 73.028373 
L 159.965566 73.028373 
L 166.591169 73.028373 
L 173.216772 73.028373 
L 179.842375 73.028373 
L 186.467978 73.028373 
L 193.093581 73.028373 
L 199.719184 73.028373 
L 206.344787 73.028373 
L 212.97039 73.028373 
L 219.595993 73.028373 
L 226.221596 73.028373 
L 232.847199 73.028373 
L 239.472801 73.028373 
L 246.098404 73.028373 
L 252.724007 73.028373 
L 259.34961 73.028373 
L 265.975213 73.028373 
L 272.600816 73.028373 
L 279.226419 73.028373 
L 285.852022 73.028373 
L 292.477625 73.028373 
L 299.103228 73.028373 
L 305.728831 71.329428 
L 312.354434 71.329428 
L 318.980037 71.329428 
L 325.60564 71.329428 
L 332.231243 71.329428 
L 338.856846 71.329428 
L 345.482449 71.329428 
L 352.108052 71.329428 
L 358.733655 71.329428 
L 365.359258 71.329428 
L 371.984861 71.329428 
L 378.610464 71.329428 
L 385.236067 71.329428 
L 391.86167 71.296681 
L 398.487273 71.296681 
" clip-path="url(#pd7985d7a2f)" style="fill: none; stroke-dasharray: 5.55,2.4; stroke-dashoffset: 0; stroke: #d62728; stroke-width: 1.5"/>
   </g>
   <g id="patch_3">
    <path d="M 57.6 307.584 
L 57.6 41.472 
" style="fill: none; stroke: #000000; stroke-width: 0.8; stroke-linejoin: miter; stroke-linecap: square"/>
   </g>
   <g id="patch_4">
    <path d="M 414.72 307.584 
L 414.72 41.472 
" style="fill: none; stroke: #000000; stroke-width: 0.8; stroke-linejoin: miter; stroke-linecap: square"/>
   </g>
   <g id="patch_5">
    <path d="M 57.6 307.584 
L 414.72 307.584 
" style="fill: none; stroke: #000000; stroke-width: 0.8; stroke-linejoin: miter; stroke-linecap: square"/>
   </g>
   <g id="patch_6">
    <path d="M 57.6 41.472 
L 414.72 41.472 
" style="fill: none; stroke: #000000; stroke-width: 0.8; stroke-linejoin: miter; stroke-linecap: square"/>
   </g>
   <g id="text_14">
    <!-- fitness on pymoo_6&amp;8_3 -->
    <g transform="translate(162.316875 35.472)scale(0.12 -0.12)">
     <defs>
      <path id="DejaVuSans-66" d="M 2375 4863 
L 2375 4384 
L 1825 4384 
Q 1516 4384 1395 4259 
Q 1275 4134 1275 3809 
L 1275 3500 
L 2222 3500 
L 2222 3053 
L 1275 3053 
L 1275 0 
L 697 0 
L 697 3053 
L 147 3053 
L 147 3500 
L 697 3500 
L 697 3744 
Q 697 4328 969 4595 
Q 1241 4863 1831 4863 
L 2375 4863 
z
" transform="scale(0.015625)"/>
      <path id="DejaVuSans-69" d="M 603 3500 
L 1178 3500 
L 1178 0 
L 603 0 
L 603 3500 
z
M 603 4863 
L 1178 4863 
L 1178 4134 
L 603 4134 
L 603 4863 
z
" transform="scale(0.015625)"/>
      <path id="DejaVuSans-74" d="M 1172 4494 
L 1172 3500 
L 2356 3500 
L 2356 3053 
L 1172 3053 
L 1172 1153 
Q 1172 725 1289 603 
Q 1406 481 1766 481 
L 2356 481 
L 2356 0 
L 1766 0 
Q 1100 0 847 248 
Q 594 497 594 1153 
L 594 3053 
L 172 3053 
L 172 3500 
L 594 3500 
L 594 4494 
L 1172 4494 
z
" transform="scale(0.015625)"/>
      <path id="DejaVuSans-6e" d="M 3513 2113 
L 3513 0 
L 2938 0 
L 2938 2094 
Q 2938 2591 2744 2837 
Q 2550 3084 2163 3084 
Q 1697 3084 1428 2787 
Q 1159 2491 1159 1978 
L 1159 0 
L 581 0 
L 581 3500 
L 1159 3500 
L 1159 2956 
Q 1366 3272 1645 3428 
Q 1925 3584 2291 3584 
Q 2894 3584 3203 3211 
Q 3513 2838 3513 2113 
z
" transform="scale(0.015625)"/>
      <path id="DejaVuSans-65" d="M 3597 1894 
L 3597 1613 
L 953 1613 
Q 991 1019 1311 708 
Q 1631 397 2203 397 
Q 2534 397 2845 478 
Q 3156 559 3463 722 
L 3463 178 
Q 3153 47 2828 -22 
Q 2503 -91 2169 -91 
Q 1331 -91 842 396 
Q 353 884 353 1716 
Q 353 2575 817 3079 
Q 1281 3584 2069 3584 
Q 2775 3584 3186 3129 
Q 3597 2675 3597 1894 
z
M 3022 2063 
Q 3016 2534 2758 2815 
Q 2500 3097 2075 3097 
Q 1594 3097 1305 2825 
Q 1016 2553 972 2059 
L 3022 2063 
z
" transform="scale(0.015625)"/>
      <path id="DejaVuSans-73" d="M 2834 3397 
L 2834 2853 
Q 2591 2978 2328 3040 
Q 2066 3103 1784 3103 
Q 1356 3103 1142 2972 
Q 928 2841 928 2578 
Q 928 2378 1081 2264 
Q 1234 2150 1697 2047 
L 1894 2003 
Q 2506 1872 2764 1633 
Q 3022 1394 3022 966 
Q 3022 478 2636 193 
Q 2250 -91 1575 -91 
Q 1294 -91 989 -36 
Q 684 19 347 128 
L 347 722 
Q 666 556 975 473 
Q 1284 391 1588 391 
Q 1994 391 2212 530 
Q 2431 669 2431 922 
Q 2431 1156 2273 1281 
Q 2116 1406 1581 1522 
L 1381 1569 
Q 847 1681 609 1914 
Q 372 2147 372 2553 
Q 372 3047 722 3315 
Q 1072 3584 1716 3584 
Q 2034 3584 2315 3537 
Q 2597 3491 2834 3397 
z
" transform="scale(0.015625)"/>
      <path id="DejaVuSans-20" transform="scale(0.015625)"/>
      <path id="DejaVuSans-6f" d="M 1959 3097 
Q 1497 3097 1228 2736 
Q 959 2375 959 1747 
Q 959 1119 1226 758 
Q 1494 397 1959 397 
Q 2419 397 2687 759 
Q 2956 1122 2956 1747 
Q 2956 2369 2687 2733 
Q 2419 3097 1959 3097 
z
M 1959 3584 
Q 2709 3584 3137 3096 
Q 3566 2609 3566 1747 
Q 3566 888 3137 398 
Q 2709 -91 1959 -91 
Q 1206 -91 779 398 
Q 353 888 353 1747 
Q 353 2609 779 3096 
Q 1206 3584 1959 3584 
z
" transform="scale(0.015625)"/>
      <path id="DejaVuSans-70" d="M 1159 525 
L 1159 -1331 
L 581 -1331 
L 581 3500 
L 1159 3500 
L 1159 2969 
Q 1341 3281 1617 3432 
Q 1894 3584 2278 3584 
Q 2916 3584 3314 3078 
Q 3713 2572 3713 1747 
Q 3713 922 3314 415 
Q 2916 -91 2278 -91 
Q 1894 -91 1617 61 
Q 1341 213 1159 525 
z
M 3116 1747 
Q 3116 2381 2855 2742 
Q 2594 3103 2138 3103 
Q 1681 3103 1420 2742 
Q 1159 2381 1159 1747 
Q 1159 1113 1420 752 
Q 1681 391 2138 391 
Q 2594 391 2855 752 
Q 3116 1113 3116 1747 
z
" transform="scale(0.015625)"/>
      <path id="DejaVuSans-79" d="M 2059 -325 
Q 1816 -950 1584 -1140 
Q 1353 -1331 966 -1331 
L 506 -1331 
L 506 -850 
L 844 -850 
Q 1081 -850 1212 -737 
Q 1344 -625 1503 -206 
L 1606 56 
L 191 3500 
L 800 3500 
L 1894 763 
L 2988 3500 
L 3597 3500 
L 2059 -325 
z
" transform="scale(0.015625)"/>
      <path id="DejaVuSans-6d" d="M 3328 2828 
Q 3544 3216 3844 3400 
Q 4144 3584 4550 3584 
Q 5097 3584 5394 3201 
Q 5691 2819 5691 2113 
L 5691 0 
L 5113 0 
L 5113 2094 
Q 5113 2597 4934 2840 
Q 4756 3084 4391 3084 
Q 3944 3084 3684 2787 
Q 3425 2491 3425 1978 
L 3425 0 
L 2847 0 
L 2847 2094 
Q 2847 2600 2669 2842 
Q 2491 3084 2119 3084 
Q 1678 3084 1418 2786 
Q 1159 2488 1159 1978 
L 1159 0 
L 581 0 
L 581 3500 
L 1159 3500 
L 1159 2956 
Q 1356 3278 1631 3431 
Q 1906 3584 2284 3584 
Q 2666 3584 2933 3390 
Q 3200 3197 3328 2828 
z
" transform="scale(0.015625)"/>
      <path id="DejaVuSans-5f" d="M 3263 -1063 
L 3263 -1509 
L -63 -1509 
L -63 -1063 
L 3263 -1063 
z
" transform="scale(0.015625)"/>
      <path id="DejaVuSans-26" d="M 1556 2509 
Q 1272 2256 1139 2004 
Q 1006 1753 1006 1478 
Q 1006 1022 1337 719 
Q 1669 416 2169 416 
Q 2466 416 2725 514 
Q 2984 613 3213 813 
L 1556 2509 
z
M 1997 2859 
L 3584 1234 
Q 3769 1513 3872 1830 
Q 3975 2147 3994 2503 
L 4575 2503 
Q 4538 2091 4375 1687 
Q 4213 1284 3922 891 
L 4794 0 
L 4006 0 
L 3559 459 
Q 3234 181 2878 45 
Q 2522 -91 2113 -91 
Q 1359 -91 881 339 
Q 403 769 403 1441 
Q 403 1841 612 2192 
Q 822 2544 1241 2853 
Q 1091 3050 1012 3245 
Q 934 3441 934 3628 
Q 934 4134 1281 4442 
Q 1628 4750 2203 4750 
Q 2463 4750 2720 4694 
Q 2978 4638 3244 4525 
L 3244 3956 
Q 2972 4103 2725 4179 
Q 2478 4256 2266 4256 
Q 1938 4256 1733 4082 
Q 1528 3909 1528 3634 
Q 1528 3475 1620 3314 
Q 1713 3153 1997 2859 
z
" transform="scale(0.015625)"/>
     </defs>
     <use xlink:href="#DejaVuSans-66"/>
     <use xlink:href="#DejaVuSans-69" x="35.205078"/>
     <use xlink:href="#DejaVuSans-74" x="62.988281"/>
     <use xlink:href="#DejaVuSans-6e" x="102.197266"/>
     <use xlink:href="#DejaVuSans-65" x="165.576172"/>
     <use xlink:href="#DejaVuSans-73" x="227.099609"/>
     <use xlink:href="#DejaVuSans-73" x="279.199219"/>
     <use xlink:href="#DejaVuSans-20" x="331.298828"/>
     <use xlink:href="#DejaVuSans-6f" x="363.085938"/>
     <use xlink:href="#DejaVuSans-6e" x="424.267578"/>
     <use xlink:href="#DejaVuSans-20" x="487.646484"/>
     <use xlink:href="#DejaVuSans-70" x="519.433594"/>
     <use xlink:href="#DejaVuSans-79" x="582.910156"/>
     <use xlink:href="#DejaVuSans-6d" x="642.089844"/>
     <use xlink:href="#DejaVuSans-6f" x="739.501953"/>
     <use xlink:href="#DejaVuSans-6f" x="800.683594"/>
     <use xlink:href="#DejaVuSans-5f" x="861.865234"/>
     <use xlink:href="#DejaVuSans-36" x="911.865234"/>
     <use xlink:href="#DejaVuSans-26" x="975.488281"/>
     <use xlink:href="#DejaVuSans-38" x="1053.466797"/>
     <use xlink:href="#DejaVuSans-5f" x="1117.089844"/>
     <use xlink:href="#DejaVuSans-33" x="1167.089844"/>
    </g>
   </g>
   <g id="legend_1">
    <g id="patch_7">
     <path d="M 334.555938 302.584 
L 407.72 302.584 
Q 409.72 302.584 409.72 300.584 
L 409.72 242.8715 
Q 409.72 240.8715 407.72 240.8715 
L 334.555938 240.8715 
Q 332.555938 240.8715 332.555938 242.8715 
L 332.555938 300.584 
Q 332.555938 302.584 334.555938 302.584 
z
" style="fill: #ffffff; opacity: 0.8; stroke: #cccccc; stroke-linejoin: miter"/>
    </g>
    <g id="line2d_18">
     <path d="M 336.555938 248.969937 
L 346.555938 248.969937 
L 356.555938 248.969937 
" style="fill: none; stroke: #1f77b4; stroke-width: 1.5; stroke-linecap: square"/>
    </g>
    <g id="text_15">
     <!-- enemyA -->
     <g transform="translate(364.555938 252.469937)scale(0.1 -0.1)">
      <defs>
       <path id="DejaVuSans-41" d="M 2188 4044 
L 1331 1722 
L 3047 1722 
L 2188 4044 
z
M 1831 4666 
L 2547 4666 
L 4325 0 
L 3669 0 
L 3244 1197 
L 1141 1197 
L 716 0 
L 50 0 
L 1831 4666 
z
" transform="scale(0.015625)"/>
      </defs>
      <use xlink:href="#DejaVuSans-65"/>
      <use xlink:href="#DejaVuSans-6e" x="61.523438"/>
      <use xlink:href="#DejaVuSans-65" x="124.902344"/>
      <use xlink:href="#DejaVuSans-6d" x="186.425781"/>
      <use xlink:href="#DejaVuSans-79" x="283.837891"/>
      <use xlink:href="#DejaVuSans-41" x="343.017578"/>
     </g>
    </g>
    <g id="line2d_19">
     <path d="M 336.555938 263.648062 
L 346.555938 263.648062 
L 356.555938 263.648062 
" style="fill: none; stroke: #ff7f0e; stroke-width: 1.5; stroke-linecap: square"/>
    </g>
    <g id="text_16">
     <!-- enemyB -->
     <g transform="translate(364.555938 267.148062)scale(0.1 -0.1)">
      <defs>
       <path id="DejaVuSans-42" d="M 1259 2228 
L 1259 519 
L 2272 519 
Q 2781 519 3026 730 
Q 3272 941 3272 1375 
Q 3272 1813 3026 2020 
Q 2781 2228 2272 2228 
L 1259 2228 
z
M 1259 4147 
L 1259 2741 
L 2194 2741 
Q 2656 2741 2882 2914 
Q 3109 3088 3109 3444 
Q 3109 3797 2882 3972 
Q 2656 4147 2194 4147 
L 1259 4147 
z
M 628 4666 
L 2241 4666 
Q 2963 4666 3353 4366 
Q 3744 4066 3744 3513 
Q 3744 3084 3544 2831 
Q 3344 2578 2956 2516 
Q 3422 2416 3680 2098 
Q 3938 1781 3938 1306 
Q 3938 681 3513 340 
Q 3088 0 2303 0 
L 628 0 
L 628 4666 
z
" transform="scale(0.015625)"/>
      </defs>
      <use xlink:href="#DejaVuSans-65"/>
      <use xlink:href="#DejaVuSans-6e" x="61.523438"/>
      <use xlink:href="#DejaVuSans-65" x="124.902344"/>
      <use xlink:href="#DejaVuSans-6d" x="186.425781"/>
      <use xlink:href="#DejaVuSans-79" x="283.837891"/>
      <use xlink:href="#DejaVuSans-42" x="343.017578"/>
     </g>
    </g>
    <g id="line2d_20">
     <path d="M 336.555938 278.326187 
L 346.555938 278.326187 
L 356.555938 278.326187 
" style="fill: none; stroke-dasharray: 5.55,2.4; stroke-dashoffset: 0; stroke: #2ca02c; stroke-width: 1.5"/>
    </g>
    <g id="text_17">
     <!-- enemyA -->
     <g transform="translate(364.555938 281.826187)scale(0.1 -0.1)">
      <use xlink:href="#DejaVuSans-65"/>
      <use xlink:href="#DejaVuSans-6e" x="61.523438"/>
      <use xlink:href="#DejaVuSans-65" x="124.902344"/>
      <use xlink:href="#DejaVuSans-6d" x="186.425781"/>
      <use xlink:href="#DejaVuSans-79" x="283.837891"/>
      <use xlink:href="#DejaVuSans-41" x="343.017578"/>
     </g>
    </g>
    <g id="line2d_21">
     <path d="M 336.555938 293.004312 
L 346.555938 293.004312 
L 356.555938 293.004312 
" style="fill: none; stroke-dasharray: 5.55,2.4; stroke-dashoffset: 0; stroke: #d62728; stroke-width: 1.5"/>
    </g>
    <g id="text_18">
     <!-- enemyB -->
     <g transform="translate(364.555938 296.504312)scale(0.1 -0.1)">
      <use xlink:href="#DejaVuSans-65"/>
      <use xlink:href="#DejaVuSans-6e" x="61.523438"/>
      <use xlink:href="#DejaVuSans-65" x="124.902344"/>
      <use xlink:href="#DejaVuSans-6d" x="186.425781"/>
      <use xlink:href="#DejaVuSans-79" x="283.837891"/>
      <use xlink:href="#DejaVuSans-42" x="343.017578"/>
     </g>
    </g>
   </g>
  </g>
 </g>
 <defs>
  <clipPath id="pd7985d7a2f">
   <rect x="57.6" y="41.472" width="357.12" height="266.112"/>
  </clipPath>
 </defs>
</svg>
