<?xml version="1.0" encoding="utf-8" standalone="no"?>
<!DOCTYPE svg PUBLIC "-//W3C//DTD SVG 1.1//EN"
  "http://www.w3.org/Graphics/SVG/1.1/DTD/svg11.dtd">
<svg xmlns:xlink="http://www.w3.org/1999/xlink" width="460.8pt" height="345.6pt" viewBox="0 0 460.8 345.6" xmlns="http://www.w3.org/2000/svg" version="1.1">
 <metadata>
  <rdf:RDF xmlns:dc="http://purl.org/dc/elements/1.1/" xmlns:cc="http://creativecommons.org/ns#" xmlns:rdf="http://www.w3.org/1999/02/22-rdf-syntax-ns#">
   <cc:Work>
    <dc:type rdf:resource="http://purl.org/dc/dcmitype/StillImage"/>
    <dc:date>2022-10-13T16:56:03.178493</dc:date>
    <dc:format>image/svg+xml</dc:format>
    <dc:creator>
     <cc:Agent>
      <dc:title>Matplotlib v3.6.0, https://matplotlib.org/</dc:title>
     </cc:Agent>
    </dc:creator>
   </cc:Work>
  </rdf:RDF>
 </metadata>
 <defs>
  <style type="text/css">*{stroke-linejoin: round; stroke-linecap: butt}</style>
 </defs>
 <g id="figure_1">
  <g id="patch_1">
   <path d="M 0 345.6 
L 460.8 345.6 
L 460.8 0 
L 0 0 
z
" style="fill: #ffffff"/>
  </g>
  <g id="axes_1">
   <g id="patch_2">
    <path d="M 57.6 307.584 
L 414.72 307.584 
L 414.72 41.472 
L 57.6 41.472 
z
" style="fill: #ffffff"/>
   </g>
   <g id="PolyCollection_1">
    <path d="M 73.832727 251.34593 
L 73.832727 295.488 
L 77.890909 293.647365 
L 81.949091 292.779923 
L 86.007273 292.912502 
L 90.065455 295.094314 
L 94.123636 289.366404 
L 98.181818 286.334046 
L 102.24 277.569233 
L 106.298182 275.595551 
L 110.356364 266.418343 
L 114.414545 272.11733 
L 118.472727 273.795155 
L 122.530909 276.488507 
L 126.589091 260.518224 
L 130.647273 259.886463 
L 134.705455 253.98785 
L 138.763636 258.415021 
L 142.821818 258.984723 
L 146.88 243.83304 
L 150.938182 252.241066 
L 154.996364 255.6214 
L 159.054545 261.919382 
L 163.112727 262.075302 
L 167.170909 261.469585 
L 171.229091 251.862539 
L 175.287273 249.130516 
L 179.345455 239.059494 
L 183.403636 249.108271 
L 187.461818 241.451124 
L 191.52 243.613415 
L 195.578182 256.068068 
L 199.636364 246.849511 
L 203.694545 236.953212 
L 207.752727 243.471613 
L 211.810909 237.017712 
L 215.869091 247.360534 
L 219.927273 235.757582 
L 223.985455 235.467551 
L 228.043636 226.052207 
L 232.101818 233.481105 
L 236.16 241.524939 
L 240.218182 236.450842 
L 244.276364 226.489956 
L 248.334545 222.765725 
L 252.392727 230.795446 
L 256.450909 244.493636 
L 260.509091 238.363158 
L 264.567273 242.634849 
L 268.625455 239.95903 
L 272.683636 225.428606 
L 276.741818 234.616398 
L 280.8 223.224764 
L 284.858182 229.09661 
L 288.916364 224.44139 
L 292.974545 224.129182 
L 297.032727 225.522023 
L 301.090909 231.186783 
L 305.149091 228.575331 
L 309.207273 229.277695 
L 313.265455 228.537223 
L 317.323636 234.14831 
L 321.381818 231.381707 
L 325.44 238.869678 
L 329.498182 228.354036 
L 333.556364 229.282698 
L 337.614545 224.37389 
L 341.672727 225.384432 
L 345.730909 238.060756 
L 349.789091 236.026828 
L 353.847273 220.963682 
L 357.905455 233.942824 
L 361.963636 228.764329 
L 366.021818 222.288378 
L 370.08 227.576118 
L 374.138182 225.592724 
L 378.196364 220.949491 
L 382.254545 240.689715 
L 386.312727 228.7035 
L 390.370909 223.718538 
L 394.429091 225.619429 
L 398.487273 227.381752 
L 398.487273 143.21673 
L 398.487273 143.21673 
L 394.429091 151.263908 
L 390.370909 145.581947 
L 386.312727 158.830182 
L 382.254545 160.259142 
L 378.196364 145.438491 
L 374.138182 141.002143 
L 370.08 150.38787 
L 366.021818 149.637958 
L 361.963636 151.432506 
L 357.905455 156.236058 
L 353.847273 143.509682 
L 349.789091 150.852565 
L 345.730909 161.887091 
L 341.672727 140.845534 
L 337.614545 143.386929 
L 333.556364 158.46723 
L 329.498182 153.72072 
L 325.44 158.984637 
L 321.381818 163.716576 
L 317.323636 162.324093 
L 313.265455 152.070238 
L 309.207273 155.482673 
L 305.149091 141.17283 
L 301.090909 158.843931 
L 297.032727 145.101173 
L 292.974545 146.709093 
L 288.916364 144.229373 
L 284.858182 139.625151 
L 280.8 148.021801 
L 276.741818 150.706373 
L 272.683636 154.355738 
L 268.625455 157.02036 
L 264.567273 144.459599 
L 260.509091 152.012179 
L 256.450909 162.961341 
L 252.392727 147.984364 
L 248.334545 133.931562 
L 244.276364 126.639491 
L 240.218182 144.681767 
L 236.16 163.788932 
L 232.101818 151.220412 
L 228.043636 151.555138 
L 223.985455 157.017335 
L 219.927273 160.42383 
L 215.869091 166.396022 
L 211.810909 159.873937 
L 207.752727 148.619822 
L 203.694545 154.447025 
L 199.636364 168.268077 
L 195.578182 166.736941 
L 191.52 162.976751 
L 187.461818 158.159773 
L 183.403636 163.848875 
L 179.345455 165.412952 
L 175.287273 163.470125 
L 171.229091 175.509119 
L 167.170909 166.134289 
L 163.112727 173.032582 
L 159.054545 175.6638 
L 154.996364 179.049344 
L 150.938182 167.334889 
L 146.88 165.445902 
L 142.821818 171.776506 
L 138.763636 178.094725 
L 134.705455 189.814633 
L 130.647273 176.458129 
L 126.589091 160.495859 
L 122.530909 171.4958 
L 118.472727 173.345632 
L 114.414545 196.385123 
L 110.356364 177.828838 
L 106.298182 201.894543 
L 102.24 200.93493 
L 98.181818 213.225228 
L 94.123636 219.679319 
L 90.065455 227.295435 
L 86.007273 224.866192 
L 81.949091 240.254729 
L 77.890909 243.366774 
L 73.832727 251.34593 
z
" clip-path="url(#pef295bd699)" style="fill: #1f77b4; fill-opacity: 0.3"/>
   </g>
   <g id="PolyCollection_2">
    <path d="M 73.832727 245.488131 
L 73.832727 295.035854 
L 77.890909 292.871244 
L 81.949091 292.908588 
L 86.007273 285.534929 
L 90.065455 290.474893 
L 94.123636 285.767777 
L 98.181818 283.830053 
L 102.24 273.046721 
L 106.298182 267.239743 
L 110.356364 268.282633 
L 114.414545 266.214835 
L 118.472727 265.396426 
L 122.530909 271.568519 
L 126.589091 260.767355 
L 130.647273 260.213555 
L 134.705455 253.404861 
L 138.763636 252.598724 
L 142.821818 254.478479 
L 146.88 246.014664 
L 150.938182 248.506364 
L 154.996364 241.572887 
L 159.054545 260.141794 
L 163.112727 260.20831 
L 167.170909 255.179852 
L 171.229091 239.780017 
L 175.287273 250.0931 
L 179.345455 248.565449 
L 183.403636 243.744567 
L 187.461818 241.277528 
L 191.52 240.357059 
L 195.578182 246.61542 
L 199.636364 239.230874 
L 203.694545 240.56286 
L 207.752727 249.060009 
L 211.810909 243.129474 
L 215.869091 244.517954 
L 219.927273 234.236605 
L 223.985455 233.309192 
L 228.043636 238.714951 
L 232.101818 232.249121 
L 236.16 239.150066 
L 240.218182 235.960815 
L 244.276364 247.34978 
L 248.334545 223.582858 
L 252.392727 235.182448 
L 256.450909 246.637748 
L 260.509091 245.685486 
L 264.567273 241.335472 
L 268.625455 243.262292 
L 272.683636 229.328635 
L 276.741818 244.680307 
L 280.8 224.769278 
L 284.858182 225.718417 
L 288.916364 213.616627 
L 292.974545 229.083178 
L 297.032727 218.862177 
L 301.090909 230.049915 
L 305.149091 225.94072 
L 309.207273 221.468754 
L 313.265455 225.519358 
L 317.323636 230.790236 
L 321.381818 243.419636 
L 325.44 245.469814 
L 329.498182 229.174916 
L 333.556364 229.923255 
L 337.614545 225.763883 
L 341.672727 227.353866 
L 345.730909 239.678779 
L 349.789091 231.859756 
L 353.847273 229.092464 
L 357.905455 242.661271 
L 361.963636 228.340434 
L 366.021818 225.065605 
L 370.08 228.432605 
L 374.138182 234.795896 
L 378.196364 227.037141 
L 382.254545 240.43352 
L 386.312727 225.143891 
L 390.370909 216.874749 
L 394.429091 215.090157 
L 398.487273 234.285641 
L 398.487273 155.622589 
L 398.487273 155.622589 
L 394.429091 148.132913 
L 390.370909 151.633655 
L 386.312727 147.774753 
L 382.254545 154.921348 
L 378.196364 142.803131 
L 374.138182 137.153332 
L 370.08 145.526615 
L 366.021818 148.959081 
L 361.963636 156.184587 
L 357.905455 162.311862 
L 353.847273 153.431526 
L 349.789091 149.661644 
L 345.730909 162.093877 
L 341.672727 148.887537 
L 337.614545 147.177482 
L 333.556364 152.493372 
L 329.498182 146.940784 
L 325.44 163.862224 
L 321.381818 165.899641 
L 317.323636 156.096882 
L 313.265455 152.831612 
L 309.207273 148.211493 
L 305.149091 142.766277 
L 301.090909 152.53745 
L 297.032727 142.449004 
L 292.974545 156.562921 
L 288.916364 141.150667 
L 284.858182 148.365457 
L 280.8 139.877479 
L 276.741818 153.00834 
L 272.683636 150.269041 
L 268.625455 164.966734 
L 264.567273 158.376448 
L 260.509091 155.163733 
L 256.450909 164.891606 
L 252.392727 151.682879 
L 248.334545 152.549541 
L 244.276364 149.433682 
L 240.218182 148.919733 
L 236.16 157.312776 
L 232.101818 148.233072 
L 228.043636 154.647721 
L 223.985455 148.373934 
L 219.927273 161.317201 
L 215.869091 152.478321 
L 211.810909 151.533802 
L 207.752727 164.605769 
L 203.694545 161.348433 
L 199.636364 176.578656 
L 195.578182 174.402911 
L 191.52 164.844568 
L 187.461818 176.64447 
L 183.403636 174.232094 
L 179.345455 173.058563 
L 175.287273 182.010232 
L 171.229091 178.981294 
L 167.170909 175.620573 
L 163.112727 184.628011 
L 159.054545 181.490133 
L 154.996364 177.22264 
L 150.938182 177.849647 
L 146.88 173.176445 
L 142.821818 188.915108 
L 138.763636 190.71368 
L 134.705455 192.218665 
L 130.647273 190.877345 
L 126.589091 192.403116 
L 122.530909 190.700271 
L 118.472727 197.461889 
L 114.414545 189.09957 
L 110.356364 203.303967 
L 106.298182 194.778514 
L 102.24 206.885378 
L 98.181818 210.504044 
L 94.123636 216.818444 
L 90.065455 224.990343 
L 86.007273 219.152429 
L 81.949091 238.332273 
L 77.890909 238.893896 
L 73.832727 245.488131 
z
" clip-path="url(#pef295bd699)" style="fill: #ff7f0e; fill-opacity: 0.3"/>
   </g>
   <g id="matplotlib.axis_1">
    <g id="xtick_1">
     <g id="line2d_1">
      <defs>
       <path id="mbff56ac58c" d="M 0 0 
L 0 3.5 
" style="stroke: #000000; stroke-width: 0.8"/>
      </defs>
      <g>
       <use xlink:href="#mbff56ac58c" x="73.832727" y="307.584" style="stroke: #000000; stroke-width: 0.8"/>
      </g>
     </g>
     <g id="text_1">
      <!-- 0 -->
      <g transform="translate(70.651477 322.182437) scale(0.1 -0.1)">
       <defs>
        <path id="DejaVuSans-30" d="M 2034 4250 
Q 1547 4250 1301 3770 
Q 1056 3291 1056 2328 
Q 1056 1369 1301 889 
Q 1547 409 2034 409 
Q 2525 409 2770 889 
Q 3016 1369 3016 2328 
Q 3016 3291 2770 3770 
Q 2525 4250 2034 4250 
z
M 2034 4750 
Q 2819 4750 3233 4129 
Q 3647 3509 3647 2328 
Q 3647 1150 3233 529 
Q 2819 -91 2034 -91 
Q 1250 -91 836 529 
Q 422 1150 422 2328 
Q 422 3509 836 4129 
Q 1250 4750 2034 4750 
z
" transform="scale(0.015625)"/>
       </defs>
       <use xlink:href="#DejaVuSans-30"/>
      </g>
     </g>
    </g>
    <g id="xtick_2">
     <g id="line2d_2">
      <g>
       <use xlink:href="#mbff56ac58c" x="114.414545" y="307.584" style="stroke: #000000; stroke-width: 0.8"/>
      </g>
     </g>
     <g id="text_2">
      <!-- 10 -->
      <g transform="translate(108.052045 322.182437) scale(0.1 -0.1)">
       <defs>
        <path id="DejaVuSans-31" d="M 794 531 
L 1825 531 
L 1825 4091 
L 703 3866 
L 703 4441 
L 1819 4666 
L 2450 4666 
L 2450 531 
L 3481 531 
L 3481 0 
L 794 0 
L 794 531 
z
" transform="scale(0.015625)"/>
       </defs>
       <use xlink:href="#DejaVuSans-31"/>
       <use xlink:href="#DejaVuSans-30" x="63.623047"/>
      </g>
     </g>
    </g>
    <g id="xtick_3">
     <g id="line2d_3">
      <g>
       <use xlink:href="#mbff56ac58c" x="154.996364" y="307.584" style="stroke: #000000; stroke-width: 0.8"/>
      </g>
     </g>
     <g id="text_3">
      <!-- 20 -->
      <g transform="translate(148.633864 322.182437) scale(0.1 -0.1)">
       <defs>
        <path id="DejaVuSans-32" d="M 1228 531 
L 3431 531 
L 3431 0 
L 469 0 
L 469 531 
Q 828 903 1448 1529 
Q 2069 2156 2228 2338 
Q 2531 2678 2651 2914 
Q 2772 3150 2772 3378 
Q 2772 3750 2511 3984 
Q 2250 4219 1831 4219 
Q 1534 4219 1204 4116 
Q 875 4013 500 3803 
L 500 4441 
Q 881 4594 1212 4672 
Q 1544 4750 1819 4750 
Q 2544 4750 2975 4387 
Q 3406 4025 3406 3419 
Q 3406 3131 3298 2873 
Q 3191 2616 2906 2266 
Q 2828 2175 2409 1742 
Q 1991 1309 1228 531 
z
" transform="scale(0.015625)"/>
       </defs>
       <use xlink:href="#DejaVuSans-32"/>
       <use xlink:href="#DejaVuSans-30" x="63.623047"/>
      </g>
     </g>
    </g>
    <g id="xtick_4">
     <g id="line2d_4">
      <g>
       <use xlink:href="#mbff56ac58c" x="195.578182" y="307.584" style="stroke: #000000; stroke-width: 0.8"/>
      </g>
     </g>
     <g id="text_4">
      <!-- 30 -->
      <g transform="translate(189.215682 322.182437) scale(0.1 -0.1)">
       <defs>
        <path id="DejaVuSans-33" d="M 2597 2516 
Q 3050 2419 3304 2112 
Q 3559 1806 3559 1356 
Q 3559 666 3084 287 
Q 2609 -91 1734 -91 
Q 1441 -91 1130 -33 
Q 819 25 488 141 
L 488 750 
Q 750 597 1062 519 
Q 1375 441 1716 441 
Q 2309 441 2620 675 
Q 2931 909 2931 1356 
Q 2931 1769 2642 2001 
Q 2353 2234 1838 2234 
L 1294 2234 
L 1294 2753 
L 1863 2753 
Q 2328 2753 2575 2939 
Q 2822 3125 2822 3475 
Q 2822 3834 2567 4026 
Q 2313 4219 1838 4219 
Q 1578 4219 1281 4162 
Q 984 4106 628 3988 
L 628 4550 
Q 988 4650 1302 4700 
Q 1616 4750 1894 4750 
Q 2613 4750 3031 4423 
Q 3450 4097 3450 3541 
Q 3450 3153 3228 2886 
Q 3006 2619 2597 2516 
z
" transform="scale(0.015625)"/>
       </defs>
       <use xlink:href="#DejaVuSans-33"/>
       <use xlink:href="#DejaVuSans-30" x="63.623047"/>
      </g>
     </g>
    </g>
    <g id="xtick_5">
     <g id="line2d_5">
      <g>
       <use xlink:href="#mbff56ac58c" x="236.16" y="307.584" style="stroke: #000000; stroke-width: 0.8"/>
      </g>
     </g>
     <g id="text_5">
      <!-- 40 -->
      <g transform="translate(229.7975 322.182437) scale(0.1 -0.1)">
       <defs>
        <path id="DejaVuSans-34" d="M 2419 4116 
L 825 1625 
L 2419 1625 
L 2419 4116 
z
M 2253 4666 
L 3047 4666 
L 3047 1625 
L 3713 1625 
L 3713 1100 
L 3047 1100 
L 3047 0 
L 2419 0 
L 2419 1100 
L 313 1100 
L 313 1709 
L 2253 4666 
z
" transform="scale(0.015625)"/>
       </defs>
       <use xlink:href="#DejaVuSans-34"/>
       <use xlink:href="#DejaVuSans-30" x="63.623047"/>
      </g>
     </g>
    </g>
    <g id="xtick_6">
     <g id="line2d_6">
      <g>
       <use xlink:href="#mbff56ac58c" x="276.741818" y="307.584" style="stroke: #000000; stroke-width: 0.8"/>
      </g>
     </g>
     <g id="text_6">
      <!-- 50 -->
      <g transform="translate(270.379318 322.182437) scale(0.1 -0.1)">
       <defs>
        <path id="DejaVuSans-35" d="M 691 4666 
L 3169 4666 
L 3169 4134 
L 1269 4134 
L 1269 2991 
Q 1406 3038 1543 3061 
Q 1681 3084 1819 3084 
Q 2600 3084 3056 2656 
Q 3513 2228 3513 1497 
Q 3513 744 3044 326 
Q 2575 -91 1722 -91 
Q 1428 -91 1123 -41 
Q 819 9 494 109 
L 494 744 
Q 775 591 1075 516 
Q 1375 441 1709 441 
Q 2250 441 2565 725 
Q 2881 1009 2881 1497 
Q 2881 1984 2565 2268 
Q 2250 2553 1709 2553 
Q 1456 2553 1204 2497 
Q 953 2441 691 2322 
L 691 4666 
z
" transform="scale(0.015625)"/>
       </defs>
       <use xlink:href="#DejaVuSans-35"/>
       <use xlink:href="#DejaVuSans-30" x="63.623047"/>
      </g>
     </g>
    </g>
    <g id="xtick_7">
     <g id="line2d_7">
      <g>
       <use xlink:href="#mbff56ac58c" x="317.323636" y="307.584" style="stroke: #000000; stroke-width: 0.8"/>
      </g>
     </g>
     <g id="text_7">
      <!-- 60 -->
      <g transform="translate(310.961136 322.182437) scale(0.1 -0.1)">
       <defs>
        <path id="DejaVuSans-36" d="M 2113 2584 
Q 1688 2584 1439 2293 
Q 1191 2003 1191 1497 
Q 1191 994 1439 701 
Q 1688 409 2113 409 
Q 2538 409 2786 701 
Q 3034 994 3034 1497 
Q 3034 2003 2786 2293 
Q 2538 2584 2113 2584 
z
M 3366 4563 
L 3366 3988 
Q 3128 4100 2886 4159 
Q 2644 4219 2406 4219 
Q 1781 4219 1451 3797 
Q 1122 3375 1075 2522 
Q 1259 2794 1537 2939 
Q 1816 3084 2150 3084 
Q 2853 3084 3261 2657 
Q 3669 2231 3669 1497 
Q 3669 778 3244 343 
Q 2819 -91 2113 -91 
Q 1303 -91 875 529 
Q 447 1150 447 2328 
Q 447 3434 972 4092 
Q 1497 4750 2381 4750 
Q 2619 4750 2861 4703 
Q 3103 4656 3366 4563 
z
" transform="scale(0.015625)"/>
       </defs>
       <use xlink:href="#DejaVuSans-36"/>
       <use xlink:href="#DejaVuSans-30" x="63.623047"/>
      </g>
     </g>
    </g>
    <g id="xtick_8">
     <g id="line2d_8">
      <g>
       <use xlink:href="#mbff56ac58c" x="357.905455" y="307.584" style="stroke: #000000; stroke-width: 0.8"/>
      </g>
     </g>
     <g id="text_8">
      <!-- 70 -->
      <g transform="translate(351.542955 322.182437) scale(0.1 -0.1)">
       <defs>
        <path id="DejaVuSans-37" d="M 525 4666 
L 3525 4666 
L 3525 4397 
L 1831 0 
L 1172 0 
L 2766 4134 
L 525 4134 
L 525 4666 
z
" transform="scale(0.015625)"/>
       </defs>
       <use xlink:href="#DejaVuSans-37"/>
       <use xlink:href="#DejaVuSans-30" x="63.623047"/>
      </g>
     </g>
    </g>
    <g id="xtick_9">
     <g id="line2d_9">
      <g>
       <use xlink:href="#mbff56ac58c" x="398.487273" y="307.584" style="stroke: #000000; stroke-width: 0.8"/>
      </g>
     </g>
     <g id="text_9">
      <!-- 80 -->
      <g transform="translate(392.124773 322.182437) scale(0.1 -0.1)">
       <defs>
        <path id="DejaVuSans-38" d="M 2034 2216 
Q 1584 2216 1326 1975 
Q 1069 1734 1069 1313 
Q 1069 891 1326 650 
Q 1584 409 2034 409 
Q 2484 409 2743 651 
Q 3003 894 3003 1313 
Q 3003 1734 2745 1975 
Q 2488 2216 2034 2216 
z
M 1403 2484 
Q 997 2584 770 2862 
Q 544 3141 544 3541 
Q 544 4100 942 4425 
Q 1341 4750 2034 4750 
Q 2731 4750 3128 4425 
Q 3525 4100 3525 3541 
Q 3525 3141 3298 2862 
Q 3072 2584 2669 2484 
Q 3125 2378 3379 2068 
Q 3634 1759 3634 1313 
Q 3634 634 3220 271 
Q 2806 -91 2034 -91 
Q 1263 -91 848 271 
Q 434 634 434 1313 
Q 434 1759 690 2068 
Q 947 2378 1403 2484 
z
M 1172 3481 
Q 1172 3119 1398 2916 
Q 1625 2713 2034 2713 
Q 2441 2713 2670 2916 
Q 2900 3119 2900 3481 
Q 2900 3844 2670 4047 
Q 2441 4250 2034 4250 
Q 1625 4250 1398 4047 
Q 1172 3844 1172 3481 
z
" transform="scale(0.015625)"/>
       </defs>
       <use xlink:href="#DejaVuSans-38"/>
       <use xlink:href="#DejaVuSans-30" x="63.623047"/>
      </g>
     </g>
    </g>
   </g>
   <g id="matplotlib.axis_2">
    <g id="ytick_1">
     <g id="line2d_10">
      <defs>
       <path id="m962dfb6eba" d="M 0 0 
L -3.5 0 
" style="stroke: #000000; stroke-width: 0.8"/>
      </defs>
      <g>
       <use xlink:href="#m962dfb6eba" x="57.6" y="267.635904" style="stroke: #000000; stroke-width: 0.8"/>
      </g>
     </g>
     <g id="text_10">
      <!-- 0 -->
      <g transform="translate(44.2375 271.435122) scale(0.1 -0.1)">
       <use xlink:href="#DejaVuSans-30"/>
      </g>
     </g>
    </g>
    <g id="ytick_2">
     <g id="line2d_11">
      <g>
       <use xlink:href="#m962dfb6eba" x="57.6" y="219.742469" style="stroke: #000000; stroke-width: 0.8"/>
      </g>
     </g>
     <g id="text_11">
      <!-- 20 -->
      <g transform="translate(37.875 223.541688) scale(0.1 -0.1)">
       <use xlink:href="#DejaVuSans-32"/>
       <use xlink:href="#DejaVuSans-30" x="63.623047"/>
      </g>
     </g>
    </g>
    <g id="ytick_3">
     <g id="line2d_12">
      <g>
       <use xlink:href="#m962dfb6eba" x="57.6" y="171.849035" style="stroke: #000000; stroke-width: 0.8"/>
      </g>
     </g>
     <g id="text_12">
      <!-- 40 -->
      <g transform="translate(37.875 175.648254) scale(0.1 -0.1)">
       <use xlink:href="#DejaVuSans-34"/>
       <use xlink:href="#DejaVuSans-30" x="63.623047"/>
      </g>
     </g>
    </g>
    <g id="ytick_4">
     <g id="line2d_13">
      <g>
       <use xlink:href="#m962dfb6eba" x="57.6" y="123.955601" style="stroke: #000000; stroke-width: 0.8"/>
      </g>
     </g>
     <g id="text_13">
      <!-- 60 -->
      <g transform="translate(37.875 127.75482) scale(0.1 -0.1)">
       <use xlink:href="#DejaVuSans-36"/>
       <use xlink:href="#DejaVuSans-30" x="63.623047"/>
      </g>
     </g>
    </g>
    <g id="ytick_5">
     <g id="line2d_14">
      <g>
       <use xlink:href="#m962dfb6eba" x="57.6" y="76.062167" style="stroke: #000000; stroke-width: 0.8"/>
      </g>
     </g>
     <g id="text_14">
      <!-- 80 -->
      <g transform="translate(37.875 79.861386) scale(0.1 -0.1)">
       <use xlink:href="#DejaVuSans-38"/>
       <use xlink:href="#DejaVuSans-30" x="63.623047"/>
      </g>
     </g>
    </g>
   </g>
   <g id="line2d_15">
    <path d="M 73.832727 273.416965 
L 77.890909 268.507069 
L 81.949091 266.517326 
L 86.007273 258.889347 
L 90.065455 261.194874 
L 94.123636 254.522862 
L 98.181818 249.779637 
L 102.24 239.252082 
L 106.298182 238.745047 
L 110.356364 222.123591 
L 114.414545 234.251227 
L 118.472727 223.570393 
L 122.530909 223.992153 
L 126.589091 210.507041 
L 130.647273 218.172296 
L 134.705455 221.901241 
L 138.763636 218.254873 
L 142.821818 215.380614 
L 146.88 204.639471 
L 150.938182 209.787977 
L 154.996364 217.335372 
L 159.054545 218.791591 
L 163.112727 217.553942 
L 167.170909 213.801937 
L 171.229091 213.685829 
L 175.287273 206.30032 
L 179.345455 202.236223 
L 183.403636 206.478573 
L 187.461818 199.805449 
L 191.52 203.295083 
L 195.578182 211.402504 
L 199.636364 207.558794 
L 203.694545 195.700119 
L 207.752727 196.045718 
L 211.810909 198.445825 
L 215.869091 206.878278 
L 219.927273 198.090706 
L 223.985455 196.242443 
L 228.043636 188.803672 
L 232.101818 192.350759 
L 236.16 202.656936 
L 240.218182 190.566305 
L 244.276364 176.564724 
L 248.334545 178.348644 
L 252.392727 189.389905 
L 256.450909 203.727488 
L 260.509091 195.187669 
L 264.567273 193.547224 
L 268.625455 198.489695 
L 272.683636 189.892172 
L 276.741818 192.661386 
L 280.8 185.623282 
L 284.858182 184.36088 
L 288.916364 184.335381 
L 292.974545 185.419138 
L 297.032727 185.311598 
L 301.090909 195.015357 
L 305.149091 184.87408 
L 309.207273 192.380184 
L 313.265455 190.303731 
L 317.323636 198.236201 
L 321.381818 197.549141 
L 325.44 198.927158 
L 329.498182 191.037378 
L 333.556364 193.874964 
L 337.614545 183.88041 
L 341.672727 183.114983 
L 345.730909 199.973924 
L 349.789091 193.439697 
L 353.847273 182.236682 
L 357.905455 195.089441 
L 361.963636 190.098417 
L 366.021818 185.963168 
L 370.08 188.981994 
L 374.138182 183.297434 
L 378.196364 183.193991 
L 382.254545 200.474428 
L 386.312727 193.766841 
L 390.370909 184.650243 
L 394.429091 188.441668 
L 398.487273 185.299241 
" clip-path="url(#pef295bd699)" style="fill: none; stroke: #1f77b4; stroke-width: 1.5; stroke-linecap: square"/>
   </g>
   <g id="line2d_16">
    <path d="M 73.832727 270.261993 
L 77.890909 265.88257 
L 81.949091 265.620431 
L 86.007273 252.343679 
L 90.065455 257.732618 
L 94.123636 251.293111 
L 98.181818 247.167049 
L 102.24 239.966049 
L 106.298182 231.009129 
L 110.356364 235.7933 
L 114.414545 227.657203 
L 118.472727 231.429158 
L 122.530909 231.134395 
L 126.589091 226.585236 
L 130.647273 225.54545 
L 134.705455 222.811763 
L 138.763636 221.656202 
L 142.821818 221.696793 
L 146.88 209.595555 
L 150.938182 213.178005 
L 154.996364 209.397764 
L 159.054545 220.815963 
L 163.112727 222.41816 
L 167.170909 215.400212 
L 171.229091 209.380656 
L 175.287273 216.051666 
L 179.345455 210.812006 
L 183.403636 208.988331 
L 187.461818 208.960999 
L 191.52 202.600814 
L 195.578182 210.509165 
L 199.636364 207.904765 
L 203.694545 200.955647 
L 207.752727 206.832889 
L 211.810909 197.331638 
L 215.869091 198.498138 
L 219.927273 197.776903 
L 223.985455 190.841563 
L 228.043636 196.681336 
L 232.101818 190.241096 
L 236.16 198.231421 
L 240.218182 192.440274 
L 244.276364 198.391731 
L 248.334545 188.066199 
L 252.392727 193.432663 
L 256.450909 205.764677 
L 260.509091 200.424609 
L 264.567273 199.85596 
L 268.625455 204.114513 
L 272.683636 189.798838 
L 276.741818 198.844324 
L 280.8 182.323378 
L 284.858182 187.041937 
L 288.916364 177.383647 
L 292.974545 192.82305 
L 297.032727 180.655591 
L 301.090909 191.293683 
L 305.149091 184.353499 
L 309.207273 184.840124 
L 313.265455 189.175485 
L 317.323636 193.443559 
L 321.381818 204.659639 
L 325.44 204.666019 
L 329.498182 188.05785 
L 333.556364 191.208313 
L 337.614545 186.470682 
L 341.672727 188.120702 
L 345.730909 200.886328 
L 349.789091 190.7607 
L 353.847273 191.261995 
L 357.905455 202.486567 
L 361.963636 192.26251 
L 366.021818 187.012343 
L 370.08 186.97961 
L 374.138182 185.974614 
L 378.196364 184.920136 
L 382.254545 197.677434 
L 386.312727 186.459322 
L 390.370909 184.254202 
L 394.429091 181.611535 
L 398.487273 194.954115 
" clip-path="url(#pef295bd699)" style="fill: none; stroke: #ff7f0e; stroke-width: 1.5; stroke-linecap: square"/>
   </g>
   <g id="line2d_17">
    <path d="M 73.832727 195.36491 
L 77.890909 195.36491 
L 81.949091 195.36491 
L 86.007273 131.027649 
L 90.065455 151.621147 
L 94.123636 151.621147 
L 98.181818 151.621147 
L 102.24 88.670835 
L 106.298182 151.621147 
L 110.356364 88.582734 
L 114.414545 151.621147 
L 118.472727 53.568 
L 122.530909 61.292905 
L 126.589091 61.230949 
L 130.647273 131.682097 
L 134.705455 151.621147 
L 138.763636 130.087593 
L 142.821818 108.617038 
L 146.88 110.162953 
L 150.938182 67.100509 
L 154.996364 130.087593 
L 159.054545 129.993672 
L 163.112727 88.554226 
L 167.170909 87.904826 
L 171.229091 130.087593 
L 175.287273 110.111046 
L 179.345455 110.111046 
L 183.403636 110.111046 
L 187.461818 88.573269 
L 191.52 130.069101 
L 195.578182 53.906748 
L 199.636364 129.984074 
L 203.694545 108.451186 
L 207.752727 108.451186 
L 211.810909 108.451186 
L 215.869091 108.451186 
L 219.927273 88.380803 
L 223.985455 108.451186 
L 228.043636 108.451186 
L 232.101818 108.451186 
L 236.16 108.451186 
L 240.218182 108.451186 
L 244.276364 63.146687 
L 248.334545 60.715828 
L 252.392727 108.451186 
L 256.450909 88.592162 
L 260.509091 108.451186 
L 264.567273 62.193641 
L 268.625455 108.451186 
L 272.683636 108.451186 
L 276.741818 108.451186 
L 280.8 108.451186 
L 284.858182 88.601553 
L 288.916364 87.539861 
L 292.974545 108.451186 
L 297.032727 108.451186 
L 301.090909 108.451186 
L 305.149091 64.044301 
L 309.207273 108.451186 
L 313.265455 108.451186 
L 317.323636 108.451186 
L 321.381818 108.451186 
L 325.44 108.451186 
L 329.498182 108.451186 
L 333.556364 108.451186 
L 337.614545 88.606235 
L 341.672727 108.451186 
L 345.730909 108.451186 
L 349.789091 88.302453 
L 353.847273 108.451186 
L 357.905455 108.451186 
L 361.963636 108.451186 
L 366.021818 108.451186 
L 370.08 108.451186 
L 374.138182 65.610578 
L 378.196364 108.451186 
L 382.254545 108.451186 
L 386.312727 108.451186 
L 390.370909 108.451186 
L 394.429091 108.451186 
L 398.487273 87.517858 
" clip-path="url(#pef295bd699)" style="fill: none; stroke-dasharray: 5.55,2.4; stroke-dashoffset: 0; stroke: #2ca02c; stroke-width: 1.5"/>
   </g>
   <g id="line2d_18">
    <path d="M 73.832727 194.521931 
L 77.890909 194.521931 
L 81.949091 194.521931 
L 86.007273 194.186236 
L 90.065455 173.748042 
L 94.123636 152.554685 
L 98.181818 152.554685 
L 102.24 152.535755 
L 106.298182 152.554685 
L 110.356364 152.554685 
L 114.414545 152.378671 
L 118.472727 152.378671 
L 122.530909 131.30901 
L 126.589091 152.378671 
L 130.647273 152.371896 
L 134.705455 152.378671 
L 138.763636 152.378671 
L 142.821818 152.378671 
L 146.88 131.13707 
L 150.938182 131.107173 
L 154.996364 131.107173 
L 159.054545 110.748113 
L 163.112727 131.107173 
L 167.170909 131.107173 
L 171.229091 152.445379 
L 175.287273 152.445379 
L 179.345455 131.41714 
L 183.403636 152.296087 
L 187.461818 131.230305 
L 191.52 131.107173 
L 195.578182 131.166597 
L 199.636364 131.230305 
L 203.694545 89.614318 
L 207.752727 109.917382 
L 211.810909 64.643347 
L 215.869091 89.791782 
L 219.927273 109.917382 
L 223.985455 109.917382 
L 228.043636 109.917382 
L 232.101818 109.917382 
L 236.16 109.917382 
L 240.218182 109.917382 
L 244.276364 109.917382 
L 248.334545 109.917382 
L 252.392727 109.917382 
L 256.450909 109.917382 
L 260.509091 109.917382 
L 264.567273 109.917382 
L 268.625455 109.917382 
L 272.683636 109.917382 
L 276.741818 109.917382 
L 280.8 90.375793 
L 284.858182 109.917382 
L 288.916364 109.917382 
L 292.974545 109.917382 
L 297.032727 109.917382 
L 301.090909 109.917382 
L 305.149091 109.917382 
L 309.207273 109.917382 
L 313.265455 109.917382 
L 317.323636 109.917382 
L 321.381818 109.917382 
L 325.44 109.917382 
L 329.498182 109.917382 
L 333.556364 109.917382 
L 337.614545 109.917382 
L 341.672727 109.917382 
L 345.730909 109.917382 
L 349.789091 109.917382 
L 353.847273 109.917382 
L 357.905455 109.917382 
L 361.963636 109.917382 
L 366.021818 109.917382 
L 370.08 109.917382 
L 374.138182 63.89204 
L 378.196364 109.917382 
L 382.254545 109.917382 
L 386.312727 109.917382 
L 390.370909 109.917382 
L 394.429091 109.917382 
L 398.487273 109.917382 
" clip-path="url(#pef295bd699)" style="fill: none; stroke-dasharray: 5.55,2.4; stroke-dashoffset: 0; stroke: #d62728; stroke-width: 1.5"/>
   </g>
   <g id="patch_3">
    <path d="M 57.6 307.584 
L 57.6 41.472 
" style="fill: none; stroke: #000000; stroke-width: 0.8; stroke-linejoin: miter; stroke-linecap: square"/>
   </g>
   <g id="patch_4">
    <path d="M 414.72 307.584 
L 414.72 41.472 
" style="fill: none; stroke: #000000; stroke-width: 0.8; stroke-linejoin: miter; stroke-linecap: square"/>
   </g>
   <g id="patch_5">
    <path d="M 57.6 307.584 
L 414.72 307.584 
" style="fill: none; stroke: #000000; stroke-width: 0.8; stroke-linejoin: miter; stroke-linecap: square"/>
   </g>
   <g id="patch_6">
    <path d="M 57.6 41.472 
L 414.72 41.472 
" style="fill: none; stroke: #000000; stroke-width: 0.8; stroke-linejoin: miter; stroke-linecap: square"/>
   </g>
   <g id="text_15">
    <!-- fitness on 9_incest -->
    <g transform="translate(180.24 35.472) scale(0.12 -0.12)">
     <defs>
      <path id="DejaVuSans-66" d="M 2375 4863 
L 2375 4384 
L 1825 4384 
Q 1516 4384 1395 4259 
Q 1275 4134 1275 3809 
L 1275 3500 
L 2222 3500 
L 2222 3053 
L 1275 3053 
L 1275 0 
L 697 0 
L 697 3053 
L 147 3053 
L 147 3500 
L 697 3500 
L 697 3744 
Q 697 4328 969 4595 
Q 1241 4863 1831 4863 
L 2375 4863 
z
" transform="scale(0.015625)"/>
      <path id="DejaVuSans-69" d="M 603 3500 
L 1178 3500 
L 1178 0 
L 603 0 
L 603 3500 
z
M 603 4863 
L 1178 4863 
L 1178 4134 
L 603 4134 
L 603 4863 
z
" transform="scale(0.015625)"/>
      <path id="DejaVuSans-74" d="M 1172 4494 
L 1172 3500 
L 2356 3500 
L 2356 3053 
L 1172 3053 
L 1172 1153 
Q 1172 725 1289 603 
Q 1406 481 1766 481 
L 2356 481 
L 2356 0 
L 1766 0 
Q 1100 0 847 248 
Q 594 497 594 1153 
L 594 3053 
L 172 3053 
L 172 3500 
L 594 3500 
L 594 4494 
L 1172 4494 
z
" transform="scale(0.015625)"/>
      <path id="DejaVuSans-6e" d="M 3513 2113 
L 3513 0 
L 2938 0 
L 2938 2094 
Q 2938 2591 2744 2837 
Q 2550 3084 2163 3084 
Q 1697 3084 1428 2787 
Q 1159 2491 1159 1978 
L 1159 0 
L 581 0 
L 581 3500 
L 1159 3500 
L 1159 2956 
Q 1366 3272 1645 3428 
Q 1925 3584 2291 3584 
Q 2894 3584 3203 3211 
Q 3513 2838 3513 2113 
z
" transform="scale(0.015625)"/>
      <path id="DejaVuSans-65" d="M 3597 1894 
L 3597 1613 
L 953 1613 
Q 991 1019 1311 708 
Q 1631 397 2203 397 
Q 2534 397 2845 478 
Q 3156 559 3463 722 
L 3463 178 
Q 3153 47 2828 -22 
Q 2503 -91 2169 -91 
Q 1331 -91 842 396 
Q 353 884 353 1716 
Q 353 2575 817 3079 
Q 1281 3584 2069 3584 
Q 2775 3584 3186 3129 
Q 3597 2675 3597 1894 
z
M 3022 2063 
Q 3016 2534 2758 2815 
Q 2500 3097 2075 3097 
Q 1594 3097 1305 2825 
Q 1016 2553 972 2059 
L 3022 2063 
z
" transform="scale(0.015625)"/>
      <path id="DejaVuSans-73" d="M 2834 3397 
L 2834 2853 
Q 2591 2978 2328 3040 
Q 2066 3103 1784 3103 
Q 1356 3103 1142 2972 
Q 928 2841 928 2578 
Q 928 2378 1081 2264 
Q 1234 2150 1697 2047 
L 1894 2003 
Q 2506 1872 2764 1633 
Q 3022 1394 3022 966 
Q 3022 478 2636 193 
Q 2250 -91 1575 -91 
Q 1294 -91 989 -36 
Q 684 19 347 128 
L 347 722 
Q 666 556 975 473 
Q 1284 391 1588 391 
Q 1994 391 2212 530 
Q 2431 669 2431 922 
Q 2431 1156 2273 1281 
Q 2116 1406 1581 1522 
L 1381 1569 
Q 847 1681 609 1914 
Q 372 2147 372 2553 
Q 372 3047 722 3315 
Q 1072 3584 1716 3584 
Q 2034 3584 2315 3537 
Q 2597 3491 2834 3397 
z
" transform="scale(0.015625)"/>
      <path id="DejaVuSans-20" transform="scale(0.015625)"/>
      <path id="DejaVuSans-6f" d="M 1959 3097 
Q 1497 3097 1228 2736 
Q 959 2375 959 1747 
Q 959 1119 1226 758 
Q 1494 397 1959 397 
Q 2419 397 2687 759 
Q 2956 1122 2956 1747 
Q 2956 2369 2687 2733 
Q 2419 3097 1959 3097 
z
M 1959 3584 
Q 2709 3584 3137 3096 
Q 3566 2609 3566 1747 
Q 3566 888 3137 398 
Q 2709 -91 1959 -91 
Q 1206 -91 779 398 
Q 353 888 353 1747 
Q 353 2609 779 3096 
Q 1206 3584 1959 3584 
z
" transform="scale(0.015625)"/>
      <path id="DejaVuSans-39" d="M 703 97 
L 703 672 
Q 941 559 1184 500 
Q 1428 441 1663 441 
Q 2288 441 2617 861 
Q 2947 1281 2994 2138 
Q 2813 1869 2534 1725 
Q 2256 1581 1919 1581 
Q 1219 1581 811 2004 
Q 403 2428 403 3163 
Q 403 3881 828 4315 
Q 1253 4750 1959 4750 
Q 2769 4750 3195 4129 
Q 3622 3509 3622 2328 
Q 3622 1225 3098 567 
Q 2575 -91 1691 -91 
Q 1453 -91 1209 -44 
Q 966 3 703 97 
z
M 1959 2075 
Q 2384 2075 2632 2365 
Q 2881 2656 2881 3163 
Q 2881 3666 2632 3958 
Q 2384 4250 1959 4250 
Q 1534 4250 1286 3958 
Q 1038 3666 1038 3163 
Q 1038 2656 1286 2365 
Q 1534 2075 1959 2075 
z
" transform="scale(0.015625)"/>
      <path id="DejaVuSans-5f" d="M 3263 -1063 
L 3263 -1509 
L -63 -1509 
L -63 -1063 
L 3263 -1063 
z
" transform="scale(0.015625)"/>
      <path id="DejaVuSans-63" d="M 3122 3366 
L 3122 2828 
Q 2878 2963 2633 3030 
Q 2388 3097 2138 3097 
Q 1578 3097 1268 2742 
Q 959 2388 959 1747 
Q 959 1106 1268 751 
Q 1578 397 2138 397 
Q 2388 397 2633 464 
Q 2878 531 3122 666 
L 3122 134 
Q 2881 22 2623 -34 
Q 2366 -91 2075 -91 
Q 1284 -91 818 406 
Q 353 903 353 1747 
Q 353 2603 823 3093 
Q 1294 3584 2113 3584 
Q 2378 3584 2631 3529 
Q 2884 3475 3122 3366 
z
" transform="scale(0.015625)"/>
     </defs>
     <use xlink:href="#DejaVuSans-66"/>
     <use xlink:href="#DejaVuSans-69" x="35.205078"/>
     <use xlink:href="#DejaVuSans-74" x="62.988281"/>
     <use xlink:href="#DejaVuSans-6e" x="102.197266"/>
     <use xlink:href="#DejaVuSans-65" x="165.576172"/>
     <use xlink:href="#DejaVuSans-73" x="227.099609"/>
     <use xlink:href="#DejaVuSans-73" x="279.199219"/>
     <use xlink:href="#DejaVuSans-20" x="331.298828"/>
     <use xlink:href="#DejaVuSans-6f" x="363.085938"/>
     <use xlink:href="#DejaVuSans-6e" x="424.267578"/>
     <use xlink:href="#DejaVuSans-20" x="487.646484"/>
     <use xlink:href="#DejaVuSans-39" x="519.433594"/>
     <use xlink:href="#DejaVuSans-5f" x="583.056641"/>
     <use xlink:href="#DejaVuSans-69" x="633.056641"/>
     <use xlink:href="#DejaVuSans-6e" x="660.839844"/>
     <use xlink:href="#DejaVuSans-63" x="724.21875"/>
     <use xlink:href="#DejaVuSans-65" x="779.199219"/>
     <use xlink:href="#DejaVuSans-73" x="840.722656"/>
     <use xlink:href="#DejaVuSans-74" x="892.822266"/>
    </g>
   </g>
   <g id="legend_1">
    <g id="patch_7">
     <path d="M 334.555938 302.584 
L 407.72 302.584 
Q 409.72 302.584 409.72 300.584 
L 409.72 242.8715 
Q 409.72 240.8715 407.72 240.8715 
L 334.555938 240.8715 
Q 332.555938 240.8715 332.555938 242.8715 
L 332.555938 300.584 
Q 332.555938 302.584 334.555938 302.584 
z
" style="fill: #ffffff; opacity: 0.8; stroke: #cccccc; stroke-linejoin: miter"/>
    </g>
    <g id="line2d_19">
     <path d="M 336.555938 248.969937 
L 346.555938 248.969937 
L 356.555938 248.969937 
" style="fill: none; stroke: #1f77b4; stroke-width: 1.5; stroke-linecap: square"/>
    </g>
    <g id="text_16">
     <!-- enemyA -->
     <g transform="translate(364.555938 252.469937) scale(0.1 -0.1)">
      <defs>
       <path id="DejaVuSans-6d" d="M 3328 2828 
Q 3544 3216 3844 3400 
Q 4144 3584 4550 3584 
Q 5097 3584 5394 3201 
Q 5691 2819 5691 2113 
L 5691 0 
L 5113 0 
L 5113 2094 
Q 5113 2597 4934 2840 
Q 4756 3084 4391 3084 
Q 3944 3084 3684 2787 
Q 3425 2491 3425 1978 
L 3425 0 
L 2847 0 
L 2847 2094 
Q 2847 2600 2669 2842 
Q 2491 3084 2119 3084 
Q 1678 3084 1418 2786 
Q 1159 2488 1159 1978 
L 1159 0 
L 581 0 
L 581 3500 
L 1159 3500 
L 1159 2956 
Q 1356 3278 1631 3431 
Q 1906 3584 2284 3584 
Q 2666 3584 2933 3390 
Q 3200 3197 3328 2828 
z
" transform="scale(0.015625)"/>
       <path id="DejaVuSans-79" d="M 2059 -325 
Q 1816 -950 1584 -1140 
Q 1353 -1331 966 -1331 
L 506 -1331 
L 506 -850 
L 844 -850 
Q 1081 -850 1212 -737 
Q 1344 -625 1503 -206 
L 1606 56 
L 191 3500 
L 800 3500 
L 1894 763 
L 2988 3500 
L 3597 3500 
L 2059 -325 
z
" transform="scale(0.015625)"/>
       <path id="DejaVuSans-41" d="M 2188 4044 
L 1331 1722 
L 3047 1722 
L 2188 4044 
z
M 1831 4666 
L 2547 4666 
L 4325 0 
L 3669 0 
L 3244 1197 
L 1141 1197 
L 716 0 
L 50 0 
L 1831 4666 
z
" transform="scale(0.015625)"/>
      </defs>
      <use xlink:href="#DejaVuSans-65"/>
      <use xlink:href="#DejaVuSans-6e" x="61.523438"/>
      <use xlink:href="#DejaVuSans-65" x="124.902344"/>
      <use xlink:href="#DejaVuSans-6d" x="186.425781"/>
      <use xlink:href="#DejaVuSans-79" x="283.837891"/>
      <use xlink:href="#DejaVuSans-41" x="343.017578"/>
     </g>
    </g>
    <g id="line2d_20">
     <path d="M 336.555938 263.648062 
L 346.555938 263.648062 
L 356.555938 263.648062 
" style="fill: none; stroke: #ff7f0e; stroke-width: 1.5; stroke-linecap: square"/>
    </g>
    <g id="text_17">
     <!-- enemyB -->
     <g transform="translate(364.555938 267.148062) scale(0.1 -0.1)">
      <defs>
       <path id="DejaVuSans-42" d="M 1259 2228 
L 1259 519 
L 2272 519 
Q 2781 519 3026 730 
Q 3272 941 3272 1375 
Q 3272 1813 3026 2020 
Q 2781 2228 2272 2228 
L 1259 2228 
z
M 1259 4147 
L 1259 2741 
L 2194 2741 
Q 2656 2741 2882 2914 
Q 3109 3088 3109 3444 
Q 3109 3797 2882 3972 
Q 2656 4147 2194 4147 
L 1259 4147 
z
M 628 4666 
L 2241 4666 
Q 2963 4666 3353 4366 
Q 3744 4066 3744 3513 
Q 3744 3084 3544 2831 
Q 3344 2578 2956 2516 
Q 3422 2416 3680 2098 
Q 3938 1781 3938 1306 
Q 3938 681 3513 340 
Q 3088 0 2303 0 
L 628 0 
L 628 4666 
z
" transform="scale(0.015625)"/>
      </defs>
      <use xlink:href="#DejaVuSans-65"/>
      <use xlink:href="#DejaVuSans-6e" x="61.523438"/>
      <use xlink:href="#DejaVuSans-65" x="124.902344"/>
      <use xlink:href="#DejaVuSans-6d" x="186.425781"/>
      <use xlink:href="#DejaVuSans-79" x="283.837891"/>
      <use xlink:href="#DejaVuSans-42" x="343.017578"/>
     </g>
    </g>
    <g id="line2d_21">
     <path d="M 336.555938 278.326187 
L 346.555938 278.326187 
L 356.555938 278.326187 
" style="fill: none; stroke-dasharray: 5.55,2.4; stroke-dashoffset: 0; stroke: #2ca02c; stroke-width: 1.5"/>
    </g>
    <g id="text_18">
     <!-- enemyA -->
     <g transform="translate(364.555938 281.826187) scale(0.1 -0.1)">
      <use xlink:href="#DejaVuSans-65"/>
      <use xlink:href="#DejaVuSans-6e" x="61.523438"/>
      <use xlink:href="#DejaVuSans-65" x="124.902344"/>
      <use xlink:href="#DejaVuSans-6d" x="186.425781"/>
      <use xlink:href="#DejaVuSans-79" x="283.837891"/>
      <use xlink:href="#DejaVuSans-41" x="343.017578"/>
     </g>
    </g>
    <g id="line2d_22">
     <path d="M 336.555938 293.004312 
L 346.555938 293.004312 
L 356.555938 293.004312 
" style="fill: none; stroke-dasharray: 5.55,2.4; stroke-dashoffset: 0; stroke: #d62728; stroke-width: 1.5"/>
    </g>
    <g id="text_19">
     <!-- enemyB -->
     <g transform="translate(364.555938 296.504312) scale(0.1 -0.1)">
      <use xlink:href="#DejaVuSans-65"/>
      <use xlink:href="#DejaVuSans-6e" x="61.523438"/>
      <use xlink:href="#DejaVuSans-65" x="124.902344"/>
      <use xlink:href="#DejaVuSans-6d" x="186.425781"/>
      <use xlink:href="#DejaVuSans-79" x="283.837891"/>
      <use xlink:href="#DejaVuSans-42" x="343.017578"/>
     </g>
    </g>
   </g>
  </g>
 </g>
 <defs>
  <clipPath id="pef295bd699">
   <rect x="57.6" y="41.472" width="357.12" height="266.112"/>
  </clipPath>
 </defs>
</svg>
