<?xml version="1.0" encoding="utf-8" standalone="no"?>
<!DOCTYPE svg PUBLIC "-//W3C//DTD SVG 1.1//EN"
  "http://www.w3.org/Graphics/SVG/1.1/DTD/svg11.dtd">
<svg xmlns:xlink="http://www.w3.org/1999/xlink" width="460.8pt" height="345.6pt" viewBox="0 0 460.8 345.6" xmlns="http://www.w3.org/2000/svg" version="1.1">
 <metadata>
  <rdf:RDF xmlns:dc="http://purl.org/dc/elements/1.1/" xmlns:cc="http://creativecommons.org/ns#" xmlns:rdf="http://www.w3.org/1999/02/22-rdf-syntax-ns#">
   <cc:Work>
    <dc:type rdf:resource="http://purl.org/dc/dcmitype/StillImage"/>
    <dc:date>2022-10-13T09:29:06.292443</dc:date>
    <dc:format>image/svg+xml</dc:format>
    <dc:creator>
     <cc:Agent>
      <dc:title>Matplotlib v3.5.3, https://matplotlib.org/</dc:title>
     </cc:Agent>
    </dc:creator>
   </cc:Work>
  </rdf:RDF>
 </metadata>
 <defs>
  <style type="text/css">*{stroke-linejoin: round; stroke-linecap: butt}</style>
 </defs>
 <g id="figure_1">
  <g id="patch_1">
   <path d="M 0 345.6 
L 460.8 345.6 
L 460.8 0 
L 0 0 
z
" style="fill: #ffffff"/>
  </g>
  <g id="axes_1">
   <g id="patch_2">
    <path d="M 57.6 307.584 
L 414.72 307.584 
L 414.72 41.472 
L 57.6 41.472 
z
" style="fill: #ffffff"/>
   </g>
   <g id="PolyCollection_1">
    <path d="M 73.832727 251.452063 
L 73.832727 272.985225 
L 80.45833 271.474257 
L 87.083933 263.150813 
L 93.709536 263.522581 
L 100.335139 272.883872 
L 106.960742 269.977617 
L 113.586345 273.040157 
L 120.211948 272.700488 
L 126.837551 268.324265 
L 133.463154 264.022591 
L 140.088757 259.595589 
L 146.71436 257.964458 
L 153.339963 256.241724 
L 159.965566 257.317862 
L 166.591169 254.12733 
L 173.216772 247.648814 
L 179.842375 243.778848 
L 186.467978 243.269536 
L 193.093581 250.315525 
L 199.719184 244.145857 
L 206.344787 244.506179 
L 212.97039 238.065049 
L 219.595993 234.206253 
L 226.221596 229.650766 
L 232.847199 229.41905 
L 239.472801 232.923678 
L 246.098404 231.861903 
L 252.724007 227.732219 
L 259.34961 215.689599 
L 265.975213 227.34819 
L 272.600816 227.344856 
L 279.226419 234.338652 
L 285.852022 222.674665 
L 292.477625 225.130653 
L 299.103228 228.807878 
L 305.728831 210.395123 
L 312.354434 201.867285 
L 318.980037 203.164101 
L 325.60564 200.47843 
L 332.231243 203.190697 
L 338.856846 203.937536 
L 345.482449 213.048607 
L 352.108052 215.331249 
L 358.733655 208.99265 
L 365.359258 204.746793 
L 371.984861 201.713435 
L 378.610464 200.717596 
L 385.236067 200.717596 
L 391.86167 190.449747 
L 398.487273 194.946674 
L 398.487273 89.45693 
L 398.487273 89.45693 
L 391.86167 89.542038 
L 385.236067 92.413344 
L 378.610464 92.413344 
L 371.984861 92.251636 
L 365.359258 90.76935 
L 358.733655 90.980885 
L 352.108052 91.646146 
L 345.482449 89.048962 
L 338.856846 83.29458 
L 332.231243 84.015031 
L 325.60564 81.907344 
L 318.980037 84.662912 
L 312.354434 81.893924 
L 305.728831 89.345699 
L 299.103228 90.434805 
L 292.477625 87.136698 
L 285.852022 91.912413 
L 279.226419 100.514576 
L 272.600816 97.725348 
L 265.975213 97.72885 
L 259.34961 99.696938 
L 252.724007 102.561743 
L 246.098404 106.677274 
L 239.472801 106.501269 
L 232.847199 105.589113 
L 226.221596 107.830786 
L 219.595993 108.683746 
L 212.97039 113.48215 
L 206.344787 118.412974 
L 199.719184 121.119626 
L 193.093581 125.507678 
L 186.467978 123.754608 
L 179.842375 128.472249 
L 173.216772 138.416536 
L 166.591169 148.569012 
L 159.965566 152.413399 
L 153.339963 154.294748 
L 146.71436 154.208602 
L 140.088757 166.340085 
L 133.463154 174.148517 
L 126.837551 178.654679 
L 120.211948 182.760603 
L 113.586345 198.765064 
L 106.960742 216.160566 
L 100.335139 233.394932 
L 93.709536 227.260396 
L 87.083933 227.615308 
L 80.45833 239.884999 
L 73.832727 251.452063 
z
" clip-path="url(#p3fd76ec000)" style="fill: #1f77b4; fill-opacity: 0.3"/>
   </g>
   <g id="PolyCollection_2">
    <path d="M 73.832727 188.059393 
L 73.832727 295.488 
L 80.45833 289.411266 
L 87.083933 269.63952 
L 93.709536 248.144247 
L 100.335139 194.147879 
L 106.960742 207.473482 
L 113.586345 208.998366 
L 120.211948 213.737881 
L 126.837551 205.823186 
L 133.463154 204.549728 
L 140.088757 208.983075 
L 146.71436 201.540126 
L 153.339963 184.162792 
L 159.965566 171.99042 
L 166.591169 166.487813 
L 173.216772 182.800458 
L 179.842375 181.753501 
L 186.467978 174.281915 
L 193.093581 171.413667 
L 199.719184 176.471565 
L 206.344787 176.46878 
L 212.97039 174.771062 
L 219.595993 191.855668 
L 226.221596 184.570669 
L 232.847199 183.461865 
L 239.472801 183.445127 
L 246.098404 183.469747 
L 252.724007 184.276194 
L 259.34961 185.08128 
L 265.975213 182.523105 
L 272.600816 182.519515 
L 279.226419 171.720037 
L 285.852022 166.323791 
L 292.477625 169.207596 
L 299.103228 161.473635 
L 305.728831 160.525266 
L 312.354434 172.975082 
L 318.980037 168.843377 
L 325.60564 170.340504 
L 332.231243 160.576882 
L 338.856846 160.647067 
L 345.482449 147.380199 
L 352.108052 147.608845 
L 358.733655 153.954315 
L 365.359258 149.467219 
L 371.984861 140.623163 
L 378.610464 140.610669 
L 385.236067 140.610669 
L 391.86167 150.83165 
L 398.487273 150.750113 
L 398.487273 55.067642 
L 398.487273 55.067642 
L 391.86167 55.321462 
L 385.236067 57.097513 
L 378.610464 57.097513 
L 371.984861 57.138447 
L 365.359258 58.049384 
L 358.733655 57.12195 
L 352.108052 56.92613 
L 345.482449 59.486435 
L 338.856846 60.475391 
L 332.231243 60.278937 
L 325.60564 62.720022 
L 318.980037 61.023434 
L 312.354434 62.836029 
L 305.728831 61.456995 
L 299.103228 60.854765 
L 292.477625 61.666527 
L 285.852022 56.284062 
L 279.226419 53.568 
L 272.600816 55.787067 
L 265.975213 55.801065 
L 259.34961 61.233275 
L 252.724007 59.683549 
L 246.098404 58.251458 
L 239.472801 58.135368 
L 232.847199 58.209123 
L 226.221596 57.950368 
L 219.595993 59.207718 
L 212.97039 58.190718 
L 206.344787 56.043149 
L 199.719184 56.237505 
L 193.093581 54.926205 
L 186.467978 58.864358 
L 179.842375 63.801655 
L 173.216772 65.569427 
L 166.591169 62.089074 
L 159.965566 62.674139 
L 153.339963 65.408348 
L 146.71436 68.248701 
L 140.088757 70.535102 
L 133.463154 70.830043 
L 126.837551 69.143403 
L 120.211948 73.752989 
L 113.586345 72.627796 
L 106.960742 69.208314 
L 100.335139 63.406748 
L 93.709536 91.57182 
L 87.083933 128.139704 
L 80.45833 166.251364 
L 73.832727 188.059393 
z
" clip-path="url(#p3fd76ec000)" style="fill: #ff7f0e; fill-opacity: 0.3"/>
   </g>
   <g id="matplotlib.axis_1">
    <g id="xtick_1">
     <g id="line2d_1">
      <defs>
       <path id="m44662d0a28" d="M 0 0 
L 0 3.5 
" style="stroke: #000000; stroke-width: 0.8"/>
      </defs>
      <g>
       <use xlink:href="#m44662d0a28" x="73.832727" y="307.584" style="stroke: #000000; stroke-width: 0.8"/>
      </g>
     </g>
     <g id="text_1">
      <!-- 0 -->
      <g transform="translate(70.651477 322.182437)scale(0.1 -0.1)">
       <defs>
        <path id="DejaVuSans-30" d="M 2034 4250 
Q 1547 4250 1301 3770 
Q 1056 3291 1056 2328 
Q 1056 1369 1301 889 
Q 1547 409 2034 409 
Q 2525 409 2770 889 
Q 3016 1369 3016 2328 
Q 3016 3291 2770 3770 
Q 2525 4250 2034 4250 
z
M 2034 4750 
Q 2819 4750 3233 4129 
Q 3647 3509 3647 2328 
Q 3647 1150 3233 529 
Q 2819 -91 2034 -91 
Q 1250 -91 836 529 
Q 422 1150 422 2328 
Q 422 3509 836 4129 
Q 1250 4750 2034 4750 
z
" transform="scale(0.015625)"/>
       </defs>
       <use xlink:href="#DejaVuSans-30"/>
      </g>
     </g>
    </g>
    <g id="xtick_2">
     <g id="line2d_2">
      <g>
       <use xlink:href="#m44662d0a28" x="140.088757" y="307.584" style="stroke: #000000; stroke-width: 0.8"/>
      </g>
     </g>
     <g id="text_2">
      <!-- 10 -->
      <g transform="translate(133.726257 322.182437)scale(0.1 -0.1)">
       <defs>
        <path id="DejaVuSans-31" d="M 794 531 
L 1825 531 
L 1825 4091 
L 703 3866 
L 703 4441 
L 1819 4666 
L 2450 4666 
L 2450 531 
L 3481 531 
L 3481 0 
L 794 0 
L 794 531 
z
" transform="scale(0.015625)"/>
       </defs>
       <use xlink:href="#DejaVuSans-31"/>
       <use xlink:href="#DejaVuSans-30" x="63.623047"/>
      </g>
     </g>
    </g>
    <g id="xtick_3">
     <g id="line2d_3">
      <g>
       <use xlink:href="#m44662d0a28" x="206.344787" y="307.584" style="stroke: #000000; stroke-width: 0.8"/>
      </g>
     </g>
     <g id="text_3">
      <!-- 20 -->
      <g transform="translate(199.982287 322.182437)scale(0.1 -0.1)">
       <defs>
        <path id="DejaVuSans-32" d="M 1228 531 
L 3431 531 
L 3431 0 
L 469 0 
L 469 531 
Q 828 903 1448 1529 
Q 2069 2156 2228 2338 
Q 2531 2678 2651 2914 
Q 2772 3150 2772 3378 
Q 2772 3750 2511 3984 
Q 2250 4219 1831 4219 
Q 1534 4219 1204 4116 
Q 875 4013 500 3803 
L 500 4441 
Q 881 4594 1212 4672 
Q 1544 4750 1819 4750 
Q 2544 4750 2975 4387 
Q 3406 4025 3406 3419 
Q 3406 3131 3298 2873 
Q 3191 2616 2906 2266 
Q 2828 2175 2409 1742 
Q 1991 1309 1228 531 
z
" transform="scale(0.015625)"/>
       </defs>
       <use xlink:href="#DejaVuSans-32"/>
       <use xlink:href="#DejaVuSans-30" x="63.623047"/>
      </g>
     </g>
    </g>
    <g id="xtick_4">
     <g id="line2d_4">
      <g>
       <use xlink:href="#m44662d0a28" x="272.600816" y="307.584" style="stroke: #000000; stroke-width: 0.8"/>
      </g>
     </g>
     <g id="text_4">
      <!-- 30 -->
      <g transform="translate(266.238316 322.182437)scale(0.1 -0.1)">
       <defs>
        <path id="DejaVuSans-33" d="M 2597 2516 
Q 3050 2419 3304 2112 
Q 3559 1806 3559 1356 
Q 3559 666 3084 287 
Q 2609 -91 1734 -91 
Q 1441 -91 1130 -33 
Q 819 25 488 141 
L 488 750 
Q 750 597 1062 519 
Q 1375 441 1716 441 
Q 2309 441 2620 675 
Q 2931 909 2931 1356 
Q 2931 1769 2642 2001 
Q 2353 2234 1838 2234 
L 1294 2234 
L 1294 2753 
L 1863 2753 
Q 2328 2753 2575 2939 
Q 2822 3125 2822 3475 
Q 2822 3834 2567 4026 
Q 2313 4219 1838 4219 
Q 1578 4219 1281 4162 
Q 984 4106 628 3988 
L 628 4550 
Q 988 4650 1302 4700 
Q 1616 4750 1894 4750 
Q 2613 4750 3031 4423 
Q 3450 4097 3450 3541 
Q 3450 3153 3228 2886 
Q 3006 2619 2597 2516 
z
" transform="scale(0.015625)"/>
       </defs>
       <use xlink:href="#DejaVuSans-33"/>
       <use xlink:href="#DejaVuSans-30" x="63.623047"/>
      </g>
     </g>
    </g>
    <g id="xtick_5">
     <g id="line2d_5">
      <g>
       <use xlink:href="#m44662d0a28" x="338.856846" y="307.584" style="stroke: #000000; stroke-width: 0.8"/>
      </g>
     </g>
     <g id="text_5">
      <!-- 40 -->
      <g transform="translate(332.494346 322.182437)scale(0.1 -0.1)">
       <defs>
        <path id="DejaVuSans-34" d="M 2419 4116 
L 825 1625 
L 2419 1625 
L 2419 4116 
z
M 2253 4666 
L 3047 4666 
L 3047 1625 
L 3713 1625 
L 3713 1100 
L 3047 1100 
L 3047 0 
L 2419 0 
L 2419 1100 
L 313 1100 
L 313 1709 
L 2253 4666 
z
" transform="scale(0.015625)"/>
       </defs>
       <use xlink:href="#DejaVuSans-34"/>
       <use xlink:href="#DejaVuSans-30" x="63.623047"/>
      </g>
     </g>
    </g>
    <g id="xtick_6">
     <g id="line2d_6">
      <g>
       <use xlink:href="#m44662d0a28" x="405.112876" y="307.584" style="stroke: #000000; stroke-width: 0.8"/>
      </g>
     </g>
     <g id="text_6">
      <!-- 50 -->
      <g transform="translate(398.750376 322.182437)scale(0.1 -0.1)">
       <defs>
        <path id="DejaVuSans-35" d="M 691 4666 
L 3169 4666 
L 3169 4134 
L 1269 4134 
L 1269 2991 
Q 1406 3038 1543 3061 
Q 1681 3084 1819 3084 
Q 2600 3084 3056 2656 
Q 3513 2228 3513 1497 
Q 3513 744 3044 326 
Q 2575 -91 1722 -91 
Q 1428 -91 1123 -41 
Q 819 9 494 109 
L 494 744 
Q 775 591 1075 516 
Q 1375 441 1709 441 
Q 2250 441 2565 725 
Q 2881 1009 2881 1497 
Q 2881 1984 2565 2268 
Q 2250 2553 1709 2553 
Q 1456 2553 1204 2497 
Q 953 2441 691 2322 
L 691 4666 
z
" transform="scale(0.015625)"/>
       </defs>
       <use xlink:href="#DejaVuSans-35"/>
       <use xlink:href="#DejaVuSans-30" x="63.623047"/>
      </g>
     </g>
    </g>
   </g>
   <g id="matplotlib.axis_2">
    <g id="ytick_1">
     <g id="line2d_7">
      <defs>
       <path id="m7bd26a52c1" d="M 0 0 
L -3.5 0 
" style="stroke: #000000; stroke-width: 0.8"/>
      </defs>
      <g>
       <use xlink:href="#m7bd26a52c1" x="57.6" y="294.504924" style="stroke: #000000; stroke-width: 0.8"/>
      </g>
     </g>
     <g id="text_7">
      <!-- −20 -->
      <g transform="translate(29.495313 298.304142)scale(0.1 -0.1)">
       <defs>
        <path id="DejaVuSans-2212" d="M 678 2272 
L 4684 2272 
L 4684 1741 
L 678 1741 
L 678 2272 
z
" transform="scale(0.015625)"/>
       </defs>
       <use xlink:href="#DejaVuSans-2212"/>
       <use xlink:href="#DejaVuSans-32" x="83.789062"/>
       <use xlink:href="#DejaVuSans-30" x="147.412109"/>
      </g>
     </g>
    </g>
    <g id="ytick_2">
     <g id="line2d_8">
      <g>
       <use xlink:href="#m7bd26a52c1" x="57.6" y="255.418815" style="stroke: #000000; stroke-width: 0.8"/>
      </g>
     </g>
     <g id="text_8">
      <!-- 0 -->
      <g transform="translate(44.2375 259.218033)scale(0.1 -0.1)">
       <use xlink:href="#DejaVuSans-30"/>
      </g>
     </g>
    </g>
    <g id="ytick_3">
     <g id="line2d_9">
      <g>
       <use xlink:href="#m7bd26a52c1" x="57.6" y="216.332706" style="stroke: #000000; stroke-width: 0.8"/>
      </g>
     </g>
     <g id="text_9">
      <!-- 20 -->
      <g transform="translate(37.875 220.131924)scale(0.1 -0.1)">
       <use xlink:href="#DejaVuSans-32"/>
       <use xlink:href="#DejaVuSans-30" x="63.623047"/>
      </g>
     </g>
    </g>
    <g id="ytick_4">
     <g id="line2d_10">
      <g>
       <use xlink:href="#m7bd26a52c1" x="57.6" y="177.246597" style="stroke: #000000; stroke-width: 0.8"/>
      </g>
     </g>
     <g id="text_10">
      <!-- 40 -->
      <g transform="translate(37.875 181.045815)scale(0.1 -0.1)">
       <use xlink:href="#DejaVuSans-34"/>
       <use xlink:href="#DejaVuSans-30" x="63.623047"/>
      </g>
     </g>
    </g>
    <g id="ytick_5">
     <g id="line2d_11">
      <g>
       <use xlink:href="#m7bd26a52c1" x="57.6" y="138.160488" style="stroke: #000000; stroke-width: 0.8"/>
      </g>
     </g>
     <g id="text_11">
      <!-- 60 -->
      <g transform="translate(37.875 141.959706)scale(0.1 -0.1)">
       <defs>
        <path id="DejaVuSans-36" d="M 2113 2584 
Q 1688 2584 1439 2293 
Q 1191 2003 1191 1497 
Q 1191 994 1439 701 
Q 1688 409 2113 409 
Q 2538 409 2786 701 
Q 3034 994 3034 1497 
Q 3034 2003 2786 2293 
Q 2538 2584 2113 2584 
z
M 3366 4563 
L 3366 3988 
Q 3128 4100 2886 4159 
Q 2644 4219 2406 4219 
Q 1781 4219 1451 3797 
Q 1122 3375 1075 2522 
Q 1259 2794 1537 2939 
Q 1816 3084 2150 3084 
Q 2853 3084 3261 2657 
Q 3669 2231 3669 1497 
Q 3669 778 3244 343 
Q 2819 -91 2113 -91 
Q 1303 -91 875 529 
Q 447 1150 447 2328 
Q 447 3434 972 4092 
Q 1497 4750 2381 4750 
Q 2619 4750 2861 4703 
Q 3103 4656 3366 4563 
z
" transform="scale(0.015625)"/>
       </defs>
       <use xlink:href="#DejaVuSans-36"/>
       <use xlink:href="#DejaVuSans-30" x="63.623047"/>
      </g>
     </g>
    </g>
    <g id="ytick_6">
     <g id="line2d_12">
      <g>
       <use xlink:href="#m7bd26a52c1" x="57.6" y="99.074379" style="stroke: #000000; stroke-width: 0.8"/>
      </g>
     </g>
     <g id="text_12">
      <!-- 80 -->
      <g transform="translate(37.875 102.873597)scale(0.1 -0.1)">
       <defs>
        <path id="DejaVuSans-38" d="M 2034 2216 
Q 1584 2216 1326 1975 
Q 1069 1734 1069 1313 
Q 1069 891 1326 650 
Q 1584 409 2034 409 
Q 2484 409 2743 651 
Q 3003 894 3003 1313 
Q 3003 1734 2745 1975 
Q 2488 2216 2034 2216 
z
M 1403 2484 
Q 997 2584 770 2862 
Q 544 3141 544 3541 
Q 544 4100 942 4425 
Q 1341 4750 2034 4750 
Q 2731 4750 3128 4425 
Q 3525 4100 3525 3541 
Q 3525 3141 3298 2862 
Q 3072 2584 2669 2484 
Q 3125 2378 3379 2068 
Q 3634 1759 3634 1313 
Q 3634 634 3220 271 
Q 2806 -91 2034 -91 
Q 1263 -91 848 271 
Q 434 634 434 1313 
Q 434 1759 690 2068 
Q 947 2378 1403 2484 
z
M 1172 3481 
Q 1172 3119 1398 2916 
Q 1625 2713 2034 2713 
Q 2441 2713 2670 2916 
Q 2900 3119 2900 3481 
Q 2900 3844 2670 4047 
Q 2441 4250 2034 4250 
Q 1625 4250 1398 4047 
Q 1172 3844 1172 3481 
z
" transform="scale(0.015625)"/>
       </defs>
       <use xlink:href="#DejaVuSans-38"/>
       <use xlink:href="#DejaVuSans-30" x="63.623047"/>
      </g>
     </g>
    </g>
    <g id="ytick_7">
     <g id="line2d_13">
      <g>
       <use xlink:href="#m7bd26a52c1" x="57.6" y="59.988269" style="stroke: #000000; stroke-width: 0.8"/>
      </g>
     </g>
     <g id="text_13">
      <!-- 100 -->
      <g transform="translate(31.5125 63.787488)scale(0.1 -0.1)">
       <use xlink:href="#DejaVuSans-31"/>
       <use xlink:href="#DejaVuSans-30" x="63.623047"/>
       <use xlink:href="#DejaVuSans-30" x="127.246094"/>
      </g>
     </g>
    </g>
   </g>
   <g id="line2d_14">
    <path d="M 73.832727 262.218644 
L 80.45833 255.679628 
L 87.083933 245.383061 
L 93.709536 245.391488 
L 100.335139 253.139402 
L 106.960742 243.069091 
L 113.586345 235.902611 
L 120.211948 227.730545 
L 126.837551 223.489472 
L 133.463154 219.085554 
L 140.088757 212.967837 
L 146.71436 206.08653 
L 153.339963 205.268236 
L 159.965566 204.865631 
L 166.591169 201.348171 
L 173.216772 193.032675 
L 179.842375 186.125549 
L 186.467978 183.512072 
L 193.093581 187.911602 
L 199.719184 182.632741 
L 206.344787 181.459577 
L 212.97039 175.7736 
L 219.595993 171.444999 
L 226.221596 168.740776 
L 232.847199 167.504082 
L 239.472801 169.712473 
L 246.098404 169.269589 
L 252.724007 165.146981 
L 259.34961 157.693269 
L 265.975213 162.53852 
L 272.600816 162.535102 
L 279.226419 167.426614 
L 285.852022 157.293539 
L 292.477625 156.133676 
L 299.103228 159.621342 
L 305.728831 149.870411 
L 312.354434 141.880604 
L 318.980037 143.913506 
L 325.60564 141.192887 
L 332.231243 143.602864 
L 338.856846 143.616058 
L 345.482449 151.048784 
L 352.108052 153.488698 
L 358.733655 149.986767 
L 365.359258 147.758071 
L 371.984861 146.982536 
L 378.610464 146.56547 
L 385.236067 146.56547 
L 391.86167 139.995892 
L 398.487273 142.201802 
" clip-path="url(#p3fd76ec000)" style="fill: none; stroke: #1f77b4; stroke-width: 1.5; stroke-linecap: square"/>
   </g>
   <g id="line2d_15">
    <path d="M 73.832727 241.773697 
L 80.45833 227.831315 
L 87.083933 198.889612 
L 93.709536 169.858034 
L 100.335139 128.777313 
L 106.960742 138.340898 
L 113.586345 140.813081 
L 120.211948 143.745435 
L 126.837551 137.483294 
L 133.463154 137.689886 
L 140.088757 139.759089 
L 146.71436 134.894413 
L 153.339963 124.78557 
L 159.965566 117.332279 
L 166.591169 114.288444 
L 173.216772 124.184942 
L 179.842375 122.777578 
L 186.467978 116.573137 
L 193.093581 113.169936 
L 199.719184 116.354535 
L 206.344787 116.255965 
L 212.97039 116.48089 
L 219.595993 125.531693 
L 226.221596 121.260519 
L 232.847199 120.835494 
L 239.472801 120.790247 
L 246.098404 120.860602 
L 252.724007 121.979872 
L 259.34961 123.157277 
L 265.975213 119.162085 
L 272.600816 119.153291 
L 279.226419 112.644019 
L 285.852022 111.303926 
L 292.477625 115.437061 
L 299.103228 111.1642 
L 305.728831 110.99113 
L 312.354434 117.905556 
L 318.980037 114.933406 
L 325.60564 116.530263 
L 332.231243 110.42791 
L 338.856846 110.561229 
L 345.482449 103.433317 
L 352.108052 102.267488 
L 358.733655 105.538132 
L 365.359258 103.758301 
L 371.984861 98.880805 
L 378.610464 98.854091 
L 385.236067 98.854091 
L 391.86167 103.076556 
L 398.487273 102.908877 
" clip-path="url(#p3fd76ec000)" style="fill: none; stroke: #ff7f0e; stroke-width: 1.5; stroke-linecap: square"/>
   </g>
   <g id="line2d_16">
    <path d="M 73.832727 229.994146 
L 80.45833 229.994146 
L 87.083933 229.994146 
L 93.709536 212.987457 
L 100.335139 195.782787 
L 106.960742 144.973511 
L 113.586345 82.85643 
L 120.211948 80.394843 
L 126.837551 80.394843 
L 133.463154 80.394843 
L 140.088757 80.394843 
L 146.71436 80.394843 
L 153.339963 80.394843 
L 159.965566 80.394843 
L 166.591169 80.394843 
L 173.216772 80.394843 
L 179.842375 79.129834 
L 186.467978 79.129834 
L 193.093581 79.129834 
L 199.719184 79.129834 
L 206.344787 79.129834 
L 212.97039 79.129834 
L 219.595993 79.129834 
L 226.221596 79.129834 
L 232.847199 79.129834 
L 239.472801 79.129834 
L 246.098404 79.129834 
L 252.724007 79.129834 
L 259.34961 79.129834 
L 265.975213 79.129834 
L 272.600816 79.129834 
L 279.226419 79.129834 
L 285.852022 79.129834 
L 292.477625 79.129834 
L 299.103228 79.129834 
L 305.728831 79.129834 
L 312.354434 79.129834 
L 318.980037 79.129834 
L 325.60564 79.129834 
L 332.231243 78.547009 
L 338.856846 78.547009 
L 345.482449 78.547009 
L 352.108052 78.547009 
L 358.733655 78.547009 
L 365.359258 78.547009 
L 371.984861 78.547009 
L 378.610464 78.547009 
L 385.236067 78.547009 
L 391.86167 78.547009 
L 398.487273 78.547009 
" clip-path="url(#p3fd76ec000)" style="fill: none; stroke-dasharray: 5.55,2.4; stroke-dashoffset: 0; stroke: #2ca02c; stroke-width: 1.5"/>
   </g>
   <g id="line2d_17">
    <path d="M 73.832727 80.069458 
L 80.45833 80.069458 
L 87.083933 80.069458 
L 93.709536 80.069458 
L 100.335139 80.069458 
L 106.960742 80.069458 
L 113.586345 77.6678 
L 120.211948 77.6678 
L 126.837551 77.6678 
L 133.463154 77.6678 
L 140.088757 77.6678 
L 146.71436 77.433283 
L 153.339963 77.433283 
L 159.965566 77.433283 
L 166.591169 76.359039 
L 173.216772 76.359039 
L 179.842375 76.359039 
L 186.467978 76.359039 
L 193.093581 76.359039 
L 199.719184 76.359039 
L 206.344787 76.359039 
L 212.97039 76.359039 
L 219.595993 76.359039 
L 226.221596 76.359039 
L 232.847199 76.359039 
L 239.472801 76.359039 
L 246.098404 76.359039 
L 252.724007 76.359039 
L 259.34961 76.323179 
L 265.975213 76.323179 
L 272.600816 76.323179 
L 279.226419 75.258019 
L 285.852022 75.258019 
L 292.477625 75.258019 
L 299.103228 75.258019 
L 305.728831 75.258019 
L 312.354434 75.258019 
L 318.980037 75.258019 
L 325.60564 75.258019 
L 332.231243 75.258019 
L 338.856846 75.258019 
L 345.482449 75.258019 
L 352.108052 75.258019 
L 358.733655 75.004727 
L 365.359258 75.004727 
L 371.984861 75.004727 
L 378.610464 75.004727 
L 385.236067 75.004727 
L 391.86167 74.42506 
L 398.487273 74.42506 
" clip-path="url(#p3fd76ec000)" style="fill: none; stroke-dasharray: 5.55,2.4; stroke-dashoffset: 0; stroke: #d62728; stroke-width: 1.5"/>
   </g>
   <g id="patch_3">
    <path d="M 57.6 307.584 
L 57.6 41.472 
" style="fill: none; stroke: #000000; stroke-width: 0.8; stroke-linejoin: miter; stroke-linecap: square"/>
   </g>
   <g id="patch_4">
    <path d="M 414.72 307.584 
L 414.72 41.472 
" style="fill: none; stroke: #000000; stroke-width: 0.8; stroke-linejoin: miter; stroke-linecap: square"/>
   </g>
   <g id="patch_5">
    <path d="M 57.6 307.584 
L 414.72 307.584 
" style="fill: none; stroke: #000000; stroke-width: 0.8; stroke-linejoin: miter; stroke-linecap: square"/>
   </g>
   <g id="patch_6">
    <path d="M 57.6 41.472 
L 414.72 41.472 
" style="fill: none; stroke: #000000; stroke-width: 0.8; stroke-linejoin: miter; stroke-linecap: square"/>
   </g>
   <g id="text_14">
    <!-- fitness on pymoo_6&amp;8_8 -->
    <g transform="translate(162.316875 35.472)scale(0.12 -0.12)">
     <defs>
      <path id="DejaVuSans-66" d="M 2375 4863 
L 2375 4384 
L 1825 4384 
Q 1516 4384 1395 4259 
Q 1275 4134 1275 3809 
L 1275 3500 
L 2222 3500 
L 2222 3053 
L 1275 3053 
L 1275 0 
L 697 0 
L 697 3053 
L 147 3053 
L 147 3500 
L 697 3500 
L 697 3744 
Q 697 4328 969 4595 
Q 1241 4863 1831 4863 
L 2375 4863 
z
" transform="scale(0.015625)"/>
      <path id="DejaVuSans-69" d="M 603 3500 
L 1178 3500 
L 1178 0 
L 603 0 
L 603 3500 
z
M 603 4863 
L 1178 4863 
L 1178 4134 
L 603 4134 
L 603 4863 
z
" transform="scale(0.015625)"/>
      <path id="DejaVuSans-74" d="M 1172 4494 
L 1172 3500 
L 2356 3500 
L 2356 3053 
L 1172 3053 
L 1172 1153 
Q 1172 725 1289 603 
Q 1406 481 1766 481 
L 2356 481 
L 2356 0 
L 1766 0 
Q 1100 0 847 248 
Q 594 497 594 1153 
L 594 3053 
L 172 3053 
L 172 3500 
L 594 3500 
L 594 4494 
L 1172 4494 
z
" transform="scale(0.015625)"/>
      <path id="DejaVuSans-6e" d="M 3513 2113 
L 3513 0 
L 2938 0 
L 2938 2094 
Q 2938 2591 2744 2837 
Q 2550 3084 2163 3084 
Q 1697 3084 1428 2787 
Q 1159 2491 1159 1978 
L 1159 0 
L 581 0 
L 581 3500 
L 1159 3500 
L 1159 2956 
Q 1366 3272 1645 3428 
Q 1925 3584 2291 3584 
Q 2894 3584 3203 3211 
Q 3513 2838 3513 2113 
z
" transform="scale(0.015625)"/>
      <path id="DejaVuSans-65" d="M 3597 1894 
L 3597 1613 
L 953 1613 
Q 991 1019 1311 708 
Q 1631 397 2203 397 
Q 2534 397 2845 478 
Q 3156 559 3463 722 
L 3463 178 
Q 3153 47 2828 -22 
Q 2503 -91 2169 -91 
Q 1331 -91 842 396 
Q 353 884 353 1716 
Q 353 2575 817 3079 
Q 1281 3584 2069 3584 
Q 2775 3584 3186 3129 
Q 3597 2675 3597 1894 
z
M 3022 2063 
Q 3016 2534 2758 2815 
Q 2500 3097 2075 3097 
Q 1594 3097 1305 2825 
Q 1016 2553 972 2059 
L 3022 2063 
z
" transform="scale(0.015625)"/>
      <path id="DejaVuSans-73" d="M 2834 3397 
L 2834 2853 
Q 2591 2978 2328 3040 
Q 2066 3103 1784 3103 
Q 1356 3103 1142 2972 
Q 928 2841 928 2578 
Q 928 2378 1081 2264 
Q 1234 2150 1697 2047 
L 1894 2003 
Q 2506 1872 2764 1633 
Q 3022 1394 3022 966 
Q 3022 478 2636 193 
Q 2250 -91 1575 -91 
Q 1294 -91 989 -36 
Q 684 19 347 128 
L 347 722 
Q 666 556 975 473 
Q 1284 391 1588 391 
Q 1994 391 2212 530 
Q 2431 669 2431 922 
Q 2431 1156 2273 1281 
Q 2116 1406 1581 1522 
L 1381 1569 
Q 847 1681 609 1914 
Q 372 2147 372 2553 
Q 372 3047 722 3315 
Q 1072 3584 1716 3584 
Q 2034 3584 2315 3537 
Q 2597 3491 2834 3397 
z
" transform="scale(0.015625)"/>
      <path id="DejaVuSans-20" transform="scale(0.015625)"/>
      <path id="DejaVuSans-6f" d="M 1959 3097 
Q 1497 3097 1228 2736 
Q 959 2375 959 1747 
Q 959 1119 1226 758 
Q 1494 397 1959 397 
Q 2419 397 2687 759 
Q 2956 1122 2956 1747 
Q 2956 2369 2687 2733 
Q 2419 3097 1959 3097 
z
M 1959 3584 
Q 2709 3584 3137 3096 
Q 3566 2609 3566 1747 
Q 3566 888 3137 398 
Q 2709 -91 1959 -91 
Q 1206 -91 779 398 
Q 353 888 353 1747 
Q 353 2609 779 3096 
Q 1206 3584 1959 3584 
z
" transform="scale(0.015625)"/>
      <path id="DejaVuSans-70" d="M 1159 525 
L 1159 -1331 
L 581 -1331 
L 581 3500 
L 1159 3500 
L 1159 2969 
Q 1341 3281 1617 3432 
Q 1894 3584 2278 3584 
Q 2916 3584 3314 3078 
Q 3713 2572 3713 1747 
Q 3713 922 3314 415 
Q 2916 -91 2278 -91 
Q 1894 -91 1617 61 
Q 1341 213 1159 525 
z
M 3116 1747 
Q 3116 2381 2855 2742 
Q 2594 3103 2138 3103 
Q 1681 3103 1420 2742 
Q 1159 2381 1159 1747 
Q 1159 1113 1420 752 
Q 1681 391 2138 391 
Q 2594 391 2855 752 
Q 3116 1113 3116 1747 
z
" transform="scale(0.015625)"/>
      <path id="DejaVuSans-79" d="M 2059 -325 
Q 1816 -950 1584 -1140 
Q 1353 -1331 966 -1331 
L 506 -1331 
L 506 -850 
L 844 -850 
Q 1081 -850 1212 -737 
Q 1344 -625 1503 -206 
L 1606 56 
L 191 3500 
L 800 3500 
L 1894 763 
L 2988 3500 
L 3597 3500 
L 2059 -325 
z
" transform="scale(0.015625)"/>
      <path id="DejaVuSans-6d" d="M 3328 2828 
Q 3544 3216 3844 3400 
Q 4144 3584 4550 3584 
Q 5097 3584 5394 3201 
Q 5691 2819 5691 2113 
L 5691 0 
L 5113 0 
L 5113 2094 
Q 5113 2597 4934 2840 
Q 4756 3084 4391 3084 
Q 3944 3084 3684 2787 
Q 3425 2491 3425 1978 
L 3425 0 
L 2847 0 
L 2847 2094 
Q 2847 2600 2669 2842 
Q 2491 3084 2119 3084 
Q 1678 3084 1418 2786 
Q 1159 2488 1159 1978 
L 1159 0 
L 581 0 
L 581 3500 
L 1159 3500 
L 1159 2956 
Q 1356 3278 1631 3431 
Q 1906 3584 2284 3584 
Q 2666 3584 2933 3390 
Q 3200 3197 3328 2828 
z
" transform="scale(0.015625)"/>
      <path id="DejaVuSans-5f" d="M 3263 -1063 
L 3263 -1509 
L -63 -1509 
L -63 -1063 
L 3263 -1063 
z
" transform="scale(0.015625)"/>
      <path id="DejaVuSans-26" d="M 1556 2509 
Q 1272 2256 1139 2004 
Q 1006 1753 1006 1478 
Q 1006 1022 1337 719 
Q 1669 416 2169 416 
Q 2466 416 2725 514 
Q 2984 613 3213 813 
L 1556 2509 
z
M 1997 2859 
L 3584 1234 
Q 3769 1513 3872 1830 
Q 3975 2147 3994 2503 
L 4575 2503 
Q 4538 2091 4375 1687 
Q 4213 1284 3922 891 
L 4794 0 
L 4006 0 
L 3559 459 
Q 3234 181 2878 45 
Q 2522 -91 2113 -91 
Q 1359 -91 881 339 
Q 403 769 403 1441 
Q 403 1841 612 2192 
Q 822 2544 1241 2853 
Q 1091 3050 1012 3245 
Q 934 3441 934 3628 
Q 934 4134 1281 4442 
Q 1628 4750 2203 4750 
Q 2463 4750 2720 4694 
Q 2978 4638 3244 4525 
L 3244 3956 
Q 2972 4103 2725 4179 
Q 2478 4256 2266 4256 
Q 1938 4256 1733 4082 
Q 1528 3909 1528 3634 
Q 1528 3475 1620 3314 
Q 1713 3153 1997 2859 
z
" transform="scale(0.015625)"/>
     </defs>
     <use xlink:href="#DejaVuSans-66"/>
     <use xlink:href="#DejaVuSans-69" x="35.205078"/>
     <use xlink:href="#DejaVuSans-74" x="62.988281"/>
     <use xlink:href="#DejaVuSans-6e" x="102.197266"/>
     <use xlink:href="#DejaVuSans-65" x="165.576172"/>
     <use xlink:href="#DejaVuSans-73" x="227.099609"/>
     <use xlink:href="#DejaVuSans-73" x="279.199219"/>
     <use xlink:href="#DejaVuSans-20" x="331.298828"/>
     <use xlink:href="#DejaVuSans-6f" x="363.085938"/>
     <use xlink:href="#DejaVuSans-6e" x="424.267578"/>
     <use xlink:href="#DejaVuSans-20" x="487.646484"/>
     <use xlink:href="#DejaVuSans-70" x="519.433594"/>
     <use xlink:href="#DejaVuSans-79" x="582.910156"/>
     <use xlink:href="#DejaVuSans-6d" x="642.089844"/>
     <use xlink:href="#DejaVuSans-6f" x="739.501953"/>
     <use xlink:href="#DejaVuSans-6f" x="800.683594"/>
     <use xlink:href="#DejaVuSans-5f" x="861.865234"/>
     <use xlink:href="#DejaVuSans-36" x="911.865234"/>
     <use xlink:href="#DejaVuSans-26" x="975.488281"/>
     <use xlink:href="#DejaVuSans-38" x="1053.466797"/>
     <use xlink:href="#DejaVuSans-5f" x="1117.089844"/>
     <use xlink:href="#DejaVuSans-38" x="1167.089844"/>
    </g>
   </g>
   <g id="legend_1">
    <g id="patch_7">
     <path d="M 334.555938 302.584 
L 407.72 302.584 
Q 409.72 302.584 409.72 300.584 
L 409.72 242.8715 
Q 409.72 240.8715 407.72 240.8715 
L 334.555938 240.8715 
Q 332.555938 240.8715 332.555938 242.8715 
L 332.555938 300.584 
Q 332.555938 302.584 334.555938 302.584 
z
" style="fill: #ffffff; opacity: 0.8; stroke: #cccccc; stroke-linejoin: miter"/>
    </g>
    <g id="line2d_18">
     <path d="M 336.555938 248.969937 
L 346.555938 248.969937 
L 356.555938 248.969937 
" style="fill: none; stroke: #1f77b4; stroke-width: 1.5; stroke-linecap: square"/>
    </g>
    <g id="text_15">
     <!-- enemyA -->
     <g transform="translate(364.555938 252.469937)scale(0.1 -0.1)">
      <defs>
       <path id="DejaVuSans-41" d="M 2188 4044 
L 1331 1722 
L 3047 1722 
L 2188 4044 
z
M 1831 4666 
L 2547 4666 
L 4325 0 
L 3669 0 
L 3244 1197 
L 1141 1197 
L 716 0 
L 50 0 
L 1831 4666 
z
" transform="scale(0.015625)"/>
      </defs>
      <use xlink:href="#DejaVuSans-65"/>
      <use xlink:href="#DejaVuSans-6e" x="61.523438"/>
      <use xlink:href="#DejaVuSans-65" x="124.902344"/>
      <use xlink:href="#DejaVuSans-6d" x="186.425781"/>
      <use xlink:href="#DejaVuSans-79" x="283.837891"/>
      <use xlink:href="#DejaVuSans-41" x="343.017578"/>
     </g>
    </g>
    <g id="line2d_19">
     <path d="M 336.555938 263.648062 
L 346.555938 263.648062 
L 356.555938 263.648062 
" style="fill: none; stroke: #ff7f0e; stroke-width: 1.5; stroke-linecap: square"/>
    </g>
    <g id="text_16">
     <!-- enemyB -->
     <g transform="translate(364.555938 267.148062)scale(0.1 -0.1)">
      <defs>
       <path id="DejaVuSans-42" d="M 1259 2228 
L 1259 519 
L 2272 519 
Q 2781 519 3026 730 
Q 3272 941 3272 1375 
Q 3272 1813 3026 2020 
Q 2781 2228 2272 2228 
L 1259 2228 
z
M 1259 4147 
L 1259 2741 
L 2194 2741 
Q 2656 2741 2882 2914 
Q 3109 3088 3109 3444 
Q 3109 3797 2882 3972 
Q 2656 4147 2194 4147 
L 1259 4147 
z
M 628 4666 
L 2241 4666 
Q 2963 4666 3353 4366 
Q 3744 4066 3744 3513 
Q 3744 3084 3544 2831 
Q 3344 2578 2956 2516 
Q 3422 2416 3680 2098 
Q 3938 1781 3938 1306 
Q 3938 681 3513 340 
Q 3088 0 2303 0 
L 628 0 
L 628 4666 
z
" transform="scale(0.015625)"/>
      </defs>
      <use xlink:href="#DejaVuSans-65"/>
      <use xlink:href="#DejaVuSans-6e" x="61.523438"/>
      <use xlink:href="#DejaVuSans-65" x="124.902344"/>
      <use xlink:href="#DejaVuSans-6d" x="186.425781"/>
      <use xlink:href="#DejaVuSans-79" x="283.837891"/>
      <use xlink:href="#DejaVuSans-42" x="343.017578"/>
     </g>
    </g>
    <g id="line2d_20">
     <path d="M 336.555938 278.326187 
L 346.555938 278.326187 
L 356.555938 278.326187 
" style="fill: none; stroke-dasharray: 5.55,2.4; stroke-dashoffset: 0; stroke: #2ca02c; stroke-width: 1.5"/>
    </g>
    <g id="text_17">
     <!-- enemyA -->
     <g transform="translate(364.555938 281.826187)scale(0.1 -0.1)">
      <use xlink:href="#DejaVuSans-65"/>
      <use xlink:href="#DejaVuSans-6e" x="61.523438"/>
      <use xlink:href="#DejaVuSans-65" x="124.902344"/>
      <use xlink:href="#DejaVuSans-6d" x="186.425781"/>
      <use xlink:href="#DejaVuSans-79" x="283.837891"/>
      <use xlink:href="#DejaVuSans-41" x="343.017578"/>
     </g>
    </g>
    <g id="line2d_21">
     <path d="M 336.555938 293.004312 
L 346.555938 293.004312 
L 356.555938 293.004312 
" style="fill: none; stroke-dasharray: 5.55,2.4; stroke-dashoffset: 0; stroke: #d62728; stroke-width: 1.5"/>
    </g>
    <g id="text_18">
     <!-- enemyB -->
     <g transform="translate(364.555938 296.504312)scale(0.1 -0.1)">
      <use xlink:href="#DejaVuSans-65"/>
      <use xlink:href="#DejaVuSans-6e" x="61.523438"/>
      <use xlink:href="#DejaVuSans-65" x="124.902344"/>
      <use xlink:href="#DejaVuSans-6d" x="186.425781"/>
      <use xlink:href="#DejaVuSans-79" x="283.837891"/>
      <use xlink:href="#DejaVuSans-42" x="343.017578"/>
     </g>
    </g>
   </g>
  </g>
 </g>
 <defs>
  <clipPath id="p3fd76ec000">
   <rect x="57.6" y="41.472" width="357.12" height="266.112"/>
  </clipPath>
 </defs>
</svg>
