<?xml version="1.0" encoding="utf-8" standalone="no"?>
<!DOCTYPE svg PUBLIC "-//W3C//DTD SVG 1.1//EN"
  "http://www.w3.org/Graphics/SVG/1.1/DTD/svg11.dtd">
<svg xmlns:xlink="http://www.w3.org/1999/xlink" width="460.8pt" height="345.6pt" viewBox="0 0 460.8 345.6" xmlns="http://www.w3.org/2000/svg" version="1.1">
 <metadata>
  <rdf:RDF xmlns:dc="http://purl.org/dc/elements/1.1/" xmlns:cc="http://creativecommons.org/ns#" xmlns:rdf="http://www.w3.org/1999/02/22-rdf-syntax-ns#">
   <cc:Work>
    <dc:type rdf:resource="http://purl.org/dc/dcmitype/StillImage"/>
    <dc:date>2022-10-13T09:29:10.712670</dc:date>
    <dc:format>image/svg+xml</dc:format>
    <dc:creator>
     <cc:Agent>
      <dc:title>Matplotlib v3.5.3, https://matplotlib.org/</dc:title>
     </cc:Agent>
    </dc:creator>
   </cc:Work>
  </rdf:RDF>
 </metadata>
 <defs>
  <style type="text/css">*{stroke-linejoin: round; stroke-linecap: butt}</style>
 </defs>
 <g id="figure_1">
  <g id="patch_1">
   <path d="M 0 345.6 
L 460.8 345.6 
L 460.8 0 
L 0 0 
z
" style="fill: #ffffff"/>
  </g>
  <g id="axes_1">
   <g id="patch_2">
    <path d="M 57.6 307.584 
L 414.72 307.584 
L 414.72 41.472 
L 57.6 41.472 
z
" style="fill: #ffffff"/>
   </g>
   <g id="PolyCollection_1">
    <path d="M 73.832727 251.410133 
L 73.832727 270.027986 
L 80.45833 269.156204 
L 87.083933 265.897295 
L 93.709536 258.864348 
L 100.335139 260.686454 
L 106.960742 259.436904 
L 113.586345 255.076645 
L 120.211948 260.115912 
L 126.837551 259.562208 
L 133.463154 259.847064 
L 140.088757 261.582856 
L 146.71436 264.684176 
L 153.339963 263.462017 
L 159.965566 250.114174 
L 166.591169 252.66395 
L 173.216772 248.944612 
L 179.842375 245.695945 
L 186.467978 247.93557 
L 193.093581 244.644388 
L 199.719184 245.417341 
L 206.344787 248.384072 
L 212.97039 243.625146 
L 219.595993 238.632238 
L 226.221596 224.730305 
L 232.847199 223.252186 
L 239.472801 224.083686 
L 246.098404 215.146487 
L 252.724007 220.047794 
L 259.34961 215.613608 
L 265.975213 218.907348 
L 272.600816 216.281095 
L 279.226419 216.291244 
L 285.852022 220.682669 
L 292.477625 219.069786 
L 299.103228 221.903241 
L 305.728831 211.305596 
L 312.354434 214.273683 
L 318.980037 218.846472 
L 325.60564 228.061778 
L 332.231243 211.139667 
L 338.856846 210.773722 
L 345.482449 208.947951 
L 352.108052 214.238699 
L 358.733655 213.917583 
L 365.359258 213.671107 
L 371.984861 213.816708 
L 378.610464 213.739236 
L 385.236067 212.342042 
L 391.86167 212.342042 
L 398.487273 209.254457 
L 398.487273 95.524787 
L 398.487273 95.524787 
L 391.86167 98.379225 
L 385.236067 98.379225 
L 378.610464 100.427257 
L 371.984861 102.419734 
L 365.359258 103.534541 
L 358.733655 104.133999 
L 352.108052 106.450802 
L 345.482449 108.709699 
L 338.856846 109.405548 
L 332.231243 109.88689 
L 325.60564 117.703612 
L 318.980037 115.890037 
L 312.354434 117.105043 
L 305.728831 115.819278 
L 299.103228 122.573652 
L 292.477625 121.162102 
L 285.852022 124.660768 
L 279.226419 124.780697 
L 272.600816 124.763302 
L 265.975213 127.222774 
L 259.34961 125.398552 
L 252.724007 125.238625 
L 246.098404 125.930059 
L 239.472801 129.720957 
L 232.847199 129.714634 
L 226.221596 132.434093 
L 219.595993 136.213567 
L 212.97039 143.066222 
L 206.344787 144.228696 
L 199.719184 143.789087 
L 193.093581 147.147046 
L 186.467978 150.674684 
L 179.842375 152.921981 
L 173.216772 160.694695 
L 166.591169 162.020521 
L 159.965566 161.260394 
L 153.339963 170.83391 
L 146.71436 171.301224 
L 140.088757 170.130271 
L 133.463154 179.539759 
L 126.837551 189.937569 
L 120.211948 196.992866 
L 113.586345 205.95769 
L 106.960742 215.136442 
L 100.335139 219.136259 
L 93.709536 223.537823 
L 87.083933 234.175205 
L 80.45833 244.518423 
L 73.832727 251.410133 
z
" clip-path="url(#p1ffd5e9ca4)" style="fill: #1f77b4; fill-opacity: 0.3"/>
   </g>
   <g id="PolyCollection_2">
    <path d="M 73.832727 180.086637 
L 73.832727 295.488 
L 80.45833 285.891745 
L 87.083933 243.089023 
L 93.709536 252.329604 
L 100.335139 232.093415 
L 106.960742 224.704995 
L 113.586345 234.459801 
L 120.211948 200.638893 
L 126.837551 191.03974 
L 133.463154 181.59088 
L 140.088757 175.35128 
L 146.71436 176.181522 
L 153.339963 168.543706 
L 159.965566 172.963613 
L 166.591169 161.844321 
L 173.216772 166.101067 
L 179.842375 167.19123 
L 186.467978 146.133516 
L 193.093581 151.090686 
L 199.719184 150.95993 
L 206.344787 148.929878 
L 212.97039 136.350467 
L 219.595993 145.662027 
L 226.221596 152.50876 
L 232.847199 151.940785 
L 239.472801 142.677754 
L 246.098404 150.355612 
L 252.724007 149.085242 
L 259.34961 156.771985 
L 265.975213 148.899228 
L 272.600816 148.866335 
L 279.226419 148.307703 
L 285.852022 139.79083 
L 292.477625 139.608613 
L 299.103228 138.854007 
L 305.728831 148.991399 
L 312.354434 148.845691 
L 318.980037 156.306402 
L 325.60564 156.087999 
L 332.231243 140.244405 
L 338.856846 140.245777 
L 345.482449 140.16787 
L 352.108052 150.055032 
L 358.733655 157.549647 
L 365.359258 157.622562 
L 371.984861 146.489099 
L 378.610464 146.332767 
L 385.236067 151.448118 
L 391.86167 151.448118 
L 398.487273 155.108527 
L 398.487273 54.932935 
L 398.487273 54.932935 
L 391.86167 54.120298 
L 385.236067 54.120298 
L 378.610464 53.568 
L 371.984861 53.646045 
L 365.359258 54.434251 
L 358.733655 54.283748 
L 352.108052 54.603505 
L 345.482449 56.725852 
L 338.856846 56.936314 
L 332.231243 56.933763 
L 325.60564 54.830357 
L 318.980037 55.35025 
L 312.354434 56.317259 
L 305.728831 56.619329 
L 299.103228 58.737933 
L 292.477625 59.589123 
L 285.852022 59.934214 
L 279.226419 58.788832 
L 272.600816 59.463719 
L 265.975213 59.53797 
L 259.34961 59.575127 
L 252.724007 59.973335 
L 246.098404 61.357002 
L 239.472801 62.665506 
L 232.847199 64.042255 
L 226.221596 64.9608 
L 219.595993 64.415783 
L 212.97039 65.795547 
L 206.344787 62.230367 
L 199.719184 62.257458 
L 193.093581 62.573068 
L 186.467978 62.390114 
L 179.842375 60.726208 
L 173.216772 61.045742 
L 166.591169 59.970072 
L 159.965566 60.951481 
L 153.339963 58.345904 
L 146.71436 58.753446 
L 140.088757 62.21654 
L 133.463154 63.204325 
L 126.837551 63.973434 
L 120.211948 67.466709 
L 113.586345 85.154334 
L 106.960742 84.513386 
L 100.335139 91.854789 
L 93.709536 110.081271 
L 87.083933 97.454431 
L 80.45833 152.208806 
L 73.832727 180.086637 
z
" clip-path="url(#p1ffd5e9ca4)" style="fill: #ff7f0e; fill-opacity: 0.3"/>
   </g>
   <g id="matplotlib.axis_1">
    <g id="xtick_1">
     <g id="line2d_1">
      <defs>
       <path id="ma4eec6849d" d="M 0 0 
L 0 3.5 
" style="stroke: #000000; stroke-width: 0.8"/>
      </defs>
      <g>
       <use xlink:href="#ma4eec6849d" x="73.832727" y="307.584" style="stroke: #000000; stroke-width: 0.8"/>
      </g>
     </g>
     <g id="text_1">
      <!-- 0 -->
      <g transform="translate(70.651477 322.182437)scale(0.1 -0.1)">
       <defs>
        <path id="DejaVuSans-30" d="M 2034 4250 
Q 1547 4250 1301 3770 
Q 1056 3291 1056 2328 
Q 1056 1369 1301 889 
Q 1547 409 2034 409 
Q 2525 409 2770 889 
Q 3016 1369 3016 2328 
Q 3016 3291 2770 3770 
Q 2525 4250 2034 4250 
z
M 2034 4750 
Q 2819 4750 3233 4129 
Q 3647 3509 3647 2328 
Q 3647 1150 3233 529 
Q 2819 -91 2034 -91 
Q 1250 -91 836 529 
Q 422 1150 422 2328 
Q 422 3509 836 4129 
Q 1250 4750 2034 4750 
z
" transform="scale(0.015625)"/>
       </defs>
       <use xlink:href="#DejaVuSans-30"/>
      </g>
     </g>
    </g>
    <g id="xtick_2">
     <g id="line2d_2">
      <g>
       <use xlink:href="#ma4eec6849d" x="140.088757" y="307.584" style="stroke: #000000; stroke-width: 0.8"/>
      </g>
     </g>
     <g id="text_2">
      <!-- 10 -->
      <g transform="translate(133.726257 322.182437)scale(0.1 -0.1)">
       <defs>
        <path id="DejaVuSans-31" d="M 794 531 
L 1825 531 
L 1825 4091 
L 703 3866 
L 703 4441 
L 1819 4666 
L 2450 4666 
L 2450 531 
L 3481 531 
L 3481 0 
L 794 0 
L 794 531 
z
" transform="scale(0.015625)"/>
       </defs>
       <use xlink:href="#DejaVuSans-31"/>
       <use xlink:href="#DejaVuSans-30" x="63.623047"/>
      </g>
     </g>
    </g>
    <g id="xtick_3">
     <g id="line2d_3">
      <g>
       <use xlink:href="#ma4eec6849d" x="206.344787" y="307.584" style="stroke: #000000; stroke-width: 0.8"/>
      </g>
     </g>
     <g id="text_3">
      <!-- 20 -->
      <g transform="translate(199.982287 322.182437)scale(0.1 -0.1)">
       <defs>
        <path id="DejaVuSans-32" d="M 1228 531 
L 3431 531 
L 3431 0 
L 469 0 
L 469 531 
Q 828 903 1448 1529 
Q 2069 2156 2228 2338 
Q 2531 2678 2651 2914 
Q 2772 3150 2772 3378 
Q 2772 3750 2511 3984 
Q 2250 4219 1831 4219 
Q 1534 4219 1204 4116 
Q 875 4013 500 3803 
L 500 4441 
Q 881 4594 1212 4672 
Q 1544 4750 1819 4750 
Q 2544 4750 2975 4387 
Q 3406 4025 3406 3419 
Q 3406 3131 3298 2873 
Q 3191 2616 2906 2266 
Q 2828 2175 2409 1742 
Q 1991 1309 1228 531 
z
" transform="scale(0.015625)"/>
       </defs>
       <use xlink:href="#DejaVuSans-32"/>
       <use xlink:href="#DejaVuSans-30" x="63.623047"/>
      </g>
     </g>
    </g>
    <g id="xtick_4">
     <g id="line2d_4">
      <g>
       <use xlink:href="#ma4eec6849d" x="272.600816" y="307.584" style="stroke: #000000; stroke-width: 0.8"/>
      </g>
     </g>
     <g id="text_4">
      <!-- 30 -->
      <g transform="translate(266.238316 322.182437)scale(0.1 -0.1)">
       <defs>
        <path id="DejaVuSans-33" d="M 2597 2516 
Q 3050 2419 3304 2112 
Q 3559 1806 3559 1356 
Q 3559 666 3084 287 
Q 2609 -91 1734 -91 
Q 1441 -91 1130 -33 
Q 819 25 488 141 
L 488 750 
Q 750 597 1062 519 
Q 1375 441 1716 441 
Q 2309 441 2620 675 
Q 2931 909 2931 1356 
Q 2931 1769 2642 2001 
Q 2353 2234 1838 2234 
L 1294 2234 
L 1294 2753 
L 1863 2753 
Q 2328 2753 2575 2939 
Q 2822 3125 2822 3475 
Q 2822 3834 2567 4026 
Q 2313 4219 1838 4219 
Q 1578 4219 1281 4162 
Q 984 4106 628 3988 
L 628 4550 
Q 988 4650 1302 4700 
Q 1616 4750 1894 4750 
Q 2613 4750 3031 4423 
Q 3450 4097 3450 3541 
Q 3450 3153 3228 2886 
Q 3006 2619 2597 2516 
z
" transform="scale(0.015625)"/>
       </defs>
       <use xlink:href="#DejaVuSans-33"/>
       <use xlink:href="#DejaVuSans-30" x="63.623047"/>
      </g>
     </g>
    </g>
    <g id="xtick_5">
     <g id="line2d_5">
      <g>
       <use xlink:href="#ma4eec6849d" x="338.856846" y="307.584" style="stroke: #000000; stroke-width: 0.8"/>
      </g>
     </g>
     <g id="text_5">
      <!-- 40 -->
      <g transform="translate(332.494346 322.182437)scale(0.1 -0.1)">
       <defs>
        <path id="DejaVuSans-34" d="M 2419 4116 
L 825 1625 
L 2419 1625 
L 2419 4116 
z
M 2253 4666 
L 3047 4666 
L 3047 1625 
L 3713 1625 
L 3713 1100 
L 3047 1100 
L 3047 0 
L 2419 0 
L 2419 1100 
L 313 1100 
L 313 1709 
L 2253 4666 
z
" transform="scale(0.015625)"/>
       </defs>
       <use xlink:href="#DejaVuSans-34"/>
       <use xlink:href="#DejaVuSans-30" x="63.623047"/>
      </g>
     </g>
    </g>
    <g id="xtick_6">
     <g id="line2d_6">
      <g>
       <use xlink:href="#ma4eec6849d" x="405.112876" y="307.584" style="stroke: #000000; stroke-width: 0.8"/>
      </g>
     </g>
     <g id="text_6">
      <!-- 50 -->
      <g transform="translate(398.750376 322.182437)scale(0.1 -0.1)">
       <defs>
        <path id="DejaVuSans-35" d="M 691 4666 
L 3169 4666 
L 3169 4134 
L 1269 4134 
L 1269 2991 
Q 1406 3038 1543 3061 
Q 1681 3084 1819 3084 
Q 2600 3084 3056 2656 
Q 3513 2228 3513 1497 
Q 3513 744 3044 326 
Q 2575 -91 1722 -91 
Q 1428 -91 1123 -41 
Q 819 9 494 109 
L 494 744 
Q 775 591 1075 516 
Q 1375 441 1709 441 
Q 2250 441 2565 725 
Q 2881 1009 2881 1497 
Q 2881 1984 2565 2268 
Q 2250 2553 1709 2553 
Q 1456 2553 1204 2497 
Q 953 2441 691 2322 
L 691 4666 
z
" transform="scale(0.015625)"/>
       </defs>
       <use xlink:href="#DejaVuSans-35"/>
       <use xlink:href="#DejaVuSans-30" x="63.623047"/>
      </g>
     </g>
    </g>
   </g>
   <g id="matplotlib.axis_2">
    <g id="ytick_1">
     <g id="line2d_7">
      <defs>
       <path id="m72f4279790" d="M 0 0 
L -3.5 0 
" style="stroke: #000000; stroke-width: 0.8"/>
      </defs>
      <g>
       <use xlink:href="#m72f4279790" x="57.6" y="291.50671" style="stroke: #000000; stroke-width: 0.8"/>
      </g>
     </g>
     <g id="text_7">
      <!-- −20 -->
      <g transform="translate(29.495313 295.305928)scale(0.1 -0.1)">
       <defs>
        <path id="DejaVuSans-2212" d="M 678 2272 
L 4684 2272 
L 4684 1741 
L 678 1741 
L 678 2272 
z
" transform="scale(0.015625)"/>
       </defs>
       <use xlink:href="#DejaVuSans-2212"/>
       <use xlink:href="#DejaVuSans-32" x="83.789062"/>
       <use xlink:href="#DejaVuSans-30" x="147.412109"/>
      </g>
     </g>
    </g>
    <g id="ytick_2">
     <g id="line2d_8">
      <g>
       <use xlink:href="#m72f4279790" x="57.6" y="253.675762" style="stroke: #000000; stroke-width: 0.8"/>
      </g>
     </g>
     <g id="text_8">
      <!-- 0 -->
      <g transform="translate(44.2375 257.474981)scale(0.1 -0.1)">
       <use xlink:href="#DejaVuSans-30"/>
      </g>
     </g>
    </g>
    <g id="ytick_3">
     <g id="line2d_9">
      <g>
       <use xlink:href="#m72f4279790" x="57.6" y="215.844815" style="stroke: #000000; stroke-width: 0.8"/>
      </g>
     </g>
     <g id="text_9">
      <!-- 20 -->
      <g transform="translate(37.875 219.644033)scale(0.1 -0.1)">
       <use xlink:href="#DejaVuSans-32"/>
       <use xlink:href="#DejaVuSans-30" x="63.623047"/>
      </g>
     </g>
    </g>
    <g id="ytick_4">
     <g id="line2d_10">
      <g>
       <use xlink:href="#m72f4279790" x="57.6" y="178.013867" style="stroke: #000000; stroke-width: 0.8"/>
      </g>
     </g>
     <g id="text_10">
      <!-- 40 -->
      <g transform="translate(37.875 181.813086)scale(0.1 -0.1)">
       <use xlink:href="#DejaVuSans-34"/>
       <use xlink:href="#DejaVuSans-30" x="63.623047"/>
      </g>
     </g>
    </g>
    <g id="ytick_5">
     <g id="line2d_11">
      <g>
       <use xlink:href="#m72f4279790" x="57.6" y="140.18292" style="stroke: #000000; stroke-width: 0.8"/>
      </g>
     </g>
     <g id="text_11">
      <!-- 60 -->
      <g transform="translate(37.875 143.982138)scale(0.1 -0.1)">
       <defs>
        <path id="DejaVuSans-36" d="M 2113 2584 
Q 1688 2584 1439 2293 
Q 1191 2003 1191 1497 
Q 1191 994 1439 701 
Q 1688 409 2113 409 
Q 2538 409 2786 701 
Q 3034 994 3034 1497 
Q 3034 2003 2786 2293 
Q 2538 2584 2113 2584 
z
M 3366 4563 
L 3366 3988 
Q 3128 4100 2886 4159 
Q 2644 4219 2406 4219 
Q 1781 4219 1451 3797 
Q 1122 3375 1075 2522 
Q 1259 2794 1537 2939 
Q 1816 3084 2150 3084 
Q 2853 3084 3261 2657 
Q 3669 2231 3669 1497 
Q 3669 778 3244 343 
Q 2819 -91 2113 -91 
Q 1303 -91 875 529 
Q 447 1150 447 2328 
Q 447 3434 972 4092 
Q 1497 4750 2381 4750 
Q 2619 4750 2861 4703 
Q 3103 4656 3366 4563 
z
" transform="scale(0.015625)"/>
       </defs>
       <use xlink:href="#DejaVuSans-36"/>
       <use xlink:href="#DejaVuSans-30" x="63.623047"/>
      </g>
     </g>
    </g>
    <g id="ytick_6">
     <g id="line2d_12">
      <g>
       <use xlink:href="#m72f4279790" x="57.6" y="102.351972" style="stroke: #000000; stroke-width: 0.8"/>
      </g>
     </g>
     <g id="text_12">
      <!-- 80 -->
      <g transform="translate(37.875 106.151191)scale(0.1 -0.1)">
       <defs>
        <path id="DejaVuSans-38" d="M 2034 2216 
Q 1584 2216 1326 1975 
Q 1069 1734 1069 1313 
Q 1069 891 1326 650 
Q 1584 409 2034 409 
Q 2484 409 2743 651 
Q 3003 894 3003 1313 
Q 3003 1734 2745 1975 
Q 2488 2216 2034 2216 
z
M 1403 2484 
Q 997 2584 770 2862 
Q 544 3141 544 3541 
Q 544 4100 942 4425 
Q 1341 4750 2034 4750 
Q 2731 4750 3128 4425 
Q 3525 4100 3525 3541 
Q 3525 3141 3298 2862 
Q 3072 2584 2669 2484 
Q 3125 2378 3379 2068 
Q 3634 1759 3634 1313 
Q 3634 634 3220 271 
Q 2806 -91 2034 -91 
Q 1263 -91 848 271 
Q 434 634 434 1313 
Q 434 1759 690 2068 
Q 947 2378 1403 2484 
z
M 1172 3481 
Q 1172 3119 1398 2916 
Q 1625 2713 2034 2713 
Q 2441 2713 2670 2916 
Q 2900 3119 2900 3481 
Q 2900 3844 2670 4047 
Q 2441 4250 2034 4250 
Q 1625 4250 1398 4047 
Q 1172 3844 1172 3481 
z
" transform="scale(0.015625)"/>
       </defs>
       <use xlink:href="#DejaVuSans-38"/>
       <use xlink:href="#DejaVuSans-30" x="63.623047"/>
      </g>
     </g>
    </g>
    <g id="ytick_7">
     <g id="line2d_13">
      <g>
       <use xlink:href="#m72f4279790" x="57.6" y="64.521025" style="stroke: #000000; stroke-width: 0.8"/>
      </g>
     </g>
     <g id="text_13">
      <!-- 100 -->
      <g transform="translate(31.5125 68.320244)scale(0.1 -0.1)">
       <use xlink:href="#DejaVuSans-31"/>
       <use xlink:href="#DejaVuSans-30" x="63.623047"/>
       <use xlink:href="#DejaVuSans-30" x="127.246094"/>
      </g>
     </g>
    </g>
   </g>
   <g id="line2d_14">
    <path d="M 73.832727 260.719059 
L 80.45833 256.837314 
L 87.083933 250.03625 
L 93.709536 241.201086 
L 100.335139 239.911357 
L 106.960742 237.286673 
L 113.586345 230.517167 
L 120.211948 228.554389 
L 126.837551 224.749889 
L 133.463154 219.693412 
L 140.088757 215.856563 
L 146.71436 217.9927 
L 153.339963 217.147963 
L 159.965566 205.687284 
L 166.591169 207.342235 
L 173.216772 204.819653 
L 179.842375 199.308963 
L 186.467978 199.305127 
L 193.093581 195.895717 
L 199.719184 194.603214 
L 206.344787 196.306384 
L 212.97039 193.345684 
L 219.595993 187.422903 
L 226.221596 178.582199 
L 232.847199 176.48341 
L 239.472801 176.902321 
L 246.098404 170.538273 
L 252.724007 172.64321 
L 259.34961 170.50608 
L 265.975213 173.065061 
L 272.600816 170.522199 
L 279.226419 170.535971 
L 285.852022 172.671718 
L 292.477625 170.115944 
L 299.103228 172.238447 
L 305.728831 163.562437 
L 312.354434 165.689363 
L 318.980037 167.368255 
L 325.60564 172.882695 
L 332.231243 160.513279 
L 338.856846 160.089635 
L 345.482449 158.828825 
L 352.108052 160.344751 
L 358.733655 159.025791 
L 365.359258 158.602824 
L 371.984861 158.118221 
L 378.610464 157.083247 
L 385.236067 155.360633 
L 391.86167 155.360633 
L 398.487273 152.389622 
" clip-path="url(#p1ffd5e9ca4)" style="fill: none; stroke: #1f77b4; stroke-width: 1.5; stroke-linecap: square"/>
   </g>
   <g id="line2d_15">
    <path d="M 73.832727 237.787318 
L 80.45833 219.050276 
L 87.083933 170.271727 
L 93.709536 181.205438 
L 100.335139 161.974102 
L 106.960742 154.609191 
L 113.586345 159.807067 
L 120.211948 134.052801 
L 126.837551 127.506587 
L 133.463154 122.397603 
L 140.088757 118.78391 
L 146.71436 117.467484 
L 153.339963 113.444805 
L 159.965566 116.957547 
L 166.591169 110.907197 
L 173.216772 113.573405 
L 179.842375 113.958719 
L 186.467978 104.261815 
L 193.093581 106.831877 
L 199.719184 106.608694 
L 206.344787 105.580123 
L 212.97039 101.073007 
L 219.595993 105.038905 
L 226.221596 108.73478 
L 232.847199 107.99152 
L 239.472801 102.67163 
L 246.098404 105.856307 
L 252.724007 104.529289 
L 259.34961 108.173556 
L 265.975213 104.218599 
L 272.600816 104.165027 
L 279.226419 103.548268 
L 285.852022 99.862522 
L 292.477625 99.598868 
L 299.103228 98.79597 
L 305.728831 102.805364 
L 312.354434 102.581475 
L 318.980037 105.828326 
L 325.60564 105.459178 
L 332.231243 98.589084 
L 338.856846 98.591046 
L 345.482449 98.446861 
L 352.108052 102.329269 
L 358.733655 105.916698 
L 365.359258 106.028407 
L 371.984861 100.067572 
L 378.610464 99.950384 
L 385.236067 102.784208 
L 391.86167 102.784208 
L 398.487273 105.020731 
" clip-path="url(#p1ffd5e9ca4)" style="fill: none; stroke: #ff7f0e; stroke-width: 1.5; stroke-linecap: square"/>
   </g>
   <g id="line2d_16">
    <path d="M 73.832727 229.054638 
L 80.45833 229.054638 
L 87.083933 212.898574 
L 93.709536 196.098349 
L 100.335139 195.807978 
L 106.960742 195.807978 
L 113.586345 179.28749 
L 120.211948 145.297252 
L 126.837551 145.297252 
L 133.463154 127.369099 
L 140.088757 111.000418 
L 146.71436 111.000418 
L 153.339963 111.000418 
L 159.965566 111.000418 
L 166.591169 111.000418 
L 173.216772 111.000418 
L 179.842375 111.000418 
L 186.467978 111.000418 
L 193.093581 111.000418 
L 199.719184 111.000418 
L 206.344787 111.000418 
L 212.97039 111.000418 
L 219.595993 111.000418 
L 226.221596 111.000418 
L 232.847199 111.000418 
L 239.472801 111.000418 
L 246.098404 111.000418 
L 252.724007 111.000418 
L 259.34961 111.000418 
L 265.975213 111.000418 
L 272.600816 111.000418 
L 279.226419 111.000418 
L 285.852022 111.000418 
L 292.477625 111.000418 
L 299.103228 111.000418 
L 305.728831 86.395662 
L 312.354434 86.395662 
L 318.980037 86.395662 
L 325.60564 86.395662 
L 332.231243 86.395662 
L 338.856846 86.395662 
L 345.482449 86.395662 
L 352.108052 86.395662 
L 358.733655 86.395662 
L 365.359258 86.395662 
L 371.984861 86.395662 
L 378.610464 85.246774 
L 385.236067 85.246774 
L 391.86167 85.246774 
L 398.487273 85.246774 
" clip-path="url(#p1ffd5e9ca4)" style="fill: none; stroke-dasharray: 5.55,2.4; stroke-dashoffset: 0; stroke: #2ca02c; stroke-width: 1.5"/>
   </g>
   <g id="line2d_17">
    <path d="M 73.832727 90.650321 
L 80.45833 90.185606 
L 87.083933 86.032084 
L 93.709536 86.032084 
L 100.335139 83.626243 
L 106.960742 83.626243 
L 113.586345 83.626243 
L 120.211948 83.626243 
L 126.837551 83.626243 
L 133.463154 83.626243 
L 140.088757 83.626243 
L 146.71436 81.898879 
L 153.339963 81.898879 
L 159.965566 81.898879 
L 166.591169 77.790108 
L 173.216772 77.790108 
L 179.842375 77.790108 
L 186.467978 77.790108 
L 193.093581 77.790108 
L 199.719184 77.790108 
L 206.344787 77.790108 
L 212.97039 77.790108 
L 219.595993 77.790108 
L 226.221596 77.790108 
L 232.847199 77.790108 
L 239.472801 77.790108 
L 246.098404 77.790108 
L 252.724007 77.790108 
L 259.34961 77.790108 
L 265.975213 77.790108 
L 272.600816 77.790108 
L 279.226419 77.790108 
L 285.852022 77.790108 
L 292.477625 77.790108 
L 299.103228 77.790108 
L 305.728831 77.790108 
L 312.354434 77.790108 
L 318.980037 77.790108 
L 325.60564 77.790108 
L 332.231243 77.790108 
L 338.856846 77.790108 
L 345.482449 75.868522 
L 352.108052 75.868522 
L 358.733655 75.868522 
L 365.359258 75.868522 
L 371.984861 75.868522 
L 378.610464 75.868522 
L 385.236067 75.868522 
L 391.86167 75.868522 
L 398.487273 75.868522 
" clip-path="url(#p1ffd5e9ca4)" style="fill: none; stroke-dasharray: 5.55,2.4; stroke-dashoffset: 0; stroke: #d62728; stroke-width: 1.5"/>
   </g>
   <g id="patch_3">
    <path d="M 57.6 307.584 
L 57.6 41.472 
" style="fill: none; stroke: #000000; stroke-width: 0.8; stroke-linejoin: miter; stroke-linecap: square"/>
   </g>
   <g id="patch_4">
    <path d="M 414.72 307.584 
L 414.72 41.472 
" style="fill: none; stroke: #000000; stroke-width: 0.8; stroke-linejoin: miter; stroke-linecap: square"/>
   </g>
   <g id="patch_5">
    <path d="M 57.6 307.584 
L 414.72 307.584 
" style="fill: none; stroke: #000000; stroke-width: 0.8; stroke-linejoin: miter; stroke-linecap: square"/>
   </g>
   <g id="patch_6">
    <path d="M 57.6 41.472 
L 414.72 41.472 
" style="fill: none; stroke: #000000; stroke-width: 0.8; stroke-linejoin: miter; stroke-linecap: square"/>
   </g>
   <g id="text_14">
    <!-- fitness on pymoo_6&amp;8_7 -->
    <g transform="translate(162.316875 35.472)scale(0.12 -0.12)">
     <defs>
      <path id="DejaVuSans-66" d="M 2375 4863 
L 2375 4384 
L 1825 4384 
Q 1516 4384 1395 4259 
Q 1275 4134 1275 3809 
L 1275 3500 
L 2222 3500 
L 2222 3053 
L 1275 3053 
L 1275 0 
L 697 0 
L 697 3053 
L 147 3053 
L 147 3500 
L 697 3500 
L 697 3744 
Q 697 4328 969 4595 
Q 1241 4863 1831 4863 
L 2375 4863 
z
" transform="scale(0.015625)"/>
      <path id="DejaVuSans-69" d="M 603 3500 
L 1178 3500 
L 1178 0 
L 603 0 
L 603 3500 
z
M 603 4863 
L 1178 4863 
L 1178 4134 
L 603 4134 
L 603 4863 
z
" transform="scale(0.015625)"/>
      <path id="DejaVuSans-74" d="M 1172 4494 
L 1172 3500 
L 2356 3500 
L 2356 3053 
L 1172 3053 
L 1172 1153 
Q 1172 725 1289 603 
Q 1406 481 1766 481 
L 2356 481 
L 2356 0 
L 1766 0 
Q 1100 0 847 248 
Q 594 497 594 1153 
L 594 3053 
L 172 3053 
L 172 3500 
L 594 3500 
L 594 4494 
L 1172 4494 
z
" transform="scale(0.015625)"/>
      <path id="DejaVuSans-6e" d="M 3513 2113 
L 3513 0 
L 2938 0 
L 2938 2094 
Q 2938 2591 2744 2837 
Q 2550 3084 2163 3084 
Q 1697 3084 1428 2787 
Q 1159 2491 1159 1978 
L 1159 0 
L 581 0 
L 581 3500 
L 1159 3500 
L 1159 2956 
Q 1366 3272 1645 3428 
Q 1925 3584 2291 3584 
Q 2894 3584 3203 3211 
Q 3513 2838 3513 2113 
z
" transform="scale(0.015625)"/>
      <path id="DejaVuSans-65" d="M 3597 1894 
L 3597 1613 
L 953 1613 
Q 991 1019 1311 708 
Q 1631 397 2203 397 
Q 2534 397 2845 478 
Q 3156 559 3463 722 
L 3463 178 
Q 3153 47 2828 -22 
Q 2503 -91 2169 -91 
Q 1331 -91 842 396 
Q 353 884 353 1716 
Q 353 2575 817 3079 
Q 1281 3584 2069 3584 
Q 2775 3584 3186 3129 
Q 3597 2675 3597 1894 
z
M 3022 2063 
Q 3016 2534 2758 2815 
Q 2500 3097 2075 3097 
Q 1594 3097 1305 2825 
Q 1016 2553 972 2059 
L 3022 2063 
z
" transform="scale(0.015625)"/>
      <path id="DejaVuSans-73" d="M 2834 3397 
L 2834 2853 
Q 2591 2978 2328 3040 
Q 2066 3103 1784 3103 
Q 1356 3103 1142 2972 
Q 928 2841 928 2578 
Q 928 2378 1081 2264 
Q 1234 2150 1697 2047 
L 1894 2003 
Q 2506 1872 2764 1633 
Q 3022 1394 3022 966 
Q 3022 478 2636 193 
Q 2250 -91 1575 -91 
Q 1294 -91 989 -36 
Q 684 19 347 128 
L 347 722 
Q 666 556 975 473 
Q 1284 391 1588 391 
Q 1994 391 2212 530 
Q 2431 669 2431 922 
Q 2431 1156 2273 1281 
Q 2116 1406 1581 1522 
L 1381 1569 
Q 847 1681 609 1914 
Q 372 2147 372 2553 
Q 372 3047 722 3315 
Q 1072 3584 1716 3584 
Q 2034 3584 2315 3537 
Q 2597 3491 2834 3397 
z
" transform="scale(0.015625)"/>
      <path id="DejaVuSans-20" transform="scale(0.015625)"/>
      <path id="DejaVuSans-6f" d="M 1959 3097 
Q 1497 3097 1228 2736 
Q 959 2375 959 1747 
Q 959 1119 1226 758 
Q 1494 397 1959 397 
Q 2419 397 2687 759 
Q 2956 1122 2956 1747 
Q 2956 2369 2687 2733 
Q 2419 3097 1959 3097 
z
M 1959 3584 
Q 2709 3584 3137 3096 
Q 3566 2609 3566 1747 
Q 3566 888 3137 398 
Q 2709 -91 1959 -91 
Q 1206 -91 779 398 
Q 353 888 353 1747 
Q 353 2609 779 3096 
Q 1206 3584 1959 3584 
z
" transform="scale(0.015625)"/>
      <path id="DejaVuSans-70" d="M 1159 525 
L 1159 -1331 
L 581 -1331 
L 581 3500 
L 1159 3500 
L 1159 2969 
Q 1341 3281 1617 3432 
Q 1894 3584 2278 3584 
Q 2916 3584 3314 3078 
Q 3713 2572 3713 1747 
Q 3713 922 3314 415 
Q 2916 -91 2278 -91 
Q 1894 -91 1617 61 
Q 1341 213 1159 525 
z
M 3116 1747 
Q 3116 2381 2855 2742 
Q 2594 3103 2138 3103 
Q 1681 3103 1420 2742 
Q 1159 2381 1159 1747 
Q 1159 1113 1420 752 
Q 1681 391 2138 391 
Q 2594 391 2855 752 
Q 3116 1113 3116 1747 
z
" transform="scale(0.015625)"/>
      <path id="DejaVuSans-79" d="M 2059 -325 
Q 1816 -950 1584 -1140 
Q 1353 -1331 966 -1331 
L 506 -1331 
L 506 -850 
L 844 -850 
Q 1081 -850 1212 -737 
Q 1344 -625 1503 -206 
L 1606 56 
L 191 3500 
L 800 3500 
L 1894 763 
L 2988 3500 
L 3597 3500 
L 2059 -325 
z
" transform="scale(0.015625)"/>
      <path id="DejaVuSans-6d" d="M 3328 2828 
Q 3544 3216 3844 3400 
Q 4144 3584 4550 3584 
Q 5097 3584 5394 3201 
Q 5691 2819 5691 2113 
L 5691 0 
L 5113 0 
L 5113 2094 
Q 5113 2597 4934 2840 
Q 4756 3084 4391 3084 
Q 3944 3084 3684 2787 
Q 3425 2491 3425 1978 
L 3425 0 
L 2847 0 
L 2847 2094 
Q 2847 2600 2669 2842 
Q 2491 3084 2119 3084 
Q 1678 3084 1418 2786 
Q 1159 2488 1159 1978 
L 1159 0 
L 581 0 
L 581 3500 
L 1159 3500 
L 1159 2956 
Q 1356 3278 1631 3431 
Q 1906 3584 2284 3584 
Q 2666 3584 2933 3390 
Q 3200 3197 3328 2828 
z
" transform="scale(0.015625)"/>
      <path id="DejaVuSans-5f" d="M 3263 -1063 
L 3263 -1509 
L -63 -1509 
L -63 -1063 
L 3263 -1063 
z
" transform="scale(0.015625)"/>
      <path id="DejaVuSans-26" d="M 1556 2509 
Q 1272 2256 1139 2004 
Q 1006 1753 1006 1478 
Q 1006 1022 1337 719 
Q 1669 416 2169 416 
Q 2466 416 2725 514 
Q 2984 613 3213 813 
L 1556 2509 
z
M 1997 2859 
L 3584 1234 
Q 3769 1513 3872 1830 
Q 3975 2147 3994 2503 
L 4575 2503 
Q 4538 2091 4375 1687 
Q 4213 1284 3922 891 
L 4794 0 
L 4006 0 
L 3559 459 
Q 3234 181 2878 45 
Q 2522 -91 2113 -91 
Q 1359 -91 881 339 
Q 403 769 403 1441 
Q 403 1841 612 2192 
Q 822 2544 1241 2853 
Q 1091 3050 1012 3245 
Q 934 3441 934 3628 
Q 934 4134 1281 4442 
Q 1628 4750 2203 4750 
Q 2463 4750 2720 4694 
Q 2978 4638 3244 4525 
L 3244 3956 
Q 2972 4103 2725 4179 
Q 2478 4256 2266 4256 
Q 1938 4256 1733 4082 
Q 1528 3909 1528 3634 
Q 1528 3475 1620 3314 
Q 1713 3153 1997 2859 
z
" transform="scale(0.015625)"/>
      <path id="DejaVuSans-37" d="M 525 4666 
L 3525 4666 
L 3525 4397 
L 1831 0 
L 1172 0 
L 2766 4134 
L 525 4134 
L 525 4666 
z
" transform="scale(0.015625)"/>
     </defs>
     <use xlink:href="#DejaVuSans-66"/>
     <use xlink:href="#DejaVuSans-69" x="35.205078"/>
     <use xlink:href="#DejaVuSans-74" x="62.988281"/>
     <use xlink:href="#DejaVuSans-6e" x="102.197266"/>
     <use xlink:href="#DejaVuSans-65" x="165.576172"/>
     <use xlink:href="#DejaVuSans-73" x="227.099609"/>
     <use xlink:href="#DejaVuSans-73" x="279.199219"/>
     <use xlink:href="#DejaVuSans-20" x="331.298828"/>
     <use xlink:href="#DejaVuSans-6f" x="363.085938"/>
     <use xlink:href="#DejaVuSans-6e" x="424.267578"/>
     <use xlink:href="#DejaVuSans-20" x="487.646484"/>
     <use xlink:href="#DejaVuSans-70" x="519.433594"/>
     <use xlink:href="#DejaVuSans-79" x="582.910156"/>
     <use xlink:href="#DejaVuSans-6d" x="642.089844"/>
     <use xlink:href="#DejaVuSans-6f" x="739.501953"/>
     <use xlink:href="#DejaVuSans-6f" x="800.683594"/>
     <use xlink:href="#DejaVuSans-5f" x="861.865234"/>
     <use xlink:href="#DejaVuSans-36" x="911.865234"/>
     <use xlink:href="#DejaVuSans-26" x="975.488281"/>
     <use xlink:href="#DejaVuSans-38" x="1053.466797"/>
     <use xlink:href="#DejaVuSans-5f" x="1117.089844"/>
     <use xlink:href="#DejaVuSans-37" x="1167.089844"/>
    </g>
   </g>
   <g id="legend_1">
    <g id="patch_7">
     <path d="M 334.555938 302.584 
L 407.72 302.584 
Q 409.72 302.584 409.72 300.584 
L 409.72 242.8715 
Q 409.72 240.8715 407.72 240.8715 
L 334.555938 240.8715 
Q 332.555938 240.8715 332.555938 242.8715 
L 332.555938 300.584 
Q 332.555938 302.584 334.555938 302.584 
z
" style="fill: #ffffff; opacity: 0.8; stroke: #cccccc; stroke-linejoin: miter"/>
    </g>
    <g id="line2d_18">
     <path d="M 336.555938 248.969937 
L 346.555938 248.969937 
L 356.555938 248.969937 
" style="fill: none; stroke: #1f77b4; stroke-width: 1.5; stroke-linecap: square"/>
    </g>
    <g id="text_15">
     <!-- enemyA -->
     <g transform="translate(364.555938 252.469937)scale(0.1 -0.1)">
      <defs>
       <path id="DejaVuSans-41" d="M 2188 4044 
L 1331 1722 
L 3047 1722 
L 2188 4044 
z
M 1831 4666 
L 2547 4666 
L 4325 0 
L 3669 0 
L 3244 1197 
L 1141 1197 
L 716 0 
L 50 0 
L 1831 4666 
z
" transform="scale(0.015625)"/>
      </defs>
      <use xlink:href="#DejaVuSans-65"/>
      <use xlink:href="#DejaVuSans-6e" x="61.523438"/>
      <use xlink:href="#DejaVuSans-65" x="124.902344"/>
      <use xlink:href="#DejaVuSans-6d" x="186.425781"/>
      <use xlink:href="#DejaVuSans-79" x="283.837891"/>
      <use xlink:href="#DejaVuSans-41" x="343.017578"/>
     </g>
    </g>
    <g id="line2d_19">
     <path d="M 336.555938 263.648062 
L 346.555938 263.648062 
L 356.555938 263.648062 
" style="fill: none; stroke: #ff7f0e; stroke-width: 1.5; stroke-linecap: square"/>
    </g>
    <g id="text_16">
     <!-- enemyB -->
     <g transform="translate(364.555938 267.148062)scale(0.1 -0.1)">
      <defs>
       <path id="DejaVuSans-42" d="M 1259 2228 
L 1259 519 
L 2272 519 
Q 2781 519 3026 730 
Q 3272 941 3272 1375 
Q 3272 1813 3026 2020 
Q 2781 2228 2272 2228 
L 1259 2228 
z
M 1259 4147 
L 1259 2741 
L 2194 2741 
Q 2656 2741 2882 2914 
Q 3109 3088 3109 3444 
Q 3109 3797 2882 3972 
Q 2656 4147 2194 4147 
L 1259 4147 
z
M 628 4666 
L 2241 4666 
Q 2963 4666 3353 4366 
Q 3744 4066 3744 3513 
Q 3744 3084 3544 2831 
Q 3344 2578 2956 2516 
Q 3422 2416 3680 2098 
Q 3938 1781 3938 1306 
Q 3938 681 3513 340 
Q 3088 0 2303 0 
L 628 0 
L 628 4666 
z
" transform="scale(0.015625)"/>
      </defs>
      <use xlink:href="#DejaVuSans-65"/>
      <use xlink:href="#DejaVuSans-6e" x="61.523438"/>
      <use xlink:href="#DejaVuSans-65" x="124.902344"/>
      <use xlink:href="#DejaVuSans-6d" x="186.425781"/>
      <use xlink:href="#DejaVuSans-79" x="283.837891"/>
      <use xlink:href="#DejaVuSans-42" x="343.017578"/>
     </g>
    </g>
    <g id="line2d_20">
     <path d="M 336.555938 278.326187 
L 346.555938 278.326187 
L 356.555938 278.326187 
" style="fill: none; stroke-dasharray: 5.55,2.4; stroke-dashoffset: 0; stroke: #2ca02c; stroke-width: 1.5"/>
    </g>
    <g id="text_17">
     <!-- enemyA -->
     <g transform="translate(364.555938 281.826187)scale(0.1 -0.1)">
      <use xlink:href="#DejaVuSans-65"/>
      <use xlink:href="#DejaVuSans-6e" x="61.523438"/>
      <use xlink:href="#DejaVuSans-65" x="124.902344"/>
      <use xlink:href="#DejaVuSans-6d" x="186.425781"/>
      <use xlink:href="#DejaVuSans-79" x="283.837891"/>
      <use xlink:href="#DejaVuSans-41" x="343.017578"/>
     </g>
    </g>
    <g id="line2d_21">
     <path d="M 336.555938 293.004312 
L 346.555938 293.004312 
L 356.555938 293.004312 
" style="fill: none; stroke-dasharray: 5.55,2.4; stroke-dashoffset: 0; stroke: #d62728; stroke-width: 1.5"/>
    </g>
    <g id="text_18">
     <!-- enemyB -->
     <g transform="translate(364.555938 296.504312)scale(0.1 -0.1)">
      <use xlink:href="#DejaVuSans-65"/>
      <use xlink:href="#DejaVuSans-6e" x="61.523438"/>
      <use xlink:href="#DejaVuSans-65" x="124.902344"/>
      <use xlink:href="#DejaVuSans-6d" x="186.425781"/>
      <use xlink:href="#DejaVuSans-79" x="283.837891"/>
      <use xlink:href="#DejaVuSans-42" x="343.017578"/>
     </g>
    </g>
   </g>
  </g>
 </g>
 <defs>
  <clipPath id="p1ffd5e9ca4">
   <rect x="57.6" y="41.472" width="357.12" height="266.112"/>
  </clipPath>
 </defs>
</svg>
