<?xml version="1.0" encoding="utf-8" standalone="no"?>
<!DOCTYPE svg PUBLIC "-//W3C//DTD SVG 1.1//EN"
  "http://www.w3.org/Graphics/SVG/1.1/DTD/svg11.dtd">
<svg xmlns:xlink="http://www.w3.org/1999/xlink" width="460.8pt" height="345.6pt" viewBox="0 0 460.8 345.6" xmlns="http://www.w3.org/2000/svg" version="1.1">
 <metadata>
  <rdf:RDF xmlns:dc="http://purl.org/dc/elements/1.1/" xmlns:cc="http://creativecommons.org/ns#" xmlns:rdf="http://www.w3.org/1999/02/22-rdf-syntax-ns#">
   <cc:Work>
    <dc:type rdf:resource="http://purl.org/dc/dcmitype/StillImage"/>
    <dc:date>2022-10-13T16:55:42.863191</dc:date>
    <dc:format>image/svg+xml</dc:format>
    <dc:creator>
     <cc:Agent>
      <dc:title>Matplotlib v3.6.0, https://matplotlib.org/</dc:title>
     </cc:Agent>
    </dc:creator>
   </cc:Work>
  </rdf:RDF>
 </metadata>
 <defs>
  <style type="text/css">*{stroke-linejoin: round; stroke-linecap: butt}</style>
 </defs>
 <g id="figure_1">
  <g id="patch_1">
   <path d="M 0 345.6 
L 460.8 345.6 
L 460.8 0 
L 0 0 
z
" style="fill: #ffffff"/>
  </g>
  <g id="axes_1">
   <g id="patch_2">
    <path d="M 57.6 307.584 
L 414.72 307.584 
L 414.72 41.472 
L 57.6 41.472 
z
" style="fill: #ffffff"/>
   </g>
   <g id="PolyCollection_1">
    <path d="M 73.832727 244.989422 
L 73.832727 290.67703 
L 77.890909 290.18221 
L 81.949091 291.187186 
L 86.007273 295.488 
L 90.065455 277.644983 
L 94.123636 273.443214 
L 98.181818 269.333701 
L 102.24 274.103718 
L 106.298182 266.782278 
L 110.356364 258.412669 
L 114.414545 262.045545 
L 118.472727 259.148311 
L 122.530909 267.795516 
L 126.589091 256.876733 
L 130.647273 256.679785 
L 134.705455 251.413861 
L 138.763636 244.888974 
L 142.821818 265.663398 
L 146.88 250.305873 
L 150.938182 243.034911 
L 154.996364 240.127252 
L 159.054545 234.457924 
L 163.112727 234.607131 
L 167.170909 243.997356 
L 171.229091 247.711405 
L 175.287273 249.072957 
L 179.345455 244.219847 
L 183.403636 238.271565 
L 187.461818 234.646596 
L 191.52 240.264459 
L 195.578182 242.292722 
L 199.636364 228.778168 
L 203.694545 239.829385 
L 207.752727 234.934711 
L 211.810909 236.988975 
L 215.869091 240.958958 
L 219.927273 245.145799 
L 223.985455 233.089573 
L 228.043636 235.669924 
L 232.101818 252.94338 
L 236.16 245.22266 
L 240.218182 248.230362 
L 244.276364 239.173569 
L 248.334545 243.599319 
L 252.392727 223.568753 
L 256.450909 228.254755 
L 260.509091 234.807444 
L 264.567273 232.730123 
L 268.625455 220.501238 
L 272.683636 234.120535 
L 276.741818 225.750088 
L 280.8 234.322648 
L 284.858182 233.024653 
L 288.916364 228.253496 
L 292.974545 227.734774 
L 297.032727 227.232778 
L 301.090909 229.006408 
L 305.149091 223.626389 
L 309.207273 214.82974 
L 313.265455 221.888811 
L 317.323636 227.530591 
L 321.381818 226.940796 
L 325.44 224.822221 
L 329.498182 214.231454 
L 333.556364 215.687704 
L 337.614545 213.177152 
L 341.672727 222.25384 
L 345.730909 211.729779 
L 349.789091 224.920601 
L 353.847273 219.34201 
L 357.905455 233.032447 
L 361.963636 231.78002 
L 366.021818 228.37561 
L 370.08 230.484634 
L 374.138182 223.521303 
L 378.196364 223.164614 
L 382.254545 217.744795 
L 386.312727 228.458774 
L 390.370909 232.563231 
L 394.429091 215.360477 
L 398.487273 208.495591 
L 398.487273 135.119056 
L 398.487273 135.119056 
L 394.429091 150.358137 
L 390.370909 159.807037 
L 386.312727 146.432898 
L 382.254545 152.366815 
L 378.196364 159.003879 
L 374.138182 158.846443 
L 370.08 159.085845 
L 366.021818 158.197625 
L 361.963636 164.721804 
L 357.905455 158.048122 
L 353.847273 156.465446 
L 349.789091 149.672428 
L 345.730909 140.365232 
L 341.672727 153.250069 
L 337.614545 143.398048 
L 333.556364 158.78447 
L 329.498182 149.924241 
L 325.44 155.513386 
L 321.381818 148.227779 
L 317.323636 157.327301 
L 313.265455 141.449435 
L 309.207273 151.549285 
L 305.149091 160.309417 
L 301.090909 152.116081 
L 297.032727 160.592712 
L 292.974545 157.789933 
L 288.916364 158.65032 
L 284.858182 152.652395 
L 280.8 158.213419 
L 276.741818 163.408579 
L 272.683636 159.700388 
L 268.625455 155.737043 
L 264.567273 171.782387 
L 260.509091 164.702967 
L 256.450909 153.091626 
L 252.392727 168.081332 
L 248.334545 158.546569 
L 244.276364 164.385458 
L 240.218182 164.480462 
L 236.16 181.122492 
L 232.101818 180.852029 
L 228.043636 176.253621 
L 223.985455 178.906991 
L 219.927273 190.956703 
L 215.869091 190.397433 
L 211.810909 191.06554 
L 207.752727 166.483003 
L 203.694545 182.740392 
L 199.636364 173.474222 
L 195.578182 180.176369 
L 191.52 185.523284 
L 187.461818 190.951146 
L 183.403636 188.268864 
L 179.345455 195.154127 
L 175.287273 191.612235 
L 171.229091 192.951488 
L 167.170909 194.740925 
L 163.112727 194.149732 
L 159.054545 198.752304 
L 154.996364 191.397759 
L 150.938182 195.751916 
L 146.88 187.767169 
L 142.821818 192.596027 
L 138.763636 179.429749 
L 134.705455 189.92914 
L 130.647273 189.030807 
L 126.589091 188.71218 
L 122.530909 190.861427 
L 118.472727 192.055039 
L 114.414545 201.299535 
L 110.356364 197.966962 
L 106.298182 203.985664 
L 102.24 189.63469 
L 98.181818 188.95106 
L 94.123636 198.881885 
L 90.065455 206.54553 
L 86.007273 185.901191 
L 81.949091 198.706929 
L 77.890909 237.713927 
L 73.832727 244.989422 
z
" clip-path="url(#pc821947165)" style="fill: #1f77b4; fill-opacity: 0.3"/>
   </g>
   <g id="PolyCollection_2">
    <path d="M 73.832727 230.419638 
L 73.832727 295.004057 
L 77.890909 287.90593 
L 81.949091 283.284892 
L 86.007273 280.305522 
L 90.065455 271.006898 
L 94.123636 271.445048 
L 98.181818 267.485902 
L 102.24 271.697833 
L 106.298182 266.606694 
L 110.356364 255.525855 
L 114.414545 258.269196 
L 118.472727 260.329261 
L 122.530909 254.470963 
L 126.589091 249.789083 
L 130.647273 254.778419 
L 134.705455 251.471783 
L 138.763636 246.370175 
L 142.821818 266.081523 
L 146.88 245.154857 
L 150.938182 238.661461 
L 154.996364 239.741835 
L 159.054545 227.186604 
L 163.112727 235.910909 
L 167.170909 237.647225 
L 171.229091 254.869262 
L 175.287273 252.331174 
L 179.345455 241.119672 
L 183.403636 245.496965 
L 187.461818 236.233679 
L 191.52 247.560005 
L 195.578182 240.652034 
L 199.636364 226.785466 
L 203.694545 230.046679 
L 207.752727 237.217142 
L 211.810909 227.251605 
L 215.869091 233.436886 
L 219.927273 235.597462 
L 223.985455 233.501931 
L 228.043636 232.445499 
L 232.101818 248.436396 
L 236.16 245.975705 
L 240.218182 239.657201 
L 244.276364 240.570021 
L 248.334545 235.379266 
L 252.392727 229.383942 
L 256.450909 232.947861 
L 260.509091 238.802648 
L 264.567273 240.867548 
L 268.625455 225.384251 
L 272.683636 236.837526 
L 276.741818 228.675959 
L 280.8 237.855825 
L 284.858182 233.341683 
L 288.916364 232.226353 
L 292.974545 222.159717 
L 297.032727 227.225237 
L 301.090909 216.89913 
L 305.149091 215.363785 
L 309.207273 217.421367 
L 313.265455 218.943437 
L 317.323636 219.332618 
L 321.381818 226.83266 
L 325.44 222.301483 
L 329.498182 217.435434 
L 333.556364 213.685129 
L 337.614545 215.595126 
L 341.672727 217.453329 
L 345.730909 213.919003 
L 349.789091 230.161058 
L 353.847273 220.028299 
L 357.905455 220.763729 
L 361.963636 226.977826 
L 366.021818 225.069174 
L 370.08 219.747645 
L 374.138182 210.944126 
L 378.196364 212.450214 
L 382.254545 209.476936 
L 386.312727 211.773209 
L 390.370909 214.485206 
L 394.429091 209.608194 
L 398.487273 211.709637 
L 398.487273 140.507557 
L 398.487273 140.507557 
L 394.429091 150.816927 
L 390.370909 137.629295 
L 386.312727 140.407439 
L 382.254545 146.832977 
L 378.196364 139.794097 
L 374.138182 147.58104 
L 370.08 153.748914 
L 366.021818 148.628911 
L 361.963636 148.715358 
L 357.905455 146.515587 
L 353.847273 146.208627 
L 349.789091 150.904955 
L 345.730909 145.781218 
L 341.672727 149.649404 
L 337.614545 151.40379 
L 333.556364 149.067213 
L 329.498182 151.91119 
L 325.44 144.951802 
L 321.381818 152.286523 
L 317.323636 149.99236 
L 313.265455 152.609786 
L 309.207273 146.582082 
L 305.149091 149.599728 
L 301.090909 151.318917 
L 297.032727 149.642928 
L 292.974545 146.110674 
L 288.916364 153.32057 
L 284.858182 156.339849 
L 280.8 160.175962 
L 276.741818 148.062648 
L 272.683636 160.302502 
L 268.625455 162.891664 
L 264.567273 162.5991 
L 260.509091 166.808837 
L 256.450909 153.643037 
L 252.392727 171.931576 
L 248.334545 169.076436 
L 244.276364 169.412839 
L 240.218182 177.429791 
L 236.16 176.595429 
L 232.101818 175.22613 
L 228.043636 174.633684 
L 223.985455 176.970288 
L 219.927273 180.205432 
L 215.869091 179.969992 
L 211.810909 183.919931 
L 207.752727 181.797556 
L 203.694545 180.318255 
L 199.636364 178.329232 
L 195.578182 176.192201 
L 191.52 187.413323 
L 187.461818 187.931113 
L 183.403636 183.890441 
L 179.345455 183.992555 
L 175.287273 187.856516 
L 171.229091 185.138153 
L 167.170909 187.340597 
L 163.112727 185.874839 
L 159.054545 182.765283 
L 154.996364 184.458139 
L 150.938182 186.450664 
L 146.88 188.847105 
L 142.821818 190.633926 
L 138.763636 188.48947 
L 134.705455 199.778198 
L 130.647273 198.604384 
L 126.589091 199.510531 
L 122.530909 198.910507 
L 118.472727 199.137417 
L 114.414545 199.709067 
L 110.356364 200.274549 
L 106.298182 210.17196 
L 102.24 200.10363 
L 98.181818 208.00486 
L 94.123636 213.681682 
L 90.065455 214.660609 
L 86.007273 221.360263 
L 81.949091 216.230053 
L 77.890909 226.196813 
L 73.832727 230.419638 
z
" clip-path="url(#pc821947165)" style="fill: #ff7f0e; fill-opacity: 0.3"/>
   </g>
   <g id="matplotlib.axis_1">
    <g id="xtick_1">
     <g id="line2d_1">
      <defs>
       <path id="ma9a1641476" d="M 0 0 
L 0 3.5 
" style="stroke: #000000; stroke-width: 0.8"/>
      </defs>
      <g>
       <use xlink:href="#ma9a1641476" x="73.832727" y="307.584" style="stroke: #000000; stroke-width: 0.8"/>
      </g>
     </g>
     <g id="text_1">
      <!-- 0 -->
      <g transform="translate(70.651477 322.182437) scale(0.1 -0.1)">
       <defs>
        <path id="DejaVuSans-30" d="M 2034 4250 
Q 1547 4250 1301 3770 
Q 1056 3291 1056 2328 
Q 1056 1369 1301 889 
Q 1547 409 2034 409 
Q 2525 409 2770 889 
Q 3016 1369 3016 2328 
Q 3016 3291 2770 3770 
Q 2525 4250 2034 4250 
z
M 2034 4750 
Q 2819 4750 3233 4129 
Q 3647 3509 3647 2328 
Q 3647 1150 3233 529 
Q 2819 -91 2034 -91 
Q 1250 -91 836 529 
Q 422 1150 422 2328 
Q 422 3509 836 4129 
Q 1250 4750 2034 4750 
z
" transform="scale(0.015625)"/>
       </defs>
       <use xlink:href="#DejaVuSans-30"/>
      </g>
     </g>
    </g>
    <g id="xtick_2">
     <g id="line2d_2">
      <g>
       <use xlink:href="#ma9a1641476" x="114.414545" y="307.584" style="stroke: #000000; stroke-width: 0.8"/>
      </g>
     </g>
     <g id="text_2">
      <!-- 10 -->
      <g transform="translate(108.052045 322.182437) scale(0.1 -0.1)">
       <defs>
        <path id="DejaVuSans-31" d="M 794 531 
L 1825 531 
L 1825 4091 
L 703 3866 
L 703 4441 
L 1819 4666 
L 2450 4666 
L 2450 531 
L 3481 531 
L 3481 0 
L 794 0 
L 794 531 
z
" transform="scale(0.015625)"/>
       </defs>
       <use xlink:href="#DejaVuSans-31"/>
       <use xlink:href="#DejaVuSans-30" x="63.623047"/>
      </g>
     </g>
    </g>
    <g id="xtick_3">
     <g id="line2d_3">
      <g>
       <use xlink:href="#ma9a1641476" x="154.996364" y="307.584" style="stroke: #000000; stroke-width: 0.8"/>
      </g>
     </g>
     <g id="text_3">
      <!-- 20 -->
      <g transform="translate(148.633864 322.182437) scale(0.1 -0.1)">
       <defs>
        <path id="DejaVuSans-32" d="M 1228 531 
L 3431 531 
L 3431 0 
L 469 0 
L 469 531 
Q 828 903 1448 1529 
Q 2069 2156 2228 2338 
Q 2531 2678 2651 2914 
Q 2772 3150 2772 3378 
Q 2772 3750 2511 3984 
Q 2250 4219 1831 4219 
Q 1534 4219 1204 4116 
Q 875 4013 500 3803 
L 500 4441 
Q 881 4594 1212 4672 
Q 1544 4750 1819 4750 
Q 2544 4750 2975 4387 
Q 3406 4025 3406 3419 
Q 3406 3131 3298 2873 
Q 3191 2616 2906 2266 
Q 2828 2175 2409 1742 
Q 1991 1309 1228 531 
z
" transform="scale(0.015625)"/>
       </defs>
       <use xlink:href="#DejaVuSans-32"/>
       <use xlink:href="#DejaVuSans-30" x="63.623047"/>
      </g>
     </g>
    </g>
    <g id="xtick_4">
     <g id="line2d_4">
      <g>
       <use xlink:href="#ma9a1641476" x="195.578182" y="307.584" style="stroke: #000000; stroke-width: 0.8"/>
      </g>
     </g>
     <g id="text_4">
      <!-- 30 -->
      <g transform="translate(189.215682 322.182437) scale(0.1 -0.1)">
       <defs>
        <path id="DejaVuSans-33" d="M 2597 2516 
Q 3050 2419 3304 2112 
Q 3559 1806 3559 1356 
Q 3559 666 3084 287 
Q 2609 -91 1734 -91 
Q 1441 -91 1130 -33 
Q 819 25 488 141 
L 488 750 
Q 750 597 1062 519 
Q 1375 441 1716 441 
Q 2309 441 2620 675 
Q 2931 909 2931 1356 
Q 2931 1769 2642 2001 
Q 2353 2234 1838 2234 
L 1294 2234 
L 1294 2753 
L 1863 2753 
Q 2328 2753 2575 2939 
Q 2822 3125 2822 3475 
Q 2822 3834 2567 4026 
Q 2313 4219 1838 4219 
Q 1578 4219 1281 4162 
Q 984 4106 628 3988 
L 628 4550 
Q 988 4650 1302 4700 
Q 1616 4750 1894 4750 
Q 2613 4750 3031 4423 
Q 3450 4097 3450 3541 
Q 3450 3153 3228 2886 
Q 3006 2619 2597 2516 
z
" transform="scale(0.015625)"/>
       </defs>
       <use xlink:href="#DejaVuSans-33"/>
       <use xlink:href="#DejaVuSans-30" x="63.623047"/>
      </g>
     </g>
    </g>
    <g id="xtick_5">
     <g id="line2d_5">
      <g>
       <use xlink:href="#ma9a1641476" x="236.16" y="307.584" style="stroke: #000000; stroke-width: 0.8"/>
      </g>
     </g>
     <g id="text_5">
      <!-- 40 -->
      <g transform="translate(229.7975 322.182437) scale(0.1 -0.1)">
       <defs>
        <path id="DejaVuSans-34" d="M 2419 4116 
L 825 1625 
L 2419 1625 
L 2419 4116 
z
M 2253 4666 
L 3047 4666 
L 3047 1625 
L 3713 1625 
L 3713 1100 
L 3047 1100 
L 3047 0 
L 2419 0 
L 2419 1100 
L 313 1100 
L 313 1709 
L 2253 4666 
z
" transform="scale(0.015625)"/>
       </defs>
       <use xlink:href="#DejaVuSans-34"/>
       <use xlink:href="#DejaVuSans-30" x="63.623047"/>
      </g>
     </g>
    </g>
    <g id="xtick_6">
     <g id="line2d_6">
      <g>
       <use xlink:href="#ma9a1641476" x="276.741818" y="307.584" style="stroke: #000000; stroke-width: 0.8"/>
      </g>
     </g>
     <g id="text_6">
      <!-- 50 -->
      <g transform="translate(270.379318 322.182437) scale(0.1 -0.1)">
       <defs>
        <path id="DejaVuSans-35" d="M 691 4666 
L 3169 4666 
L 3169 4134 
L 1269 4134 
L 1269 2991 
Q 1406 3038 1543 3061 
Q 1681 3084 1819 3084 
Q 2600 3084 3056 2656 
Q 3513 2228 3513 1497 
Q 3513 744 3044 326 
Q 2575 -91 1722 -91 
Q 1428 -91 1123 -41 
Q 819 9 494 109 
L 494 744 
Q 775 591 1075 516 
Q 1375 441 1709 441 
Q 2250 441 2565 725 
Q 2881 1009 2881 1497 
Q 2881 1984 2565 2268 
Q 2250 2553 1709 2553 
Q 1456 2553 1204 2497 
Q 953 2441 691 2322 
L 691 4666 
z
" transform="scale(0.015625)"/>
       </defs>
       <use xlink:href="#DejaVuSans-35"/>
       <use xlink:href="#DejaVuSans-30" x="63.623047"/>
      </g>
     </g>
    </g>
    <g id="xtick_7">
     <g id="line2d_7">
      <g>
       <use xlink:href="#ma9a1641476" x="317.323636" y="307.584" style="stroke: #000000; stroke-width: 0.8"/>
      </g>
     </g>
     <g id="text_7">
      <!-- 60 -->
      <g transform="translate(310.961136 322.182437) scale(0.1 -0.1)">
       <defs>
        <path id="DejaVuSans-36" d="M 2113 2584 
Q 1688 2584 1439 2293 
Q 1191 2003 1191 1497 
Q 1191 994 1439 701 
Q 1688 409 2113 409 
Q 2538 409 2786 701 
Q 3034 994 3034 1497 
Q 3034 2003 2786 2293 
Q 2538 2584 2113 2584 
z
M 3366 4563 
L 3366 3988 
Q 3128 4100 2886 4159 
Q 2644 4219 2406 4219 
Q 1781 4219 1451 3797 
Q 1122 3375 1075 2522 
Q 1259 2794 1537 2939 
Q 1816 3084 2150 3084 
Q 2853 3084 3261 2657 
Q 3669 2231 3669 1497 
Q 3669 778 3244 343 
Q 2819 -91 2113 -91 
Q 1303 -91 875 529 
Q 447 1150 447 2328 
Q 447 3434 972 4092 
Q 1497 4750 2381 4750 
Q 2619 4750 2861 4703 
Q 3103 4656 3366 4563 
z
" transform="scale(0.015625)"/>
       </defs>
       <use xlink:href="#DejaVuSans-36"/>
       <use xlink:href="#DejaVuSans-30" x="63.623047"/>
      </g>
     </g>
    </g>
    <g id="xtick_8">
     <g id="line2d_8">
      <g>
       <use xlink:href="#ma9a1641476" x="357.905455" y="307.584" style="stroke: #000000; stroke-width: 0.8"/>
      </g>
     </g>
     <g id="text_8">
      <!-- 70 -->
      <g transform="translate(351.542955 322.182437) scale(0.1 -0.1)">
       <defs>
        <path id="DejaVuSans-37" d="M 525 4666 
L 3525 4666 
L 3525 4397 
L 1831 0 
L 1172 0 
L 2766 4134 
L 525 4134 
L 525 4666 
z
" transform="scale(0.015625)"/>
       </defs>
       <use xlink:href="#DejaVuSans-37"/>
       <use xlink:href="#DejaVuSans-30" x="63.623047"/>
      </g>
     </g>
    </g>
    <g id="xtick_9">
     <g id="line2d_9">
      <g>
       <use xlink:href="#ma9a1641476" x="398.487273" y="307.584" style="stroke: #000000; stroke-width: 0.8"/>
      </g>
     </g>
     <g id="text_9">
      <!-- 80 -->
      <g transform="translate(392.124773 322.182437) scale(0.1 -0.1)">
       <defs>
        <path id="DejaVuSans-38" d="M 2034 2216 
Q 1584 2216 1326 1975 
Q 1069 1734 1069 1313 
Q 1069 891 1326 650 
Q 1584 409 2034 409 
Q 2484 409 2743 651 
Q 3003 894 3003 1313 
Q 3003 1734 2745 1975 
Q 2488 2216 2034 2216 
z
M 1403 2484 
Q 997 2584 770 2862 
Q 544 3141 544 3541 
Q 544 4100 942 4425 
Q 1341 4750 2034 4750 
Q 2731 4750 3128 4425 
Q 3525 4100 3525 3541 
Q 3525 3141 3298 2862 
Q 3072 2584 2669 2484 
Q 3125 2378 3379 2068 
Q 3634 1759 3634 1313 
Q 3634 634 3220 271 
Q 2806 -91 2034 -91 
Q 1263 -91 848 271 
Q 434 634 434 1313 
Q 434 1759 690 2068 
Q 947 2378 1403 2484 
z
M 1172 3481 
Q 1172 3119 1398 2916 
Q 1625 2713 2034 2713 
Q 2441 2713 2670 2916 
Q 2900 3119 2900 3481 
Q 2900 3844 2670 4047 
Q 2441 4250 2034 4250 
Q 1625 4250 1398 4047 
Q 1172 3844 1172 3481 
z
" transform="scale(0.015625)"/>
       </defs>
       <use xlink:href="#DejaVuSans-38"/>
       <use xlink:href="#DejaVuSans-30" x="63.623047"/>
      </g>
     </g>
    </g>
   </g>
   <g id="matplotlib.axis_2">
    <g id="ytick_1">
     <g id="line2d_10">
      <defs>
       <path id="m5e4ae19033" d="M 0 0 
L -3.5 0 
" style="stroke: #000000; stroke-width: 0.8"/>
      </defs>
      <g>
       <use xlink:href="#m5e4ae19033" x="57.6" y="263.079985" style="stroke: #000000; stroke-width: 0.8"/>
      </g>
     </g>
     <g id="text_10">
      <!-- 0 -->
      <g transform="translate(44.2375 266.879204) scale(0.1 -0.1)">
       <use xlink:href="#DejaVuSans-30"/>
      </g>
     </g>
    </g>
    <g id="ytick_2">
     <g id="line2d_11">
      <g>
       <use xlink:href="#m5e4ae19033" x="57.6" y="214.933829" style="stroke: #000000; stroke-width: 0.8"/>
      </g>
     </g>
     <g id="text_11">
      <!-- 20 -->
      <g transform="translate(37.875 218.733047) scale(0.1 -0.1)">
       <use xlink:href="#DejaVuSans-32"/>
       <use xlink:href="#DejaVuSans-30" x="63.623047"/>
      </g>
     </g>
    </g>
    <g id="ytick_3">
     <g id="line2d_12">
      <g>
       <use xlink:href="#m5e4ae19033" x="57.6" y="166.787672" style="stroke: #000000; stroke-width: 0.8"/>
      </g>
     </g>
     <g id="text_12">
      <!-- 40 -->
      <g transform="translate(37.875 170.586891) scale(0.1 -0.1)">
       <use xlink:href="#DejaVuSans-34"/>
       <use xlink:href="#DejaVuSans-30" x="63.623047"/>
      </g>
     </g>
    </g>
    <g id="ytick_4">
     <g id="line2d_13">
      <g>
       <use xlink:href="#m5e4ae19033" x="57.6" y="118.641516" style="stroke: #000000; stroke-width: 0.8"/>
      </g>
     </g>
     <g id="text_13">
      <!-- 60 -->
      <g transform="translate(37.875 122.440734) scale(0.1 -0.1)">
       <use xlink:href="#DejaVuSans-36"/>
       <use xlink:href="#DejaVuSans-30" x="63.623047"/>
      </g>
     </g>
    </g>
    <g id="ytick_5">
     <g id="line2d_14">
      <g>
       <use xlink:href="#m5e4ae19033" x="57.6" y="70.495359" style="stroke: #000000; stroke-width: 0.8"/>
      </g>
     </g>
     <g id="text_14">
      <!-- 80 -->
      <g transform="translate(37.875 74.294578) scale(0.1 -0.1)">
       <use xlink:href="#DejaVuSans-38"/>
       <use xlink:href="#DejaVuSans-30" x="63.623047"/>
      </g>
     </g>
    </g>
   </g>
   <g id="line2d_15">
    <path d="M 73.832727 267.833226 
L 77.890909 263.948068 
L 81.949091 244.947057 
L 86.007273 240.694596 
L 90.065455 242.095257 
L 94.123636 236.16255 
L 98.181818 229.14238 
L 102.24 231.869204 
L 106.298182 235.383971 
L 110.356364 228.189816 
L 114.414545 231.67254 
L 118.472727 225.601675 
L 122.530909 229.328472 
L 126.589091 222.794457 
L 130.647273 222.855296 
L 134.705455 220.6715 
L 138.763636 212.159362 
L 142.821818 229.129713 
L 146.88 219.036521 
L 150.938182 219.393413 
L 154.996364 215.762506 
L 159.054545 216.605114 
L 163.112727 214.378432 
L 167.170909 219.369141 
L 171.229091 220.331447 
L 175.287273 220.342596 
L 179.345455 219.686987 
L 183.403636 213.270215 
L 187.461818 212.798871 
L 191.52 212.893872 
L 195.578182 211.234546 
L 199.636364 201.126195 
L 203.694545 211.284888 
L 207.752727 200.708857 
L 211.810909 214.027258 
L 215.869091 215.678195 
L 219.927273 218.051251 
L 223.985455 205.998282 
L 228.043636 205.961772 
L 232.101818 216.897704 
L 236.16 213.172576 
L 240.218182 206.355412 
L 244.276364 201.779514 
L 248.334545 201.072944 
L 252.392727 195.825043 
L 256.450909 190.67319 
L 260.509091 199.755205 
L 264.567273 202.256255 
L 268.625455 188.11914 
L 272.683636 196.910462 
L 276.741818 194.579334 
L 280.8 196.268034 
L 284.858182 192.838524 
L 288.916364 193.451908 
L 292.974545 192.762354 
L 297.032727 193.912745 
L 301.090909 190.561245 
L 305.149091 191.967903 
L 309.207273 183.189513 
L 313.265455 181.669123 
L 317.323636 192.428946 
L 321.381818 187.584287 
L 325.44 190.167804 
L 329.498182 182.077848 
L 333.556364 187.236087 
L 337.614545 178.2876 
L 341.672727 187.751955 
L 345.730909 176.047506 
L 349.789091 187.296515 
L 353.847273 187.903728 
L 357.905455 195.540285 
L 361.963636 198.250912 
L 366.021818 193.286618 
L 370.08 194.785239 
L 374.138182 191.183873 
L 378.196364 191.084247 
L 382.254545 185.055805 
L 386.312727 187.445836 
L 390.370909 196.185134 
L 394.429091 182.859307 
L 398.487273 171.807323 
" clip-path="url(#pc821947165)" style="fill: none; stroke: #1f77b4; stroke-width: 1.5; stroke-linecap: square"/>
   </g>
   <g id="line2d_16">
    <path d="M 73.832727 262.711848 
L 77.890909 257.051372 
L 81.949091 249.757472 
L 86.007273 250.832893 
L 90.065455 242.833753 
L 94.123636 242.563365 
L 98.181818 237.745381 
L 102.24 235.900732 
L 106.298182 238.389327 
L 110.356364 227.900202 
L 114.414545 228.989132 
L 118.472727 229.733339 
L 122.530909 226.690735 
L 126.589091 224.649807 
L 130.647273 226.691402 
L 134.705455 225.624991 
L 138.763636 217.429822 
L 142.821818 228.357725 
L 146.88 217.000981 
L 150.938182 212.556062 
L 154.996364 212.099987 
L 159.054545 204.975943 
L 163.112727 210.892874 
L 167.170909 212.493911 
L 171.229091 220.003708 
L 175.287273 220.093845 
L 179.345455 212.556114 
L 183.403636 214.693703 
L 187.461818 212.082396 
L 191.52 217.486664 
L 195.578182 208.422118 
L 199.636364 202.557349 
L 203.694545 205.182467 
L 207.752727 209.507349 
L 211.810909 205.585768 
L 215.869091 206.703439 
L 219.927273 207.901447 
L 223.985455 205.236109 
L 228.043636 203.539592 
L 232.101818 211.831263 
L 236.16 211.285567 
L 240.218182 208.543496 
L 244.276364 204.99143 
L 248.334545 202.227851 
L 252.392727 200.657759 
L 256.450909 193.295449 
L 260.509091 202.805743 
L 264.567273 201.733324 
L 268.625455 194.137958 
L 272.683636 198.570014 
L 276.741818 188.369303 
L 280.8 199.015894 
L 284.858182 194.840766 
L 288.916364 192.773462 
L 292.974545 184.135195 
L 297.032727 188.434082 
L 301.090909 184.109023 
L 305.149091 182.481756 
L 309.207273 182.001725 
L 313.265455 185.776612 
L 317.323636 184.662489 
L 321.381818 189.559592 
L 325.44 183.626642 
L 329.498182 184.673312 
L 333.556364 181.376171 
L 337.614545 183.499458 
L 341.672727 183.551367 
L 345.730909 179.85011 
L 349.789091 190.533006 
L 353.847273 183.118463 
L 357.905455 183.639658 
L 361.963636 187.846592 
L 366.021818 186.849042 
L 370.08 186.748279 
L 374.138182 179.262583 
L 378.196364 176.122155 
L 382.254545 178.154957 
L 386.312727 176.090324 
L 390.370909 176.057251 
L 394.429091 180.212561 
L 398.487273 176.108597 
" clip-path="url(#pc821947165)" style="fill: none; stroke: #ff7f0e; stroke-width: 1.5; stroke-linecap: square"/>
   </g>
   <g id="line2d_17">
    <path d="M 73.832727 147.110338 
L 77.890909 147.110338 
L 81.949091 53.664883 
L 86.007273 53.664883 
L 90.065455 126.137107 
L 94.123636 126.137107 
L 98.181818 126.137107 
L 102.24 126.137107 
L 106.298182 167.07172 
L 110.356364 167.07172 
L 114.414545 167.07172 
L 118.472727 167.07172 
L 122.530909 126.418279 
L 126.589091 126.408783 
L 130.647273 167.07172 
L 134.705455 167.07172 
L 138.763636 167.07172 
L 142.821818 167.07172 
L 146.88 167.086092 
L 150.938182 167.541655 
L 154.996364 167.541655 
L 159.054545 167.541655 
L 163.112727 167.541655 
L 167.170909 167.541655 
L 171.229091 167.541655 
L 175.287273 167.541655 
L 179.345455 167.541655 
L 183.403636 126.408783 
L 187.461818 167.541655 
L 191.52 167.156692 
L 195.578182 103.706717 
L 199.636364 125.009921 
L 203.694545 147.074568 
L 207.752727 82.970233 
L 211.810909 147.145585 
L 215.869091 147.145585 
L 219.927273 147.145585 
L 223.985455 124.721058 
L 228.043636 124.721058 
L 232.101818 124.721058 
L 236.16 124.721058 
L 240.218182 82.794891 
L 244.276364 82.985108 
L 248.334545 53.615953 
L 252.392727 124.721058 
L 256.450909 82.438026 
L 260.509091 54.097414 
L 264.567273 124.914483 
L 268.625455 59.307956 
L 272.683636 103.721307 
L 276.741818 125.009921 
L 280.8 103.728569 
L 284.858182 103.594381 
L 288.916364 103.699389 
L 292.974545 124.7018 
L 297.032727 58.389639 
L 301.090909 53.568 
L 305.149091 103.093349 
L 309.207273 124.796588 
L 313.265455 81.661307 
L 317.323636 103.149335 
L 321.381818 81.635468 
L 325.44 124.711448 
L 329.498182 82.805566 
L 333.556364 124.740164 
L 337.614545 103.266349 
L 341.672727 103.706717 
L 345.730909 104.152927 
L 349.789091 82.438026 
L 353.847273 124.711448 
L 357.905455 124.711448 
L 361.963636 124.711448 
L 366.021818 124.711448 
L 370.08 124.711448 
L 374.138182 124.711448 
L 378.196364 124.711448 
L 382.254545 124.711448 
L 386.312727 103.692038 
L 390.370909 124.711448 
L 394.429091 124.711448 
L 398.487273 82.789535 
" clip-path="url(#pc821947165)" style="fill: none; stroke-dasharray: 5.55,2.4; stroke-dashoffset: 0; stroke: #2ca02c; stroke-width: 1.5"/>
   </g>
   <g id="line2d_18">
    <path d="M 73.832727 127.453647 
L 77.890909 127.453647 
L 81.949091 127.453647 
L 86.007273 189.497545 
L 90.065455 189.497545 
L 94.123636 169.773398 
L 98.181818 189.497545 
L 102.24 126.890128 
L 106.298182 189.401025 
L 110.356364 189.135201 
L 114.414545 169.833642 
L 118.472727 170.190303 
L 122.530909 189.528877 
L 126.589091 189.528877 
L 130.647273 189.345682 
L 134.705455 189.528877 
L 138.763636 125.960345 
L 142.821818 125.960345 
L 146.88 125.960345 
L 150.938182 125.960345 
L 154.996364 125.960345 
L 159.054545 105.750601 
L 163.112727 125.960345 
L 167.170909 125.960345 
L 171.229091 125.960345 
L 175.287273 125.960345 
L 179.345455 125.960345 
L 183.403636 125.960345 
L 187.461818 125.960345 
L 191.52 125.960345 
L 195.578182 125.960345 
L 199.636364 125.960345 
L 203.694545 125.960345 
L 207.752727 125.960345 
L 211.810909 125.960345 
L 215.869091 125.960345 
L 219.927273 125.960345 
L 223.985455 125.960345 
L 228.043636 125.960345 
L 232.101818 125.960345 
L 236.16 125.960345 
L 240.218182 125.960345 
L 244.276364 125.960345 
L 248.334545 125.960345 
L 252.392727 125.806509 
L 256.450909 104.790124 
L 260.509091 104.790124 
L 264.567273 104.790124 
L 268.625455 104.790124 
L 272.683636 104.790124 
L 276.741818 104.585744 
L 280.8 104.585744 
L 284.858182 104.585744 
L 288.916364 104.585744 
L 292.974545 104.585744 
L 297.032727 104.585744 
L 301.090909 104.585744 
L 305.149091 104.585744 
L 309.207273 104.585744 
L 313.265455 104.585744 
L 317.323636 104.585744 
L 321.381818 104.585744 
L 325.44 104.585744 
L 329.498182 104.585744 
L 333.556364 104.585744 
L 337.614545 104.585744 
L 341.672727 104.585744 
L 345.730909 104.585744 
L 349.789091 104.585744 
L 353.847273 104.585744 
L 357.905455 104.585744 
L 361.963636 104.585744 
L 366.021818 104.585744 
L 370.08 104.585744 
L 374.138182 104.585744 
L 378.196364 104.585744 
L 382.254545 104.585744 
L 386.312727 104.585744 
L 390.370909 104.585744 
L 394.429091 104.585744 
L 398.487273 104.585744 
" clip-path="url(#pc821947165)" style="fill: none; stroke-dasharray: 5.55,2.4; stroke-dashoffset: 0; stroke: #d62728; stroke-width: 1.5"/>
   </g>
   <g id="patch_3">
    <path d="M 57.6 307.584 
L 57.6 41.472 
" style="fill: none; stroke: #000000; stroke-width: 0.8; stroke-linejoin: miter; stroke-linecap: square"/>
   </g>
   <g id="patch_4">
    <path d="M 414.72 307.584 
L 414.72 41.472 
" style="fill: none; stroke: #000000; stroke-width: 0.8; stroke-linejoin: miter; stroke-linecap: square"/>
   </g>
   <g id="patch_5">
    <path d="M 57.6 307.584 
L 414.72 307.584 
" style="fill: none; stroke: #000000; stroke-width: 0.8; stroke-linejoin: miter; stroke-linecap: square"/>
   </g>
   <g id="patch_6">
    <path d="M 57.6 41.472 
L 414.72 41.472 
" style="fill: none; stroke: #000000; stroke-width: 0.8; stroke-linejoin: miter; stroke-linecap: square"/>
   </g>
   <g id="text_15">
    <!-- fitness on 1_incest -->
    <g transform="translate(180.24 35.472) scale(0.12 -0.12)">
     <defs>
      <path id="DejaVuSans-66" d="M 2375 4863 
L 2375 4384 
L 1825 4384 
Q 1516 4384 1395 4259 
Q 1275 4134 1275 3809 
L 1275 3500 
L 2222 3500 
L 2222 3053 
L 1275 3053 
L 1275 0 
L 697 0 
L 697 3053 
L 147 3053 
L 147 3500 
L 697 3500 
L 697 3744 
Q 697 4328 969 4595 
Q 1241 4863 1831 4863 
L 2375 4863 
z
" transform="scale(0.015625)"/>
      <path id="DejaVuSans-69" d="M 603 3500 
L 1178 3500 
L 1178 0 
L 603 0 
L 603 3500 
z
M 603 4863 
L 1178 4863 
L 1178 4134 
L 603 4134 
L 603 4863 
z
" transform="scale(0.015625)"/>
      <path id="DejaVuSans-74" d="M 1172 4494 
L 1172 3500 
L 2356 3500 
L 2356 3053 
L 1172 3053 
L 1172 1153 
Q 1172 725 1289 603 
Q 1406 481 1766 481 
L 2356 481 
L 2356 0 
L 1766 0 
Q 1100 0 847 248 
Q 594 497 594 1153 
L 594 3053 
L 172 3053 
L 172 3500 
L 594 3500 
L 594 4494 
L 1172 4494 
z
" transform="scale(0.015625)"/>
      <path id="DejaVuSans-6e" d="M 3513 2113 
L 3513 0 
L 2938 0 
L 2938 2094 
Q 2938 2591 2744 2837 
Q 2550 3084 2163 3084 
Q 1697 3084 1428 2787 
Q 1159 2491 1159 1978 
L 1159 0 
L 581 0 
L 581 3500 
L 1159 3500 
L 1159 2956 
Q 1366 3272 1645 3428 
Q 1925 3584 2291 3584 
Q 2894 3584 3203 3211 
Q 3513 2838 3513 2113 
z
" transform="scale(0.015625)"/>
      <path id="DejaVuSans-65" d="M 3597 1894 
L 3597 1613 
L 953 1613 
Q 991 1019 1311 708 
Q 1631 397 2203 397 
Q 2534 397 2845 478 
Q 3156 559 3463 722 
L 3463 178 
Q 3153 47 2828 -22 
Q 2503 -91 2169 -91 
Q 1331 -91 842 396 
Q 353 884 353 1716 
Q 353 2575 817 3079 
Q 1281 3584 2069 3584 
Q 2775 3584 3186 3129 
Q 3597 2675 3597 1894 
z
M 3022 2063 
Q 3016 2534 2758 2815 
Q 2500 3097 2075 3097 
Q 1594 3097 1305 2825 
Q 1016 2553 972 2059 
L 3022 2063 
z
" transform="scale(0.015625)"/>
      <path id="DejaVuSans-73" d="M 2834 3397 
L 2834 2853 
Q 2591 2978 2328 3040 
Q 2066 3103 1784 3103 
Q 1356 3103 1142 2972 
Q 928 2841 928 2578 
Q 928 2378 1081 2264 
Q 1234 2150 1697 2047 
L 1894 2003 
Q 2506 1872 2764 1633 
Q 3022 1394 3022 966 
Q 3022 478 2636 193 
Q 2250 -91 1575 -91 
Q 1294 -91 989 -36 
Q 684 19 347 128 
L 347 722 
Q 666 556 975 473 
Q 1284 391 1588 391 
Q 1994 391 2212 530 
Q 2431 669 2431 922 
Q 2431 1156 2273 1281 
Q 2116 1406 1581 1522 
L 1381 1569 
Q 847 1681 609 1914 
Q 372 2147 372 2553 
Q 372 3047 722 3315 
Q 1072 3584 1716 3584 
Q 2034 3584 2315 3537 
Q 2597 3491 2834 3397 
z
" transform="scale(0.015625)"/>
      <path id="DejaVuSans-20" transform="scale(0.015625)"/>
      <path id="DejaVuSans-6f" d="M 1959 3097 
Q 1497 3097 1228 2736 
Q 959 2375 959 1747 
Q 959 1119 1226 758 
Q 1494 397 1959 397 
Q 2419 397 2687 759 
Q 2956 1122 2956 1747 
Q 2956 2369 2687 2733 
Q 2419 3097 1959 3097 
z
M 1959 3584 
Q 2709 3584 3137 3096 
Q 3566 2609 3566 1747 
Q 3566 888 3137 398 
Q 2709 -91 1959 -91 
Q 1206 -91 779 398 
Q 353 888 353 1747 
Q 353 2609 779 3096 
Q 1206 3584 1959 3584 
z
" transform="scale(0.015625)"/>
      <path id="DejaVuSans-5f" d="M 3263 -1063 
L 3263 -1509 
L -63 -1509 
L -63 -1063 
L 3263 -1063 
z
" transform="scale(0.015625)"/>
      <path id="DejaVuSans-63" d="M 3122 3366 
L 3122 2828 
Q 2878 2963 2633 3030 
Q 2388 3097 2138 3097 
Q 1578 3097 1268 2742 
Q 959 2388 959 1747 
Q 959 1106 1268 751 
Q 1578 397 2138 397 
Q 2388 397 2633 464 
Q 2878 531 3122 666 
L 3122 134 
Q 2881 22 2623 -34 
Q 2366 -91 2075 -91 
Q 1284 -91 818 406 
Q 353 903 353 1747 
Q 353 2603 823 3093 
Q 1294 3584 2113 3584 
Q 2378 3584 2631 3529 
Q 2884 3475 3122 3366 
z
" transform="scale(0.015625)"/>
     </defs>
     <use xlink:href="#DejaVuSans-66"/>
     <use xlink:href="#DejaVuSans-69" x="35.205078"/>
     <use xlink:href="#DejaVuSans-74" x="62.988281"/>
     <use xlink:href="#DejaVuSans-6e" x="102.197266"/>
     <use xlink:href="#DejaVuSans-65" x="165.576172"/>
     <use xlink:href="#DejaVuSans-73" x="227.099609"/>
     <use xlink:href="#DejaVuSans-73" x="279.199219"/>
     <use xlink:href="#DejaVuSans-20" x="331.298828"/>
     <use xlink:href="#DejaVuSans-6f" x="363.085938"/>
     <use xlink:href="#DejaVuSans-6e" x="424.267578"/>
     <use xlink:href="#DejaVuSans-20" x="487.646484"/>
     <use xlink:href="#DejaVuSans-31" x="519.433594"/>
     <use xlink:href="#DejaVuSans-5f" x="583.056641"/>
     <use xlink:href="#DejaVuSans-69" x="633.056641"/>
     <use xlink:href="#DejaVuSans-6e" x="660.839844"/>
     <use xlink:href="#DejaVuSans-63" x="724.21875"/>
     <use xlink:href="#DejaVuSans-65" x="779.199219"/>
     <use xlink:href="#DejaVuSans-73" x="840.722656"/>
     <use xlink:href="#DejaVuSans-74" x="892.822266"/>
    </g>
   </g>
   <g id="legend_1">
    <g id="patch_7">
     <path d="M 334.555938 302.584 
L 407.72 302.584 
Q 409.72 302.584 409.72 300.584 
L 409.72 242.8715 
Q 409.72 240.8715 407.72 240.8715 
L 334.555938 240.8715 
Q 332.555938 240.8715 332.555938 242.8715 
L 332.555938 300.584 
Q 332.555938 302.584 334.555938 302.584 
z
" style="fill: #ffffff; opacity: 0.8; stroke: #cccccc; stroke-linejoin: miter"/>
    </g>
    <g id="line2d_19">
     <path d="M 336.555938 248.969937 
L 346.555938 248.969937 
L 356.555938 248.969937 
" style="fill: none; stroke: #1f77b4; stroke-width: 1.5; stroke-linecap: square"/>
    </g>
    <g id="text_16">
     <!-- enemyA -->
     <g transform="translate(364.555938 252.469937) scale(0.1 -0.1)">
      <defs>
       <path id="DejaVuSans-6d" d="M 3328 2828 
Q 3544 3216 3844 3400 
Q 4144 3584 4550 3584 
Q 5097 3584 5394 3201 
Q 5691 2819 5691 2113 
L 5691 0 
L 5113 0 
L 5113 2094 
Q 5113 2597 4934 2840 
Q 4756 3084 4391 3084 
Q 3944 3084 3684 2787 
Q 3425 2491 3425 1978 
L 3425 0 
L 2847 0 
L 2847 2094 
Q 2847 2600 2669 2842 
Q 2491 3084 2119 3084 
Q 1678 3084 1418 2786 
Q 1159 2488 1159 1978 
L 1159 0 
L 581 0 
L 581 3500 
L 1159 3500 
L 1159 2956 
Q 1356 3278 1631 3431 
Q 1906 3584 2284 3584 
Q 2666 3584 2933 3390 
Q 3200 3197 3328 2828 
z
" transform="scale(0.015625)"/>
       <path id="DejaVuSans-79" d="M 2059 -325 
Q 1816 -950 1584 -1140 
Q 1353 -1331 966 -1331 
L 506 -1331 
L 506 -850 
L 844 -850 
Q 1081 -850 1212 -737 
Q 1344 -625 1503 -206 
L 1606 56 
L 191 3500 
L 800 3500 
L 1894 763 
L 2988 3500 
L 3597 3500 
L 2059 -325 
z
" transform="scale(0.015625)"/>
       <path id="DejaVuSans-41" d="M 2188 4044 
L 1331 1722 
L 3047 1722 
L 2188 4044 
z
M 1831 4666 
L 2547 4666 
L 4325 0 
L 3669 0 
L 3244 1197 
L 1141 1197 
L 716 0 
L 50 0 
L 1831 4666 
z
" transform="scale(0.015625)"/>
      </defs>
      <use xlink:href="#DejaVuSans-65"/>
      <use xlink:href="#DejaVuSans-6e" x="61.523438"/>
      <use xlink:href="#DejaVuSans-65" x="124.902344"/>
      <use xlink:href="#DejaVuSans-6d" x="186.425781"/>
      <use xlink:href="#DejaVuSans-79" x="283.837891"/>
      <use xlink:href="#DejaVuSans-41" x="343.017578"/>
     </g>
    </g>
    <g id="line2d_20">
     <path d="M 336.555938 263.648062 
L 346.555938 263.648062 
L 356.555938 263.648062 
" style="fill: none; stroke: #ff7f0e; stroke-width: 1.5; stroke-linecap: square"/>
    </g>
    <g id="text_17">
     <!-- enemyB -->
     <g transform="translate(364.555938 267.148062) scale(0.1 -0.1)">
      <defs>
       <path id="DejaVuSans-42" d="M 1259 2228 
L 1259 519 
L 2272 519 
Q 2781 519 3026 730 
Q 3272 941 3272 1375 
Q 3272 1813 3026 2020 
Q 2781 2228 2272 2228 
L 1259 2228 
z
M 1259 4147 
L 1259 2741 
L 2194 2741 
Q 2656 2741 2882 2914 
Q 3109 3088 3109 3444 
Q 3109 3797 2882 3972 
Q 2656 4147 2194 4147 
L 1259 4147 
z
M 628 4666 
L 2241 4666 
Q 2963 4666 3353 4366 
Q 3744 4066 3744 3513 
Q 3744 3084 3544 2831 
Q 3344 2578 2956 2516 
Q 3422 2416 3680 2098 
Q 3938 1781 3938 1306 
Q 3938 681 3513 340 
Q 3088 0 2303 0 
L 628 0 
L 628 4666 
z
" transform="scale(0.015625)"/>
      </defs>
      <use xlink:href="#DejaVuSans-65"/>
      <use xlink:href="#DejaVuSans-6e" x="61.523438"/>
      <use xlink:href="#DejaVuSans-65" x="124.902344"/>
      <use xlink:href="#DejaVuSans-6d" x="186.425781"/>
      <use xlink:href="#DejaVuSans-79" x="283.837891"/>
      <use xlink:href="#DejaVuSans-42" x="343.017578"/>
     </g>
    </g>
    <g id="line2d_21">
     <path d="M 336.555938 278.326187 
L 346.555938 278.326187 
L 356.555938 278.326187 
" style="fill: none; stroke-dasharray: 5.55,2.4; stroke-dashoffset: 0; stroke: #2ca02c; stroke-width: 1.5"/>
    </g>
    <g id="text_18">
     <!-- enemyA -->
     <g transform="translate(364.555938 281.826187) scale(0.1 -0.1)">
      <use xlink:href="#DejaVuSans-65"/>
      <use xlink:href="#DejaVuSans-6e" x="61.523438"/>
      <use xlink:href="#DejaVuSans-65" x="124.902344"/>
      <use xlink:href="#DejaVuSans-6d" x="186.425781"/>
      <use xlink:href="#DejaVuSans-79" x="283.837891"/>
      <use xlink:href="#DejaVuSans-41" x="343.017578"/>
     </g>
    </g>
    <g id="line2d_22">
     <path d="M 336.555938 293.004312 
L 346.555938 293.004312 
L 356.555938 293.004312 
" style="fill: none; stroke-dasharray: 5.55,2.4; stroke-dashoffset: 0; stroke: #d62728; stroke-width: 1.5"/>
    </g>
    <g id="text_19">
     <!-- enemyB -->
     <g transform="translate(364.555938 296.504312) scale(0.1 -0.1)">
      <use xlink:href="#DejaVuSans-65"/>
      <use xlink:href="#DejaVuSans-6e" x="61.523438"/>
      <use xlink:href="#DejaVuSans-65" x="124.902344"/>
      <use xlink:href="#DejaVuSans-6d" x="186.425781"/>
      <use xlink:href="#DejaVuSans-79" x="283.837891"/>
      <use xlink:href="#DejaVuSans-42" x="343.017578"/>
     </g>
    </g>
   </g>
  </g>
 </g>
 <defs>
  <clipPath id="pc821947165">
   <rect x="57.6" y="41.472" width="357.12" height="266.112"/>
  </clipPath>
 </defs>
</svg>
