<?xml version="1.0" encoding="utf-8" standalone="no"?>
<!DOCTYPE svg PUBLIC "-//W3C//DTD SVG 1.1//EN"
  "http://www.w3.org/Graphics/SVG/1.1/DTD/svg11.dtd">
<svg xmlns:xlink="http://www.w3.org/1999/xlink" width="460.8pt" height="345.6pt" viewBox="0 0 460.8 345.6" xmlns="http://www.w3.org/2000/svg" version="1.1">
 <metadata>
  <rdf:RDF xmlns:dc="http://purl.org/dc/elements/1.1/" xmlns:cc="http://creativecommons.org/ns#" xmlns:rdf="http://www.w3.org/1999/02/22-rdf-syntax-ns#">
   <cc:Work>
    <dc:type rdf:resource="http://purl.org/dc/dcmitype/StillImage"/>
    <dc:date>2022-10-13T11:38:12.474642</dc:date>
    <dc:format>image/svg+xml</dc:format>
    <dc:creator>
     <cc:Agent>
      <dc:title>Matplotlib v3.6.0, https://matplotlib.org/</dc:title>
     </cc:Agent>
    </dc:creator>
   </cc:Work>
  </rdf:RDF>
 </metadata>
 <defs>
  <style type="text/css">*{stroke-linejoin: round; stroke-linecap: butt}</style>
 </defs>
 <g id="figure_1">
  <g id="patch_1">
   <path d="M 0 345.6 
L 460.8 345.6 
L 460.8 0 
L 0 0 
z
" style="fill: #ffffff"/>
  </g>
  <g id="axes_1">
   <g id="patch_2">
    <path d="M 57.6 307.584 
L 414.72 307.584 
L 414.72 41.472 
L 57.6 41.472 
z
" style="fill: #ffffff"/>
   </g>
   <g id="PolyCollection_1">
    <path d="M 73.832727 240.911383 
L 73.832727 279.33037 
L 80.45833 271.060243 
L 87.083933 266.383694 
L 93.709536 264.264897 
L 100.335139 266.667168 
L 106.960742 254.183253 
L 113.586345 239.825348 
L 120.211948 240.546905 
L 126.837551 241.771948 
L 133.463154 242.11027 
L 140.088757 245.716842 
L 146.71436 244.286769 
L 153.339963 236.993968 
L 159.965566 229.342111 
L 166.591169 229.850348 
L 173.216772 233.451096 
L 179.842375 229.61371 
L 186.467978 225.369371 
L 193.093581 225.362828 
L 199.719184 224.682729 
L 206.344787 230.868207 
L 212.97039 229.814328 
L 219.595993 229.228513 
L 226.221596 226.447493 
L 232.847199 226.793511 
L 239.472801 225.899601 
L 246.098404 225.696164 
L 252.724007 218.067284 
L 259.34961 220.554839 
L 265.975213 219.281053 
L 272.600816 218.514313 
L 279.226419 223.529119 
L 285.852022 222.501253 
L 292.477625 214.525762 
L 299.103228 212.406981 
L 305.728831 203.258288 
L 312.354434 203.984379 
L 318.980037 197.525598 
L 325.60564 190.013962 
L 332.231243 185.896972 
L 338.856846 183.501163 
L 345.482449 184.602273 
L 352.108052 180.761256 
L 358.733655 200.601931 
L 365.359258 197.588491 
L 371.984861 188.419583 
L 378.610464 179.553412 
L 385.236067 172.363735 
L 391.86167 160.004666 
L 398.487273 161.666799 
L 398.487273 67.966062 
L 398.487273 67.966062 
L 391.86167 71.030297 
L 385.236067 73.852873 
L 378.610464 81.882041 
L 371.984861 89.700021 
L 365.359258 100.612982 
L 358.733655 102.003707 
L 352.108052 103.994873 
L 345.482449 106.686473 
L 338.856846 109.754247 
L 332.231243 112.962716 
L 325.60564 114.146538 
L 318.980037 116.640033 
L 312.354434 116.223396 
L 305.728831 116.085237 
L 299.103228 116.617204 
L 292.477625 117.1109 
L 285.852022 119.789958 
L 279.226419 123.190696 
L 272.600816 123.541317 
L 265.975213 123.603771 
L 259.34961 124.961043 
L 252.724007 128.32551 
L 246.098404 133.201068 
L 239.472801 134.737307 
L 232.847199 136.540328 
L 226.221596 138.453362 
L 219.595993 141.013304 
L 212.97039 137.672831 
L 206.344787 135.816219 
L 199.719184 135.677322 
L 193.093581 135.868257 
L 186.467978 135.866782 
L 179.842375 136.01227 
L 173.216772 141.915086 
L 166.591169 139.233403 
L 159.965566 141.528345 
L 153.339963 145.591732 
L 146.71436 148.164314 
L 140.088757 151.140282 
L 133.463154 152.726754 
L 126.837551 155.56682 
L 120.211948 158.653698 
L 113.586345 164.564637 
L 106.960742 177.591038 
L 100.335139 190.818379 
L 93.709536 199.909746 
L 87.083933 209.323567 
L 80.45833 222.387639 
L 73.832727 240.911383 
z
" clip-path="url(#p8b91c8d540)" style="fill: #1f77b4; fill-opacity: 0.3"/>
   </g>
   <g id="PolyCollection_2">
    <path d="M 73.832727 195.651343 
L 73.832727 295.488 
L 80.45833 269.843664 
L 87.083933 238.611371 
L 93.709536 221.655272 
L 100.335139 189.510721 
L 106.960742 207.451563 
L 113.586345 201.393249 
L 120.211948 185.722765 
L 126.837551 174.913035 
L 133.463154 161.648692 
L 140.088757 136.063744 
L 146.71436 124.005849 
L 153.339963 129.172122 
L 159.965566 123.632122 
L 166.591169 122.022848 
L 173.216772 107.016524 
L 179.842375 115.12194 
L 186.467978 115.051166 
L 193.093581 115.040064 
L 199.719184 114.997264 
L 206.344787 114.450965 
L 212.97039 109.417818 
L 219.595993 109.32504 
L 226.221596 111.319705 
L 232.847199 111.047976 
L 239.472801 110.966667 
L 246.098404 110.797034 
L 252.724007 127.56852 
L 259.34961 115.502032 
L 265.975213 115.393914 
L 272.600816 115.219507 
L 279.226419 114.671991 
L 285.852022 114.548163 
L 292.477625 126.466901 
L 299.103228 126.434308 
L 305.728831 126.466725 
L 312.354434 126.450801 
L 318.980037 123.448537 
L 325.60564 123.449027 
L 332.231243 123.546936 
L 338.856846 123.568339 
L 345.482449 123.449988 
L 352.108052 123.514585 
L 358.733655 77.097899 
L 365.359258 81.712104 
L 371.984861 78.301626 
L 378.610464 78.514139 
L 385.236067 88.993623 
L 391.86167 88.977654 
L 398.487273 78.109277 
L 398.487273 73.360746 
L 398.487273 73.360746 
L 391.86167 66.556795 
L 385.236067 66.553067 
L 378.610464 73.231454 
L 371.984861 73.227361 
L 365.359258 70.448037 
L 358.733655 73.385256 
L 352.108052 53.691427 
L 345.482449 53.568 
L 338.856846 53.848803 
L 332.231243 53.800483 
L 325.60564 53.62036 
L 318.980037 53.571692 
L 312.354434 54.787584 
L 305.728831 54.827732 
L 299.103228 54.747206 
L 292.477625 54.829279 
L 285.852022 59.115576 
L 279.226419 59.377509 
L 272.600816 60.434133 
L 265.975213 60.707604 
L 259.34961 60.943837 
L 252.724007 57.302186 
L 246.098404 61.735014 
L 239.472801 62.054303 
L 232.847199 62.32605 
L 226.221596 62.838013 
L 219.595993 64.137504 
L 212.97039 64.204919 
L 206.344787 64.427393 
L 199.719184 65.53323 
L 193.093581 65.632442 
L 186.467978 65.670263 
L 179.842375 65.921201 
L 173.216772 67.312448 
L 166.591169 61.794952 
L 159.965566 61.849818 
L 153.339963 60.076649 
L 146.71436 60.514013 
L 140.088757 58.473017 
L 133.463154 56.112945 
L 126.837551 59.185734 
L 120.211948 68.321863 
L 113.586345 77.436939 
L 106.960742 80.60974 
L 100.335139 75.988712 
L 93.709536 88.130193 
L 87.083933 98.389013 
L 80.45833 127.98394 
L 73.832727 195.651343 
z
" clip-path="url(#p8b91c8d540)" style="fill: #ff7f0e; fill-opacity: 0.3"/>
   </g>
   <g id="matplotlib.axis_1">
    <g id="xtick_1">
     <g id="line2d_1">
      <defs>
       <path id="m5fcf233fd3" d="M 0 0 
L 0 3.5 
" style="stroke: #000000; stroke-width: 0.8"/>
      </defs>
      <g>
       <use xlink:href="#m5fcf233fd3" x="73.832727" y="307.584" style="stroke: #000000; stroke-width: 0.8"/>
      </g>
     </g>
     <g id="text_1">
      <!-- 0 -->
      <g transform="translate(70.651477 322.182437) scale(0.1 -0.1)">
       <defs>
        <path id="DejaVuSans-30" d="M 2034 4250 
Q 1547 4250 1301 3770 
Q 1056 3291 1056 2328 
Q 1056 1369 1301 889 
Q 1547 409 2034 409 
Q 2525 409 2770 889 
Q 3016 1369 3016 2328 
Q 3016 3291 2770 3770 
Q 2525 4250 2034 4250 
z
M 2034 4750 
Q 2819 4750 3233 4129 
Q 3647 3509 3647 2328 
Q 3647 1150 3233 529 
Q 2819 -91 2034 -91 
Q 1250 -91 836 529 
Q 422 1150 422 2328 
Q 422 3509 836 4129 
Q 1250 4750 2034 4750 
z
" transform="scale(0.015625)"/>
       </defs>
       <use xlink:href="#DejaVuSans-30"/>
      </g>
     </g>
    </g>
    <g id="xtick_2">
     <g id="line2d_2">
      <g>
       <use xlink:href="#m5fcf233fd3" x="140.088757" y="307.584" style="stroke: #000000; stroke-width: 0.8"/>
      </g>
     </g>
     <g id="text_2">
      <!-- 10 -->
      <g transform="translate(133.726257 322.182437) scale(0.1 -0.1)">
       <defs>
        <path id="DejaVuSans-31" d="M 794 531 
L 1825 531 
L 1825 4091 
L 703 3866 
L 703 4441 
L 1819 4666 
L 2450 4666 
L 2450 531 
L 3481 531 
L 3481 0 
L 794 0 
L 794 531 
z
" transform="scale(0.015625)"/>
       </defs>
       <use xlink:href="#DejaVuSans-31"/>
       <use xlink:href="#DejaVuSans-30" x="63.623047"/>
      </g>
     </g>
    </g>
    <g id="xtick_3">
     <g id="line2d_3">
      <g>
       <use xlink:href="#m5fcf233fd3" x="206.344787" y="307.584" style="stroke: #000000; stroke-width: 0.8"/>
      </g>
     </g>
     <g id="text_3">
      <!-- 20 -->
      <g transform="translate(199.982287 322.182437) scale(0.1 -0.1)">
       <defs>
        <path id="DejaVuSans-32" d="M 1228 531 
L 3431 531 
L 3431 0 
L 469 0 
L 469 531 
Q 828 903 1448 1529 
Q 2069 2156 2228 2338 
Q 2531 2678 2651 2914 
Q 2772 3150 2772 3378 
Q 2772 3750 2511 3984 
Q 2250 4219 1831 4219 
Q 1534 4219 1204 4116 
Q 875 4013 500 3803 
L 500 4441 
Q 881 4594 1212 4672 
Q 1544 4750 1819 4750 
Q 2544 4750 2975 4387 
Q 3406 4025 3406 3419 
Q 3406 3131 3298 2873 
Q 3191 2616 2906 2266 
Q 2828 2175 2409 1742 
Q 1991 1309 1228 531 
z
" transform="scale(0.015625)"/>
       </defs>
       <use xlink:href="#DejaVuSans-32"/>
       <use xlink:href="#DejaVuSans-30" x="63.623047"/>
      </g>
     </g>
    </g>
    <g id="xtick_4">
     <g id="line2d_4">
      <g>
       <use xlink:href="#m5fcf233fd3" x="272.600816" y="307.584" style="stroke: #000000; stroke-width: 0.8"/>
      </g>
     </g>
     <g id="text_4">
      <!-- 30 -->
      <g transform="translate(266.238316 322.182437) scale(0.1 -0.1)">
       <defs>
        <path id="DejaVuSans-33" d="M 2597 2516 
Q 3050 2419 3304 2112 
Q 3559 1806 3559 1356 
Q 3559 666 3084 287 
Q 2609 -91 1734 -91 
Q 1441 -91 1130 -33 
Q 819 25 488 141 
L 488 750 
Q 750 597 1062 519 
Q 1375 441 1716 441 
Q 2309 441 2620 675 
Q 2931 909 2931 1356 
Q 2931 1769 2642 2001 
Q 2353 2234 1838 2234 
L 1294 2234 
L 1294 2753 
L 1863 2753 
Q 2328 2753 2575 2939 
Q 2822 3125 2822 3475 
Q 2822 3834 2567 4026 
Q 2313 4219 1838 4219 
Q 1578 4219 1281 4162 
Q 984 4106 628 3988 
L 628 4550 
Q 988 4650 1302 4700 
Q 1616 4750 1894 4750 
Q 2613 4750 3031 4423 
Q 3450 4097 3450 3541 
Q 3450 3153 3228 2886 
Q 3006 2619 2597 2516 
z
" transform="scale(0.015625)"/>
       </defs>
       <use xlink:href="#DejaVuSans-33"/>
       <use xlink:href="#DejaVuSans-30" x="63.623047"/>
      </g>
     </g>
    </g>
    <g id="xtick_5">
     <g id="line2d_5">
      <g>
       <use xlink:href="#m5fcf233fd3" x="338.856846" y="307.584" style="stroke: #000000; stroke-width: 0.8"/>
      </g>
     </g>
     <g id="text_5">
      <!-- 40 -->
      <g transform="translate(332.494346 322.182437) scale(0.1 -0.1)">
       <defs>
        <path id="DejaVuSans-34" d="M 2419 4116 
L 825 1625 
L 2419 1625 
L 2419 4116 
z
M 2253 4666 
L 3047 4666 
L 3047 1625 
L 3713 1625 
L 3713 1100 
L 3047 1100 
L 3047 0 
L 2419 0 
L 2419 1100 
L 313 1100 
L 313 1709 
L 2253 4666 
z
" transform="scale(0.015625)"/>
       </defs>
       <use xlink:href="#DejaVuSans-34"/>
       <use xlink:href="#DejaVuSans-30" x="63.623047"/>
      </g>
     </g>
    </g>
    <g id="xtick_6">
     <g id="line2d_6">
      <g>
       <use xlink:href="#m5fcf233fd3" x="405.112876" y="307.584" style="stroke: #000000; stroke-width: 0.8"/>
      </g>
     </g>
     <g id="text_6">
      <!-- 50 -->
      <g transform="translate(398.750376 322.182437) scale(0.1 -0.1)">
       <defs>
        <path id="DejaVuSans-35" d="M 691 4666 
L 3169 4666 
L 3169 4134 
L 1269 4134 
L 1269 2991 
Q 1406 3038 1543 3061 
Q 1681 3084 1819 3084 
Q 2600 3084 3056 2656 
Q 3513 2228 3513 1497 
Q 3513 744 3044 326 
Q 2575 -91 1722 -91 
Q 1428 -91 1123 -41 
Q 819 9 494 109 
L 494 744 
Q 775 591 1075 516 
Q 1375 441 1709 441 
Q 2250 441 2565 725 
Q 2881 1009 2881 1497 
Q 2881 1984 2565 2268 
Q 2250 2553 1709 2553 
Q 1456 2553 1204 2497 
Q 953 2441 691 2322 
L 691 4666 
z
" transform="scale(0.015625)"/>
       </defs>
       <use xlink:href="#DejaVuSans-35"/>
       <use xlink:href="#DejaVuSans-30" x="63.623047"/>
      </g>
     </g>
    </g>
   </g>
   <g id="matplotlib.axis_2">
    <g id="ytick_1">
     <g id="line2d_7">
      <defs>
       <path id="mc5053cf234" d="M 0 0 
L -3.5 0 
" style="stroke: #000000; stroke-width: 0.8"/>
      </defs>
      <g>
       <use xlink:href="#mc5053cf234" x="57.6" y="297.270355" style="stroke: #000000; stroke-width: 0.8"/>
      </g>
     </g>
     <g id="text_7">
      <!-- −20 -->
      <g transform="translate(29.495313 301.069574) scale(0.1 -0.1)">
       <defs>
        <path id="DejaVuSans-2212" d="M 678 2272 
L 4684 2272 
L 4684 1741 
L 678 1741 
L 678 2272 
z
" transform="scale(0.015625)"/>
       </defs>
       <use xlink:href="#DejaVuSans-2212"/>
       <use xlink:href="#DejaVuSans-32" x="83.789062"/>
       <use xlink:href="#DejaVuSans-30" x="147.412109"/>
      </g>
     </g>
    </g>
    <g id="ytick_2">
     <g id="line2d_8">
      <g>
       <use xlink:href="#mc5053cf234" x="57.6" y="257.530043" style="stroke: #000000; stroke-width: 0.8"/>
      </g>
     </g>
     <g id="text_8">
      <!-- 0 -->
      <g transform="translate(44.2375 261.329262) scale(0.1 -0.1)">
       <use xlink:href="#DejaVuSans-30"/>
      </g>
     </g>
    </g>
    <g id="ytick_3">
     <g id="line2d_9">
      <g>
       <use xlink:href="#mc5053cf234" x="57.6" y="217.789731" style="stroke: #000000; stroke-width: 0.8"/>
      </g>
     </g>
     <g id="text_9">
      <!-- 20 -->
      <g transform="translate(37.875 221.58895) scale(0.1 -0.1)">
       <use xlink:href="#DejaVuSans-32"/>
       <use xlink:href="#DejaVuSans-30" x="63.623047"/>
      </g>
     </g>
    </g>
    <g id="ytick_4">
     <g id="line2d_10">
      <g>
       <use xlink:href="#mc5053cf234" x="57.6" y="178.049419" style="stroke: #000000; stroke-width: 0.8"/>
      </g>
     </g>
     <g id="text_10">
      <!-- 40 -->
      <g transform="translate(37.875 181.848638) scale(0.1 -0.1)">
       <use xlink:href="#DejaVuSans-34"/>
       <use xlink:href="#DejaVuSans-30" x="63.623047"/>
      </g>
     </g>
    </g>
    <g id="ytick_5">
     <g id="line2d_11">
      <g>
       <use xlink:href="#mc5053cf234" x="57.6" y="138.309108" style="stroke: #000000; stroke-width: 0.8"/>
      </g>
     </g>
     <g id="text_11">
      <!-- 60 -->
      <g transform="translate(37.875 142.108326) scale(0.1 -0.1)">
       <defs>
        <path id="DejaVuSans-36" d="M 2113 2584 
Q 1688 2584 1439 2293 
Q 1191 2003 1191 1497 
Q 1191 994 1439 701 
Q 1688 409 2113 409 
Q 2538 409 2786 701 
Q 3034 994 3034 1497 
Q 3034 2003 2786 2293 
Q 2538 2584 2113 2584 
z
M 3366 4563 
L 3366 3988 
Q 3128 4100 2886 4159 
Q 2644 4219 2406 4219 
Q 1781 4219 1451 3797 
Q 1122 3375 1075 2522 
Q 1259 2794 1537 2939 
Q 1816 3084 2150 3084 
Q 2853 3084 3261 2657 
Q 3669 2231 3669 1497 
Q 3669 778 3244 343 
Q 2819 -91 2113 -91 
Q 1303 -91 875 529 
Q 447 1150 447 2328 
Q 447 3434 972 4092 
Q 1497 4750 2381 4750 
Q 2619 4750 2861 4703 
Q 3103 4656 3366 4563 
z
" transform="scale(0.015625)"/>
       </defs>
       <use xlink:href="#DejaVuSans-36"/>
       <use xlink:href="#DejaVuSans-30" x="63.623047"/>
      </g>
     </g>
    </g>
    <g id="ytick_6">
     <g id="line2d_12">
      <g>
       <use xlink:href="#mc5053cf234" x="57.6" y="98.568796" style="stroke: #000000; stroke-width: 0.8"/>
      </g>
     </g>
     <g id="text_12">
      <!-- 80 -->
      <g transform="translate(37.875 102.368014) scale(0.1 -0.1)">
       <defs>
        <path id="DejaVuSans-38" d="M 2034 2216 
Q 1584 2216 1326 1975 
Q 1069 1734 1069 1313 
Q 1069 891 1326 650 
Q 1584 409 2034 409 
Q 2484 409 2743 651 
Q 3003 894 3003 1313 
Q 3003 1734 2745 1975 
Q 2488 2216 2034 2216 
z
M 1403 2484 
Q 997 2584 770 2862 
Q 544 3141 544 3541 
Q 544 4100 942 4425 
Q 1341 4750 2034 4750 
Q 2731 4750 3128 4425 
Q 3525 4100 3525 3541 
Q 3525 3141 3298 2862 
Q 3072 2584 2669 2484 
Q 3125 2378 3379 2068 
Q 3634 1759 3634 1313 
Q 3634 634 3220 271 
Q 2806 -91 2034 -91 
Q 1263 -91 848 271 
Q 434 634 434 1313 
Q 434 1759 690 2068 
Q 947 2378 1403 2484 
z
M 1172 3481 
Q 1172 3119 1398 2916 
Q 1625 2713 2034 2713 
Q 2441 2713 2670 2916 
Q 2900 3119 2900 3481 
Q 2900 3844 2670 4047 
Q 2441 4250 2034 4250 
Q 1625 4250 1398 4047 
Q 1172 3844 1172 3481 
z
" transform="scale(0.015625)"/>
       </defs>
       <use xlink:href="#DejaVuSans-38"/>
       <use xlink:href="#DejaVuSans-30" x="63.623047"/>
      </g>
     </g>
    </g>
    <g id="ytick_7">
     <g id="line2d_13">
      <g>
       <use xlink:href="#mc5053cf234" x="57.6" y="58.828484" style="stroke: #000000; stroke-width: 0.8"/>
      </g>
     </g>
     <g id="text_13">
      <!-- 100 -->
      <g transform="translate(31.5125 62.627703) scale(0.1 -0.1)">
       <use xlink:href="#DejaVuSans-31"/>
       <use xlink:href="#DejaVuSans-30" x="63.623047"/>
       <use xlink:href="#DejaVuSans-30" x="127.246094"/>
      </g>
     </g>
    </g>
   </g>
   <g id="line2d_14">
    <path d="M 73.832727 260.120876 
L 80.45833 246.723941 
L 87.083933 237.85363 
L 93.709536 232.087321 
L 100.335139 228.742773 
L 106.960742 215.887145 
L 113.586345 202.194992 
L 120.211948 199.600302 
L 126.837551 198.669384 
L 133.463154 197.418512 
L 140.088757 198.428562 
L 146.71436 196.225542 
L 153.339963 191.29285 
L 159.965566 185.435228 
L 166.591169 184.541876 
L 173.216772 187.683091 
L 179.842375 182.81299 
L 186.467978 180.618077 
L 193.093581 180.615542 
L 199.719184 180.180025 
L 206.344787 183.342213 
L 212.97039 183.743579 
L 219.595993 185.120908 
L 226.221596 182.450427 
L 232.847199 181.66692 
L 239.472801 180.318454 
L 246.098404 179.448616 
L 252.724007 173.196397 
L 259.34961 172.757941 
L 265.975213 171.442412 
L 272.600816 171.027815 
L 279.226419 173.359908 
L 285.852022 171.145606 
L 292.477625 165.818331 
L 299.103228 164.512092 
L 305.728831 159.671763 
L 312.354434 160.103888 
L 318.980037 157.082816 
L 325.60564 152.08025 
L 332.231243 149.429844 
L 338.856846 146.627705 
L 345.482449 145.644373 
L 352.108052 142.378064 
L 358.733655 151.302819 
L 365.359258 149.100737 
L 371.984861 139.059802 
L 378.610464 130.717727 
L 385.236067 123.108304 
L 391.86167 115.517481 
L 398.487273 114.816431 
" clip-path="url(#p8b91c8d540)" style="fill: none; stroke: #1f77b4; stroke-width: 1.5; stroke-linecap: square"/>
   </g>
   <g id="line2d_15">
    <path d="M 73.832727 245.569671 
L 80.45833 198.913802 
L 87.083933 168.500192 
L 93.709536 154.892732 
L 100.335139 132.749716 
L 106.960742 144.030651 
L 113.586345 139.415094 
L 120.211948 127.022314 
L 126.837551 117.049385 
L 133.463154 108.880818 
L 140.088757 97.268381 
L 146.71436 92.259931 
L 153.339963 94.624385 
L 159.965566 92.74097 
L 166.591169 91.9089 
L 173.216772 87.164486 
L 179.842375 90.52157 
L 186.467978 90.360714 
L 193.093581 90.336253 
L 199.719184 90.265247 
L 206.344787 89.439179 
L 212.97039 86.811369 
L 219.595993 86.731272 
L 226.221596 87.078859 
L 232.847199 86.687013 
L 239.472801 86.510485 
L 246.098404 86.266024 
L 252.724007 92.435353 
L 259.34961 88.222935 
L 265.975213 88.050759 
L 272.600816 87.82682 
L 279.226419 87.02475 
L 285.852022 86.83187 
L 292.477625 90.64809 
L 299.103228 90.590757 
L 305.728831 90.647229 
L 312.354434 90.619193 
L 318.980037 88.510114 
L 325.60564 88.534693 
L 332.231243 88.67371 
L 338.856846 88.708571 
L 345.482449 88.508994 
L 352.108052 88.603006 
L 358.733655 75.241578 
L 365.359258 76.08007 
L 371.984861 75.764493 
L 378.610464 75.872797 
L 385.236067 77.773345 
L 391.86167 77.767224 
L 398.487273 75.735012 
" clip-path="url(#p8b91c8d540)" style="fill: none; stroke: #ff7f0e; stroke-width: 1.5; stroke-linecap: square"/>
   </g>
   <g id="line2d_16">
    <path d="M 73.832727 179.487194 
L 80.45833 179.487194 
L 87.083933 160.930277 
L 93.709536 160.930277 
L 100.335139 126.13291 
L 106.960742 126.13291 
L 113.586345 126.13291 
L 120.211948 126.13291 
L 126.837551 126.13291 
L 133.463154 126.13291 
L 140.088757 126.121684 
L 146.71436 126.121684 
L 153.339963 126.121684 
L 159.965566 126.121684 
L 166.591169 126.116047 
L 173.216772 126.116047 
L 179.842375 126.116047 
L 186.467978 126.116047 
L 193.093581 126.116047 
L 199.719184 126.116047 
L 206.344787 109.204554 
L 212.97039 109.204554 
L 219.595993 109.204554 
L 226.221596 109.204554 
L 232.847199 109.204554 
L 239.472801 109.204554 
L 246.098404 109.204554 
L 252.724007 109.204554 
L 259.34961 109.204554 
L 265.975213 109.204554 
L 272.600816 109.204554 
L 279.226419 108.877957 
L 285.852022 90.176853 
L 292.477625 90.176853 
L 299.103228 90.176853 
L 305.728831 90.176853 
L 312.354434 90.176853 
L 318.980037 90.176853 
L 325.60564 86.795255 
L 332.231243 86.795255 
L 338.856846 86.668536 
L 345.482449 86.657023 
L 352.108052 85.396642 
L 358.733655 85.396642 
L 365.359258 85.396642 
L 371.984861 81.963797 
L 378.610464 81.963797 
L 385.236067 81.138067 
L 391.86167 80.634809 
L 398.487273 80.634809 
" clip-path="url(#p8b91c8d540)" style="fill: none; stroke-dasharray: 5.55,2.4; stroke-dashoffset: 0; stroke: #2ca02c; stroke-width: 1.5"/>
   </g>
   <g id="line2d_17">
    <path d="M 73.832727 85.979573 
L 80.45833 83.706706 
L 87.083933 83.706706 
L 93.709536 83.233539 
L 100.335139 80.667251 
L 106.960742 79.374845 
L 113.586345 74.53389 
L 120.211948 74.53389 
L 126.837551 74.53389 
L 133.463154 74.53389 
L 140.088757 74.53389 
L 146.71436 74.53389 
L 153.339963 74.53389 
L 159.965566 74.057006 
L 166.591169 74.057006 
L 173.216772 73.818564 
L 179.842375 73.818564 
L 186.467978 73.818564 
L 193.093581 73.818564 
L 199.719184 73.818564 
L 206.344787 73.818564 
L 212.97039 73.818564 
L 219.595993 73.818564 
L 226.221596 73.818564 
L 232.847199 73.818564 
L 239.472801 73.818564 
L 246.098404 73.818564 
L 252.724007 73.818564 
L 259.34961 73.818564 
L 265.975213 73.818564 
L 272.600816 73.818564 
L 279.226419 73.818564 
L 285.852022 73.818564 
L 292.477625 73.760333 
L 299.103228 73.760333 
L 305.728831 73.760333 
L 312.354434 73.760333 
L 318.980037 73.760333 
L 325.60564 73.760333 
L 332.231243 73.760333 
L 338.856846 73.760333 
L 345.482449 71.689877 
L 352.108052 71.689877 
L 358.733655 71.689877 
L 365.359258 71.689877 
L 371.984861 71.689877 
L 378.610464 71.689877 
L 385.236067 71.689877 
L 391.86167 71.689877 
L 398.487273 71.689877 
" clip-path="url(#p8b91c8d540)" style="fill: none; stroke-dasharray: 5.55,2.4; stroke-dashoffset: 0; stroke: #d62728; stroke-width: 1.5"/>
   </g>
   <g id="patch_3">
    <path d="M 57.6 307.584 
L 57.6 41.472 
" style="fill: none; stroke: #000000; stroke-width: 0.8; stroke-linejoin: miter; stroke-linecap: square"/>
   </g>
   <g id="patch_4">
    <path d="M 414.72 307.584 
L 414.72 41.472 
" style="fill: none; stroke: #000000; stroke-width: 0.8; stroke-linejoin: miter; stroke-linecap: square"/>
   </g>
   <g id="patch_5">
    <path d="M 57.6 307.584 
L 414.72 307.584 
" style="fill: none; stroke: #000000; stroke-width: 0.8; stroke-linejoin: miter; stroke-linecap: square"/>
   </g>
   <g id="patch_6">
    <path d="M 57.6 41.472 
L 414.72 41.472 
" style="fill: none; stroke: #000000; stroke-width: 0.8; stroke-linejoin: miter; stroke-linecap: square"/>
   </g>
   <g id="text_14">
    <!-- fitness on 1_pymoo -->
    <g transform="translate(177.630938 35.472) scale(0.12 -0.12)">
     <defs>
      <path id="DejaVuSans-66" d="M 2375 4863 
L 2375 4384 
L 1825 4384 
Q 1516 4384 1395 4259 
Q 1275 4134 1275 3809 
L 1275 3500 
L 2222 3500 
L 2222 3053 
L 1275 3053 
L 1275 0 
L 697 0 
L 697 3053 
L 147 3053 
L 147 3500 
L 697 3500 
L 697 3744 
Q 697 4328 969 4595 
Q 1241 4863 1831 4863 
L 2375 4863 
z
" transform="scale(0.015625)"/>
      <path id="DejaVuSans-69" d="M 603 3500 
L 1178 3500 
L 1178 0 
L 603 0 
L 603 3500 
z
M 603 4863 
L 1178 4863 
L 1178 4134 
L 603 4134 
L 603 4863 
z
" transform="scale(0.015625)"/>
      <path id="DejaVuSans-74" d="M 1172 4494 
L 1172 3500 
L 2356 3500 
L 2356 3053 
L 1172 3053 
L 1172 1153 
Q 1172 725 1289 603 
Q 1406 481 1766 481 
L 2356 481 
L 2356 0 
L 1766 0 
Q 1100 0 847 248 
Q 594 497 594 1153 
L 594 3053 
L 172 3053 
L 172 3500 
L 594 3500 
L 594 4494 
L 1172 4494 
z
" transform="scale(0.015625)"/>
      <path id="DejaVuSans-6e" d="M 3513 2113 
L 3513 0 
L 2938 0 
L 2938 2094 
Q 2938 2591 2744 2837 
Q 2550 3084 2163 3084 
Q 1697 3084 1428 2787 
Q 1159 2491 1159 1978 
L 1159 0 
L 581 0 
L 581 3500 
L 1159 3500 
L 1159 2956 
Q 1366 3272 1645 3428 
Q 1925 3584 2291 3584 
Q 2894 3584 3203 3211 
Q 3513 2838 3513 2113 
z
" transform="scale(0.015625)"/>
      <path id="DejaVuSans-65" d="M 3597 1894 
L 3597 1613 
L 953 1613 
Q 991 1019 1311 708 
Q 1631 397 2203 397 
Q 2534 397 2845 478 
Q 3156 559 3463 722 
L 3463 178 
Q 3153 47 2828 -22 
Q 2503 -91 2169 -91 
Q 1331 -91 842 396 
Q 353 884 353 1716 
Q 353 2575 817 3079 
Q 1281 3584 2069 3584 
Q 2775 3584 3186 3129 
Q 3597 2675 3597 1894 
z
M 3022 2063 
Q 3016 2534 2758 2815 
Q 2500 3097 2075 3097 
Q 1594 3097 1305 2825 
Q 1016 2553 972 2059 
L 3022 2063 
z
" transform="scale(0.015625)"/>
      <path id="DejaVuSans-73" d="M 2834 3397 
L 2834 2853 
Q 2591 2978 2328 3040 
Q 2066 3103 1784 3103 
Q 1356 3103 1142 2972 
Q 928 2841 928 2578 
Q 928 2378 1081 2264 
Q 1234 2150 1697 2047 
L 1894 2003 
Q 2506 1872 2764 1633 
Q 3022 1394 3022 966 
Q 3022 478 2636 193 
Q 2250 -91 1575 -91 
Q 1294 -91 989 -36 
Q 684 19 347 128 
L 347 722 
Q 666 556 975 473 
Q 1284 391 1588 391 
Q 1994 391 2212 530 
Q 2431 669 2431 922 
Q 2431 1156 2273 1281 
Q 2116 1406 1581 1522 
L 1381 1569 
Q 847 1681 609 1914 
Q 372 2147 372 2553 
Q 372 3047 722 3315 
Q 1072 3584 1716 3584 
Q 2034 3584 2315 3537 
Q 2597 3491 2834 3397 
z
" transform="scale(0.015625)"/>
      <path id="DejaVuSans-20" transform="scale(0.015625)"/>
      <path id="DejaVuSans-6f" d="M 1959 3097 
Q 1497 3097 1228 2736 
Q 959 2375 959 1747 
Q 959 1119 1226 758 
Q 1494 397 1959 397 
Q 2419 397 2687 759 
Q 2956 1122 2956 1747 
Q 2956 2369 2687 2733 
Q 2419 3097 1959 3097 
z
M 1959 3584 
Q 2709 3584 3137 3096 
Q 3566 2609 3566 1747 
Q 3566 888 3137 398 
Q 2709 -91 1959 -91 
Q 1206 -91 779 398 
Q 353 888 353 1747 
Q 353 2609 779 3096 
Q 1206 3584 1959 3584 
z
" transform="scale(0.015625)"/>
      <path id="DejaVuSans-5f" d="M 3263 -1063 
L 3263 -1509 
L -63 -1509 
L -63 -1063 
L 3263 -1063 
z
" transform="scale(0.015625)"/>
      <path id="DejaVuSans-70" d="M 1159 525 
L 1159 -1331 
L 581 -1331 
L 581 3500 
L 1159 3500 
L 1159 2969 
Q 1341 3281 1617 3432 
Q 1894 3584 2278 3584 
Q 2916 3584 3314 3078 
Q 3713 2572 3713 1747 
Q 3713 922 3314 415 
Q 2916 -91 2278 -91 
Q 1894 -91 1617 61 
Q 1341 213 1159 525 
z
M 3116 1747 
Q 3116 2381 2855 2742 
Q 2594 3103 2138 3103 
Q 1681 3103 1420 2742 
Q 1159 2381 1159 1747 
Q 1159 1113 1420 752 
Q 1681 391 2138 391 
Q 2594 391 2855 752 
Q 3116 1113 3116 1747 
z
" transform="scale(0.015625)"/>
      <path id="DejaVuSans-79" d="M 2059 -325 
Q 1816 -950 1584 -1140 
Q 1353 -1331 966 -1331 
L 506 -1331 
L 506 -850 
L 844 -850 
Q 1081 -850 1212 -737 
Q 1344 -625 1503 -206 
L 1606 56 
L 191 3500 
L 800 3500 
L 1894 763 
L 2988 3500 
L 3597 3500 
L 2059 -325 
z
" transform="scale(0.015625)"/>
      <path id="DejaVuSans-6d" d="M 3328 2828 
Q 3544 3216 3844 3400 
Q 4144 3584 4550 3584 
Q 5097 3584 5394 3201 
Q 5691 2819 5691 2113 
L 5691 0 
L 5113 0 
L 5113 2094 
Q 5113 2597 4934 2840 
Q 4756 3084 4391 3084 
Q 3944 3084 3684 2787 
Q 3425 2491 3425 1978 
L 3425 0 
L 2847 0 
L 2847 2094 
Q 2847 2600 2669 2842 
Q 2491 3084 2119 3084 
Q 1678 3084 1418 2786 
Q 1159 2488 1159 1978 
L 1159 0 
L 581 0 
L 581 3500 
L 1159 3500 
L 1159 2956 
Q 1356 3278 1631 3431 
Q 1906 3584 2284 3584 
Q 2666 3584 2933 3390 
Q 3200 3197 3328 2828 
z
" transform="scale(0.015625)"/>
     </defs>
     <use xlink:href="#DejaVuSans-66"/>
     <use xlink:href="#DejaVuSans-69" x="35.205078"/>
     <use xlink:href="#DejaVuSans-74" x="62.988281"/>
     <use xlink:href="#DejaVuSans-6e" x="102.197266"/>
     <use xlink:href="#DejaVuSans-65" x="165.576172"/>
     <use xlink:href="#DejaVuSans-73" x="227.099609"/>
     <use xlink:href="#DejaVuSans-73" x="279.199219"/>
     <use xlink:href="#DejaVuSans-20" x="331.298828"/>
     <use xlink:href="#DejaVuSans-6f" x="363.085938"/>
     <use xlink:href="#DejaVuSans-6e" x="424.267578"/>
     <use xlink:href="#DejaVuSans-20" x="487.646484"/>
     <use xlink:href="#DejaVuSans-31" x="519.433594"/>
     <use xlink:href="#DejaVuSans-5f" x="583.056641"/>
     <use xlink:href="#DejaVuSans-70" x="633.056641"/>
     <use xlink:href="#DejaVuSans-79" x="696.533203"/>
     <use xlink:href="#DejaVuSans-6d" x="755.712891"/>
     <use xlink:href="#DejaVuSans-6f" x="853.125"/>
     <use xlink:href="#DejaVuSans-6f" x="914.306641"/>
    </g>
   </g>
   <g id="legend_1">
    <g id="patch_7">
     <path d="M 334.555938 302.584 
L 407.72 302.584 
Q 409.72 302.584 409.72 300.584 
L 409.72 242.8715 
Q 409.72 240.8715 407.72 240.8715 
L 334.555938 240.8715 
Q 332.555938 240.8715 332.555938 242.8715 
L 332.555938 300.584 
Q 332.555938 302.584 334.555938 302.584 
z
" style="fill: #ffffff; opacity: 0.8; stroke: #cccccc; stroke-linejoin: miter"/>
    </g>
    <g id="line2d_18">
     <path d="M 336.555938 248.969937 
L 346.555938 248.969937 
L 356.555938 248.969937 
" style="fill: none; stroke: #1f77b4; stroke-width: 1.5; stroke-linecap: square"/>
    </g>
    <g id="text_15">
     <!-- enemyA -->
     <g transform="translate(364.555938 252.469937) scale(0.1 -0.1)">
      <defs>
       <path id="DejaVuSans-41" d="M 2188 4044 
L 1331 1722 
L 3047 1722 
L 2188 4044 
z
M 1831 4666 
L 2547 4666 
L 4325 0 
L 3669 0 
L 3244 1197 
L 1141 1197 
L 716 0 
L 50 0 
L 1831 4666 
z
" transform="scale(0.015625)"/>
      </defs>
      <use xlink:href="#DejaVuSans-65"/>
      <use xlink:href="#DejaVuSans-6e" x="61.523438"/>
      <use xlink:href="#DejaVuSans-65" x="124.902344"/>
      <use xlink:href="#DejaVuSans-6d" x="186.425781"/>
      <use xlink:href="#DejaVuSans-79" x="283.837891"/>
      <use xlink:href="#DejaVuSans-41" x="343.017578"/>
     </g>
    </g>
    <g id="line2d_19">
     <path d="M 336.555938 263.648062 
L 346.555938 263.648062 
L 356.555938 263.648062 
" style="fill: none; stroke: #ff7f0e; stroke-width: 1.5; stroke-linecap: square"/>
    </g>
    <g id="text_16">
     <!-- enemyB -->
     <g transform="translate(364.555938 267.148062) scale(0.1 -0.1)">
      <defs>
       <path id="DejaVuSans-42" d="M 1259 2228 
L 1259 519 
L 2272 519 
Q 2781 519 3026 730 
Q 3272 941 3272 1375 
Q 3272 1813 3026 2020 
Q 2781 2228 2272 2228 
L 1259 2228 
z
M 1259 4147 
L 1259 2741 
L 2194 2741 
Q 2656 2741 2882 2914 
Q 3109 3088 3109 3444 
Q 3109 3797 2882 3972 
Q 2656 4147 2194 4147 
L 1259 4147 
z
M 628 4666 
L 2241 4666 
Q 2963 4666 3353 4366 
Q 3744 4066 3744 3513 
Q 3744 3084 3544 2831 
Q 3344 2578 2956 2516 
Q 3422 2416 3680 2098 
Q 3938 1781 3938 1306 
Q 3938 681 3513 340 
Q 3088 0 2303 0 
L 628 0 
L 628 4666 
z
" transform="scale(0.015625)"/>
      </defs>
      <use xlink:href="#DejaVuSans-65"/>
      <use xlink:href="#DejaVuSans-6e" x="61.523438"/>
      <use xlink:href="#DejaVuSans-65" x="124.902344"/>
      <use xlink:href="#DejaVuSans-6d" x="186.425781"/>
      <use xlink:href="#DejaVuSans-79" x="283.837891"/>
      <use xlink:href="#DejaVuSans-42" x="343.017578"/>
     </g>
    </g>
    <g id="line2d_20">
     <path d="M 336.555938 278.326187 
L 346.555938 278.326187 
L 356.555938 278.326187 
" style="fill: none; stroke-dasharray: 5.55,2.4; stroke-dashoffset: 0; stroke: #2ca02c; stroke-width: 1.5"/>
    </g>
    <g id="text_17">
     <!-- enemyA -->
     <g transform="translate(364.555938 281.826187) scale(0.1 -0.1)">
      <use xlink:href="#DejaVuSans-65"/>
      <use xlink:href="#DejaVuSans-6e" x="61.523438"/>
      <use xlink:href="#DejaVuSans-65" x="124.902344"/>
      <use xlink:href="#DejaVuSans-6d" x="186.425781"/>
      <use xlink:href="#DejaVuSans-79" x="283.837891"/>
      <use xlink:href="#DejaVuSans-41" x="343.017578"/>
     </g>
    </g>
    <g id="line2d_21">
     <path d="M 336.555938 293.004312 
L 346.555938 293.004312 
L 356.555938 293.004312 
" style="fill: none; stroke-dasharray: 5.55,2.4; stroke-dashoffset: 0; stroke: #d62728; stroke-width: 1.5"/>
    </g>
    <g id="text_18">
     <!-- enemyB -->
     <g transform="translate(364.555938 296.504312) scale(0.1 -0.1)">
      <use xlink:href="#DejaVuSans-65"/>
      <use xlink:href="#DejaVuSans-6e" x="61.523438"/>
      <use xlink:href="#DejaVuSans-65" x="124.902344"/>
      <use xlink:href="#DejaVuSans-6d" x="186.425781"/>
      <use xlink:href="#DejaVuSans-79" x="283.837891"/>
      <use xlink:href="#DejaVuSans-42" x="343.017578"/>
     </g>
    </g>
   </g>
  </g>
 </g>
 <defs>
  <clipPath id="p8b91c8d540">
   <rect x="57.6" y="41.472" width="357.12" height="266.112"/>
  </clipPath>
 </defs>
</svg>
