<?xml version="1.0" encoding="UTF-8" standalone="no"?>
<!DOCTYPE svg PUBLIC "-//W3C//DTD SVG 1.1//EN"
 "http://www.w3.org/Graphics/SVG/1.1/DTD/svg11.dtd">
<!-- Generated by graphviz version 2.43.0 (0)
 -->
<!-- Title: %3 Pages: 1 -->
<svg width="1119pt" height="265pt"
 viewBox="0.00 0.00 1119.36 265.26" xmlns="http://www.w3.org/2000/svg" xmlns:xlink="http://www.w3.org/1999/xlink">
<g id="graph0" class="graph" transform="scale(1 1) rotate(0) translate(4 261.26)">
<title>%3</title>
<polygon fill="white" stroke="transparent" points="-4,4 -4,-261.26 1115.36,-261.26 1115.36,4 -4,4"/>
<!-- &#45;1 -->
<g id="node1" class="node">
<title>&#45;1</title>
<polygon fill="lightgray" stroke="black" points="26,-230.91 0,-230.91 0,-212.91 26,-212.91 26,-230.91"/>
<text text-anchor="middle" x="13" y="-219.71" font-family="Times,serif" font-size="9.00">&#45;1</text>
</g>
<!-- &#45;2 -->
<g id="node2" class="node">
<title>&#45;2</title>
<polygon fill="lightgray" stroke="black" points="70,-230.91 44,-230.91 44,-212.91 70,-212.91 70,-230.91"/>
<text text-anchor="middle" x="57" y="-219.71" font-family="Times,serif" font-size="9.00">&#45;2</text>
</g>
<!-- &#45;3 -->
<g id="node3" class="node">
<title>&#45;3</title>
<polygon fill="lightgray" stroke="black" points="114,-230.91 88,-230.91 88,-212.91 114,-212.91 114,-230.91"/>
<text text-anchor="middle" x="101" y="-219.71" font-family="Times,serif" font-size="9.00">&#45;3</text>
</g>
<!-- &#45;4 -->
<g id="node4" class="node">
<title>&#45;4</title>
<polygon fill="lightgray" stroke="black" points="158,-230.91 132,-230.91 132,-212.91 158,-212.91 158,-230.91"/>
<text text-anchor="middle" x="145" y="-219.71" font-family="Times,serif" font-size="9.00">&#45;4</text>
</g>
<!-- &#45;5 -->
<g id="node5" class="node">
<title>&#45;5</title>
<polygon fill="lightgray" stroke="black" points="202,-230.91 176,-230.91 176,-212.91 202,-212.91 202,-230.91"/>
<text text-anchor="middle" x="189" y="-219.71" font-family="Times,serif" font-size="9.00">&#45;5</text>
</g>
<!-- shoot -->
<g id="node24" class="node">
<title>shoot</title>
<ellipse fill="lightblue" stroke="black" cx="213" cy="-28.99" rx="28.98" ry="28.98"/>
<text text-anchor="middle" x="213" y="-26.79" font-family="Times,serif" font-size="9.00">shoot</text>
</g>
<!-- &#45;5&#45;&gt;shoot -->
<g id="edge2" class="edge">
<title>&#45;5&#45;&gt;shoot</title>
<path fill="none" stroke="green" stroke-width="0.25" stroke-dasharray="1,5" d="M187.15,-212.76C182.83,-192.43 173.21,-137.91 183,-93.98 185.3,-83.65 189.46,-73.02 193.96,-63.46"/>
<polygon fill="green" stroke="green" stroke-width="0.25" points="197.19,-64.82 198.52,-54.31 190.92,-61.7 197.19,-64.82"/>
</g>
<!-- 52 -->
<g id="node26" class="node">
<title>52</title>
<ellipse fill="white" stroke="black" cx="213" cy="-122.27" rx="20.51" ry="20.51"/>
<text text-anchor="middle" x="213" y="-120.07" font-family="Times,serif" font-size="9.00">52</text>
</g>
<!-- &#45;5&#45;&gt;52 -->
<g id="edge3" class="edge">
<title>&#45;5&#45;&gt;52</title>
<path fill="none" stroke="green" stroke-width="0.33" d="M191.05,-212.58C194.29,-199.41 200.75,-173.12 205.82,-152.46"/>
<polygon fill="green" stroke="green" stroke-width="0.33" points="209.27,-153.11 208.26,-142.56 202.47,-151.44 209.27,-153.11"/>
</g>
<!-- &#45;6 -->
<g id="node6" class="node">
<title>&#45;6</title>
<polygon fill="lightgray" stroke="black" points="246,-230.91 220,-230.91 220,-212.91 246,-212.91 246,-230.91"/>
<text text-anchor="middle" x="233" y="-219.71" font-family="Times,serif" font-size="9.00">&#45;6</text>
</g>
<!-- &#45;7 -->
<g id="node7" class="node">
<title>&#45;7</title>
<polygon fill="lightgray" stroke="black" points="290,-230.91 264,-230.91 264,-212.91 290,-212.91 290,-230.91"/>
<text text-anchor="middle" x="277" y="-219.71" font-family="Times,serif" font-size="9.00">&#45;7</text>
</g>
<!-- &#45;8 -->
<g id="node8" class="node">
<title>&#45;8</title>
<polygon fill="lightgray" stroke="black" points="334,-230.91 308,-230.91 308,-212.91 334,-212.91 334,-230.91"/>
<text text-anchor="middle" x="321" y="-219.71" font-family="Times,serif" font-size="9.00">&#45;8</text>
</g>
<!-- &#45;9 -->
<g id="node9" class="node">
<title>&#45;9</title>
<polygon fill="lightgray" stroke="black" points="278,-131.27 252,-131.27 252,-113.27 278,-113.27 278,-131.27"/>
<text text-anchor="middle" x="265" y="-120.07" font-family="Times,serif" font-size="9.00">&#45;9</text>
</g>
<!-- &#45;9&#45;&gt;shoot -->
<g id="edge5" class="edge">
<title>&#45;9&#45;&gt;shoot</title>
<path fill="none" stroke="green" stroke-width="0.47" d="M260.39,-113.17C254.08,-102.1 242.38,-81.57 232.19,-63.67"/>
<polygon fill="green" stroke="green" stroke-width="0.47" points="235.02,-61.58 227.03,-54.62 228.94,-65.04 235.02,-61.58"/>
</g>
<!-- &#45;10 -->
<g id="node10" class="node">
<title>&#45;10</title>
<polygon fill="lightgray" stroke="black" points="384,-230.91 352,-230.91 352,-212.91 384,-212.91 384,-230.91"/>
<text text-anchor="middle" x="368" y="-219.71" font-family="Times,serif" font-size="9.00">&#45;10</text>
</g>
<!-- &#45;11 -->
<g id="node11" class="node">
<title>&#45;11</title>
<polygon fill="lightgray" stroke="black" points="434,-230.91 402,-230.91 402,-212.91 434,-212.91 434,-230.91"/>
<text text-anchor="middle" x="418" y="-219.71" font-family="Times,serif" font-size="9.00">&#45;11</text>
</g>
<!-- &#45;12 -->
<g id="node12" class="node">
<title>&#45;12</title>
<polygon fill="lightgray" stroke="black" points="484,-230.91 452,-230.91 452,-212.91 484,-212.91 484,-230.91"/>
<text text-anchor="middle" x="468" y="-219.71" font-family="Times,serif" font-size="9.00">&#45;12</text>
</g>
<!-- &#45;13 -->
<g id="node13" class="node">
<title>&#45;13</title>
<polygon fill="lightgray" stroke="black" points="534,-230.91 502,-230.91 502,-212.91 534,-212.91 534,-230.91"/>
<text text-anchor="middle" x="518" y="-219.71" font-family="Times,serif" font-size="9.00">&#45;13</text>
</g>
<!-- &#45;14 -->
<g id="node14" class="node">
<title>&#45;14</title>
<polygon fill="lightgray" stroke="black" points="584,-230.91 552,-230.91 552,-212.91 584,-212.91 584,-230.91"/>
<text text-anchor="middle" x="568" y="-219.71" font-family="Times,serif" font-size="9.00">&#45;14</text>
</g>
<!-- right -->
<g id="node22" class="node">
<title>right</title>
<ellipse fill="lightblue" stroke="black" cx="568" cy="-122.27" rx="28.07" ry="28.07"/>
<text text-anchor="middle" x="568" y="-120.07" font-family="Times,serif" font-size="9.00">right</text>
</g>
<!-- &#45;14&#45;&gt;right -->
<g id="edge1" class="edge">
<title>&#45;14&#45;&gt;right</title>
<path fill="none" stroke="red" stroke-width="0.18" d="M568,-212.58C568,-201.14 568,-179.82 568,-160.88"/>
<polygon fill="red" stroke="red" stroke-width="0.18" points="571.5,-160.68 568,-150.68 564.5,-160.68 571.5,-160.68"/>
</g>
<!-- &#45;15 -->
<g id="node15" class="node">
<title>&#45;15</title>
<polygon fill="lightgray" stroke="black" points="634,-230.91 602,-230.91 602,-212.91 634,-212.91 634,-230.91"/>
<text text-anchor="middle" x="618" y="-219.71" font-family="Times,serif" font-size="9.00">&#45;15</text>
</g>
<!-- &#45;16 -->
<g id="node16" class="node">
<title>&#45;16</title>
<polygon fill="lightgray" stroke="black" points="684,-230.91 652,-230.91 652,-212.91 684,-212.91 684,-230.91"/>
<text text-anchor="middle" x="668" y="-219.71" font-family="Times,serif" font-size="9.00">&#45;16</text>
</g>
<!-- &#45;17 -->
<g id="node17" class="node">
<title>&#45;17</title>
<polygon fill="lightgray" stroke="black" points="734,-230.91 702,-230.91 702,-212.91 734,-212.91 734,-230.91"/>
<text text-anchor="middle" x="718" y="-219.71" font-family="Times,serif" font-size="9.00">&#45;17</text>
</g>
<!-- &#45;18 -->
<g id="node18" class="node">
<title>&#45;18</title>
<polygon fill="lightgray" stroke="black" points="784,-230.91 752,-230.91 752,-212.91 784,-212.91 784,-230.91"/>
<text text-anchor="middle" x="768" y="-219.71" font-family="Times,serif" font-size="9.00">&#45;18</text>
</g>
<!-- &#45;19 -->
<g id="node19" class="node">
<title>&#45;19</title>
<polygon fill="lightgray" stroke="black" points="834,-230.91 802,-230.91 802,-212.91 834,-212.91 834,-230.91"/>
<text text-anchor="middle" x="818" y="-219.71" font-family="Times,serif" font-size="9.00">&#45;19</text>
</g>
<!-- &#45;20 -->
<g id="node20" class="node">
<title>&#45;20</title>
<polygon fill="lightgray" stroke="black" points="884,-230.91 852,-230.91 852,-212.91 884,-212.91 884,-230.91"/>
<text text-anchor="middle" x="868" y="-219.71" font-family="Times,serif" font-size="9.00">&#45;20</text>
</g>
<!-- left -->
<g id="node21" class="node">
<title>left</title>
<ellipse fill="lightblue" stroke="black" cx="925" cy="-221.91" rx="22.76" ry="22.76"/>
<text text-anchor="middle" x="925" y="-219.71" font-family="Times,serif" font-size="9.00">left</text>
</g>
<!-- jump -->
<g id="node23" class="node">
<title>jump</title>
<ellipse fill="lightblue" stroke="black" cx="994" cy="-221.91" rx="28.07" ry="28.07"/>
<text text-anchor="middle" x="994" y="-219.71" font-family="Times,serif" font-size="9.00">jump</text>
</g>
<!-- release -->
<g id="node25" class="node">
<title>release</title>
<ellipse fill="lightblue" stroke="black" cx="1076" cy="-221.91" rx="35.21" ry="35.21"/>
<text text-anchor="middle" x="1076" y="-219.71" font-family="Times,serif" font-size="9.00">release</text>
</g>
<!-- 52&#45;&gt;shoot -->
<g id="edge4" class="edge">
<title>52&#45;&gt;shoot</title>
<path fill="none" stroke="green" stroke-width="0.16" d="M213,-101.46C213,-91.75 213,-79.7 213,-68.29"/>
<polygon fill="green" stroke="green" stroke-width="0.16" points="216.5,-68.07 213,-58.07 209.5,-68.07 216.5,-68.07"/>
</g>
</g>
</svg>
