<?xml version="1.0" encoding="utf-8" standalone="no"?>
<!DOCTYPE svg PUBLIC "-//W3C//DTD SVG 1.1//EN"
  "http://www.w3.org/Graphics/SVG/1.1/DTD/svg11.dtd">
<svg xmlns:xlink="http://www.w3.org/1999/xlink" width="460.8pt" height="345.6pt" viewBox="0 0 460.8 345.6" xmlns="http://www.w3.org/2000/svg" version="1.1">
 <metadata>
  <rdf:RDF xmlns:dc="http://purl.org/dc/elements/1.1/" xmlns:cc="http://creativecommons.org/ns#" xmlns:rdf="http://www.w3.org/1999/02/22-rdf-syntax-ns#">
   <cc:Work>
    <dc:type rdf:resource="http://purl.org/dc/dcmitype/StillImage"/>
    <dc:date>2022-10-13T11:37:14.388296</dc:date>
    <dc:format>image/svg+xml</dc:format>
    <dc:creator>
     <cc:Agent>
      <dc:title>Matplotlib v3.6.0, https://matplotlib.org/</dc:title>
     </cc:Agent>
    </dc:creator>
   </cc:Work>
  </rdf:RDF>
 </metadata>
 <defs>
  <style type="text/css">*{stroke-linejoin: round; stroke-linecap: butt}</style>
 </defs>
 <g id="figure_1">
  <g id="patch_1">
   <path d="M 0 345.6 
L 460.8 345.6 
L 460.8 0 
L 0 0 
z
" style="fill: #ffffff"/>
  </g>
  <g id="axes_1">
   <g id="patch_2">
    <path d="M 57.6 307.584 
L 414.72 307.584 
L 414.72 41.472 
L 57.6 41.472 
z
" style="fill: #ffffff"/>
   </g>
   <g id="PolyCollection_1">
    <path d="M 73.832727 240.95794 
L 73.832727 277.689559 
L 77.942278 278.685992 
L 82.05183 278.279718 
L 86.161381 276.344527 
L 90.270932 279.508399 
L 94.380483 277.073915 
L 98.490035 274.705153 
L 102.599586 271.437414 
L 106.709137 271.215007 
L 110.818688 273.82442 
L 114.928239 275.305861 
L 119.037791 269.95969 
L 123.147342 270.797918 
L 127.256893 270.536979 
L 131.366444 272.957916 
L 135.475995 275.366615 
L 139.585547 272.923226 
L 143.695098 274.56102 
L 147.804649 270.331304 
L 151.9142 263.244121 
L 156.023751 273.396998 
L 160.133303 280.174036 
L 164.242854 279.893234 
L 168.352405 281.45718 
L 172.461956 273.971937 
L 176.571507 276.081129 
L 180.681059 269.970349 
L 184.79061 268.171616 
L 188.900161 269.699591 
L 193.009712 267.377617 
L 197.119264 261.704966 
L 201.228815 257.485311 
L 205.338366 261.600693 
L 209.447917 261.63824 
L 213.557468 260.623945 
L 217.66702 262.462868 
L 221.776571 254.133003 
L 225.886122 260.349081 
L 229.995673 261.237408 
L 234.105224 258.070769 
L 238.214776 259.784121 
L 242.324327 263.358998 
L 246.433878 279.524754 
L 250.543429 272.878428 
L 254.65298 263.886955 
L 258.762532 268.829917 
L 262.872083 265.003136 
L 266.981634 262.54521 
L 271.091185 246.931466 
L 275.200736 260.338277 
L 279.310288 261.309925 
L 283.419839 255.555899 
L 287.52939 266.365105 
L 291.638941 265.773484 
L 295.748493 257.511039 
L 299.858044 261.007125 
L 303.967595 251.506977 
L 308.077146 258.805598 
L 312.186697 256.294553 
L 316.296249 238.482046 
L 320.4058 230.045468 
L 324.515351 248.06174 
L 328.624902 246.187839 
L 332.734453 266.468115 
L 336.844005 256.739203 
L 340.953556 253.696749 
L 345.063107 247.675322 
L 349.172658 248.663261 
L 353.282209 260.542359 
L 357.391761 243.033185 
L 361.501312 213.103382 
L 365.610863 219.895215 
L 369.720414 242.299172 
L 373.829965 219.841899 
L 377.939517 207.829457 
L 382.049068 220.803766 
L 386.158619 227.860711 
L 390.26817 229.105818 
L 394.377722 203.67869 
L 398.487273 223.745839 
L 398.487273 122.368763 
L 398.487273 122.368763 
L 394.377722 110.082855 
L 390.26817 120.103611 
L 386.158619 120.332292 
L 382.049068 116.752052 
L 377.939517 115.779413 
L 373.829965 125.928042 
L 369.720414 138.185037 
L 365.610863 120.327498 
L 361.501312 133.733411 
L 357.391761 137.17083 
L 353.282209 151.040669 
L 349.172658 136.085871 
L 345.063107 137.742471 
L 340.953556 141.97793 
L 336.844005 138.915583 
L 332.734453 150.51501 
L 328.624902 136.675589 
L 324.515351 140.169252 
L 320.4058 136.583871 
L 316.296249 136.1447 
L 312.186697 144.620184 
L 308.077146 154.768762 
L 303.967595 155.182079 
L 299.858044 163.345181 
L 295.748493 163.302589 
L 291.638941 171.267519 
L 287.52939 171.573366 
L 283.419839 160.145736 
L 279.310288 170.53714 
L 275.200736 162.244929 
L 271.091185 166.953729 
L 266.981634 182.489335 
L 262.872083 177.532589 
L 258.762532 181.005212 
L 254.65298 180.540544 
L 250.543429 178.179385 
L 246.433878 185.20866 
L 242.324327 182.371501 
L 238.214776 183.932244 
L 234.105224 179.103471 
L 229.995673 180.023469 
L 225.886122 186.246408 
L 221.776571 185.742937 
L 217.66702 193.636122 
L 213.557468 190.216621 
L 209.447917 188.225076 
L 205.338366 188.780882 
L 201.228815 189.534047 
L 197.119264 190.087024 
L 193.009712 191.842771 
L 188.900161 196.534862 
L 184.79061 197.519069 
L 180.681059 198.125911 
L 176.571507 200.183853 
L 172.461956 195.864861 
L 168.352405 202.639898 
L 164.242854 204.572735 
L 160.133303 194.540208 
L 156.023751 183.386279 
L 151.9142 184.730246 
L 147.804649 189.465101 
L 143.695098 208.607431 
L 139.585547 202.565106 
L 135.475995 209.976659 
L 131.366444 205.111518 
L 127.256893 203.776955 
L 123.147342 198.183641 
L 119.037791 210.538349 
L 114.928239 216.518671 
L 110.818688 213.042426 
L 106.709137 214.462352 
L 102.599586 217.268404 
L 98.490035 220.102189 
L 94.380483 220.806174 
L 90.270932 228.569255 
L 86.161381 224.990593 
L 82.05183 226.968475 
L 77.942278 236.663399 
L 73.832727 240.95794 
z
" clip-path="url(#pa8cab3677d)" style="fill: #1f77b4; fill-opacity: 0.3"/>
   </g>
   <g id="PolyCollection_2">
    <path d="M 73.832727 169.607644 
L 73.832727 294.794711 
L 77.942278 295.488 
L 82.05183 284.31163 
L 86.161381 288.630436 
L 90.270932 293.89141 
L 94.380483 285.285813 
L 98.490035 286.774074 
L 102.599586 288.001357 
L 106.709137 289.262056 
L 110.818688 287.400779 
L 114.928239 287.574056 
L 119.037791 288.830804 
L 123.147342 289.267934 
L 127.256893 283.765448 
L 131.366444 275.722989 
L 135.475995 289.506507 
L 139.585547 278.31281 
L 143.695098 266.269955 
L 147.804649 264.64285 
L 151.9142 252.051859 
L 156.023751 240.368534 
L 160.133303 246.016525 
L 164.242854 278.665852 
L 168.352405 275.117382 
L 172.461956 282.406752 
L 176.571507 272.57765 
L 180.681059 263.57649 
L 184.79061 268.103509 
L 188.900161 267.213752 
L 193.009712 243.996188 
L 197.119264 250.335943 
L 201.228815 246.313836 
L 205.338366 245.844024 
L 209.447917 249.292482 
L 213.557468 246.883046 
L 217.66702 260.476671 
L 221.776571 245.837007 
L 225.886122 227.995271 
L 229.995673 230.832621 
L 234.105224 229.327571 
L 238.214776 230.054019 
L 242.324327 238.1218 
L 246.433878 224.918174 
L 250.543429 237.370299 
L 254.65298 236.367445 
L 258.762532 266.137626 
L 262.872083 250.477517 
L 266.981634 242.463555 
L 271.091185 226.803763 
L 275.200736 189.534988 
L 279.310288 231.104645 
L 283.419839 237.217509 
L 287.52939 190.104623 
L 291.638941 207.012918 
L 295.748493 200.369693 
L 299.858044 240.070707 
L 303.967595 195.87986 
L 308.077146 196.465673 
L 312.186697 183.865245 
L 316.296249 160.283134 
L 320.4058 144.575127 
L 324.515351 178.199546 
L 328.624902 162.748496 
L 332.734453 207.584562 
L 336.844005 195.701072 
L 340.953556 179.28725 
L 345.063107 194.409384 
L 349.172658 195.095564 
L 353.282209 191.921818 
L 357.391761 160.681187 
L 361.501312 148.097067 
L 365.610863 161.517487 
L 369.720414 189.658472 
L 373.829965 160.249291 
L 377.939517 149.881937 
L 382.049068 160.260009 
L 386.158619 172.952504 
L 390.26817 164.065629 
L 394.377722 188.34022 
L 398.487273 152.682875 
L 398.487273 56.108813 
L 398.487273 56.108813 
L 394.377722 64.407532 
L 390.26817 62.16719 
L 386.158619 69.05267 
L 382.049068 61.666209 
L 377.939517 54.147307 
L 373.829965 60.598372 
L 369.720414 64.425879 
L 365.610863 55.279744 
L 361.501312 55.665927 
L 357.391761 56.726703 
L 353.282209 67.704392 
L 349.172658 66.438753 
L 345.063107 66.072505 
L 340.953556 53.568 
L 336.844005 75.876212 
L 332.734453 62.262192 
L 328.624902 55.395582 
L 324.515351 61.902355 
L 320.4058 62.659746 
L 316.296249 59.414956 
L 312.186697 58.997171 
L 308.077146 70.991065 
L 303.967595 72.22655 
L 299.858044 82.421728 
L 295.748493 68.124491 
L 291.638941 70.90142 
L 287.52939 70.733826 
L 283.419839 90.897337 
L 279.310288 91.517581 
L 275.200736 70.26592 
L 271.091185 81.590885 
L 266.981634 93.942598 
L 262.872083 102.327208 
L 258.762532 117.026538 
L 254.65298 94.563119 
L 250.543429 105.717786 
L 246.433878 88.587304 
L 242.324327 96.986897 
L 238.214776 87.665186 
L 234.105224 103.820137 
L 229.995673 101.187937 
L 225.886122 86.016649 
L 221.776571 99.448474 
L 217.66702 106.997367 
L 213.557468 94.187065 
L 209.447917 109.15733 
L 205.338366 95.239422 
L 201.228815 95.932655 
L 197.119264 116.94742 
L 193.009712 93.173246 
L 188.900161 126.969873 
L 184.79061 149.786959 
L 180.681059 118.796826 
L 176.571507 125.470325 
L 172.461956 138.12431 
L 168.352405 140.201629 
L 164.242854 141.105973 
L 160.133303 86.678031 
L 156.023751 85.425638 
L 151.9142 105.369937 
L 147.804649 116.3422 
L 143.695098 127.088837 
L 139.585547 142.914162 
L 135.475995 164.406352 
L 131.366444 130.572825 
L 127.256893 146.043015 
L 123.147342 150.295654 
L 119.037791 157.038121 
L 114.928239 143.362481 
L 110.818688 141.803235 
L 106.709137 152.971928 
L 102.599586 148.767128 
L 98.490035 180.136331 
L 94.380483 166.807795 
L 90.270932 173.458583 
L 86.161381 201.429584 
L 82.05183 213.081311 
L 77.942278 196.617321 
L 73.832727 169.607644 
z
" clip-path="url(#pa8cab3677d)" style="fill: #ff7f0e; fill-opacity: 0.3"/>
   </g>
   <g id="matplotlib.axis_1">
    <g id="xtick_1">
     <g id="line2d_1">
      <defs>
       <path id="m33751de649" d="M 0 0 
L 0 3.5 
" style="stroke: #000000; stroke-width: 0.8"/>
      </defs>
      <g>
       <use xlink:href="#m33751de649" x="73.832727" y="307.584" style="stroke: #000000; stroke-width: 0.8"/>
      </g>
     </g>
     <g id="text_1">
      <!-- 0 -->
      <g transform="translate(70.651477 322.182437) scale(0.1 -0.1)">
       <defs>
        <path id="DejaVuSans-30" d="M 2034 4250 
Q 1547 4250 1301 3770 
Q 1056 3291 1056 2328 
Q 1056 1369 1301 889 
Q 1547 409 2034 409 
Q 2525 409 2770 889 
Q 3016 1369 3016 2328 
Q 3016 3291 2770 3770 
Q 2525 4250 2034 4250 
z
M 2034 4750 
Q 2819 4750 3233 4129 
Q 3647 3509 3647 2328 
Q 3647 1150 3233 529 
Q 2819 -91 2034 -91 
Q 1250 -91 836 529 
Q 422 1150 422 2328 
Q 422 3509 836 4129 
Q 1250 4750 2034 4750 
z
" transform="scale(0.015625)"/>
       </defs>
       <use xlink:href="#DejaVuSans-30"/>
      </g>
     </g>
    </g>
    <g id="xtick_2">
     <g id="line2d_2">
      <g>
       <use xlink:href="#m33751de649" x="114.928239" y="307.584" style="stroke: #000000; stroke-width: 0.8"/>
      </g>
     </g>
     <g id="text_2">
      <!-- 10 -->
      <g transform="translate(108.565739 322.182437) scale(0.1 -0.1)">
       <defs>
        <path id="DejaVuSans-31" d="M 794 531 
L 1825 531 
L 1825 4091 
L 703 3866 
L 703 4441 
L 1819 4666 
L 2450 4666 
L 2450 531 
L 3481 531 
L 3481 0 
L 794 0 
L 794 531 
z
" transform="scale(0.015625)"/>
       </defs>
       <use xlink:href="#DejaVuSans-31"/>
       <use xlink:href="#DejaVuSans-30" x="63.623047"/>
      </g>
     </g>
    </g>
    <g id="xtick_3">
     <g id="line2d_3">
      <g>
       <use xlink:href="#m33751de649" x="156.023751" y="307.584" style="stroke: #000000; stroke-width: 0.8"/>
      </g>
     </g>
     <g id="text_3">
      <!-- 20 -->
      <g transform="translate(149.661251 322.182437) scale(0.1 -0.1)">
       <defs>
        <path id="DejaVuSans-32" d="M 1228 531 
L 3431 531 
L 3431 0 
L 469 0 
L 469 531 
Q 828 903 1448 1529 
Q 2069 2156 2228 2338 
Q 2531 2678 2651 2914 
Q 2772 3150 2772 3378 
Q 2772 3750 2511 3984 
Q 2250 4219 1831 4219 
Q 1534 4219 1204 4116 
Q 875 4013 500 3803 
L 500 4441 
Q 881 4594 1212 4672 
Q 1544 4750 1819 4750 
Q 2544 4750 2975 4387 
Q 3406 4025 3406 3419 
Q 3406 3131 3298 2873 
Q 3191 2616 2906 2266 
Q 2828 2175 2409 1742 
Q 1991 1309 1228 531 
z
" transform="scale(0.015625)"/>
       </defs>
       <use xlink:href="#DejaVuSans-32"/>
       <use xlink:href="#DejaVuSans-30" x="63.623047"/>
      </g>
     </g>
    </g>
    <g id="xtick_4">
     <g id="line2d_4">
      <g>
       <use xlink:href="#m33751de649" x="197.119264" y="307.584" style="stroke: #000000; stroke-width: 0.8"/>
      </g>
     </g>
     <g id="text_4">
      <!-- 30 -->
      <g transform="translate(190.756764 322.182437) scale(0.1 -0.1)">
       <defs>
        <path id="DejaVuSans-33" d="M 2597 2516 
Q 3050 2419 3304 2112 
Q 3559 1806 3559 1356 
Q 3559 666 3084 287 
Q 2609 -91 1734 -91 
Q 1441 -91 1130 -33 
Q 819 25 488 141 
L 488 750 
Q 750 597 1062 519 
Q 1375 441 1716 441 
Q 2309 441 2620 675 
Q 2931 909 2931 1356 
Q 2931 1769 2642 2001 
Q 2353 2234 1838 2234 
L 1294 2234 
L 1294 2753 
L 1863 2753 
Q 2328 2753 2575 2939 
Q 2822 3125 2822 3475 
Q 2822 3834 2567 4026 
Q 2313 4219 1838 4219 
Q 1578 4219 1281 4162 
Q 984 4106 628 3988 
L 628 4550 
Q 988 4650 1302 4700 
Q 1616 4750 1894 4750 
Q 2613 4750 3031 4423 
Q 3450 4097 3450 3541 
Q 3450 3153 3228 2886 
Q 3006 2619 2597 2516 
z
" transform="scale(0.015625)"/>
       </defs>
       <use xlink:href="#DejaVuSans-33"/>
       <use xlink:href="#DejaVuSans-30" x="63.623047"/>
      </g>
     </g>
    </g>
    <g id="xtick_5">
     <g id="line2d_5">
      <g>
       <use xlink:href="#m33751de649" x="238.214776" y="307.584" style="stroke: #000000; stroke-width: 0.8"/>
      </g>
     </g>
     <g id="text_5">
      <!-- 40 -->
      <g transform="translate(231.852276 322.182437) scale(0.1 -0.1)">
       <defs>
        <path id="DejaVuSans-34" d="M 2419 4116 
L 825 1625 
L 2419 1625 
L 2419 4116 
z
M 2253 4666 
L 3047 4666 
L 3047 1625 
L 3713 1625 
L 3713 1100 
L 3047 1100 
L 3047 0 
L 2419 0 
L 2419 1100 
L 313 1100 
L 313 1709 
L 2253 4666 
z
" transform="scale(0.015625)"/>
       </defs>
       <use xlink:href="#DejaVuSans-34"/>
       <use xlink:href="#DejaVuSans-30" x="63.623047"/>
      </g>
     </g>
    </g>
    <g id="xtick_6">
     <g id="line2d_6">
      <g>
       <use xlink:href="#m33751de649" x="279.310288" y="307.584" style="stroke: #000000; stroke-width: 0.8"/>
      </g>
     </g>
     <g id="text_6">
      <!-- 50 -->
      <g transform="translate(272.947788 322.182437) scale(0.1 -0.1)">
       <defs>
        <path id="DejaVuSans-35" d="M 691 4666 
L 3169 4666 
L 3169 4134 
L 1269 4134 
L 1269 2991 
Q 1406 3038 1543 3061 
Q 1681 3084 1819 3084 
Q 2600 3084 3056 2656 
Q 3513 2228 3513 1497 
Q 3513 744 3044 326 
Q 2575 -91 1722 -91 
Q 1428 -91 1123 -41 
Q 819 9 494 109 
L 494 744 
Q 775 591 1075 516 
Q 1375 441 1709 441 
Q 2250 441 2565 725 
Q 2881 1009 2881 1497 
Q 2881 1984 2565 2268 
Q 2250 2553 1709 2553 
Q 1456 2553 1204 2497 
Q 953 2441 691 2322 
L 691 4666 
z
" transform="scale(0.015625)"/>
       </defs>
       <use xlink:href="#DejaVuSans-35"/>
       <use xlink:href="#DejaVuSans-30" x="63.623047"/>
      </g>
     </g>
    </g>
    <g id="xtick_7">
     <g id="line2d_7">
      <g>
       <use xlink:href="#m33751de649" x="320.4058" y="307.584" style="stroke: #000000; stroke-width: 0.8"/>
      </g>
     </g>
     <g id="text_7">
      <!-- 60 -->
      <g transform="translate(314.0433 322.182437) scale(0.1 -0.1)">
       <defs>
        <path id="DejaVuSans-36" d="M 2113 2584 
Q 1688 2584 1439 2293 
Q 1191 2003 1191 1497 
Q 1191 994 1439 701 
Q 1688 409 2113 409 
Q 2538 409 2786 701 
Q 3034 994 3034 1497 
Q 3034 2003 2786 2293 
Q 2538 2584 2113 2584 
z
M 3366 4563 
L 3366 3988 
Q 3128 4100 2886 4159 
Q 2644 4219 2406 4219 
Q 1781 4219 1451 3797 
Q 1122 3375 1075 2522 
Q 1259 2794 1537 2939 
Q 1816 3084 2150 3084 
Q 2853 3084 3261 2657 
Q 3669 2231 3669 1497 
Q 3669 778 3244 343 
Q 2819 -91 2113 -91 
Q 1303 -91 875 529 
Q 447 1150 447 2328 
Q 447 3434 972 4092 
Q 1497 4750 2381 4750 
Q 2619 4750 2861 4703 
Q 3103 4656 3366 4563 
z
" transform="scale(0.015625)"/>
       </defs>
       <use xlink:href="#DejaVuSans-36"/>
       <use xlink:href="#DejaVuSans-30" x="63.623047"/>
      </g>
     </g>
    </g>
    <g id="xtick_8">
     <g id="line2d_8">
      <g>
       <use xlink:href="#m33751de649" x="361.501312" y="307.584" style="stroke: #000000; stroke-width: 0.8"/>
      </g>
     </g>
     <g id="text_8">
      <!-- 70 -->
      <g transform="translate(355.138812 322.182437) scale(0.1 -0.1)">
       <defs>
        <path id="DejaVuSans-37" d="M 525 4666 
L 3525 4666 
L 3525 4397 
L 1831 0 
L 1172 0 
L 2766 4134 
L 525 4134 
L 525 4666 
z
" transform="scale(0.015625)"/>
       </defs>
       <use xlink:href="#DejaVuSans-37"/>
       <use xlink:href="#DejaVuSans-30" x="63.623047"/>
      </g>
     </g>
    </g>
    <g id="xtick_9">
     <g id="line2d_9">
      <g>
       <use xlink:href="#m33751de649" x="402.596824" y="307.584" style="stroke: #000000; stroke-width: 0.8"/>
      </g>
     </g>
     <g id="text_9">
      <!-- 80 -->
      <g transform="translate(396.234324 322.182437) scale(0.1 -0.1)">
       <defs>
        <path id="DejaVuSans-38" d="M 2034 2216 
Q 1584 2216 1326 1975 
Q 1069 1734 1069 1313 
Q 1069 891 1326 650 
Q 1584 409 2034 409 
Q 2484 409 2743 651 
Q 3003 894 3003 1313 
Q 3003 1734 2745 1975 
Q 2488 2216 2034 2216 
z
M 1403 2484 
Q 997 2584 770 2862 
Q 544 3141 544 3541 
Q 544 4100 942 4425 
Q 1341 4750 2034 4750 
Q 2731 4750 3128 4425 
Q 3525 4100 3525 3541 
Q 3525 3141 3298 2862 
Q 3072 2584 2669 2484 
Q 3125 2378 3379 2068 
Q 3634 1759 3634 1313 
Q 3634 634 3220 271 
Q 2806 -91 2034 -91 
Q 1263 -91 848 271 
Q 434 634 434 1313 
Q 434 1759 690 2068 
Q 947 2378 1403 2484 
z
M 1172 3481 
Q 1172 3119 1398 2916 
Q 1625 2713 2034 2713 
Q 2441 2713 2670 2916 
Q 2900 3119 2900 3481 
Q 2900 3844 2670 4047 
Q 2441 4250 2034 4250 
Q 1625 4250 1398 4047 
Q 1172 3844 1172 3481 
z
" transform="scale(0.015625)"/>
       </defs>
       <use xlink:href="#DejaVuSans-38"/>
       <use xlink:href="#DejaVuSans-30" x="63.623047"/>
      </g>
     </g>
    </g>
   </g>
   <g id="matplotlib.axis_2">
    <g id="ytick_1">
     <g id="line2d_10">
      <defs>
       <path id="m2646614cb5" d="M 0 0 
L -3.5 0 
" style="stroke: #000000; stroke-width: 0.8"/>
      </defs>
      <g>
       <use xlink:href="#m2646614cb5" x="57.6" y="294.183834" style="stroke: #000000; stroke-width: 0.8"/>
      </g>
     </g>
     <g id="text_10">
      <!-- −20 -->
      <g transform="translate(29.495313 297.983053) scale(0.1 -0.1)">
       <defs>
        <path id="DejaVuSans-2212" d="M 678 2272 
L 4684 2272 
L 4684 1741 
L 678 1741 
L 678 2272 
z
" transform="scale(0.015625)"/>
       </defs>
       <use xlink:href="#DejaVuSans-2212"/>
       <use xlink:href="#DejaVuSans-32" x="83.789062"/>
       <use xlink:href="#DejaVuSans-30" x="147.412109"/>
      </g>
     </g>
    </g>
    <g id="ytick_2">
     <g id="line2d_11">
      <g>
       <use xlink:href="#m2646614cb5" x="57.6" y="254.022784" style="stroke: #000000; stroke-width: 0.8"/>
      </g>
     </g>
     <g id="text_11">
      <!-- 0 -->
      <g transform="translate(44.2375 257.822003) scale(0.1 -0.1)">
       <use xlink:href="#DejaVuSans-30"/>
      </g>
     </g>
    </g>
    <g id="ytick_3">
     <g id="line2d_12">
      <g>
       <use xlink:href="#m2646614cb5" x="57.6" y="213.861733" style="stroke: #000000; stroke-width: 0.8"/>
      </g>
     </g>
     <g id="text_12">
      <!-- 20 -->
      <g transform="translate(37.875 217.660952) scale(0.1 -0.1)">
       <use xlink:href="#DejaVuSans-32"/>
       <use xlink:href="#DejaVuSans-30" x="63.623047"/>
      </g>
     </g>
    </g>
    <g id="ytick_4">
     <g id="line2d_13">
      <g>
       <use xlink:href="#m2646614cb5" x="57.6" y="173.700683" style="stroke: #000000; stroke-width: 0.8"/>
      </g>
     </g>
     <g id="text_13">
      <!-- 40 -->
      <g transform="translate(37.875 177.499902) scale(0.1 -0.1)">
       <use xlink:href="#DejaVuSans-34"/>
       <use xlink:href="#DejaVuSans-30" x="63.623047"/>
      </g>
     </g>
    </g>
    <g id="ytick_5">
     <g id="line2d_14">
      <g>
       <use xlink:href="#m2646614cb5" x="57.6" y="133.539633" style="stroke: #000000; stroke-width: 0.8"/>
      </g>
     </g>
     <g id="text_14">
      <!-- 60 -->
      <g transform="translate(37.875 137.338851) scale(0.1 -0.1)">
       <use xlink:href="#DejaVuSans-36"/>
       <use xlink:href="#DejaVuSans-30" x="63.623047"/>
      </g>
     </g>
    </g>
    <g id="ytick_6">
     <g id="line2d_15">
      <g>
       <use xlink:href="#m2646614cb5" x="57.6" y="93.378582" style="stroke: #000000; stroke-width: 0.8"/>
      </g>
     </g>
     <g id="text_15">
      <!-- 80 -->
      <g transform="translate(37.875 97.177801) scale(0.1 -0.1)">
       <use xlink:href="#DejaVuSans-38"/>
       <use xlink:href="#DejaVuSans-30" x="63.623047"/>
      </g>
     </g>
    </g>
    <g id="ytick_7">
     <g id="line2d_16">
      <g>
       <use xlink:href="#m2646614cb5" x="57.6" y="53.217532" style="stroke: #000000; stroke-width: 0.8"/>
      </g>
     </g>
     <g id="text_16">
      <!-- 100 -->
      <g transform="translate(31.5125 57.016751) scale(0.1 -0.1)">
       <use xlink:href="#DejaVuSans-31"/>
       <use xlink:href="#DejaVuSans-30" x="63.623047"/>
       <use xlink:href="#DejaVuSans-30" x="127.246094"/>
      </g>
     </g>
    </g>
   </g>
   <g id="line2d_17">
    <path d="M 73.832727 259.32375 
L 77.942278 257.674696 
L 82.05183 252.624097 
L 86.161381 250.66756 
L 90.270932 254.038827 
L 94.380483 248.940045 
L 98.490035 247.403671 
L 102.599586 244.352909 
L 106.709137 242.83868 
L 110.818688 243.433423 
L 114.928239 245.912266 
L 119.037791 240.249019 
L 123.147342 234.490779 
L 127.256893 237.156967 
L 131.366444 239.034717 
L 135.475995 242.671637 
L 139.585547 237.744166 
L 143.695098 241.584225 
L 147.804649 229.898202 
L 151.9142 223.987184 
L 156.023751 228.391639 
L 160.133303 237.357122 
L 164.242854 242.232984 
L 168.352405 242.048539 
L 172.461956 234.918399 
L 176.571507 238.132491 
L 180.681059 234.04813 
L 184.79061 232.845343 
L 188.900161 233.117226 
L 193.009712 229.610194 
L 197.119264 225.895995 
L 201.228815 223.509679 
L 205.338366 225.190788 
L 209.447917 224.931658 
L 213.557468 225.420283 
L 217.66702 228.049495 
L 221.776571 219.93797 
L 225.886122 223.297744 
L 229.995673 220.630439 
L 234.105224 218.58712 
L 238.214776 221.858183 
L 242.324327 222.865249 
L 246.433878 232.366707 
L 250.543429 225.528906 
L 254.65298 222.213749 
L 258.762532 224.917564 
L 262.872083 221.267862 
L 266.981634 222.517273 
L 271.091185 206.942597 
L 275.200736 211.291603 
L 279.310288 215.923532 
L 283.419839 207.850817 
L 287.52939 218.969236 
L 291.638941 218.520501 
L 295.748493 210.406814 
L 299.858044 212.176153 
L 303.967595 203.344528 
L 308.077146 206.78718 
L 312.186697 200.457369 
L 316.296249 187.313373 
L 320.4058 183.31467 
L 324.515351 194.115496 
L 328.624902 191.431714 
L 332.734453 208.491563 
L 336.844005 197.827393 
L 340.953556 197.837339 
L 345.063107 192.708896 
L 349.172658 192.374566 
L 353.282209 205.791514 
L 357.391761 190.102008 
L 361.501312 173.418396 
L 365.610863 170.111357 
L 369.720414 190.242104 
L 373.829965 172.884971 
L 377.939517 161.804435 
L 382.049068 168.777909 
L 386.158619 174.096501 
L 390.26817 174.604714 
L 394.377722 156.880773 
L 398.487273 173.057301 
" clip-path="url(#pa8cab3677d)" style="fill: none; stroke: #1f77b4; stroke-width: 1.5; stroke-linecap: square"/>
   </g>
   <g id="line2d_18">
    <path d="M 73.832727 232.201177 
L 77.942278 246.05266 
L 82.05183 248.69647 
L 86.161381 245.03001 
L 90.270932 233.674997 
L 94.380483 226.046804 
L 98.490035 233.455202 
L 102.599586 218.384243 
L 106.709137 221.116992 
L 110.818688 214.602007 
L 114.928239 215.468268 
L 119.037791 222.934462 
L 123.147342 219.781794 
L 127.256893 214.904231 
L 131.366444 203.147907 
L 135.475995 226.95643 
L 139.585547 210.613486 
L 143.695098 196.679396 
L 147.804649 190.492525 
L 151.9142 178.710898 
L 156.023751 162.897086 
L 160.133303 166.347278 
L 164.242854 209.885913 
L 168.352405 207.659506 
L 172.461956 210.265531 
L 176.571507 199.023987 
L 180.681059 191.186658 
L 184.79061 208.945234 
L 188.900161 197.091813 
L 193.009712 168.584717 
L 197.119264 183.641682 
L 201.228815 171.123246 
L 205.338366 170.541723 
L 209.447917 179.224906 
L 213.557468 170.535056 
L 217.66702 183.737019 
L 221.776571 172.642741 
L 225.886122 157.00596 
L 229.995673 166.010279 
L 234.105224 166.573854 
L 238.214776 158.859603 
L 242.324327 167.554349 
L 246.433878 156.752739 
L 250.543429 171.544043 
L 254.65298 165.465282 
L 258.762532 191.582082 
L 262.872083 176.402363 
L 266.981634 168.203077 
L 271.091185 154.197324 
L 275.200736 129.900454 
L 279.310288 161.311113 
L 283.419839 164.057423 
L 287.52939 130.419225 
L 291.638941 138.957169 
L 295.748493 134.247092 
L 299.858044 161.246217 
L 303.967595 134.053205 
L 308.077146 133.728369 
L 312.186697 121.431208 
L 316.296249 109.849045 
L 320.4058 103.617437 
L 324.515351 120.050951 
L 328.624902 109.072039 
L 332.734453 134.923377 
L 336.844005 135.788642 
L 340.953556 116.427625 
L 345.063107 130.240944 
L 349.172658 130.767158 
L 353.282209 129.813105 
L 357.391761 108.703945 
L 361.501312 101.881497 
L 365.610863 108.398616 
L 369.720414 127.042175 
L 373.829965 110.423832 
L 377.939517 102.014622 
L 382.049068 110.963109 
L 386.158619 121.002587 
L 390.26817 113.116409 
L 394.377722 126.373876 
L 398.487273 104.395844 
" clip-path="url(#pa8cab3677d)" style="fill: none; stroke: #ff7f0e; stroke-width: 1.5; stroke-linecap: square"/>
   </g>
   <g id="line2d_19">
    <path d="M 73.832727 158.09116 
L 77.942278 158.09116 
L 82.05183 158.09116 
L 86.161381 158.09116 
L 90.270932 158.09116 
L 94.380483 158.09116 
L 98.490035 158.09116 
L 102.599586 158.09116 
L 106.709137 158.09116 
L 110.818688 158.09116 
L 114.928239 158.09116 
L 119.037791 158.09116 
L 123.147342 139.950064 
L 127.256893 139.950064 
L 131.366444 139.950064 
L 135.475995 139.950064 
L 139.585547 139.950064 
L 143.695098 139.950064 
L 147.804649 138.650483 
L 151.9142 138.650483 
L 156.023751 138.382345 
L 160.133303 138.382345 
L 164.242854 138.382345 
L 168.352405 138.382345 
L 172.461956 138.382345 
L 176.571507 138.382345 
L 180.681059 138.382345 
L 184.79061 138.382345 
L 188.900161 138.382345 
L 193.009712 138.382345 
L 197.119264 138.382345 
L 201.228815 138.382345 
L 205.338366 138.382345 
L 209.447917 138.382345 
L 213.557468 138.382345 
L 217.66702 138.382345 
L 221.776571 138.382345 
L 225.886122 138.382345 
L 229.995673 121.245805 
L 234.105224 121.245805 
L 238.214776 121.245805 
L 242.324327 121.245805 
L 246.433878 82.471533 
L 250.543429 83.41693 
L 254.65298 83.41693 
L 258.762532 83.41693 
L 262.872083 83.41693 
L 266.981634 83.41693 
L 271.091185 83.41693 
L 275.200736 83.41693 
L 279.310288 83.41693 
L 283.419839 83.41693 
L 287.52939 83.41693 
L 291.638941 83.41693 
L 295.748493 83.41693 
L 299.858044 83.41693 
L 303.967595 83.41693 
L 308.077146 83.41693 
L 312.186697 83.41693 
L 316.296249 83.41693 
L 320.4058 83.41693 
L 324.515351 83.41693 
L 328.624902 83.41693 
L 332.734453 83.41693 
L 336.844005 83.41693 
L 340.953556 83.41693 
L 345.063107 83.41693 
L 349.172658 83.41693 
L 353.282209 83.41693 
L 357.391761 83.41693 
L 361.501312 83.41693 
L 365.610863 82.568776 
L 369.720414 83.41693 
L 373.829965 83.41693 
L 377.939517 82.78201 
L 382.049068 83.41693 
L 386.158619 83.41693 
L 390.26817 81.418284 
L 394.377722 77.819481 
L 398.487273 77.819481 
" clip-path="url(#pa8cab3677d)" style="fill: none; stroke-dasharray: 5.55,2.4; stroke-dashoffset: 0; stroke: #2ca02c; stroke-width: 1.5"/>
   </g>
   <g id="line2d_20">
    <path d="M 73.832727 70.024692 
L 77.942278 70.024692 
L 82.05183 70.024692 
L 86.161381 70.024692 
L 90.270932 70.024692 
L 94.380483 70.024692 
L 98.490035 70.024692 
L 102.599586 70.024692 
L 106.709137 70.024692 
L 110.818688 70.024692 
L 114.928239 70.024692 
L 119.037791 70.024692 
L 123.147342 70.024692 
L 127.256893 70.024692 
L 131.366444 70.024692 
L 135.475995 70.024692 
L 139.585547 70.024692 
L 143.695098 70.024692 
L 147.804649 70.024692 
L 151.9142 74.842902 
L 156.023751 73.620634 
L 160.133303 71.801158 
L 164.242854 74.520884 
L 168.352405 74.520884 
L 172.461956 74.520884 
L 176.571507 74.520884 
L 180.681059 74.520884 
L 184.79061 74.520884 
L 188.900161 74.520884 
L 193.009712 73.626463 
L 197.119264 74.520884 
L 201.228815 73.562045 
L 205.338366 68.393294 
L 209.447917 74.520884 
L 213.557468 72.249323 
L 217.66702 72.731256 
L 221.776571 74.520884 
L 225.886122 74.520884 
L 229.995673 74.520884 
L 234.105224 74.520884 
L 238.214776 74.520884 
L 242.324327 74.520884 
L 246.433878 74.520884 
L 250.543429 74.520884 
L 254.65298 74.520884 
L 258.762532 74.520884 
L 262.872083 74.520884 
L 266.981634 74.520884 
L 271.091185 74.520884 
L 275.200736 72.488378 
L 279.310288 75.801247 
L 283.419839 74.137164 
L 287.52939 75.801247 
L 291.638941 72.327708 
L 295.748493 75.801247 
L 299.858044 75.101029 
L 303.967595 73.410156 
L 308.077146 74.470409 
L 312.186697 68.713179 
L 316.296249 72.777457 
L 320.4058 71.703266 
L 324.515351 72.28309 
L 328.624902 69.535824 
L 332.734453 70.131279 
L 336.844005 71.175143 
L 340.953556 70.729243 
L 345.063107 71.72415 
L 349.172658 72.276844 
L 353.282209 70.720649 
L 357.391761 69.120476 
L 361.501312 70.010796 
L 365.610863 70.286325 
L 369.720414 72.965603 
L 373.829965 72.181229 
L 377.939517 70.299886 
L 382.049068 71.166218 
L 386.158619 72.030867 
L 390.26817 71.668163 
L 394.377722 70.507065 
L 398.487273 70.733695 
" clip-path="url(#pa8cab3677d)" style="fill: none; stroke-dasharray: 5.55,2.4; stroke-dashoffset: 0; stroke: #d62728; stroke-width: 1.5"/>
   </g>
   <g id="patch_3">
    <path d="M 57.6 307.584 
L 57.6 41.472 
" style="fill: none; stroke: #000000; stroke-width: 0.8; stroke-linejoin: miter; stroke-linecap: square"/>
   </g>
   <g id="patch_4">
    <path d="M 414.72 307.584 
L 414.72 41.472 
" style="fill: none; stroke: #000000; stroke-width: 0.8; stroke-linejoin: miter; stroke-linecap: square"/>
   </g>
   <g id="patch_5">
    <path d="M 57.6 307.584 
L 414.72 307.584 
" style="fill: none; stroke: #000000; stroke-width: 0.8; stroke-linejoin: miter; stroke-linecap: square"/>
   </g>
   <g id="patch_6">
    <path d="M 57.6 41.472 
L 414.72 41.472 
" style="fill: none; stroke: #000000; stroke-width: 0.8; stroke-linejoin: miter; stroke-linecap: square"/>
   </g>
   <g id="text_17">
    <!-- fitness on 5_incest -->
    <g transform="translate(180.24 35.472) scale(0.12 -0.12)">
     <defs>
      <path id="DejaVuSans-66" d="M 2375 4863 
L 2375 4384 
L 1825 4384 
Q 1516 4384 1395 4259 
Q 1275 4134 1275 3809 
L 1275 3500 
L 2222 3500 
L 2222 3053 
L 1275 3053 
L 1275 0 
L 697 0 
L 697 3053 
L 147 3053 
L 147 3500 
L 697 3500 
L 697 3744 
Q 697 4328 969 4595 
Q 1241 4863 1831 4863 
L 2375 4863 
z
" transform="scale(0.015625)"/>
      <path id="DejaVuSans-69" d="M 603 3500 
L 1178 3500 
L 1178 0 
L 603 0 
L 603 3500 
z
M 603 4863 
L 1178 4863 
L 1178 4134 
L 603 4134 
L 603 4863 
z
" transform="scale(0.015625)"/>
      <path id="DejaVuSans-74" d="M 1172 4494 
L 1172 3500 
L 2356 3500 
L 2356 3053 
L 1172 3053 
L 1172 1153 
Q 1172 725 1289 603 
Q 1406 481 1766 481 
L 2356 481 
L 2356 0 
L 1766 0 
Q 1100 0 847 248 
Q 594 497 594 1153 
L 594 3053 
L 172 3053 
L 172 3500 
L 594 3500 
L 594 4494 
L 1172 4494 
z
" transform="scale(0.015625)"/>
      <path id="DejaVuSans-6e" d="M 3513 2113 
L 3513 0 
L 2938 0 
L 2938 2094 
Q 2938 2591 2744 2837 
Q 2550 3084 2163 3084 
Q 1697 3084 1428 2787 
Q 1159 2491 1159 1978 
L 1159 0 
L 581 0 
L 581 3500 
L 1159 3500 
L 1159 2956 
Q 1366 3272 1645 3428 
Q 1925 3584 2291 3584 
Q 2894 3584 3203 3211 
Q 3513 2838 3513 2113 
z
" transform="scale(0.015625)"/>
      <path id="DejaVuSans-65" d="M 3597 1894 
L 3597 1613 
L 953 1613 
Q 991 1019 1311 708 
Q 1631 397 2203 397 
Q 2534 397 2845 478 
Q 3156 559 3463 722 
L 3463 178 
Q 3153 47 2828 -22 
Q 2503 -91 2169 -91 
Q 1331 -91 842 396 
Q 353 884 353 1716 
Q 353 2575 817 3079 
Q 1281 3584 2069 3584 
Q 2775 3584 3186 3129 
Q 3597 2675 3597 1894 
z
M 3022 2063 
Q 3016 2534 2758 2815 
Q 2500 3097 2075 3097 
Q 1594 3097 1305 2825 
Q 1016 2553 972 2059 
L 3022 2063 
z
" transform="scale(0.015625)"/>
      <path id="DejaVuSans-73" d="M 2834 3397 
L 2834 2853 
Q 2591 2978 2328 3040 
Q 2066 3103 1784 3103 
Q 1356 3103 1142 2972 
Q 928 2841 928 2578 
Q 928 2378 1081 2264 
Q 1234 2150 1697 2047 
L 1894 2003 
Q 2506 1872 2764 1633 
Q 3022 1394 3022 966 
Q 3022 478 2636 193 
Q 2250 -91 1575 -91 
Q 1294 -91 989 -36 
Q 684 19 347 128 
L 347 722 
Q 666 556 975 473 
Q 1284 391 1588 391 
Q 1994 391 2212 530 
Q 2431 669 2431 922 
Q 2431 1156 2273 1281 
Q 2116 1406 1581 1522 
L 1381 1569 
Q 847 1681 609 1914 
Q 372 2147 372 2553 
Q 372 3047 722 3315 
Q 1072 3584 1716 3584 
Q 2034 3584 2315 3537 
Q 2597 3491 2834 3397 
z
" transform="scale(0.015625)"/>
      <path id="DejaVuSans-20" transform="scale(0.015625)"/>
      <path id="DejaVuSans-6f" d="M 1959 3097 
Q 1497 3097 1228 2736 
Q 959 2375 959 1747 
Q 959 1119 1226 758 
Q 1494 397 1959 397 
Q 2419 397 2687 759 
Q 2956 1122 2956 1747 
Q 2956 2369 2687 2733 
Q 2419 3097 1959 3097 
z
M 1959 3584 
Q 2709 3584 3137 3096 
Q 3566 2609 3566 1747 
Q 3566 888 3137 398 
Q 2709 -91 1959 -91 
Q 1206 -91 779 398 
Q 353 888 353 1747 
Q 353 2609 779 3096 
Q 1206 3584 1959 3584 
z
" transform="scale(0.015625)"/>
      <path id="DejaVuSans-5f" d="M 3263 -1063 
L 3263 -1509 
L -63 -1509 
L -63 -1063 
L 3263 -1063 
z
" transform="scale(0.015625)"/>
      <path id="DejaVuSans-63" d="M 3122 3366 
L 3122 2828 
Q 2878 2963 2633 3030 
Q 2388 3097 2138 3097 
Q 1578 3097 1268 2742 
Q 959 2388 959 1747 
Q 959 1106 1268 751 
Q 1578 397 2138 397 
Q 2388 397 2633 464 
Q 2878 531 3122 666 
L 3122 134 
Q 2881 22 2623 -34 
Q 2366 -91 2075 -91 
Q 1284 -91 818 406 
Q 353 903 353 1747 
Q 353 2603 823 3093 
Q 1294 3584 2113 3584 
Q 2378 3584 2631 3529 
Q 2884 3475 3122 3366 
z
" transform="scale(0.015625)"/>
     </defs>
     <use xlink:href="#DejaVuSans-66"/>
     <use xlink:href="#DejaVuSans-69" x="35.205078"/>
     <use xlink:href="#DejaVuSans-74" x="62.988281"/>
     <use xlink:href="#DejaVuSans-6e" x="102.197266"/>
     <use xlink:href="#DejaVuSans-65" x="165.576172"/>
     <use xlink:href="#DejaVuSans-73" x="227.099609"/>
     <use xlink:href="#DejaVuSans-73" x="279.199219"/>
     <use xlink:href="#DejaVuSans-20" x="331.298828"/>
     <use xlink:href="#DejaVuSans-6f" x="363.085938"/>
     <use xlink:href="#DejaVuSans-6e" x="424.267578"/>
     <use xlink:href="#DejaVuSans-20" x="487.646484"/>
     <use xlink:href="#DejaVuSans-35" x="519.433594"/>
     <use xlink:href="#DejaVuSans-5f" x="583.056641"/>
     <use xlink:href="#DejaVuSans-69" x="633.056641"/>
     <use xlink:href="#DejaVuSans-6e" x="660.839844"/>
     <use xlink:href="#DejaVuSans-63" x="724.21875"/>
     <use xlink:href="#DejaVuSans-65" x="779.199219"/>
     <use xlink:href="#DejaVuSans-73" x="840.722656"/>
     <use xlink:href="#DejaVuSans-74" x="892.822266"/>
    </g>
   </g>
   <g id="legend_1">
    <g id="patch_7">
     <path d="M 334.555938 302.584 
L 407.72 302.584 
Q 409.72 302.584 409.72 300.584 
L 409.72 242.8715 
Q 409.72 240.8715 407.72 240.8715 
L 334.555938 240.8715 
Q 332.555938 240.8715 332.555938 242.8715 
L 332.555938 300.584 
Q 332.555938 302.584 334.555938 302.584 
z
" style="fill: #ffffff; opacity: 0.8; stroke: #cccccc; stroke-linejoin: miter"/>
    </g>
    <g id="line2d_21">
     <path d="M 336.555938 248.969937 
L 346.555938 248.969937 
L 356.555938 248.969937 
" style="fill: none; stroke: #1f77b4; stroke-width: 1.5; stroke-linecap: square"/>
    </g>
    <g id="text_18">
     <!-- enemyA -->
     <g transform="translate(364.555938 252.469937) scale(0.1 -0.1)">
      <defs>
       <path id="DejaVuSans-6d" d="M 3328 2828 
Q 3544 3216 3844 3400 
Q 4144 3584 4550 3584 
Q 5097 3584 5394 3201 
Q 5691 2819 5691 2113 
L 5691 0 
L 5113 0 
L 5113 2094 
Q 5113 2597 4934 2840 
Q 4756 3084 4391 3084 
Q 3944 3084 3684 2787 
Q 3425 2491 3425 1978 
L 3425 0 
L 2847 0 
L 2847 2094 
Q 2847 2600 2669 2842 
Q 2491 3084 2119 3084 
Q 1678 3084 1418 2786 
Q 1159 2488 1159 1978 
L 1159 0 
L 581 0 
L 581 3500 
L 1159 3500 
L 1159 2956 
Q 1356 3278 1631 3431 
Q 1906 3584 2284 3584 
Q 2666 3584 2933 3390 
Q 3200 3197 3328 2828 
z
" transform="scale(0.015625)"/>
       <path id="DejaVuSans-79" d="M 2059 -325 
Q 1816 -950 1584 -1140 
Q 1353 -1331 966 -1331 
L 506 -1331 
L 506 -850 
L 844 -850 
Q 1081 -850 1212 -737 
Q 1344 -625 1503 -206 
L 1606 56 
L 191 3500 
L 800 3500 
L 1894 763 
L 2988 3500 
L 3597 3500 
L 2059 -325 
z
" transform="scale(0.015625)"/>
       <path id="DejaVuSans-41" d="M 2188 4044 
L 1331 1722 
L 3047 1722 
L 2188 4044 
z
M 1831 4666 
L 2547 4666 
L 4325 0 
L 3669 0 
L 3244 1197 
L 1141 1197 
L 716 0 
L 50 0 
L 1831 4666 
z
" transform="scale(0.015625)"/>
      </defs>
      <use xlink:href="#DejaVuSans-65"/>
      <use xlink:href="#DejaVuSans-6e" x="61.523438"/>
      <use xlink:href="#DejaVuSans-65" x="124.902344"/>
      <use xlink:href="#DejaVuSans-6d" x="186.425781"/>
      <use xlink:href="#DejaVuSans-79" x="283.837891"/>
      <use xlink:href="#DejaVuSans-41" x="343.017578"/>
     </g>
    </g>
    <g id="line2d_22">
     <path d="M 336.555938 263.648062 
L 346.555938 263.648062 
L 356.555938 263.648062 
" style="fill: none; stroke: #ff7f0e; stroke-width: 1.5; stroke-linecap: square"/>
    </g>
    <g id="text_19">
     <!-- enemyB -->
     <g transform="translate(364.555938 267.148062) scale(0.1 -0.1)">
      <defs>
       <path id="DejaVuSans-42" d="M 1259 2228 
L 1259 519 
L 2272 519 
Q 2781 519 3026 730 
Q 3272 941 3272 1375 
Q 3272 1813 3026 2020 
Q 2781 2228 2272 2228 
L 1259 2228 
z
M 1259 4147 
L 1259 2741 
L 2194 2741 
Q 2656 2741 2882 2914 
Q 3109 3088 3109 3444 
Q 3109 3797 2882 3972 
Q 2656 4147 2194 4147 
L 1259 4147 
z
M 628 4666 
L 2241 4666 
Q 2963 4666 3353 4366 
Q 3744 4066 3744 3513 
Q 3744 3084 3544 2831 
Q 3344 2578 2956 2516 
Q 3422 2416 3680 2098 
Q 3938 1781 3938 1306 
Q 3938 681 3513 340 
Q 3088 0 2303 0 
L 628 0 
L 628 4666 
z
" transform="scale(0.015625)"/>
      </defs>
      <use xlink:href="#DejaVuSans-65"/>
      <use xlink:href="#DejaVuSans-6e" x="61.523438"/>
      <use xlink:href="#DejaVuSans-65" x="124.902344"/>
      <use xlink:href="#DejaVuSans-6d" x="186.425781"/>
      <use xlink:href="#DejaVuSans-79" x="283.837891"/>
      <use xlink:href="#DejaVuSans-42" x="343.017578"/>
     </g>
    </g>
    <g id="line2d_23">
     <path d="M 336.555938 278.326187 
L 346.555938 278.326187 
L 356.555938 278.326187 
" style="fill: none; stroke-dasharray: 5.55,2.4; stroke-dashoffset: 0; stroke: #2ca02c; stroke-width: 1.5"/>
    </g>
    <g id="text_20">
     <!-- enemyA -->
     <g transform="translate(364.555938 281.826187) scale(0.1 -0.1)">
      <use xlink:href="#DejaVuSans-65"/>
      <use xlink:href="#DejaVuSans-6e" x="61.523438"/>
      <use xlink:href="#DejaVuSans-65" x="124.902344"/>
      <use xlink:href="#DejaVuSans-6d" x="186.425781"/>
      <use xlink:href="#DejaVuSans-79" x="283.837891"/>
      <use xlink:href="#DejaVuSans-41" x="343.017578"/>
     </g>
    </g>
    <g id="line2d_24">
     <path d="M 336.555938 293.004312 
L 346.555938 293.004312 
L 356.555938 293.004312 
" style="fill: none; stroke-dasharray: 5.55,2.4; stroke-dashoffset: 0; stroke: #d62728; stroke-width: 1.5"/>
    </g>
    <g id="text_21">
     <!-- enemyB -->
     <g transform="translate(364.555938 296.504312) scale(0.1 -0.1)">
      <use xlink:href="#DejaVuSans-65"/>
      <use xlink:href="#DejaVuSans-6e" x="61.523438"/>
      <use xlink:href="#DejaVuSans-65" x="124.902344"/>
      <use xlink:href="#DejaVuSans-6d" x="186.425781"/>
      <use xlink:href="#DejaVuSans-79" x="283.837891"/>
      <use xlink:href="#DejaVuSans-42" x="343.017578"/>
     </g>
    </g>
   </g>
  </g>
 </g>
 <defs>
  <clipPath id="pa8cab3677d">
   <rect x="57.6" y="41.472" width="357.12" height="266.112"/>
  </clipPath>
 </defs>
</svg>
