<?xml version="1.0" encoding="UTF-8" standalone="no"?>
<!DOCTYPE svg PUBLIC "-//W3C//DTD SVG 1.1//EN"
 "http://www.w3.org/Graphics/SVG/1.1/DTD/svg11.dtd">
<!-- Generated by graphviz version 2.43.0 (0)
 -->
<!-- Title: %3 Pages: 1 -->
<svg width="1184pt" height="351pt"
 viewBox="0.00 0.00 1184.28 350.76" xmlns="http://www.w3.org/2000/svg" xmlns:xlink="http://www.w3.org/1999/xlink">
<g id="graph0" class="graph" transform="scale(1 1) rotate(0) translate(4 346.76)">
<title>%3</title>
<polygon fill="white" stroke="transparent" points="-4,4 -4,-346.76 1180.28,-346.76 1180.28,4 -4,4"/>
<!-- x -->
<g id="node1" class="node">
<title>x</title>
<polygon fill="lightgray" stroke="black" points="22,-127.73 0,-127.73 0,-109.73 22,-109.73 22,-127.73"/>
<text text-anchor="middle" x="11" y="-116.53" font-family="Times,serif" font-size="9.00">x</text>
</g>
<!-- shoot -->
<g id="node24" class="node">
<title>shoot</title>
<ellipse fill="lightblue" stroke="black" cx="138" cy="-28.99" rx="28.98" ry="28.98"/>
<text text-anchor="middle" x="138" y="-26.79" font-family="Times,serif" font-size="9.00">shoot</text>
</g>
<!-- x&#45;&gt;shoot -->
<g id="edge1" class="edge">
<title>x&#45;&gt;shoot</title>
<path fill="none" stroke="red" stroke-width="0.3" d="M16.72,-109.66C20.43,-104.76 25.58,-98.59 31,-93.98 53.07,-75.21 81.32,-58.57 103.25,-46.97"/>
<polygon fill="red" stroke="red" stroke-width="0.3" points="104.96,-50.02 112.22,-42.31 101.74,-43.81 104.96,-50.02"/>
</g>
<!-- y -->
<g id="node2" class="node">
<title>y</title>
<polygon fill="lightgray" stroke="black" points="183,-323.48 161,-323.48 161,-305.48 183,-305.48 183,-323.48"/>
<text text-anchor="middle" x="172" y="-312.28" font-family="Times,serif" font-size="9.00">y</text>
</g>
<!-- p_d -->
<g id="node3" class="node">
<title>p_d</title>
<polygon fill="lightgray" stroke="black" points="234.5,-323.48 201.5,-323.48 201.5,-305.48 234.5,-305.48 234.5,-323.48"/>
<text text-anchor="middle" x="218" y="-312.28" font-family="Times,serif" font-size="9.00">p_d</text>
</g>
<!-- e_d -->
<g id="node4" class="node">
<title>e_d</title>
<polygon fill="lightgray" stroke="black" points="72,-127.73 40,-127.73 40,-109.73 72,-109.73 72,-127.73"/>
<text text-anchor="middle" x="56" y="-116.53" font-family="Times,serif" font-size="9.00">e_d</text>
</g>
<!-- e_d&#45;&gt;shoot -->
<g id="edge4" class="edge">
<title>e_d&#45;&gt;shoot</title>
<path fill="none" stroke="green" stroke-width="0.13" stroke-dasharray="1,5" d="M63.57,-109.63C74.39,-98.05 94.83,-76.18 111.56,-58.28"/>
<polygon fill="green" stroke="green" stroke-width="0.13" points="114.19,-60.59 118.46,-50.9 109.08,-55.81 114.19,-60.59"/>
</g>
<!-- b0_x -->
<g id="node5" class="node">
<title>b0_x</title>
<polygon fill="lightgray" stroke="black" points="291,-323.48 253,-323.48 253,-305.48 291,-305.48 291,-323.48"/>
<text text-anchor="middle" x="272" y="-312.28" font-family="Times,serif" font-size="9.00">b0_x</text>
</g>
<!-- b0_y -->
<g id="node6" class="node">
<title>b0_y</title>
<polygon fill="lightgray" stroke="black" points="347,-323.48 309,-323.48 309,-305.48 347,-305.48 347,-323.48"/>
<text text-anchor="middle" x="328" y="-312.28" font-family="Times,serif" font-size="9.00">b0_y</text>
</g>
<!-- b1_x -->
<g id="node7" class="node">
<title>b1_x</title>
<polygon fill="lightgray" stroke="black" points="403,-323.48 365,-323.48 365,-305.48 403,-305.48 403,-323.48"/>
<text text-anchor="middle" x="384" y="-312.28" font-family="Times,serif" font-size="9.00">b1_x</text>
</g>
<!-- jump -->
<g id="node23" class="node">
<title>jump</title>
<ellipse fill="lightblue" stroke="black" cx="453" cy="-214.84" rx="28.07" ry="28.07"/>
<text text-anchor="middle" x="453" y="-212.64" font-family="Times,serif" font-size="9.00">jump</text>
</g>
<!-- b1_x&#45;&gt;jump -->
<g id="edge10" class="edge">
<title>b1_x&#45;&gt;jump</title>
<path fill="none" stroke="green" stroke-width="0.4" d="M389.88,-305.15C398.95,-292.32 416.8,-267.05 431.22,-246.66"/>
<polygon fill="green" stroke="green" stroke-width="0.4" points="434.23,-248.46 437.15,-238.27 428.52,-244.42 434.23,-248.46"/>
</g>
<!-- release -->
<g id="node25" class="node">
<title>release</title>
<ellipse fill="lightblue" stroke="black" cx="371" cy="-214.84" rx="35.21" ry="35.21"/>
<text text-anchor="middle" x="371" y="-212.64" font-family="Times,serif" font-size="9.00">release</text>
</g>
<!-- b1_x&#45;&gt;release -->
<g id="edge9" class="edge">
<title>b1_x&#45;&gt;release</title>
<path fill="none" stroke="green" stroke-width="0.55" d="M382.89,-305.15C381.56,-295.14 379.22,-277.58 376.97,-260.66"/>
<polygon fill="green" stroke="green" stroke-width="0.55" points="380.38,-259.73 375.59,-250.28 373.44,-260.66 380.38,-259.73"/>
</g>
<!-- b1_y -->
<g id="node8" class="node">
<title>b1_y</title>
<polygon fill="lightgray" stroke="black" points="590,-323.48 552,-323.48 552,-305.48 590,-305.48 590,-323.48"/>
<text text-anchor="middle" x="571" y="-312.28" font-family="Times,serif" font-size="9.00">b1_y</text>
</g>
<!-- b2_x -->
<g id="node9" class="node">
<title>b2_x</title>
<polygon fill="lightgray" stroke="black" points="143,-323.48 105,-323.48 105,-305.48 143,-305.48 143,-323.48"/>
<text text-anchor="middle" x="124" y="-312.28" font-family="Times,serif" font-size="9.00">b2_x</text>
</g>
<!-- b2_x&#45;&gt;shoot -->
<g id="edge2" class="edge">
<title>b2_x&#45;&gt;shoot</title>
<path fill="none" stroke="green" stroke-width="0.33" stroke-dasharray="1,5" d="M124.4,-305.3C126.11,-270.74 132.79,-135.41 136.11,-68.24"/>
<polygon fill="green" stroke="green" stroke-width="0.33" points="139.62,-68.23 136.61,-58.07 132.62,-67.88 139.62,-68.23"/>
</g>
<!-- 44 -->
<g id="node27" class="node">
<title>44</title>
<ellipse fill="white" stroke="black" cx="170" cy="-214.84" rx="20.51" ry="20.51"/>
<text text-anchor="middle" x="170" y="-212.64" font-family="Times,serif" font-size="9.00">44</text>
</g>
<!-- b2_x&#45;&gt;44 -->
<g id="edge5" class="edge">
<title>b2_x&#45;&gt;44</title>
<path fill="none" stroke="red" stroke-width="0.22" d="M127.92,-305.15C134.37,-291.47 147.46,-263.67 157.34,-242.7"/>
<polygon fill="red" stroke="red" stroke-width="0.22" points="160.53,-244.16 161.62,-233.62 154.19,-241.17 160.53,-244.16"/>
</g>
<!-- b2_y -->
<g id="node10" class="node">
<title>b2_y</title>
<polygon fill="lightgray" stroke="black" points="646,-323.48 608,-323.48 608,-305.48 646,-305.48 646,-323.48"/>
<text text-anchor="middle" x="627" y="-312.28" font-family="Times,serif" font-size="9.00">b2_y</text>
</g>
<!-- b3_x -->
<g id="node11" class="node">
<title>b3_x</title>
<polygon fill="lightgray" stroke="black" points="339,-127.73 301,-127.73 301,-109.73 339,-109.73 339,-127.73"/>
<text text-anchor="middle" x="320" y="-116.53" font-family="Times,serif" font-size="9.00">b3_x</text>
</g>
<!-- b3_x&#45;&gt;shoot -->
<g id="edge15" class="edge">
<title>b3_x&#45;&gt;shoot</title>
<path fill="none" stroke="red" stroke-width="0.12" d="M311.71,-109.5C306.4,-104.55 299.18,-98.37 292,-93.98 254.5,-71.06 207.33,-52.82 175.14,-41.77"/>
<polygon fill="red" stroke="red" stroke-width="0.12" points="176.25,-38.46 165.65,-38.58 174.01,-45.09 176.25,-38.46"/>
</g>
<!-- b3_y -->
<g id="node12" class="node">
<title>b3_y</title>
<polygon fill="lightgray" stroke="black" points="702,-323.48 664,-323.48 664,-305.48 702,-305.48 702,-323.48"/>
<text text-anchor="middle" x="683" y="-312.28" font-family="Times,serif" font-size="9.00">b3_y</text>
</g>
<!-- b4_x -->
<g id="node13" class="node">
<title>b4_x</title>
<polygon fill="lightgray" stroke="black" points="758,-323.48 720,-323.48 720,-305.48 758,-305.48 758,-323.48"/>
<text text-anchor="middle" x="739" y="-312.28" font-family="Times,serif" font-size="9.00">b4_x</text>
</g>
<!-- b4_y -->
<g id="node14" class="node">
<title>b4_y</title>
<polygon fill="lightgray" stroke="black" points="814,-323.48 776,-323.48 776,-305.48 814,-305.48 814,-323.48"/>
<text text-anchor="middle" x="795" y="-312.28" font-family="Times,serif" font-size="9.00">b4_y</text>
</g>
<!-- b5_x -->
<g id="node15" class="node">
<title>b5_x</title>
<polygon fill="lightgray" stroke="black" points="472,-323.48 434,-323.48 434,-305.48 472,-305.48 472,-323.48"/>
<text text-anchor="middle" x="453" y="-312.28" font-family="Times,serif" font-size="9.00">b5_x</text>
</g>
<!-- b5_x&#45;&gt;jump -->
<g id="edge7" class="edge">
<title>b5_x&#45;&gt;jump</title>
<path fill="none" stroke="red" stroke-width="0.56" d="M453,-305.15C453,-293.71 453,-272.39 453,-253.45"/>
<polygon fill="red" stroke="red" stroke-width="0.56" points="456.5,-253.25 453,-243.25 449.5,-253.25 456.5,-253.25"/>
</g>
<!-- b5_y -->
<g id="node16" class="node">
<title>b5_y</title>
<polygon fill="lightgray" stroke="black" points="870,-323.48 832,-323.48 832,-305.48 870,-305.48 870,-323.48"/>
<text text-anchor="middle" x="851" y="-312.28" font-family="Times,serif" font-size="9.00">b5_y</text>
</g>
<!-- b6_x -->
<g id="node17" class="node">
<title>b6_x</title>
<polygon fill="lightgray" stroke="black" points="926,-323.48 888,-323.48 888,-305.48 926,-305.48 926,-323.48"/>
<text text-anchor="middle" x="907" y="-312.28" font-family="Times,serif" font-size="9.00">b6_x</text>
</g>
<!-- b6_y -->
<g id="node18" class="node">
<title>b6_y</title>
<polygon fill="lightgray" stroke="black" points="534,-323.48 496,-323.48 496,-305.48 534,-305.48 534,-323.48"/>
<text text-anchor="middle" x="515" y="-312.28" font-family="Times,serif" font-size="9.00">b6_y</text>
</g>
<!-- b6_y&#45;&gt;jump -->
<g id="edge3" class="edge">
<title>b6_y&#45;&gt;jump</title>
<path fill="none" stroke="red" stroke-width="0.2" d="M509.71,-305.15C501.7,-292.54 486.07,-267.91 473.24,-247.71"/>
<polygon fill="red" stroke="red" stroke-width="0.2" points="476.07,-245.64 467.76,-239.08 470.17,-249.4 476.07,-245.64"/>
</g>
<!-- 57 -->
<g id="node29" class="node">
<title>57</title>
<ellipse fill="white" stroke="black" cx="520" cy="-214.84" rx="20.51" ry="20.51"/>
<text text-anchor="middle" x="520" y="-212.64" font-family="Times,serif" font-size="9.00">57</text>
</g>
<!-- b6_y&#45;&gt;57 -->
<g id="edge8" class="edge">
<title>b6_y&#45;&gt;57</title>
<path fill="none" stroke="red" stroke-width="0.19" d="M515.43,-305.15C516.09,-292.11 517.42,-266.24 518.47,-245.68"/>
<polygon fill="red" stroke="red" stroke-width="0.19" points="521.98,-245.68 518.99,-235.51 514.99,-245.32 521.98,-245.68"/>
</g>
<!-- b7_x -->
<g id="node19" class="node">
<title>b7_x</title>
<polygon fill="lightgray" stroke="black" points="982,-323.48 944,-323.48 944,-305.48 982,-305.48 982,-323.48"/>
<text text-anchor="middle" x="963" y="-312.28" font-family="Times,serif" font-size="9.00">b7_x</text>
</g>
<!-- b7_y -->
<g id="node20" class="node">
<title>b7_y</title>
<polygon fill="lightgray" stroke="black" points="1038,-323.48 1000,-323.48 1000,-305.48 1038,-305.48 1038,-323.48"/>
<text text-anchor="middle" x="1019" y="-312.28" font-family="Times,serif" font-size="9.00">b7_y</text>
</g>
<!-- left -->
<g id="node21" class="node">
<title>left</title>
<ellipse fill="lightblue" stroke="black" cx="1079" cy="-314.48" rx="22.76" ry="22.76"/>
<text text-anchor="middle" x="1079" y="-312.28" font-family="Times,serif" font-size="9.00">left</text>
</g>
<!-- right -->
<g id="node22" class="node">
<title>right</title>
<ellipse fill="lightblue" stroke="black" cx="1148" cy="-314.48" rx="28.07" ry="28.07"/>
<text text-anchor="middle" x="1148" y="-312.28" font-family="Times,serif" font-size="9.00">right</text>
</g>
<!-- 313 -->
<g id="node26" class="node">
<title>313</title>
<ellipse fill="white" stroke="black" cx="191" cy="-118.73" rx="25" ry="25"/>
<text text-anchor="middle" x="191" y="-116.53" font-family="Times,serif" font-size="9.00">313</text>
</g>
<!-- 313&#45;&gt;shoot -->
<g id="edge14" class="edge">
<title>313&#45;&gt;shoot</title>
<path fill="none" stroke="green" stroke-width="0.22" d="M178.44,-96.94C172.35,-86.86 164.89,-74.51 158.05,-63.18"/>
<polygon fill="green" stroke="green" stroke-width="0.22" points="160.89,-61.12 152.73,-54.37 154.9,-64.74 160.89,-61.12"/>
</g>
<!-- 44&#45;&gt;shoot -->
<g id="edge6" class="edge">
<title>44&#45;&gt;shoot</title>
<path fill="none" stroke="red" stroke-width="0.22" stroke-dasharray="1,5" d="M166.33,-194.44C163.67,-180.32 160.04,-160.73 157,-143.48 152.57,-118.34 147.83,-90.03 144.19,-67.97"/>
<polygon fill="red" stroke="red" stroke-width="0.22" points="147.63,-67.3 142.55,-58 140.72,-68.43 147.63,-67.3"/>
</g>
<!-- 44&#45;&gt;313 -->
<g id="edge13" class="edge">
<title>44&#45;&gt;313</title>
<path fill="none" stroke="green" stroke-width="0.28" d="M174.35,-194.34C176.99,-182.5 180.44,-167.06 183.51,-153.31"/>
<polygon fill="green" stroke="green" stroke-width="0.28" points="187,-153.72 185.76,-143.2 180.17,-152.2 187,-153.72"/>
</g>
<!-- 176 -->
<g id="node28" class="node">
<title>176</title>
<ellipse fill="white" stroke="black" cx="258" cy="-118.73" rx="25" ry="25"/>
<text text-anchor="middle" x="258" y="-116.53" font-family="Times,serif" font-size="9.00">176</text>
</g>
<!-- 44&#45;&gt;176 -->
<g id="edge11" class="edge">
<title>44&#45;&gt;176</title>
<path fill="none" stroke="green" stroke-width="0.33" d="M183.75,-199.13C197.25,-184.7 218.11,-162.39 234.28,-145.09"/>
<polygon fill="green" stroke="green" stroke-width="0.33" points="237.07,-147.24 241.34,-137.54 231.96,-142.46 237.07,-147.24"/>
</g>
<!-- 176&#45;&gt;shoot -->
<g id="edge12" class="edge">
<title>176&#45;&gt;shoot</title>
<path fill="none" stroke="red" stroke-width="0.23" d="M238.45,-103.44C219.81,-89.81 191.41,-69.04 169.56,-53.07"/>
<polygon fill="red" stroke="red" stroke-width="0.23" points="171.38,-50.06 161.24,-46.98 167.25,-55.71 171.38,-50.06"/>
</g>
</g>
</svg>
