<?xml version="1.0" encoding="utf-8" standalone="no"?>
<!DOCTYPE svg PUBLIC "-//W3C//DTD SVG 1.1//EN"
  "http://www.w3.org/Graphics/SVG/1.1/DTD/svg11.dtd">
<svg xmlns:xlink="http://www.w3.org/1999/xlink" width="460.8pt" height="345.6pt" viewBox="0 0 460.8 345.6" xmlns="http://www.w3.org/2000/svg" version="1.1">
 <metadata>
  <rdf:RDF xmlns:dc="http://purl.org/dc/elements/1.1/" xmlns:cc="http://creativecommons.org/ns#" xmlns:rdf="http://www.w3.org/1999/02/22-rdf-syntax-ns#">
   <cc:Work>
    <dc:type rdf:resource="http://purl.org/dc/dcmitype/StillImage"/>
    <dc:date>2022-09-14T19:07:42.335410</dc:date>
    <dc:format>image/svg+xml</dc:format>
    <dc:creator>
     <cc:Agent>
      <dc:title>Matplotlib v3.5.3, https://matplotlib.org/</dc:title>
     </cc:Agent>
    </dc:creator>
   </cc:Work>
  </rdf:RDF>
 </metadata>
 <defs>
  <style type="text/css">*{stroke-linejoin: round; stroke-linecap: butt}</style>
 </defs>
 <g id="figure_1">
  <g id="patch_1">
   <path d="M 0 345.6 
L 460.8 345.6 
L 460.8 0 
L 0 0 
z
" style="fill: #ffffff"/>
  </g>
  <g id="axes_1">
   <g id="patch_2">
    <path d="M 57.6 307.584 
L 414.72 307.584 
L 414.72 41.472 
L 57.6 41.472 
z
" style="fill: #ffffff"/>
   </g>
   <g id="matplotlib.axis_1">
    <g id="xtick_1">
     <g id="line2d_1">
      <path d="M 73.832727 307.584 
L 73.832727 41.472 
" clip-path="url(#p648a06eda9)" style="fill: none; stroke: #b0b0b0; stroke-width: 0.8; stroke-linecap: square"/>
     </g>
     <g id="line2d_2">
      <defs>
       <path id="m2af82d0d90" d="M 0 0 
L 0 3.5 
" style="stroke: #000000; stroke-width: 0.8"/>
      </defs>
      <g>
       <use xlink:href="#m2af82d0d90" x="73.832727" y="307.584" style="stroke: #000000; stroke-width: 0.8"/>
      </g>
     </g>
     <g id="text_1">
      <!-- 0 -->
      <g transform="translate(70.651477 322.182437)scale(0.1 -0.1)">
       <defs>
        <path id="DejaVuSans-30" d="M 2034 4250 
Q 1547 4250 1301 3770 
Q 1056 3291 1056 2328 
Q 1056 1369 1301 889 
Q 1547 409 2034 409 
Q 2525 409 2770 889 
Q 3016 1369 3016 2328 
Q 3016 3291 2770 3770 
Q 2525 4250 2034 4250 
z
M 2034 4750 
Q 2819 4750 3233 4129 
Q 3647 3509 3647 2328 
Q 3647 1150 3233 529 
Q 2819 -91 2034 -91 
Q 1250 -91 836 529 
Q 422 1150 422 2328 
Q 422 3509 836 4129 
Q 1250 4750 2034 4750 
z
" transform="scale(0.015625)"/>
       </defs>
       <use xlink:href="#DejaVuSans-30"/>
      </g>
     </g>
    </g>
    <g id="xtick_2">
     <g id="line2d_3">
      <path d="M 114.618474 307.584 
L 114.618474 41.472 
" clip-path="url(#p648a06eda9)" style="fill: none; stroke: #b0b0b0; stroke-width: 0.8; stroke-linecap: square"/>
     </g>
     <g id="line2d_4">
      <g>
       <use xlink:href="#m2af82d0d90" x="114.618474" y="307.584" style="stroke: #000000; stroke-width: 0.8"/>
      </g>
     </g>
     <g id="text_2">
      <!-- 25 -->
      <g transform="translate(108.255974 322.182437)scale(0.1 -0.1)">
       <defs>
        <path id="DejaVuSans-32" d="M 1228 531 
L 3431 531 
L 3431 0 
L 469 0 
L 469 531 
Q 828 903 1448 1529 
Q 2069 2156 2228 2338 
Q 2531 2678 2651 2914 
Q 2772 3150 2772 3378 
Q 2772 3750 2511 3984 
Q 2250 4219 1831 4219 
Q 1534 4219 1204 4116 
Q 875 4013 500 3803 
L 500 4441 
Q 881 4594 1212 4672 
Q 1544 4750 1819 4750 
Q 2544 4750 2975 4387 
Q 3406 4025 3406 3419 
Q 3406 3131 3298 2873 
Q 3191 2616 2906 2266 
Q 2828 2175 2409 1742 
Q 1991 1309 1228 531 
z
" transform="scale(0.015625)"/>
        <path id="DejaVuSans-35" d="M 691 4666 
L 3169 4666 
L 3169 4134 
L 1269 4134 
L 1269 2991 
Q 1406 3038 1543 3061 
Q 1681 3084 1819 3084 
Q 2600 3084 3056 2656 
Q 3513 2228 3513 1497 
Q 3513 744 3044 326 
Q 2575 -91 1722 -91 
Q 1428 -91 1123 -41 
Q 819 9 494 109 
L 494 744 
Q 775 591 1075 516 
Q 1375 441 1709 441 
Q 2250 441 2565 725 
Q 2881 1009 2881 1497 
Q 2881 1984 2565 2268 
Q 2250 2553 1709 2553 
Q 1456 2553 1204 2497 
Q 953 2441 691 2322 
L 691 4666 
z
" transform="scale(0.015625)"/>
       </defs>
       <use xlink:href="#DejaVuSans-32"/>
       <use xlink:href="#DejaVuSans-35" x="63.623047"/>
      </g>
     </g>
    </g>
    <g id="xtick_3">
     <g id="line2d_5">
      <path d="M 155.404221 307.584 
L 155.404221 41.472 
" clip-path="url(#p648a06eda9)" style="fill: none; stroke: #b0b0b0; stroke-width: 0.8; stroke-linecap: square"/>
     </g>
     <g id="line2d_6">
      <g>
       <use xlink:href="#m2af82d0d90" x="155.404221" y="307.584" style="stroke: #000000; stroke-width: 0.8"/>
      </g>
     </g>
     <g id="text_3">
      <!-- 50 -->
      <g transform="translate(149.041721 322.182437)scale(0.1 -0.1)">
       <use xlink:href="#DejaVuSans-35"/>
       <use xlink:href="#DejaVuSans-30" x="63.623047"/>
      </g>
     </g>
    </g>
    <g id="xtick_4">
     <g id="line2d_7">
      <path d="M 196.189968 307.584 
L 196.189968 41.472 
" clip-path="url(#p648a06eda9)" style="fill: none; stroke: #b0b0b0; stroke-width: 0.8; stroke-linecap: square"/>
     </g>
     <g id="line2d_8">
      <g>
       <use xlink:href="#m2af82d0d90" x="196.189968" y="307.584" style="stroke: #000000; stroke-width: 0.8"/>
      </g>
     </g>
     <g id="text_4">
      <!-- 75 -->
      <g transform="translate(189.827468 322.182437)scale(0.1 -0.1)">
       <defs>
        <path id="DejaVuSans-37" d="M 525 4666 
L 3525 4666 
L 3525 4397 
L 1831 0 
L 1172 0 
L 2766 4134 
L 525 4134 
L 525 4666 
z
" transform="scale(0.015625)"/>
       </defs>
       <use xlink:href="#DejaVuSans-37"/>
       <use xlink:href="#DejaVuSans-35" x="63.623047"/>
      </g>
     </g>
    </g>
    <g id="xtick_5">
     <g id="line2d_9">
      <path d="M 236.975715 307.584 
L 236.975715 41.472 
" clip-path="url(#p648a06eda9)" style="fill: none; stroke: #b0b0b0; stroke-width: 0.8; stroke-linecap: square"/>
     </g>
     <g id="line2d_10">
      <g>
       <use xlink:href="#m2af82d0d90" x="236.975715" y="307.584" style="stroke: #000000; stroke-width: 0.8"/>
      </g>
     </g>
     <g id="text_5">
      <!-- 100 -->
      <g transform="translate(227.431965 322.182437)scale(0.1 -0.1)">
       <defs>
        <path id="DejaVuSans-31" d="M 794 531 
L 1825 531 
L 1825 4091 
L 703 3866 
L 703 4441 
L 1819 4666 
L 2450 4666 
L 2450 531 
L 3481 531 
L 3481 0 
L 794 0 
L 794 531 
z
" transform="scale(0.015625)"/>
       </defs>
       <use xlink:href="#DejaVuSans-31"/>
       <use xlink:href="#DejaVuSans-30" x="63.623047"/>
       <use xlink:href="#DejaVuSans-30" x="127.246094"/>
      </g>
     </g>
    </g>
    <g id="xtick_6">
     <g id="line2d_11">
      <path d="M 277.761462 307.584 
L 277.761462 41.472 
" clip-path="url(#p648a06eda9)" style="fill: none; stroke: #b0b0b0; stroke-width: 0.8; stroke-linecap: square"/>
     </g>
     <g id="line2d_12">
      <g>
       <use xlink:href="#m2af82d0d90" x="277.761462" y="307.584" style="stroke: #000000; stroke-width: 0.8"/>
      </g>
     </g>
     <g id="text_6">
      <!-- 125 -->
      <g transform="translate(268.217712 322.182437)scale(0.1 -0.1)">
       <use xlink:href="#DejaVuSans-31"/>
       <use xlink:href="#DejaVuSans-32" x="63.623047"/>
       <use xlink:href="#DejaVuSans-35" x="127.246094"/>
      </g>
     </g>
    </g>
    <g id="xtick_7">
     <g id="line2d_13">
      <path d="M 318.547209 307.584 
L 318.547209 41.472 
" clip-path="url(#p648a06eda9)" style="fill: none; stroke: #b0b0b0; stroke-width: 0.8; stroke-linecap: square"/>
     </g>
     <g id="line2d_14">
      <g>
       <use xlink:href="#m2af82d0d90" x="318.547209" y="307.584" style="stroke: #000000; stroke-width: 0.8"/>
      </g>
     </g>
     <g id="text_7">
      <!-- 150 -->
      <g transform="translate(309.003459 322.182437)scale(0.1 -0.1)">
       <use xlink:href="#DejaVuSans-31"/>
       <use xlink:href="#DejaVuSans-35" x="63.623047"/>
       <use xlink:href="#DejaVuSans-30" x="127.246094"/>
      </g>
     </g>
    </g>
    <g id="xtick_8">
     <g id="line2d_15">
      <path d="M 359.332956 307.584 
L 359.332956 41.472 
" clip-path="url(#p648a06eda9)" style="fill: none; stroke: #b0b0b0; stroke-width: 0.8; stroke-linecap: square"/>
     </g>
     <g id="line2d_16">
      <g>
       <use xlink:href="#m2af82d0d90" x="359.332956" y="307.584" style="stroke: #000000; stroke-width: 0.8"/>
      </g>
     </g>
     <g id="text_8">
      <!-- 175 -->
      <g transform="translate(349.789206 322.182437)scale(0.1 -0.1)">
       <use xlink:href="#DejaVuSans-31"/>
       <use xlink:href="#DejaVuSans-37" x="63.623047"/>
       <use xlink:href="#DejaVuSans-35" x="127.246094"/>
      </g>
     </g>
    </g>
    <g id="xtick_9">
     <g id="line2d_17">
      <path d="M 400.118703 307.584 
L 400.118703 41.472 
" clip-path="url(#p648a06eda9)" style="fill: none; stroke: #b0b0b0; stroke-width: 0.8; stroke-linecap: square"/>
     </g>
     <g id="line2d_18">
      <g>
       <use xlink:href="#m2af82d0d90" x="400.118703" y="307.584" style="stroke: #000000; stroke-width: 0.8"/>
      </g>
     </g>
     <g id="text_9">
      <!-- 200 -->
      <g transform="translate(390.574953 322.182437)scale(0.1 -0.1)">
       <use xlink:href="#DejaVuSans-32"/>
       <use xlink:href="#DejaVuSans-30" x="63.623047"/>
       <use xlink:href="#DejaVuSans-30" x="127.246094"/>
      </g>
     </g>
    </g>
    <g id="text_10">
     <!-- Generations -->
     <g transform="translate(205.662344 335.860562)scale(0.1 -0.1)">
      <defs>
       <path id="DejaVuSans-47" d="M 3809 666 
L 3809 1919 
L 2778 1919 
L 2778 2438 
L 4434 2438 
L 4434 434 
Q 4069 175 3628 42 
Q 3188 -91 2688 -91 
Q 1594 -91 976 548 
Q 359 1188 359 2328 
Q 359 3472 976 4111 
Q 1594 4750 2688 4750 
Q 3144 4750 3555 4637 
Q 3966 4525 4313 4306 
L 4313 3634 
Q 3963 3931 3569 4081 
Q 3175 4231 2741 4231 
Q 1884 4231 1454 3753 
Q 1025 3275 1025 2328 
Q 1025 1384 1454 906 
Q 1884 428 2741 428 
Q 3075 428 3337 486 
Q 3600 544 3809 666 
z
" transform="scale(0.015625)"/>
       <path id="DejaVuSans-65" d="M 3597 1894 
L 3597 1613 
L 953 1613 
Q 991 1019 1311 708 
Q 1631 397 2203 397 
Q 2534 397 2845 478 
Q 3156 559 3463 722 
L 3463 178 
Q 3153 47 2828 -22 
Q 2503 -91 2169 -91 
Q 1331 -91 842 396 
Q 353 884 353 1716 
Q 353 2575 817 3079 
Q 1281 3584 2069 3584 
Q 2775 3584 3186 3129 
Q 3597 2675 3597 1894 
z
M 3022 2063 
Q 3016 2534 2758 2815 
Q 2500 3097 2075 3097 
Q 1594 3097 1305 2825 
Q 1016 2553 972 2059 
L 3022 2063 
z
" transform="scale(0.015625)"/>
       <path id="DejaVuSans-6e" d="M 3513 2113 
L 3513 0 
L 2938 0 
L 2938 2094 
Q 2938 2591 2744 2837 
Q 2550 3084 2163 3084 
Q 1697 3084 1428 2787 
Q 1159 2491 1159 1978 
L 1159 0 
L 581 0 
L 581 3500 
L 1159 3500 
L 1159 2956 
Q 1366 3272 1645 3428 
Q 1925 3584 2291 3584 
Q 2894 3584 3203 3211 
Q 3513 2838 3513 2113 
z
" transform="scale(0.015625)"/>
       <path id="DejaVuSans-72" d="M 2631 2963 
Q 2534 3019 2420 3045 
Q 2306 3072 2169 3072 
Q 1681 3072 1420 2755 
Q 1159 2438 1159 1844 
L 1159 0 
L 581 0 
L 581 3500 
L 1159 3500 
L 1159 2956 
Q 1341 3275 1631 3429 
Q 1922 3584 2338 3584 
Q 2397 3584 2469 3576 
Q 2541 3569 2628 3553 
L 2631 2963 
z
" transform="scale(0.015625)"/>
       <path id="DejaVuSans-61" d="M 2194 1759 
Q 1497 1759 1228 1600 
Q 959 1441 959 1056 
Q 959 750 1161 570 
Q 1363 391 1709 391 
Q 2188 391 2477 730 
Q 2766 1069 2766 1631 
L 2766 1759 
L 2194 1759 
z
M 3341 1997 
L 3341 0 
L 2766 0 
L 2766 531 
Q 2569 213 2275 61 
Q 1981 -91 1556 -91 
Q 1019 -91 701 211 
Q 384 513 384 1019 
Q 384 1609 779 1909 
Q 1175 2209 1959 2209 
L 2766 2209 
L 2766 2266 
Q 2766 2663 2505 2880 
Q 2244 3097 1772 3097 
Q 1472 3097 1187 3025 
Q 903 2953 641 2809 
L 641 3341 
Q 956 3463 1253 3523 
Q 1550 3584 1831 3584 
Q 2591 3584 2966 3190 
Q 3341 2797 3341 1997 
z
" transform="scale(0.015625)"/>
       <path id="DejaVuSans-74" d="M 1172 4494 
L 1172 3500 
L 2356 3500 
L 2356 3053 
L 1172 3053 
L 1172 1153 
Q 1172 725 1289 603 
Q 1406 481 1766 481 
L 2356 481 
L 2356 0 
L 1766 0 
Q 1100 0 847 248 
Q 594 497 594 1153 
L 594 3053 
L 172 3053 
L 172 3500 
L 594 3500 
L 594 4494 
L 1172 4494 
z
" transform="scale(0.015625)"/>
       <path id="DejaVuSans-69" d="M 603 3500 
L 1178 3500 
L 1178 0 
L 603 0 
L 603 3500 
z
M 603 4863 
L 1178 4863 
L 1178 4134 
L 603 4134 
L 603 4863 
z
" transform="scale(0.015625)"/>
       <path id="DejaVuSans-6f" d="M 1959 3097 
Q 1497 3097 1228 2736 
Q 959 2375 959 1747 
Q 959 1119 1226 758 
Q 1494 397 1959 397 
Q 2419 397 2687 759 
Q 2956 1122 2956 1747 
Q 2956 2369 2687 2733 
Q 2419 3097 1959 3097 
z
M 1959 3584 
Q 2709 3584 3137 3096 
Q 3566 2609 3566 1747 
Q 3566 888 3137 398 
Q 2709 -91 1959 -91 
Q 1206 -91 779 398 
Q 353 888 353 1747 
Q 353 2609 779 3096 
Q 1206 3584 1959 3584 
z
" transform="scale(0.015625)"/>
       <path id="DejaVuSans-73" d="M 2834 3397 
L 2834 2853 
Q 2591 2978 2328 3040 
Q 2066 3103 1784 3103 
Q 1356 3103 1142 2972 
Q 928 2841 928 2578 
Q 928 2378 1081 2264 
Q 1234 2150 1697 2047 
L 1894 2003 
Q 2506 1872 2764 1633 
Q 3022 1394 3022 966 
Q 3022 478 2636 193 
Q 2250 -91 1575 -91 
Q 1294 -91 989 -36 
Q 684 19 347 128 
L 347 722 
Q 666 556 975 473 
Q 1284 391 1588 391 
Q 1994 391 2212 530 
Q 2431 669 2431 922 
Q 2431 1156 2273 1281 
Q 2116 1406 1581 1522 
L 1381 1569 
Q 847 1681 609 1914 
Q 372 2147 372 2553 
Q 372 3047 722 3315 
Q 1072 3584 1716 3584 
Q 2034 3584 2315 3537 
Q 2597 3491 2834 3397 
z
" transform="scale(0.015625)"/>
      </defs>
      <use xlink:href="#DejaVuSans-47"/>
      <use xlink:href="#DejaVuSans-65" x="77.490234"/>
      <use xlink:href="#DejaVuSans-6e" x="139.013672"/>
      <use xlink:href="#DejaVuSans-65" x="202.392578"/>
      <use xlink:href="#DejaVuSans-72" x="263.916016"/>
      <use xlink:href="#DejaVuSans-61" x="305.029297"/>
      <use xlink:href="#DejaVuSans-74" x="366.308594"/>
      <use xlink:href="#DejaVuSans-69" x="405.517578"/>
      <use xlink:href="#DejaVuSans-6f" x="433.300781"/>
      <use xlink:href="#DejaVuSans-6e" x="494.482422"/>
      <use xlink:href="#DejaVuSans-73" x="557.861328"/>
     </g>
    </g>
   </g>
   <g id="matplotlib.axis_2">
    <g id="ytick_1">
     <g id="line2d_19">
      <path d="M 57.6 267.172681 
L 414.72 267.172681 
" clip-path="url(#p648a06eda9)" style="fill: none; stroke: #b0b0b0; stroke-width: 0.8; stroke-linecap: square"/>
     </g>
     <g id="line2d_20">
      <defs>
       <path id="m38035bdfb0" d="M 0 0 
L -3.5 0 
" style="stroke: #000000; stroke-width: 0.8"/>
      </defs>
      <g>
       <use xlink:href="#m38035bdfb0" x="57.6" y="267.172681" style="stroke: #000000; stroke-width: 0.8"/>
      </g>
     </g>
     <g id="text_11">
      <!-- 0 -->
      <g transform="translate(44.2375 270.971899)scale(0.1 -0.1)">
       <use xlink:href="#DejaVuSans-30"/>
      </g>
     </g>
    </g>
    <g id="ytick_2">
     <g id="line2d_21">
      <path d="M 57.6 226.028573 
L 414.72 226.028573 
" clip-path="url(#p648a06eda9)" style="fill: none; stroke: #b0b0b0; stroke-width: 0.8; stroke-linecap: square"/>
     </g>
     <g id="line2d_22">
      <g>
       <use xlink:href="#m38035bdfb0" x="57.6" y="226.028573" style="stroke: #000000; stroke-width: 0.8"/>
      </g>
     </g>
     <g id="text_12">
      <!-- 20 -->
      <g transform="translate(37.875 229.827792)scale(0.1 -0.1)">
       <use xlink:href="#DejaVuSans-32"/>
       <use xlink:href="#DejaVuSans-30" x="63.623047"/>
      </g>
     </g>
    </g>
    <g id="ytick_3">
     <g id="line2d_23">
      <path d="M 57.6 184.884466 
L 414.72 184.884466 
" clip-path="url(#p648a06eda9)" style="fill: none; stroke: #b0b0b0; stroke-width: 0.8; stroke-linecap: square"/>
     </g>
     <g id="line2d_24">
      <g>
       <use xlink:href="#m38035bdfb0" x="57.6" y="184.884466" style="stroke: #000000; stroke-width: 0.8"/>
      </g>
     </g>
     <g id="text_13">
      <!-- 40 -->
      <g transform="translate(37.875 188.683685)scale(0.1 -0.1)">
       <defs>
        <path id="DejaVuSans-34" d="M 2419 4116 
L 825 1625 
L 2419 1625 
L 2419 4116 
z
M 2253 4666 
L 3047 4666 
L 3047 1625 
L 3713 1625 
L 3713 1100 
L 3047 1100 
L 3047 0 
L 2419 0 
L 2419 1100 
L 313 1100 
L 313 1709 
L 2253 4666 
z
" transform="scale(0.015625)"/>
       </defs>
       <use xlink:href="#DejaVuSans-34"/>
       <use xlink:href="#DejaVuSans-30" x="63.623047"/>
      </g>
     </g>
    </g>
    <g id="ytick_4">
     <g id="line2d_25">
      <path d="M 57.6 143.740359 
L 414.72 143.740359 
" clip-path="url(#p648a06eda9)" style="fill: none; stroke: #b0b0b0; stroke-width: 0.8; stroke-linecap: square"/>
     </g>
     <g id="line2d_26">
      <g>
       <use xlink:href="#m38035bdfb0" x="57.6" y="143.740359" style="stroke: #000000; stroke-width: 0.8"/>
      </g>
     </g>
     <g id="text_14">
      <!-- 60 -->
      <g transform="translate(37.875 147.539578)scale(0.1 -0.1)">
       <defs>
        <path id="DejaVuSans-36" d="M 2113 2584 
Q 1688 2584 1439 2293 
Q 1191 2003 1191 1497 
Q 1191 994 1439 701 
Q 1688 409 2113 409 
Q 2538 409 2786 701 
Q 3034 994 3034 1497 
Q 3034 2003 2786 2293 
Q 2538 2584 2113 2584 
z
M 3366 4563 
L 3366 3988 
Q 3128 4100 2886 4159 
Q 2644 4219 2406 4219 
Q 1781 4219 1451 3797 
Q 1122 3375 1075 2522 
Q 1259 2794 1537 2939 
Q 1816 3084 2150 3084 
Q 2853 3084 3261 2657 
Q 3669 2231 3669 1497 
Q 3669 778 3244 343 
Q 2819 -91 2113 -91 
Q 1303 -91 875 529 
Q 447 1150 447 2328 
Q 447 3434 972 4092 
Q 1497 4750 2381 4750 
Q 2619 4750 2861 4703 
Q 3103 4656 3366 4563 
z
" transform="scale(0.015625)"/>
       </defs>
       <use xlink:href="#DejaVuSans-36"/>
       <use xlink:href="#DejaVuSans-30" x="63.623047"/>
      </g>
     </g>
    </g>
    <g id="ytick_5">
     <g id="line2d_27">
      <path d="M 57.6 102.596252 
L 414.72 102.596252 
" clip-path="url(#p648a06eda9)" style="fill: none; stroke: #b0b0b0; stroke-width: 0.8; stroke-linecap: square"/>
     </g>
     <g id="line2d_28">
      <g>
       <use xlink:href="#m38035bdfb0" x="57.6" y="102.596252" style="stroke: #000000; stroke-width: 0.8"/>
      </g>
     </g>
     <g id="text_15">
      <!-- 80 -->
      <g transform="translate(37.875 106.39547)scale(0.1 -0.1)">
       <defs>
        <path id="DejaVuSans-38" d="M 2034 2216 
Q 1584 2216 1326 1975 
Q 1069 1734 1069 1313 
Q 1069 891 1326 650 
Q 1584 409 2034 409 
Q 2484 409 2743 651 
Q 3003 894 3003 1313 
Q 3003 1734 2745 1975 
Q 2488 2216 2034 2216 
z
M 1403 2484 
Q 997 2584 770 2862 
Q 544 3141 544 3541 
Q 544 4100 942 4425 
Q 1341 4750 2034 4750 
Q 2731 4750 3128 4425 
Q 3525 4100 3525 3541 
Q 3525 3141 3298 2862 
Q 3072 2584 2669 2484 
Q 3125 2378 3379 2068 
Q 3634 1759 3634 1313 
Q 3634 634 3220 271 
Q 2806 -91 2034 -91 
Q 1263 -91 848 271 
Q 434 634 434 1313 
Q 434 1759 690 2068 
Q 947 2378 1403 2484 
z
M 1172 3481 
Q 1172 3119 1398 2916 
Q 1625 2713 2034 2713 
Q 2441 2713 2670 2916 
Q 2900 3119 2900 3481 
Q 2900 3844 2670 4047 
Q 2441 4250 2034 4250 
Q 1625 4250 1398 4047 
Q 1172 3844 1172 3481 
z
" transform="scale(0.015625)"/>
       </defs>
       <use xlink:href="#DejaVuSans-38"/>
       <use xlink:href="#DejaVuSans-30" x="63.623047"/>
      </g>
     </g>
    </g>
    <g id="ytick_6">
     <g id="line2d_29">
      <path d="M 57.6 61.452144 
L 414.72 61.452144 
" clip-path="url(#p648a06eda9)" style="fill: none; stroke: #b0b0b0; stroke-width: 0.8; stroke-linecap: square"/>
     </g>
     <g id="line2d_30">
      <g>
       <use xlink:href="#m38035bdfb0" x="57.6" y="61.452144" style="stroke: #000000; stroke-width: 0.8"/>
      </g>
     </g>
     <g id="text_16">
      <!-- 100 -->
      <g transform="translate(31.5125 65.251363)scale(0.1 -0.1)">
       <use xlink:href="#DejaVuSans-31"/>
       <use xlink:href="#DejaVuSans-30" x="63.623047"/>
       <use xlink:href="#DejaVuSans-30" x="127.246094"/>
      </g>
     </g>
    </g>
    <g id="text_17">
     <!-- Fitness -->
     <g transform="translate(25.432812 191.845187)rotate(-90)scale(0.1 -0.1)">
      <defs>
       <path id="DejaVuSans-46" d="M 628 4666 
L 3309 4666 
L 3309 4134 
L 1259 4134 
L 1259 2759 
L 3109 2759 
L 3109 2228 
L 1259 2228 
L 1259 0 
L 628 0 
L 628 4666 
z
" transform="scale(0.015625)"/>
      </defs>
      <use xlink:href="#DejaVuSans-46"/>
      <use xlink:href="#DejaVuSans-69" x="50.269531"/>
      <use xlink:href="#DejaVuSans-74" x="78.052734"/>
      <use xlink:href="#DejaVuSans-6e" x="117.261719"/>
      <use xlink:href="#DejaVuSans-65" x="180.640625"/>
      <use xlink:href="#DejaVuSans-73" x="242.164062"/>
      <use xlink:href="#DejaVuSans-73" x="294.263672"/>
     </g>
    </g>
   </g>
   <g id="line2d_31">
    <path d="M 73.832727 279.157959 
L 75.464157 279.041207 
L 77.095587 278.218503 
L 78.727017 276.991333 
L 80.358447 274.734417 
L 81.989877 265.593745 
L 83.621307 250.889348 
L 85.252736 211.955721 
L 86.884166 185.49362 
L 88.515596 156.238384 
L 90.147026 156.893748 
L 91.778456 189.296478 
L 93.409886 160.496751 
L 95.041316 191.405515 
L 96.672746 149.383229 
L 98.304175 157.476183 
L 99.935605 155.830611 
L 101.567035 130.639536 
L 103.198465 147.404923 
L 104.829895 175.745309 
L 106.461325 163.405519 
L 108.092755 181.313402 
L 109.724185 176.651229 
L 111.355614 174.052478 
L 112.987044 167.828491 
L 114.618474 165.105779 
L 116.249904 189.983479 
L 117.881334 151.497667 
L 119.512764 175.416613 
L 121.144194 200.996597 
L 122.775624 161.377117 
L 124.407053 145.638692 
L 126.038483 177.562771 
L 127.669913 157.449238 
L 129.301343 158.430432 
L 130.932773 149.594803 
L 132.564203 172.782773 
L 134.195633 179.399235 
L 135.827063 143.113604 
L 137.458492 193.05646 
L 139.089922 173.802256 
L 140.721352 131.049347 
L 142.352782 154.465654 
L 143.984212 150.447117 
L 145.615642 138.251692 
L 147.247072 180.132058 
L 148.878502 157.163796 
L 150.509931 160.081506 
L 152.141361 133.610038 
L 153.772791 194.732468 
L 155.404221 153.777029 
L 157.035651 152.442191 
L 158.667081 159.12226 
L 160.298511 147.972722 
L 161.929941 159.390081 
L 163.56137 137.895681 
L 165.1928 141.006816 
L 166.82423 148.919406 
L 168.45566 170.315753 
L 170.08709 145.831169 
L 171.71852 164.834078 
L 173.34995 135.365848 
L 174.98138 132.133735 
L 176.61281 172.767294 
L 178.244239 161.446227 
L 179.875669 152.685454 
L 181.507099 158.796313 
L 183.138529 186.825648 
L 184.769959 183.93085 
L 186.401389 171.468171 
L 188.032819 157.526251 
L 189.664249 180.463487 
L 191.295678 148.698896 
L 192.927108 180.595263 
L 194.558538 192.569325 
L 196.189968 136.592401 
L 199.452828 197.047484 
L 201.084258 177.687869 
L 202.715688 142.741552 
L 204.347117 158.689521 
L 205.978547 178.75708 
L 207.609977 141.686992 
L 209.241407 153.618244 
L 210.872837 118.763372 
L 212.504267 159.607793 
L 214.135697 163.286101 
L 215.767127 154.421108 
L 217.398556 172.313781 
L 219.029986 176.798018 
L 220.661416 175.689505 
L 222.292846 147.478173 
L 223.924276 142.381896 
L 225.555706 178.844493 
L 227.187136 166.070619 
L 228.818566 156.977707 
L 230.449995 122.682548 
L 232.081425 187.865611 
L 233.712855 160.576345 
L 235.344285 160.122713 
L 236.975715 146.755352 
L 238.607145 173.603527 
L 240.238575 179.719747 
L 241.870005 148.878289 
L 243.501434 150.28475 
L 245.132864 179.162715 
L 246.764294 149.965172 
L 248.395724 146.53533 
L 250.027154 155.143841 
L 251.658584 159.549887 
L 253.290014 165.753551 
L 254.921444 148.133458 
L 256.552873 152.517206 
L 258.184303 150.684938 
L 259.815733 181.144598 
L 261.447163 172.339933 
L 263.078593 166.875144 
L 264.710023 158.967171 
L 266.341453 213.158015 
L 267.972883 172.784468 
L 269.604312 170.798073 
L 271.235742 184.365911 
L 272.867172 181.543652 
L 274.498602 179.768247 
L 276.130032 155.737854 
L 277.761462 146.63996 
L 279.392892 142.112875 
L 281.024322 163.701025 
L 282.655751 175.820299 
L 284.287181 154.650415 
L 285.918611 158.817185 
L 287.550041 152.702017 
L 289.181471 164.754645 
L 290.812901 164.702225 
L 292.444331 150.692461 
L 294.075761 131.41733 
L 295.70719 170.181853 
L 297.33862 151.708113 
L 298.97005 155.780146 
L 300.60148 155.267639 
L 302.23291 179.420672 
L 303.86434 161.436119 
L 305.49577 180.58529 
L 307.1272 185.729076 
L 308.75863 141.368071 
L 310.390059 148.306652 
L 312.021489 138.223271 
L 313.652919 156.001105 
L 315.284349 162.881699 
L 316.915779 190.195686 
L 318.547209 134.342685 
L 320.178639 129.087977 
L 321.810069 201.004978 
L 323.441498 199.739614 
L 325.072928 139.712946 
L 326.704358 139.884896 
L 328.335788 146.599255 
L 329.967218 185.381062 
L 331.598648 144.046738 
L 333.230078 177.607341 
L 334.861508 151.763288 
L 336.492937 136.338111 
L 338.124367 172.281575 
L 339.755797 146.111099 
L 341.387227 187.326337 
L 343.018657 162.520186 
L 344.650087 160.034323 
L 346.281517 197.656008 
L 347.912947 140.295466 
L 349.544376 146.703802 
L 351.175806 150.61594 
L 352.807236 171.119525 
L 354.438666 168.517389 
L 356.070096 178.090158 
L 357.701526 164.561071 
L 359.332956 179.362317 
L 360.964386 148.730611 
L 362.595815 145.923464 
L 364.227245 156.35624 
L 365.858675 184.978152 
L 367.490105 173.642203 
L 369.121535 153.811608 
L 370.752965 175.81103 
L 372.384395 150.675897 
L 374.015825 187.579215 
L 375.647254 174.416911 
L 377.278684 156.489775 
L 378.910114 176.101581 
L 380.541544 138.210121 
L 382.172974 207.667017 
L 383.804404 183.579634 
L 385.435834 151.828236 
L 387.067264 178.869449 
L 388.698693 168.139744 
L 390.330123 127.475323 
L 391.961553 175.120513 
L 393.592983 140.104104 
L 395.224413 126.948137 
L 396.855843 154.687916 
L 398.487273 192.109021 
L 398.487273 192.109021 
" clip-path="url(#p648a06eda9)" style="fill: none; stroke: #0000ff; stroke-width: 1.5; stroke-linecap: square"/>
   </g>
   <g id="line2d_32">
    <path d="M 73.832727 279.157959 
L 75.464157 279.554292 
L 77.095587 279.372809 
L 78.727017 277.571836 
L 80.358447 286.505921 
L 81.989877 286.998127 
L 83.621307 295.488 
L 85.252736 290.807574 
L 86.884166 263.90262 
L 88.515596 233.27187 
L 90.147026 237.743343 
L 91.778456 277.139461 
L 93.409886 242.37219 
L 95.041316 275.751266 
L 96.672746 228.452427 
L 98.304175 232.220927 
L 99.935605 242.763065 
L 101.567035 202.567205 
L 103.198465 222.919535 
L 104.829895 266.264974 
L 106.461325 241.021874 
L 108.092755 270.705895 
L 109.724185 264.682887 
L 111.355614 257.485542 
L 112.987044 253.858031 
L 114.618474 252.187482 
L 116.249904 276.039962 
L 117.881334 232.514827 
L 119.512764 264.57047 
L 121.144194 293.373553 
L 122.775624 247.737762 
L 124.407053 233.34476 
L 126.038483 261.313763 
L 127.669913 247.822276 
L 129.301343 248.332461 
L 130.932773 230.258868 
L 132.564203 257.794715 
L 134.195633 265.70246 
L 135.827063 222.906661 
L 137.458492 278.34591 
L 139.089922 262.180137 
L 140.721352 206.250535 
L 142.352782 237.35694 
L 143.984212 235.680428 
L 145.615642 212.134309 
L 147.247072 273.174253 
L 148.878502 239.380625 
L 150.509931 236.806869 
L 152.141361 206.799128 
L 153.772791 277.932177 
L 155.404221 230.635602 
L 157.035651 234.408391 
L 158.667081 244.941015 
L 160.298511 224.649267 
L 161.929941 238.173485 
L 163.56137 211.092755 
L 165.1928 214.836836 
L 166.82423 222.27729 
L 168.45566 248.619434 
L 170.08709 224.903632 
L 171.71852 253.490382 
L 173.34995 205.049714 
L 174.98138 201.753038 
L 176.61281 258.279612 
L 178.244239 236.119967 
L 179.875669 237.386865 
L 181.507099 244.44643 
L 183.138529 274.307553 
L 184.769959 265.198396 
L 186.401389 254.508624 
L 188.032819 242.696742 
L 189.664249 264.84274 
L 191.295678 221.679095 
L 192.927108 259.622184 
L 194.558538 279.786677 
L 196.189968 204.831844 
L 197.821398 254.41675 
L 199.452828 282.429966 
L 201.084258 258.536186 
L 202.715688 217.283144 
L 204.347117 237.79457 
L 205.978547 262.130848 
L 207.609977 218.457481 
L 209.241407 233.137641 
L 210.872837 179.739548 
L 212.504267 232.867145 
L 214.135697 243.203938 
L 215.767127 227.791218 
L 217.398556 262.249687 
L 219.029986 269.719584 
L 220.661416 256.456604 
L 222.292846 209.836291 
L 223.924276 216.983093 
L 225.555706 257.363135 
L 228.818566 236.152644 
L 230.449995 177.113526 
L 232.081425 274.198438 
L 233.712855 245.685279 
L 235.344285 247.43471 
L 236.975715 217.520967 
L 238.607145 253.431153 
L 240.238575 265.792863 
L 241.870005 226.193895 
L 243.501434 227.700198 
L 245.132864 269.937313 
L 246.764294 225.875975 
L 248.395724 225.226016 
L 250.027154 242.941814 
L 251.658584 246.529378 
L 253.290014 244.31587 
L 254.921444 231.022655 
L 256.552873 220.289696 
L 258.184303 228.224247 
L 259.815733 260.772365 
L 261.447163 256.198585 
L 263.078593 249.327767 
L 264.710023 232.79996 
L 266.341453 292.716975 
L 267.972883 254.921474 
L 269.604312 249.493127 
L 271.235742 262.028041 
L 272.867172 269.123541 
L 274.498602 262.900479 
L 276.130032 231.116827 
L 277.761462 229.082344 
L 279.392892 219.987764 
L 281.024322 248.160045 
L 282.655751 264.346144 
L 284.287181 238.335435 
L 285.918611 244.677827 
L 287.550041 236.440033 
L 289.181471 244.522911 
L 290.812901 249.346235 
L 292.444331 234.35254 
L 294.075761 209.266661 
L 295.70719 250.664625 
L 297.33862 223.992116 
L 298.97005 239.137583 
L 300.60148 242.227512 
L 302.23291 266.220796 
L 303.86434 248.917044 
L 305.49577 263.519161 
L 307.1272 271.245682 
L 308.75863 213.623901 
L 310.390059 231.268709 
L 312.021489 213.121718 
L 313.652919 242.81035 
L 315.284349 249.692425 
L 316.915779 274.674606 
L 318.547209 202.357333 
L 320.178639 201.630452 
L 321.810069 284.468133 
L 323.441498 285.560431 
L 325.072928 212.89599 
L 326.704358 218.435557 
L 328.335788 227.132846 
L 329.967218 269.636652 
L 331.598648 219.812642 
L 333.230078 266.358047 
L 334.861508 234.467747 
L 336.492937 212.68758 
L 338.124367 257.746229 
L 339.755797 218.04779 
L 341.387227 279.159609 
L 343.018657 252.477453 
L 344.650087 246.424628 
L 346.281517 281.014021 
L 347.912947 210.708858 
L 349.544376 230.126311 
L 351.175806 235.338856 
L 352.807236 256.638514 
L 354.438666 257.293383 
L 356.070096 256.685927 
L 357.701526 243.709406 
L 359.332956 264.985492 
L 360.964386 225.792408 
L 362.595815 223.783236 
L 364.227245 235.271899 
L 365.858675 267.606296 
L 369.121535 235.654673 
L 370.752965 257.055302 
L 372.384395 238.258337 
L 374.015825 268.647696 
L 375.647254 262.272799 
L 377.278684 240.543897 
L 378.910114 261.848529 
L 380.541544 220.939297 
L 382.172974 290.287748 
L 383.804404 273.1399 
L 385.435834 230.415032 
L 387.067264 259.889745 
L 388.698693 249.718984 
L 390.330123 197.215258 
L 391.961553 252.629225 
L 393.592983 220.896292 
L 395.224413 196.158567 
L 396.855843 225.688474 
L 398.487273 276.458367 
L 398.487273 276.458367 
" clip-path="url(#p648a06eda9)" style="fill: none; stroke-dasharray: 9.6,2.4,1.5,2.4; stroke-dashoffset: 0; stroke: #008000; stroke-width: 1.5"/>
   </g>
   <g id="line2d_33">
    <path d="M 73.832727 279.157959 
L 75.464157 278.528122 
L 77.095587 277.064196 
L 78.727017 276.41083 
L 80.358447 262.962913 
L 81.989877 244.189364 
L 83.621307 206.290697 
L 85.252736 133.103868 
L 86.884166 107.084619 
L 88.515596 79.204897 
L 90.147026 76.044153 
L 91.778456 101.453494 
L 93.409886 78.621311 
L 95.041316 107.059763 
L 96.672746 70.314031 
L 98.304175 82.731439 
L 99.935605 68.898157 
L 101.567035 58.711867 
L 104.829895 85.225643 
L 106.461325 85.789163 
L 108.092755 91.92091 
L 109.724185 88.619571 
L 111.355614 90.619414 
L 112.987044 81.798951 
L 114.618474 78.024077 
L 116.249904 103.926996 
L 117.881334 70.480507 
L 119.512764 86.262757 
L 121.144194 108.619641 
L 122.775624 75.016473 
L 124.407053 57.932625 
L 126.038483 93.81178 
L 127.669913 67.0762 
L 129.301343 68.528403 
L 130.932773 68.930738 
L 132.564203 87.77083 
L 134.195633 93.096009 
L 135.827063 63.320546 
L 137.458492 107.767009 
L 139.089922 85.424375 
L 140.721352 55.848158 
L 142.352782 71.574368 
L 143.984212 65.213805 
L 145.615642 64.369074 
L 147.247072 87.089863 
L 148.878502 74.946966 
L 150.509931 83.356143 
L 152.141361 60.420949 
L 153.772791 111.53276 
L 155.404221 76.918455 
L 157.035651 70.475992 
L 158.667081 73.303504 
L 160.298511 71.296176 
L 161.929941 80.606677 
L 163.56137 64.698607 
L 165.1928 67.176795 
L 166.82423 75.561521 
L 168.45566 92.012071 
L 170.08709 66.758707 
L 171.71852 76.177774 
L 173.34995 65.681982 
L 174.98138 62.514433 
L 176.61281 87.254976 
L 178.244239 86.772487 
L 179.875669 67.984043 
L 181.507099 73.146196 
L 183.138529 99.343743 
L 184.769959 102.663305 
L 186.401389 88.427718 
L 188.032819 72.35576 
L 189.664249 96.084234 
L 191.295678 75.718696 
L 192.927108 101.568342 
L 194.558538 105.351973 
L 196.189968 68.352958 
L 197.821398 80.574537 
L 199.452828 111.665001 
L 201.084258 96.839553 
L 202.715688 68.19996 
L 204.347117 79.584472 
L 205.978547 95.383312 
L 207.609977 64.916502 
L 209.241407 74.098848 
L 210.872837 57.787196 
L 212.504267 86.348441 
L 214.135697 83.368264 
L 215.767127 81.050998 
L 217.398556 82.377875 
L 219.029986 83.876451 
L 220.661416 94.922406 
L 222.292846 85.120054 
L 223.924276 67.7807 
L 225.555706 100.325852 
L 227.187136 85.315515 
L 228.818566 77.802771 
L 230.449995 68.25157 
L 232.081425 101.532783 
L 233.712855 75.46741 
L 235.344285 72.810717 
L 236.975715 75.989737 
L 238.607145 93.775901 
L 240.238575 93.64663 
L 241.870005 71.562684 
L 243.501434 72.869303 
L 245.132864 88.388116 
L 246.764294 74.054368 
L 248.395724 67.844644 
L 250.027154 67.345868 
L 251.658584 72.570397 
L 253.290014 87.191232 
L 254.921444 65.244261 
L 256.552873 84.744716 
L 258.184303 73.145629 
L 259.815733 101.516831 
L 261.447163 88.48128 
L 263.078593 84.422522 
L 264.710023 85.134382 
L 266.341453 133.599055 
L 267.972883 90.647462 
L 269.604312 92.103019 
L 271.235742 106.703782 
L 272.867172 93.963764 
L 274.498602 96.636015 
L 277.761462 64.197575 
L 279.392892 64.237987 
L 281.024322 79.242005 
L 282.655751 87.294454 
L 284.287181 70.965395 
L 285.918611 72.956544 
L 287.550041 68.964001 
L 289.181471 84.986378 
L 290.812901 80.058216 
L 294.075761 53.568 
L 295.70719 89.699082 
L 297.33862 79.42411 
L 298.97005 72.422709 
L 300.60148 68.307765 
L 302.23291 92.620548 
L 303.86434 73.955194 
L 305.49577 97.651419 
L 307.1272 100.21247 
L 308.75863 69.112242 
L 310.390059 65.344595 
L 312.021489 63.324823 
L 313.652919 69.191861 
L 315.284349 76.070973 
L 316.915779 105.716767 
L 318.547209 66.328038 
L 320.178639 56.545501 
L 321.810069 117.541824 
L 323.441498 113.918796 
L 325.072928 66.529903 
L 326.704358 61.334235 
L 328.335788 66.065663 
L 329.967218 101.125472 
L 331.598648 68.280834 
L 333.230078 88.856635 
L 334.861508 69.05883 
L 336.492937 59.988641 
L 338.124367 86.816921 
L 339.755797 74.174408 
L 341.387227 95.493066 
L 343.018657 72.562918 
L 344.650087 73.644018 
L 346.281517 114.297996 
L 347.912947 69.882073 
L 349.544376 63.281292 
L 351.175806 65.893025 
L 352.807236 85.600536 
L 354.438666 79.741395 
L 356.070096 99.49439 
L 357.701526 85.412735 
L 359.332956 93.739141 
L 360.964386 71.668814 
L 362.595815 68.063693 
L 364.227245 77.440581 
L 365.858675 102.350009 
L 367.490105 95.746287 
L 369.121535 71.968544 
L 370.752965 94.566758 
L 372.384395 63.093457 
L 374.015825 106.510735 
L 375.647254 86.561023 
L 377.278684 72.435654 
L 378.910114 90.354632 
L 380.541544 55.480944 
L 382.172974 125.046287 
L 383.804404 94.019368 
L 385.435834 73.24144 
L 387.067264 97.849154 
L 388.698693 86.560503 
L 390.330123 57.735388 
L 391.961553 97.611802 
L 393.592983 59.311916 
L 395.224413 57.737707 
L 396.855843 83.687359 
L 398.487273 107.759676 
L 398.487273 107.759676 
" clip-path="url(#p648a06eda9)" style="fill: none; stroke-dasharray: 9.6,2.4,1.5,2.4; stroke-dashoffset: 0; stroke: #008000; stroke-width: 1.5"/>
   </g>
   <g id="line2d_34">
    <path d="M 73.832727 279.157959 
L 75.464157 276.804786 
L 78.727017 276.804786 
L 80.358447 223.613415 
L 81.989877 223.613415 
L 83.621307 88.192685 
L 93.409886 88.171671 
L 134.195633 88.11601 
L 135.827063 86.979162 
L 145.615642 86.979162 
L 147.247072 86.824477 
L 148.878502 85.740696 
L 150.509931 85.740696 
L 152.141361 84.506373 
L 155.404221 82.860608 
L 157.035651 82.449167 
L 217.398556 82.449167 
L 219.029986 82.037726 
L 398.487273 82.037726 
L 398.487273 82.037726 
" clip-path="url(#p648a06eda9)" style="fill: none; stroke: #ff0000; stroke-width: 1.5; stroke-linecap: square"/>
   </g>
   <g id="patch_3">
    <path d="M 57.6 307.584 
L 57.6 41.472 
" style="fill: none; stroke: #000000; stroke-width: 0.8; stroke-linejoin: miter; stroke-linecap: square"/>
   </g>
   <g id="patch_4">
    <path d="M 414.72 307.584 
L 414.72 41.472 
" style="fill: none; stroke: #000000; stroke-width: 0.8; stroke-linejoin: miter; stroke-linecap: square"/>
   </g>
   <g id="patch_5">
    <path d="M 57.6 307.584 
L 414.72 307.584 
" style="fill: none; stroke: #000000; stroke-width: 0.8; stroke-linejoin: miter; stroke-linecap: square"/>
   </g>
   <g id="patch_6">
    <path d="M 57.6 41.472 
L 414.72 41.472 
" style="fill: none; stroke: #000000; stroke-width: 0.8; stroke-linejoin: miter; stroke-linecap: square"/>
   </g>
   <g id="text_18">
    <!-- Population's average and best fitness -->
    <g transform="translate(123.529687 35.472)scale(0.12 -0.12)">
     <defs>
      <path id="DejaVuSans-50" d="M 1259 4147 
L 1259 2394 
L 2053 2394 
Q 2494 2394 2734 2622 
Q 2975 2850 2975 3272 
Q 2975 3691 2734 3919 
Q 2494 4147 2053 4147 
L 1259 4147 
z
M 628 4666 
L 2053 4666 
Q 2838 4666 3239 4311 
Q 3641 3956 3641 3272 
Q 3641 2581 3239 2228 
Q 2838 1875 2053 1875 
L 1259 1875 
L 1259 0 
L 628 0 
L 628 4666 
z
" transform="scale(0.015625)"/>
      <path id="DejaVuSans-70" d="M 1159 525 
L 1159 -1331 
L 581 -1331 
L 581 3500 
L 1159 3500 
L 1159 2969 
Q 1341 3281 1617 3432 
Q 1894 3584 2278 3584 
Q 2916 3584 3314 3078 
Q 3713 2572 3713 1747 
Q 3713 922 3314 415 
Q 2916 -91 2278 -91 
Q 1894 -91 1617 61 
Q 1341 213 1159 525 
z
M 3116 1747 
Q 3116 2381 2855 2742 
Q 2594 3103 2138 3103 
Q 1681 3103 1420 2742 
Q 1159 2381 1159 1747 
Q 1159 1113 1420 752 
Q 1681 391 2138 391 
Q 2594 391 2855 752 
Q 3116 1113 3116 1747 
z
" transform="scale(0.015625)"/>
      <path id="DejaVuSans-75" d="M 544 1381 
L 544 3500 
L 1119 3500 
L 1119 1403 
Q 1119 906 1312 657 
Q 1506 409 1894 409 
Q 2359 409 2629 706 
Q 2900 1003 2900 1516 
L 2900 3500 
L 3475 3500 
L 3475 0 
L 2900 0 
L 2900 538 
Q 2691 219 2414 64 
Q 2138 -91 1772 -91 
Q 1169 -91 856 284 
Q 544 659 544 1381 
z
M 1991 3584 
L 1991 3584 
z
" transform="scale(0.015625)"/>
      <path id="DejaVuSans-6c" d="M 603 4863 
L 1178 4863 
L 1178 0 
L 603 0 
L 603 4863 
z
" transform="scale(0.015625)"/>
      <path id="DejaVuSans-27" d="M 1147 4666 
L 1147 2931 
L 616 2931 
L 616 4666 
L 1147 4666 
z
" transform="scale(0.015625)"/>
      <path id="DejaVuSans-20" transform="scale(0.015625)"/>
      <path id="DejaVuSans-76" d="M 191 3500 
L 800 3500 
L 1894 563 
L 2988 3500 
L 3597 3500 
L 2284 0 
L 1503 0 
L 191 3500 
z
" transform="scale(0.015625)"/>
      <path id="DejaVuSans-67" d="M 2906 1791 
Q 2906 2416 2648 2759 
Q 2391 3103 1925 3103 
Q 1463 3103 1205 2759 
Q 947 2416 947 1791 
Q 947 1169 1205 825 
Q 1463 481 1925 481 
Q 2391 481 2648 825 
Q 2906 1169 2906 1791 
z
M 3481 434 
Q 3481 -459 3084 -895 
Q 2688 -1331 1869 -1331 
Q 1566 -1331 1297 -1286 
Q 1028 -1241 775 -1147 
L 775 -588 
Q 1028 -725 1275 -790 
Q 1522 -856 1778 -856 
Q 2344 -856 2625 -561 
Q 2906 -266 2906 331 
L 2906 616 
Q 2728 306 2450 153 
Q 2172 0 1784 0 
Q 1141 0 747 490 
Q 353 981 353 1791 
Q 353 2603 747 3093 
Q 1141 3584 1784 3584 
Q 2172 3584 2450 3431 
Q 2728 3278 2906 2969 
L 2906 3500 
L 3481 3500 
L 3481 434 
z
" transform="scale(0.015625)"/>
      <path id="DejaVuSans-64" d="M 2906 2969 
L 2906 4863 
L 3481 4863 
L 3481 0 
L 2906 0 
L 2906 525 
Q 2725 213 2448 61 
Q 2172 -91 1784 -91 
Q 1150 -91 751 415 
Q 353 922 353 1747 
Q 353 2572 751 3078 
Q 1150 3584 1784 3584 
Q 2172 3584 2448 3432 
Q 2725 3281 2906 2969 
z
M 947 1747 
Q 947 1113 1208 752 
Q 1469 391 1925 391 
Q 2381 391 2643 752 
Q 2906 1113 2906 1747 
Q 2906 2381 2643 2742 
Q 2381 3103 1925 3103 
Q 1469 3103 1208 2742 
Q 947 2381 947 1747 
z
" transform="scale(0.015625)"/>
      <path id="DejaVuSans-62" d="M 3116 1747 
Q 3116 2381 2855 2742 
Q 2594 3103 2138 3103 
Q 1681 3103 1420 2742 
Q 1159 2381 1159 1747 
Q 1159 1113 1420 752 
Q 1681 391 2138 391 
Q 2594 391 2855 752 
Q 3116 1113 3116 1747 
z
M 1159 2969 
Q 1341 3281 1617 3432 
Q 1894 3584 2278 3584 
Q 2916 3584 3314 3078 
Q 3713 2572 3713 1747 
Q 3713 922 3314 415 
Q 2916 -91 2278 -91 
Q 1894 -91 1617 61 
Q 1341 213 1159 525 
L 1159 0 
L 581 0 
L 581 4863 
L 1159 4863 
L 1159 2969 
z
" transform="scale(0.015625)"/>
      <path id="DejaVuSans-66" d="M 2375 4863 
L 2375 4384 
L 1825 4384 
Q 1516 4384 1395 4259 
Q 1275 4134 1275 3809 
L 1275 3500 
L 2222 3500 
L 2222 3053 
L 1275 3053 
L 1275 0 
L 697 0 
L 697 3053 
L 147 3053 
L 147 3500 
L 697 3500 
L 697 3744 
Q 697 4328 969 4595 
Q 1241 4863 1831 4863 
L 2375 4863 
z
" transform="scale(0.015625)"/>
     </defs>
     <use xlink:href="#DejaVuSans-50"/>
     <use xlink:href="#DejaVuSans-6f" x="56.677734"/>
     <use xlink:href="#DejaVuSans-70" x="117.859375"/>
     <use xlink:href="#DejaVuSans-75" x="181.335938"/>
     <use xlink:href="#DejaVuSans-6c" x="244.714844"/>
     <use xlink:href="#DejaVuSans-61" x="272.498047"/>
     <use xlink:href="#DejaVuSans-74" x="333.777344"/>
     <use xlink:href="#DejaVuSans-69" x="372.986328"/>
     <use xlink:href="#DejaVuSans-6f" x="400.769531"/>
     <use xlink:href="#DejaVuSans-6e" x="461.951172"/>
     <use xlink:href="#DejaVuSans-27" x="525.330078"/>
     <use xlink:href="#DejaVuSans-73" x="552.820312"/>
     <use xlink:href="#DejaVuSans-20" x="604.919922"/>
     <use xlink:href="#DejaVuSans-61" x="636.707031"/>
     <use xlink:href="#DejaVuSans-76" x="697.986328"/>
     <use xlink:href="#DejaVuSans-65" x="757.166016"/>
     <use xlink:href="#DejaVuSans-72" x="818.689453"/>
     <use xlink:href="#DejaVuSans-61" x="859.802734"/>
     <use xlink:href="#DejaVuSans-67" x="921.082031"/>
     <use xlink:href="#DejaVuSans-65" x="984.558594"/>
     <use xlink:href="#DejaVuSans-20" x="1046.082031"/>
     <use xlink:href="#DejaVuSans-61" x="1077.869141"/>
     <use xlink:href="#DejaVuSans-6e" x="1139.148438"/>
     <use xlink:href="#DejaVuSans-64" x="1202.527344"/>
     <use xlink:href="#DejaVuSans-20" x="1266.003906"/>
     <use xlink:href="#DejaVuSans-62" x="1297.791016"/>
     <use xlink:href="#DejaVuSans-65" x="1361.267578"/>
     <use xlink:href="#DejaVuSans-73" x="1422.791016"/>
     <use xlink:href="#DejaVuSans-74" x="1474.890625"/>
     <use xlink:href="#DejaVuSans-20" x="1514.099609"/>
     <use xlink:href="#DejaVuSans-66" x="1545.886719"/>
     <use xlink:href="#DejaVuSans-69" x="1581.091797"/>
     <use xlink:href="#DejaVuSans-74" x="1608.875"/>
     <use xlink:href="#DejaVuSans-6e" x="1648.083984"/>
     <use xlink:href="#DejaVuSans-65" x="1711.462891"/>
     <use xlink:href="#DejaVuSans-73" x="1772.986328"/>
     <use xlink:href="#DejaVuSans-73" x="1825.085938"/>
    </g>
   </g>
   <g id="legend_1">
    <g id="patch_7">
     <path d="M 334.779375 302.584 
L 407.72 302.584 
Q 409.72 302.584 409.72 300.584 
L 409.72 242.8715 
Q 409.72 240.8715 407.72 240.8715 
L 334.779375 240.8715 
Q 332.779375 240.8715 332.779375 242.8715 
L 332.779375 300.584 
Q 332.779375 302.584 334.779375 302.584 
z
" style="fill: #ffffff; opacity: 0.8; stroke: #cccccc; stroke-linejoin: miter"/>
    </g>
    <g id="line2d_35">
     <path d="M 336.779375 248.969937 
L 346.779375 248.969937 
L 356.779375 248.969937 
" style="fill: none; stroke: #0000ff; stroke-width: 1.5; stroke-linecap: square"/>
    </g>
    <g id="text_19">
     <!-- average -->
     <g transform="translate(364.779375 252.469937)scale(0.1 -0.1)">
      <use xlink:href="#DejaVuSans-61"/>
      <use xlink:href="#DejaVuSans-76" x="61.279297"/>
      <use xlink:href="#DejaVuSans-65" x="120.458984"/>
      <use xlink:href="#DejaVuSans-72" x="181.982422"/>
      <use xlink:href="#DejaVuSans-61" x="223.095703"/>
      <use xlink:href="#DejaVuSans-67" x="284.375"/>
      <use xlink:href="#DejaVuSans-65" x="347.851562"/>
     </g>
    </g>
    <g id="line2d_36">
     <path d="M 336.779375 263.648062 
L 346.779375 263.648062 
L 356.779375 263.648062 
" style="fill: none; stroke-dasharray: 9.6,2.4,1.5,2.4; stroke-dashoffset: 0; stroke: #008000; stroke-width: 1.5"/>
    </g>
    <g id="text_20">
     <!-- -1 sd -->
     <g transform="translate(364.779375 267.148062)scale(0.1 -0.1)">
      <defs>
       <path id="DejaVuSans-2d" d="M 313 2009 
L 1997 2009 
L 1997 1497 
L 313 1497 
L 313 2009 
z
" transform="scale(0.015625)"/>
      </defs>
      <use xlink:href="#DejaVuSans-2d"/>
      <use xlink:href="#DejaVuSans-31" x="36.083984"/>
      <use xlink:href="#DejaVuSans-20" x="99.707031"/>
      <use xlink:href="#DejaVuSans-73" x="131.494141"/>
      <use xlink:href="#DejaVuSans-64" x="183.59375"/>
     </g>
    </g>
    <g id="line2d_37">
     <path d="M 336.779375 278.326187 
L 346.779375 278.326187 
L 356.779375 278.326187 
" style="fill: none; stroke-dasharray: 9.6,2.4,1.5,2.4; stroke-dashoffset: 0; stroke: #008000; stroke-width: 1.5"/>
    </g>
    <g id="text_21">
     <!-- +1 sd -->
     <g transform="translate(364.779375 281.826187)scale(0.1 -0.1)">
      <defs>
       <path id="DejaVuSans-2b" d="M 2944 4013 
L 2944 2272 
L 4684 2272 
L 4684 1741 
L 2944 1741 
L 2944 0 
L 2419 0 
L 2419 1741 
L 678 1741 
L 678 2272 
L 2419 2272 
L 2419 4013 
L 2944 4013 
z
" transform="scale(0.015625)"/>
      </defs>
      <use xlink:href="#DejaVuSans-2b"/>
      <use xlink:href="#DejaVuSans-31" x="83.789062"/>
      <use xlink:href="#DejaVuSans-20" x="147.412109"/>
      <use xlink:href="#DejaVuSans-73" x="179.199219"/>
      <use xlink:href="#DejaVuSans-64" x="231.298828"/>
     </g>
    </g>
    <g id="line2d_38">
     <path d="M 336.779375 293.004312 
L 346.779375 293.004312 
L 356.779375 293.004312 
" style="fill: none; stroke: #ff0000; stroke-width: 1.5; stroke-linecap: square"/>
    </g>
    <g id="text_22">
     <!-- best -->
     <g transform="translate(364.779375 296.504312)scale(0.1 -0.1)">
      <use xlink:href="#DejaVuSans-62"/>
      <use xlink:href="#DejaVuSans-65" x="63.476562"/>
      <use xlink:href="#DejaVuSans-73" x="125"/>
      <use xlink:href="#DejaVuSans-74" x="177.099609"/>
     </g>
    </g>
   </g>
  </g>
 </g>
 <defs>
  <clipPath id="p648a06eda9">
   <rect x="57.6" y="41.472" width="357.12" height="266.112"/>
  </clipPath>
 </defs>
</svg>
