<?xml version="1.0" encoding="utf-8" standalone="no"?>
<!DOCTYPE svg PUBLIC "-//W3C//DTD SVG 1.1//EN"
  "http://www.w3.org/Graphics/SVG/1.1/DTD/svg11.dtd">
<svg xmlns:xlink="http://www.w3.org/1999/xlink" width="460.8pt" height="345.6pt" viewBox="0 0 460.8 345.6" xmlns="http://www.w3.org/2000/svg" version="1.1">
 <metadata>
  <rdf:RDF xmlns:dc="http://purl.org/dc/elements/1.1/" xmlns:cc="http://creativecommons.org/ns#" xmlns:rdf="http://www.w3.org/1999/02/22-rdf-syntax-ns#">
   <cc:Work>
    <dc:type rdf:resource="http://purl.org/dc/dcmitype/StillImage"/>
    <dc:date>2022-10-13T11:35:09.966261</dc:date>
    <dc:format>image/svg+xml</dc:format>
    <dc:creator>
     <cc:Agent>
      <dc:title>Matplotlib v3.6.0, https://matplotlib.org/</dc:title>
     </cc:Agent>
    </dc:creator>
   </cc:Work>
  </rdf:RDF>
 </metadata>
 <defs>
  <style type="text/css">*{stroke-linejoin: round; stroke-linecap: butt}</style>
 </defs>
 <g id="figure_1">
  <g id="patch_1">
   <path d="M 0 345.6 
L 460.8 345.6 
L 460.8 0 
L 0 0 
z
" style="fill: #ffffff"/>
  </g>
  <g id="axes_1">
   <g id="patch_2">
    <path d="M 57.6 307.584 
L 414.72 307.584 
L 414.72 41.472 
L 57.6 41.472 
z
" style="fill: #ffffff"/>
   </g>
   <g id="PolyCollection_1">
    <path d="M 73.832727 248.118063 
L 73.832727 265.487014 
L 77.942278 270.59742 
L 82.05183 268.395468 
L 86.161381 275.36121 
L 90.270932 268.11121 
L 94.380483 267.720504 
L 98.490035 263.199272 
L 102.599586 265.606489 
L 106.709137 270.748151 
L 110.818688 265.541123 
L 114.928239 271.704172 
L 119.037791 276.528958 
L 123.147342 275.519459 
L 127.256893 274.847799 
L 131.366444 272.292576 
L 135.475995 284.239626 
L 139.585547 276.306222 
L 143.695098 282.798114 
L 147.804649 280.656351 
L 151.9142 281.209838 
L 156.023751 281.529234 
L 160.133303 276.282842 
L 164.242854 282.453831 
L 168.352405 281.747416 
L 172.461956 278.652262 
L 176.571507 272.703304 
L 180.681059 277.375265 
L 184.79061 281.951673 
L 188.900161 277.575447 
L 193.009712 282.562687 
L 197.119264 276.882978 
L 201.228815 280.076184 
L 205.338366 282.088919 
L 209.447917 276.970186 
L 213.557468 274.50899 
L 217.66702 273.716472 
L 221.776571 278.596648 
L 225.886122 279.365057 
L 229.995673 282.276382 
L 234.105224 276.985194 
L 238.214776 278.634031 
L 242.324327 279.7584 
L 246.433878 282.972038 
L 250.543429 275.823944 
L 254.65298 279.334876 
L 258.762532 285.597458 
L 262.872083 283.324317 
L 266.981634 281.14889 
L 271.091185 282.714863 
L 275.200736 279.794383 
L 279.310288 282.074706 
L 283.419839 284.237218 
L 287.52939 282.250211 
L 291.638941 279.578193 
L 295.748493 284.492235 
L 299.858044 274.3542 
L 303.967595 275.55312 
L 308.077146 281.953831 
L 312.186697 283.861494 
L 316.296249 286.458341 
L 320.4058 283.911185 
L 324.515351 283.622791 
L 328.624902 281.28721 
L 332.734453 278.749852 
L 336.844005 285.91942 
L 340.953556 283.266659 
L 345.063107 282.580906 
L 349.172658 280.20531 
L 353.282209 282.715981 
L 357.391761 281.527165 
L 361.501312 282.169598 
L 365.610863 278.180861 
L 369.720414 272.859553 
L 373.829965 281.157995 
L 377.939517 282.442908 
L 382.049068 285.297301 
L 386.158619 280.899648 
L 390.26817 277.158539 
L 394.377722 274.40736 
L 398.487273 279.785133 
L 398.487273 183.742339 
L 398.487273 183.742339 
L 394.377722 176.244739 
L 390.26817 174.964 
L 386.158619 185.558328 
L 382.049068 188.623869 
L 377.939517 184.537137 
L 373.829965 188.517031 
L 369.720414 180.687362 
L 365.610863 183.557263 
L 361.501312 183.068703 
L 357.391761 183.85892 
L 353.282209 181.19214 
L 349.172658 175.504624 
L 345.063107 182.7436 
L 340.953556 175.427088 
L 336.844005 195.563063 
L 332.734453 182.626847 
L 328.624902 190.716764 
L 324.515351 185.295949 
L 320.4058 193.37429 
L 316.296249 196.24231 
L 312.186697 186.896038 
L 308.077146 189.336306 
L 303.967595 168.577256 
L 299.858044 176.820374 
L 295.748493 175.823855 
L 291.638941 182.665874 
L 287.52939 184.846946 
L 283.419839 177.93227 
L 279.310288 189.309633 
L 275.200736 183.526606 
L 271.091185 185.849539 
L 266.981634 191.162347 
L 262.872083 190.798341 
L 258.762532 193.201502 
L 254.65298 185.932211 
L 250.543429 173.137202 
L 246.433878 194.895634 
L 242.324327 194.648537 
L 238.214776 181.776668 
L 234.105224 191.566957 
L 229.995673 183.974647 
L 225.886122 190.699553 
L 221.776571 190.089695 
L 217.66702 166.07221 
L 213.557468 185.524531 
L 209.447917 182.776805 
L 205.338366 192.939117 
L 201.228815 184.900132 
L 197.119264 177.028117 
L 193.009712 195.304196 
L 188.900161 177.382534 
L 184.79061 189.813467 
L 180.681059 177.559626 
L 176.571507 172.03764 
L 172.461956 190.561595 
L 168.352405 189.281164 
L 164.242854 197.003929 
L 160.133303 181.920755 
L 156.023751 195.267551 
L 151.9142 183.002038 
L 147.804649 188.532016 
L 143.695098 198.206781 
L 139.585547 184.8411 
L 135.475995 192.820357 
L 131.366444 182.242724 
L 127.256893 191.977005 
L 123.147342 188.293543 
L 119.037791 182.741832 
L 114.928239 191.63965 
L 110.818688 190.966442 
L 106.709137 213.446411 
L 102.599586 207.442881 
L 98.490035 202.443072 
L 94.380483 204.262729 
L 90.270932 211.590505 
L 86.161381 216.770229 
L 82.05183 219.45877 
L 77.942278 224.331408 
L 73.832727 248.118063 
z
" clip-path="url(#pd894d0a387)" style="fill: #1f77b4; fill-opacity: 0.3"/>
   </g>
   <g id="PolyCollection_2">
    <path d="M 73.832727 192.184315 
L 73.832727 286.27416 
L 77.942278 290.765567 
L 82.05183 286.696802 
L 86.161381 295.488 
L 90.270932 280.279963 
L 94.380483 283.762344 
L 98.490035 271.354865 
L 102.599586 279.115772 
L 106.709137 277.884182 
L 110.818688 271.110548 
L 114.928239 277.245324 
L 119.037791 277.221922 
L 123.147342 265.89517 
L 127.256893 264.387804 
L 131.366444 271.664101 
L 135.475995 280.569729 
L 139.585547 286.683436 
L 143.695098 288.085488 
L 147.804649 286.404935 
L 151.9142 278.710379 
L 156.023751 282.349925 
L 160.133303 274.529752 
L 164.242854 272.725496 
L 168.352405 274.070514 
L 172.461956 274.957771 
L 176.571507 255.485629 
L 180.681059 251.625527 
L 184.79061 269.782033 
L 188.900161 259.606691 
L 193.009712 282.244078 
L 197.119264 280.663666 
L 201.228815 272.482129 
L 205.338366 285.225141 
L 209.447917 277.034503 
L 213.557468 278.849003 
L 217.66702 258.286878 
L 221.776571 266.373763 
L 225.886122 271.677934 
L 229.995673 272.362326 
L 234.105224 279.929769 
L 238.214776 276.372487 
L 242.324327 267.843477 
L 246.433878 282.51808 
L 250.543429 272.631987 
L 254.65298 266.550946 
L 258.762532 269.83746 
L 262.872083 278.250966 
L 266.981634 278.365158 
L 271.091185 279.154796 
L 275.200736 283.824771 
L 279.310288 268.536517 
L 283.419839 278.035696 
L 287.52939 285.508773 
L 291.638941 287.042312 
L 295.748493 285.73948 
L 299.858044 278.792947 
L 303.967595 266.955658 
L 308.077146 272.086095 
L 312.186697 286.582365 
L 316.296249 288.993428 
L 320.4058 282.062476 
L 324.515351 279.889188 
L 328.624902 286.00605 
L 332.734453 279.030601 
L 336.844005 283.453574 
L 340.953556 261.216659 
L 345.063107 269.258785 
L 349.172658 267.605099 
L 353.282209 268.804691 
L 357.391761 280.408623 
L 361.501312 267.705874 
L 365.610863 274.853412 
L 369.720414 262.083181 
L 373.829965 281.768839 
L 377.939517 256.280762 
L 382.049068 260.948286 
L 386.158619 263.116012 
L 390.26817 246.280727 
L 394.377722 229.67025 
L 398.487273 273.664603 
L 398.487273 126.582102 
L 398.487273 126.582102 
L 394.377722 81.949341 
L 390.26817 81.788882 
L 386.158619 92.127794 
L 382.049068 81.332753 
L 377.939517 90.276936 
L 373.829965 121.602467 
L 369.720414 104.808977 
L 365.610863 98.851205 
L 361.501312 101.758184 
L 357.391761 130.316533 
L 353.282209 107.887643 
L 349.172658 113.785464 
L 345.063107 102.632542 
L 340.953556 87.63999 
L 336.844005 146.982626 
L 332.734453 130.430773 
L 328.624902 151.067495 
L 324.515351 124.812559 
L 320.4058 119.161814 
L 316.296249 132.407877 
L 312.186697 126.8385 
L 308.077146 100.315374 
L 303.967595 105.6993 
L 299.858044 133.871952 
L 295.748493 145.813993 
L 291.638941 138.044796 
L 287.52939 136.294392 
L 283.419839 111.607264 
L 279.310288 104.592897 
L 275.200736 144.062192 
L 271.091185 121.263849 
L 266.981634 126.749378 
L 262.872083 126.74845 
L 258.762532 122.648224 
L 254.65298 120.676126 
L 250.543429 139.111771 
L 246.433878 149.72363 
L 242.324327 110.730318 
L 238.214776 115.63044 
L 234.105224 138.534758 
L 229.995673 117.067292 
L 225.886122 103.455352 
L 221.776571 97.495557 
L 217.66702 95.34795 
L 213.557468 128.099636 
L 209.447917 138.855658 
L 205.338366 155.843466 
L 201.228815 124.849046 
L 197.119264 134.540722 
L 193.009712 118.420867 
L 188.900161 116.394628 
L 184.79061 119.367703 
L 180.681059 92.292815 
L 176.571507 93.451524 
L 172.461956 135.537637 
L 168.352405 110.143963 
L 164.242854 124.049337 
L 160.133303 113.411491 
L 156.023751 147.861643 
L 151.9142 139.381594 
L 147.804649 124.392989 
L 143.695098 144.875083 
L 139.585547 135.88525 
L 135.475995 125.850186 
L 131.366444 130.651882 
L 127.256893 109.506786 
L 123.147342 108.199847 
L 119.037791 124.893198 
L 114.928239 123.825662 
L 110.818688 116.390646 
L 106.709137 118.110776 
L 102.599586 138.259421 
L 98.490035 115.613874 
L 94.380483 147.480875 
L 90.270932 128.807231 
L 86.161381 153.485765 
L 82.05183 165.31929 
L 77.942278 166.090906 
L 73.832727 192.184315 
z
" clip-path="url(#pd894d0a387)" style="fill: #ff7f0e; fill-opacity: 0.3"/>
   </g>
   <g id="matplotlib.axis_1">
    <g id="xtick_1">
     <g id="line2d_1">
      <defs>
       <path id="mca191c13fa" d="M 0 0 
L 0 3.5 
" style="stroke: #000000; stroke-width: 0.8"/>
      </defs>
      <g>
       <use xlink:href="#mca191c13fa" x="73.832727" y="307.584" style="stroke: #000000; stroke-width: 0.8"/>
      </g>
     </g>
     <g id="text_1">
      <!-- 0 -->
      <g transform="translate(70.651477 322.182437) scale(0.1 -0.1)">
       <defs>
        <path id="DejaVuSans-30" d="M 2034 4250 
Q 1547 4250 1301 3770 
Q 1056 3291 1056 2328 
Q 1056 1369 1301 889 
Q 1547 409 2034 409 
Q 2525 409 2770 889 
Q 3016 1369 3016 2328 
Q 3016 3291 2770 3770 
Q 2525 4250 2034 4250 
z
M 2034 4750 
Q 2819 4750 3233 4129 
Q 3647 3509 3647 2328 
Q 3647 1150 3233 529 
Q 2819 -91 2034 -91 
Q 1250 -91 836 529 
Q 422 1150 422 2328 
Q 422 3509 836 4129 
Q 1250 4750 2034 4750 
z
" transform="scale(0.015625)"/>
       </defs>
       <use xlink:href="#DejaVuSans-30"/>
      </g>
     </g>
    </g>
    <g id="xtick_2">
     <g id="line2d_2">
      <g>
       <use xlink:href="#mca191c13fa" x="114.928239" y="307.584" style="stroke: #000000; stroke-width: 0.8"/>
      </g>
     </g>
     <g id="text_2">
      <!-- 10 -->
      <g transform="translate(108.565739 322.182437) scale(0.1 -0.1)">
       <defs>
        <path id="DejaVuSans-31" d="M 794 531 
L 1825 531 
L 1825 4091 
L 703 3866 
L 703 4441 
L 1819 4666 
L 2450 4666 
L 2450 531 
L 3481 531 
L 3481 0 
L 794 0 
L 794 531 
z
" transform="scale(0.015625)"/>
       </defs>
       <use xlink:href="#DejaVuSans-31"/>
       <use xlink:href="#DejaVuSans-30" x="63.623047"/>
      </g>
     </g>
    </g>
    <g id="xtick_3">
     <g id="line2d_3">
      <g>
       <use xlink:href="#mca191c13fa" x="156.023751" y="307.584" style="stroke: #000000; stroke-width: 0.8"/>
      </g>
     </g>
     <g id="text_3">
      <!-- 20 -->
      <g transform="translate(149.661251 322.182437) scale(0.1 -0.1)">
       <defs>
        <path id="DejaVuSans-32" d="M 1228 531 
L 3431 531 
L 3431 0 
L 469 0 
L 469 531 
Q 828 903 1448 1529 
Q 2069 2156 2228 2338 
Q 2531 2678 2651 2914 
Q 2772 3150 2772 3378 
Q 2772 3750 2511 3984 
Q 2250 4219 1831 4219 
Q 1534 4219 1204 4116 
Q 875 4013 500 3803 
L 500 4441 
Q 881 4594 1212 4672 
Q 1544 4750 1819 4750 
Q 2544 4750 2975 4387 
Q 3406 4025 3406 3419 
Q 3406 3131 3298 2873 
Q 3191 2616 2906 2266 
Q 2828 2175 2409 1742 
Q 1991 1309 1228 531 
z
" transform="scale(0.015625)"/>
       </defs>
       <use xlink:href="#DejaVuSans-32"/>
       <use xlink:href="#DejaVuSans-30" x="63.623047"/>
      </g>
     </g>
    </g>
    <g id="xtick_4">
     <g id="line2d_4">
      <g>
       <use xlink:href="#mca191c13fa" x="197.119264" y="307.584" style="stroke: #000000; stroke-width: 0.8"/>
      </g>
     </g>
     <g id="text_4">
      <!-- 30 -->
      <g transform="translate(190.756764 322.182437) scale(0.1 -0.1)">
       <defs>
        <path id="DejaVuSans-33" d="M 2597 2516 
Q 3050 2419 3304 2112 
Q 3559 1806 3559 1356 
Q 3559 666 3084 287 
Q 2609 -91 1734 -91 
Q 1441 -91 1130 -33 
Q 819 25 488 141 
L 488 750 
Q 750 597 1062 519 
Q 1375 441 1716 441 
Q 2309 441 2620 675 
Q 2931 909 2931 1356 
Q 2931 1769 2642 2001 
Q 2353 2234 1838 2234 
L 1294 2234 
L 1294 2753 
L 1863 2753 
Q 2328 2753 2575 2939 
Q 2822 3125 2822 3475 
Q 2822 3834 2567 4026 
Q 2313 4219 1838 4219 
Q 1578 4219 1281 4162 
Q 984 4106 628 3988 
L 628 4550 
Q 988 4650 1302 4700 
Q 1616 4750 1894 4750 
Q 2613 4750 3031 4423 
Q 3450 4097 3450 3541 
Q 3450 3153 3228 2886 
Q 3006 2619 2597 2516 
z
" transform="scale(0.015625)"/>
       </defs>
       <use xlink:href="#DejaVuSans-33"/>
       <use xlink:href="#DejaVuSans-30" x="63.623047"/>
      </g>
     </g>
    </g>
    <g id="xtick_5">
     <g id="line2d_5">
      <g>
       <use xlink:href="#mca191c13fa" x="238.214776" y="307.584" style="stroke: #000000; stroke-width: 0.8"/>
      </g>
     </g>
     <g id="text_5">
      <!-- 40 -->
      <g transform="translate(231.852276 322.182437) scale(0.1 -0.1)">
       <defs>
        <path id="DejaVuSans-34" d="M 2419 4116 
L 825 1625 
L 2419 1625 
L 2419 4116 
z
M 2253 4666 
L 3047 4666 
L 3047 1625 
L 3713 1625 
L 3713 1100 
L 3047 1100 
L 3047 0 
L 2419 0 
L 2419 1100 
L 313 1100 
L 313 1709 
L 2253 4666 
z
" transform="scale(0.015625)"/>
       </defs>
       <use xlink:href="#DejaVuSans-34"/>
       <use xlink:href="#DejaVuSans-30" x="63.623047"/>
      </g>
     </g>
    </g>
    <g id="xtick_6">
     <g id="line2d_6">
      <g>
       <use xlink:href="#mca191c13fa" x="279.310288" y="307.584" style="stroke: #000000; stroke-width: 0.8"/>
      </g>
     </g>
     <g id="text_6">
      <!-- 50 -->
      <g transform="translate(272.947788 322.182437) scale(0.1 -0.1)">
       <defs>
        <path id="DejaVuSans-35" d="M 691 4666 
L 3169 4666 
L 3169 4134 
L 1269 4134 
L 1269 2991 
Q 1406 3038 1543 3061 
Q 1681 3084 1819 3084 
Q 2600 3084 3056 2656 
Q 3513 2228 3513 1497 
Q 3513 744 3044 326 
Q 2575 -91 1722 -91 
Q 1428 -91 1123 -41 
Q 819 9 494 109 
L 494 744 
Q 775 591 1075 516 
Q 1375 441 1709 441 
Q 2250 441 2565 725 
Q 2881 1009 2881 1497 
Q 2881 1984 2565 2268 
Q 2250 2553 1709 2553 
Q 1456 2553 1204 2497 
Q 953 2441 691 2322 
L 691 4666 
z
" transform="scale(0.015625)"/>
       </defs>
       <use xlink:href="#DejaVuSans-35"/>
       <use xlink:href="#DejaVuSans-30" x="63.623047"/>
      </g>
     </g>
    </g>
    <g id="xtick_7">
     <g id="line2d_7">
      <g>
       <use xlink:href="#mca191c13fa" x="320.4058" y="307.584" style="stroke: #000000; stroke-width: 0.8"/>
      </g>
     </g>
     <g id="text_7">
      <!-- 60 -->
      <g transform="translate(314.0433 322.182437) scale(0.1 -0.1)">
       <defs>
        <path id="DejaVuSans-36" d="M 2113 2584 
Q 1688 2584 1439 2293 
Q 1191 2003 1191 1497 
Q 1191 994 1439 701 
Q 1688 409 2113 409 
Q 2538 409 2786 701 
Q 3034 994 3034 1497 
Q 3034 2003 2786 2293 
Q 2538 2584 2113 2584 
z
M 3366 4563 
L 3366 3988 
Q 3128 4100 2886 4159 
Q 2644 4219 2406 4219 
Q 1781 4219 1451 3797 
Q 1122 3375 1075 2522 
Q 1259 2794 1537 2939 
Q 1816 3084 2150 3084 
Q 2853 3084 3261 2657 
Q 3669 2231 3669 1497 
Q 3669 778 3244 343 
Q 2819 -91 2113 -91 
Q 1303 -91 875 529 
Q 447 1150 447 2328 
Q 447 3434 972 4092 
Q 1497 4750 2381 4750 
Q 2619 4750 2861 4703 
Q 3103 4656 3366 4563 
z
" transform="scale(0.015625)"/>
       </defs>
       <use xlink:href="#DejaVuSans-36"/>
       <use xlink:href="#DejaVuSans-30" x="63.623047"/>
      </g>
     </g>
    </g>
    <g id="xtick_8">
     <g id="line2d_8">
      <g>
       <use xlink:href="#mca191c13fa" x="361.501312" y="307.584" style="stroke: #000000; stroke-width: 0.8"/>
      </g>
     </g>
     <g id="text_8">
      <!-- 70 -->
      <g transform="translate(355.138812 322.182437) scale(0.1 -0.1)">
       <defs>
        <path id="DejaVuSans-37" d="M 525 4666 
L 3525 4666 
L 3525 4397 
L 1831 0 
L 1172 0 
L 2766 4134 
L 525 4134 
L 525 4666 
z
" transform="scale(0.015625)"/>
       </defs>
       <use xlink:href="#DejaVuSans-37"/>
       <use xlink:href="#DejaVuSans-30" x="63.623047"/>
      </g>
     </g>
    </g>
    <g id="xtick_9">
     <g id="line2d_9">
      <g>
       <use xlink:href="#mca191c13fa" x="402.596824" y="307.584" style="stroke: #000000; stroke-width: 0.8"/>
      </g>
     </g>
     <g id="text_9">
      <!-- 80 -->
      <g transform="translate(396.234324 322.182437) scale(0.1 -0.1)">
       <defs>
        <path id="DejaVuSans-38" d="M 2034 2216 
Q 1584 2216 1326 1975 
Q 1069 1734 1069 1313 
Q 1069 891 1326 650 
Q 1584 409 2034 409 
Q 2484 409 2743 651 
Q 3003 894 3003 1313 
Q 3003 1734 2745 1975 
Q 2488 2216 2034 2216 
z
M 1403 2484 
Q 997 2584 770 2862 
Q 544 3141 544 3541 
Q 544 4100 942 4425 
Q 1341 4750 2034 4750 
Q 2731 4750 3128 4425 
Q 3525 4100 3525 3541 
Q 3525 3141 3298 2862 
Q 3072 2584 2669 2484 
Q 3125 2378 3379 2068 
Q 3634 1759 3634 1313 
Q 3634 634 3220 271 
Q 2806 -91 2034 -91 
Q 1263 -91 848 271 
Q 434 634 434 1313 
Q 434 1759 690 2068 
Q 947 2378 1403 2484 
z
M 1172 3481 
Q 1172 3119 1398 2916 
Q 1625 2713 2034 2713 
Q 2441 2713 2670 2916 
Q 2900 3119 2900 3481 
Q 2900 3844 2670 4047 
Q 2441 4250 2034 4250 
Q 1625 4250 1398 4047 
Q 1172 3844 1172 3481 
z
" transform="scale(0.015625)"/>
       </defs>
       <use xlink:href="#DejaVuSans-38"/>
       <use xlink:href="#DejaVuSans-30" x="63.623047"/>
      </g>
     </g>
    </g>
   </g>
   <g id="matplotlib.axis_2">
    <g id="ytick_1">
     <g id="line2d_10">
      <defs>
       <path id="m9c39724679" d="M 0 0 
L -3.5 0 
" style="stroke: #000000; stroke-width: 0.8"/>
      </defs>
      <g>
       <use xlink:href="#m9c39724679" x="57.6" y="290.357521" style="stroke: #000000; stroke-width: 0.8"/>
      </g>
     </g>
     <g id="text_10">
      <!-- −20 -->
      <g transform="translate(29.495313 294.15674) scale(0.1 -0.1)">
       <defs>
        <path id="DejaVuSans-2212" d="M 678 2272 
L 4684 2272 
L 4684 1741 
L 678 1741 
L 678 2272 
z
" transform="scale(0.015625)"/>
       </defs>
       <use xlink:href="#DejaVuSans-2212"/>
       <use xlink:href="#DejaVuSans-32" x="83.789062"/>
       <use xlink:href="#DejaVuSans-30" x="147.412109"/>
      </g>
     </g>
    </g>
    <g id="ytick_2">
     <g id="line2d_11">
      <g>
       <use xlink:href="#m9c39724679" x="57.6" y="248.222648" style="stroke: #000000; stroke-width: 0.8"/>
      </g>
     </g>
     <g id="text_11">
      <!-- 0 -->
      <g transform="translate(44.2375 252.021867) scale(0.1 -0.1)">
       <use xlink:href="#DejaVuSans-30"/>
      </g>
     </g>
    </g>
    <g id="ytick_3">
     <g id="line2d_12">
      <g>
       <use xlink:href="#m9c39724679" x="57.6" y="206.087776" style="stroke: #000000; stroke-width: 0.8"/>
      </g>
     </g>
     <g id="text_12">
      <!-- 20 -->
      <g transform="translate(37.875 209.886994) scale(0.1 -0.1)">
       <use xlink:href="#DejaVuSans-32"/>
       <use xlink:href="#DejaVuSans-30" x="63.623047"/>
      </g>
     </g>
    </g>
    <g id="ytick_4">
     <g id="line2d_13">
      <g>
       <use xlink:href="#m9c39724679" x="57.6" y="163.952903" style="stroke: #000000; stroke-width: 0.8"/>
      </g>
     </g>
     <g id="text_13">
      <!-- 40 -->
      <g transform="translate(37.875 167.752122) scale(0.1 -0.1)">
       <use xlink:href="#DejaVuSans-34"/>
       <use xlink:href="#DejaVuSans-30" x="63.623047"/>
      </g>
     </g>
    </g>
    <g id="ytick_5">
     <g id="line2d_14">
      <g>
       <use xlink:href="#m9c39724679" x="57.6" y="121.81803" style="stroke: #000000; stroke-width: 0.8"/>
      </g>
     </g>
     <g id="text_14">
      <!-- 60 -->
      <g transform="translate(37.875 125.617249) scale(0.1 -0.1)">
       <use xlink:href="#DejaVuSans-36"/>
       <use xlink:href="#DejaVuSans-30" x="63.623047"/>
      </g>
     </g>
    </g>
    <g id="ytick_6">
     <g id="line2d_15">
      <g>
       <use xlink:href="#m9c39724679" x="57.6" y="79.683157" style="stroke: #000000; stroke-width: 0.8"/>
      </g>
     </g>
     <g id="text_15">
      <!-- 80 -->
      <g transform="translate(37.875 83.482376) scale(0.1 -0.1)">
       <use xlink:href="#DejaVuSans-38"/>
       <use xlink:href="#DejaVuSans-30" x="63.623047"/>
      </g>
     </g>
    </g>
   </g>
   <g id="line2d_16">
    <path d="M 73.832727 256.802539 
L 77.942278 247.464414 
L 82.05183 243.927119 
L 86.161381 246.065719 
L 90.270932 239.850857 
L 94.380483 235.991617 
L 98.490035 232.821172 
L 102.599586 236.524685 
L 106.709137 242.097281 
L 110.818688 228.253783 
L 114.928239 231.671911 
L 119.037791 229.635395 
L 123.147342 231.906501 
L 127.256893 233.412402 
L 131.366444 227.26765 
L 135.475995 238.529991 
L 139.585547 230.573661 
L 143.695098 240.502448 
L 147.804649 234.594184 
L 151.9142 232.105938 
L 156.023751 238.398392 
L 160.133303 229.101799 
L 164.242854 239.72888 
L 168.352405 235.51429 
L 172.461956 234.606928 
L 176.571507 222.370472 
L 180.681059 227.467446 
L 184.79061 235.88257 
L 188.900161 227.478991 
L 193.009712 238.933442 
L 197.119264 226.955547 
L 201.228815 232.488158 
L 205.338366 237.514018 
L 209.447917 229.873496 
L 213.557468 230.01676 
L 217.66702 219.894341 
L 221.776571 234.343172 
L 225.886122 235.032305 
L 229.995673 233.125514 
L 234.105224 234.276075 
L 238.214776 230.205349 
L 242.324327 237.203469 
L 246.433878 238.933836 
L 250.543429 224.480573 
L 254.65298 232.633544 
L 258.762532 239.39948 
L 262.872083 237.061329 
L 266.981634 236.155619 
L 271.091185 234.282201 
L 275.200736 231.660494 
L 279.310288 235.69217 
L 283.419839 231.084744 
L 287.52939 233.548578 
L 291.638941 231.122033 
L 295.748493 230.158045 
L 299.858044 225.587287 
L 303.967595 222.065188 
L 308.077146 235.645068 
L 312.186697 235.378766 
L 316.296249 241.350326 
L 320.4058 238.642738 
L 324.515351 234.45937 
L 328.624902 236.001987 
L 332.734453 230.68835 
L 336.844005 240.741241 
L 340.953556 229.346874 
L 345.063107 232.662253 
L 349.172658 227.854967 
L 353.282209 231.95406 
L 357.391761 232.693043 
L 361.501312 232.61915 
L 365.610863 230.869062 
L 369.720414 226.773458 
L 373.829965 234.837513 
L 377.939517 233.490022 
L 382.049068 236.960585 
L 386.158619 233.228988 
L 390.26817 226.06127 
L 394.377722 225.32605 
L 398.487273 231.763736 
" clip-path="url(#pd894d0a387)" style="fill: none; stroke: #1f77b4; stroke-width: 1.5; stroke-linecap: square"/>
   </g>
   <g id="line2d_17">
    <path d="M 73.832727 239.229237 
L 77.942278 228.428237 
L 82.05183 226.008046 
L 86.161381 224.486882 
L 90.270932 204.543597 
L 94.380483 215.621609 
L 98.490035 193.484369 
L 102.599586 208.687596 
L 106.709137 197.997479 
L 110.818688 193.750597 
L 114.928239 200.535493 
L 119.037791 201.05756 
L 123.147342 187.047509 
L 127.256893 186.947295 
L 131.366444 201.157992 
L 135.475995 203.209958 
L 139.585547 211.284343 
L 143.695098 216.480286 
L 147.804649 205.398962 
L 151.9142 209.045987 
L 156.023751 215.105784 
L 160.133303 193.970621 
L 164.242854 198.387417 
L 168.352405 192.107238 
L 172.461956 205.247704 
L 176.571507 174.468577 
L 180.681059 171.959171 
L 184.79061 194.574868 
L 188.900161 188.00066 
L 193.009712 200.332473 
L 197.119264 207.602194 
L 201.228815 198.665587 
L 205.338366 220.534304 
L 209.447917 207.94508 
L 213.557468 203.474319 
L 217.66702 176.817414 
L 221.776571 181.93466 
L 225.886122 187.566643 
L 229.995673 194.714809 
L 234.105224 209.232263 
L 238.214776 196.001463 
L 242.324327 189.286898 
L 246.433878 216.120855 
L 250.543429 205.871879 
L 254.65298 193.613536 
L 258.762532 196.242842 
L 262.872083 202.499708 
L 266.981634 202.557268 
L 271.091185 200.209322 
L 275.200736 213.943482 
L 279.310288 186.564707 
L 283.419839 194.82148 
L 287.52939 210.901583 
L 291.638941 212.543554 
L 295.748493 215.776737 
L 299.858044 206.33245 
L 303.967595 186.327479 
L 308.077146 186.200734 
L 312.186697 206.710432 
L 316.296249 210.700652 
L 320.4058 200.612145 
L 324.515351 202.350874 
L 328.624902 218.536773 
L 332.734453 204.730687 
L 336.844005 215.2181 
L 340.953556 174.428324 
L 345.063107 185.945663 
L 349.172658 190.695281 
L 353.282209 188.346167 
L 357.391761 205.362578 
L 361.501312 184.732029 
L 365.610863 186.852309 
L 369.720414 183.446079 
L 373.829965 201.685653 
L 377.939517 173.278849 
L 382.049068 171.140519 
L 386.158619 177.621903 
L 390.26817 164.034805 
L 394.377722 155.809795 
L 398.487273 200.123352 
" clip-path="url(#pd894d0a387)" style="fill: none; stroke: #ff7f0e; stroke-width: 1.5; stroke-linecap: square"/>
   </g>
   <g id="line2d_18">
    <path d="M 73.832727 221.006479 
L 77.942278 146.38157 
L 82.05183 165.693073 
L 86.161381 164.664009 
L 90.270932 165.693073 
L 94.380483 146.550764 
L 98.490035 165.693073 
L 102.599586 165.693073 
L 106.709137 165.693073 
L 110.818688 92.067284 
L 114.928239 92.067284 
L 119.037791 92.067284 
L 123.147342 92.067284 
L 127.256893 92.067284 
L 131.366444 92.067284 
L 135.475995 92.067284 
L 139.585547 92.067284 
L 143.695098 92.067284 
L 147.804649 92.067284 
L 151.9142 91.021264 
L 156.023751 92.067284 
L 160.133303 92.067284 
L 164.242854 92.067284 
L 168.352405 92.067284 
L 172.461956 92.067284 
L 176.571507 92.067284 
L 180.681059 92.067284 
L 184.79061 92.067284 
L 188.900161 92.067284 
L 193.009712 92.067284 
L 197.119264 92.067284 
L 201.228815 92.067284 
L 205.338366 92.067284 
L 209.447917 92.067284 
L 213.557468 92.067284 
L 217.66702 73.429595 
L 221.776571 92.067284 
L 225.886122 92.067284 
L 229.995673 92.067284 
L 234.105224 92.067284 
L 238.214776 92.067284 
L 242.324327 92.067284 
L 246.433878 92.067284 
L 250.543429 92.067284 
L 254.65298 92.067284 
L 258.762532 92.067284 
L 262.872083 92.067284 
L 266.981634 92.067284 
L 271.091185 92.067284 
L 275.200736 92.067284 
L 279.310288 92.067284 
L 283.419839 89.655094 
L 287.52939 92.067284 
L 291.638941 92.067284 
L 295.748493 92.067284 
L 299.858044 92.067284 
L 303.967595 92.067284 
L 308.077146 92.067284 
L 312.186697 92.067284 
L 316.296249 92.067284 
L 320.4058 92.067284 
L 324.515351 92.067284 
L 328.624902 92.067284 
L 332.734453 92.067284 
L 336.844005 92.067284 
L 340.953556 92.067284 
L 345.063107 92.067284 
L 349.172658 92.067284 
L 353.282209 92.067284 
L 357.391761 92.067284 
L 361.501312 92.067284 
L 365.610863 92.067284 
L 369.720414 92.067284 
L 373.829965 92.067284 
L 377.939517 92.067284 
L 382.049068 92.067284 
L 386.158619 92.067284 
L 390.26817 92.067284 
L 394.377722 92.067284 
L 398.487273 92.067284 
" clip-path="url(#pd894d0a387)" style="fill: none; stroke-dasharray: 5.55,2.4; stroke-dashoffset: 0; stroke: #2ca02c; stroke-width: 1.5"/>
   </g>
   <g id="line2d_19">
    <path d="M 73.832727 66.335368 
L 77.942278 65.857728 
L 82.05183 61.697464 
L 86.161381 61.697464 
L 90.270932 61.697464 
L 94.380483 61.992748 
L 98.490035 60.78822 
L 102.599586 61.992748 
L 106.709137 61.992748 
L 110.818688 59.083497 
L 114.928239 56.792443 
L 119.037791 56.792443 
L 123.147342 56.792443 
L 127.256893 56.792443 
L 131.366444 55.871764 
L 135.475995 55.871764 
L 139.585547 55.672517 
L 143.695098 55.871764 
L 147.804649 55.871764 
L 151.9142 56.792443 
L 156.023751 56.792443 
L 160.133303 55.300605 
L 164.242854 56.792443 
L 168.352405 56.438247 
L 172.461956 56.792443 
L 176.571507 55.269964 
L 180.681059 55.464069 
L 184.79061 56.792443 
L 188.900161 56.780633 
L 193.009712 55.787738 
L 197.119264 56.792443 
L 201.228815 56.792443 
L 205.338366 56.792443 
L 209.447917 55.745359 
L 213.557468 56.792443 
L 217.66702 54.802264 
L 221.776571 56.792443 
L 225.886122 56.199315 
L 229.995673 56.792443 
L 234.105224 56.792443 
L 238.214776 55.174201 
L 242.324327 56.586445 
L 246.433878 56.792443 
L 250.543429 56.737231 
L 254.65298 56.737231 
L 258.762532 56.737231 
L 262.872083 56.737231 
L 266.981634 56.737231 
L 271.091185 56.737231 
L 275.200736 56.737231 
L 279.310288 56.704933 
L 283.419839 53.568 
L 287.52939 56.737231 
L 291.638941 56.737231 
L 295.748493 56.737231 
L 299.858044 56.737231 
L 303.967595 56.737231 
L 308.077146 56.737231 
L 312.186697 56.737231 
L 316.296249 55.567292 
L 320.4058 56.737231 
L 324.515351 56.285062 
L 328.624902 56.737231 
L 332.734453 56.737231 
L 336.844005 56.687945 
L 340.953556 56.737231 
L 345.063107 56.737231 
L 349.172658 56.737231 
L 353.282209 55.745779 
L 357.391761 56.737231 
L 361.501312 56.737231 
L 365.610863 56.51705 
L 369.720414 56.737231 
L 373.829965 56.737231 
L 377.939517 56.737231 
L 382.049068 55.905848 
L 386.158619 56.737231 
L 390.26817 56.737231 
L 394.377722 53.663495 
L 398.487273 56.737231 
" clip-path="url(#pd894d0a387)" style="fill: none; stroke-dasharray: 5.55,2.4; stroke-dashoffset: 0; stroke: #d62728; stroke-width: 1.5"/>
   </g>
   <g id="patch_3">
    <path d="M 57.6 307.584 
L 57.6 41.472 
" style="fill: none; stroke: #000000; stroke-width: 0.8; stroke-linejoin: miter; stroke-linecap: square"/>
   </g>
   <g id="patch_4">
    <path d="M 414.72 307.584 
L 414.72 41.472 
" style="fill: none; stroke: #000000; stroke-width: 0.8; stroke-linejoin: miter; stroke-linecap: square"/>
   </g>
   <g id="patch_5">
    <path d="M 57.6 307.584 
L 414.72 307.584 
" style="fill: none; stroke: #000000; stroke-width: 0.8; stroke-linejoin: miter; stroke-linecap: square"/>
   </g>
   <g id="patch_6">
    <path d="M 57.6 41.472 
L 414.72 41.472 
" style="fill: none; stroke: #000000; stroke-width: 0.8; stroke-linejoin: miter; stroke-linecap: square"/>
   </g>
   <g id="text_16">
    <!-- fitness on 3_incest -->
    <g transform="translate(180.24 35.472) scale(0.12 -0.12)">
     <defs>
      <path id="DejaVuSans-66" d="M 2375 4863 
L 2375 4384 
L 1825 4384 
Q 1516 4384 1395 4259 
Q 1275 4134 1275 3809 
L 1275 3500 
L 2222 3500 
L 2222 3053 
L 1275 3053 
L 1275 0 
L 697 0 
L 697 3053 
L 147 3053 
L 147 3500 
L 697 3500 
L 697 3744 
Q 697 4328 969 4595 
Q 1241 4863 1831 4863 
L 2375 4863 
z
" transform="scale(0.015625)"/>
      <path id="DejaVuSans-69" d="M 603 3500 
L 1178 3500 
L 1178 0 
L 603 0 
L 603 3500 
z
M 603 4863 
L 1178 4863 
L 1178 4134 
L 603 4134 
L 603 4863 
z
" transform="scale(0.015625)"/>
      <path id="DejaVuSans-74" d="M 1172 4494 
L 1172 3500 
L 2356 3500 
L 2356 3053 
L 1172 3053 
L 1172 1153 
Q 1172 725 1289 603 
Q 1406 481 1766 481 
L 2356 481 
L 2356 0 
L 1766 0 
Q 1100 0 847 248 
Q 594 497 594 1153 
L 594 3053 
L 172 3053 
L 172 3500 
L 594 3500 
L 594 4494 
L 1172 4494 
z
" transform="scale(0.015625)"/>
      <path id="DejaVuSans-6e" d="M 3513 2113 
L 3513 0 
L 2938 0 
L 2938 2094 
Q 2938 2591 2744 2837 
Q 2550 3084 2163 3084 
Q 1697 3084 1428 2787 
Q 1159 2491 1159 1978 
L 1159 0 
L 581 0 
L 581 3500 
L 1159 3500 
L 1159 2956 
Q 1366 3272 1645 3428 
Q 1925 3584 2291 3584 
Q 2894 3584 3203 3211 
Q 3513 2838 3513 2113 
z
" transform="scale(0.015625)"/>
      <path id="DejaVuSans-65" d="M 3597 1894 
L 3597 1613 
L 953 1613 
Q 991 1019 1311 708 
Q 1631 397 2203 397 
Q 2534 397 2845 478 
Q 3156 559 3463 722 
L 3463 178 
Q 3153 47 2828 -22 
Q 2503 -91 2169 -91 
Q 1331 -91 842 396 
Q 353 884 353 1716 
Q 353 2575 817 3079 
Q 1281 3584 2069 3584 
Q 2775 3584 3186 3129 
Q 3597 2675 3597 1894 
z
M 3022 2063 
Q 3016 2534 2758 2815 
Q 2500 3097 2075 3097 
Q 1594 3097 1305 2825 
Q 1016 2553 972 2059 
L 3022 2063 
z
" transform="scale(0.015625)"/>
      <path id="DejaVuSans-73" d="M 2834 3397 
L 2834 2853 
Q 2591 2978 2328 3040 
Q 2066 3103 1784 3103 
Q 1356 3103 1142 2972 
Q 928 2841 928 2578 
Q 928 2378 1081 2264 
Q 1234 2150 1697 2047 
L 1894 2003 
Q 2506 1872 2764 1633 
Q 3022 1394 3022 966 
Q 3022 478 2636 193 
Q 2250 -91 1575 -91 
Q 1294 -91 989 -36 
Q 684 19 347 128 
L 347 722 
Q 666 556 975 473 
Q 1284 391 1588 391 
Q 1994 391 2212 530 
Q 2431 669 2431 922 
Q 2431 1156 2273 1281 
Q 2116 1406 1581 1522 
L 1381 1569 
Q 847 1681 609 1914 
Q 372 2147 372 2553 
Q 372 3047 722 3315 
Q 1072 3584 1716 3584 
Q 2034 3584 2315 3537 
Q 2597 3491 2834 3397 
z
" transform="scale(0.015625)"/>
      <path id="DejaVuSans-20" transform="scale(0.015625)"/>
      <path id="DejaVuSans-6f" d="M 1959 3097 
Q 1497 3097 1228 2736 
Q 959 2375 959 1747 
Q 959 1119 1226 758 
Q 1494 397 1959 397 
Q 2419 397 2687 759 
Q 2956 1122 2956 1747 
Q 2956 2369 2687 2733 
Q 2419 3097 1959 3097 
z
M 1959 3584 
Q 2709 3584 3137 3096 
Q 3566 2609 3566 1747 
Q 3566 888 3137 398 
Q 2709 -91 1959 -91 
Q 1206 -91 779 398 
Q 353 888 353 1747 
Q 353 2609 779 3096 
Q 1206 3584 1959 3584 
z
" transform="scale(0.015625)"/>
      <path id="DejaVuSans-5f" d="M 3263 -1063 
L 3263 -1509 
L -63 -1509 
L -63 -1063 
L 3263 -1063 
z
" transform="scale(0.015625)"/>
      <path id="DejaVuSans-63" d="M 3122 3366 
L 3122 2828 
Q 2878 2963 2633 3030 
Q 2388 3097 2138 3097 
Q 1578 3097 1268 2742 
Q 959 2388 959 1747 
Q 959 1106 1268 751 
Q 1578 397 2138 397 
Q 2388 397 2633 464 
Q 2878 531 3122 666 
L 3122 134 
Q 2881 22 2623 -34 
Q 2366 -91 2075 -91 
Q 1284 -91 818 406 
Q 353 903 353 1747 
Q 353 2603 823 3093 
Q 1294 3584 2113 3584 
Q 2378 3584 2631 3529 
Q 2884 3475 3122 3366 
z
" transform="scale(0.015625)"/>
     </defs>
     <use xlink:href="#DejaVuSans-66"/>
     <use xlink:href="#DejaVuSans-69" x="35.205078"/>
     <use xlink:href="#DejaVuSans-74" x="62.988281"/>
     <use xlink:href="#DejaVuSans-6e" x="102.197266"/>
     <use xlink:href="#DejaVuSans-65" x="165.576172"/>
     <use xlink:href="#DejaVuSans-73" x="227.099609"/>
     <use xlink:href="#DejaVuSans-73" x="279.199219"/>
     <use xlink:href="#DejaVuSans-20" x="331.298828"/>
     <use xlink:href="#DejaVuSans-6f" x="363.085938"/>
     <use xlink:href="#DejaVuSans-6e" x="424.267578"/>
     <use xlink:href="#DejaVuSans-20" x="487.646484"/>
     <use xlink:href="#DejaVuSans-33" x="519.433594"/>
     <use xlink:href="#DejaVuSans-5f" x="583.056641"/>
     <use xlink:href="#DejaVuSans-69" x="633.056641"/>
     <use xlink:href="#DejaVuSans-6e" x="660.839844"/>
     <use xlink:href="#DejaVuSans-63" x="724.21875"/>
     <use xlink:href="#DejaVuSans-65" x="779.199219"/>
     <use xlink:href="#DejaVuSans-73" x="840.722656"/>
     <use xlink:href="#DejaVuSans-74" x="892.822266"/>
    </g>
   </g>
   <g id="legend_1">
    <g id="patch_7">
     <path d="M 334.555938 302.584 
L 407.72 302.584 
Q 409.72 302.584 409.72 300.584 
L 409.72 242.8715 
Q 409.72 240.8715 407.72 240.8715 
L 334.555938 240.8715 
Q 332.555938 240.8715 332.555938 242.8715 
L 332.555938 300.584 
Q 332.555938 302.584 334.555938 302.584 
z
" style="fill: #ffffff; opacity: 0.8; stroke: #cccccc; stroke-linejoin: miter"/>
    </g>
    <g id="line2d_20">
     <path d="M 336.555938 248.969937 
L 346.555938 248.969937 
L 356.555938 248.969937 
" style="fill: none; stroke: #1f77b4; stroke-width: 1.5; stroke-linecap: square"/>
    </g>
    <g id="text_17">
     <!-- enemyA -->
     <g transform="translate(364.555938 252.469937) scale(0.1 -0.1)">
      <defs>
       <path id="DejaVuSans-6d" d="M 3328 2828 
Q 3544 3216 3844 3400 
Q 4144 3584 4550 3584 
Q 5097 3584 5394 3201 
Q 5691 2819 5691 2113 
L 5691 0 
L 5113 0 
L 5113 2094 
Q 5113 2597 4934 2840 
Q 4756 3084 4391 3084 
Q 3944 3084 3684 2787 
Q 3425 2491 3425 1978 
L 3425 0 
L 2847 0 
L 2847 2094 
Q 2847 2600 2669 2842 
Q 2491 3084 2119 3084 
Q 1678 3084 1418 2786 
Q 1159 2488 1159 1978 
L 1159 0 
L 581 0 
L 581 3500 
L 1159 3500 
L 1159 2956 
Q 1356 3278 1631 3431 
Q 1906 3584 2284 3584 
Q 2666 3584 2933 3390 
Q 3200 3197 3328 2828 
z
" transform="scale(0.015625)"/>
       <path id="DejaVuSans-79" d="M 2059 -325 
Q 1816 -950 1584 -1140 
Q 1353 -1331 966 -1331 
L 506 -1331 
L 506 -850 
L 844 -850 
Q 1081 -850 1212 -737 
Q 1344 -625 1503 -206 
L 1606 56 
L 191 3500 
L 800 3500 
L 1894 763 
L 2988 3500 
L 3597 3500 
L 2059 -325 
z
" transform="scale(0.015625)"/>
       <path id="DejaVuSans-41" d="M 2188 4044 
L 1331 1722 
L 3047 1722 
L 2188 4044 
z
M 1831 4666 
L 2547 4666 
L 4325 0 
L 3669 0 
L 3244 1197 
L 1141 1197 
L 716 0 
L 50 0 
L 1831 4666 
z
" transform="scale(0.015625)"/>
      </defs>
      <use xlink:href="#DejaVuSans-65"/>
      <use xlink:href="#DejaVuSans-6e" x="61.523438"/>
      <use xlink:href="#DejaVuSans-65" x="124.902344"/>
      <use xlink:href="#DejaVuSans-6d" x="186.425781"/>
      <use xlink:href="#DejaVuSans-79" x="283.837891"/>
      <use xlink:href="#DejaVuSans-41" x="343.017578"/>
     </g>
    </g>
    <g id="line2d_21">
     <path d="M 336.555938 263.648062 
L 346.555938 263.648062 
L 356.555938 263.648062 
" style="fill: none; stroke: #ff7f0e; stroke-width: 1.5; stroke-linecap: square"/>
    </g>
    <g id="text_18">
     <!-- enemyB -->
     <g transform="translate(364.555938 267.148062) scale(0.1 -0.1)">
      <defs>
       <path id="DejaVuSans-42" d="M 1259 2228 
L 1259 519 
L 2272 519 
Q 2781 519 3026 730 
Q 3272 941 3272 1375 
Q 3272 1813 3026 2020 
Q 2781 2228 2272 2228 
L 1259 2228 
z
M 1259 4147 
L 1259 2741 
L 2194 2741 
Q 2656 2741 2882 2914 
Q 3109 3088 3109 3444 
Q 3109 3797 2882 3972 
Q 2656 4147 2194 4147 
L 1259 4147 
z
M 628 4666 
L 2241 4666 
Q 2963 4666 3353 4366 
Q 3744 4066 3744 3513 
Q 3744 3084 3544 2831 
Q 3344 2578 2956 2516 
Q 3422 2416 3680 2098 
Q 3938 1781 3938 1306 
Q 3938 681 3513 340 
Q 3088 0 2303 0 
L 628 0 
L 628 4666 
z
" transform="scale(0.015625)"/>
      </defs>
      <use xlink:href="#DejaVuSans-65"/>
      <use xlink:href="#DejaVuSans-6e" x="61.523438"/>
      <use xlink:href="#DejaVuSans-65" x="124.902344"/>
      <use xlink:href="#DejaVuSans-6d" x="186.425781"/>
      <use xlink:href="#DejaVuSans-79" x="283.837891"/>
      <use xlink:href="#DejaVuSans-42" x="343.017578"/>
     </g>
    </g>
    <g id="line2d_22">
     <path d="M 336.555938 278.326187 
L 346.555938 278.326187 
L 356.555938 278.326187 
" style="fill: none; stroke-dasharray: 5.55,2.4; stroke-dashoffset: 0; stroke: #2ca02c; stroke-width: 1.5"/>
    </g>
    <g id="text_19">
     <!-- enemyA -->
     <g transform="translate(364.555938 281.826187) scale(0.1 -0.1)">
      <use xlink:href="#DejaVuSans-65"/>
      <use xlink:href="#DejaVuSans-6e" x="61.523438"/>
      <use xlink:href="#DejaVuSans-65" x="124.902344"/>
      <use xlink:href="#DejaVuSans-6d" x="186.425781"/>
      <use xlink:href="#DejaVuSans-79" x="283.837891"/>
      <use xlink:href="#DejaVuSans-41" x="343.017578"/>
     </g>
    </g>
    <g id="line2d_23">
     <path d="M 336.555938 293.004312 
L 346.555938 293.004312 
L 356.555938 293.004312 
" style="fill: none; stroke-dasharray: 5.55,2.4; stroke-dashoffset: 0; stroke: #d62728; stroke-width: 1.5"/>
    </g>
    <g id="text_20">
     <!-- enemyB -->
     <g transform="translate(364.555938 296.504312) scale(0.1 -0.1)">
      <use xlink:href="#DejaVuSans-65"/>
      <use xlink:href="#DejaVuSans-6e" x="61.523438"/>
      <use xlink:href="#DejaVuSans-65" x="124.902344"/>
      <use xlink:href="#DejaVuSans-6d" x="186.425781"/>
      <use xlink:href="#DejaVuSans-79" x="283.837891"/>
      <use xlink:href="#DejaVuSans-42" x="343.017578"/>
     </g>
    </g>
   </g>
  </g>
 </g>
 <defs>
  <clipPath id="pd894d0a387">
   <rect x="57.6" y="41.472" width="357.12" height="266.112"/>
  </clipPath>
 </defs>
</svg>
