<?xml version="1.0" encoding="utf-8" standalone="no"?>
<!DOCTYPE svg PUBLIC "-//W3C//DTD SVG 1.1//EN"
  "http://www.w3.org/Graphics/SVG/1.1/DTD/svg11.dtd">
<svg xmlns:xlink="http://www.w3.org/1999/xlink" width="460.8pt" height="345.6pt" viewBox="0 0 460.8 345.6" xmlns="http://www.w3.org/2000/svg" version="1.1">
 <metadata>
  <rdf:RDF xmlns:dc="http://purl.org/dc/elements/1.1/" xmlns:cc="http://creativecommons.org/ns#" xmlns:rdf="http://www.w3.org/1999/02/22-rdf-syntax-ns#">
   <cc:Work>
    <dc:type rdf:resource="http://purl.org/dc/dcmitype/StillImage"/>
    <dc:date>2022-10-13T11:35:31.907421</dc:date>
    <dc:format>image/svg+xml</dc:format>
    <dc:creator>
     <cc:Agent>
      <dc:title>Matplotlib v3.6.0, https://matplotlib.org/</dc:title>
     </cc:Agent>
    </dc:creator>
   </cc:Work>
  </rdf:RDF>
 </metadata>
 <defs>
  <style type="text/css">*{stroke-linejoin: round; stroke-linecap: butt}</style>
 </defs>
 <g id="figure_1">
  <g id="patch_1">
   <path d="M 0 345.6 
L 460.8 345.6 
L 460.8 0 
L 0 0 
z
" style="fill: #ffffff"/>
  </g>
  <g id="axes_1">
   <g id="patch_2">
    <path d="M 57.6 307.584 
L 414.72 307.584 
L 414.72 41.472 
L 57.6 41.472 
z
" style="fill: #ffffff"/>
   </g>
   <g id="PolyCollection_1">
    <path d="M 73.832727 244.070034 
L 73.832727 274.740063 
L 77.942278 274.440412 
L 82.05183 272.43909 
L 86.161381 275.152678 
L 90.270932 279.485979 
L 94.380483 274.643634 
L 98.490035 266.532789 
L 102.599586 270.366674 
L 106.709137 262.470768 
L 110.818688 256.102703 
L 114.928239 258.549751 
L 119.037791 258.449056 
L 123.147342 255.545981 
L 127.256893 254.735615 
L 131.366444 251.578067 
L 135.475995 255.243436 
L 139.585547 251.117709 
L 143.695098 257.104438 
L 147.804649 261.319593 
L 151.9142 264.795515 
L 156.023751 255.805651 
L 160.133303 257.695914 
L 164.242854 257.346114 
L 168.352405 256.441702 
L 172.461956 258.33263 
L 176.571507 258.053838 
L 180.681059 258.679664 
L 184.79061 250.077283 
L 188.900161 256.327947 
L 193.009712 256.009673 
L 197.119264 270.10547 
L 201.228815 262.596024 
L 205.338366 262.918063 
L 209.447917 253.357915 
L 213.557468 261.232539 
L 217.66702 260.500472 
L 221.776571 256.729782 
L 225.886122 254.264303 
L 229.995673 255.082472 
L 234.105224 259.442892 
L 238.214776 258.971543 
L 242.324327 259.007183 
L 246.433878 257.856815 
L 250.543429 258.89143 
L 254.65298 250.056035 
L 258.762532 259.515671 
L 262.872083 261.382753 
L 266.981634 261.8687 
L 271.091185 264.739078 
L 275.200736 249.18122 
L 279.310288 259.701469 
L 283.419839 249.349421 
L 287.52939 251.341667 
L 291.638941 252.61812 
L 295.748493 255.421123 
L 299.858044 255.590638 
L 303.967595 263.452939 
L 308.077146 258.166609 
L 312.186697 246.559622 
L 316.296249 252.351205 
L 320.4058 244.710643 
L 324.515351 241.605604 
L 328.624902 235.463846 
L 332.734453 230.913887 
L 336.844005 239.818997 
L 340.953556 240.330354 
L 345.063107 233.608903 
L 349.172658 233.730681 
L 353.282209 227.641056 
L 357.391761 225.476337 
L 361.501312 242.770818 
L 365.610863 241.372441 
L 369.720414 240.596317 
L 373.829965 243.560832 
L 377.939517 248.237571 
L 382.049068 232.797979 
L 386.158619 252.200769 
L 390.26817 243.081371 
L 394.377722 238.150962 
L 398.487273 236.920969 
L 398.487273 155.202642 
L 398.487273 155.202642 
L 394.377722 161.225963 
L 390.26817 152.004422 
L 386.158619 165.669367 
L 382.049068 148.042605 
L 377.939517 167.022868 
L 373.829965 150.433877 
L 369.720414 157.752323 
L 365.610863 161.324588 
L 361.501312 158.190442 
L 357.391761 135.76245 
L 353.282209 151.931752 
L 349.172658 145.763872 
L 345.063107 152.157018 
L 340.953556 160.471944 
L 336.844005 151.255539 
L 332.734453 142.02232 
L 328.624902 146.065628 
L 324.515351 149.716607 
L 320.4058 149.185574 
L 316.296249 161.989567 
L 312.186697 159.368127 
L 308.077146 169.957667 
L 303.967595 175.214126 
L 299.858044 174.830332 
L 295.748493 167.005249 
L 291.638941 170.747667 
L 287.52939 164.681434 
L 283.419839 171.019221 
L 279.310288 170.861288 
L 275.200736 175.650723 
L 271.091185 181.118718 
L 266.981634 182.79258 
L 262.872083 176.949596 
L 258.762532 172.818543 
L 254.65298 165.534972 
L 250.543429 174.289807 
L 246.433878 164.574306 
L 242.324327 165.198076 
L 238.214776 171.305333 
L 234.105224 172.044476 
L 229.995673 169.882139 
L 225.886122 165.509448 
L 221.776571 173.834341 
L 217.66702 167.274078 
L 213.557468 172.686877 
L 209.447917 172.541785 
L 205.338366 170.040087 
L 201.228815 174.988884 
L 197.119264 176.418276 
L 193.009712 171.577855 
L 188.900161 164.248724 
L 184.79061 160.547829 
L 180.681059 167.198993 
L 176.571507 176.46272 
L 172.461956 172.824476 
L 168.352405 171.990052 
L 164.242854 173.570284 
L 160.133303 169.475987 
L 156.023751 182.950934 
L 151.9142 190.225456 
L 147.804649 188.454372 
L 143.695098 187.950781 
L 139.585547 190.860334 
L 135.475995 192.124988 
L 131.366444 186.897796 
L 127.256893 191.963826 
L 123.147342 190.291198 
L 119.037791 190.06434 
L 114.928239 196.792365 
L 110.818688 195.713093 
L 106.709137 199.790284 
L 102.599586 200.920993 
L 98.490035 198.470249 
L 94.380483 208.886252 
L 90.270932 214.895977 
L 86.161381 210.936154 
L 82.05183 238.810205 
L 77.942278 242.371972 
L 73.832727 244.070034 
z
" clip-path="url(#pbf97a0b809)" style="fill: #1f77b4; fill-opacity: 0.3"/>
   </g>
   <g id="PolyCollection_2">
    <path d="M 73.832727 209.933758 
L 73.832727 287.966344 
L 77.942278 295.488 
L 82.05183 295.229308 
L 86.161381 286.632781 
L 90.270932 281.203615 
L 94.380483 283.723931 
L 98.490035 276.6427 
L 102.599586 277.119195 
L 106.709137 274.269135 
L 110.818688 274.541024 
L 114.928239 276.744353 
L 119.037791 257.850566 
L 123.147342 262.442786 
L 127.256893 263.23814 
L 131.366444 269.342498 
L 135.475995 275.6439 
L 139.585547 271.34892 
L 143.695098 264.968155 
L 147.804649 263.897423 
L 151.9142 259.310411 
L 156.023751 274.572091 
L 160.133303 271.496254 
L 164.242854 259.780376 
L 168.352405 241.58103 
L 172.461956 278.207205 
L 176.571507 255.851527 
L 180.681059 246.502384 
L 184.79061 250.577326 
L 188.900161 219.352432 
L 193.009712 256.150029 
L 197.119264 256.265938 
L 201.228815 253.651299 
L 205.338366 257.266461 
L 209.447917 235.581984 
L 213.557468 246.950428 
L 217.66702 243.585295 
L 221.776571 230.658911 
L 225.886122 238.955353 
L 229.995673 233.639869 
L 234.105224 233.410524 
L 238.214776 231.529023 
L 242.324327 227.115144 
L 246.433878 236.210952 
L 250.543429 232.142388 
L 254.65298 236.921607 
L 258.762532 244.694112 
L 262.872083 249.181013 
L 266.981634 252.196548 
L 271.091185 244.996391 
L 275.200736 246.213023 
L 279.310288 239.190048 
L 283.419839 244.573562 
L 287.52939 228.77145 
L 291.638941 229.305333 
L 295.748493 244.851578 
L 299.858044 254.832944 
L 303.967595 246.748902 
L 308.077146 203.450662 
L 312.186697 207.751027 
L 316.296249 214.611593 
L 320.4058 199.78761 
L 324.515351 192.376166 
L 328.624902 182.713764 
L 332.734453 154.234393 
L 336.844005 208.969421 
L 340.953556 213.000644 
L 345.063107 185.730457 
L 349.172658 208.169627 
L 353.282209 178.414817 
L 357.391761 173.129874 
L 361.501312 224.870292 
L 365.610863 209.494537 
L 369.720414 214.16654 
L 373.829965 195.112425 
L 377.939517 195.41941 
L 382.049068 179.515545 
L 386.158619 220.349145 
L 390.26817 185.187208 
L 394.377722 201.196448 
L 398.487273 214.677119 
L 398.487273 74.119163 
L 398.487273 74.119163 
L 394.377722 63.294685 
L 390.26817 61.703588 
L 386.158619 64.717098 
L 382.049068 58.472272 
L 377.939517 60.92671 
L 373.829965 61.417283 
L 369.720414 76.388487 
L 365.610863 65.938101 
L 361.501312 82.175057 
L 357.391761 57.585935 
L 353.282209 53.568 
L 349.172658 69.932329 
L 345.063107 73.073264 
L 340.953556 79.158794 
L 336.844005 67.759969 
L 332.734453 57.160579 
L 328.624902 64.351861 
L 324.515351 64.371046 
L 320.4058 67.006642 
L 316.296249 66.073149 
L 312.186697 64.635046 
L 308.077146 66.61924 
L 303.967595 103.619145 
L 299.858044 111.565596 
L 295.748493 92.554408 
L 291.638941 87.084485 
L 287.52939 87.903639 
L 283.419839 111.611572 
L 279.310288 105.591475 
L 275.200736 111.801905 
L 271.091185 104.289535 
L 266.981634 117.568922 
L 262.872083 100.867052 
L 258.762532 96.09065 
L 254.65298 95.352694 
L 250.543429 78.508704 
L 246.433878 78.71839 
L 242.324327 88.971505 
L 238.214776 88.440877 
L 234.105224 83.746429 
L 229.995673 78.121135 
L 225.886122 87.19889 
L 221.776571 83.554949 
L 217.66702 83.114085 
L 213.557468 91.905991 
L 209.447917 82.637192 
L 205.338366 101.30266 
L 201.228815 87.043362 
L 197.119264 109.102736 
L 193.009712 95.471475 
L 188.900161 67.558827 
L 184.79061 94.111791 
L 180.681059 95.179012 
L 176.571507 99.876548 
L 172.461956 123.334819 
L 168.352405 75.240069 
L 164.242854 98.880466 
L 160.133303 115.708989 
L 156.023751 130.137129 
L 151.9142 98.766124 
L 147.804649 102.599966 
L 143.695098 111.773893 
L 139.585547 124.413045 
L 135.475995 126.053342 
L 131.366444 125.531031 
L 127.256893 120.828853 
L 123.147342 108.679073 
L 119.037791 100.459485 
L 114.928239 140.400335 
L 110.818688 129.215293 
L 106.709137 120.994903 
L 102.599586 130.504548 
L 98.490035 133.80571 
L 94.380483 147.894269 
L 90.270932 170.914822 
L 86.161381 178.31073 
L 82.05183 189.076014 
L 77.942278 186.008924 
L 73.832727 209.933758 
z
" clip-path="url(#pbf97a0b809)" style="fill: #ff7f0e; fill-opacity: 0.3"/>
   </g>
   <g id="matplotlib.axis_1">
    <g id="xtick_1">
     <g id="line2d_1">
      <defs>
       <path id="m3b3650adbe" d="M 0 0 
L 0 3.5 
" style="stroke: #000000; stroke-width: 0.8"/>
      </defs>
      <g>
       <use xlink:href="#m3b3650adbe" x="73.832727" y="307.584" style="stroke: #000000; stroke-width: 0.8"/>
      </g>
     </g>
     <g id="text_1">
      <!-- 0 -->
      <g transform="translate(70.651477 322.182437) scale(0.1 -0.1)">
       <defs>
        <path id="DejaVuSans-30" d="M 2034 4250 
Q 1547 4250 1301 3770 
Q 1056 3291 1056 2328 
Q 1056 1369 1301 889 
Q 1547 409 2034 409 
Q 2525 409 2770 889 
Q 3016 1369 3016 2328 
Q 3016 3291 2770 3770 
Q 2525 4250 2034 4250 
z
M 2034 4750 
Q 2819 4750 3233 4129 
Q 3647 3509 3647 2328 
Q 3647 1150 3233 529 
Q 2819 -91 2034 -91 
Q 1250 -91 836 529 
Q 422 1150 422 2328 
Q 422 3509 836 4129 
Q 1250 4750 2034 4750 
z
" transform="scale(0.015625)"/>
       </defs>
       <use xlink:href="#DejaVuSans-30"/>
      </g>
     </g>
    </g>
    <g id="xtick_2">
     <g id="line2d_2">
      <g>
       <use xlink:href="#m3b3650adbe" x="114.928239" y="307.584" style="stroke: #000000; stroke-width: 0.8"/>
      </g>
     </g>
     <g id="text_2">
      <!-- 10 -->
      <g transform="translate(108.565739 322.182437) scale(0.1 -0.1)">
       <defs>
        <path id="DejaVuSans-31" d="M 794 531 
L 1825 531 
L 1825 4091 
L 703 3866 
L 703 4441 
L 1819 4666 
L 2450 4666 
L 2450 531 
L 3481 531 
L 3481 0 
L 794 0 
L 794 531 
z
" transform="scale(0.015625)"/>
       </defs>
       <use xlink:href="#DejaVuSans-31"/>
       <use xlink:href="#DejaVuSans-30" x="63.623047"/>
      </g>
     </g>
    </g>
    <g id="xtick_3">
     <g id="line2d_3">
      <g>
       <use xlink:href="#m3b3650adbe" x="156.023751" y="307.584" style="stroke: #000000; stroke-width: 0.8"/>
      </g>
     </g>
     <g id="text_3">
      <!-- 20 -->
      <g transform="translate(149.661251 322.182437) scale(0.1 -0.1)">
       <defs>
        <path id="DejaVuSans-32" d="M 1228 531 
L 3431 531 
L 3431 0 
L 469 0 
L 469 531 
Q 828 903 1448 1529 
Q 2069 2156 2228 2338 
Q 2531 2678 2651 2914 
Q 2772 3150 2772 3378 
Q 2772 3750 2511 3984 
Q 2250 4219 1831 4219 
Q 1534 4219 1204 4116 
Q 875 4013 500 3803 
L 500 4441 
Q 881 4594 1212 4672 
Q 1544 4750 1819 4750 
Q 2544 4750 2975 4387 
Q 3406 4025 3406 3419 
Q 3406 3131 3298 2873 
Q 3191 2616 2906 2266 
Q 2828 2175 2409 1742 
Q 1991 1309 1228 531 
z
" transform="scale(0.015625)"/>
       </defs>
       <use xlink:href="#DejaVuSans-32"/>
       <use xlink:href="#DejaVuSans-30" x="63.623047"/>
      </g>
     </g>
    </g>
    <g id="xtick_4">
     <g id="line2d_4">
      <g>
       <use xlink:href="#m3b3650adbe" x="197.119264" y="307.584" style="stroke: #000000; stroke-width: 0.8"/>
      </g>
     </g>
     <g id="text_4">
      <!-- 30 -->
      <g transform="translate(190.756764 322.182437) scale(0.1 -0.1)">
       <defs>
        <path id="DejaVuSans-33" d="M 2597 2516 
Q 3050 2419 3304 2112 
Q 3559 1806 3559 1356 
Q 3559 666 3084 287 
Q 2609 -91 1734 -91 
Q 1441 -91 1130 -33 
Q 819 25 488 141 
L 488 750 
Q 750 597 1062 519 
Q 1375 441 1716 441 
Q 2309 441 2620 675 
Q 2931 909 2931 1356 
Q 2931 1769 2642 2001 
Q 2353 2234 1838 2234 
L 1294 2234 
L 1294 2753 
L 1863 2753 
Q 2328 2753 2575 2939 
Q 2822 3125 2822 3475 
Q 2822 3834 2567 4026 
Q 2313 4219 1838 4219 
Q 1578 4219 1281 4162 
Q 984 4106 628 3988 
L 628 4550 
Q 988 4650 1302 4700 
Q 1616 4750 1894 4750 
Q 2613 4750 3031 4423 
Q 3450 4097 3450 3541 
Q 3450 3153 3228 2886 
Q 3006 2619 2597 2516 
z
" transform="scale(0.015625)"/>
       </defs>
       <use xlink:href="#DejaVuSans-33"/>
       <use xlink:href="#DejaVuSans-30" x="63.623047"/>
      </g>
     </g>
    </g>
    <g id="xtick_5">
     <g id="line2d_5">
      <g>
       <use xlink:href="#m3b3650adbe" x="238.214776" y="307.584" style="stroke: #000000; stroke-width: 0.8"/>
      </g>
     </g>
     <g id="text_5">
      <!-- 40 -->
      <g transform="translate(231.852276 322.182437) scale(0.1 -0.1)">
       <defs>
        <path id="DejaVuSans-34" d="M 2419 4116 
L 825 1625 
L 2419 1625 
L 2419 4116 
z
M 2253 4666 
L 3047 4666 
L 3047 1625 
L 3713 1625 
L 3713 1100 
L 3047 1100 
L 3047 0 
L 2419 0 
L 2419 1100 
L 313 1100 
L 313 1709 
L 2253 4666 
z
" transform="scale(0.015625)"/>
       </defs>
       <use xlink:href="#DejaVuSans-34"/>
       <use xlink:href="#DejaVuSans-30" x="63.623047"/>
      </g>
     </g>
    </g>
    <g id="xtick_6">
     <g id="line2d_6">
      <g>
       <use xlink:href="#m3b3650adbe" x="279.310288" y="307.584" style="stroke: #000000; stroke-width: 0.8"/>
      </g>
     </g>
     <g id="text_6">
      <!-- 50 -->
      <g transform="translate(272.947788 322.182437) scale(0.1 -0.1)">
       <defs>
        <path id="DejaVuSans-35" d="M 691 4666 
L 3169 4666 
L 3169 4134 
L 1269 4134 
L 1269 2991 
Q 1406 3038 1543 3061 
Q 1681 3084 1819 3084 
Q 2600 3084 3056 2656 
Q 3513 2228 3513 1497 
Q 3513 744 3044 326 
Q 2575 -91 1722 -91 
Q 1428 -91 1123 -41 
Q 819 9 494 109 
L 494 744 
Q 775 591 1075 516 
Q 1375 441 1709 441 
Q 2250 441 2565 725 
Q 2881 1009 2881 1497 
Q 2881 1984 2565 2268 
Q 2250 2553 1709 2553 
Q 1456 2553 1204 2497 
Q 953 2441 691 2322 
L 691 4666 
z
" transform="scale(0.015625)"/>
       </defs>
       <use xlink:href="#DejaVuSans-35"/>
       <use xlink:href="#DejaVuSans-30" x="63.623047"/>
      </g>
     </g>
    </g>
    <g id="xtick_7">
     <g id="line2d_7">
      <g>
       <use xlink:href="#m3b3650adbe" x="320.4058" y="307.584" style="stroke: #000000; stroke-width: 0.8"/>
      </g>
     </g>
     <g id="text_7">
      <!-- 60 -->
      <g transform="translate(314.0433 322.182437) scale(0.1 -0.1)">
       <defs>
        <path id="DejaVuSans-36" d="M 2113 2584 
Q 1688 2584 1439 2293 
Q 1191 2003 1191 1497 
Q 1191 994 1439 701 
Q 1688 409 2113 409 
Q 2538 409 2786 701 
Q 3034 994 3034 1497 
Q 3034 2003 2786 2293 
Q 2538 2584 2113 2584 
z
M 3366 4563 
L 3366 3988 
Q 3128 4100 2886 4159 
Q 2644 4219 2406 4219 
Q 1781 4219 1451 3797 
Q 1122 3375 1075 2522 
Q 1259 2794 1537 2939 
Q 1816 3084 2150 3084 
Q 2853 3084 3261 2657 
Q 3669 2231 3669 1497 
Q 3669 778 3244 343 
Q 2819 -91 2113 -91 
Q 1303 -91 875 529 
Q 447 1150 447 2328 
Q 447 3434 972 4092 
Q 1497 4750 2381 4750 
Q 2619 4750 2861 4703 
Q 3103 4656 3366 4563 
z
" transform="scale(0.015625)"/>
       </defs>
       <use xlink:href="#DejaVuSans-36"/>
       <use xlink:href="#DejaVuSans-30" x="63.623047"/>
      </g>
     </g>
    </g>
    <g id="xtick_8">
     <g id="line2d_8">
      <g>
       <use xlink:href="#m3b3650adbe" x="361.501312" y="307.584" style="stroke: #000000; stroke-width: 0.8"/>
      </g>
     </g>
     <g id="text_8">
      <!-- 70 -->
      <g transform="translate(355.138812 322.182437) scale(0.1 -0.1)">
       <defs>
        <path id="DejaVuSans-37" d="M 525 4666 
L 3525 4666 
L 3525 4397 
L 1831 0 
L 1172 0 
L 2766 4134 
L 525 4134 
L 525 4666 
z
" transform="scale(0.015625)"/>
       </defs>
       <use xlink:href="#DejaVuSans-37"/>
       <use xlink:href="#DejaVuSans-30" x="63.623047"/>
      </g>
     </g>
    </g>
    <g id="xtick_9">
     <g id="line2d_9">
      <g>
       <use xlink:href="#m3b3650adbe" x="402.596824" y="307.584" style="stroke: #000000; stroke-width: 0.8"/>
      </g>
     </g>
     <g id="text_9">
      <!-- 80 -->
      <g transform="translate(396.234324 322.182437) scale(0.1 -0.1)">
       <defs>
        <path id="DejaVuSans-38" d="M 2034 2216 
Q 1584 2216 1326 1975 
Q 1069 1734 1069 1313 
Q 1069 891 1326 650 
Q 1584 409 2034 409 
Q 2484 409 2743 651 
Q 3003 894 3003 1313 
Q 3003 1734 2745 1975 
Q 2488 2216 2034 2216 
z
M 1403 2484 
Q 997 2584 770 2862 
Q 544 3141 544 3541 
Q 544 4100 942 4425 
Q 1341 4750 2034 4750 
Q 2731 4750 3128 4425 
Q 3525 4100 3525 3541 
Q 3525 3141 3298 2862 
Q 3072 2584 2669 2484 
Q 3125 2378 3379 2068 
Q 3634 1759 3634 1313 
Q 3634 634 3220 271 
Q 2806 -91 2034 -91 
Q 1263 -91 848 271 
Q 434 634 434 1313 
Q 434 1759 690 2068 
Q 947 2378 1403 2484 
z
M 1172 3481 
Q 1172 3119 1398 2916 
Q 1625 2713 2034 2713 
Q 2441 2713 2670 2916 
Q 2900 3119 2900 3481 
Q 2900 3844 2670 4047 
Q 2441 4250 2034 4250 
Q 1625 4250 1398 4047 
Q 1172 3844 1172 3481 
z
" transform="scale(0.015625)"/>
       </defs>
       <use xlink:href="#DejaVuSans-38"/>
       <use xlink:href="#DejaVuSans-30" x="63.623047"/>
      </g>
     </g>
    </g>
   </g>
   <g id="matplotlib.axis_2">
    <g id="ytick_1">
     <g id="line2d_10">
      <defs>
       <path id="m8d63332fe1" d="M 0 0 
L -3.5 0 
" style="stroke: #000000; stroke-width: 0.8"/>
      </defs>
      <g>
       <use xlink:href="#m8d63332fe1" x="57.6" y="294.406862" style="stroke: #000000; stroke-width: 0.8"/>
      </g>
     </g>
     <g id="text_10">
      <!-- −20 -->
      <g transform="translate(29.495313 298.206081) scale(0.1 -0.1)">
       <defs>
        <path id="DejaVuSans-2212" d="M 678 2272 
L 4684 2272 
L 4684 1741 
L 678 1741 
L 678 2272 
z
" transform="scale(0.015625)"/>
       </defs>
       <use xlink:href="#DejaVuSans-2212"/>
       <use xlink:href="#DejaVuSans-32" x="83.789062"/>
       <use xlink:href="#DejaVuSans-30" x="147.412109"/>
      </g>
     </g>
    </g>
    <g id="ytick_2">
     <g id="line2d_11">
      <g>
       <use xlink:href="#m8d63332fe1" x="57.6" y="254.608491" style="stroke: #000000; stroke-width: 0.8"/>
      </g>
     </g>
     <g id="text_11">
      <!-- 0 -->
      <g transform="translate(44.2375 258.40771) scale(0.1 -0.1)">
       <use xlink:href="#DejaVuSans-30"/>
      </g>
     </g>
    </g>
    <g id="ytick_3">
     <g id="line2d_12">
      <g>
       <use xlink:href="#m8d63332fe1" x="57.6" y="214.810121" style="stroke: #000000; stroke-width: 0.8"/>
      </g>
     </g>
     <g id="text_12">
      <!-- 20 -->
      <g transform="translate(37.875 218.609339) scale(0.1 -0.1)">
       <use xlink:href="#DejaVuSans-32"/>
       <use xlink:href="#DejaVuSans-30" x="63.623047"/>
      </g>
     </g>
    </g>
    <g id="ytick_4">
     <g id="line2d_13">
      <g>
       <use xlink:href="#m8d63332fe1" x="57.6" y="175.01175" style="stroke: #000000; stroke-width: 0.8"/>
      </g>
     </g>
     <g id="text_13">
      <!-- 40 -->
      <g transform="translate(37.875 178.810969) scale(0.1 -0.1)">
       <use xlink:href="#DejaVuSans-34"/>
       <use xlink:href="#DejaVuSans-30" x="63.623047"/>
      </g>
     </g>
    </g>
    <g id="ytick_5">
     <g id="line2d_14">
      <g>
       <use xlink:href="#m8d63332fe1" x="57.6" y="135.213379" style="stroke: #000000; stroke-width: 0.8"/>
      </g>
     </g>
     <g id="text_14">
      <!-- 60 -->
      <g transform="translate(37.875 139.012598) scale(0.1 -0.1)">
       <use xlink:href="#DejaVuSans-36"/>
       <use xlink:href="#DejaVuSans-30" x="63.623047"/>
      </g>
     </g>
    </g>
    <g id="ytick_6">
     <g id="line2d_15">
      <g>
       <use xlink:href="#m8d63332fe1" x="57.6" y="95.415009" style="stroke: #000000; stroke-width: 0.8"/>
      </g>
     </g>
     <g id="text_15">
      <!-- 80 -->
      <g transform="translate(37.875 99.214227) scale(0.1 -0.1)">
       <use xlink:href="#DejaVuSans-38"/>
       <use xlink:href="#DejaVuSans-30" x="63.623047"/>
      </g>
     </g>
    </g>
    <g id="ytick_7">
     <g id="line2d_16">
      <g>
       <use xlink:href="#m8d63332fe1" x="57.6" y="55.616638" style="stroke: #000000; stroke-width: 0.8"/>
      </g>
     </g>
     <g id="text_16">
      <!-- 100 -->
      <g transform="translate(31.5125 59.415857) scale(0.1 -0.1)">
       <use xlink:href="#DejaVuSans-31"/>
       <use xlink:href="#DejaVuSans-30" x="63.623047"/>
       <use xlink:href="#DejaVuSans-30" x="127.246094"/>
      </g>
     </g>
    </g>
   </g>
   <g id="line2d_17">
    <path d="M 73.832727 259.405048 
L 77.942278 258.406192 
L 82.05183 255.624648 
L 86.161381 243.044416 
L 90.270932 247.190978 
L 94.380483 241.764943 
L 98.490035 232.501519 
L 102.599586 235.643833 
L 106.709137 231.130526 
L 110.818688 225.907898 
L 114.928239 227.671058 
L 119.037791 224.256698 
L 123.147342 222.918589 
L 127.256893 223.349721 
L 131.366444 219.237931 
L 135.475995 223.684212 
L 139.585547 220.989021 
L 143.695098 222.527609 
L 147.804649 224.886982 
L 151.9142 227.510485 
L 156.023751 219.378293 
L 160.133303 213.58595 
L 164.242854 215.458199 
L 168.352405 214.215877 
L 172.461956 215.578553 
L 176.571507 217.258279 
L 180.681059 212.939328 
L 184.79061 205.312556 
L 188.900161 210.288336 
L 193.009712 213.793764 
L 197.119264 223.261873 
L 201.228815 218.792454 
L 205.338366 216.479075 
L 209.447917 212.94985 
L 213.557468 216.959708 
L 217.66702 213.887275 
L 221.776571 215.282061 
L 225.886122 209.886875 
L 229.995673 212.482306 
L 234.105224 215.743684 
L 238.214776 215.138438 
L 242.324327 212.102629 
L 246.433878 211.21556 
L 250.543429 216.590618 
L 254.65298 207.795504 
L 258.762532 216.167107 
L 262.872083 219.166174 
L 266.981634 222.33064 
L 271.091185 222.928898 
L 275.200736 212.415971 
L 279.310288 215.281379 
L 283.419839 210.184321 
L 287.52939 208.01155 
L 291.638941 211.682894 
L 295.748493 211.213186 
L 299.858044 215.210485 
L 303.967595 219.333533 
L 308.077146 214.062138 
L 312.186697 202.963874 
L 316.296249 207.170386 
L 320.4058 196.948109 
L 324.515351 195.661106 
L 328.624902 190.764737 
L 332.734453 186.468104 
L 336.844005 195.537268 
L 340.953556 200.401149 
L 345.063107 192.88296 
L 349.172658 189.747277 
L 353.282209 189.786404 
L 357.391761 180.619394 
L 361.501312 200.48063 
L 365.610863 201.348515 
L 369.720414 199.17432 
L 373.829965 196.997354 
L 377.939517 207.63022 
L 382.049068 190.420292 
L 386.158619 208.935068 
L 390.26817 197.542897 
L 394.377722 199.688463 
L 398.487273 196.061806 
" clip-path="url(#pbf97a0b809)" style="fill: none; stroke: #1f77b4; stroke-width: 1.5; stroke-linecap: square"/>
   </g>
   <g id="line2d_18">
    <path d="M 73.832727 248.950051 
L 77.942278 240.748462 
L 82.05183 242.152661 
L 86.161381 232.471756 
L 90.270932 226.059219 
L 94.380483 215.8091 
L 98.490035 205.224205 
L 102.599586 203.811871 
L 106.709137 197.632019 
L 110.818688 201.878159 
L 114.928239 208.572344 
L 119.037791 179.155025 
L 123.147342 185.56093 
L 127.256893 192.033497 
L 131.366444 197.436765 
L 135.475995 200.848621 
L 139.585547 197.880983 
L 143.695098 188.371024 
L 147.804649 183.248694 
L 151.9142 179.038268 
L 156.023751 202.35461 
L 160.133303 193.602621 
L 164.242854 179.330421 
L 168.352405 158.41055 
L 172.461956 200.771012 
L 176.571507 177.864037 
L 180.681059 170.840698 
L 184.79061 172.344559 
L 188.900161 143.45563 
L 193.009712 175.810752 
L 197.119264 182.684337 
L 201.228815 170.34733 
L 205.338366 179.284561 
L 209.447917 159.109588 
L 213.557468 169.42821 
L 217.66702 163.34969 
L 221.776571 157.10693 
L 225.886122 163.077121 
L 229.995673 155.880502 
L 234.105224 158.578477 
L 238.214776 159.98495 
L 242.324327 158.043324 
L 246.433878 157.464671 
L 250.543429 155.325546 
L 254.65298 166.137151 
L 258.762532 170.392381 
L 262.872083 175.024032 
L 266.981634 184.882735 
L 271.091185 174.642963 
L 275.200736 179.007464 
L 279.310288 172.390761 
L 283.419839 178.092567 
L 287.52939 158.337544 
L 291.638941 158.194909 
L 295.748493 168.702993 
L 299.858044 183.19927 
L 303.967595 175.184023 
L 308.077146 135.034951 
L 312.186697 136.193036 
L 316.296249 140.342371 
L 320.4058 133.397126 
L 324.515351 128.373606 
L 328.624902 123.532812 
L 332.734453 105.697486 
L 336.844005 138.364695 
L 340.953556 146.079719 
L 345.063107 129.401861 
L 349.172658 139.050978 
L 353.282209 115.991409 
L 357.391761 115.357904 
L 361.501312 153.522675 
L 365.610863 137.716319 
L 369.720414 145.277514 
L 373.829965 128.264854 
L 377.939517 128.17306 
L 382.049068 118.993908 
L 386.158619 142.533122 
L 390.26817 123.445398 
L 394.377722 132.245567 
L 398.487273 144.398141 
" clip-path="url(#pbf97a0b809)" style="fill: none; stroke: #ff7f0e; stroke-width: 1.5; stroke-linecap: square"/>
   </g>
   <g id="line2d_19">
    <path d="M 73.832727 193.045576 
L 77.942278 193.045576 
L 82.05183 195.345932 
L 86.161381 104.872241 
L 90.270932 104.872241 
L 94.380483 104.872241 
L 98.490035 104.872241 
L 102.599586 104.872241 
L 106.709137 104.872241 
L 110.818688 104.872241 
L 114.928239 104.872241 
L 119.037791 104.872241 
L 123.147342 104.872241 
L 127.256893 104.872241 
L 131.366444 104.872241 
L 135.475995 104.872241 
L 139.585547 104.872241 
L 143.695098 104.872241 
L 147.804649 104.872241 
L 151.9142 104.872241 
L 156.023751 104.872241 
L 160.133303 104.872241 
L 164.242854 104.872241 
L 168.352405 104.872241 
L 172.461956 104.872241 
L 176.571507 104.872241 
L 180.681059 104.872241 
L 184.79061 104.872241 
L 188.900161 104.872241 
L 193.009712 104.872241 
L 197.119264 104.872241 
L 201.228815 104.872241 
L 205.338366 104.872241 
L 209.447917 104.872241 
L 213.557468 104.872241 
L 217.66702 104.872241 
L 221.776571 104.872241 
L 225.886122 104.872241 
L 229.995673 104.872241 
L 234.105224 104.872241 
L 238.214776 104.872241 
L 242.324327 104.872241 
L 246.433878 104.872241 
L 250.543429 104.872241 
L 254.65298 104.872241 
L 258.762532 104.872241 
L 262.872083 104.872241 
L 266.981634 104.872241 
L 271.091185 104.872241 
L 275.200736 104.872241 
L 279.310288 104.872241 
L 283.419839 104.872241 
L 287.52939 104.872241 
L 291.638941 104.872241 
L 295.748493 104.872241 
L 299.858044 104.872241 
L 303.967595 104.872241 
L 308.077146 104.872241 
L 312.186697 104.872241 
L 316.296249 104.872241 
L 320.4058 104.872241 
L 324.515351 104.872241 
L 328.624902 104.872241 
L 332.734453 104.872241 
L 336.844005 104.872241 
L 340.953556 104.872241 
L 345.063107 104.872241 
L 349.172658 104.872241 
L 353.282209 104.872241 
L 357.391761 104.872241 
L 361.501312 104.872241 
L 365.610863 104.872241 
L 369.720414 104.872241 
L 373.829965 104.872241 
L 377.939517 104.872241 
L 382.049068 104.872241 
L 386.158619 104.872241 
L 390.26817 104.872241 
L 394.377722 104.872241 
L 398.487273 104.872241 
" clip-path="url(#pbf97a0b809)" style="fill: none; stroke-dasharray: 5.55,2.4; stroke-dashoffset: 0; stroke: #2ca02c; stroke-width: 1.5"/>
   </g>
   <g id="line2d_20">
    <path d="M 73.832727 77.97219 
L 77.942278 77.97219 
L 82.05183 77.222251 
L 86.161381 77.97219 
L 90.270932 81.895709 
L 94.380483 81.895709 
L 98.490035 81.895709 
L 102.599586 77.864548 
L 106.709137 73.094014 
L 110.818688 77.028782 
L 114.928239 77.028782 
L 119.037791 77.028782 
L 123.147342 77.028782 
L 127.256893 82.615922 
L 131.366444 82.329813 
L 135.475995 82.029619 
L 139.585547 82.615922 
L 143.695098 82.453579 
L 147.804649 82.496527 
L 151.9142 82.615922 
L 156.023751 82.589773 
L 160.133303 82.615922 
L 164.242854 77.818345 
L 168.352405 78.606194 
L 172.461956 82.807394 
L 176.571507 82.257737 
L 180.681059 82.589773 
L 184.79061 77.658476 
L 188.900161 77.864548 
L 193.009712 76.164744 
L 197.119264 82.807394 
L 201.228815 77.2935 
L 205.338366 82.215732 
L 209.447917 77.877554 
L 213.557468 79.382877 
L 217.66702 79.382877 
L 221.776571 75.767453 
L 225.886122 79.382877 
L 229.995673 75.488838 
L 234.105224 82.377132 
L 238.214776 81.110005 
L 242.324327 82.335127 
L 246.433878 82.807394 
L 250.543429 75.172803 
L 254.65298 82.807394 
L 258.762532 77.818345 
L 262.872083 82.496527 
L 266.981634 82.807394 
L 271.091185 82.807394 
L 275.200736 82.807394 
L 279.310288 74.375819 
L 283.419839 79.257931 
L 287.52939 82.807394 
L 291.638941 82.807394 
L 295.748493 75.689166 
L 299.858044 82.807394 
L 303.967595 81.39024 
L 308.077146 79.433157 
L 312.186697 79.472065 
L 316.296249 79.298148 
L 320.4058 75.153806 
L 324.515351 82.807394 
L 328.624902 82.807394 
L 332.734453 82.807394 
L 336.844005 82.807394 
L 340.953556 82.807394 
L 345.063107 82.807394 
L 349.172658 82.807394 
L 353.282209 82.687999 
L 357.391761 78.607778 
L 361.501312 79.155276 
L 365.610863 77.438984 
L 369.720414 77.467004 
L 373.829965 77.882483 
L 377.939517 82.807394 
L 382.049068 82.807394 
L 386.158619 82.454522 
L 390.26817 74.71535 
L 394.377722 79.035881 
L 398.487273 82.621111 
" clip-path="url(#pbf97a0b809)" style="fill: none; stroke-dasharray: 5.55,2.4; stroke-dashoffset: 0; stroke: #d62728; stroke-width: 1.5"/>
   </g>
   <g id="patch_3">
    <path d="M 57.6 307.584 
L 57.6 41.472 
" style="fill: none; stroke: #000000; stroke-width: 0.8; stroke-linejoin: miter; stroke-linecap: square"/>
   </g>
   <g id="patch_4">
    <path d="M 414.72 307.584 
L 414.72 41.472 
" style="fill: none; stroke: #000000; stroke-width: 0.8; stroke-linejoin: miter; stroke-linecap: square"/>
   </g>
   <g id="patch_5">
    <path d="M 57.6 307.584 
L 414.72 307.584 
" style="fill: none; stroke: #000000; stroke-width: 0.8; stroke-linejoin: miter; stroke-linecap: square"/>
   </g>
   <g id="patch_6">
    <path d="M 57.6 41.472 
L 414.72 41.472 
" style="fill: none; stroke: #000000; stroke-width: 0.8; stroke-linejoin: miter; stroke-linecap: square"/>
   </g>
   <g id="text_17">
    <!-- fitness on 4_incest -->
    <g transform="translate(180.24 35.472) scale(0.12 -0.12)">
     <defs>
      <path id="DejaVuSans-66" d="M 2375 4863 
L 2375 4384 
L 1825 4384 
Q 1516 4384 1395 4259 
Q 1275 4134 1275 3809 
L 1275 3500 
L 2222 3500 
L 2222 3053 
L 1275 3053 
L 1275 0 
L 697 0 
L 697 3053 
L 147 3053 
L 147 3500 
L 697 3500 
L 697 3744 
Q 697 4328 969 4595 
Q 1241 4863 1831 4863 
L 2375 4863 
z
" transform="scale(0.015625)"/>
      <path id="DejaVuSans-69" d="M 603 3500 
L 1178 3500 
L 1178 0 
L 603 0 
L 603 3500 
z
M 603 4863 
L 1178 4863 
L 1178 4134 
L 603 4134 
L 603 4863 
z
" transform="scale(0.015625)"/>
      <path id="DejaVuSans-74" d="M 1172 4494 
L 1172 3500 
L 2356 3500 
L 2356 3053 
L 1172 3053 
L 1172 1153 
Q 1172 725 1289 603 
Q 1406 481 1766 481 
L 2356 481 
L 2356 0 
L 1766 0 
Q 1100 0 847 248 
Q 594 497 594 1153 
L 594 3053 
L 172 3053 
L 172 3500 
L 594 3500 
L 594 4494 
L 1172 4494 
z
" transform="scale(0.015625)"/>
      <path id="DejaVuSans-6e" d="M 3513 2113 
L 3513 0 
L 2938 0 
L 2938 2094 
Q 2938 2591 2744 2837 
Q 2550 3084 2163 3084 
Q 1697 3084 1428 2787 
Q 1159 2491 1159 1978 
L 1159 0 
L 581 0 
L 581 3500 
L 1159 3500 
L 1159 2956 
Q 1366 3272 1645 3428 
Q 1925 3584 2291 3584 
Q 2894 3584 3203 3211 
Q 3513 2838 3513 2113 
z
" transform="scale(0.015625)"/>
      <path id="DejaVuSans-65" d="M 3597 1894 
L 3597 1613 
L 953 1613 
Q 991 1019 1311 708 
Q 1631 397 2203 397 
Q 2534 397 2845 478 
Q 3156 559 3463 722 
L 3463 178 
Q 3153 47 2828 -22 
Q 2503 -91 2169 -91 
Q 1331 -91 842 396 
Q 353 884 353 1716 
Q 353 2575 817 3079 
Q 1281 3584 2069 3584 
Q 2775 3584 3186 3129 
Q 3597 2675 3597 1894 
z
M 3022 2063 
Q 3016 2534 2758 2815 
Q 2500 3097 2075 3097 
Q 1594 3097 1305 2825 
Q 1016 2553 972 2059 
L 3022 2063 
z
" transform="scale(0.015625)"/>
      <path id="DejaVuSans-73" d="M 2834 3397 
L 2834 2853 
Q 2591 2978 2328 3040 
Q 2066 3103 1784 3103 
Q 1356 3103 1142 2972 
Q 928 2841 928 2578 
Q 928 2378 1081 2264 
Q 1234 2150 1697 2047 
L 1894 2003 
Q 2506 1872 2764 1633 
Q 3022 1394 3022 966 
Q 3022 478 2636 193 
Q 2250 -91 1575 -91 
Q 1294 -91 989 -36 
Q 684 19 347 128 
L 347 722 
Q 666 556 975 473 
Q 1284 391 1588 391 
Q 1994 391 2212 530 
Q 2431 669 2431 922 
Q 2431 1156 2273 1281 
Q 2116 1406 1581 1522 
L 1381 1569 
Q 847 1681 609 1914 
Q 372 2147 372 2553 
Q 372 3047 722 3315 
Q 1072 3584 1716 3584 
Q 2034 3584 2315 3537 
Q 2597 3491 2834 3397 
z
" transform="scale(0.015625)"/>
      <path id="DejaVuSans-20" transform="scale(0.015625)"/>
      <path id="DejaVuSans-6f" d="M 1959 3097 
Q 1497 3097 1228 2736 
Q 959 2375 959 1747 
Q 959 1119 1226 758 
Q 1494 397 1959 397 
Q 2419 397 2687 759 
Q 2956 1122 2956 1747 
Q 2956 2369 2687 2733 
Q 2419 3097 1959 3097 
z
M 1959 3584 
Q 2709 3584 3137 3096 
Q 3566 2609 3566 1747 
Q 3566 888 3137 398 
Q 2709 -91 1959 -91 
Q 1206 -91 779 398 
Q 353 888 353 1747 
Q 353 2609 779 3096 
Q 1206 3584 1959 3584 
z
" transform="scale(0.015625)"/>
      <path id="DejaVuSans-5f" d="M 3263 -1063 
L 3263 -1509 
L -63 -1509 
L -63 -1063 
L 3263 -1063 
z
" transform="scale(0.015625)"/>
      <path id="DejaVuSans-63" d="M 3122 3366 
L 3122 2828 
Q 2878 2963 2633 3030 
Q 2388 3097 2138 3097 
Q 1578 3097 1268 2742 
Q 959 2388 959 1747 
Q 959 1106 1268 751 
Q 1578 397 2138 397 
Q 2388 397 2633 464 
Q 2878 531 3122 666 
L 3122 134 
Q 2881 22 2623 -34 
Q 2366 -91 2075 -91 
Q 1284 -91 818 406 
Q 353 903 353 1747 
Q 353 2603 823 3093 
Q 1294 3584 2113 3584 
Q 2378 3584 2631 3529 
Q 2884 3475 3122 3366 
z
" transform="scale(0.015625)"/>
     </defs>
     <use xlink:href="#DejaVuSans-66"/>
     <use xlink:href="#DejaVuSans-69" x="35.205078"/>
     <use xlink:href="#DejaVuSans-74" x="62.988281"/>
     <use xlink:href="#DejaVuSans-6e" x="102.197266"/>
     <use xlink:href="#DejaVuSans-65" x="165.576172"/>
     <use xlink:href="#DejaVuSans-73" x="227.099609"/>
     <use xlink:href="#DejaVuSans-73" x="279.199219"/>
     <use xlink:href="#DejaVuSans-20" x="331.298828"/>
     <use xlink:href="#DejaVuSans-6f" x="363.085938"/>
     <use xlink:href="#DejaVuSans-6e" x="424.267578"/>
     <use xlink:href="#DejaVuSans-20" x="487.646484"/>
     <use xlink:href="#DejaVuSans-34" x="519.433594"/>
     <use xlink:href="#DejaVuSans-5f" x="583.056641"/>
     <use xlink:href="#DejaVuSans-69" x="633.056641"/>
     <use xlink:href="#DejaVuSans-6e" x="660.839844"/>
     <use xlink:href="#DejaVuSans-63" x="724.21875"/>
     <use xlink:href="#DejaVuSans-65" x="779.199219"/>
     <use xlink:href="#DejaVuSans-73" x="840.722656"/>
     <use xlink:href="#DejaVuSans-74" x="892.822266"/>
    </g>
   </g>
   <g id="legend_1">
    <g id="patch_7">
     <path d="M 334.555938 302.584 
L 407.72 302.584 
Q 409.72 302.584 409.72 300.584 
L 409.72 242.8715 
Q 409.72 240.8715 407.72 240.8715 
L 334.555938 240.8715 
Q 332.555938 240.8715 332.555938 242.8715 
L 332.555938 300.584 
Q 332.555938 302.584 334.555938 302.584 
z
" style="fill: #ffffff; opacity: 0.8; stroke: #cccccc; stroke-linejoin: miter"/>
    </g>
    <g id="line2d_21">
     <path d="M 336.555938 248.969937 
L 346.555938 248.969937 
L 356.555938 248.969937 
" style="fill: none; stroke: #1f77b4; stroke-width: 1.5; stroke-linecap: square"/>
    </g>
    <g id="text_18">
     <!-- enemyA -->
     <g transform="translate(364.555938 252.469937) scale(0.1 -0.1)">
      <defs>
       <path id="DejaVuSans-6d" d="M 3328 2828 
Q 3544 3216 3844 3400 
Q 4144 3584 4550 3584 
Q 5097 3584 5394 3201 
Q 5691 2819 5691 2113 
L 5691 0 
L 5113 0 
L 5113 2094 
Q 5113 2597 4934 2840 
Q 4756 3084 4391 3084 
Q 3944 3084 3684 2787 
Q 3425 2491 3425 1978 
L 3425 0 
L 2847 0 
L 2847 2094 
Q 2847 2600 2669 2842 
Q 2491 3084 2119 3084 
Q 1678 3084 1418 2786 
Q 1159 2488 1159 1978 
L 1159 0 
L 581 0 
L 581 3500 
L 1159 3500 
L 1159 2956 
Q 1356 3278 1631 3431 
Q 1906 3584 2284 3584 
Q 2666 3584 2933 3390 
Q 3200 3197 3328 2828 
z
" transform="scale(0.015625)"/>
       <path id="DejaVuSans-79" d="M 2059 -325 
Q 1816 -950 1584 -1140 
Q 1353 -1331 966 -1331 
L 506 -1331 
L 506 -850 
L 844 -850 
Q 1081 -850 1212 -737 
Q 1344 -625 1503 -206 
L 1606 56 
L 191 3500 
L 800 3500 
L 1894 763 
L 2988 3500 
L 3597 3500 
L 2059 -325 
z
" transform="scale(0.015625)"/>
       <path id="DejaVuSans-41" d="M 2188 4044 
L 1331 1722 
L 3047 1722 
L 2188 4044 
z
M 1831 4666 
L 2547 4666 
L 4325 0 
L 3669 0 
L 3244 1197 
L 1141 1197 
L 716 0 
L 50 0 
L 1831 4666 
z
" transform="scale(0.015625)"/>
      </defs>
      <use xlink:href="#DejaVuSans-65"/>
      <use xlink:href="#DejaVuSans-6e" x="61.523438"/>
      <use xlink:href="#DejaVuSans-65" x="124.902344"/>
      <use xlink:href="#DejaVuSans-6d" x="186.425781"/>
      <use xlink:href="#DejaVuSans-79" x="283.837891"/>
      <use xlink:href="#DejaVuSans-41" x="343.017578"/>
     </g>
    </g>
    <g id="line2d_22">
     <path d="M 336.555938 263.648062 
L 346.555938 263.648062 
L 356.555938 263.648062 
" style="fill: none; stroke: #ff7f0e; stroke-width: 1.5; stroke-linecap: square"/>
    </g>
    <g id="text_19">
     <!-- enemyB -->
     <g transform="translate(364.555938 267.148062) scale(0.1 -0.1)">
      <defs>
       <path id="DejaVuSans-42" d="M 1259 2228 
L 1259 519 
L 2272 519 
Q 2781 519 3026 730 
Q 3272 941 3272 1375 
Q 3272 1813 3026 2020 
Q 2781 2228 2272 2228 
L 1259 2228 
z
M 1259 4147 
L 1259 2741 
L 2194 2741 
Q 2656 2741 2882 2914 
Q 3109 3088 3109 3444 
Q 3109 3797 2882 3972 
Q 2656 4147 2194 4147 
L 1259 4147 
z
M 628 4666 
L 2241 4666 
Q 2963 4666 3353 4366 
Q 3744 4066 3744 3513 
Q 3744 3084 3544 2831 
Q 3344 2578 2956 2516 
Q 3422 2416 3680 2098 
Q 3938 1781 3938 1306 
Q 3938 681 3513 340 
Q 3088 0 2303 0 
L 628 0 
L 628 4666 
z
" transform="scale(0.015625)"/>
      </defs>
      <use xlink:href="#DejaVuSans-65"/>
      <use xlink:href="#DejaVuSans-6e" x="61.523438"/>
      <use xlink:href="#DejaVuSans-65" x="124.902344"/>
      <use xlink:href="#DejaVuSans-6d" x="186.425781"/>
      <use xlink:href="#DejaVuSans-79" x="283.837891"/>
      <use xlink:href="#DejaVuSans-42" x="343.017578"/>
     </g>
    </g>
    <g id="line2d_23">
     <path d="M 336.555938 278.326187 
L 346.555938 278.326187 
L 356.555938 278.326187 
" style="fill: none; stroke-dasharray: 5.55,2.4; stroke-dashoffset: 0; stroke: #2ca02c; stroke-width: 1.5"/>
    </g>
    <g id="text_20">
     <!-- enemyA -->
     <g transform="translate(364.555938 281.826187) scale(0.1 -0.1)">
      <use xlink:href="#DejaVuSans-65"/>
      <use xlink:href="#DejaVuSans-6e" x="61.523438"/>
      <use xlink:href="#DejaVuSans-65" x="124.902344"/>
      <use xlink:href="#DejaVuSans-6d" x="186.425781"/>
      <use xlink:href="#DejaVuSans-79" x="283.837891"/>
      <use xlink:href="#DejaVuSans-41" x="343.017578"/>
     </g>
    </g>
    <g id="line2d_24">
     <path d="M 336.555938 293.004312 
L 346.555938 293.004312 
L 356.555938 293.004312 
" style="fill: none; stroke-dasharray: 5.55,2.4; stroke-dashoffset: 0; stroke: #d62728; stroke-width: 1.5"/>
    </g>
    <g id="text_21">
     <!-- enemyB -->
     <g transform="translate(364.555938 296.504312) scale(0.1 -0.1)">
      <use xlink:href="#DejaVuSans-65"/>
      <use xlink:href="#DejaVuSans-6e" x="61.523438"/>
      <use xlink:href="#DejaVuSans-65" x="124.902344"/>
      <use xlink:href="#DejaVuSans-6d" x="186.425781"/>
      <use xlink:href="#DejaVuSans-79" x="283.837891"/>
      <use xlink:href="#DejaVuSans-42" x="343.017578"/>
     </g>
    </g>
   </g>
  </g>
 </g>
 <defs>
  <clipPath id="pbf97a0b809">
   <rect x="57.6" y="41.472" width="357.12" height="266.112"/>
  </clipPath>
 </defs>
</svg>
