<?xml version="1.0" encoding="utf-8" standalone="no"?>
<!DOCTYPE svg PUBLIC "-//W3C//DTD SVG 1.1//EN"
  "http://www.w3.org/Graphics/SVG/1.1/DTD/svg11.dtd">
<svg xmlns:xlink="http://www.w3.org/1999/xlink" width="460.8pt" height="345.6pt" viewBox="0 0 460.8 345.6" xmlns="http://www.w3.org/2000/svg" version="1.1">
 <metadata>
  <rdf:RDF xmlns:dc="http://purl.org/dc/elements/1.1/" xmlns:cc="http://creativecommons.org/ns#" xmlns:rdf="http://www.w3.org/1999/02/22-rdf-syntax-ns#">
   <cc:Work>
    <dc:type rdf:resource="http://purl.org/dc/dcmitype/StillImage"/>
    <dc:date>2022-10-13T11:30:07.970405</dc:date>
    <dc:format>image/svg+xml</dc:format>
    <dc:creator>
     <cc:Agent>
      <dc:title>Matplotlib v3.6.0, https://matplotlib.org/</dc:title>
     </cc:Agent>
    </dc:creator>
   </cc:Work>
  </rdf:RDF>
 </metadata>
 <defs>
  <style type="text/css">*{stroke-linejoin: round; stroke-linecap: butt}</style>
 </defs>
 <g id="figure_1">
  <g id="patch_1">
   <path d="M 0 345.6 
L 460.8 345.6 
L 460.8 0 
L 0 0 
z
" style="fill: #ffffff"/>
  </g>
  <g id="axes_1">
   <g id="patch_2">
    <path d="M 57.6 307.584 
L 414.72 307.584 
L 414.72 41.472 
L 57.6 41.472 
z
" style="fill: #ffffff"/>
   </g>
   <g id="PolyCollection_1">
    <path d="M 73.832727 247.050016 
L 73.832727 279.199065 
L 77.942278 275.308674 
L 82.05183 273.149002 
L 86.161381 271.366683 
L 90.270932 269.961733 
L 94.380483 269.942517 
L 98.490035 271.89959 
L 102.599586 268.141798 
L 106.709137 267.656169 
L 110.818688 266.5501 
L 114.928239 259.925508 
L 119.037791 269.153908 
L 123.147342 262.932084 
L 127.256893 255.052866 
L 131.366444 256.959424 
L 135.475995 253.316682 
L 139.585547 254.890594 
L 143.695098 251.917621 
L 147.804649 259.497514 
L 151.9142 254.852981 
L 156.023751 248.650997 
L 160.133303 248.969002 
L 164.242854 259.171654 
L 168.352405 251.309702 
L 172.461956 257.903423 
L 176.571507 257.776399 
L 180.681059 253.98987 
L 184.79061 256.660556 
L 188.900161 257.211535 
L 193.009712 248.074757 
L 197.119264 239.254446 
L 201.228815 228.210202 
L 205.338366 240.880155 
L 209.447917 238.044235 
L 213.557468 236.272447 
L 217.66702 224.983749 
L 221.776571 224.140482 
L 225.886122 202.554682 
L 229.995673 209.28472 
L 234.105224 225.531897 
L 238.214776 236.017113 
L 242.324327 221.021092 
L 246.433878 218.79666 
L 250.543429 227.094948 
L 254.65298 235.025472 
L 258.762532 225.045606 
L 262.872083 225.307736 
L 266.981634 214.126746 
L 271.091185 200.647177 
L 275.200736 220.207019 
L 279.310288 196.083175 
L 283.419839 210.580756 
L 287.52939 220.814245 
L 291.638941 206.268208 
L 295.748493 218.064178 
L 299.858044 204.36245 
L 303.967595 221.980359 
L 308.077146 231.735541 
L 312.186697 216.896246 
L 316.296249 211.473959 
L 320.4058 215.017259 
L 324.515351 223.140353 
L 328.624902 218.440959 
L 332.734453 219.174285 
L 336.844005 202.286288 
L 340.953556 222.220897 
L 345.063107 190.969211 
L 349.172658 224.432086 
L 353.282209 178.480868 
L 357.391761 192.065508 
L 361.501312 201.41578 
L 365.610863 185.100562 
L 369.720414 193.538641 
L 373.829965 204.014911 
L 377.939517 208.929617 
L 382.049068 191.681445 
L 386.158619 204.621996 
L 390.26817 209.730848 
L 394.377722 182.666181 
L 398.487273 200.31791 
L 398.487273 111.650561 
L 398.487273 111.650561 
L 394.377722 106.097604 
L 390.26817 115.333345 
L 386.158619 116.20755 
L 382.049068 102.508606 
L 377.939517 118.085034 
L 373.829965 119.425796 
L 369.720414 108.655228 
L 365.610863 108.074439 
L 361.501312 108.555422 
L 357.391761 114.687995 
L 353.282209 112.297494 
L 349.172658 125.631273 
L 345.063107 114.982507 
L 340.953556 124.312332 
L 336.844005 117.805809 
L 332.734453 123.026546 
L 328.624902 137.32634 
L 324.515351 139.66624 
L 320.4058 130.78903 
L 316.296249 127.339881 
L 312.186697 129.947038 
L 308.077146 126.566487 
L 303.967595 127.389045 
L 299.858044 129.236274 
L 295.748493 127.024345 
L 291.638941 127.352889 
L 287.52939 135.798124 
L 283.419839 134.89487 
L 279.310288 132.494451 
L 275.200736 141.020401 
L 271.091185 129.671684 
L 266.981634 136.631621 
L 262.872083 129.703119 
L 258.762532 130.89747 
L 254.65298 141.242892 
L 250.543429 135.116376 
L 246.433878 127.617462 
L 242.324327 147.422436 
L 238.214776 149.115902 
L 234.105224 133.977774 
L 229.995673 131.595273 
L 225.886122 131.188303 
L 221.776571 144.123589 
L 217.66702 141.699872 
L 213.557468 149.097376 
L 209.447917 148.929546 
L 205.338366 152.191389 
L 201.228815 156.979524 
L 197.119264 146.925858 
L 193.009712 155.569131 
L 188.900161 169.618984 
L 184.79061 167.376481 
L 180.681059 169.186528 
L 176.571507 170.99234 
L 172.461956 175.854543 
L 168.352405 170.874352 
L 164.242854 177.11863 
L 160.133303 175.330119 
L 156.023751 166.447495 
L 151.9142 181.016094 
L 147.804649 180.88545 
L 143.695098 173.083755 
L 139.585547 179.710835 
L 135.475995 175.374395 
L 131.366444 190.839811 
L 127.256893 195.341046 
L 123.147342 193.202784 
L 119.037791 201.936682 
L 114.928239 202.150533 
L 110.818688 207.480666 
L 106.709137 214.150684 
L 102.599586 225.846203 
L 98.490035 224.726386 
L 94.380483 232.523145 
L 90.270932 232.46011 
L 86.161381 234.950884 
L 82.05183 224.256002 
L 77.942278 233.487235 
L 73.832727 247.050016 
z
" clip-path="url(#pa66e5d082e)" style="fill: #1f77b4; fill-opacity: 0.3"/>
   </g>
   <g id="PolyCollection_2">
    <path d="M 73.832727 215.152457 
L 73.832727 295.488 
L 77.942278 289.723307 
L 82.05183 287.844119 
L 86.161381 290.81643 
L 90.270932 291.297465 
L 94.380483 290.82041 
L 98.490035 290.094189 
L 102.599586 287.735929 
L 106.709137 274.301858 
L 110.818688 271.389952 
L 114.928239 276.152782 
L 119.037791 262.072625 
L 123.147342 244.584098 
L 127.256893 252.537197 
L 131.366444 264.014721 
L 135.475995 242.265761 
L 139.585547 257.646549 
L 143.695098 243.427719 
L 147.804649 245.711664 
L 151.9142 229.605258 
L 156.023751 229.413672 
L 160.133303 228.848737 
L 164.242854 261.286963 
L 168.352405 257.891486 
L 172.461956 259.259547 
L 176.571507 252.869647 
L 180.681059 247.972952 
L 184.79061 250.131637 
L 188.900161 266.230305 
L 193.009712 255.035472 
L 197.119264 234.22011 
L 201.228815 219.965728 
L 205.338366 223.37799 
L 209.447917 213.209296 
L 213.557468 201.183138 
L 217.66702 206.147921 
L 221.776571 206.140375 
L 225.886122 198.448475 
L 229.995673 182.148814 
L 234.105224 199.368404 
L 238.214776 212.156703 
L 242.324327 186.803103 
L 246.433878 201.439287 
L 250.543429 176.879577 
L 254.65298 191.337283 
L 258.762532 201.58924 
L 262.872083 212.234386 
L 266.981634 182.253974 
L 271.091185 176.451088 
L 275.200736 204.205558 
L 279.310288 219.638218 
L 283.419839 175.260284 
L 287.52939 187.619137 
L 291.638941 185.177918 
L 295.748493 170.748862 
L 299.858044 183.070665 
L 303.967595 210.778465 
L 308.077146 216.734702 
L 312.186697 197.665632 
L 316.296249 187.60817 
L 320.4058 164.587125 
L 324.515351 136.516813 
L 328.624902 151.630775 
L 332.734453 137.947689 
L 336.844005 154.585224 
L 340.953556 167.745354 
L 345.063107 137.919428 
L 349.172658 170.875401 
L 353.282209 137.2011 
L 357.391761 102.467938 
L 361.501312 167.609715 
L 365.610863 106.01936 
L 369.720414 112.346964 
L 373.829965 102.183153 
L 377.939517 111.98005 
L 382.049068 127.46884 
L 386.158619 114.802959 
L 390.26817 135.216128 
L 394.377722 111.697669 
L 398.487273 108.655606 
L 398.487273 66.915055 
L 398.487273 66.915055 
L 394.377722 64.821379 
L 390.26817 56.614448 
L 386.158619 62.236003 
L 382.049068 58.454334 
L 377.939517 64.719347 
L 373.829965 71.503225 
L 369.720414 65.802816 
L 365.610863 70.065024 
L 361.501312 56.583602 
L 357.391761 71.896379 
L 353.282209 54.615031 
L 349.172658 53.568 
L 345.063107 56.242688 
L 340.953556 53.853447 
L 336.844005 56.151059 
L 332.734453 56.6723 
L 328.624902 57.087145 
L 324.515351 58.067238 
L 320.4058 54.632606 
L 316.296249 58.304436 
L 312.186697 61.527386 
L 308.077146 68.972829 
L 303.967595 65.696893 
L 299.858044 57.958999 
L 295.748493 58.408507 
L 291.638941 58.561167 
L 287.52939 59.344219 
L 283.419839 56.94225 
L 279.310288 72.14904 
L 275.200736 65.061078 
L 271.091185 56.361496 
L 266.981634 56.912694 
L 262.872083 70.398565 
L 258.762532 64.606479 
L 254.65298 58.21445 
L 250.543429 56.519129 
L 246.433878 65.779634 
L 242.324327 61.564739 
L 238.214776 66.809112 
L 234.105224 62.481113 
L 229.995673 57.955725 
L 225.886122 60.870923 
L 221.776571 64.254581 
L 217.66702 67.902305 
L 213.557468 66.082022 
L 209.447917 66.967166 
L 205.338366 72.995315 
L 201.228815 70.530122 
L 197.119264 79.85501 
L 193.009712 95.3764 
L 188.900161 113.728878 
L 184.79061 87.113813 
L 180.681059 89.727346 
L 176.571507 90.914258 
L 172.461956 104.210752 
L 168.352405 95.959359 
L 164.242854 108.058086 
L 160.133303 76.150077 
L 156.023751 72.57726 
L 151.9142 76.174087 
L 147.804649 83.165984 
L 143.695098 82.981962 
L 139.585547 98.823354 
L 135.475995 85.822856 
L 131.366444 107.261797 
L 127.256893 86.995079 
L 123.147342 82.701497 
L 119.037791 106.513151 
L 114.928239 139.826177 
L 110.818688 120.637288 
L 106.709137 135.378861 
L 102.599586 139.236741 
L 98.490035 158.944884 
L 94.380483 166.65358 
L 90.270932 191.558831 
L 86.161381 176.596404 
L 82.05183 205.83448 
L 77.942278 209.841271 
L 73.832727 215.152457 
z
" clip-path="url(#pa66e5d082e)" style="fill: #ff7f0e; fill-opacity: 0.3"/>
   </g>
   <g id="matplotlib.axis_1">
    <g id="xtick_1">
     <g id="line2d_1">
      <defs>
       <path id="mb72a9fbb69" d="M 0 0 
L 0 3.5 
" style="stroke: #000000; stroke-width: 0.8"/>
      </defs>
      <g>
       <use xlink:href="#mb72a9fbb69" x="73.832727" y="307.584" style="stroke: #000000; stroke-width: 0.8"/>
      </g>
     </g>
     <g id="text_1">
      <!-- 0 -->
      <g transform="translate(70.651477 322.182437) scale(0.1 -0.1)">
       <defs>
        <path id="DejaVuSans-30" d="M 2034 4250 
Q 1547 4250 1301 3770 
Q 1056 3291 1056 2328 
Q 1056 1369 1301 889 
Q 1547 409 2034 409 
Q 2525 409 2770 889 
Q 3016 1369 3016 2328 
Q 3016 3291 2770 3770 
Q 2525 4250 2034 4250 
z
M 2034 4750 
Q 2819 4750 3233 4129 
Q 3647 3509 3647 2328 
Q 3647 1150 3233 529 
Q 2819 -91 2034 -91 
Q 1250 -91 836 529 
Q 422 1150 422 2328 
Q 422 3509 836 4129 
Q 1250 4750 2034 4750 
z
" transform="scale(0.015625)"/>
       </defs>
       <use xlink:href="#DejaVuSans-30"/>
      </g>
     </g>
    </g>
    <g id="xtick_2">
     <g id="line2d_2">
      <g>
       <use xlink:href="#mb72a9fbb69" x="114.928239" y="307.584" style="stroke: #000000; stroke-width: 0.8"/>
      </g>
     </g>
     <g id="text_2">
      <!-- 10 -->
      <g transform="translate(108.565739 322.182437) scale(0.1 -0.1)">
       <defs>
        <path id="DejaVuSans-31" d="M 794 531 
L 1825 531 
L 1825 4091 
L 703 3866 
L 703 4441 
L 1819 4666 
L 2450 4666 
L 2450 531 
L 3481 531 
L 3481 0 
L 794 0 
L 794 531 
z
" transform="scale(0.015625)"/>
       </defs>
       <use xlink:href="#DejaVuSans-31"/>
       <use xlink:href="#DejaVuSans-30" x="63.623047"/>
      </g>
     </g>
    </g>
    <g id="xtick_3">
     <g id="line2d_3">
      <g>
       <use xlink:href="#mb72a9fbb69" x="156.023751" y="307.584" style="stroke: #000000; stroke-width: 0.8"/>
      </g>
     </g>
     <g id="text_3">
      <!-- 20 -->
      <g transform="translate(149.661251 322.182437) scale(0.1 -0.1)">
       <defs>
        <path id="DejaVuSans-32" d="M 1228 531 
L 3431 531 
L 3431 0 
L 469 0 
L 469 531 
Q 828 903 1448 1529 
Q 2069 2156 2228 2338 
Q 2531 2678 2651 2914 
Q 2772 3150 2772 3378 
Q 2772 3750 2511 3984 
Q 2250 4219 1831 4219 
Q 1534 4219 1204 4116 
Q 875 4013 500 3803 
L 500 4441 
Q 881 4594 1212 4672 
Q 1544 4750 1819 4750 
Q 2544 4750 2975 4387 
Q 3406 4025 3406 3419 
Q 3406 3131 3298 2873 
Q 3191 2616 2906 2266 
Q 2828 2175 2409 1742 
Q 1991 1309 1228 531 
z
" transform="scale(0.015625)"/>
       </defs>
       <use xlink:href="#DejaVuSans-32"/>
       <use xlink:href="#DejaVuSans-30" x="63.623047"/>
      </g>
     </g>
    </g>
    <g id="xtick_4">
     <g id="line2d_4">
      <g>
       <use xlink:href="#mb72a9fbb69" x="197.119264" y="307.584" style="stroke: #000000; stroke-width: 0.8"/>
      </g>
     </g>
     <g id="text_4">
      <!-- 30 -->
      <g transform="translate(190.756764 322.182437) scale(0.1 -0.1)">
       <defs>
        <path id="DejaVuSans-33" d="M 2597 2516 
Q 3050 2419 3304 2112 
Q 3559 1806 3559 1356 
Q 3559 666 3084 287 
Q 2609 -91 1734 -91 
Q 1441 -91 1130 -33 
Q 819 25 488 141 
L 488 750 
Q 750 597 1062 519 
Q 1375 441 1716 441 
Q 2309 441 2620 675 
Q 2931 909 2931 1356 
Q 2931 1769 2642 2001 
Q 2353 2234 1838 2234 
L 1294 2234 
L 1294 2753 
L 1863 2753 
Q 2328 2753 2575 2939 
Q 2822 3125 2822 3475 
Q 2822 3834 2567 4026 
Q 2313 4219 1838 4219 
Q 1578 4219 1281 4162 
Q 984 4106 628 3988 
L 628 4550 
Q 988 4650 1302 4700 
Q 1616 4750 1894 4750 
Q 2613 4750 3031 4423 
Q 3450 4097 3450 3541 
Q 3450 3153 3228 2886 
Q 3006 2619 2597 2516 
z
" transform="scale(0.015625)"/>
       </defs>
       <use xlink:href="#DejaVuSans-33"/>
       <use xlink:href="#DejaVuSans-30" x="63.623047"/>
      </g>
     </g>
    </g>
    <g id="xtick_5">
     <g id="line2d_5">
      <g>
       <use xlink:href="#mb72a9fbb69" x="238.214776" y="307.584" style="stroke: #000000; stroke-width: 0.8"/>
      </g>
     </g>
     <g id="text_5">
      <!-- 40 -->
      <g transform="translate(231.852276 322.182437) scale(0.1 -0.1)">
       <defs>
        <path id="DejaVuSans-34" d="M 2419 4116 
L 825 1625 
L 2419 1625 
L 2419 4116 
z
M 2253 4666 
L 3047 4666 
L 3047 1625 
L 3713 1625 
L 3713 1100 
L 3047 1100 
L 3047 0 
L 2419 0 
L 2419 1100 
L 313 1100 
L 313 1709 
L 2253 4666 
z
" transform="scale(0.015625)"/>
       </defs>
       <use xlink:href="#DejaVuSans-34"/>
       <use xlink:href="#DejaVuSans-30" x="63.623047"/>
      </g>
     </g>
    </g>
    <g id="xtick_6">
     <g id="line2d_6">
      <g>
       <use xlink:href="#mb72a9fbb69" x="279.310288" y="307.584" style="stroke: #000000; stroke-width: 0.8"/>
      </g>
     </g>
     <g id="text_6">
      <!-- 50 -->
      <g transform="translate(272.947788 322.182437) scale(0.1 -0.1)">
       <defs>
        <path id="DejaVuSans-35" d="M 691 4666 
L 3169 4666 
L 3169 4134 
L 1269 4134 
L 1269 2991 
Q 1406 3038 1543 3061 
Q 1681 3084 1819 3084 
Q 2600 3084 3056 2656 
Q 3513 2228 3513 1497 
Q 3513 744 3044 326 
Q 2575 -91 1722 -91 
Q 1428 -91 1123 -41 
Q 819 9 494 109 
L 494 744 
Q 775 591 1075 516 
Q 1375 441 1709 441 
Q 2250 441 2565 725 
Q 2881 1009 2881 1497 
Q 2881 1984 2565 2268 
Q 2250 2553 1709 2553 
Q 1456 2553 1204 2497 
Q 953 2441 691 2322 
L 691 4666 
z
" transform="scale(0.015625)"/>
       </defs>
       <use xlink:href="#DejaVuSans-35"/>
       <use xlink:href="#DejaVuSans-30" x="63.623047"/>
      </g>
     </g>
    </g>
    <g id="xtick_7">
     <g id="line2d_7">
      <g>
       <use xlink:href="#mb72a9fbb69" x="320.4058" y="307.584" style="stroke: #000000; stroke-width: 0.8"/>
      </g>
     </g>
     <g id="text_7">
      <!-- 60 -->
      <g transform="translate(314.0433 322.182437) scale(0.1 -0.1)">
       <defs>
        <path id="DejaVuSans-36" d="M 2113 2584 
Q 1688 2584 1439 2293 
Q 1191 2003 1191 1497 
Q 1191 994 1439 701 
Q 1688 409 2113 409 
Q 2538 409 2786 701 
Q 3034 994 3034 1497 
Q 3034 2003 2786 2293 
Q 2538 2584 2113 2584 
z
M 3366 4563 
L 3366 3988 
Q 3128 4100 2886 4159 
Q 2644 4219 2406 4219 
Q 1781 4219 1451 3797 
Q 1122 3375 1075 2522 
Q 1259 2794 1537 2939 
Q 1816 3084 2150 3084 
Q 2853 3084 3261 2657 
Q 3669 2231 3669 1497 
Q 3669 778 3244 343 
Q 2819 -91 2113 -91 
Q 1303 -91 875 529 
Q 447 1150 447 2328 
Q 447 3434 972 4092 
Q 1497 4750 2381 4750 
Q 2619 4750 2861 4703 
Q 3103 4656 3366 4563 
z
" transform="scale(0.015625)"/>
       </defs>
       <use xlink:href="#DejaVuSans-36"/>
       <use xlink:href="#DejaVuSans-30" x="63.623047"/>
      </g>
     </g>
    </g>
    <g id="xtick_8">
     <g id="line2d_8">
      <g>
       <use xlink:href="#mb72a9fbb69" x="361.501312" y="307.584" style="stroke: #000000; stroke-width: 0.8"/>
      </g>
     </g>
     <g id="text_8">
      <!-- 70 -->
      <g transform="translate(355.138812 322.182437) scale(0.1 -0.1)">
       <defs>
        <path id="DejaVuSans-37" d="M 525 4666 
L 3525 4666 
L 3525 4397 
L 1831 0 
L 1172 0 
L 2766 4134 
L 525 4134 
L 525 4666 
z
" transform="scale(0.015625)"/>
       </defs>
       <use xlink:href="#DejaVuSans-37"/>
       <use xlink:href="#DejaVuSans-30" x="63.623047"/>
      </g>
     </g>
    </g>
    <g id="xtick_9">
     <g id="line2d_9">
      <g>
       <use xlink:href="#mb72a9fbb69" x="402.596824" y="307.584" style="stroke: #000000; stroke-width: 0.8"/>
      </g>
     </g>
     <g id="text_9">
      <!-- 80 -->
      <g transform="translate(396.234324 322.182437) scale(0.1 -0.1)">
       <defs>
        <path id="DejaVuSans-38" d="M 2034 2216 
Q 1584 2216 1326 1975 
Q 1069 1734 1069 1313 
Q 1069 891 1326 650 
Q 1584 409 2034 409 
Q 2484 409 2743 651 
Q 3003 894 3003 1313 
Q 3003 1734 2745 1975 
Q 2488 2216 2034 2216 
z
M 1403 2484 
Q 997 2584 770 2862 
Q 544 3141 544 3541 
Q 544 4100 942 4425 
Q 1341 4750 2034 4750 
Q 2731 4750 3128 4425 
Q 3525 4100 3525 3541 
Q 3525 3141 3298 2862 
Q 3072 2584 2669 2484 
Q 3125 2378 3379 2068 
Q 3634 1759 3634 1313 
Q 3634 634 3220 271 
Q 2806 -91 2034 -91 
Q 1263 -91 848 271 
Q 434 634 434 1313 
Q 434 1759 690 2068 
Q 947 2378 1403 2484 
z
M 1172 3481 
Q 1172 3119 1398 2916 
Q 1625 2713 2034 2713 
Q 2441 2713 2670 2916 
Q 2900 3119 2900 3481 
Q 2900 3844 2670 4047 
Q 2441 4250 2034 4250 
Q 1625 4250 1398 4047 
Q 1172 3844 1172 3481 
z
" transform="scale(0.015625)"/>
       </defs>
       <use xlink:href="#DejaVuSans-38"/>
       <use xlink:href="#DejaVuSans-30" x="63.623047"/>
      </g>
     </g>
    </g>
   </g>
   <g id="matplotlib.axis_2">
    <g id="ytick_1">
     <g id="line2d_10">
      <defs>
       <path id="m7875260d40" d="M 0 0 
L -3.5 0 
" style="stroke: #000000; stroke-width: 0.8"/>
      </defs>
      <g>
       <use xlink:href="#m7875260d40" x="57.6" y="298.448369" style="stroke: #000000; stroke-width: 0.8"/>
      </g>
     </g>
     <g id="text_10">
      <!-- −20 -->
      <g transform="translate(29.495313 302.247588) scale(0.1 -0.1)">
       <defs>
        <path id="DejaVuSans-2212" d="M 678 2272 
L 4684 2272 
L 4684 1741 
L 678 1741 
L 678 2272 
z
" transform="scale(0.015625)"/>
       </defs>
       <use xlink:href="#DejaVuSans-2212"/>
       <use xlink:href="#DejaVuSans-32" x="83.789062"/>
       <use xlink:href="#DejaVuSans-30" x="147.412109"/>
      </g>
     </g>
    </g>
    <g id="ytick_2">
     <g id="line2d_11">
      <g>
       <use xlink:href="#m7875260d40" x="57.6" y="258.722064" style="stroke: #000000; stroke-width: 0.8"/>
      </g>
     </g>
     <g id="text_11">
      <!-- 0 -->
      <g transform="translate(44.2375 262.521283) scale(0.1 -0.1)">
       <use xlink:href="#DejaVuSans-30"/>
      </g>
     </g>
    </g>
    <g id="ytick_3">
     <g id="line2d_12">
      <g>
       <use xlink:href="#m7875260d40" x="57.6" y="218.995758" style="stroke: #000000; stroke-width: 0.8"/>
      </g>
     </g>
     <g id="text_12">
      <!-- 20 -->
      <g transform="translate(37.875 222.794977) scale(0.1 -0.1)">
       <use xlink:href="#DejaVuSans-32"/>
       <use xlink:href="#DejaVuSans-30" x="63.623047"/>
      </g>
     </g>
    </g>
    <g id="ytick_4">
     <g id="line2d_13">
      <g>
       <use xlink:href="#m7875260d40" x="57.6" y="179.269453" style="stroke: #000000; stroke-width: 0.8"/>
      </g>
     </g>
     <g id="text_13">
      <!-- 40 -->
      <g transform="translate(37.875 183.068672) scale(0.1 -0.1)">
       <use xlink:href="#DejaVuSans-34"/>
       <use xlink:href="#DejaVuSans-30" x="63.623047"/>
      </g>
     </g>
    </g>
    <g id="ytick_5">
     <g id="line2d_14">
      <g>
       <use xlink:href="#m7875260d40" x="57.6" y="139.543147" style="stroke: #000000; stroke-width: 0.8"/>
      </g>
     </g>
     <g id="text_14">
      <!-- 60 -->
      <g transform="translate(37.875 143.342366) scale(0.1 -0.1)">
       <use xlink:href="#DejaVuSans-36"/>
       <use xlink:href="#DejaVuSans-30" x="63.623047"/>
      </g>
     </g>
    </g>
    <g id="ytick_6">
     <g id="line2d_15">
      <g>
       <use xlink:href="#m7875260d40" x="57.6" y="99.816842" style="stroke: #000000; stroke-width: 0.8"/>
      </g>
     </g>
     <g id="text_15">
      <!-- 80 -->
      <g transform="translate(37.875 103.61606) scale(0.1 -0.1)">
       <use xlink:href="#DejaVuSans-38"/>
       <use xlink:href="#DejaVuSans-30" x="63.623047"/>
      </g>
     </g>
    </g>
    <g id="ytick_7">
     <g id="line2d_16">
      <g>
       <use xlink:href="#m7875260d40" x="57.6" y="60.090536" style="stroke: #000000; stroke-width: 0.8"/>
      </g>
     </g>
     <g id="text_16">
      <!-- 100 -->
      <g transform="translate(31.5125 63.889755) scale(0.1 -0.1)">
       <use xlink:href="#DejaVuSans-31"/>
       <use xlink:href="#DejaVuSans-30" x="63.623047"/>
       <use xlink:href="#DejaVuSans-30" x="127.246094"/>
      </g>
     </g>
    </g>
   </g>
   <g id="line2d_17">
    <path d="M 73.832727 263.12454 
L 77.942278 254.397955 
L 82.05183 248.702502 
L 86.161381 253.158784 
L 90.270932 251.210922 
L 94.380483 251.232831 
L 98.490035 248.312988 
L 102.599586 246.994001 
L 106.709137 240.903426 
L 110.818688 237.015383 
L 114.928239 231.038021 
L 119.037791 235.545295 
L 123.147342 228.067434 
L 127.256893 225.196956 
L 131.366444 223.899617 
L 135.475995 214.345538 
L 139.585547 217.300714 
L 143.695098 212.500688 
L 147.804649 220.191482 
L 151.9142 217.934538 
L 156.023751 207.549246 
L 160.133303 212.149561 
L 164.242854 218.145142 
L 168.352405 211.092027 
L 172.461956 216.878983 
L 176.571507 214.38437 
L 180.681059 211.588199 
L 184.79061 212.018518 
L 188.900161 213.415259 
L 193.009712 201.821944 
L 197.119264 193.090152 
L 201.228815 192.594863 
L 205.338366 196.535772 
L 209.447917 193.48689 
L 213.557468 192.684912 
L 217.66702 183.341811 
L 221.776571 184.132036 
L 225.886122 166.871492 
L 229.995673 170.439997 
L 234.105224 179.754835 
L 238.214776 192.566508 
L 242.324327 184.221764 
L 246.433878 173.207061 
L 250.543429 181.105662 
L 254.65298 188.134182 
L 258.762532 177.971538 
L 262.872083 177.505427 
L 266.981634 175.379183 
L 271.091185 165.159431 
L 275.200736 180.61371 
L 279.310288 164.288813 
L 283.419839 172.737813 
L 287.52939 178.306184 
L 291.638941 166.810548 
L 295.748493 172.544262 
L 299.858044 166.799362 
L 303.967595 174.684702 
L 308.077146 179.151014 
L 312.186697 173.421642 
L 316.296249 169.40692 
L 320.4058 172.903145 
L 324.515351 181.403297 
L 328.624902 177.88365 
L 332.734453 171.100415 
L 336.844005 160.046048 
L 340.953556 173.266614 
L 345.063107 152.975859 
L 349.172658 175.031679 
L 353.282209 145.389181 
L 357.391761 153.376752 
L 361.501312 154.985601 
L 365.610863 146.5875 
L 369.720414 151.096934 
L 373.829965 161.720354 
L 377.939517 163.507326 
L 382.049068 147.095026 
L 386.158619 160.414773 
L 390.26817 162.532097 
L 394.377722 144.381892 
L 398.487273 155.984235 
" clip-path="url(#pa66e5d082e)" style="fill: none; stroke: #1f77b4; stroke-width: 1.5; stroke-linecap: square"/>
   </g>
   <g id="line2d_18">
    <path d="M 73.832727 255.320228 
L 77.942278 249.782289 
L 82.05183 246.8393 
L 86.161381 233.706417 
L 90.270932 241.428148 
L 94.380483 228.736995 
L 98.490035 224.519537 
L 102.599586 213.486335 
L 106.709137 204.840359 
L 110.818688 196.01362 
L 114.928239 207.98948 
L 119.037791 184.292888 
L 123.147342 163.642798 
L 127.256893 169.766138 
L 131.366444 185.638259 
L 135.475995 164.044309 
L 139.585547 178.234951 
L 143.695098 163.20484 
L 147.804649 164.438824 
L 151.9142 152.889673 
L 156.023751 150.995466 
L 160.133303 152.499407 
L 164.242854 184.672524 
L 168.352405 176.925423 
L 172.461956 181.735149 
L 176.571507 171.891952 
L 180.681059 168.850149 
L 184.79061 168.622725 
L 188.900161 189.979592 
L 193.009712 175.205936 
L 197.119264 157.03756 
L 201.228815 145.247925 
L 205.338366 148.186653 
L 209.447917 140.088231 
L 213.557468 133.63258 
L 217.66702 137.025113 
L 221.776571 135.197478 
L 225.886122 129.659699 
L 229.995673 120.052269 
L 234.105224 130.924759 
L 238.214776 139.482908 
L 242.324327 124.183921 
L 246.433878 133.609461 
L 250.543429 116.699353 
L 254.65298 124.775866 
L 258.762532 133.097859 
L 262.872083 141.316475 
L 266.981634 119.583334 
L 271.091185 116.406292 
L 275.200736 134.633318 
L 279.310288 145.893629 
L 283.419839 116.101267 
L 287.52939 123.481678 
L 291.638941 121.869543 
L 295.748493 114.578684 
L 299.858044 120.514832 
L 303.967595 138.237679 
L 308.077146 142.853765 
L 312.186697 129.596509 
L 316.296249 122.956303 
L 320.4058 109.609866 
L 324.515351 97.292026 
L 328.624902 104.35896 
L 332.734453 97.309994 
L 336.844005 105.368141 
L 340.953556 110.7994 
L 345.063107 97.081058 
L 349.172658 112.2217 
L 353.282209 95.908065 
L 357.391761 87.182158 
L 361.501312 112.096659 
L 365.610863 88.042192 
L 369.720414 89.07489 
L 373.829965 86.843189 
L 377.939517 88.349699 
L 382.049068 92.961587 
L 386.158619 88.519481 
L 390.26817 95.915288 
L 394.377722 88.259524 
L 398.487273 87.78533 
" clip-path="url(#pa66e5d082e)" style="fill: none; stroke: #ff7f0e; stroke-width: 1.5; stroke-linecap: square"/>
   </g>
   <g id="line2d_19">
    <path d="M 73.832727 197.154129 
L 77.942278 197.154129 
L 82.05183 162.695622 
L 86.161381 198.259981 
L 90.270932 198.158096 
L 94.380483 198.158096 
L 98.490035 180.551514 
L 102.599586 197.946135 
L 106.709137 162.75042 
L 110.818688 162.75042 
L 114.928239 162.436331 
L 119.037791 162.436331 
L 123.147342 162.529094 
L 127.256893 144.77667 
L 131.366444 144.77667 
L 135.475995 127.069707 
L 139.585547 128.982626 
L 143.695098 127.133787 
L 147.804649 127.133787 
L 151.9142 127.133787 
L 156.023751 127.133787 
L 160.133303 127.133787 
L 164.242854 127.133787 
L 168.352405 127.133787 
L 172.461956 127.133787 
L 176.571507 127.133787 
L 180.681059 127.133787 
L 184.79061 126.767852 
L 188.900161 92.497997 
L 193.009712 109.511119 
L 197.119264 126.767852 
L 201.228815 126.767852 
L 205.338366 126.767852 
L 209.447917 109.499991 
L 213.557468 109.505563 
L 217.66702 109.460545 
L 221.776571 109.505563 
L 225.886122 109.499991 
L 229.995673 109.499991 
L 234.105224 109.483182 
L 238.214776 109.499991 
L 242.324327 109.499991 
L 246.433878 109.250634 
L 250.543429 109.250634 
L 254.65298 109.250634 
L 258.762532 109.250634 
L 262.872083 109.250634 
L 266.981634 109.250634 
L 271.091185 109.250634 
L 275.200736 109.250634 
L 279.310288 109.250634 
L 283.419839 109.250634 
L 287.52939 87.957334 
L 291.638941 87.957334 
L 295.748493 87.957334 
L 299.858044 87.957334 
L 303.967595 87.957334 
L 308.077146 87.957334 
L 312.186697 87.957334 
L 316.296249 87.957334 
L 320.4058 87.957334 
L 324.515351 87.957334 
L 328.624902 87.957334 
L 332.734453 87.957334 
L 336.844005 87.957334 
L 340.953556 87.957334 
L 345.063107 87.957334 
L 349.172658 87.957334 
L 353.282209 87.957334 
L 357.391761 87.957334 
L 361.501312 87.957334 
L 365.610863 87.957334 
L 369.720414 87.957334 
L 373.829965 87.957334 
L 377.939517 87.957334 
L 382.049068 87.957334 
L 386.158619 87.957334 
L 390.26817 87.957334 
L 394.377722 87.957334 
L 398.487273 87.957334 
" clip-path="url(#pa66e5d082e)" style="fill: none; stroke-dasharray: 5.55,2.4; stroke-dashoffset: 0; stroke: #2ca02c; stroke-width: 1.5"/>
   </g>
   <g id="line2d_20">
    <path d="M 73.832727 87.289635 
L 77.942278 87.648109 
L 82.05183 83.94228 
L 86.161381 83.94228 
L 90.270932 83.94228 
L 94.380483 83.94228 
L 98.490035 81.702266 
L 102.599586 81.702266 
L 106.709137 81.702266 
L 110.818688 77.993986 
L 114.928239 81.702266 
L 119.037791 81.702266 
L 123.147342 81.702266 
L 127.256893 81.702266 
L 131.366444 86.915095 
L 135.475995 78.232344 
L 139.585547 82.968391 
L 143.695098 85.610784 
L 147.804649 83.056549 
L 151.9142 81.019851 
L 156.023751 86.527576 
L 160.133303 74.543166 
L 164.242854 84.137767 
L 168.352405 86.527576 
L 172.461956 85.926584 
L 176.571507 86.527576 
L 180.681059 82.836253 
L 184.79061 86.527576 
L 188.900161 83.312969 
L 193.009712 86.564216 
L 197.119264 86.564216 
L 201.228815 86.564216 
L 205.338366 81.973283 
L 209.447917 81.258209 
L 213.557468 82.198146 
L 217.66702 81.019851 
L 221.776571 81.106371 
L 225.886122 82.449998 
L 229.995673 81.496567 
L 234.105224 82.449998 
L 238.214776 77.749727 
L 242.324327 78.589881 
L 246.433878 74.169658 
L 250.543429 81.496567 
L 254.65298 81.258209 
L 258.762532 81.344729 
L 262.872083 82.449998 
L 266.981634 81.019851 
L 271.091185 81.258209 
L 275.200736 82.449998 
L 279.310288 81.106371 
L 283.419839 80.900672 
L 287.52939 81.702266 
L 291.638941 81.106371 
L 295.748493 81.019851 
L 299.858044 81.106371 
L 303.967595 81.258209 
L 308.077146 81.258209 
L 312.186697 81.106371 
L 316.296249 80.987192 
L 320.4058 81.258209 
L 324.515351 81.258209 
L 328.624902 82.449998 
L 332.734453 81.258209 
L 336.844005 81.258209 
L 340.953556 81.258209 
L 345.063107 81.258209 
L 349.172658 81.377388 
L 353.282209 81.258209 
L 357.391761 81.258209 
L 361.501312 81.106371 
L 365.610863 81.106371 
L 369.720414 81.258209 
L 373.829965 80.987192 
L 377.939517 81.258209 
L 382.049068 81.258209 
L 386.158619 81.258209 
L 390.26817 81.106371 
L 394.377722 81.019851 
L 398.487273 81.019851 
" clip-path="url(#pa66e5d082e)" style="fill: none; stroke-dasharray: 5.55,2.4; stroke-dashoffset: 0; stroke: #d62728; stroke-width: 1.5"/>
   </g>
   <g id="patch_3">
    <path d="M 57.6 307.584 
L 57.6 41.472 
" style="fill: none; stroke: #000000; stroke-width: 0.8; stroke-linejoin: miter; stroke-linecap: square"/>
   </g>
   <g id="patch_4">
    <path d="M 414.72 307.584 
L 414.72 41.472 
" style="fill: none; stroke: #000000; stroke-width: 0.8; stroke-linejoin: miter; stroke-linecap: square"/>
   </g>
   <g id="patch_5">
    <path d="M 57.6 307.584 
L 414.72 307.584 
" style="fill: none; stroke: #000000; stroke-width: 0.8; stroke-linejoin: miter; stroke-linecap: square"/>
   </g>
   <g id="patch_6">
    <path d="M 57.6 41.472 
L 414.72 41.472 
" style="fill: none; stroke: #000000; stroke-width: 0.8; stroke-linejoin: miter; stroke-linecap: square"/>
   </g>
   <g id="text_17">
    <!-- fitness on 2_incest -->
    <g transform="translate(180.24 35.472) scale(0.12 -0.12)">
     <defs>
      <path id="DejaVuSans-66" d="M 2375 4863 
L 2375 4384 
L 1825 4384 
Q 1516 4384 1395 4259 
Q 1275 4134 1275 3809 
L 1275 3500 
L 2222 3500 
L 2222 3053 
L 1275 3053 
L 1275 0 
L 697 0 
L 697 3053 
L 147 3053 
L 147 3500 
L 697 3500 
L 697 3744 
Q 697 4328 969 4595 
Q 1241 4863 1831 4863 
L 2375 4863 
z
" transform="scale(0.015625)"/>
      <path id="DejaVuSans-69" d="M 603 3500 
L 1178 3500 
L 1178 0 
L 603 0 
L 603 3500 
z
M 603 4863 
L 1178 4863 
L 1178 4134 
L 603 4134 
L 603 4863 
z
" transform="scale(0.015625)"/>
      <path id="DejaVuSans-74" d="M 1172 4494 
L 1172 3500 
L 2356 3500 
L 2356 3053 
L 1172 3053 
L 1172 1153 
Q 1172 725 1289 603 
Q 1406 481 1766 481 
L 2356 481 
L 2356 0 
L 1766 0 
Q 1100 0 847 248 
Q 594 497 594 1153 
L 594 3053 
L 172 3053 
L 172 3500 
L 594 3500 
L 594 4494 
L 1172 4494 
z
" transform="scale(0.015625)"/>
      <path id="DejaVuSans-6e" d="M 3513 2113 
L 3513 0 
L 2938 0 
L 2938 2094 
Q 2938 2591 2744 2837 
Q 2550 3084 2163 3084 
Q 1697 3084 1428 2787 
Q 1159 2491 1159 1978 
L 1159 0 
L 581 0 
L 581 3500 
L 1159 3500 
L 1159 2956 
Q 1366 3272 1645 3428 
Q 1925 3584 2291 3584 
Q 2894 3584 3203 3211 
Q 3513 2838 3513 2113 
z
" transform="scale(0.015625)"/>
      <path id="DejaVuSans-65" d="M 3597 1894 
L 3597 1613 
L 953 1613 
Q 991 1019 1311 708 
Q 1631 397 2203 397 
Q 2534 397 2845 478 
Q 3156 559 3463 722 
L 3463 178 
Q 3153 47 2828 -22 
Q 2503 -91 2169 -91 
Q 1331 -91 842 396 
Q 353 884 353 1716 
Q 353 2575 817 3079 
Q 1281 3584 2069 3584 
Q 2775 3584 3186 3129 
Q 3597 2675 3597 1894 
z
M 3022 2063 
Q 3016 2534 2758 2815 
Q 2500 3097 2075 3097 
Q 1594 3097 1305 2825 
Q 1016 2553 972 2059 
L 3022 2063 
z
" transform="scale(0.015625)"/>
      <path id="DejaVuSans-73" d="M 2834 3397 
L 2834 2853 
Q 2591 2978 2328 3040 
Q 2066 3103 1784 3103 
Q 1356 3103 1142 2972 
Q 928 2841 928 2578 
Q 928 2378 1081 2264 
Q 1234 2150 1697 2047 
L 1894 2003 
Q 2506 1872 2764 1633 
Q 3022 1394 3022 966 
Q 3022 478 2636 193 
Q 2250 -91 1575 -91 
Q 1294 -91 989 -36 
Q 684 19 347 128 
L 347 722 
Q 666 556 975 473 
Q 1284 391 1588 391 
Q 1994 391 2212 530 
Q 2431 669 2431 922 
Q 2431 1156 2273 1281 
Q 2116 1406 1581 1522 
L 1381 1569 
Q 847 1681 609 1914 
Q 372 2147 372 2553 
Q 372 3047 722 3315 
Q 1072 3584 1716 3584 
Q 2034 3584 2315 3537 
Q 2597 3491 2834 3397 
z
" transform="scale(0.015625)"/>
      <path id="DejaVuSans-20" transform="scale(0.015625)"/>
      <path id="DejaVuSans-6f" d="M 1959 3097 
Q 1497 3097 1228 2736 
Q 959 2375 959 1747 
Q 959 1119 1226 758 
Q 1494 397 1959 397 
Q 2419 397 2687 759 
Q 2956 1122 2956 1747 
Q 2956 2369 2687 2733 
Q 2419 3097 1959 3097 
z
M 1959 3584 
Q 2709 3584 3137 3096 
Q 3566 2609 3566 1747 
Q 3566 888 3137 398 
Q 2709 -91 1959 -91 
Q 1206 -91 779 398 
Q 353 888 353 1747 
Q 353 2609 779 3096 
Q 1206 3584 1959 3584 
z
" transform="scale(0.015625)"/>
      <path id="DejaVuSans-5f" d="M 3263 -1063 
L 3263 -1509 
L -63 -1509 
L -63 -1063 
L 3263 -1063 
z
" transform="scale(0.015625)"/>
      <path id="DejaVuSans-63" d="M 3122 3366 
L 3122 2828 
Q 2878 2963 2633 3030 
Q 2388 3097 2138 3097 
Q 1578 3097 1268 2742 
Q 959 2388 959 1747 
Q 959 1106 1268 751 
Q 1578 397 2138 397 
Q 2388 397 2633 464 
Q 2878 531 3122 666 
L 3122 134 
Q 2881 22 2623 -34 
Q 2366 -91 2075 -91 
Q 1284 -91 818 406 
Q 353 903 353 1747 
Q 353 2603 823 3093 
Q 1294 3584 2113 3584 
Q 2378 3584 2631 3529 
Q 2884 3475 3122 3366 
z
" transform="scale(0.015625)"/>
     </defs>
     <use xlink:href="#DejaVuSans-66"/>
     <use xlink:href="#DejaVuSans-69" x="35.205078"/>
     <use xlink:href="#DejaVuSans-74" x="62.988281"/>
     <use xlink:href="#DejaVuSans-6e" x="102.197266"/>
     <use xlink:href="#DejaVuSans-65" x="165.576172"/>
     <use xlink:href="#DejaVuSans-73" x="227.099609"/>
     <use xlink:href="#DejaVuSans-73" x="279.199219"/>
     <use xlink:href="#DejaVuSans-20" x="331.298828"/>
     <use xlink:href="#DejaVuSans-6f" x="363.085938"/>
     <use xlink:href="#DejaVuSans-6e" x="424.267578"/>
     <use xlink:href="#DejaVuSans-20" x="487.646484"/>
     <use xlink:href="#DejaVuSans-32" x="519.433594"/>
     <use xlink:href="#DejaVuSans-5f" x="583.056641"/>
     <use xlink:href="#DejaVuSans-69" x="633.056641"/>
     <use xlink:href="#DejaVuSans-6e" x="660.839844"/>
     <use xlink:href="#DejaVuSans-63" x="724.21875"/>
     <use xlink:href="#DejaVuSans-65" x="779.199219"/>
     <use xlink:href="#DejaVuSans-73" x="840.722656"/>
     <use xlink:href="#DejaVuSans-74" x="892.822266"/>
    </g>
   </g>
   <g id="legend_1">
    <g id="patch_7">
     <path d="M 334.555938 302.584 
L 407.72 302.584 
Q 409.72 302.584 409.72 300.584 
L 409.72 242.8715 
Q 409.72 240.8715 407.72 240.8715 
L 334.555938 240.8715 
Q 332.555938 240.8715 332.555938 242.8715 
L 332.555938 300.584 
Q 332.555938 302.584 334.555938 302.584 
z
" style="fill: #ffffff; opacity: 0.8; stroke: #cccccc; stroke-linejoin: miter"/>
    </g>
    <g id="line2d_21">
     <path d="M 336.555938 248.969937 
L 346.555938 248.969937 
L 356.555938 248.969937 
" style="fill: none; stroke: #1f77b4; stroke-width: 1.5; stroke-linecap: square"/>
    </g>
    <g id="text_18">
     <!-- enemyA -->
     <g transform="translate(364.555938 252.469937) scale(0.1 -0.1)">
      <defs>
       <path id="DejaVuSans-6d" d="M 3328 2828 
Q 3544 3216 3844 3400 
Q 4144 3584 4550 3584 
Q 5097 3584 5394 3201 
Q 5691 2819 5691 2113 
L 5691 0 
L 5113 0 
L 5113 2094 
Q 5113 2597 4934 2840 
Q 4756 3084 4391 3084 
Q 3944 3084 3684 2787 
Q 3425 2491 3425 1978 
L 3425 0 
L 2847 0 
L 2847 2094 
Q 2847 2600 2669 2842 
Q 2491 3084 2119 3084 
Q 1678 3084 1418 2786 
Q 1159 2488 1159 1978 
L 1159 0 
L 581 0 
L 581 3500 
L 1159 3500 
L 1159 2956 
Q 1356 3278 1631 3431 
Q 1906 3584 2284 3584 
Q 2666 3584 2933 3390 
Q 3200 3197 3328 2828 
z
" transform="scale(0.015625)"/>
       <path id="DejaVuSans-79" d="M 2059 -325 
Q 1816 -950 1584 -1140 
Q 1353 -1331 966 -1331 
L 506 -1331 
L 506 -850 
L 844 -850 
Q 1081 -850 1212 -737 
Q 1344 -625 1503 -206 
L 1606 56 
L 191 3500 
L 800 3500 
L 1894 763 
L 2988 3500 
L 3597 3500 
L 2059 -325 
z
" transform="scale(0.015625)"/>
       <path id="DejaVuSans-41" d="M 2188 4044 
L 1331 1722 
L 3047 1722 
L 2188 4044 
z
M 1831 4666 
L 2547 4666 
L 4325 0 
L 3669 0 
L 3244 1197 
L 1141 1197 
L 716 0 
L 50 0 
L 1831 4666 
z
" transform="scale(0.015625)"/>
      </defs>
      <use xlink:href="#DejaVuSans-65"/>
      <use xlink:href="#DejaVuSans-6e" x="61.523438"/>
      <use xlink:href="#DejaVuSans-65" x="124.902344"/>
      <use xlink:href="#DejaVuSans-6d" x="186.425781"/>
      <use xlink:href="#DejaVuSans-79" x="283.837891"/>
      <use xlink:href="#DejaVuSans-41" x="343.017578"/>
     </g>
    </g>
    <g id="line2d_22">
     <path d="M 336.555938 263.648062 
L 346.555938 263.648062 
L 356.555938 263.648062 
" style="fill: none; stroke: #ff7f0e; stroke-width: 1.5; stroke-linecap: square"/>
    </g>
    <g id="text_19">
     <!-- enemyB -->
     <g transform="translate(364.555938 267.148062) scale(0.1 -0.1)">
      <defs>
       <path id="DejaVuSans-42" d="M 1259 2228 
L 1259 519 
L 2272 519 
Q 2781 519 3026 730 
Q 3272 941 3272 1375 
Q 3272 1813 3026 2020 
Q 2781 2228 2272 2228 
L 1259 2228 
z
M 1259 4147 
L 1259 2741 
L 2194 2741 
Q 2656 2741 2882 2914 
Q 3109 3088 3109 3444 
Q 3109 3797 2882 3972 
Q 2656 4147 2194 4147 
L 1259 4147 
z
M 628 4666 
L 2241 4666 
Q 2963 4666 3353 4366 
Q 3744 4066 3744 3513 
Q 3744 3084 3544 2831 
Q 3344 2578 2956 2516 
Q 3422 2416 3680 2098 
Q 3938 1781 3938 1306 
Q 3938 681 3513 340 
Q 3088 0 2303 0 
L 628 0 
L 628 4666 
z
" transform="scale(0.015625)"/>
      </defs>
      <use xlink:href="#DejaVuSans-65"/>
      <use xlink:href="#DejaVuSans-6e" x="61.523438"/>
      <use xlink:href="#DejaVuSans-65" x="124.902344"/>
      <use xlink:href="#DejaVuSans-6d" x="186.425781"/>
      <use xlink:href="#DejaVuSans-79" x="283.837891"/>
      <use xlink:href="#DejaVuSans-42" x="343.017578"/>
     </g>
    </g>
    <g id="line2d_23">
     <path d="M 336.555938 278.326187 
L 346.555938 278.326187 
L 356.555938 278.326187 
" style="fill: none; stroke-dasharray: 5.55,2.4; stroke-dashoffset: 0; stroke: #2ca02c; stroke-width: 1.5"/>
    </g>
    <g id="text_20">
     <!-- enemyA -->
     <g transform="translate(364.555938 281.826187) scale(0.1 -0.1)">
      <use xlink:href="#DejaVuSans-65"/>
      <use xlink:href="#DejaVuSans-6e" x="61.523438"/>
      <use xlink:href="#DejaVuSans-65" x="124.902344"/>
      <use xlink:href="#DejaVuSans-6d" x="186.425781"/>
      <use xlink:href="#DejaVuSans-79" x="283.837891"/>
      <use xlink:href="#DejaVuSans-41" x="343.017578"/>
     </g>
    </g>
    <g id="line2d_24">
     <path d="M 336.555938 293.004312 
L 346.555938 293.004312 
L 356.555938 293.004312 
" style="fill: none; stroke-dasharray: 5.55,2.4; stroke-dashoffset: 0; stroke: #d62728; stroke-width: 1.5"/>
    </g>
    <g id="text_21">
     <!-- enemyB -->
     <g transform="translate(364.555938 296.504312) scale(0.1 -0.1)">
      <use xlink:href="#DejaVuSans-65"/>
      <use xlink:href="#DejaVuSans-6e" x="61.523438"/>
      <use xlink:href="#DejaVuSans-65" x="124.902344"/>
      <use xlink:href="#DejaVuSans-6d" x="186.425781"/>
      <use xlink:href="#DejaVuSans-79" x="283.837891"/>
      <use xlink:href="#DejaVuSans-42" x="343.017578"/>
     </g>
    </g>
   </g>
  </g>
 </g>
 <defs>
  <clipPath id="pa66e5d082e">
   <rect x="57.6" y="41.472" width="357.12" height="266.112"/>
  </clipPath>
 </defs>
</svg>
