<?xml version="1.0" encoding="utf-8" standalone="no"?>
<!DOCTYPE svg PUBLIC "-//W3C//DTD SVG 1.1//EN"
  "http://www.w3.org/Graphics/SVG/1.1/DTD/svg11.dtd">
<svg xmlns:xlink="http://www.w3.org/1999/xlink" width="460.8pt" height="345.6pt" viewBox="0 0 460.8 345.6" xmlns="http://www.w3.org/2000/svg" version="1.1">
 <metadata>
  <rdf:RDF xmlns:dc="http://purl.org/dc/elements/1.1/" xmlns:cc="http://creativecommons.org/ns#" xmlns:rdf="http://www.w3.org/1999/02/22-rdf-syntax-ns#">
   <cc:Work>
    <dc:type rdf:resource="http://purl.org/dc/dcmitype/StillImage"/>
    <dc:date>2022-10-13T11:29:25.568789</dc:date>
    <dc:format>image/svg+xml</dc:format>
    <dc:creator>
     <cc:Agent>
      <dc:title>Matplotlib v3.6.0, https://matplotlib.org/</dc:title>
     </cc:Agent>
    </dc:creator>
   </cc:Work>
  </rdf:RDF>
 </metadata>
 <defs>
  <style type="text/css">*{stroke-linejoin: round; stroke-linecap: butt}</style>
 </defs>
 <g id="figure_1">
  <g id="patch_1">
   <path d="M 0 345.6 
L 460.8 345.6 
L 460.8 0 
L 0 0 
z
" style="fill: #ffffff"/>
  </g>
  <g id="axes_1">
   <g id="patch_2">
    <path d="M 57.6 307.584 
L 414.72 307.584 
L 414.72 41.472 
L 57.6 41.472 
z
" style="fill: #ffffff"/>
   </g>
   <g id="PolyCollection_1">
    <path d="M 73.832727 262.816879 
L 73.832727 276.213059 
L 77.942278 278.434976 
L 82.05183 278.731933 
L 86.161381 277.088797 
L 90.270932 270.402547 
L 94.380483 275.128057 
L 98.490035 272.395928 
L 102.599586 271.870269 
L 106.709137 277.239267 
L 110.818688 282.355151 
L 114.928239 282.333868 
L 119.037791 281.248298 
L 123.147342 280.046849 
L 127.256893 276.611929 
L 131.366444 280.695723 
L 135.475995 277.605737 
L 139.585547 270.890668 
L 143.695098 266.204274 
L 147.804649 271.043181 
L 151.9142 271.341186 
L 156.023751 272.346286 
L 160.133303 267.431752 
L 164.242854 269.745552 
L 168.352405 265.030449 
L 172.461956 271.688802 
L 176.571507 269.928133 
L 180.681059 274.544946 
L 184.79061 272.096707 
L 188.900161 264.98782 
L 193.009712 261.670256 
L 197.119264 269.38833 
L 201.228815 260.670011 
L 205.338366 273.379658 
L 209.447917 264.865081 
L 213.557468 269.611921 
L 217.66702 261.091274 
L 221.776571 273.434604 
L 225.886122 268.53184 
L 229.995673 267.349384 
L 234.105224 266.654357 
L 238.214776 252.785946 
L 242.324327 254.014625 
L 246.433878 250.114806 
L 250.543429 253.882695 
L 254.65298 260.748869 
L 258.762532 252.772698 
L 262.872083 251.441197 
L 266.981634 253.65708 
L 271.091185 269.228237 
L 275.200736 250.356332 
L 279.310288 237.420111 
L 283.419839 254.664343 
L 287.52939 254.493823 
L 291.638941 256.864585 
L 295.748493 247.808906 
L 299.858044 260.363685 
L 303.967595 251.807721 
L 308.077146 239.250314 
L 312.186697 256.47955 
L 316.296249 254.84093 
L 320.4058 258.430995 
L 324.515351 259.361167 
L 328.624902 266.065728 
L 332.734453 266.514138 
L 336.844005 267.596041 
L 340.953556 251.387966 
L 345.063107 265.047232 
L 349.172658 271.573271 
L 353.282209 270.769744 
L 357.391761 265.875961 
L 361.501312 263.150558 
L 365.610863 265.444775 
L 369.720414 274.843887 
L 373.829965 261.732635 
L 377.939517 264.17215 
L 382.049068 251.725083 
L 386.158619 247.609888 
L 390.26817 248.147048 
L 394.377722 230.502338 
L 398.487273 241.604176 
L 398.487273 150.04297 
L 398.487273 150.04297 
L 394.377722 155.654989 
L 390.26817 155.840671 
L 386.158619 169.664258 
L 382.049068 170.873236 
L 377.939517 176.327993 
L 373.829965 174.284458 
L 369.720414 181.429776 
L 365.610863 170.659885 
L 361.501312 180.012648 
L 357.391761 186.757918 
L 353.282209 181.92558 
L 349.172658 183.269198 
L 345.063107 166.272275 
L 340.953556 167.629603 
L 336.844005 166.480427 
L 332.734453 172.786309 
L 328.624902 177.917436 
L 324.515351 164.807243 
L 320.4058 177.36144 
L 316.296249 173.693755 
L 312.186697 174.049315 
L 308.077146 164.579665 
L 303.967595 165.351662 
L 299.858044 176.620727 
L 295.748493 175.896442 
L 291.638941 179.170457 
L 287.52939 176.340124 
L 283.419839 174.28697 
L 279.310288 170.057171 
L 275.200736 170.407507 
L 271.091185 191.634233 
L 266.981634 175.294245 
L 262.872083 182.734072 
L 258.762532 178.939677 
L 254.65298 177.948832 
L 250.543429 185.568352 
L 246.433878 177.684204 
L 242.324327 182.678071 
L 238.214776 180.337141 
L 234.105224 188.870184 
L 229.995673 196.264366 
L 225.886122 196.686105 
L 221.776571 191.946467 
L 217.66702 193.137844 
L 213.557468 195.610167 
L 209.447917 192.152149 
L 205.338366 199.219616 
L 201.228815 200.142287 
L 197.119264 200.32961 
L 193.009712 191.748126 
L 188.900161 195.931811 
L 184.79061 200.436331 
L 180.681059 202.808561 
L 176.571507 191.120532 
L 172.461956 198.06934 
L 168.352405 202.025338 
L 164.242854 202.720493 
L 160.133303 201.511444 
L 156.023751 205.372416 
L 151.9142 202.272944 
L 147.804649 201.702675 
L 143.695098 200.274653 
L 139.585547 203.01227 
L 135.475995 213.328962 
L 131.366444 198.975203 
L 127.256893 209.972572 
L 123.147342 219.888833 
L 119.037791 219.735757 
L 114.928239 222.280026 
L 110.818688 215.493157 
L 106.709137 218.572241 
L 102.599586 221.725557 
L 98.490035 226.436857 
L 94.380483 228.207747 
L 90.270932 220.393854 
L 86.161381 219.037748 
L 82.05183 243.764955 
L 77.942278 251.351638 
L 73.832727 262.816879 
z
" clip-path="url(#p716967e71c)" style="fill: #1f77b4; fill-opacity: 0.3"/>
   </g>
   <g id="PolyCollection_2">
    <path d="M 73.832727 228.5187 
L 73.832727 291.633581 
L 77.942278 291.201383 
L 82.05183 295.488 
L 86.161381 290.305175 
L 90.270932 287.239276 
L 94.380483 286.537295 
L 98.490035 290.707271 
L 102.599586 287.461929 
L 106.709137 283.214488 
L 110.818688 290.676699 
L 114.928239 289.613161 
L 119.037791 290.707691 
L 123.147342 276.718389 
L 127.256893 278.867848 
L 131.366444 269.85226 
L 135.475995 279.981562 
L 139.585547 280.37145 
L 143.695098 279.896023 
L 147.804649 279.691624 
L 151.9142 286.932762 
L 156.023751 288.993755 
L 160.133303 283.81241 
L 164.242854 281.84174 
L 168.352405 283.749066 
L 172.461956 286.604223 
L 176.571507 278.196486 
L 180.681059 264.235909 
L 184.79061 257.891028 
L 188.900161 265.320671 
L 193.009712 277.02481 
L 197.119264 283.375331 
L 201.228815 283.817796 
L 205.338366 277.042243 
L 209.447917 276.32721 
L 213.557468 277.412422 
L 217.66702 279.076534 
L 221.776571 273.686207 
L 225.886122 281.798606 
L 229.995673 269.404712 
L 234.105224 263.746743 
L 238.214776 255.490047 
L 242.324327 253.204538 
L 246.433878 254.458707 
L 250.543429 248.543928 
L 254.65298 246.051282 
L 258.762532 230.122604 
L 262.872083 226.381554 
L 266.981634 207.284257 
L 271.091185 244.82242 
L 275.200736 210.770788 
L 279.310288 175.950012 
L 283.419839 214.115986 
L 287.52939 197.243103 
L 291.638941 226.362097 
L 295.748493 175.360317 
L 299.858044 232.230079 
L 303.967595 213.926739 
L 308.077146 222.083168 
L 312.186697 239.962343 
L 316.296249 255.675 
L 320.4058 258.648833 
L 324.515351 256.337871 
L 328.624902 247.404706 
L 332.734453 267.001847 
L 336.844005 252.403691 
L 340.953556 217.483909 
L 345.063107 246.158077 
L 349.172658 243.420454 
L 353.282209 267.981805 
L 357.391761 267.178071 
L 361.501312 245.215362 
L 365.610863 231.33081 
L 369.720414 271.587169 
L 373.829965 252.258309 
L 377.939517 255.877977 
L 382.049068 250.09931 
L 386.158619 228.803664 
L 390.26817 215.382207 
L 394.377722 204.486056 
L 398.487273 188.77707 
L 398.487273 54.358153 
L 398.487273 54.358153 
L 394.377722 59.981078 
L 390.26817 60.86521 
L 386.158619 72.392528 
L 382.049068 85.834257 
L 377.939517 96.029036 
L 373.829965 84.507599 
L 369.720414 110.154431 
L 365.610863 72.288193 
L 361.501312 82.457759 
L 357.391761 107.334634 
L 353.282209 111.325939 
L 349.172658 75.800226 
L 345.063107 82.814399 
L 340.953556 62.433605 
L 336.844005 80.702206 
L 332.734453 98.019177 
L 328.624902 85.124264 
L 324.515351 88.236096 
L 320.4058 100.861668 
L 316.296249 89.149875 
L 312.186697 78.369593 
L 308.077146 64.800257 
L 303.967595 62.913544 
L 299.858044 73.660638 
L 295.748493 57.878847 
L 291.638941 74.213519 
L 287.52939 59.567014 
L 283.419839 65.83768 
L 279.310288 53.568 
L 275.200736 62.859325 
L 271.091185 79.382369 
L 266.981634 61.755797 
L 262.872083 68.291776 
L 258.762532 70.948178 
L 254.65298 81.401763 
L 250.543429 86.642336 
L 246.433878 89.88448 
L 242.324327 85.349382 
L 238.214776 97.304062 
L 234.105224 104.652488 
L 229.995673 111.009347 
L 225.886122 128.561936 
L 221.776571 125.581092 
L 217.66702 135.215557 
L 213.557468 125.796167 
L 209.447917 122.305001 
L 205.338366 131.502396 
L 201.228815 148.071023 
L 197.119264 133.789738 
L 193.009712 132.316873 
L 188.900161 102.817594 
L 184.79061 93.45623 
L 180.681059 107.942464 
L 176.571507 129.681374 
L 172.461956 142.035044 
L 168.352405 151.472271 
L 164.242854 153.251144 
L 160.133303 159.109384 
L 156.023751 156.070526 
L 151.9142 168.098958 
L 147.804649 131.93037 
L 143.695098 154.123934 
L 139.585547 158.770669 
L 135.475995 153.304687 
L 131.366444 127.57652 
L 127.256893 161.28174 
L 123.147342 143.243837 
L 119.037791 182.257662 
L 114.928239 172.606814 
L 110.818688 158.455296 
L 106.709137 177.675751 
L 102.599586 174.752665 
L 98.490035 182.846427 
L 94.380483 205.507979 
L 90.270932 207.1015 
L 86.161381 212.187957 
L 82.05183 203.878786 
L 77.942278 230.63189 
L 73.832727 228.5187 
z
" clip-path="url(#p716967e71c)" style="fill: #ff7f0e; fill-opacity: 0.3"/>
   </g>
   <g id="matplotlib.axis_1">
    <g id="xtick_1">
     <g id="line2d_1">
      <defs>
       <path id="m4639b01013" d="M 0 0 
L 0 3.5 
" style="stroke: #000000; stroke-width: 0.8"/>
      </defs>
      <g>
       <use xlink:href="#m4639b01013" x="73.832727" y="307.584" style="stroke: #000000; stroke-width: 0.8"/>
      </g>
     </g>
     <g id="text_1">
      <!-- 0 -->
      <g transform="translate(70.651477 322.182437) scale(0.1 -0.1)">
       <defs>
        <path id="DejaVuSans-30" d="M 2034 4250 
Q 1547 4250 1301 3770 
Q 1056 3291 1056 2328 
Q 1056 1369 1301 889 
Q 1547 409 2034 409 
Q 2525 409 2770 889 
Q 3016 1369 3016 2328 
Q 3016 3291 2770 3770 
Q 2525 4250 2034 4250 
z
M 2034 4750 
Q 2819 4750 3233 4129 
Q 3647 3509 3647 2328 
Q 3647 1150 3233 529 
Q 2819 -91 2034 -91 
Q 1250 -91 836 529 
Q 422 1150 422 2328 
Q 422 3509 836 4129 
Q 1250 4750 2034 4750 
z
" transform="scale(0.015625)"/>
       </defs>
       <use xlink:href="#DejaVuSans-30"/>
      </g>
     </g>
    </g>
    <g id="xtick_2">
     <g id="line2d_2">
      <g>
       <use xlink:href="#m4639b01013" x="114.928239" y="307.584" style="stroke: #000000; stroke-width: 0.8"/>
      </g>
     </g>
     <g id="text_2">
      <!-- 10 -->
      <g transform="translate(108.565739 322.182437) scale(0.1 -0.1)">
       <defs>
        <path id="DejaVuSans-31" d="M 794 531 
L 1825 531 
L 1825 4091 
L 703 3866 
L 703 4441 
L 1819 4666 
L 2450 4666 
L 2450 531 
L 3481 531 
L 3481 0 
L 794 0 
L 794 531 
z
" transform="scale(0.015625)"/>
       </defs>
       <use xlink:href="#DejaVuSans-31"/>
       <use xlink:href="#DejaVuSans-30" x="63.623047"/>
      </g>
     </g>
    </g>
    <g id="xtick_3">
     <g id="line2d_3">
      <g>
       <use xlink:href="#m4639b01013" x="156.023751" y="307.584" style="stroke: #000000; stroke-width: 0.8"/>
      </g>
     </g>
     <g id="text_3">
      <!-- 20 -->
      <g transform="translate(149.661251 322.182437) scale(0.1 -0.1)">
       <defs>
        <path id="DejaVuSans-32" d="M 1228 531 
L 3431 531 
L 3431 0 
L 469 0 
L 469 531 
Q 828 903 1448 1529 
Q 2069 2156 2228 2338 
Q 2531 2678 2651 2914 
Q 2772 3150 2772 3378 
Q 2772 3750 2511 3984 
Q 2250 4219 1831 4219 
Q 1534 4219 1204 4116 
Q 875 4013 500 3803 
L 500 4441 
Q 881 4594 1212 4672 
Q 1544 4750 1819 4750 
Q 2544 4750 2975 4387 
Q 3406 4025 3406 3419 
Q 3406 3131 3298 2873 
Q 3191 2616 2906 2266 
Q 2828 2175 2409 1742 
Q 1991 1309 1228 531 
z
" transform="scale(0.015625)"/>
       </defs>
       <use xlink:href="#DejaVuSans-32"/>
       <use xlink:href="#DejaVuSans-30" x="63.623047"/>
      </g>
     </g>
    </g>
    <g id="xtick_4">
     <g id="line2d_4">
      <g>
       <use xlink:href="#m4639b01013" x="197.119264" y="307.584" style="stroke: #000000; stroke-width: 0.8"/>
      </g>
     </g>
     <g id="text_4">
      <!-- 30 -->
      <g transform="translate(190.756764 322.182437) scale(0.1 -0.1)">
       <defs>
        <path id="DejaVuSans-33" d="M 2597 2516 
Q 3050 2419 3304 2112 
Q 3559 1806 3559 1356 
Q 3559 666 3084 287 
Q 2609 -91 1734 -91 
Q 1441 -91 1130 -33 
Q 819 25 488 141 
L 488 750 
Q 750 597 1062 519 
Q 1375 441 1716 441 
Q 2309 441 2620 675 
Q 2931 909 2931 1356 
Q 2931 1769 2642 2001 
Q 2353 2234 1838 2234 
L 1294 2234 
L 1294 2753 
L 1863 2753 
Q 2328 2753 2575 2939 
Q 2822 3125 2822 3475 
Q 2822 3834 2567 4026 
Q 2313 4219 1838 4219 
Q 1578 4219 1281 4162 
Q 984 4106 628 3988 
L 628 4550 
Q 988 4650 1302 4700 
Q 1616 4750 1894 4750 
Q 2613 4750 3031 4423 
Q 3450 4097 3450 3541 
Q 3450 3153 3228 2886 
Q 3006 2619 2597 2516 
z
" transform="scale(0.015625)"/>
       </defs>
       <use xlink:href="#DejaVuSans-33"/>
       <use xlink:href="#DejaVuSans-30" x="63.623047"/>
      </g>
     </g>
    </g>
    <g id="xtick_5">
     <g id="line2d_5">
      <g>
       <use xlink:href="#m4639b01013" x="238.214776" y="307.584" style="stroke: #000000; stroke-width: 0.8"/>
      </g>
     </g>
     <g id="text_5">
      <!-- 40 -->
      <g transform="translate(231.852276 322.182437) scale(0.1 -0.1)">
       <defs>
        <path id="DejaVuSans-34" d="M 2419 4116 
L 825 1625 
L 2419 1625 
L 2419 4116 
z
M 2253 4666 
L 3047 4666 
L 3047 1625 
L 3713 1625 
L 3713 1100 
L 3047 1100 
L 3047 0 
L 2419 0 
L 2419 1100 
L 313 1100 
L 313 1709 
L 2253 4666 
z
" transform="scale(0.015625)"/>
       </defs>
       <use xlink:href="#DejaVuSans-34"/>
       <use xlink:href="#DejaVuSans-30" x="63.623047"/>
      </g>
     </g>
    </g>
    <g id="xtick_6">
     <g id="line2d_6">
      <g>
       <use xlink:href="#m4639b01013" x="279.310288" y="307.584" style="stroke: #000000; stroke-width: 0.8"/>
      </g>
     </g>
     <g id="text_6">
      <!-- 50 -->
      <g transform="translate(272.947788 322.182437) scale(0.1 -0.1)">
       <defs>
        <path id="DejaVuSans-35" d="M 691 4666 
L 3169 4666 
L 3169 4134 
L 1269 4134 
L 1269 2991 
Q 1406 3038 1543 3061 
Q 1681 3084 1819 3084 
Q 2600 3084 3056 2656 
Q 3513 2228 3513 1497 
Q 3513 744 3044 326 
Q 2575 -91 1722 -91 
Q 1428 -91 1123 -41 
Q 819 9 494 109 
L 494 744 
Q 775 591 1075 516 
Q 1375 441 1709 441 
Q 2250 441 2565 725 
Q 2881 1009 2881 1497 
Q 2881 1984 2565 2268 
Q 2250 2553 1709 2553 
Q 1456 2553 1204 2497 
Q 953 2441 691 2322 
L 691 4666 
z
" transform="scale(0.015625)"/>
       </defs>
       <use xlink:href="#DejaVuSans-35"/>
       <use xlink:href="#DejaVuSans-30" x="63.623047"/>
      </g>
     </g>
    </g>
    <g id="xtick_7">
     <g id="line2d_7">
      <g>
       <use xlink:href="#m4639b01013" x="320.4058" y="307.584" style="stroke: #000000; stroke-width: 0.8"/>
      </g>
     </g>
     <g id="text_7">
      <!-- 60 -->
      <g transform="translate(314.0433 322.182437) scale(0.1 -0.1)">
       <defs>
        <path id="DejaVuSans-36" d="M 2113 2584 
Q 1688 2584 1439 2293 
Q 1191 2003 1191 1497 
Q 1191 994 1439 701 
Q 1688 409 2113 409 
Q 2538 409 2786 701 
Q 3034 994 3034 1497 
Q 3034 2003 2786 2293 
Q 2538 2584 2113 2584 
z
M 3366 4563 
L 3366 3988 
Q 3128 4100 2886 4159 
Q 2644 4219 2406 4219 
Q 1781 4219 1451 3797 
Q 1122 3375 1075 2522 
Q 1259 2794 1537 2939 
Q 1816 3084 2150 3084 
Q 2853 3084 3261 2657 
Q 3669 2231 3669 1497 
Q 3669 778 3244 343 
Q 2819 -91 2113 -91 
Q 1303 -91 875 529 
Q 447 1150 447 2328 
Q 447 3434 972 4092 
Q 1497 4750 2381 4750 
Q 2619 4750 2861 4703 
Q 3103 4656 3366 4563 
z
" transform="scale(0.015625)"/>
       </defs>
       <use xlink:href="#DejaVuSans-36"/>
       <use xlink:href="#DejaVuSans-30" x="63.623047"/>
      </g>
     </g>
    </g>
    <g id="xtick_8">
     <g id="line2d_8">
      <g>
       <use xlink:href="#m4639b01013" x="361.501312" y="307.584" style="stroke: #000000; stroke-width: 0.8"/>
      </g>
     </g>
     <g id="text_8">
      <!-- 70 -->
      <g transform="translate(355.138812 322.182437) scale(0.1 -0.1)">
       <defs>
        <path id="DejaVuSans-37" d="M 525 4666 
L 3525 4666 
L 3525 4397 
L 1831 0 
L 1172 0 
L 2766 4134 
L 525 4134 
L 525 4666 
z
" transform="scale(0.015625)"/>
       </defs>
       <use xlink:href="#DejaVuSans-37"/>
       <use xlink:href="#DejaVuSans-30" x="63.623047"/>
      </g>
     </g>
    </g>
    <g id="xtick_9">
     <g id="line2d_9">
      <g>
       <use xlink:href="#m4639b01013" x="402.596824" y="307.584" style="stroke: #000000; stroke-width: 0.8"/>
      </g>
     </g>
     <g id="text_9">
      <!-- 80 -->
      <g transform="translate(396.234324 322.182437) scale(0.1 -0.1)">
       <defs>
        <path id="DejaVuSans-38" d="M 2034 2216 
Q 1584 2216 1326 1975 
Q 1069 1734 1069 1313 
Q 1069 891 1326 650 
Q 1584 409 2034 409 
Q 2484 409 2743 651 
Q 3003 894 3003 1313 
Q 3003 1734 2745 1975 
Q 2488 2216 2034 2216 
z
M 1403 2484 
Q 997 2584 770 2862 
Q 544 3141 544 3541 
Q 544 4100 942 4425 
Q 1341 4750 2034 4750 
Q 2731 4750 3128 4425 
Q 3525 4100 3525 3541 
Q 3525 3141 3298 2862 
Q 3072 2584 2669 2484 
Q 3125 2378 3379 2068 
Q 3634 1759 3634 1313 
Q 3634 634 3220 271 
Q 2806 -91 2034 -91 
Q 1263 -91 848 271 
Q 434 634 434 1313 
Q 434 1759 690 2068 
Q 947 2378 1403 2484 
z
M 1172 3481 
Q 1172 3119 1398 2916 
Q 1625 2713 2034 2713 
Q 2441 2713 2670 2916 
Q 2900 3119 2900 3481 
Q 2900 3844 2670 4047 
Q 2441 4250 2034 4250 
Q 1625 4250 1398 4047 
Q 1172 3844 1172 3481 
z
" transform="scale(0.015625)"/>
       </defs>
       <use xlink:href="#DejaVuSans-38"/>
       <use xlink:href="#DejaVuSans-30" x="63.623047"/>
      </g>
     </g>
    </g>
   </g>
   <g id="matplotlib.axis_2">
    <g id="ytick_1">
     <g id="line2d_10">
      <defs>
       <path id="m02b68a984c" d="M 0 0 
L -3.5 0 
" style="stroke: #000000; stroke-width: 0.8"/>
      </defs>
      <g>
       <use xlink:href="#m02b68a984c" x="57.6" y="300.679353" style="stroke: #000000; stroke-width: 0.8"/>
      </g>
     </g>
     <g id="text_10">
      <!-- −20 -->
      <g transform="translate(29.495313 304.478571) scale(0.1 -0.1)">
       <defs>
        <path id="DejaVuSans-2212" d="M 678 2272 
L 4684 2272 
L 4684 1741 
L 678 1741 
L 678 2272 
z
" transform="scale(0.015625)"/>
       </defs>
       <use xlink:href="#DejaVuSans-2212"/>
       <use xlink:href="#DejaVuSans-32" x="83.789062"/>
       <use xlink:href="#DejaVuSans-30" x="147.412109"/>
      </g>
     </g>
    </g>
    <g id="ytick_2">
     <g id="line2d_11">
      <g>
       <use xlink:href="#m02b68a984c" x="57.6" y="260.629471" style="stroke: #000000; stroke-width: 0.8"/>
      </g>
     </g>
     <g id="text_11">
      <!-- 0 -->
      <g transform="translate(44.2375 264.42869) scale(0.1 -0.1)">
       <use xlink:href="#DejaVuSans-30"/>
      </g>
     </g>
    </g>
    <g id="ytick_3">
     <g id="line2d_12">
      <g>
       <use xlink:href="#m02b68a984c" x="57.6" y="220.57959" style="stroke: #000000; stroke-width: 0.8"/>
      </g>
     </g>
     <g id="text_12">
      <!-- 20 -->
      <g transform="translate(37.875 224.378809) scale(0.1 -0.1)">
       <use xlink:href="#DejaVuSans-32"/>
       <use xlink:href="#DejaVuSans-30" x="63.623047"/>
      </g>
     </g>
    </g>
    <g id="ytick_4">
     <g id="line2d_13">
      <g>
       <use xlink:href="#m02b68a984c" x="57.6" y="180.529709" style="stroke: #000000; stroke-width: 0.8"/>
      </g>
     </g>
     <g id="text_13">
      <!-- 40 -->
      <g transform="translate(37.875 184.328928) scale(0.1 -0.1)">
       <use xlink:href="#DejaVuSans-34"/>
       <use xlink:href="#DejaVuSans-30" x="63.623047"/>
      </g>
     </g>
    </g>
    <g id="ytick_5">
     <g id="line2d_14">
      <g>
       <use xlink:href="#m02b68a984c" x="57.6" y="140.479828" style="stroke: #000000; stroke-width: 0.8"/>
      </g>
     </g>
     <g id="text_14">
      <!-- 60 -->
      <g transform="translate(37.875 144.279046) scale(0.1 -0.1)">
       <use xlink:href="#DejaVuSans-36"/>
       <use xlink:href="#DejaVuSans-30" x="63.623047"/>
      </g>
     </g>
    </g>
    <g id="ytick_6">
     <g id="line2d_15">
      <g>
       <use xlink:href="#m02b68a984c" x="57.6" y="100.429946" style="stroke: #000000; stroke-width: 0.8"/>
      </g>
     </g>
     <g id="text_15">
      <!-- 80 -->
      <g transform="translate(37.875 104.229165) scale(0.1 -0.1)">
       <use xlink:href="#DejaVuSans-38"/>
       <use xlink:href="#DejaVuSans-30" x="63.623047"/>
      </g>
     </g>
    </g>
    <g id="ytick_7">
     <g id="line2d_16">
      <g>
       <use xlink:href="#m02b68a984c" x="57.6" y="60.380065" style="stroke: #000000; stroke-width: 0.8"/>
      </g>
     </g>
     <g id="text_16">
      <!-- 100 -->
      <g transform="translate(31.5125 64.179284) scale(0.1 -0.1)">
       <use xlink:href="#DejaVuSans-31"/>
       <use xlink:href="#DejaVuSans-30" x="63.623047"/>
       <use xlink:href="#DejaVuSans-30" x="127.246094"/>
      </g>
     </g>
    </g>
   </g>
   <g id="line2d_17">
    <path d="M 73.832727 269.514969 
L 77.942278 264.893307 
L 82.05183 261.248444 
L 86.161381 248.063272 
L 90.270932 245.398201 
L 94.380483 251.667902 
L 98.490035 249.416393 
L 102.599586 246.797913 
L 106.709137 247.905754 
L 110.818688 248.924154 
L 114.928239 252.306947 
L 119.037791 250.492028 
L 123.147342 249.967841 
L 127.256893 243.292251 
L 131.366444 239.835463 
L 135.475995 245.46735 
L 139.585547 236.951469 
L 143.695098 233.239463 
L 147.804649 236.372928 
L 151.9142 236.807065 
L 156.023751 238.859351 
L 160.133303 234.471598 
L 164.242854 236.233022 
L 168.352405 233.527893 
L 172.461956 234.879071 
L 176.571507 230.524332 
L 180.681059 238.676754 
L 184.79061 236.266519 
L 188.900161 230.459816 
L 193.009712 226.709191 
L 197.119264 234.85897 
L 201.228815 230.406149 
L 205.338366 236.299637 
L 209.447917 228.508615 
L 213.557468 232.611044 
L 217.66702 227.114559 
L 221.776571 232.690535 
L 225.886122 232.608972 
L 229.995673 231.806875 
L 234.105224 227.762271 
L 238.214776 216.561543 
L 242.324327 218.346348 
L 246.433878 213.899505 
L 250.543429 219.725524 
L 254.65298 219.34885 
L 258.762532 215.856187 
L 262.872083 217.087635 
L 266.981634 214.475663 
L 271.091185 230.431235 
L 275.200736 210.381919 
L 279.310288 203.738641 
L 283.419839 214.475656 
L 287.52939 215.416974 
L 291.638941 218.017521 
L 295.748493 211.852674 
L 299.858044 218.492206 
L 303.967595 208.579691 
L 308.077146 201.914989 
L 312.186697 215.264433 
L 316.296249 214.267342 
L 320.4058 217.896218 
L 324.515351 212.084205 
L 328.624902 221.991582 
L 332.734453 219.650224 
L 336.844005 217.038234 
L 340.953556 209.508784 
L 345.063107 215.659753 
L 349.172658 227.421234 
L 353.282209 226.347662 
L 357.391761 226.316939 
L 361.501312 221.581603 
L 365.610863 218.05233 
L 369.720414 228.136831 
L 373.829965 218.008546 
L 377.939517 220.250072 
L 382.049068 211.29916 
L 386.158619 208.637073 
L 390.26817 201.993859 
L 394.377722 193.078663 
L 398.487273 195.823573 
" clip-path="url(#p716967e71c)" style="fill: none; stroke: #1f77b4; stroke-width: 1.5; stroke-linecap: square"/>
   </g>
   <g id="line2d_18">
    <path d="M 73.832727 260.07614 
L 77.942278 260.916637 
L 82.05183 249.683393 
L 86.161381 251.246566 
L 90.270932 247.170388 
L 94.380483 246.022637 
L 98.490035 236.776849 
L 102.599586 231.107297 
L 106.709137 230.445119 
L 110.818688 224.565998 
L 114.928239 231.109988 
L 119.037791 236.482677 
L 123.147342 209.981113 
L 127.256893 220.074794 
L 131.366444 198.71439 
L 135.475995 216.643125 
L 139.585547 219.57106 
L 143.695098 217.009978 
L 147.804649 205.810997 
L 151.9142 227.51586 
L 156.023751 222.53214 
L 160.133303 221.460897 
L 164.242854 217.546442 
L 168.352405 217.610669 
L 172.461956 214.319634 
L 176.571507 203.93893 
L 180.681059 186.089186 
L 184.79061 175.673629 
L 188.900161 184.069133 
L 193.009712 204.670842 
L 197.119264 208.582535 
L 201.228815 215.94441 
L 205.338366 204.27232 
L 209.447917 199.316105 
L 213.557468 201.604294 
L 217.66702 207.146046 
L 221.776571 199.63365 
L 225.886122 205.180271 
L 229.995673 190.207029 
L 234.105224 184.199616 
L 238.214776 176.397055 
L 242.324327 169.27696 
L 246.433878 172.171594 
L 250.543429 167.593132 
L 254.65298 163.726522 
L 258.762532 150.535391 
L 262.872083 147.336665 
L 266.981634 134.520027 
L 271.091185 162.102394 
L 275.200736 136.815056 
L 279.310288 114.759006 
L 283.419839 139.976833 
L 287.52939 128.405059 
L 291.638941 150.287808 
L 295.748493 116.619582 
L 299.858044 152.945359 
L 303.967595 138.420142 
L 308.077146 143.441713 
L 312.186697 159.165968 
L 316.296249 172.412437 
L 320.4058 179.75525 
L 324.515351 172.286984 
L 328.624902 166.264485 
L 332.734453 182.510512 
L 336.844005 166.552949 
L 340.953556 139.958757 
L 345.063107 164.486238 
L 349.172658 159.61034 
L 353.282209 189.653872 
L 357.391761 187.256352 
L 361.501312 163.836561 
L 365.610863 151.809502 
L 369.720414 190.8708 
L 373.829965 168.382954 
L 377.939517 175.953506 
L 382.049068 167.966784 
L 386.158619 150.598096 
L 390.26817 138.123709 
L 394.377722 132.233567 
L 398.487273 121.567612 
" clip-path="url(#p716967e71c)" style="fill: none; stroke: #ff7f0e; stroke-width: 1.5; stroke-linecap: square"/>
   </g>
   <g id="line2d_19">
    <path d="M 73.832727 235.592625 
L 77.942278 219.279743 
L 82.05183 217.211635 
L 86.161381 163.614561 
L 90.270932 163.756854 
L 94.380483 181.127088 
L 98.490035 199.294356 
L 102.599586 199.266217 
L 106.709137 127.904789 
L 110.818688 127.904789 
L 114.928239 127.904789 
L 119.037791 127.904789 
L 123.147342 127.904789 
L 127.256893 127.904789 
L 131.366444 127.904789 
L 135.475995 127.904789 
L 139.585547 127.904789 
L 143.695098 127.904789 
L 147.804649 127.904789 
L 151.9142 127.904789 
L 156.023751 127.904789 
L 160.133303 127.904789 
L 164.242854 127.904789 
L 168.352405 127.904789 
L 172.461956 127.904789 
L 176.571507 109.508032 
L 180.681059 127.904789 
L 184.79061 127.904789 
L 188.900161 127.904789 
L 193.009712 127.904789 
L 197.119264 127.904789 
L 201.228815 127.904789 
L 205.338366 127.904789 
L 209.447917 127.904789 
L 213.557468 127.904789 
L 217.66702 127.904789 
L 221.776571 127.904789 
L 225.886122 127.904789 
L 229.995673 127.904789 
L 234.105224 127.904789 
L 238.214776 127.904789 
L 242.324327 127.904789 
L 246.433878 127.904789 
L 250.543429 127.904789 
L 254.65298 127.904789 
L 258.762532 127.904789 
L 262.872083 127.904789 
L 266.981634 127.904789 
L 271.091185 127.904789 
L 275.200736 127.904789 
L 279.310288 127.904789 
L 283.419839 127.904789 
L 287.52939 127.904789 
L 291.638941 127.904789 
L 295.748493 127.904789 
L 299.858044 127.904789 
L 303.967595 110.435312 
L 308.077146 110.435312 
L 312.186697 110.435312 
L 316.296249 110.435312 
L 320.4058 110.435312 
L 324.515351 110.435312 
L 328.624902 110.435312 
L 332.734453 110.435312 
L 336.844005 110.435312 
L 340.953556 110.435312 
L 345.063107 110.435312 
L 349.172658 110.435312 
L 353.282209 110.435312 
L 357.391761 110.435312 
L 361.501312 110.435312 
L 365.610863 110.435312 
L 369.720414 110.435312 
L 373.829965 110.435312 
L 377.939517 110.435312 
L 382.049068 110.435312 
L 386.158619 110.435312 
L 390.26817 110.435312 
L 394.377722 110.435312 
L 398.487273 110.435312 
" clip-path="url(#p716967e71c)" style="fill: none; stroke-dasharray: 5.55,2.4; stroke-dashoffset: 0; stroke: #2ca02c; stroke-width: 1.5"/>
   </g>
   <g id="line2d_20">
    <path d="M 73.832727 87.502357 
L 77.942278 88.162097 
L 82.05183 92.1264 
L 86.161381 88.132503 
L 90.270932 88.112528 
L 94.380483 88.162097 
L 98.490035 84.143708 
L 102.599586 88.162097 
L 106.709137 87.742656 
L 110.818688 87.100503 
L 114.928239 76.207813 
L 119.037791 88.112528 
L 123.147342 87.384972 
L 127.256893 88.162097 
L 131.366444 79.981329 
L 135.475995 84.108268 
L 139.585547 84.108268 
L 143.695098 83.707009 
L 147.804649 75.976179 
L 151.9142 79.137642 
L 156.023751 83.707009 
L 160.133303 83.707009 
L 164.242854 80.228551 
L 168.352405 83.707009 
L 172.461956 83.707009 
L 176.571507 83.707009 
L 180.681059 83.707009 
L 184.79061 82.888723 
L 188.900161 83.707009 
L 193.009712 83.707009 
L 197.119264 79.441593 
L 201.228815 78.44849 
L 205.338366 82.611924 
L 209.447917 83.707009 
L 213.557468 83.707009 
L 217.66702 83.707009 
L 221.776571 83.707009 
L 225.886122 83.707009 
L 229.995673 83.707009 
L 234.105224 83.707009 
L 238.214776 83.707009 
L 242.324327 83.707009 
L 246.433878 83.707009 
L 250.543429 83.707009 
L 254.65298 83.707009 
L 258.762532 82.540543 
L 262.872083 83.707009 
L 266.981634 83.707009 
L 271.091185 83.707009 
L 275.200736 83.707009 
L 279.310288 83.707009 
L 283.419839 82.379465 
L 287.52939 83.707009 
L 291.638941 83.707009 
L 295.748493 81.793221 
L 299.858044 83.707009 
L 303.967595 83.400385 
L 308.077146 83.400385 
L 312.186697 82.408124 
L 316.296249 83.400385 
L 320.4058 82.222302 
L 324.515351 83.400385 
L 328.624902 83.203963 
L 332.734453 83.400385 
L 336.844005 83.400385 
L 340.953556 83.400385 
L 345.063107 83.400385 
L 349.172658 83.245501 
L 353.282209 83.400385 
L 357.391761 83.400385 
L 361.501312 83.400385 
L 365.610863 81.283904 
L 369.720414 83.400385 
L 373.829965 83.400385 
L 377.939517 83.400385 
L 382.049068 83.400385 
L 386.158619 83.400385 
L 390.26817 83.400385 
L 394.377722 83.400385 
L 398.487273 83.400385 
" clip-path="url(#p716967e71c)" style="fill: none; stroke-dasharray: 5.55,2.4; stroke-dashoffset: 0; stroke: #d62728; stroke-width: 1.5"/>
   </g>
   <g id="patch_3">
    <path d="M 57.6 307.584 
L 57.6 41.472 
" style="fill: none; stroke: #000000; stroke-width: 0.8; stroke-linejoin: miter; stroke-linecap: square"/>
   </g>
   <g id="patch_4">
    <path d="M 414.72 307.584 
L 414.72 41.472 
" style="fill: none; stroke: #000000; stroke-width: 0.8; stroke-linejoin: miter; stroke-linecap: square"/>
   </g>
   <g id="patch_5">
    <path d="M 57.6 307.584 
L 414.72 307.584 
" style="fill: none; stroke: #000000; stroke-width: 0.8; stroke-linejoin: miter; stroke-linecap: square"/>
   </g>
   <g id="patch_6">
    <path d="M 57.6 41.472 
L 414.72 41.472 
" style="fill: none; stroke: #000000; stroke-width: 0.8; stroke-linejoin: miter; stroke-linecap: square"/>
   </g>
   <g id="text_17">
    <!-- fitness on 1_incest -->
    <g transform="translate(180.24 35.472) scale(0.12 -0.12)">
     <defs>
      <path id="DejaVuSans-66" d="M 2375 4863 
L 2375 4384 
L 1825 4384 
Q 1516 4384 1395 4259 
Q 1275 4134 1275 3809 
L 1275 3500 
L 2222 3500 
L 2222 3053 
L 1275 3053 
L 1275 0 
L 697 0 
L 697 3053 
L 147 3053 
L 147 3500 
L 697 3500 
L 697 3744 
Q 697 4328 969 4595 
Q 1241 4863 1831 4863 
L 2375 4863 
z
" transform="scale(0.015625)"/>
      <path id="DejaVuSans-69" d="M 603 3500 
L 1178 3500 
L 1178 0 
L 603 0 
L 603 3500 
z
M 603 4863 
L 1178 4863 
L 1178 4134 
L 603 4134 
L 603 4863 
z
" transform="scale(0.015625)"/>
      <path id="DejaVuSans-74" d="M 1172 4494 
L 1172 3500 
L 2356 3500 
L 2356 3053 
L 1172 3053 
L 1172 1153 
Q 1172 725 1289 603 
Q 1406 481 1766 481 
L 2356 481 
L 2356 0 
L 1766 0 
Q 1100 0 847 248 
Q 594 497 594 1153 
L 594 3053 
L 172 3053 
L 172 3500 
L 594 3500 
L 594 4494 
L 1172 4494 
z
" transform="scale(0.015625)"/>
      <path id="DejaVuSans-6e" d="M 3513 2113 
L 3513 0 
L 2938 0 
L 2938 2094 
Q 2938 2591 2744 2837 
Q 2550 3084 2163 3084 
Q 1697 3084 1428 2787 
Q 1159 2491 1159 1978 
L 1159 0 
L 581 0 
L 581 3500 
L 1159 3500 
L 1159 2956 
Q 1366 3272 1645 3428 
Q 1925 3584 2291 3584 
Q 2894 3584 3203 3211 
Q 3513 2838 3513 2113 
z
" transform="scale(0.015625)"/>
      <path id="DejaVuSans-65" d="M 3597 1894 
L 3597 1613 
L 953 1613 
Q 991 1019 1311 708 
Q 1631 397 2203 397 
Q 2534 397 2845 478 
Q 3156 559 3463 722 
L 3463 178 
Q 3153 47 2828 -22 
Q 2503 -91 2169 -91 
Q 1331 -91 842 396 
Q 353 884 353 1716 
Q 353 2575 817 3079 
Q 1281 3584 2069 3584 
Q 2775 3584 3186 3129 
Q 3597 2675 3597 1894 
z
M 3022 2063 
Q 3016 2534 2758 2815 
Q 2500 3097 2075 3097 
Q 1594 3097 1305 2825 
Q 1016 2553 972 2059 
L 3022 2063 
z
" transform="scale(0.015625)"/>
      <path id="DejaVuSans-73" d="M 2834 3397 
L 2834 2853 
Q 2591 2978 2328 3040 
Q 2066 3103 1784 3103 
Q 1356 3103 1142 2972 
Q 928 2841 928 2578 
Q 928 2378 1081 2264 
Q 1234 2150 1697 2047 
L 1894 2003 
Q 2506 1872 2764 1633 
Q 3022 1394 3022 966 
Q 3022 478 2636 193 
Q 2250 -91 1575 -91 
Q 1294 -91 989 -36 
Q 684 19 347 128 
L 347 722 
Q 666 556 975 473 
Q 1284 391 1588 391 
Q 1994 391 2212 530 
Q 2431 669 2431 922 
Q 2431 1156 2273 1281 
Q 2116 1406 1581 1522 
L 1381 1569 
Q 847 1681 609 1914 
Q 372 2147 372 2553 
Q 372 3047 722 3315 
Q 1072 3584 1716 3584 
Q 2034 3584 2315 3537 
Q 2597 3491 2834 3397 
z
" transform="scale(0.015625)"/>
      <path id="DejaVuSans-20" transform="scale(0.015625)"/>
      <path id="DejaVuSans-6f" d="M 1959 3097 
Q 1497 3097 1228 2736 
Q 959 2375 959 1747 
Q 959 1119 1226 758 
Q 1494 397 1959 397 
Q 2419 397 2687 759 
Q 2956 1122 2956 1747 
Q 2956 2369 2687 2733 
Q 2419 3097 1959 3097 
z
M 1959 3584 
Q 2709 3584 3137 3096 
Q 3566 2609 3566 1747 
Q 3566 888 3137 398 
Q 2709 -91 1959 -91 
Q 1206 -91 779 398 
Q 353 888 353 1747 
Q 353 2609 779 3096 
Q 1206 3584 1959 3584 
z
" transform="scale(0.015625)"/>
      <path id="DejaVuSans-5f" d="M 3263 -1063 
L 3263 -1509 
L -63 -1509 
L -63 -1063 
L 3263 -1063 
z
" transform="scale(0.015625)"/>
      <path id="DejaVuSans-63" d="M 3122 3366 
L 3122 2828 
Q 2878 2963 2633 3030 
Q 2388 3097 2138 3097 
Q 1578 3097 1268 2742 
Q 959 2388 959 1747 
Q 959 1106 1268 751 
Q 1578 397 2138 397 
Q 2388 397 2633 464 
Q 2878 531 3122 666 
L 3122 134 
Q 2881 22 2623 -34 
Q 2366 -91 2075 -91 
Q 1284 -91 818 406 
Q 353 903 353 1747 
Q 353 2603 823 3093 
Q 1294 3584 2113 3584 
Q 2378 3584 2631 3529 
Q 2884 3475 3122 3366 
z
" transform="scale(0.015625)"/>
     </defs>
     <use xlink:href="#DejaVuSans-66"/>
     <use xlink:href="#DejaVuSans-69" x="35.205078"/>
     <use xlink:href="#DejaVuSans-74" x="62.988281"/>
     <use xlink:href="#DejaVuSans-6e" x="102.197266"/>
     <use xlink:href="#DejaVuSans-65" x="165.576172"/>
     <use xlink:href="#DejaVuSans-73" x="227.099609"/>
     <use xlink:href="#DejaVuSans-73" x="279.199219"/>
     <use xlink:href="#DejaVuSans-20" x="331.298828"/>
     <use xlink:href="#DejaVuSans-6f" x="363.085938"/>
     <use xlink:href="#DejaVuSans-6e" x="424.267578"/>
     <use xlink:href="#DejaVuSans-20" x="487.646484"/>
     <use xlink:href="#DejaVuSans-31" x="519.433594"/>
     <use xlink:href="#DejaVuSans-5f" x="583.056641"/>
     <use xlink:href="#DejaVuSans-69" x="633.056641"/>
     <use xlink:href="#DejaVuSans-6e" x="660.839844"/>
     <use xlink:href="#DejaVuSans-63" x="724.21875"/>
     <use xlink:href="#DejaVuSans-65" x="779.199219"/>
     <use xlink:href="#DejaVuSans-73" x="840.722656"/>
     <use xlink:href="#DejaVuSans-74" x="892.822266"/>
    </g>
   </g>
   <g id="legend_1">
    <g id="patch_7">
     <path d="M 334.555938 302.584 
L 407.72 302.584 
Q 409.72 302.584 409.72 300.584 
L 409.72 242.8715 
Q 409.72 240.8715 407.72 240.8715 
L 334.555938 240.8715 
Q 332.555938 240.8715 332.555938 242.8715 
L 332.555938 300.584 
Q 332.555938 302.584 334.555938 302.584 
z
" style="fill: #ffffff; opacity: 0.8; stroke: #cccccc; stroke-linejoin: miter"/>
    </g>
    <g id="line2d_21">
     <path d="M 336.555938 248.969937 
L 346.555938 248.969937 
L 356.555938 248.969937 
" style="fill: none; stroke: #1f77b4; stroke-width: 1.5; stroke-linecap: square"/>
    </g>
    <g id="text_18">
     <!-- enemyA -->
     <g transform="translate(364.555938 252.469937) scale(0.1 -0.1)">
      <defs>
       <path id="DejaVuSans-6d" d="M 3328 2828 
Q 3544 3216 3844 3400 
Q 4144 3584 4550 3584 
Q 5097 3584 5394 3201 
Q 5691 2819 5691 2113 
L 5691 0 
L 5113 0 
L 5113 2094 
Q 5113 2597 4934 2840 
Q 4756 3084 4391 3084 
Q 3944 3084 3684 2787 
Q 3425 2491 3425 1978 
L 3425 0 
L 2847 0 
L 2847 2094 
Q 2847 2600 2669 2842 
Q 2491 3084 2119 3084 
Q 1678 3084 1418 2786 
Q 1159 2488 1159 1978 
L 1159 0 
L 581 0 
L 581 3500 
L 1159 3500 
L 1159 2956 
Q 1356 3278 1631 3431 
Q 1906 3584 2284 3584 
Q 2666 3584 2933 3390 
Q 3200 3197 3328 2828 
z
" transform="scale(0.015625)"/>
       <path id="DejaVuSans-79" d="M 2059 -325 
Q 1816 -950 1584 -1140 
Q 1353 -1331 966 -1331 
L 506 -1331 
L 506 -850 
L 844 -850 
Q 1081 -850 1212 -737 
Q 1344 -625 1503 -206 
L 1606 56 
L 191 3500 
L 800 3500 
L 1894 763 
L 2988 3500 
L 3597 3500 
L 2059 -325 
z
" transform="scale(0.015625)"/>
       <path id="DejaVuSans-41" d="M 2188 4044 
L 1331 1722 
L 3047 1722 
L 2188 4044 
z
M 1831 4666 
L 2547 4666 
L 4325 0 
L 3669 0 
L 3244 1197 
L 1141 1197 
L 716 0 
L 50 0 
L 1831 4666 
z
" transform="scale(0.015625)"/>
      </defs>
      <use xlink:href="#DejaVuSans-65"/>
      <use xlink:href="#DejaVuSans-6e" x="61.523438"/>
      <use xlink:href="#DejaVuSans-65" x="124.902344"/>
      <use xlink:href="#DejaVuSans-6d" x="186.425781"/>
      <use xlink:href="#DejaVuSans-79" x="283.837891"/>
      <use xlink:href="#DejaVuSans-41" x="343.017578"/>
     </g>
    </g>
    <g id="line2d_22">
     <path d="M 336.555938 263.648062 
L 346.555938 263.648062 
L 356.555938 263.648062 
" style="fill: none; stroke: #ff7f0e; stroke-width: 1.5; stroke-linecap: square"/>
    </g>
    <g id="text_19">
     <!-- enemyB -->
     <g transform="translate(364.555938 267.148062) scale(0.1 -0.1)">
      <defs>
       <path id="DejaVuSans-42" d="M 1259 2228 
L 1259 519 
L 2272 519 
Q 2781 519 3026 730 
Q 3272 941 3272 1375 
Q 3272 1813 3026 2020 
Q 2781 2228 2272 2228 
L 1259 2228 
z
M 1259 4147 
L 1259 2741 
L 2194 2741 
Q 2656 2741 2882 2914 
Q 3109 3088 3109 3444 
Q 3109 3797 2882 3972 
Q 2656 4147 2194 4147 
L 1259 4147 
z
M 628 4666 
L 2241 4666 
Q 2963 4666 3353 4366 
Q 3744 4066 3744 3513 
Q 3744 3084 3544 2831 
Q 3344 2578 2956 2516 
Q 3422 2416 3680 2098 
Q 3938 1781 3938 1306 
Q 3938 681 3513 340 
Q 3088 0 2303 0 
L 628 0 
L 628 4666 
z
" transform="scale(0.015625)"/>
      </defs>
      <use xlink:href="#DejaVuSans-65"/>
      <use xlink:href="#DejaVuSans-6e" x="61.523438"/>
      <use xlink:href="#DejaVuSans-65" x="124.902344"/>
      <use xlink:href="#DejaVuSans-6d" x="186.425781"/>
      <use xlink:href="#DejaVuSans-79" x="283.837891"/>
      <use xlink:href="#DejaVuSans-42" x="343.017578"/>
     </g>
    </g>
    <g id="line2d_23">
     <path d="M 336.555938 278.326187 
L 346.555938 278.326187 
L 356.555938 278.326187 
" style="fill: none; stroke-dasharray: 5.55,2.4; stroke-dashoffset: 0; stroke: #2ca02c; stroke-width: 1.5"/>
    </g>
    <g id="text_20">
     <!-- enemyA -->
     <g transform="translate(364.555938 281.826187) scale(0.1 -0.1)">
      <use xlink:href="#DejaVuSans-65"/>
      <use xlink:href="#DejaVuSans-6e" x="61.523438"/>
      <use xlink:href="#DejaVuSans-65" x="124.902344"/>
      <use xlink:href="#DejaVuSans-6d" x="186.425781"/>
      <use xlink:href="#DejaVuSans-79" x="283.837891"/>
      <use xlink:href="#DejaVuSans-41" x="343.017578"/>
     </g>
    </g>
    <g id="line2d_24">
     <path d="M 336.555938 293.004312 
L 346.555938 293.004312 
L 356.555938 293.004312 
" style="fill: none; stroke-dasharray: 5.55,2.4; stroke-dashoffset: 0; stroke: #d62728; stroke-width: 1.5"/>
    </g>
    <g id="text_21">
     <!-- enemyB -->
     <g transform="translate(364.555938 296.504312) scale(0.1 -0.1)">
      <use xlink:href="#DejaVuSans-65"/>
      <use xlink:href="#DejaVuSans-6e" x="61.523438"/>
      <use xlink:href="#DejaVuSans-65" x="124.902344"/>
      <use xlink:href="#DejaVuSans-6d" x="186.425781"/>
      <use xlink:href="#DejaVuSans-79" x="283.837891"/>
      <use xlink:href="#DejaVuSans-42" x="343.017578"/>
     </g>
    </g>
   </g>
  </g>
 </g>
 <defs>
  <clipPath id="p716967e71c">
   <rect x="57.6" y="41.472" width="357.12" height="266.112"/>
  </clipPath>
 </defs>
</svg>
