<?xml version="1.0" encoding="utf-8" standalone="no"?>
<!DOCTYPE svg PUBLIC "-//W3C//DTD SVG 1.1//EN"
  "http://www.w3.org/Graphics/SVG/1.1/DTD/svg11.dtd">
<svg xmlns:xlink="http://www.w3.org/1999/xlink" width="460.8pt" height="345.6pt" viewBox="0 0 460.8 345.6" xmlns="http://www.w3.org/2000/svg" version="1.1">
 <metadata>
  <rdf:RDF xmlns:dc="http://purl.org/dc/elements/1.1/" xmlns:cc="http://creativecommons.org/ns#" xmlns:rdf="http://www.w3.org/1999/02/22-rdf-syntax-ns#">
   <cc:Work>
    <dc:type rdf:resource="http://purl.org/dc/dcmitype/StillImage"/>
    <dc:date>2022-10-13T16:56:21.817156</dc:date>
    <dc:format>image/svg+xml</dc:format>
    <dc:creator>
     <cc:Agent>
      <dc:title>Matplotlib v3.6.0, https://matplotlib.org/</dc:title>
     </cc:Agent>
    </dc:creator>
   </cc:Work>
  </rdf:RDF>
 </metadata>
 <defs>
  <style type="text/css">*{stroke-linejoin: round; stroke-linecap: butt}</style>
 </defs>
 <g id="figure_1">
  <g id="patch_1">
   <path d="M 0 345.6 
L 460.8 345.6 
L 460.8 0 
L 0 0 
z
" style="fill: #ffffff"/>
  </g>
  <g id="axes_1">
   <g id="patch_2">
    <path d="M 57.6 307.584 
L 414.72 307.584 
L 414.72 41.472 
L 57.6 41.472 
z
" style="fill: #ffffff"/>
   </g>
   <g id="PolyCollection_1">
    <path d="M 73.832727 238.157489 
L 73.832727 288.437336 
L 77.890909 295.488 
L 81.949091 283.356738 
L 86.007273 290.718318 
L 90.065455 285.097559 
L 94.123636 291.030344 
L 98.181818 280.703582 
L 102.24 280.150914 
L 106.298182 266.121753 
L 110.356364 257.323447 
L 114.414545 266.732012 
L 118.472727 236.76784 
L 122.530909 237.951699 
L 126.589091 242.141814 
L 130.647273 222.520095 
L 134.705455 240.775719 
L 138.763636 249.49019 
L 142.821818 246.970898 
L 146.88 245.789118 
L 150.938182 232.228485 
L 154.996364 243.63886 
L 159.054545 238.040876 
L 163.112727 245.170688 
L 167.170909 236.810144 
L 171.229091 251.923283 
L 175.287273 240.658768 
L 179.345455 243.124021 
L 183.403636 240.851609 
L 187.461818 234.261323 
L 191.52 241.298091 
L 195.578182 231.414582 
L 199.636364 217.584374 
L 203.694545 217.169745 
L 207.752727 223.757927 
L 211.810909 235.192914 
L 215.869091 231.244411 
L 219.927273 238.007792 
L 223.985455 236.807451 
L 228.043636 232.951128 
L 232.101818 234.944891 
L 236.16 233.592607 
L 240.218182 223.111902 
L 244.276364 218.529472 
L 248.334545 224.295375 
L 252.392727 228.66391 
L 256.450909 205.939944 
L 260.509091 222.570347 
L 264.567273 216.728298 
L 268.625455 220.047766 
L 272.683636 220.393863 
L 276.741818 209.032442 
L 280.8 209.953653 
L 284.858182 189.825834 
L 288.916364 189.491163 
L 292.974545 202.529973 
L 297.032727 200.360431 
L 301.090909 204.010168 
L 305.149091 200.513327 
L 309.207273 224.277963 
L 313.265455 221.209749 
L 317.323636 215.753751 
L 321.381818 216.02076 
L 325.44 226.918086 
L 329.498182 216.931895 
L 333.556364 223.382381 
L 337.614545 217.749135 
L 341.672727 223.515685 
L 345.730909 215.541283 
L 349.789091 224.171618 
L 353.847273 227.133431 
L 357.905455 229.756595 
L 361.963636 220.455353 
L 366.021818 225.172197 
L 370.08 230.365219 
L 374.138182 215.779532 
L 378.196364 228.003187 
L 382.254545 226.759228 
L 386.312727 219.258225 
L 390.370909 227.615422 
L 394.429091 228.522208 
L 398.487273 226.606522 
L 398.487273 130.65304 
L 398.487273 130.65304 
L 394.429091 111.820534 
L 390.370909 129.549546 
L 386.312727 116.53835 
L 382.254545 125.265552 
L 378.196364 121.118832 
L 374.138182 123.989838 
L 370.08 150.431923 
L 366.021818 134.831183 
L 361.963636 125.351977 
L 357.905455 142.96002 
L 353.847273 131.392547 
L 349.789091 134.362382 
L 345.730909 125.632965 
L 341.672727 135.117193 
L 337.614545 126.639848 
L 333.556364 136.00565 
L 329.498182 119.187204 
L 325.44 135.271705 
L 321.381818 109.587309 
L 317.323636 123.170217 
L 313.265455 119.301541 
L 309.207273 110.333424 
L 305.149091 103.861646 
L 301.090909 114.731621 
L 297.032727 105.98892 
L 292.974545 104.239156 
L 288.916364 110.065203 
L 284.858182 100.39444 
L 280.8 108.416586 
L 276.741818 112.671959 
L 272.683636 135.035417 
L 268.625455 133.410822 
L 264.567273 129.602389 
L 260.509091 137.665225 
L 256.450909 124.129978 
L 252.392727 135.909769 
L 248.334545 123.71572 
L 244.276364 125.445163 
L 240.218182 105.636336 
L 236.16 126.777189 
L 232.101818 130.171097 
L 228.043636 130.716212 
L 223.985455 136.518597 
L 219.927273 135.618271 
L 215.869091 145.183032 
L 211.810909 136.903439 
L 207.752727 137.283795 
L 203.694545 126.718822 
L 199.636364 122.369618 
L 195.578182 139.269302 
L 191.52 150.897273 
L 187.461818 140.415991 
L 183.403636 139.275217 
L 179.345455 144.181508 
L 175.287273 152.566687 
L 171.229091 168.991317 
L 167.170909 145.510799 
L 163.112727 143.081337 
L 159.054545 137.764477 
L 154.996364 148.863546 
L 150.938182 133.056121 
L 146.88 149.506809 
L 142.821818 149.497083 
L 138.763636 159.460556 
L 134.705455 149.676044 
L 130.647273 128.39652 
L 126.589091 143.446504 
L 122.530909 131.596901 
L 118.472727 147.789306 
L 114.414545 144.087015 
L 110.356364 165.033319 
L 106.298182 169.479613 
L 102.24 201.003129 
L 98.181818 196.822557 
L 94.123636 180.260252 
L 90.065455 160.118555 
L 86.007273 183.324054 
L 81.949091 185.872966 
L 77.890909 197.672025 
L 73.832727 238.157489 
z
" clip-path="url(#p6e80afd12e)" style="fill: #1f77b4; fill-opacity: 0.3"/>
   </g>
   <g id="PolyCollection_2">
    <path d="M 73.832727 251.831444 
L 73.832727 280.502126 
L 77.890909 277.618891 
L 81.949091 275.278346 
L 86.007273 275.513643 
L 90.065455 274.745259 
L 94.123636 278.507242 
L 98.181818 280.565346 
L 102.24 276.61128 
L 106.298182 263.661974 
L 110.356364 264.133318 
L 114.414545 272.437292 
L 118.472727 257.296416 
L 122.530909 256.330114 
L 126.589091 252.775664 
L 130.647273 252.075913 
L 134.705455 249.778459 
L 138.763636 262.518776 
L 142.821818 253.200798 
L 146.88 265.980019 
L 150.938182 267.15369 
L 154.996364 273.615276 
L 159.054545 269.627739 
L 163.112727 266.212469 
L 167.170909 263.407389 
L 171.229091 255.114774 
L 175.287273 257.098618 
L 179.345455 255.437602 
L 183.403636 260.379123 
L 187.461818 259.084104 
L 191.52 253.985862 
L 195.578182 266.907644 
L 199.636364 269.505737 
L 203.694545 254.105037 
L 207.752727 254.90474 
L 211.810909 257.316242 
L 215.869091 260.172697 
L 219.927273 255.247 
L 223.985455 266.147404 
L 228.043636 268.016181 
L 232.101818 252.919583 
L 236.16 251.147758 
L 240.218182 256.510473 
L 244.276364 257.076485 
L 248.334545 256.08264 
L 252.392727 249.872429 
L 256.450909 262.483279 
L 260.509091 249.417245 
L 264.567273 258.796563 
L 268.625455 253.672092 
L 272.683636 251.449606 
L 276.741818 252.719547 
L 280.8 250.97349 
L 284.858182 269.698989 
L 288.916364 269.804729 
L 292.974545 271.532437 
L 297.032727 264.770838 
L 301.090909 269.0861 
L 305.149091 264.723519 
L 309.207273 253.661938 
L 313.265455 251.485 
L 317.323636 248.990494 
L 321.381818 256.095762 
L 325.44 251.747251 
L 329.498182 259.004056 
L 333.556364 246.204116 
L 337.614545 260.358846 
L 341.672727 256.528185 
L 345.730909 262.699211 
L 349.789091 256.95551 
L 353.847273 253.177345 
L 357.905455 247.130354 
L 361.963636 255.486972 
L 366.021818 247.843556 
L 370.08 250.20289 
L 374.138182 262.62305 
L 378.196364 262.251203 
L 382.254545 265.456726 
L 386.312727 257.967903 
L 390.370909 257.544611 
L 394.429091 252.185582 
L 398.487273 258.947154 
L 398.487273 150.251275 
L 398.487273 150.251275 
L 394.429091 155.682495 
L 390.370909 154.423807 
L 386.312727 148.575555 
L 382.254545 149.731004 
L 378.196364 156.154299 
L 374.138182 153.832204 
L 370.08 143.715843 
L 366.021818 151.72369 
L 361.963636 154.419839 
L 357.905455 152.339942 
L 353.847273 152.791882 
L 349.789091 155.251729 
L 345.730909 156.734161 
L 341.672727 146.430575 
L 337.614545 155.973767 
L 333.556364 142.962173 
L 329.498182 146.629902 
L 325.44 151.070533 
L 321.381818 155.147804 
L 317.323636 142.41466 
L 313.265455 144.390637 
L 309.207273 154.0611 
L 305.149091 157.607543 
L 301.090909 159.717268 
L 297.032727 140.536587 
L 292.974545 157.563481 
L 288.916364 159.259375 
L 284.858182 153.248056 
L 280.8 139.714297 
L 276.741818 145.844778 
L 272.683636 151.055752 
L 268.625455 149.152152 
L 264.567273 155.147223 
L 260.509091 150.039876 
L 256.450909 146.843249 
L 252.392727 152.330752 
L 248.334545 153.051593 
L 244.276364 153.440949 
L 240.218182 151.907964 
L 236.16 150.699256 
L 232.101818 152.82114 
L 228.043636 156.095817 
L 223.985455 157.563077 
L 219.927273 147.450696 
L 215.869091 154.27575 
L 211.810909 146.593689 
L 207.752727 147.535851 
L 203.694545 155.960997 
L 199.636364 164.59155 
L 195.578182 161.802636 
L 191.52 154.720389 
L 187.461818 159.360299 
L 183.403636 159.397086 
L 179.345455 155.585158 
L 175.287273 157.940871 
L 171.229091 150.049475 
L 167.170909 159.282904 
L 163.112727 160.632393 
L 159.054545 164.888521 
L 154.996364 166.818332 
L 150.938182 153.401965 
L 146.88 158.043543 
L 142.821818 153.604695 
L 138.763636 165.657421 
L 134.705455 163.083806 
L 130.647273 158.984476 
L 126.589091 158.397792 
L 122.530909 172.173877 
L 118.472727 174.607201 
L 114.414545 178.979225 
L 110.356364 178.159851 
L 106.298182 194.883017 
L 102.24 201.582069 
L 98.181818 198.88303 
L 94.123636 226.358837 
L 90.065455 224.706278 
L 86.007273 221.687802 
L 81.949091 222.917595 
L 77.890909 241.161213 
L 73.832727 251.831444 
z
" clip-path="url(#p6e80afd12e)" style="fill: #ff7f0e; fill-opacity: 0.3"/>
   </g>
   <g id="matplotlib.axis_1">
    <g id="xtick_1">
     <g id="line2d_1">
      <defs>
       <path id="m7f4400f920" d="M 0 0 
L 0 3.5 
" style="stroke: #000000; stroke-width: 0.8"/>
      </defs>
      <g>
       <use xlink:href="#m7f4400f920" x="73.832727" y="307.584" style="stroke: #000000; stroke-width: 0.8"/>
      </g>
     </g>
     <g id="text_1">
      <!-- 0 -->
      <g transform="translate(70.651477 322.182437) scale(0.1 -0.1)">
       <defs>
        <path id="DejaVuSans-30" d="M 2034 4250 
Q 1547 4250 1301 3770 
Q 1056 3291 1056 2328 
Q 1056 1369 1301 889 
Q 1547 409 2034 409 
Q 2525 409 2770 889 
Q 3016 1369 3016 2328 
Q 3016 3291 2770 3770 
Q 2525 4250 2034 4250 
z
M 2034 4750 
Q 2819 4750 3233 4129 
Q 3647 3509 3647 2328 
Q 3647 1150 3233 529 
Q 2819 -91 2034 -91 
Q 1250 -91 836 529 
Q 422 1150 422 2328 
Q 422 3509 836 4129 
Q 1250 4750 2034 4750 
z
" transform="scale(0.015625)"/>
       </defs>
       <use xlink:href="#DejaVuSans-30"/>
      </g>
     </g>
    </g>
    <g id="xtick_2">
     <g id="line2d_2">
      <g>
       <use xlink:href="#m7f4400f920" x="114.414545" y="307.584" style="stroke: #000000; stroke-width: 0.8"/>
      </g>
     </g>
     <g id="text_2">
      <!-- 10 -->
      <g transform="translate(108.052045 322.182437) scale(0.1 -0.1)">
       <defs>
        <path id="DejaVuSans-31" d="M 794 531 
L 1825 531 
L 1825 4091 
L 703 3866 
L 703 4441 
L 1819 4666 
L 2450 4666 
L 2450 531 
L 3481 531 
L 3481 0 
L 794 0 
L 794 531 
z
" transform="scale(0.015625)"/>
       </defs>
       <use xlink:href="#DejaVuSans-31"/>
       <use xlink:href="#DejaVuSans-30" x="63.623047"/>
      </g>
     </g>
    </g>
    <g id="xtick_3">
     <g id="line2d_3">
      <g>
       <use xlink:href="#m7f4400f920" x="154.996364" y="307.584" style="stroke: #000000; stroke-width: 0.8"/>
      </g>
     </g>
     <g id="text_3">
      <!-- 20 -->
      <g transform="translate(148.633864 322.182437) scale(0.1 -0.1)">
       <defs>
        <path id="DejaVuSans-32" d="M 1228 531 
L 3431 531 
L 3431 0 
L 469 0 
L 469 531 
Q 828 903 1448 1529 
Q 2069 2156 2228 2338 
Q 2531 2678 2651 2914 
Q 2772 3150 2772 3378 
Q 2772 3750 2511 3984 
Q 2250 4219 1831 4219 
Q 1534 4219 1204 4116 
Q 875 4013 500 3803 
L 500 4441 
Q 881 4594 1212 4672 
Q 1544 4750 1819 4750 
Q 2544 4750 2975 4387 
Q 3406 4025 3406 3419 
Q 3406 3131 3298 2873 
Q 3191 2616 2906 2266 
Q 2828 2175 2409 1742 
Q 1991 1309 1228 531 
z
" transform="scale(0.015625)"/>
       </defs>
       <use xlink:href="#DejaVuSans-32"/>
       <use xlink:href="#DejaVuSans-30" x="63.623047"/>
      </g>
     </g>
    </g>
    <g id="xtick_4">
     <g id="line2d_4">
      <g>
       <use xlink:href="#m7f4400f920" x="195.578182" y="307.584" style="stroke: #000000; stroke-width: 0.8"/>
      </g>
     </g>
     <g id="text_4">
      <!-- 30 -->
      <g transform="translate(189.215682 322.182437) scale(0.1 -0.1)">
       <defs>
        <path id="DejaVuSans-33" d="M 2597 2516 
Q 3050 2419 3304 2112 
Q 3559 1806 3559 1356 
Q 3559 666 3084 287 
Q 2609 -91 1734 -91 
Q 1441 -91 1130 -33 
Q 819 25 488 141 
L 488 750 
Q 750 597 1062 519 
Q 1375 441 1716 441 
Q 2309 441 2620 675 
Q 2931 909 2931 1356 
Q 2931 1769 2642 2001 
Q 2353 2234 1838 2234 
L 1294 2234 
L 1294 2753 
L 1863 2753 
Q 2328 2753 2575 2939 
Q 2822 3125 2822 3475 
Q 2822 3834 2567 4026 
Q 2313 4219 1838 4219 
Q 1578 4219 1281 4162 
Q 984 4106 628 3988 
L 628 4550 
Q 988 4650 1302 4700 
Q 1616 4750 1894 4750 
Q 2613 4750 3031 4423 
Q 3450 4097 3450 3541 
Q 3450 3153 3228 2886 
Q 3006 2619 2597 2516 
z
" transform="scale(0.015625)"/>
       </defs>
       <use xlink:href="#DejaVuSans-33"/>
       <use xlink:href="#DejaVuSans-30" x="63.623047"/>
      </g>
     </g>
    </g>
    <g id="xtick_5">
     <g id="line2d_5">
      <g>
       <use xlink:href="#m7f4400f920" x="236.16" y="307.584" style="stroke: #000000; stroke-width: 0.8"/>
      </g>
     </g>
     <g id="text_5">
      <!-- 40 -->
      <g transform="translate(229.7975 322.182437) scale(0.1 -0.1)">
       <defs>
        <path id="DejaVuSans-34" d="M 2419 4116 
L 825 1625 
L 2419 1625 
L 2419 4116 
z
M 2253 4666 
L 3047 4666 
L 3047 1625 
L 3713 1625 
L 3713 1100 
L 3047 1100 
L 3047 0 
L 2419 0 
L 2419 1100 
L 313 1100 
L 313 1709 
L 2253 4666 
z
" transform="scale(0.015625)"/>
       </defs>
       <use xlink:href="#DejaVuSans-34"/>
       <use xlink:href="#DejaVuSans-30" x="63.623047"/>
      </g>
     </g>
    </g>
    <g id="xtick_6">
     <g id="line2d_6">
      <g>
       <use xlink:href="#m7f4400f920" x="276.741818" y="307.584" style="stroke: #000000; stroke-width: 0.8"/>
      </g>
     </g>
     <g id="text_6">
      <!-- 50 -->
      <g transform="translate(270.379318 322.182437) scale(0.1 -0.1)">
       <defs>
        <path id="DejaVuSans-35" d="M 691 4666 
L 3169 4666 
L 3169 4134 
L 1269 4134 
L 1269 2991 
Q 1406 3038 1543 3061 
Q 1681 3084 1819 3084 
Q 2600 3084 3056 2656 
Q 3513 2228 3513 1497 
Q 3513 744 3044 326 
Q 2575 -91 1722 -91 
Q 1428 -91 1123 -41 
Q 819 9 494 109 
L 494 744 
Q 775 591 1075 516 
Q 1375 441 1709 441 
Q 2250 441 2565 725 
Q 2881 1009 2881 1497 
Q 2881 1984 2565 2268 
Q 2250 2553 1709 2553 
Q 1456 2553 1204 2497 
Q 953 2441 691 2322 
L 691 4666 
z
" transform="scale(0.015625)"/>
       </defs>
       <use xlink:href="#DejaVuSans-35"/>
       <use xlink:href="#DejaVuSans-30" x="63.623047"/>
      </g>
     </g>
    </g>
    <g id="xtick_7">
     <g id="line2d_7">
      <g>
       <use xlink:href="#m7f4400f920" x="317.323636" y="307.584" style="stroke: #000000; stroke-width: 0.8"/>
      </g>
     </g>
     <g id="text_7">
      <!-- 60 -->
      <g transform="translate(310.961136 322.182437) scale(0.1 -0.1)">
       <defs>
        <path id="DejaVuSans-36" d="M 2113 2584 
Q 1688 2584 1439 2293 
Q 1191 2003 1191 1497 
Q 1191 994 1439 701 
Q 1688 409 2113 409 
Q 2538 409 2786 701 
Q 3034 994 3034 1497 
Q 3034 2003 2786 2293 
Q 2538 2584 2113 2584 
z
M 3366 4563 
L 3366 3988 
Q 3128 4100 2886 4159 
Q 2644 4219 2406 4219 
Q 1781 4219 1451 3797 
Q 1122 3375 1075 2522 
Q 1259 2794 1537 2939 
Q 1816 3084 2150 3084 
Q 2853 3084 3261 2657 
Q 3669 2231 3669 1497 
Q 3669 778 3244 343 
Q 2819 -91 2113 -91 
Q 1303 -91 875 529 
Q 447 1150 447 2328 
Q 447 3434 972 4092 
Q 1497 4750 2381 4750 
Q 2619 4750 2861 4703 
Q 3103 4656 3366 4563 
z
" transform="scale(0.015625)"/>
       </defs>
       <use xlink:href="#DejaVuSans-36"/>
       <use xlink:href="#DejaVuSans-30" x="63.623047"/>
      </g>
     </g>
    </g>
    <g id="xtick_8">
     <g id="line2d_8">
      <g>
       <use xlink:href="#m7f4400f920" x="357.905455" y="307.584" style="stroke: #000000; stroke-width: 0.8"/>
      </g>
     </g>
     <g id="text_8">
      <!-- 70 -->
      <g transform="translate(351.542955 322.182437) scale(0.1 -0.1)">
       <defs>
        <path id="DejaVuSans-37" d="M 525 4666 
L 3525 4666 
L 3525 4397 
L 1831 0 
L 1172 0 
L 2766 4134 
L 525 4134 
L 525 4666 
z
" transform="scale(0.015625)"/>
       </defs>
       <use xlink:href="#DejaVuSans-37"/>
       <use xlink:href="#DejaVuSans-30" x="63.623047"/>
      </g>
     </g>
    </g>
    <g id="xtick_9">
     <g id="line2d_9">
      <g>
       <use xlink:href="#m7f4400f920" x="398.487273" y="307.584" style="stroke: #000000; stroke-width: 0.8"/>
      </g>
     </g>
     <g id="text_9">
      <!-- 80 -->
      <g transform="translate(392.124773 322.182437) scale(0.1 -0.1)">
       <defs>
        <path id="DejaVuSans-38" d="M 2034 2216 
Q 1584 2216 1326 1975 
Q 1069 1734 1069 1313 
Q 1069 891 1326 650 
Q 1584 409 2034 409 
Q 2484 409 2743 651 
Q 3003 894 3003 1313 
Q 3003 1734 2745 1975 
Q 2488 2216 2034 2216 
z
M 1403 2484 
Q 997 2584 770 2862 
Q 544 3141 544 3541 
Q 544 4100 942 4425 
Q 1341 4750 2034 4750 
Q 2731 4750 3128 4425 
Q 3525 4100 3525 3541 
Q 3525 3141 3298 2862 
Q 3072 2584 2669 2484 
Q 3125 2378 3379 2068 
Q 3634 1759 3634 1313 
Q 3634 634 3220 271 
Q 2806 -91 2034 -91 
Q 1263 -91 848 271 
Q 434 634 434 1313 
Q 434 1759 690 2068 
Q 947 2378 1403 2484 
z
M 1172 3481 
Q 1172 3119 1398 2916 
Q 1625 2713 2034 2713 
Q 2441 2713 2670 2916 
Q 2900 3119 2900 3481 
Q 2900 3844 2670 4047 
Q 2441 4250 2034 4250 
Q 1625 4250 1398 4047 
Q 1172 3844 1172 3481 
z
" transform="scale(0.015625)"/>
       </defs>
       <use xlink:href="#DejaVuSans-38"/>
       <use xlink:href="#DejaVuSans-30" x="63.623047"/>
      </g>
     </g>
    </g>
   </g>
   <g id="matplotlib.axis_2">
    <g id="ytick_1">
     <g id="line2d_10">
      <defs>
       <path id="m0571b1d0cb" d="M 0 0 
L -3.5 0 
" style="stroke: #000000; stroke-width: 0.8"/>
      </defs>
      <g>
       <use xlink:href="#m0571b1d0cb" x="57.6" y="304.94523" style="stroke: #000000; stroke-width: 0.8"/>
      </g>
     </g>
     <g id="text_10">
      <!-- −20 -->
      <g transform="translate(29.495313 308.744449) scale(0.1 -0.1)">
       <defs>
        <path id="DejaVuSans-2212" d="M 678 2272 
L 4684 2272 
L 4684 1741 
L 678 1741 
L 678 2272 
z
" transform="scale(0.015625)"/>
       </defs>
       <use xlink:href="#DejaVuSans-2212"/>
       <use xlink:href="#DejaVuSans-32" x="83.789062"/>
       <use xlink:href="#DejaVuSans-30" x="147.412109"/>
      </g>
     </g>
    </g>
    <g id="ytick_2">
     <g id="line2d_11">
      <g>
       <use xlink:href="#m0571b1d0cb" x="57.6" y="259.246009" style="stroke: #000000; stroke-width: 0.8"/>
      </g>
     </g>
     <g id="text_11">
      <!-- 0 -->
      <g transform="translate(44.2375 263.045228) scale(0.1 -0.1)">
       <use xlink:href="#DejaVuSans-30"/>
      </g>
     </g>
    </g>
    <g id="ytick_3">
     <g id="line2d_12">
      <g>
       <use xlink:href="#m0571b1d0cb" x="57.6" y="213.546787" style="stroke: #000000; stroke-width: 0.8"/>
      </g>
     </g>
     <g id="text_12">
      <!-- 20 -->
      <g transform="translate(37.875 217.346006) scale(0.1 -0.1)">
       <use xlink:href="#DejaVuSans-32"/>
       <use xlink:href="#DejaVuSans-30" x="63.623047"/>
      </g>
     </g>
    </g>
    <g id="ytick_4">
     <g id="line2d_13">
      <g>
       <use xlink:href="#m0571b1d0cb" x="57.6" y="167.847566" style="stroke: #000000; stroke-width: 0.8"/>
      </g>
     </g>
     <g id="text_13">
      <!-- 40 -->
      <g transform="translate(37.875 171.646785) scale(0.1 -0.1)">
       <use xlink:href="#DejaVuSans-34"/>
       <use xlink:href="#DejaVuSans-30" x="63.623047"/>
      </g>
     </g>
    </g>
    <g id="ytick_5">
     <g id="line2d_14">
      <g>
       <use xlink:href="#m0571b1d0cb" x="57.6" y="122.148345" style="stroke: #000000; stroke-width: 0.8"/>
      </g>
     </g>
     <g id="text_14">
      <!-- 60 -->
      <g transform="translate(37.875 125.947564) scale(0.1 -0.1)">
       <use xlink:href="#DejaVuSans-36"/>
       <use xlink:href="#DejaVuSans-30" x="63.623047"/>
      </g>
     </g>
    </g>
    <g id="ytick_6">
     <g id="line2d_15">
      <g>
       <use xlink:href="#m0571b1d0cb" x="57.6" y="76.449123" style="stroke: #000000; stroke-width: 0.8"/>
      </g>
     </g>
     <g id="text_15">
      <!-- 80 -->
      <g transform="translate(37.875 80.248342) scale(0.1 -0.1)">
       <use xlink:href="#DejaVuSans-38"/>
       <use xlink:href="#DejaVuSans-30" x="63.623047"/>
      </g>
     </g>
    </g>
   </g>
   <g id="line2d_16">
    <path d="M 73.832727 263.297413 
L 77.890909 246.580013 
L 81.949091 234.614852 
L 86.007273 237.021186 
L 90.065455 222.608057 
L 94.123636 235.645298 
L 98.181818 238.763069 
L 102.24 240.577021 
L 106.298182 217.800683 
L 110.356364 211.178383 
L 114.414545 205.409513 
L 118.472727 192.278573 
L 122.530909 184.7743 
L 126.589091 192.794159 
L 130.647273 175.458308 
L 134.705455 195.225881 
L 138.763636 204.475373 
L 142.821818 198.23399 
L 146.88 197.647963 
L 150.938182 182.642303 
L 154.996364 196.251203 
L 159.054545 187.902676 
L 163.112727 194.126013 
L 167.170909 191.160471 
L 171.229091 210.4573 
L 175.287273 196.612727 
L 179.345455 193.652765 
L 183.403636 190.063413 
L 187.461818 187.338657 
L 191.52 196.097682 
L 195.578182 185.341942 
L 199.636364 169.976996 
L 203.694545 171.944283 
L 207.752727 180.520861 
L 211.810909 186.048176 
L 215.869091 188.213722 
L 219.927273 186.813031 
L 223.985455 186.663024 
L 228.043636 181.83367 
L 232.101818 182.557994 
L 236.16 180.184898 
L 240.218182 164.374119 
L 244.276364 171.987318 
L 248.334545 174.005547 
L 252.392727 182.28684 
L 256.450909 165.034961 
L 260.509091 180.117786 
L 264.567273 173.165343 
L 268.625455 176.729294 
L 272.683636 177.71464 
L 276.741818 160.852201 
L 280.8 159.185119 
L 284.858182 145.110137 
L 288.916364 149.778183 
L 292.974545 153.384564 
L 297.032727 153.174675 
L 301.090909 159.370894 
L 305.149091 152.187486 
L 309.207273 167.305694 
L 313.265455 170.255645 
L 317.323636 169.461984 
L 321.381818 162.804034 
L 325.44 181.094895 
L 329.498182 168.059549 
L 333.556364 179.694016 
L 337.614545 172.194492 
L 341.672727 179.316439 
L 345.730909 170.587124 
L 349.789091 179.267 
L 353.847273 179.262989 
L 357.905455 186.358307 
L 361.963636 172.903665 
L 366.021818 180.00169 
L 370.08 190.398571 
L 374.138182 169.884685 
L 378.196364 174.56101 
L 382.254545 176.01239 
L 386.312727 167.898288 
L 390.370909 178.582484 
L 394.429091 170.171371 
L 398.487273 178.629781 
" clip-path="url(#p6e80afd12e)" style="fill: none; stroke: #1f77b4; stroke-width: 1.5; stroke-linecap: square"/>
   </g>
   <g id="line2d_17">
    <path d="M 73.832727 266.166785 
L 77.890909 259.390052 
L 81.949091 249.09797 
L 86.007273 248.600723 
L 90.065455 249.725768 
L 94.123636 252.43304 
L 98.181818 239.724188 
L 102.24 239.096674 
L 106.298182 229.272496 
L 110.356364 221.146584 
L 114.414545 225.708259 
L 118.472727 215.951809 
L 122.530909 214.251996 
L 126.589091 205.586728 
L 130.647273 205.530195 
L 134.705455 206.431132 
L 138.763636 214.088098 
L 142.821818 203.402747 
L 146.88 212.011781 
L 150.938182 210.277827 
L 154.996364 220.216804 
L 159.054545 217.25813 
L 163.112727 213.422431 
L 167.170909 211.345146 
L 171.229091 202.582125 
L 175.287273 207.519744 
L 179.345455 205.51138 
L 183.403636 209.888104 
L 187.461818 209.222202 
L 191.52 204.353125 
L 195.578182 214.35514 
L 199.636364 217.048644 
L 203.694545 205.033017 
L 207.752727 201.220296 
L 211.810909 201.954965 
L 215.869091 207.224223 
L 219.927273 201.348848 
L 223.985455 211.855241 
L 228.043636 212.055999 
L 232.101818 202.870361 
L 236.16 200.923507 
L 240.218182 204.209219 
L 244.276364 205.258717 
L 248.334545 204.567116 
L 252.392727 201.101591 
L 256.450909 204.663264 
L 260.509091 199.728561 
L 264.567273 206.971893 
L 268.625455 201.412122 
L 272.683636 201.252679 
L 276.741818 199.282162 
L 280.8 195.343893 
L 284.858182 211.473522 
L 288.916364 214.532052 
L 292.974545 214.547959 
L 297.032727 202.653712 
L 301.090909 214.401684 
L 305.149091 211.165531 
L 309.207273 203.861519 
L 313.265455 197.937818 
L 317.323636 195.702577 
L 321.381818 205.621783 
L 325.44 201.408892 
L 329.498182 202.816979 
L 333.556364 194.583144 
L 337.614545 208.166307 
L 341.672727 201.47938 
L 345.730909 209.716686 
L 349.789091 206.10362 
L 353.847273 202.984613 
L 357.905455 199.735148 
L 361.963636 204.953406 
L 366.021818 199.783623 
L 370.08 196.959367 
L 374.138182 208.227627 
L 378.196364 209.202751 
L 382.254545 207.593865 
L 386.312727 203.271729 
L 390.370909 205.984209 
L 394.429091 203.934039 
L 398.487273 204.599214 
" clip-path="url(#p6e80afd12e)" style="fill: none; stroke: #ff7f0e; stroke-width: 1.5; stroke-linecap: square"/>
   </g>
   <g id="line2d_18">
    <path d="M 73.832727 149.872687 
L 77.890909 108.951686 
L 81.949091 88.436273 
L 86.007273 60.017032 
L 90.065455 60.017032 
L 94.123636 60.017032 
L 98.181818 128.303418 
L 102.24 128.303418 
L 106.298182 88.138738 
L 110.356364 108.708426 
L 114.414545 60.017032 
L 118.472727 88.18863 
L 122.530909 66.871915 
L 126.589091 88.453918 
L 130.647273 64.930853 
L 134.705455 88.387036 
L 138.763636 108.987599 
L 142.821818 88.414024 
L 146.88 88.414024 
L 150.938182 88.414024 
L 154.996364 88.409548 
L 159.054545 88.203387 
L 163.112727 88.368865 
L 167.170909 87.421777 
L 171.229091 88.414024 
L 175.287273 88.414024 
L 179.345455 62.297391 
L 183.403636 88.208285 
L 187.461818 88.414024 
L 191.52 88.414024 
L 195.578182 88.18863 
L 199.636364 88.203387 
L 203.694545 60.42758 
L 207.752727 88.203387 
L 211.810909 65.496336 
L 215.869091 88.414024 
L 219.927273 63.668367 
L 223.985455 88.391556 
L 228.043636 60.42758 
L 232.101818 60.42758 
L 236.16 58.189063 
L 240.218182 60.738316 
L 244.276364 67.89804 
L 248.334545 59.504192 
L 252.392727 88.405063 
L 256.450909 88.414024 
L 260.509091 65.454494 
L 264.567273 88.414024 
L 268.625455 88.3643 
L 272.683636 88.414024 
L 276.741818 88.414024 
L 280.8 61.383406 
L 284.858182 66.41032 
L 288.916364 88.203387 
L 292.974545 88.382507 
L 297.032727 66.012445 
L 301.090909 66.41032 
L 305.149091 65.953328 
L 309.207273 64.469025 
L 313.265455 58.926275 
L 317.323636 88.377969 
L 321.381818 53.568 
L 325.44 88.414024 
L 329.498182 88.382507 
L 333.556364 88.414024 
L 337.614545 88.414024 
L 341.672727 88.414024 
L 345.730909 88.3643 
L 349.789091 88.128627 
L 353.847273 88.133688 
L 357.905455 66.49813 
L 361.963636 62.250852 
L 366.021818 63.211375 
L 370.08 88.414024 
L 374.138182 64.083518 
L 378.196364 62.193725 
L 382.254545 65.78612 
L 386.312727 64.54051 
L 390.370909 64.54051 
L 394.429091 60.474024 
L 398.487273 64.54051 
" clip-path="url(#p6e80afd12e)" style="fill: none; stroke-dasharray: 5.55,2.4; stroke-dashoffset: 0; stroke: #2ca02c; stroke-width: 1.5"/>
   </g>
   <g id="line2d_19">
    <path d="M 73.832727 210.386163 
L 77.890909 209.5533 
L 81.949091 189.919107 
L 86.007273 189.510457 
L 90.065455 209.17702 
L 94.123636 209.5533 
L 98.181818 90.606599 
L 102.24 90.606599 
L 106.298182 90.606599 
L 110.356364 68.245838 
L 114.414545 68.245838 
L 118.472727 68.245838 
L 122.530909 68.245838 
L 126.589091 62.913915 
L 130.647273 62.913915 
L 134.705455 62.913915 
L 138.763636 62.913915 
L 142.821818 62.913915 
L 146.88 62.913915 
L 150.938182 58.325746 
L 154.996364 62.913915 
L 159.054545 62.913915 
L 163.112727 62.913915 
L 167.170909 62.913915 
L 171.229091 62.913915 
L 175.287273 62.913915 
L 179.345455 62.913915 
L 183.403636 62.913915 
L 187.461818 62.913915 
L 191.52 62.913915 
L 195.578182 62.913915 
L 199.636364 62.913915 
L 203.694545 62.913915 
L 207.752727 59.922462 
L 211.810909 58.908914 
L 215.869091 58.908914 
L 219.927273 58.908914 
L 223.985455 58.908914 
L 228.043636 58.908914 
L 232.101818 58.908914 
L 236.16 58.908914 
L 240.218182 58.908914 
L 244.276364 58.908914 
L 248.334545 58.908914 
L 252.392727 58.908914 
L 256.450909 57.113178 
L 260.509091 58.908914 
L 264.567273 58.908914 
L 268.625455 58.908914 
L 272.683636 58.908914 
L 276.741818 58.908914 
L 280.8 58.908914 
L 284.858182 58.908914 
L 288.916364 58.908914 
L 292.974545 58.908914 
L 297.032727 58.908914 
L 301.090909 58.908914 
L 305.149091 58.908914 
L 309.207273 58.908914 
L 313.265455 57.103599 
L 317.323636 58.908914 
L 321.381818 58.908914 
L 325.44 58.908914 
L 329.498182 58.908914 
L 333.556364 58.908914 
L 337.614545 58.908914 
L 341.672727 58.908914 
L 345.730909 58.908914 
L 349.789091 58.908914 
L 353.847273 58.908914 
L 357.905455 58.908914 
L 361.963636 58.908914 
L 366.021818 58.908914 
L 370.08 57.37475 
L 374.138182 58.908914 
L 378.196364 58.908914 
L 382.254545 58.908914 
L 386.312727 58.908914 
L 390.370909 63.949511 
L 394.429091 63.949511 
L 398.487273 61.909816 
" clip-path="url(#p6e80afd12e)" style="fill: none; stroke-dasharray: 5.55,2.4; stroke-dashoffset: 0; stroke: #d62728; stroke-width: 1.5"/>
   </g>
   <g id="patch_3">
    <path d="M 57.6 307.584 
L 57.6 41.472 
" style="fill: none; stroke: #000000; stroke-width: 0.8; stroke-linejoin: miter; stroke-linecap: square"/>
   </g>
   <g id="patch_4">
    <path d="M 414.72 307.584 
L 414.72 41.472 
" style="fill: none; stroke: #000000; stroke-width: 0.8; stroke-linejoin: miter; stroke-linecap: square"/>
   </g>
   <g id="patch_5">
    <path d="M 57.6 307.584 
L 414.72 307.584 
" style="fill: none; stroke: #000000; stroke-width: 0.8; stroke-linejoin: miter; stroke-linecap: square"/>
   </g>
   <g id="patch_6">
    <path d="M 57.6 41.472 
L 414.72 41.472 
" style="fill: none; stroke: #000000; stroke-width: 0.8; stroke-linejoin: miter; stroke-linecap: square"/>
   </g>
   <g id="text_16">
    <!-- fitness on 7_incest -->
    <g transform="translate(180.24 35.472) scale(0.12 -0.12)">
     <defs>
      <path id="DejaVuSans-66" d="M 2375 4863 
L 2375 4384 
L 1825 4384 
Q 1516 4384 1395 4259 
Q 1275 4134 1275 3809 
L 1275 3500 
L 2222 3500 
L 2222 3053 
L 1275 3053 
L 1275 0 
L 697 0 
L 697 3053 
L 147 3053 
L 147 3500 
L 697 3500 
L 697 3744 
Q 697 4328 969 4595 
Q 1241 4863 1831 4863 
L 2375 4863 
z
" transform="scale(0.015625)"/>
      <path id="DejaVuSans-69" d="M 603 3500 
L 1178 3500 
L 1178 0 
L 603 0 
L 603 3500 
z
M 603 4863 
L 1178 4863 
L 1178 4134 
L 603 4134 
L 603 4863 
z
" transform="scale(0.015625)"/>
      <path id="DejaVuSans-74" d="M 1172 4494 
L 1172 3500 
L 2356 3500 
L 2356 3053 
L 1172 3053 
L 1172 1153 
Q 1172 725 1289 603 
Q 1406 481 1766 481 
L 2356 481 
L 2356 0 
L 1766 0 
Q 1100 0 847 248 
Q 594 497 594 1153 
L 594 3053 
L 172 3053 
L 172 3500 
L 594 3500 
L 594 4494 
L 1172 4494 
z
" transform="scale(0.015625)"/>
      <path id="DejaVuSans-6e" d="M 3513 2113 
L 3513 0 
L 2938 0 
L 2938 2094 
Q 2938 2591 2744 2837 
Q 2550 3084 2163 3084 
Q 1697 3084 1428 2787 
Q 1159 2491 1159 1978 
L 1159 0 
L 581 0 
L 581 3500 
L 1159 3500 
L 1159 2956 
Q 1366 3272 1645 3428 
Q 1925 3584 2291 3584 
Q 2894 3584 3203 3211 
Q 3513 2838 3513 2113 
z
" transform="scale(0.015625)"/>
      <path id="DejaVuSans-65" d="M 3597 1894 
L 3597 1613 
L 953 1613 
Q 991 1019 1311 708 
Q 1631 397 2203 397 
Q 2534 397 2845 478 
Q 3156 559 3463 722 
L 3463 178 
Q 3153 47 2828 -22 
Q 2503 -91 2169 -91 
Q 1331 -91 842 396 
Q 353 884 353 1716 
Q 353 2575 817 3079 
Q 1281 3584 2069 3584 
Q 2775 3584 3186 3129 
Q 3597 2675 3597 1894 
z
M 3022 2063 
Q 3016 2534 2758 2815 
Q 2500 3097 2075 3097 
Q 1594 3097 1305 2825 
Q 1016 2553 972 2059 
L 3022 2063 
z
" transform="scale(0.015625)"/>
      <path id="DejaVuSans-73" d="M 2834 3397 
L 2834 2853 
Q 2591 2978 2328 3040 
Q 2066 3103 1784 3103 
Q 1356 3103 1142 2972 
Q 928 2841 928 2578 
Q 928 2378 1081 2264 
Q 1234 2150 1697 2047 
L 1894 2003 
Q 2506 1872 2764 1633 
Q 3022 1394 3022 966 
Q 3022 478 2636 193 
Q 2250 -91 1575 -91 
Q 1294 -91 989 -36 
Q 684 19 347 128 
L 347 722 
Q 666 556 975 473 
Q 1284 391 1588 391 
Q 1994 391 2212 530 
Q 2431 669 2431 922 
Q 2431 1156 2273 1281 
Q 2116 1406 1581 1522 
L 1381 1569 
Q 847 1681 609 1914 
Q 372 2147 372 2553 
Q 372 3047 722 3315 
Q 1072 3584 1716 3584 
Q 2034 3584 2315 3537 
Q 2597 3491 2834 3397 
z
" transform="scale(0.015625)"/>
      <path id="DejaVuSans-20" transform="scale(0.015625)"/>
      <path id="DejaVuSans-6f" d="M 1959 3097 
Q 1497 3097 1228 2736 
Q 959 2375 959 1747 
Q 959 1119 1226 758 
Q 1494 397 1959 397 
Q 2419 397 2687 759 
Q 2956 1122 2956 1747 
Q 2956 2369 2687 2733 
Q 2419 3097 1959 3097 
z
M 1959 3584 
Q 2709 3584 3137 3096 
Q 3566 2609 3566 1747 
Q 3566 888 3137 398 
Q 2709 -91 1959 -91 
Q 1206 -91 779 398 
Q 353 888 353 1747 
Q 353 2609 779 3096 
Q 1206 3584 1959 3584 
z
" transform="scale(0.015625)"/>
      <path id="DejaVuSans-5f" d="M 3263 -1063 
L 3263 -1509 
L -63 -1509 
L -63 -1063 
L 3263 -1063 
z
" transform="scale(0.015625)"/>
      <path id="DejaVuSans-63" d="M 3122 3366 
L 3122 2828 
Q 2878 2963 2633 3030 
Q 2388 3097 2138 3097 
Q 1578 3097 1268 2742 
Q 959 2388 959 1747 
Q 959 1106 1268 751 
Q 1578 397 2138 397 
Q 2388 397 2633 464 
Q 2878 531 3122 666 
L 3122 134 
Q 2881 22 2623 -34 
Q 2366 -91 2075 -91 
Q 1284 -91 818 406 
Q 353 903 353 1747 
Q 353 2603 823 3093 
Q 1294 3584 2113 3584 
Q 2378 3584 2631 3529 
Q 2884 3475 3122 3366 
z
" transform="scale(0.015625)"/>
     </defs>
     <use xlink:href="#DejaVuSans-66"/>
     <use xlink:href="#DejaVuSans-69" x="35.205078"/>
     <use xlink:href="#DejaVuSans-74" x="62.988281"/>
     <use xlink:href="#DejaVuSans-6e" x="102.197266"/>
     <use xlink:href="#DejaVuSans-65" x="165.576172"/>
     <use xlink:href="#DejaVuSans-73" x="227.099609"/>
     <use xlink:href="#DejaVuSans-73" x="279.199219"/>
     <use xlink:href="#DejaVuSans-20" x="331.298828"/>
     <use xlink:href="#DejaVuSans-6f" x="363.085938"/>
     <use xlink:href="#DejaVuSans-6e" x="424.267578"/>
     <use xlink:href="#DejaVuSans-20" x="487.646484"/>
     <use xlink:href="#DejaVuSans-37" x="519.433594"/>
     <use xlink:href="#DejaVuSans-5f" x="583.056641"/>
     <use xlink:href="#DejaVuSans-69" x="633.056641"/>
     <use xlink:href="#DejaVuSans-6e" x="660.839844"/>
     <use xlink:href="#DejaVuSans-63" x="724.21875"/>
     <use xlink:href="#DejaVuSans-65" x="779.199219"/>
     <use xlink:href="#DejaVuSans-73" x="840.722656"/>
     <use xlink:href="#DejaVuSans-74" x="892.822266"/>
    </g>
   </g>
   <g id="legend_1">
    <g id="patch_7">
     <path d="M 334.555938 302.584 
L 407.72 302.584 
Q 409.72 302.584 409.72 300.584 
L 409.72 242.8715 
Q 409.72 240.8715 407.72 240.8715 
L 334.555938 240.8715 
Q 332.555938 240.8715 332.555938 242.8715 
L 332.555938 300.584 
Q 332.555938 302.584 334.555938 302.584 
z
" style="fill: #ffffff; opacity: 0.8; stroke: #cccccc; stroke-linejoin: miter"/>
    </g>
    <g id="line2d_20">
     <path d="M 336.555938 248.969937 
L 346.555938 248.969937 
L 356.555938 248.969937 
" style="fill: none; stroke: #1f77b4; stroke-width: 1.5; stroke-linecap: square"/>
    </g>
    <g id="text_17">
     <!-- enemyA -->
     <g transform="translate(364.555938 252.469937) scale(0.1 -0.1)">
      <defs>
       <path id="DejaVuSans-6d" d="M 3328 2828 
Q 3544 3216 3844 3400 
Q 4144 3584 4550 3584 
Q 5097 3584 5394 3201 
Q 5691 2819 5691 2113 
L 5691 0 
L 5113 0 
L 5113 2094 
Q 5113 2597 4934 2840 
Q 4756 3084 4391 3084 
Q 3944 3084 3684 2787 
Q 3425 2491 3425 1978 
L 3425 0 
L 2847 0 
L 2847 2094 
Q 2847 2600 2669 2842 
Q 2491 3084 2119 3084 
Q 1678 3084 1418 2786 
Q 1159 2488 1159 1978 
L 1159 0 
L 581 0 
L 581 3500 
L 1159 3500 
L 1159 2956 
Q 1356 3278 1631 3431 
Q 1906 3584 2284 3584 
Q 2666 3584 2933 3390 
Q 3200 3197 3328 2828 
z
" transform="scale(0.015625)"/>
       <path id="DejaVuSans-79" d="M 2059 -325 
Q 1816 -950 1584 -1140 
Q 1353 -1331 966 -1331 
L 506 -1331 
L 506 -850 
L 844 -850 
Q 1081 -850 1212 -737 
Q 1344 -625 1503 -206 
L 1606 56 
L 191 3500 
L 800 3500 
L 1894 763 
L 2988 3500 
L 3597 3500 
L 2059 -325 
z
" transform="scale(0.015625)"/>
       <path id="DejaVuSans-41" d="M 2188 4044 
L 1331 1722 
L 3047 1722 
L 2188 4044 
z
M 1831 4666 
L 2547 4666 
L 4325 0 
L 3669 0 
L 3244 1197 
L 1141 1197 
L 716 0 
L 50 0 
L 1831 4666 
z
" transform="scale(0.015625)"/>
      </defs>
      <use xlink:href="#DejaVuSans-65"/>
      <use xlink:href="#DejaVuSans-6e" x="61.523438"/>
      <use xlink:href="#DejaVuSans-65" x="124.902344"/>
      <use xlink:href="#DejaVuSans-6d" x="186.425781"/>
      <use xlink:href="#DejaVuSans-79" x="283.837891"/>
      <use xlink:href="#DejaVuSans-41" x="343.017578"/>
     </g>
    </g>
    <g id="line2d_21">
     <path d="M 336.555938 263.648062 
L 346.555938 263.648062 
L 356.555938 263.648062 
" style="fill: none; stroke: #ff7f0e; stroke-width: 1.5; stroke-linecap: square"/>
    </g>
    <g id="text_18">
     <!-- enemyB -->
     <g transform="translate(364.555938 267.148062) scale(0.1 -0.1)">
      <defs>
       <path id="DejaVuSans-42" d="M 1259 2228 
L 1259 519 
L 2272 519 
Q 2781 519 3026 730 
Q 3272 941 3272 1375 
Q 3272 1813 3026 2020 
Q 2781 2228 2272 2228 
L 1259 2228 
z
M 1259 4147 
L 1259 2741 
L 2194 2741 
Q 2656 2741 2882 2914 
Q 3109 3088 3109 3444 
Q 3109 3797 2882 3972 
Q 2656 4147 2194 4147 
L 1259 4147 
z
M 628 4666 
L 2241 4666 
Q 2963 4666 3353 4366 
Q 3744 4066 3744 3513 
Q 3744 3084 3544 2831 
Q 3344 2578 2956 2516 
Q 3422 2416 3680 2098 
Q 3938 1781 3938 1306 
Q 3938 681 3513 340 
Q 3088 0 2303 0 
L 628 0 
L 628 4666 
z
" transform="scale(0.015625)"/>
      </defs>
      <use xlink:href="#DejaVuSans-65"/>
      <use xlink:href="#DejaVuSans-6e" x="61.523438"/>
      <use xlink:href="#DejaVuSans-65" x="124.902344"/>
      <use xlink:href="#DejaVuSans-6d" x="186.425781"/>
      <use xlink:href="#DejaVuSans-79" x="283.837891"/>
      <use xlink:href="#DejaVuSans-42" x="343.017578"/>
     </g>
    </g>
    <g id="line2d_22">
     <path d="M 336.555938 278.326187 
L 346.555938 278.326187 
L 356.555938 278.326187 
" style="fill: none; stroke-dasharray: 5.55,2.4; stroke-dashoffset: 0; stroke: #2ca02c; stroke-width: 1.5"/>
    </g>
    <g id="text_19">
     <!-- enemyA -->
     <g transform="translate(364.555938 281.826187) scale(0.1 -0.1)">
      <use xlink:href="#DejaVuSans-65"/>
      <use xlink:href="#DejaVuSans-6e" x="61.523438"/>
      <use xlink:href="#DejaVuSans-65" x="124.902344"/>
      <use xlink:href="#DejaVuSans-6d" x="186.425781"/>
      <use xlink:href="#DejaVuSans-79" x="283.837891"/>
      <use xlink:href="#DejaVuSans-41" x="343.017578"/>
     </g>
    </g>
    <g id="line2d_23">
     <path d="M 336.555938 293.004312 
L 346.555938 293.004312 
L 356.555938 293.004312 
" style="fill: none; stroke-dasharray: 5.55,2.4; stroke-dashoffset: 0; stroke: #d62728; stroke-width: 1.5"/>
    </g>
    <g id="text_20">
     <!-- enemyB -->
     <g transform="translate(364.555938 296.504312) scale(0.1 -0.1)">
      <use xlink:href="#DejaVuSans-65"/>
      <use xlink:href="#DejaVuSans-6e" x="61.523438"/>
      <use xlink:href="#DejaVuSans-65" x="124.902344"/>
      <use xlink:href="#DejaVuSans-6d" x="186.425781"/>
      <use xlink:href="#DejaVuSans-79" x="283.837891"/>
      <use xlink:href="#DejaVuSans-42" x="343.017578"/>
     </g>
    </g>
   </g>
  </g>
 </g>
 <defs>
  <clipPath id="p6e80afd12e">
   <rect x="57.6" y="41.472" width="357.12" height="266.112"/>
  </clipPath>
 </defs>
</svg>
