<?xml version="1.0" encoding="utf-8" standalone="no"?>
<!DOCTYPE svg PUBLIC "-//W3C//DTD SVG 1.1//EN"
  "http://www.w3.org/Graphics/SVG/1.1/DTD/svg11.dtd">
<svg xmlns:xlink="http://www.w3.org/1999/xlink" width="460.8pt" height="345.6pt" viewBox="0 0 460.8 345.6" xmlns="http://www.w3.org/2000/svg" version="1.1">
 <metadata>
  <rdf:RDF xmlns:dc="http://purl.org/dc/elements/1.1/" xmlns:cc="http://creativecommons.org/ns#" xmlns:rdf="http://www.w3.org/1999/02/22-rdf-syntax-ns#">
   <cc:Work>
    <dc:type rdf:resource="http://purl.org/dc/dcmitype/StillImage"/>
    <dc:date>2022-10-13T12:57:56.601153</dc:date>
    <dc:format>image/svg+xml</dc:format>
    <dc:creator>
     <cc:Agent>
      <dc:title>Matplotlib v3.6.0, https://matplotlib.org/</dc:title>
     </cc:Agent>
    </dc:creator>
   </cc:Work>
  </rdf:RDF>
 </metadata>
 <defs>
  <style type="text/css">*{stroke-linejoin: round; stroke-linecap: butt}</style>
 </defs>
 <g id="figure_1">
  <g id="patch_1">
   <path d="M 0 345.6 
L 460.8 345.6 
L 460.8 0 
L 0 0 
z
" style="fill: #ffffff"/>
  </g>
  <g id="axes_1">
   <g id="patch_2">
    <path d="M 57.6 307.584 
L 414.72 307.584 
L 414.72 41.472 
L 57.6 41.472 
z
" style="fill: #ffffff"/>
   </g>
   <g id="PolyCollection_1">
    <path d="M 73.832727 224.385093 
L 73.832727 295.488 
L 77.942278 278.257063 
L 82.05183 239.874814 
L 86.161381 231.871094 
L 90.270932 223.499377 
L 94.380483 218.658315 
L 98.490035 221.317943 
L 102.599586 218.895664 
L 106.709137 211.072124 
L 110.818688 215.625604 
L 114.928239 204.279577 
L 119.037791 202.837096 
L 123.147342 205.187607 
L 127.256893 200.394547 
L 131.366444 192.464356 
L 135.475995 189.245268 
L 139.585547 191.377038 
L 143.695098 195.355007 
L 147.804649 191.778122 
L 151.9142 188.651465 
L 156.023751 191.86475 
L 160.133303 196.050356 
L 164.242854 203.965482 
L 168.352405 200.406149 
L 172.461956 198.231874 
L 176.571507 206.642313 
L 180.681059 207.533384 
L 184.79061 206.160254 
L 188.900161 218.856829 
L 193.009712 217.09517 
L 197.119264 217.355488 
L 201.228815 216.237671 
L 205.338366 215.079299 
L 209.447917 210.268016 
L 213.557468 207.331831 
L 217.66702 207.292123 
L 221.776571 207.292123 
L 225.886122 211.473448 
L 229.995673 197.799133 
L 234.105224 202.198293 
L 238.214776 202.198293 
L 242.324327 212.212369 
L 246.433878 208.707238 
L 250.543429 213.386316 
L 254.65298 213.386316 
L 258.762532 213.386316 
L 262.872083 208.748989 
L 266.981634 212.805226 
L 271.091185 212.805226 
L 275.200736 202.964611 
L 279.310288 188.347628 
L 283.419839 188.347628 
L 287.52939 181.34652 
L 291.638941 171.833319 
L 295.748493 153.843787 
L 299.858044 148.664834 
L 303.967595 146.573892 
L 308.077146 136.819409 
L 312.186697 126.468554 
L 316.296249 127.835576 
L 320.4058 123.578353 
L 324.515351 122.522789 
L 328.624902 122.545498 
L 332.734453 122.545498 
L 336.844005 122.546969 
L 340.953556 118.94793 
L 345.063107 118.992843 
L 349.172658 121.265033 
L 353.282209 121.722068 
L 357.391761 121.270547 
L 361.501312 121.517334 
L 365.610863 121.303767 
L 369.720414 122.143731 
L 373.829965 120.050129 
L 377.939517 120.345076 
L 382.049068 119.635466 
L 386.158619 117.745472 
L 390.26817 117.740916 
L 394.377722 117.728633 
L 398.487273 117.728633 
L 398.487273 70.809588 
L 398.487273 70.809588 
L 394.377722 70.809588 
L 390.26817 70.810392 
L 386.158619 70.814696 
L 382.049068 70.60064 
L 377.939517 70.90543 
L 373.829965 69.810577 
L 369.720414 71.125083 
L 365.610863 72.343549 
L 361.501312 73.512914 
L 357.391761 72.745987 
L 353.282209 74.708737 
L 349.172658 75.149597 
L 345.063107 72.740739 
L 340.953556 73.034005 
L 336.844005 73.496092 
L 332.734453 73.517828 
L 328.624902 73.517828 
L 324.515351 73.87889 
L 320.4058 75.914751 
L 316.296249 74.701806 
L 312.186697 75.067127 
L 308.077146 71.993926 
L 303.967595 70.206947 
L 299.858044 71.095802 
L 295.748493 69.951675 
L 291.638941 71.152156 
L 287.52939 72.718921 
L 283.419839 75.780416 
L 279.310288 75.780416 
L 275.200736 75.111667 
L 271.091185 77.409028 
L 266.981634 77.409028 
L 262.872083 76.473243 
L 258.762532 78.880533 
L 254.65298 78.880533 
L 250.543429 78.880533 
L 246.433878 75.361023 
L 242.324327 76.516515 
L 238.214776 69.666819 
L 234.105224 69.666819 
L 229.995673 68.071358 
L 225.886122 68.428606 
L 221.776571 67.592774 
L 217.66702 67.592774 
L 213.557468 67.742091 
L 209.447917 69.886274 
L 205.338366 73.389238 
L 201.228815 74.241648 
L 197.119264 77.560266 
L 193.009712 75.461314 
L 188.900161 76.5354 
L 184.79061 74.033619 
L 180.681059 77.812815 
L 176.571507 79.802607 
L 172.461956 76.094775 
L 168.352405 76.0357 
L 164.242854 77.55125 
L 160.133303 73.300441 
L 156.023751 75.626451 
L 151.9142 72.534989 
L 147.804649 75.630496 
L 143.695098 80.74609 
L 139.585547 78.813932 
L 135.475995 78.197137 
L 131.366444 81.45915 
L 127.256893 84.642949 
L 123.147342 94.121491 
L 119.037791 101.402712 
L 114.928239 104.439998 
L 110.818688 110.008881 
L 106.709137 110.55182 
L 102.599586 120.560738 
L 98.490035 126.169216 
L 94.380483 126.154073 
L 90.270932 143.96767 
L 86.161381 154.681339 
L 82.05183 170.503622 
L 77.942278 199.945295 
L 73.832727 224.385093 
z
" clip-path="url(#pbb993bc85b)" style="fill: #1f77b4; fill-opacity: 0.3"/>
   </g>
   <g id="PolyCollection_2">
    <path d="M 73.832727 243.504799 
L 73.832727 287.984136 
L 77.942278 277.907561 
L 82.05183 240.916978 
L 86.161381 244.54985 
L 90.270932 240.857339 
L 94.380483 244.121023 
L 98.490035 238.295955 
L 102.599586 240.880856 
L 106.709137 246.716317 
L 110.818688 240.403964 
L 114.928239 243.407602 
L 119.037791 241.511832 
L 123.147342 232.611495 
L 127.256893 229.744991 
L 131.366444 227.781127 
L 135.475995 230.140578 
L 139.585547 224.253239 
L 143.695098 219.521443 
L 147.804649 219.637317 
L 151.9142 221.224038 
L 156.023751 218.411065 
L 160.133303 214.624124 
L 164.242854 206.003234 
L 168.352405 209.565297 
L 172.461956 208.640928 
L 176.571507 199.74465 
L 180.681059 195.235715 
L 184.79061 196.033362 
L 188.900161 187.432656 
L 193.009712 187.252882 
L 197.119264 182.395122 
L 201.228815 187.255366 
L 205.338366 190.767231 
L 209.447917 194.093558 
L 213.557468 197.867616 
L 217.66702 194.631311 
L 221.776571 194.631311 
L 225.886122 194.619653 
L 229.995673 197.040175 
L 234.105224 188.888217 
L 238.214776 188.888217 
L 242.324327 179.140338 
L 246.433878 179.927567 
L 250.543429 173.544176 
L 254.65298 173.544176 
L 258.762532 173.544176 
L 262.872083 173.553922 
L 266.981634 169.333641 
L 271.091185 169.333641 
L 275.200736 173.622453 
L 279.310288 173.61787 
L 283.419839 173.61787 
L 287.52939 174.032418 
L 291.638941 174.79464 
L 295.748493 177.780629 
L 299.858044 176.745221 
L 303.967595 176.761501 
L 308.077146 184.763062 
L 312.186697 180.792123 
L 316.296249 180.784837 
L 320.4058 180.814127 
L 324.515351 185.555908 
L 328.624902 186.980806 
L 332.734453 184.445284 
L 336.844005 184.443108 
L 340.953556 184.465741 
L 345.063107 184.507954 
L 349.172658 173.222467 
L 353.282209 173.148637 
L 357.391761 179.160029 
L 361.501312 173.938804 
L 365.610863 170.867634 
L 369.720414 175.481499 
L 373.829965 178.467526 
L 377.939517 174.641857 
L 382.049068 174.623243 
L 386.158619 169.290387 
L 390.26817 169.289357 
L 394.377722 169.269146 
L 398.487273 169.269146 
L 398.487273 54.499603 
L 398.487273 54.499603 
L 394.377722 54.499603 
L 390.26817 54.663067 
L 386.158619 54.668804 
L 382.049068 56.00183 
L 377.939517 56.220063 
L 373.829965 56.227259 
L 369.720414 53.568 
L 365.610863 53.718647 
L 361.501312 53.696906 
L 357.391761 55.904923 
L 353.282209 56.213649 
L 349.172658 56.847016 
L 345.063107 61.340917 
L 340.953556 61.34942 
L 336.844005 61.006131 
L 332.734453 61.099305 
L 328.624902 60.600843 
L 324.515351 60.94218 
L 320.4058 59.83585 
L 316.296249 59.575392 
L 312.186697 59.854667 
L 308.077146 59.256736 
L 303.967595 58.355466 
L 299.858044 58.234117 
L 295.748493 58.263635 
L 291.638941 56.028149 
L 287.52939 54.263441 
L 283.419839 55.495947 
L 279.310288 55.495947 
L 275.200736 55.571506 
L 271.091185 53.882985 
L 266.981634 53.882985 
L 262.872083 56.166016 
L 258.762532 56.102394 
L 254.65298 56.102394 
L 250.543429 56.102394 
L 246.433878 58.176697 
L 242.324327 55.816758 
L 238.214776 60.733279 
L 234.105224 60.733279 
L 229.995673 67.110438 
L 225.886122 64.342645 
L 221.776571 64.540518 
L 217.66702 64.540518 
L 213.557468 67.445591 
L 209.447917 62.858719 
L 205.338366 60.110325 
L 201.228815 57.553771 
L 197.119264 55.480704 
L 193.009712 57.780442 
L 188.900161 56.584272 
L 184.79061 63.749915 
L 180.681059 67.449647 
L 176.571507 73.239879 
L 172.461956 77.528132 
L 168.352405 79.92063 
L 164.242854 76.521122 
L 160.133303 87.44744 
L 156.023751 96.200031 
L 151.9142 98.399986 
L 147.804649 98.136623 
L 143.695098 99.342109 
L 139.585547 104.176472 
L 135.475995 110.288959 
L 131.366444 107.675886 
L 127.256893 117.923816 
L 123.147342 125.392649 
L 119.037791 137.679594 
L 114.928239 137.917092 
L 110.818688 148.924231 
L 106.709137 153.610245 
L 102.599586 165.111565 
L 98.490035 174.715791 
L 94.380483 175.219708 
L 90.270932 175.151377 
L 86.161381 179.348062 
L 82.05183 199.918168 
L 77.942278 220.685722 
L 73.832727 243.504799 
z
" clip-path="url(#pbb993bc85b)" style="fill: #ff7f0e; fill-opacity: 0.3"/>
   </g>
   <g id="matplotlib.axis_1">
    <g id="xtick_1">
     <g id="line2d_1">
      <defs>
       <path id="mbc4ec195a0" d="M 0 0 
L 0 3.5 
" style="stroke: #000000; stroke-width: 0.8"/>
      </defs>
      <g>
       <use xlink:href="#mbc4ec195a0" x="73.832727" y="307.584" style="stroke: #000000; stroke-width: 0.8"/>
      </g>
     </g>
     <g id="text_1">
      <!-- 0 -->
      <g transform="translate(70.651477 322.182437) scale(0.1 -0.1)">
       <defs>
        <path id="DejaVuSans-30" d="M 2034 4250 
Q 1547 4250 1301 3770 
Q 1056 3291 1056 2328 
Q 1056 1369 1301 889 
Q 1547 409 2034 409 
Q 2525 409 2770 889 
Q 3016 1369 3016 2328 
Q 3016 3291 2770 3770 
Q 2525 4250 2034 4250 
z
M 2034 4750 
Q 2819 4750 3233 4129 
Q 3647 3509 3647 2328 
Q 3647 1150 3233 529 
Q 2819 -91 2034 -91 
Q 1250 -91 836 529 
Q 422 1150 422 2328 
Q 422 3509 836 4129 
Q 1250 4750 2034 4750 
z
" transform="scale(0.015625)"/>
       </defs>
       <use xlink:href="#DejaVuSans-30"/>
      </g>
     </g>
    </g>
    <g id="xtick_2">
     <g id="line2d_2">
      <g>
       <use xlink:href="#mbc4ec195a0" x="114.928239" y="307.584" style="stroke: #000000; stroke-width: 0.8"/>
      </g>
     </g>
     <g id="text_2">
      <!-- 10 -->
      <g transform="translate(108.565739 322.182437) scale(0.1 -0.1)">
       <defs>
        <path id="DejaVuSans-31" d="M 794 531 
L 1825 531 
L 1825 4091 
L 703 3866 
L 703 4441 
L 1819 4666 
L 2450 4666 
L 2450 531 
L 3481 531 
L 3481 0 
L 794 0 
L 794 531 
z
" transform="scale(0.015625)"/>
       </defs>
       <use xlink:href="#DejaVuSans-31"/>
       <use xlink:href="#DejaVuSans-30" x="63.623047"/>
      </g>
     </g>
    </g>
    <g id="xtick_3">
     <g id="line2d_3">
      <g>
       <use xlink:href="#mbc4ec195a0" x="156.023751" y="307.584" style="stroke: #000000; stroke-width: 0.8"/>
      </g>
     </g>
     <g id="text_3">
      <!-- 20 -->
      <g transform="translate(149.661251 322.182437) scale(0.1 -0.1)">
       <defs>
        <path id="DejaVuSans-32" d="M 1228 531 
L 3431 531 
L 3431 0 
L 469 0 
L 469 531 
Q 828 903 1448 1529 
Q 2069 2156 2228 2338 
Q 2531 2678 2651 2914 
Q 2772 3150 2772 3378 
Q 2772 3750 2511 3984 
Q 2250 4219 1831 4219 
Q 1534 4219 1204 4116 
Q 875 4013 500 3803 
L 500 4441 
Q 881 4594 1212 4672 
Q 1544 4750 1819 4750 
Q 2544 4750 2975 4387 
Q 3406 4025 3406 3419 
Q 3406 3131 3298 2873 
Q 3191 2616 2906 2266 
Q 2828 2175 2409 1742 
Q 1991 1309 1228 531 
z
" transform="scale(0.015625)"/>
       </defs>
       <use xlink:href="#DejaVuSans-32"/>
       <use xlink:href="#DejaVuSans-30" x="63.623047"/>
      </g>
     </g>
    </g>
    <g id="xtick_4">
     <g id="line2d_4">
      <g>
       <use xlink:href="#mbc4ec195a0" x="197.119264" y="307.584" style="stroke: #000000; stroke-width: 0.8"/>
      </g>
     </g>
     <g id="text_4">
      <!-- 30 -->
      <g transform="translate(190.756764 322.182437) scale(0.1 -0.1)">
       <defs>
        <path id="DejaVuSans-33" d="M 2597 2516 
Q 3050 2419 3304 2112 
Q 3559 1806 3559 1356 
Q 3559 666 3084 287 
Q 2609 -91 1734 -91 
Q 1441 -91 1130 -33 
Q 819 25 488 141 
L 488 750 
Q 750 597 1062 519 
Q 1375 441 1716 441 
Q 2309 441 2620 675 
Q 2931 909 2931 1356 
Q 2931 1769 2642 2001 
Q 2353 2234 1838 2234 
L 1294 2234 
L 1294 2753 
L 1863 2753 
Q 2328 2753 2575 2939 
Q 2822 3125 2822 3475 
Q 2822 3834 2567 4026 
Q 2313 4219 1838 4219 
Q 1578 4219 1281 4162 
Q 984 4106 628 3988 
L 628 4550 
Q 988 4650 1302 4700 
Q 1616 4750 1894 4750 
Q 2613 4750 3031 4423 
Q 3450 4097 3450 3541 
Q 3450 3153 3228 2886 
Q 3006 2619 2597 2516 
z
" transform="scale(0.015625)"/>
       </defs>
       <use xlink:href="#DejaVuSans-33"/>
       <use xlink:href="#DejaVuSans-30" x="63.623047"/>
      </g>
     </g>
    </g>
    <g id="xtick_5">
     <g id="line2d_5">
      <g>
       <use xlink:href="#mbc4ec195a0" x="238.214776" y="307.584" style="stroke: #000000; stroke-width: 0.8"/>
      </g>
     </g>
     <g id="text_5">
      <!-- 40 -->
      <g transform="translate(231.852276 322.182437) scale(0.1 -0.1)">
       <defs>
        <path id="DejaVuSans-34" d="M 2419 4116 
L 825 1625 
L 2419 1625 
L 2419 4116 
z
M 2253 4666 
L 3047 4666 
L 3047 1625 
L 3713 1625 
L 3713 1100 
L 3047 1100 
L 3047 0 
L 2419 0 
L 2419 1100 
L 313 1100 
L 313 1709 
L 2253 4666 
z
" transform="scale(0.015625)"/>
       </defs>
       <use xlink:href="#DejaVuSans-34"/>
       <use xlink:href="#DejaVuSans-30" x="63.623047"/>
      </g>
     </g>
    </g>
    <g id="xtick_6">
     <g id="line2d_6">
      <g>
       <use xlink:href="#mbc4ec195a0" x="279.310288" y="307.584" style="stroke: #000000; stroke-width: 0.8"/>
      </g>
     </g>
     <g id="text_6">
      <!-- 50 -->
      <g transform="translate(272.947788 322.182437) scale(0.1 -0.1)">
       <defs>
        <path id="DejaVuSans-35" d="M 691 4666 
L 3169 4666 
L 3169 4134 
L 1269 4134 
L 1269 2991 
Q 1406 3038 1543 3061 
Q 1681 3084 1819 3084 
Q 2600 3084 3056 2656 
Q 3513 2228 3513 1497 
Q 3513 744 3044 326 
Q 2575 -91 1722 -91 
Q 1428 -91 1123 -41 
Q 819 9 494 109 
L 494 744 
Q 775 591 1075 516 
Q 1375 441 1709 441 
Q 2250 441 2565 725 
Q 2881 1009 2881 1497 
Q 2881 1984 2565 2268 
Q 2250 2553 1709 2553 
Q 1456 2553 1204 2497 
Q 953 2441 691 2322 
L 691 4666 
z
" transform="scale(0.015625)"/>
       </defs>
       <use xlink:href="#DejaVuSans-35"/>
       <use xlink:href="#DejaVuSans-30" x="63.623047"/>
      </g>
     </g>
    </g>
    <g id="xtick_7">
     <g id="line2d_7">
      <g>
       <use xlink:href="#mbc4ec195a0" x="320.4058" y="307.584" style="stroke: #000000; stroke-width: 0.8"/>
      </g>
     </g>
     <g id="text_7">
      <!-- 60 -->
      <g transform="translate(314.0433 322.182437) scale(0.1 -0.1)">
       <defs>
        <path id="DejaVuSans-36" d="M 2113 2584 
Q 1688 2584 1439 2293 
Q 1191 2003 1191 1497 
Q 1191 994 1439 701 
Q 1688 409 2113 409 
Q 2538 409 2786 701 
Q 3034 994 3034 1497 
Q 3034 2003 2786 2293 
Q 2538 2584 2113 2584 
z
M 3366 4563 
L 3366 3988 
Q 3128 4100 2886 4159 
Q 2644 4219 2406 4219 
Q 1781 4219 1451 3797 
Q 1122 3375 1075 2522 
Q 1259 2794 1537 2939 
Q 1816 3084 2150 3084 
Q 2853 3084 3261 2657 
Q 3669 2231 3669 1497 
Q 3669 778 3244 343 
Q 2819 -91 2113 -91 
Q 1303 -91 875 529 
Q 447 1150 447 2328 
Q 447 3434 972 4092 
Q 1497 4750 2381 4750 
Q 2619 4750 2861 4703 
Q 3103 4656 3366 4563 
z
" transform="scale(0.015625)"/>
       </defs>
       <use xlink:href="#DejaVuSans-36"/>
       <use xlink:href="#DejaVuSans-30" x="63.623047"/>
      </g>
     </g>
    </g>
    <g id="xtick_8">
     <g id="line2d_8">
      <g>
       <use xlink:href="#mbc4ec195a0" x="361.501312" y="307.584" style="stroke: #000000; stroke-width: 0.8"/>
      </g>
     </g>
     <g id="text_8">
      <!-- 70 -->
      <g transform="translate(355.138812 322.182437) scale(0.1 -0.1)">
       <defs>
        <path id="DejaVuSans-37" d="M 525 4666 
L 3525 4666 
L 3525 4397 
L 1831 0 
L 1172 0 
L 2766 4134 
L 525 4134 
L 525 4666 
z
" transform="scale(0.015625)"/>
       </defs>
       <use xlink:href="#DejaVuSans-37"/>
       <use xlink:href="#DejaVuSans-30" x="63.623047"/>
      </g>
     </g>
    </g>
    <g id="xtick_9">
     <g id="line2d_9">
      <g>
       <use xlink:href="#mbc4ec195a0" x="402.596824" y="307.584" style="stroke: #000000; stroke-width: 0.8"/>
      </g>
     </g>
     <g id="text_9">
      <!-- 80 -->
      <g transform="translate(396.234324 322.182437) scale(0.1 -0.1)">
       <defs>
        <path id="DejaVuSans-38" d="M 2034 2216 
Q 1584 2216 1326 1975 
Q 1069 1734 1069 1313 
Q 1069 891 1326 650 
Q 1584 409 2034 409 
Q 2484 409 2743 651 
Q 3003 894 3003 1313 
Q 3003 1734 2745 1975 
Q 2488 2216 2034 2216 
z
M 1403 2484 
Q 997 2584 770 2862 
Q 544 3141 544 3541 
Q 544 4100 942 4425 
Q 1341 4750 2034 4750 
Q 2731 4750 3128 4425 
Q 3525 4100 3525 3541 
Q 3525 3141 3298 2862 
Q 3072 2584 2669 2484 
Q 3125 2378 3379 2068 
Q 3634 1759 3634 1313 
Q 3634 634 3220 271 
Q 2806 -91 2034 -91 
Q 1263 -91 848 271 
Q 434 634 434 1313 
Q 434 1759 690 2068 
Q 947 2378 1403 2484 
z
M 1172 3481 
Q 1172 3119 1398 2916 
Q 1625 2713 2034 2713 
Q 2441 2713 2670 2916 
Q 2900 3119 2900 3481 
Q 2900 3844 2670 4047 
Q 2441 4250 2034 4250 
Q 1625 4250 1398 4047 
Q 1172 3844 1172 3481 
z
" transform="scale(0.015625)"/>
       </defs>
       <use xlink:href="#DejaVuSans-38"/>
       <use xlink:href="#DejaVuSans-30" x="63.623047"/>
      </g>
     </g>
    </g>
   </g>
   <g id="matplotlib.axis_2">
    <g id="ytick_1">
     <g id="line2d_10">
      <defs>
       <path id="md510bc8d42" d="M 0 0 
L -3.5 0 
" style="stroke: #000000; stroke-width: 0.8"/>
      </defs>
      <g>
       <use xlink:href="#md510bc8d42" x="57.6" y="263.713441" style="stroke: #000000; stroke-width: 0.8"/>
      </g>
     </g>
     <g id="text_10">
      <!-- 0 -->
      <g transform="translate(44.2375 267.512659) scale(0.1 -0.1)">
       <use xlink:href="#DejaVuSans-30"/>
      </g>
     </g>
    </g>
    <g id="ytick_2">
     <g id="line2d_11">
      <g>
       <use xlink:href="#md510bc8d42" x="57.6" y="218.59974" style="stroke: #000000; stroke-width: 0.8"/>
      </g>
     </g>
     <g id="text_11">
      <!-- 20 -->
      <g transform="translate(37.875 222.398959) scale(0.1 -0.1)">
       <use xlink:href="#DejaVuSans-32"/>
       <use xlink:href="#DejaVuSans-30" x="63.623047"/>
      </g>
     </g>
    </g>
    <g id="ytick_3">
     <g id="line2d_12">
      <g>
       <use xlink:href="#md510bc8d42" x="57.6" y="173.486039" style="stroke: #000000; stroke-width: 0.8"/>
      </g>
     </g>
     <g id="text_12">
      <!-- 40 -->
      <g transform="translate(37.875 177.285258) scale(0.1 -0.1)">
       <use xlink:href="#DejaVuSans-34"/>
       <use xlink:href="#DejaVuSans-30" x="63.623047"/>
      </g>
     </g>
    </g>
    <g id="ytick_4">
     <g id="line2d_13">
      <g>
       <use xlink:href="#md510bc8d42" x="57.6" y="128.372339" style="stroke: #000000; stroke-width: 0.8"/>
      </g>
     </g>
     <g id="text_13">
      <!-- 60 -->
      <g transform="translate(37.875 132.171558) scale(0.1 -0.1)">
       <use xlink:href="#DejaVuSans-36"/>
       <use xlink:href="#DejaVuSans-30" x="63.623047"/>
      </g>
     </g>
    </g>
    <g id="ytick_5">
     <g id="line2d_14">
      <g>
       <use xlink:href="#md510bc8d42" x="57.6" y="83.258638" style="stroke: #000000; stroke-width: 0.8"/>
      </g>
     </g>
     <g id="text_14">
      <!-- 80 -->
      <g transform="translate(37.875 87.057857) scale(0.1 -0.1)">
       <use xlink:href="#DejaVuSans-38"/>
       <use xlink:href="#DejaVuSans-30" x="63.623047"/>
      </g>
     </g>
    </g>
   </g>
   <g id="line2d_15">
    <path d="M 73.832727 259.936546 
L 77.942278 239.101179 
L 82.05183 205.189218 
L 86.161381 193.276217 
L 90.270932 183.733523 
L 94.380483 172.406194 
L 98.490035 173.743579 
L 102.599586 169.728201 
L 106.709137 160.811972 
L 110.818688 162.817243 
L 114.928239 154.359787 
L 119.037791 152.119904 
L 123.147342 149.654549 
L 127.256893 142.518748 
L 131.366444 136.961753 
L 135.475995 133.721202 
L 139.585547 135.095485 
L 143.695098 138.050549 
L 147.804649 133.704309 
L 151.9142 130.593227 
L 156.023751 133.745601 
L 160.133303 134.675398 
L 164.242854 140.758366 
L 168.352405 138.220924 
L 172.461956 137.163324 
L 176.571507 143.22246 
L 180.681059 142.6731 
L 184.79061 140.096936 
L 188.900161 147.696115 
L 193.009712 146.278242 
L 197.119264 147.457877 
L 201.228815 145.239659 
L 205.338366 144.234269 
L 209.447917 140.077145 
L 213.557468 137.536961 
L 217.66702 137.442448 
L 221.776571 137.442448 
L 225.886122 139.951027 
L 229.995673 132.935245 
L 234.105224 135.932556 
L 238.214776 135.932556 
L 242.324327 144.364442 
L 246.433878 142.034131 
L 250.543429 146.133425 
L 254.65298 146.133425 
L 258.762532 146.133425 
L 262.872083 142.611116 
L 266.981634 145.107127 
L 271.091185 145.107127 
L 275.200736 139.038139 
L 279.310288 132.064022 
L 283.419839 132.064022 
L 287.52939 127.03272 
L 291.638941 121.492738 
L 295.748493 111.897731 
L 299.858044 109.880318 
L 303.967595 108.390419 
L 308.077146 104.406667 
L 312.186697 100.76784 
L 316.296249 101.268691 
L 320.4058 99.746552 
L 324.515351 98.200839 
L 328.624902 98.031663 
L 332.734453 98.031663 
L 336.844005 98.021531 
L 340.953556 95.990967 
L 345.063107 95.866791 
L 349.172658 98.207315 
L 353.282209 98.215403 
L 357.391761 97.008267 
L 361.501312 97.515124 
L 365.610863 96.823658 
L 369.720414 96.634407 
L 373.829965 94.930353 
L 377.939517 95.625253 
L 382.049068 95.118053 
L 386.158619 94.280084 
L 390.26817 94.275654 
L 394.377722 94.26911 
L 398.487273 94.26911 
" clip-path="url(#pbb993bc85b)" style="fill: none; stroke: #1f77b4; stroke-width: 1.5; stroke-linecap: square"/>
   </g>
   <g id="line2d_16">
    <path d="M 73.832727 265.744468 
L 77.942278 249.296641 
L 82.05183 220.417573 
L 86.161381 211.948956 
L 90.270932 208.004358 
L 94.380483 209.670366 
L 98.490035 206.505873 
L 102.599586 202.99621 
L 106.709137 200.163281 
L 110.818688 194.664098 
L 114.928239 190.662347 
L 119.037791 189.595713 
L 123.147342 179.002072 
L 127.256893 173.834403 
L 131.366444 167.728506 
L 135.475995 170.214768 
L 139.585547 164.214856 
L 143.695098 159.431776 
L 147.804649 158.88697 
L 151.9142 159.812012 
L 156.023751 157.305548 
L 160.133303 151.035782 
L 164.242854 141.262178 
L 168.352405 144.742964 
L 172.461956 143.08453 
L 176.571507 136.492264 
L 180.681059 131.342681 
L 184.79061 129.891639 
L 188.900161 122.008464 
L 193.009712 122.516662 
L 197.119264 118.937913 
L 201.228815 122.404568 
L 205.338366 125.438778 
L 209.447917 128.476138 
L 213.557468 132.656603 
L 217.66702 129.585915 
L 221.776571 129.585915 
L 225.886122 129.481149 
L 229.995673 132.075307 
L 234.105224 124.810748 
L 238.214776 124.810748 
L 242.324327 117.478548 
L 246.433878 119.052132 
L 250.543429 114.823285 
L 254.65298 114.823285 
L 258.762532 114.823285 
L 262.872083 114.859969 
L 266.981634 111.608313 
L 271.091185 111.608313 
L 275.200736 114.59698 
L 279.310288 114.556909 
L 283.419839 114.556909 
L 287.52939 114.147929 
L 291.638941 115.411394 
L 295.748493 118.022132 
L 299.858044 117.489669 
L 303.967595 117.558484 
L 308.077146 122.009899 
L 312.186697 120.323395 
L 316.296249 120.180115 
L 320.4058 120.324988 
L 324.515351 123.249044 
L 328.624902 123.790824 
L 332.734453 122.772295 
L 336.844005 122.72462 
L 340.953556 122.90758 
L 345.063107 122.924435 
L 349.172658 115.034741 
L 353.282209 114.681143 
L 357.391761 117.532476 
L 361.501312 113.817855 
L 365.610863 112.29314 
L 369.720414 114.52475 
L 373.829965 117.347392 
L 377.939517 115.43096 
L 382.049068 115.312536 
L 386.158619 111.979595 
L 390.26817 111.976212 
L 394.377722 111.884374 
L 398.487273 111.884374 
" clip-path="url(#pbb993bc85b)" style="fill: none; stroke: #ff7f0e; stroke-width: 1.5; stroke-linecap: square"/>
   </g>
   <g id="line2d_17">
    <path d="M 73.832727 135.650389 
L 77.942278 135.650389 
L 82.05183 67.037082 
L 86.161381 67.037082 
L 90.270932 67.037082 
L 94.380483 67.037082 
L 98.490035 67.037082 
L 102.599586 67.037082 
L 106.709137 67.037082 
L 110.818688 67.037082 
L 114.928239 67.037082 
L 119.037791 67.037082 
L 123.147342 67.037082 
L 127.256893 67.037082 
L 131.366444 67.037082 
L 135.475995 67.037082 
L 139.585547 67.037082 
L 143.695098 67.037082 
L 147.804649 67.037082 
L 151.9142 67.037082 
L 156.023751 67.037082 
L 160.133303 67.037082 
L 164.242854 67.037082 
L 168.352405 67.037082 
L 172.461956 67.037082 
L 176.571507 66.986597 
L 180.681059 66.986597 
L 184.79061 66.986597 
L 188.900161 66.986597 
L 193.009712 66.986597 
L 197.119264 66.986597 
L 201.228815 66.986597 
L 205.338366 66.986597 
L 209.447917 66.986597 
L 213.557468 66.986597 
L 217.66702 66.986597 
L 221.776571 66.986597 
L 225.886122 66.986597 
L 229.995673 66.986597 
L 234.105224 66.986597 
L 238.214776 66.986597 
L 242.324327 66.986597 
L 246.433878 66.986597 
L 250.543429 66.986597 
L 254.65298 66.986597 
L 258.762532 66.986597 
L 262.872083 66.986597 
L 266.981634 66.986597 
L 271.091185 66.986597 
L 275.200736 66.986597 
L 279.310288 66.986597 
L 283.419839 66.986597 
L 287.52939 66.986597 
L 291.638941 66.986597 
L 295.748493 66.986597 
L 299.858044 66.986597 
L 303.967595 66.986597 
L 308.077146 66.986597 
L 312.186697 66.986597 
L 316.296249 66.986597 
L 320.4058 66.986597 
L 324.515351 66.986597 
L 328.624902 66.986597 
L 332.734453 66.986597 
L 336.844005 66.986597 
L 340.953556 66.986597 
L 345.063107 62.070032 
L 349.172658 62.070032 
L 353.282209 62.070032 
L 357.391761 62.070032 
L 361.501312 62.070032 
L 365.610863 62.070032 
L 369.720414 62.070032 
L 373.829965 62.070032 
L 377.939517 62.070032 
L 382.049068 62.070032 
L 386.158619 62.070032 
L 390.26817 62.070032 
L 394.377722 62.070032 
L 398.487273 62.070032 
" clip-path="url(#pbb993bc85b)" style="fill: none; stroke-dasharray: 5.55,2.4; stroke-dashoffset: 0; stroke: #2ca02c; stroke-width: 1.5"/>
   </g>
   <g id="line2d_18">
    <path d="M 73.832727 195.804696 
L 77.942278 194.78516 
L 82.05183 178.006374 
L 86.161381 115.590002 
L 90.270932 115.590002 
L 94.380483 115.590002 
L 98.490035 115.590002 
L 102.599586 74.183943 
L 106.709137 73.170524 
L 110.818688 73.170524 
L 114.928239 73.170524 
L 119.037791 73.170524 
L 123.147342 73.170524 
L 127.256893 66.194437 
L 131.366444 66.194437 
L 135.475995 66.194437 
L 139.585547 66.194437 
L 143.695098 65.517731 
L 147.804649 65.517731 
L 151.9142 65.517731 
L 156.023751 65.517731 
L 160.133303 65.517731 
L 164.242854 65.517731 
L 168.352405 65.517731 
L 172.461956 65.517731 
L 176.571507 65.517731 
L 180.681059 65.517731 
L 184.79061 65.517731 
L 188.900161 65.517731 
L 193.009712 65.517731 
L 197.119264 65.517731 
L 201.228815 65.517731 
L 205.338366 65.517731 
L 209.447917 65.517731 
L 213.557468 65.517731 
L 217.66702 65.517731 
L 221.776571 65.517731 
L 225.886122 65.517731 
L 229.995673 65.517731 
L 234.105224 65.517731 
L 238.214776 65.517731 
L 242.324327 65.38239 
L 246.433878 65.247049 
L 250.543429 65.247049 
L 254.65298 65.247049 
L 258.762532 65.247049 
L 262.872083 65.247049 
L 266.981634 65.247049 
L 271.091185 65.247049 
L 275.200736 63.422341 
L 279.310288 63.422341 
L 283.419839 63.422341 
L 287.52939 63.422341 
L 291.638941 63.422341 
L 295.748493 63.422341 
L 299.858044 63.016318 
L 303.967595 63.016318 
L 308.077146 62.6446 
L 312.186697 61.561872 
L 316.296249 59.927471 
L 320.4058 59.927471 
L 324.515351 59.927471 
L 328.624902 59.927471 
L 332.734453 59.927471 
L 336.844005 59.927471 
L 340.953556 59.927471 
L 345.063107 59.927471 
L 349.172658 59.927471 
L 353.282209 59.927471 
L 357.391761 59.927471 
L 361.501312 59.927471 
L 365.610863 59.927471 
L 369.720414 59.927471 
L 373.829965 59.927471 
L 377.939517 59.927471 
L 382.049068 59.927471 
L 386.158619 59.927471 
L 390.26817 59.927471 
L 394.377722 59.927471 
L 398.487273 59.927471 
" clip-path="url(#pbb993bc85b)" style="fill: none; stroke-dasharray: 5.55,2.4; stroke-dashoffset: 0; stroke: #d62728; stroke-width: 1.5"/>
   </g>
   <g id="patch_3">
    <path d="M 57.6 307.584 
L 57.6 41.472 
" style="fill: none; stroke: #000000; stroke-width: 0.8; stroke-linejoin: miter; stroke-linecap: square"/>
   </g>
   <g id="patch_4">
    <path d="M 414.72 307.584 
L 414.72 41.472 
" style="fill: none; stroke: #000000; stroke-width: 0.8; stroke-linejoin: miter; stroke-linecap: square"/>
   </g>
   <g id="patch_5">
    <path d="M 57.6 307.584 
L 414.72 307.584 
" style="fill: none; stroke: #000000; stroke-width: 0.8; stroke-linejoin: miter; stroke-linecap: square"/>
   </g>
   <g id="patch_6">
    <path d="M 57.6 41.472 
L 414.72 41.472 
" style="fill: none; stroke: #000000; stroke-width: 0.8; stroke-linejoin: miter; stroke-linecap: square"/>
   </g>
   <g id="text_15">
    <!-- fitness on 1_pymoo -->
    <g transform="translate(177.630938 35.472) scale(0.12 -0.12)">
     <defs>
      <path id="DejaVuSans-66" d="M 2375 4863 
L 2375 4384 
L 1825 4384 
Q 1516 4384 1395 4259 
Q 1275 4134 1275 3809 
L 1275 3500 
L 2222 3500 
L 2222 3053 
L 1275 3053 
L 1275 0 
L 697 0 
L 697 3053 
L 147 3053 
L 147 3500 
L 697 3500 
L 697 3744 
Q 697 4328 969 4595 
Q 1241 4863 1831 4863 
L 2375 4863 
z
" transform="scale(0.015625)"/>
      <path id="DejaVuSans-69" d="M 603 3500 
L 1178 3500 
L 1178 0 
L 603 0 
L 603 3500 
z
M 603 4863 
L 1178 4863 
L 1178 4134 
L 603 4134 
L 603 4863 
z
" transform="scale(0.015625)"/>
      <path id="DejaVuSans-74" d="M 1172 4494 
L 1172 3500 
L 2356 3500 
L 2356 3053 
L 1172 3053 
L 1172 1153 
Q 1172 725 1289 603 
Q 1406 481 1766 481 
L 2356 481 
L 2356 0 
L 1766 0 
Q 1100 0 847 248 
Q 594 497 594 1153 
L 594 3053 
L 172 3053 
L 172 3500 
L 594 3500 
L 594 4494 
L 1172 4494 
z
" transform="scale(0.015625)"/>
      <path id="DejaVuSans-6e" d="M 3513 2113 
L 3513 0 
L 2938 0 
L 2938 2094 
Q 2938 2591 2744 2837 
Q 2550 3084 2163 3084 
Q 1697 3084 1428 2787 
Q 1159 2491 1159 1978 
L 1159 0 
L 581 0 
L 581 3500 
L 1159 3500 
L 1159 2956 
Q 1366 3272 1645 3428 
Q 1925 3584 2291 3584 
Q 2894 3584 3203 3211 
Q 3513 2838 3513 2113 
z
" transform="scale(0.015625)"/>
      <path id="DejaVuSans-65" d="M 3597 1894 
L 3597 1613 
L 953 1613 
Q 991 1019 1311 708 
Q 1631 397 2203 397 
Q 2534 397 2845 478 
Q 3156 559 3463 722 
L 3463 178 
Q 3153 47 2828 -22 
Q 2503 -91 2169 -91 
Q 1331 -91 842 396 
Q 353 884 353 1716 
Q 353 2575 817 3079 
Q 1281 3584 2069 3584 
Q 2775 3584 3186 3129 
Q 3597 2675 3597 1894 
z
M 3022 2063 
Q 3016 2534 2758 2815 
Q 2500 3097 2075 3097 
Q 1594 3097 1305 2825 
Q 1016 2553 972 2059 
L 3022 2063 
z
" transform="scale(0.015625)"/>
      <path id="DejaVuSans-73" d="M 2834 3397 
L 2834 2853 
Q 2591 2978 2328 3040 
Q 2066 3103 1784 3103 
Q 1356 3103 1142 2972 
Q 928 2841 928 2578 
Q 928 2378 1081 2264 
Q 1234 2150 1697 2047 
L 1894 2003 
Q 2506 1872 2764 1633 
Q 3022 1394 3022 966 
Q 3022 478 2636 193 
Q 2250 -91 1575 -91 
Q 1294 -91 989 -36 
Q 684 19 347 128 
L 347 722 
Q 666 556 975 473 
Q 1284 391 1588 391 
Q 1994 391 2212 530 
Q 2431 669 2431 922 
Q 2431 1156 2273 1281 
Q 2116 1406 1581 1522 
L 1381 1569 
Q 847 1681 609 1914 
Q 372 2147 372 2553 
Q 372 3047 722 3315 
Q 1072 3584 1716 3584 
Q 2034 3584 2315 3537 
Q 2597 3491 2834 3397 
z
" transform="scale(0.015625)"/>
      <path id="DejaVuSans-20" transform="scale(0.015625)"/>
      <path id="DejaVuSans-6f" d="M 1959 3097 
Q 1497 3097 1228 2736 
Q 959 2375 959 1747 
Q 959 1119 1226 758 
Q 1494 397 1959 397 
Q 2419 397 2687 759 
Q 2956 1122 2956 1747 
Q 2956 2369 2687 2733 
Q 2419 3097 1959 3097 
z
M 1959 3584 
Q 2709 3584 3137 3096 
Q 3566 2609 3566 1747 
Q 3566 888 3137 398 
Q 2709 -91 1959 -91 
Q 1206 -91 779 398 
Q 353 888 353 1747 
Q 353 2609 779 3096 
Q 1206 3584 1959 3584 
z
" transform="scale(0.015625)"/>
      <path id="DejaVuSans-5f" d="M 3263 -1063 
L 3263 -1509 
L -63 -1509 
L -63 -1063 
L 3263 -1063 
z
" transform="scale(0.015625)"/>
      <path id="DejaVuSans-70" d="M 1159 525 
L 1159 -1331 
L 581 -1331 
L 581 3500 
L 1159 3500 
L 1159 2969 
Q 1341 3281 1617 3432 
Q 1894 3584 2278 3584 
Q 2916 3584 3314 3078 
Q 3713 2572 3713 1747 
Q 3713 922 3314 415 
Q 2916 -91 2278 -91 
Q 1894 -91 1617 61 
Q 1341 213 1159 525 
z
M 3116 1747 
Q 3116 2381 2855 2742 
Q 2594 3103 2138 3103 
Q 1681 3103 1420 2742 
Q 1159 2381 1159 1747 
Q 1159 1113 1420 752 
Q 1681 391 2138 391 
Q 2594 391 2855 752 
Q 3116 1113 3116 1747 
z
" transform="scale(0.015625)"/>
      <path id="DejaVuSans-79" d="M 2059 -325 
Q 1816 -950 1584 -1140 
Q 1353 -1331 966 -1331 
L 506 -1331 
L 506 -850 
L 844 -850 
Q 1081 -850 1212 -737 
Q 1344 -625 1503 -206 
L 1606 56 
L 191 3500 
L 800 3500 
L 1894 763 
L 2988 3500 
L 3597 3500 
L 2059 -325 
z
" transform="scale(0.015625)"/>
      <path id="DejaVuSans-6d" d="M 3328 2828 
Q 3544 3216 3844 3400 
Q 4144 3584 4550 3584 
Q 5097 3584 5394 3201 
Q 5691 2819 5691 2113 
L 5691 0 
L 5113 0 
L 5113 2094 
Q 5113 2597 4934 2840 
Q 4756 3084 4391 3084 
Q 3944 3084 3684 2787 
Q 3425 2491 3425 1978 
L 3425 0 
L 2847 0 
L 2847 2094 
Q 2847 2600 2669 2842 
Q 2491 3084 2119 3084 
Q 1678 3084 1418 2786 
Q 1159 2488 1159 1978 
L 1159 0 
L 581 0 
L 581 3500 
L 1159 3500 
L 1159 2956 
Q 1356 3278 1631 3431 
Q 1906 3584 2284 3584 
Q 2666 3584 2933 3390 
Q 3200 3197 3328 2828 
z
" transform="scale(0.015625)"/>
     </defs>
     <use xlink:href="#DejaVuSans-66"/>
     <use xlink:href="#DejaVuSans-69" x="35.205078"/>
     <use xlink:href="#DejaVuSans-74" x="62.988281"/>
     <use xlink:href="#DejaVuSans-6e" x="102.197266"/>
     <use xlink:href="#DejaVuSans-65" x="165.576172"/>
     <use xlink:href="#DejaVuSans-73" x="227.099609"/>
     <use xlink:href="#DejaVuSans-73" x="279.199219"/>
     <use xlink:href="#DejaVuSans-20" x="331.298828"/>
     <use xlink:href="#DejaVuSans-6f" x="363.085938"/>
     <use xlink:href="#DejaVuSans-6e" x="424.267578"/>
     <use xlink:href="#DejaVuSans-20" x="487.646484"/>
     <use xlink:href="#DejaVuSans-31" x="519.433594"/>
     <use xlink:href="#DejaVuSans-5f" x="583.056641"/>
     <use xlink:href="#DejaVuSans-70" x="633.056641"/>
     <use xlink:href="#DejaVuSans-79" x="696.533203"/>
     <use xlink:href="#DejaVuSans-6d" x="755.712891"/>
     <use xlink:href="#DejaVuSans-6f" x="853.125"/>
     <use xlink:href="#DejaVuSans-6f" x="914.306641"/>
    </g>
   </g>
   <g id="legend_1">
    <g id="patch_7">
     <path d="M 334.555938 302.584 
L 407.72 302.584 
Q 409.72 302.584 409.72 300.584 
L 409.72 242.8715 
Q 409.72 240.8715 407.72 240.8715 
L 334.555938 240.8715 
Q 332.555938 240.8715 332.555938 242.8715 
L 332.555938 300.584 
Q 332.555938 302.584 334.555938 302.584 
z
" style="fill: #ffffff; opacity: 0.8; stroke: #cccccc; stroke-linejoin: miter"/>
    </g>
    <g id="line2d_19">
     <path d="M 336.555938 248.969937 
L 346.555938 248.969937 
L 356.555938 248.969937 
" style="fill: none; stroke: #1f77b4; stroke-width: 1.5; stroke-linecap: square"/>
    </g>
    <g id="text_16">
     <!-- enemyA -->
     <g transform="translate(364.555938 252.469937) scale(0.1 -0.1)">
      <defs>
       <path id="DejaVuSans-41" d="M 2188 4044 
L 1331 1722 
L 3047 1722 
L 2188 4044 
z
M 1831 4666 
L 2547 4666 
L 4325 0 
L 3669 0 
L 3244 1197 
L 1141 1197 
L 716 0 
L 50 0 
L 1831 4666 
z
" transform="scale(0.015625)"/>
      </defs>
      <use xlink:href="#DejaVuSans-65"/>
      <use xlink:href="#DejaVuSans-6e" x="61.523438"/>
      <use xlink:href="#DejaVuSans-65" x="124.902344"/>
      <use xlink:href="#DejaVuSans-6d" x="186.425781"/>
      <use xlink:href="#DejaVuSans-79" x="283.837891"/>
      <use xlink:href="#DejaVuSans-41" x="343.017578"/>
     </g>
    </g>
    <g id="line2d_20">
     <path d="M 336.555938 263.648062 
L 346.555938 263.648062 
L 356.555938 263.648062 
" style="fill: none; stroke: #ff7f0e; stroke-width: 1.5; stroke-linecap: square"/>
    </g>
    <g id="text_17">
     <!-- enemyB -->
     <g transform="translate(364.555938 267.148062) scale(0.1 -0.1)">
      <defs>
       <path id="DejaVuSans-42" d="M 1259 2228 
L 1259 519 
L 2272 519 
Q 2781 519 3026 730 
Q 3272 941 3272 1375 
Q 3272 1813 3026 2020 
Q 2781 2228 2272 2228 
L 1259 2228 
z
M 1259 4147 
L 1259 2741 
L 2194 2741 
Q 2656 2741 2882 2914 
Q 3109 3088 3109 3444 
Q 3109 3797 2882 3972 
Q 2656 4147 2194 4147 
L 1259 4147 
z
M 628 4666 
L 2241 4666 
Q 2963 4666 3353 4366 
Q 3744 4066 3744 3513 
Q 3744 3084 3544 2831 
Q 3344 2578 2956 2516 
Q 3422 2416 3680 2098 
Q 3938 1781 3938 1306 
Q 3938 681 3513 340 
Q 3088 0 2303 0 
L 628 0 
L 628 4666 
z
" transform="scale(0.015625)"/>
      </defs>
      <use xlink:href="#DejaVuSans-65"/>
      <use xlink:href="#DejaVuSans-6e" x="61.523438"/>
      <use xlink:href="#DejaVuSans-65" x="124.902344"/>
      <use xlink:href="#DejaVuSans-6d" x="186.425781"/>
      <use xlink:href="#DejaVuSans-79" x="283.837891"/>
      <use xlink:href="#DejaVuSans-42" x="343.017578"/>
     </g>
    </g>
    <g id="line2d_21">
     <path d="M 336.555938 278.326187 
L 346.555938 278.326187 
L 356.555938 278.326187 
" style="fill: none; stroke-dasharray: 5.55,2.4; stroke-dashoffset: 0; stroke: #2ca02c; stroke-width: 1.5"/>
    </g>
    <g id="text_18">
     <!-- enemyA -->
     <g transform="translate(364.555938 281.826187) scale(0.1 -0.1)">
      <use xlink:href="#DejaVuSans-65"/>
      <use xlink:href="#DejaVuSans-6e" x="61.523438"/>
      <use xlink:href="#DejaVuSans-65" x="124.902344"/>
      <use xlink:href="#DejaVuSans-6d" x="186.425781"/>
      <use xlink:href="#DejaVuSans-79" x="283.837891"/>
      <use xlink:href="#DejaVuSans-41" x="343.017578"/>
     </g>
    </g>
    <g id="line2d_22">
     <path d="M 336.555938 293.004312 
L 346.555938 293.004312 
L 356.555938 293.004312 
" style="fill: none; stroke-dasharray: 5.55,2.4; stroke-dashoffset: 0; stroke: #d62728; stroke-width: 1.5"/>
    </g>
    <g id="text_19">
     <!-- enemyB -->
     <g transform="translate(364.555938 296.504312) scale(0.1 -0.1)">
      <use xlink:href="#DejaVuSans-65"/>
      <use xlink:href="#DejaVuSans-6e" x="61.523438"/>
      <use xlink:href="#DejaVuSans-65" x="124.902344"/>
      <use xlink:href="#DejaVuSans-6d" x="186.425781"/>
      <use xlink:href="#DejaVuSans-79" x="283.837891"/>
      <use xlink:href="#DejaVuSans-42" x="343.017578"/>
     </g>
    </g>
   </g>
  </g>
 </g>
 <defs>
  <clipPath id="pbb993bc85b">
   <rect x="57.6" y="41.472" width="357.12" height="266.112"/>
  </clipPath>
 </defs>
</svg>
