<?xml version="1.0" encoding="utf-8" standalone="no"?>
<!DOCTYPE svg PUBLIC "-//W3C//DTD SVG 1.1//EN"
  "http://www.w3.org/Graphics/SVG/1.1/DTD/svg11.dtd">
<svg xmlns:xlink="http://www.w3.org/1999/xlink" width="460.8pt" height="345.6pt" viewBox="0 0 460.8 345.6" xmlns="http://www.w3.org/2000/svg" version="1.1">
 <metadata>
  <rdf:RDF xmlns:dc="http://purl.org/dc/elements/1.1/" xmlns:cc="http://creativecommons.org/ns#" xmlns:rdf="http://www.w3.org/1999/02/22-rdf-syntax-ns#">
   <cc:Work>
    <dc:type rdf:resource="http://purl.org/dc/dcmitype/StillImage"/>
    <dc:date>2022-10-13T12:58:18.939986</dc:date>
    <dc:format>image/svg+xml</dc:format>
    <dc:creator>
     <cc:Agent>
      <dc:title>Matplotlib v3.6.0, https://matplotlib.org/</dc:title>
     </cc:Agent>
    </dc:creator>
   </cc:Work>
  </rdf:RDF>
 </metadata>
 <defs>
  <style type="text/css">*{stroke-linejoin: round; stroke-linecap: butt}</style>
 </defs>
 <g id="figure_1">
  <g id="patch_1">
   <path d="M 0 345.6 
L 460.8 345.6 
L 460.8 0 
L 0 0 
z
" style="fill: #ffffff"/>
  </g>
  <g id="axes_1">
   <g id="patch_2">
    <path d="M 57.6 307.584 
L 414.72 307.584 
L 414.72 41.472 
L 57.6 41.472 
z
" style="fill: #ffffff"/>
   </g>
   <g id="PolyCollection_1">
    <path d="M 73.832727 252.014664 
L 73.832727 295.488 
L 77.942278 282.584041 
L 82.05183 260.726847 
L 86.161381 245.213989 
L 90.270932 230.105162 
L 94.380483 227.341559 
L 98.490035 225.008472 
L 102.599586 220.516259 
L 106.709137 205.655796 
L 110.818688 186.210763 
L 114.928239 183.305157 
L 119.037791 157.24749 
L 123.147342 156.407323 
L 127.256893 157.566834 
L 131.366444 147.366203 
L 135.475995 132.209248 
L 139.585547 129.459195 
L 143.695098 130.506689 
L 147.804649 136.378709 
L 151.9142 135.98739 
L 156.023751 143.423714 
L 160.133303 138.725999 
L 164.242854 138.020577 
L 168.352405 130.353877 
L 172.461956 132.874443 
L 176.571507 131.012063 
L 180.681059 130.689504 
L 184.79061 129.925436 
L 188.900161 130.520134 
L 193.009712 130.251832 
L 197.119264 131.817561 
L 201.228815 133.10723 
L 205.338366 129.212363 
L 209.447917 132.704497 
L 213.557468 134.411571 
L 217.66702 133.099109 
L 221.776571 132.408692 
L 225.886122 121.879342 
L 229.995673 122.442593 
L 234.105224 123.646218 
L 238.214776 122.865482 
L 242.324327 119.990809 
L 246.433878 119.990809 
L 250.543429 121.194259 
L 254.65298 119.957495 
L 258.762532 120.377905 
L 262.872083 119.990311 
L 266.981634 117.322605 
L 271.091185 117.770748 
L 275.200736 117.770748 
L 279.310288 117.757547 
L 283.419839 117.299159 
L 287.52939 117.71366 
L 291.638941 116.761737 
L 295.748493 116.769244 
L 299.858044 116.773308 
L 303.967595 118.073227 
L 308.077146 118.906747 
L 312.186697 116.212712 
L 316.296249 120.267012 
L 320.4058 119.778099 
L 324.515351 119.746157 
L 328.624902 119.743738 
L 332.734453 119.747435 
L 336.844005 127.639238 
L 340.953556 128.111391 
L 345.063107 128.111391 
L 349.172658 128.568227 
L 353.282209 128.568227 
L 357.391761 130.359897 
L 361.501312 130.710935 
L 365.610863 130.710935 
L 369.720414 123.128043 
L 373.829965 122.738745 
L 377.939517 122.738745 
L 382.049068 122.3191 
L 386.158619 122.3191 
L 390.26817 122.317093 
L 394.377722 122.317093 
L 398.487273 121.923292 
L 398.487273 70.629023 
L 398.487273 70.629023 
L 394.377722 71.243048 
L 390.26817 71.243048 
L 386.158619 71.264752 
L 382.049068 71.264752 
L 377.939517 72.096681 
L 373.829965 72.096681 
L 369.720414 72.819062 
L 365.610863 70.442759 
L 361.501312 70.442759 
L 357.391761 69.765226 
L 353.282209 69.50432 
L 349.172658 69.50432 
L 345.063107 67.961754 
L 340.953556 67.961754 
L 336.844005 66.767022 
L 332.734453 69.467834 
L 328.624902 69.563487 
L 324.515351 69.725917 
L 320.4058 69.875725 
L 316.296249 70.881404 
L 312.186697 71.218993 
L 308.077146 72.100865 
L 303.967595 72.310292 
L 299.858044 71.697181 
L 295.748493 71.744232 
L 291.638941 72.030242 
L 287.52939 73.021897 
L 283.419839 72.563137 
L 279.310288 73.447587 
L 275.200736 72.995911 
L 271.091185 72.995911 
L 266.981634 71.759168 
L 262.872083 72.856588 
L 258.762532 73.522526 
L 254.65298 72.367326 
L 250.543429 73.723384 
L 246.433878 72.923182 
L 242.324327 72.923182 
L 238.214776 73.80699 
L 234.105224 74.05126 
L 229.995673 74.2399 
L 225.886122 76.559594 
L 221.776571 72.265423 
L 217.66702 72.678201 
L 213.557468 73.132558 
L 209.447917 72.210245 
L 205.338366 79.533883 
L 201.228815 79.85824 
L 197.119264 78.762022 
L 193.009712 76.798331 
L 188.900161 77.57295 
L 184.79061 75.676494 
L 180.681059 74.553476 
L 176.571507 75.639375 
L 172.461956 78.269483 
L 168.352405 73.133787 
L 164.242854 69.561806 
L 160.133303 71.690287 
L 156.023751 74.246986 
L 151.9142 81.264949 
L 147.804649 80.470273 
L 143.695098 73.36707 
L 139.585547 72.192951 
L 135.475995 70.127395 
L 131.366444 72.892056 
L 127.256893 78.726324 
L 123.147342 78.348213 
L 119.037791 78.942411 
L 114.928239 81.633635 
L 110.818688 83.602429 
L 106.709137 92.469749 
L 102.599586 108.862849 
L 98.490035 115.576 
L 94.380483 123.256755 
L 90.270932 126.605533 
L 86.161381 140.251002 
L 82.05183 175.328858 
L 77.942278 206.008673 
L 73.832727 252.014664 
z
" clip-path="url(#p21a43e6070)" style="fill: #1f77b4; fill-opacity: 0.3"/>
   </g>
   <g id="PolyCollection_2">
    <path d="M 73.832727 253.292785 
L 73.832727 294.64298 
L 77.942278 274.484614 
L 82.05183 251.400288 
L 86.161381 266.294934 
L 90.270932 267.787446 
L 94.380483 262.213116 
L 98.490035 250.434431 
L 102.599586 249.500066 
L 106.709137 242.203979 
L 110.818688 239.103829 
L 114.928239 226.40264 
L 119.037791 222.915858 
L 123.147342 220.028266 
L 127.256893 219.524746 
L 131.366444 227.667947 
L 135.475995 234.628392 
L 139.585547 229.509682 
L 143.695098 224.914578 
L 147.804649 211.902389 
L 151.9142 210.23846 
L 156.023751 200.76457 
L 160.133303 206.485222 
L 164.242854 211.874989 
L 168.352405 211.133057 
L 172.461956 195.406045 
L 176.571507 199.83536 
L 180.681059 204.052938 
L 184.79061 202.131717 
L 188.900161 194.167663 
L 193.009712 191.614342 
L 197.119264 183.433982 
L 201.228815 177.625497 
L 205.338366 179.264458 
L 209.447917 187.569934 
L 213.557468 182.656851 
L 217.66702 180.514492 
L 221.776571 180.520847 
L 225.886122 180.857005 
L 229.995673 188.555738 
L 234.105224 188.555242 
L 238.214776 188.545391 
L 242.324327 191.14174 
L 246.433878 191.14174 
L 250.543429 188.238819 
L 254.65298 193.187732 
L 258.762532 188.237921 
L 262.872083 187.6715 
L 266.981634 192.661783 
L 271.091185 187.622714 
L 275.200736 187.622714 
L 279.310288 186.517526 
L 283.419839 191.51915 
L 287.52939 187.484034 
L 291.638941 185.903338 
L 295.748493 185.903338 
L 299.858044 185.903338 
L 303.967595 180.056243 
L 308.077146 183.274721 
L 312.186697 186.242957 
L 316.296249 180.54438 
L 320.4058 185.891015 
L 324.515351 184.665221 
L 328.624902 184.658072 
L 332.734453 184.675069 
L 336.844005 184.62449 
L 340.953556 179.091883 
L 345.063107 179.091883 
L 349.172658 172.080347 
L 353.282209 172.080347 
L 357.391761 172.058122 
L 361.501312 172.049099 
L 365.610863 172.049099 
L 369.720414 172.068837 
L 373.829965 172.118117 
L 377.939517 172.118117 
L 382.049068 176.654974 
L 386.158619 176.654974 
L 390.26817 176.595543 
L 394.377722 176.595543 
L 398.487273 176.293756 
L 398.487273 55.119958 
L 398.487273 55.119958 
L 394.377722 55.805421 
L 390.26817 55.805421 
L 386.158619 55.799635 
L 382.049068 55.799635 
L 377.939517 53.902408 
L 373.829965 53.902408 
L 369.720414 53.684022 
L 365.610863 53.568 
L 361.501312 53.568 
L 357.391761 53.580811 
L 353.282209 53.711332 
L 349.172658 53.711332 
L 345.063107 55.157152 
L 340.953556 55.157152 
L 336.844005 57.315472 
L 332.734453 57.710117 
L 328.624902 57.714078 
L 324.515351 57.765397 
L 320.4058 59.581841 
L 316.296249 57.758286 
L 312.186697 61.09287 
L 308.077146 58.563294 
L 303.967595 60.531239 
L 299.858044 63.377312 
L 295.748493 63.377312 
L 291.638941 63.377312 
L 287.52939 63.820452 
L 283.419839 66.318771 
L 279.310288 64.094732 
L 275.200736 63.896035 
L 271.091185 63.896035 
L 266.981634 66.332809 
L 262.872083 63.624267 
L 258.762532 64.069357 
L 254.65298 66.589023 
L 250.543429 64.079876 
L 246.433878 67.060621 
L 242.324327 67.060621 
L 238.214776 63.320657 
L 234.105224 63.426289 
L 229.995673 63.43158 
L 225.886122 63.36117 
L 221.776571 62.039008 
L 217.66702 62.203552 
L 213.557468 63.265163 
L 209.447917 64.358405 
L 205.338366 62.348422 
L 201.228815 58.903221 
L 197.119264 61.776474 
L 193.009712 64.132209 
L 188.900161 65.70013 
L 184.79061 67.70972 
L 180.681059 67.74729 
L 176.571507 66.045133 
L 172.461956 68.186875 
L 168.352405 76.940352 
L 164.242854 78.527501 
L 160.133303 79.507488 
L 156.023751 80.129464 
L 151.9142 94.229534 
L 147.804649 94.341957 
L 143.695098 105.703115 
L 139.585547 106.189186 
L 135.475995 109.669423 
L 131.366444 97.874342 
L 127.256893 93.686818 
L 123.147342 96.177834 
L 119.037791 100.110063 
L 114.928239 113.016783 
L 110.818688 120.868087 
L 106.709137 133.244256 
L 102.599586 150.592101 
L 98.490035 154.490668 
L 94.380483 160.406505 
L 90.270932 182.685849 
L 86.161381 198.587472 
L 82.05183 204.620657 
L 77.942278 226.755868 
L 73.832727 253.292785 
z
" clip-path="url(#p21a43e6070)" style="fill: #ff7f0e; fill-opacity: 0.3"/>
   </g>
   <g id="matplotlib.axis_1">
    <g id="xtick_1">
     <g id="line2d_1">
      <defs>
       <path id="m5319a84935" d="M 0 0 
L 0 3.5 
" style="stroke: #000000; stroke-width: 0.8"/>
      </defs>
      <g>
       <use xlink:href="#m5319a84935" x="73.832727" y="307.584" style="stroke: #000000; stroke-width: 0.8"/>
      </g>
     </g>
     <g id="text_1">
      <!-- 0 -->
      <g transform="translate(70.651477 322.182437) scale(0.1 -0.1)">
       <defs>
        <path id="DejaVuSans-30" d="M 2034 4250 
Q 1547 4250 1301 3770 
Q 1056 3291 1056 2328 
Q 1056 1369 1301 889 
Q 1547 409 2034 409 
Q 2525 409 2770 889 
Q 3016 1369 3016 2328 
Q 3016 3291 2770 3770 
Q 2525 4250 2034 4250 
z
M 2034 4750 
Q 2819 4750 3233 4129 
Q 3647 3509 3647 2328 
Q 3647 1150 3233 529 
Q 2819 -91 2034 -91 
Q 1250 -91 836 529 
Q 422 1150 422 2328 
Q 422 3509 836 4129 
Q 1250 4750 2034 4750 
z
" transform="scale(0.015625)"/>
       </defs>
       <use xlink:href="#DejaVuSans-30"/>
      </g>
     </g>
    </g>
    <g id="xtick_2">
     <g id="line2d_2">
      <g>
       <use xlink:href="#m5319a84935" x="114.928239" y="307.584" style="stroke: #000000; stroke-width: 0.8"/>
      </g>
     </g>
     <g id="text_2">
      <!-- 10 -->
      <g transform="translate(108.565739 322.182437) scale(0.1 -0.1)">
       <defs>
        <path id="DejaVuSans-31" d="M 794 531 
L 1825 531 
L 1825 4091 
L 703 3866 
L 703 4441 
L 1819 4666 
L 2450 4666 
L 2450 531 
L 3481 531 
L 3481 0 
L 794 0 
L 794 531 
z
" transform="scale(0.015625)"/>
       </defs>
       <use xlink:href="#DejaVuSans-31"/>
       <use xlink:href="#DejaVuSans-30" x="63.623047"/>
      </g>
     </g>
    </g>
    <g id="xtick_3">
     <g id="line2d_3">
      <g>
       <use xlink:href="#m5319a84935" x="156.023751" y="307.584" style="stroke: #000000; stroke-width: 0.8"/>
      </g>
     </g>
     <g id="text_3">
      <!-- 20 -->
      <g transform="translate(149.661251 322.182437) scale(0.1 -0.1)">
       <defs>
        <path id="DejaVuSans-32" d="M 1228 531 
L 3431 531 
L 3431 0 
L 469 0 
L 469 531 
Q 828 903 1448 1529 
Q 2069 2156 2228 2338 
Q 2531 2678 2651 2914 
Q 2772 3150 2772 3378 
Q 2772 3750 2511 3984 
Q 2250 4219 1831 4219 
Q 1534 4219 1204 4116 
Q 875 4013 500 3803 
L 500 4441 
Q 881 4594 1212 4672 
Q 1544 4750 1819 4750 
Q 2544 4750 2975 4387 
Q 3406 4025 3406 3419 
Q 3406 3131 3298 2873 
Q 3191 2616 2906 2266 
Q 2828 2175 2409 1742 
Q 1991 1309 1228 531 
z
" transform="scale(0.015625)"/>
       </defs>
       <use xlink:href="#DejaVuSans-32"/>
       <use xlink:href="#DejaVuSans-30" x="63.623047"/>
      </g>
     </g>
    </g>
    <g id="xtick_4">
     <g id="line2d_4">
      <g>
       <use xlink:href="#m5319a84935" x="197.119264" y="307.584" style="stroke: #000000; stroke-width: 0.8"/>
      </g>
     </g>
     <g id="text_4">
      <!-- 30 -->
      <g transform="translate(190.756764 322.182437) scale(0.1 -0.1)">
       <defs>
        <path id="DejaVuSans-33" d="M 2597 2516 
Q 3050 2419 3304 2112 
Q 3559 1806 3559 1356 
Q 3559 666 3084 287 
Q 2609 -91 1734 -91 
Q 1441 -91 1130 -33 
Q 819 25 488 141 
L 488 750 
Q 750 597 1062 519 
Q 1375 441 1716 441 
Q 2309 441 2620 675 
Q 2931 909 2931 1356 
Q 2931 1769 2642 2001 
Q 2353 2234 1838 2234 
L 1294 2234 
L 1294 2753 
L 1863 2753 
Q 2328 2753 2575 2939 
Q 2822 3125 2822 3475 
Q 2822 3834 2567 4026 
Q 2313 4219 1838 4219 
Q 1578 4219 1281 4162 
Q 984 4106 628 3988 
L 628 4550 
Q 988 4650 1302 4700 
Q 1616 4750 1894 4750 
Q 2613 4750 3031 4423 
Q 3450 4097 3450 3541 
Q 3450 3153 3228 2886 
Q 3006 2619 2597 2516 
z
" transform="scale(0.015625)"/>
       </defs>
       <use xlink:href="#DejaVuSans-33"/>
       <use xlink:href="#DejaVuSans-30" x="63.623047"/>
      </g>
     </g>
    </g>
    <g id="xtick_5">
     <g id="line2d_5">
      <g>
       <use xlink:href="#m5319a84935" x="238.214776" y="307.584" style="stroke: #000000; stroke-width: 0.8"/>
      </g>
     </g>
     <g id="text_5">
      <!-- 40 -->
      <g transform="translate(231.852276 322.182437) scale(0.1 -0.1)">
       <defs>
        <path id="DejaVuSans-34" d="M 2419 4116 
L 825 1625 
L 2419 1625 
L 2419 4116 
z
M 2253 4666 
L 3047 4666 
L 3047 1625 
L 3713 1625 
L 3713 1100 
L 3047 1100 
L 3047 0 
L 2419 0 
L 2419 1100 
L 313 1100 
L 313 1709 
L 2253 4666 
z
" transform="scale(0.015625)"/>
       </defs>
       <use xlink:href="#DejaVuSans-34"/>
       <use xlink:href="#DejaVuSans-30" x="63.623047"/>
      </g>
     </g>
    </g>
    <g id="xtick_6">
     <g id="line2d_6">
      <g>
       <use xlink:href="#m5319a84935" x="279.310288" y="307.584" style="stroke: #000000; stroke-width: 0.8"/>
      </g>
     </g>
     <g id="text_6">
      <!-- 50 -->
      <g transform="translate(272.947788 322.182437) scale(0.1 -0.1)">
       <defs>
        <path id="DejaVuSans-35" d="M 691 4666 
L 3169 4666 
L 3169 4134 
L 1269 4134 
L 1269 2991 
Q 1406 3038 1543 3061 
Q 1681 3084 1819 3084 
Q 2600 3084 3056 2656 
Q 3513 2228 3513 1497 
Q 3513 744 3044 326 
Q 2575 -91 1722 -91 
Q 1428 -91 1123 -41 
Q 819 9 494 109 
L 494 744 
Q 775 591 1075 516 
Q 1375 441 1709 441 
Q 2250 441 2565 725 
Q 2881 1009 2881 1497 
Q 2881 1984 2565 2268 
Q 2250 2553 1709 2553 
Q 1456 2553 1204 2497 
Q 953 2441 691 2322 
L 691 4666 
z
" transform="scale(0.015625)"/>
       </defs>
       <use xlink:href="#DejaVuSans-35"/>
       <use xlink:href="#DejaVuSans-30" x="63.623047"/>
      </g>
     </g>
    </g>
    <g id="xtick_7">
     <g id="line2d_7">
      <g>
       <use xlink:href="#m5319a84935" x="320.4058" y="307.584" style="stroke: #000000; stroke-width: 0.8"/>
      </g>
     </g>
     <g id="text_7">
      <!-- 60 -->
      <g transform="translate(314.0433 322.182437) scale(0.1 -0.1)">
       <defs>
        <path id="DejaVuSans-36" d="M 2113 2584 
Q 1688 2584 1439 2293 
Q 1191 2003 1191 1497 
Q 1191 994 1439 701 
Q 1688 409 2113 409 
Q 2538 409 2786 701 
Q 3034 994 3034 1497 
Q 3034 2003 2786 2293 
Q 2538 2584 2113 2584 
z
M 3366 4563 
L 3366 3988 
Q 3128 4100 2886 4159 
Q 2644 4219 2406 4219 
Q 1781 4219 1451 3797 
Q 1122 3375 1075 2522 
Q 1259 2794 1537 2939 
Q 1816 3084 2150 3084 
Q 2853 3084 3261 2657 
Q 3669 2231 3669 1497 
Q 3669 778 3244 343 
Q 2819 -91 2113 -91 
Q 1303 -91 875 529 
Q 447 1150 447 2328 
Q 447 3434 972 4092 
Q 1497 4750 2381 4750 
Q 2619 4750 2861 4703 
Q 3103 4656 3366 4563 
z
" transform="scale(0.015625)"/>
       </defs>
       <use xlink:href="#DejaVuSans-36"/>
       <use xlink:href="#DejaVuSans-30" x="63.623047"/>
      </g>
     </g>
    </g>
    <g id="xtick_8">
     <g id="line2d_8">
      <g>
       <use xlink:href="#m5319a84935" x="361.501312" y="307.584" style="stroke: #000000; stroke-width: 0.8"/>
      </g>
     </g>
     <g id="text_8">
      <!-- 70 -->
      <g transform="translate(355.138812 322.182437) scale(0.1 -0.1)">
       <defs>
        <path id="DejaVuSans-37" d="M 525 4666 
L 3525 4666 
L 3525 4397 
L 1831 0 
L 1172 0 
L 2766 4134 
L 525 4134 
L 525 4666 
z
" transform="scale(0.015625)"/>
       </defs>
       <use xlink:href="#DejaVuSans-37"/>
       <use xlink:href="#DejaVuSans-30" x="63.623047"/>
      </g>
     </g>
    </g>
    <g id="xtick_9">
     <g id="line2d_9">
      <g>
       <use xlink:href="#m5319a84935" x="402.596824" y="307.584" style="stroke: #000000; stroke-width: 0.8"/>
      </g>
     </g>
     <g id="text_9">
      <!-- 80 -->
      <g transform="translate(396.234324 322.182437) scale(0.1 -0.1)">
       <defs>
        <path id="DejaVuSans-38" d="M 2034 2216 
Q 1584 2216 1326 1975 
Q 1069 1734 1069 1313 
Q 1069 891 1326 650 
Q 1584 409 2034 409 
Q 2484 409 2743 651 
Q 3003 894 3003 1313 
Q 3003 1734 2745 1975 
Q 2488 2216 2034 2216 
z
M 1403 2484 
Q 997 2584 770 2862 
Q 544 3141 544 3541 
Q 544 4100 942 4425 
Q 1341 4750 2034 4750 
Q 2731 4750 3128 4425 
Q 3525 4100 3525 3541 
Q 3525 3141 3298 2862 
Q 3072 2584 2669 2484 
Q 3125 2378 3379 2068 
Q 3634 1759 3634 1313 
Q 3634 634 3220 271 
Q 2806 -91 2034 -91 
Q 1263 -91 848 271 
Q 434 634 434 1313 
Q 434 1759 690 2068 
Q 947 2378 1403 2484 
z
M 1172 3481 
Q 1172 3119 1398 2916 
Q 1625 2713 2034 2713 
Q 2441 2713 2670 2916 
Q 2900 3119 2900 3481 
Q 2900 3844 2670 4047 
Q 2441 4250 2034 4250 
Q 1625 4250 1398 4047 
Q 1172 3844 1172 3481 
z
" transform="scale(0.015625)"/>
       </defs>
       <use xlink:href="#DejaVuSans-38"/>
       <use xlink:href="#DejaVuSans-30" x="63.623047"/>
      </g>
     </g>
    </g>
   </g>
   <g id="matplotlib.axis_2">
    <g id="ytick_1">
     <g id="line2d_10">
      <defs>
       <path id="mfaee1ed450" d="M 0 0 
L -3.5 0 
" style="stroke: #000000; stroke-width: 0.8"/>
      </defs>
      <g>
       <use xlink:href="#mfaee1ed450" x="57.6" y="272.979465" style="stroke: #000000; stroke-width: 0.8"/>
      </g>
     </g>
     <g id="text_10">
      <!-- 0 -->
      <g transform="translate(44.2375 276.778684) scale(0.1 -0.1)">
       <use xlink:href="#DejaVuSans-30"/>
      </g>
     </g>
    </g>
    <g id="ytick_2">
     <g id="line2d_11">
      <g>
       <use xlink:href="#mfaee1ed450" x="57.6" y="227.119675" style="stroke: #000000; stroke-width: 0.8"/>
      </g>
     </g>
     <g id="text_11">
      <!-- 20 -->
      <g transform="translate(37.875 230.918894) scale(0.1 -0.1)">
       <use xlink:href="#DejaVuSans-32"/>
       <use xlink:href="#DejaVuSans-30" x="63.623047"/>
      </g>
     </g>
    </g>
    <g id="ytick_3">
     <g id="line2d_12">
      <g>
       <use xlink:href="#mfaee1ed450" x="57.6" y="181.259885" style="stroke: #000000; stroke-width: 0.8"/>
      </g>
     </g>
     <g id="text_12">
      <!-- 40 -->
      <g transform="translate(37.875 185.059104) scale(0.1 -0.1)">
       <use xlink:href="#DejaVuSans-34"/>
       <use xlink:href="#DejaVuSans-30" x="63.623047"/>
      </g>
     </g>
    </g>
    <g id="ytick_4">
     <g id="line2d_13">
      <g>
       <use xlink:href="#mfaee1ed450" x="57.6" y="135.400096" style="stroke: #000000; stroke-width: 0.8"/>
      </g>
     </g>
     <g id="text_13">
      <!-- 60 -->
      <g transform="translate(37.875 139.199314) scale(0.1 -0.1)">
       <use xlink:href="#DejaVuSans-36"/>
       <use xlink:href="#DejaVuSans-30" x="63.623047"/>
      </g>
     </g>
    </g>
    <g id="ytick_5">
     <g id="line2d_14">
      <g>
       <use xlink:href="#mfaee1ed450" x="57.6" y="89.540306" style="stroke: #000000; stroke-width: 0.8"/>
      </g>
     </g>
     <g id="text_14">
      <!-- 80 -->
      <g transform="translate(37.875 93.339524) scale(0.1 -0.1)">
       <use xlink:href="#DejaVuSans-38"/>
       <use xlink:href="#DejaVuSans-30" x="63.623047"/>
      </g>
     </g>
    </g>
    <g id="ytick_6">
     <g id="line2d_15">
      <g>
       <use xlink:href="#mfaee1ed450" x="57.6" y="43.680516" style="stroke: #000000; stroke-width: 0.8"/>
      </g>
     </g>
     <g id="text_15">
      <!-- 100 -->
      <g transform="translate(31.5125 47.479735) scale(0.1 -0.1)">
       <use xlink:href="#DejaVuSans-31"/>
       <use xlink:href="#DejaVuSans-30" x="63.623047"/>
       <use xlink:href="#DejaVuSans-30" x="127.246094"/>
      </g>
     </g>
    </g>
   </g>
   <g id="line2d_16">
    <path d="M 73.832727 273.751332 
L 77.942278 244.296357 
L 82.05183 218.027852 
L 86.161381 192.732496 
L 90.270932 178.355348 
L 94.380483 175.299157 
L 98.490035 170.292236 
L 102.599586 164.689554 
L 106.709137 149.062773 
L 110.818688 134.906596 
L 114.928239 132.469396 
L 119.037791 118.094951 
L 123.147342 117.377768 
L 127.256893 118.146579 
L 131.366444 110.129129 
L 135.475995 101.168321 
L 139.585547 100.826073 
L 143.695098 101.936879 
L 147.804649 108.424491 
L 151.9142 108.62617 
L 156.023751 108.83535 
L 160.133303 105.208143 
L 164.242854 103.791192 
L 168.352405 101.743832 
L 172.461956 105.571963 
L 176.571507 103.325719 
L 180.681059 102.62149 
L 184.79061 102.800965 
L 188.900161 104.046542 
L 193.009712 103.525081 
L 197.119264 105.289791 
L 201.228815 106.482735 
L 205.338366 104.373123 
L 209.447917 102.457371 
L 213.557468 103.772064 
L 217.66702 102.888655 
L 221.776571 102.337058 
L 225.886122 99.219468 
L 229.995673 98.341246 
L 234.105224 98.848739 
L 238.214776 98.336236 
L 242.324327 96.456996 
L 246.433878 96.456996 
L 250.543429 97.458822 
L 254.65298 96.162411 
L 258.762532 96.950216 
L 262.872083 96.423449 
L 266.981634 94.540886 
L 271.091185 95.38333 
L 275.200736 95.38333 
L 279.310288 95.602567 
L 283.419839 94.931148 
L 287.52939 95.367778 
L 291.638941 94.395989 
L 295.748493 94.256738 
L 299.858044 94.235244 
L 303.967595 95.19176 
L 308.077146 95.503806 
L 312.186697 93.715852 
L 316.296249 95.574208 
L 320.4058 94.826912 
L 324.515351 94.736037 
L 328.624902 94.653612 
L 332.734453 94.607634 
L 336.844005 97.20313 
L 340.953556 98.036573 
L 345.063107 98.036573 
L 349.172658 99.036274 
L 353.282209 99.036274 
L 357.391761 100.062562 
L 361.501312 100.576847 
L 365.610863 100.576847 
L 369.720414 97.973552 
L 373.829965 97.417713 
L 377.939517 97.417713 
L 382.049068 96.791926 
L 386.158619 96.791926 
L 390.26817 96.780071 
L 394.377722 96.780071 
L 398.487273 96.276157 
" clip-path="url(#p21a43e6070)" style="fill: none; stroke: #1f77b4; stroke-width: 1.5; stroke-linecap: square"/>
   </g>
   <g id="line2d_17">
    <path d="M 73.832727 273.967882 
L 77.942278 250.620241 
L 82.05183 228.010473 
L 86.161381 232.441203 
L 90.270932 225.236648 
L 94.380483 211.309811 
L 98.490035 202.462549 
L 102.599586 200.046083 
L 106.709137 187.724117 
L 110.818688 179.985958 
L 114.928239 169.709712 
L 119.037791 161.512961 
L 123.147342 158.10305 
L 127.256893 156.605782 
L 131.366444 162.771145 
L 135.475995 172.148907 
L 139.585547 167.849434 
L 143.695098 165.308847 
L 147.804649 153.122173 
L 151.9142 152.233997 
L 156.023751 140.447017 
L 160.133303 142.996355 
L 164.242854 145.201245 
L 168.352405 144.036704 
L 172.461956 131.79646 
L 176.571507 132.940247 
L 180.681059 135.900114 
L 184.79061 134.920719 
L 188.900161 129.933896 
L 193.009712 127.873275 
L 197.119264 122.605228 
L 201.228815 118.264359 
L 205.338366 120.80644 
L 209.447917 125.964169 
L 213.557468 122.961007 
L 217.66702 121.359022 
L 221.776571 121.279927 
L 225.886122 122.109088 
L 229.995673 125.993659 
L 234.105224 125.990766 
L 238.214776 125.933024 
L 242.324327 129.101181 
L 246.433878 129.101181 
L 250.543429 126.159347 
L 254.65298 129.888378 
L 258.762532 126.153639 
L 262.872083 125.647884 
L 266.981634 129.497296 
L 271.091185 125.759375 
L 275.200736 125.759375 
L 279.310288 125.306129 
L 283.419839 128.918961 
L 287.52939 125.652243 
L 291.638941 124.640325 
L 295.748493 124.640325 
L 299.858044 124.640325 
L 303.967595 120.293741 
L 308.077146 120.919007 
L 312.186697 123.667914 
L 316.296249 119.151333 
L 320.4058 122.736428 
L 324.515351 121.215309 
L 328.624902 121.186075 
L 332.734453 121.192593 
L 336.844005 120.969981 
L 340.953556 117.124518 
L 345.063107 117.124518 
L 349.172658 112.895839 
L 353.282209 112.895839 
L 357.391761 112.819467 
L 361.501312 112.808549 
L 365.610863 112.808549 
L 369.720414 112.87643 
L 373.829965 113.010263 
L 377.939517 113.010263 
L 382.049068 116.227304 
L 386.158619 116.227304 
L 390.26817 116.200482 
L 394.377722 116.200482 
L 398.487273 115.706857 
" clip-path="url(#p21a43e6070)" style="fill: none; stroke: #ff7f0e; stroke-width: 1.5; stroke-linecap: square"/>
   </g>
   <g id="line2d_18">
    <path d="M 73.832727 223.351345 
L 77.942278 102.323896 
L 82.05183 70.294273 
L 86.161381 70.294273 
L 90.270932 70.294273 
L 94.380483 70.294273 
L 98.490035 70.294273 
L 102.599586 70.294273 
L 106.709137 70.294273 
L 110.818688 70.294273 
L 114.928239 70.294273 
L 119.037791 70.294273 
L 123.147342 70.294273 
L 127.256893 70.294273 
L 131.366444 70.294273 
L 135.475995 68.413179 
L 139.585547 67.495983 
L 143.695098 67.495983 
L 147.804649 67.495983 
L 151.9142 67.495983 
L 156.023751 67.495983 
L 160.133303 67.495983 
L 164.242854 67.495983 
L 168.352405 67.495983 
L 172.461956 67.495983 
L 176.571507 67.495983 
L 180.681059 67.495983 
L 184.79061 67.495983 
L 188.900161 67.495983 
L 193.009712 67.495983 
L 197.119264 67.495983 
L 201.228815 67.49126 
L 205.338366 67.49126 
L 209.447917 67.49126 
L 213.557468 67.49126 
L 217.66702 67.032662 
L 221.776571 67.032662 
L 225.886122 67.032662 
L 229.995673 67.032662 
L 234.105224 67.032662 
L 238.214776 67.032662 
L 242.324327 67.032662 
L 246.433878 67.032662 
L 250.543429 67.032662 
L 254.65298 67.032662 
L 258.762532 67.032662 
L 262.872083 67.032662 
L 266.981634 67.032662 
L 271.091185 67.032662 
L 275.200736 67.032662 
L 279.310288 67.032662 
L 283.419839 67.032662 
L 287.52939 67.032662 
L 291.638941 67.032662 
L 295.748493 67.032662 
L 299.858044 67.032662 
L 303.967595 67.032662 
L 308.077146 67.032662 
L 312.186697 67.032662 
L 316.296249 67.032662 
L 320.4058 67.032662 
L 324.515351 67.032662 
L 328.624902 67.032662 
L 332.734453 66.578787 
L 336.844005 66.578787 
L 340.953556 66.578787 
L 345.063107 66.578787 
L 349.172658 66.578787 
L 353.282209 66.578787 
L 357.391761 66.578787 
L 361.501312 66.578787 
L 365.610863 66.578787 
L 369.720414 66.578787 
L 373.829965 66.578787 
L 377.939517 66.578787 
L 382.049068 66.578787 
L 386.158619 66.578787 
L 390.26817 66.578787 
L 394.377722 66.578787 
L 398.487273 66.578787 
" clip-path="url(#p21a43e6070)" style="fill: none; stroke-dasharray: 5.55,2.4; stroke-dashoffset: 0; stroke: #2ca02c; stroke-width: 1.5"/>
   </g>
   <g id="line2d_19">
    <path d="M 73.832727 223.206241 
L 77.942278 205.073027 
L 82.05183 142.403893 
L 86.161381 123.451263 
L 90.270932 73.953911 
L 94.380483 73.953911 
L 98.490035 73.953911 
L 102.599586 73.953911 
L 106.709137 73.953911 
L 110.818688 73.953911 
L 114.928239 73.953911 
L 119.037791 71.895329 
L 123.147342 71.895329 
L 127.256893 71.895329 
L 131.366444 71.895329 
L 135.475995 68.447774 
L 139.585547 68.447774 
L 143.695098 68.447774 
L 147.804649 68.447774 
L 151.9142 68.447774 
L 156.023751 68.447774 
L 160.133303 68.447774 
L 164.242854 68.447774 
L 168.352405 68.447774 
L 172.461956 68.447774 
L 176.571507 68.447774 
L 180.681059 68.447774 
L 184.79061 68.447774 
L 188.900161 68.447774 
L 193.009712 68.447774 
L 197.119264 68.447774 
L 201.228815 68.447774 
L 205.338366 65.232909 
L 209.447917 65.232909 
L 213.557468 65.232909 
L 217.66702 65.232909 
L 221.776571 65.232909 
L 225.886122 65.232909 
L 229.995673 65.232909 
L 234.105224 65.232909 
L 238.214776 65.232909 
L 242.324327 65.232909 
L 246.433878 65.232909 
L 250.543429 65.232909 
L 254.65298 65.232909 
L 258.762532 65.232909 
L 262.872083 65.232909 
L 266.981634 65.232909 
L 271.091185 65.232909 
L 275.200736 65.232909 
L 279.310288 65.232909 
L 283.419839 65.232909 
L 287.52939 65.232909 
L 291.638941 65.232909 
L 295.748493 65.232909 
L 299.858044 65.232909 
L 303.967595 65.232909 
L 308.077146 65.232909 
L 312.186697 65.232909 
L 316.296249 65.232909 
L 320.4058 65.232909 
L 324.515351 65.232909 
L 328.624902 65.232909 
L 332.734453 65.232909 
L 336.844005 65.232909 
L 340.953556 65.232909 
L 345.063107 65.232909 
L 349.172658 65.232909 
L 353.282209 65.232909 
L 357.391761 65.232909 
L 361.501312 65.232909 
L 365.610863 65.232909 
L 369.720414 65.232909 
L 373.829965 65.232909 
L 377.939517 65.232909 
L 382.049068 65.232909 
L 386.158619 65.232909 
L 390.26817 65.232909 
L 394.377722 65.232909 
L 398.487273 65.232909 
" clip-path="url(#p21a43e6070)" style="fill: none; stroke-dasharray: 5.55,2.4; stroke-dashoffset: 0; stroke: #d62728; stroke-width: 1.5"/>
   </g>
   <g id="patch_3">
    <path d="M 57.6 307.584 
L 57.6 41.472 
" style="fill: none; stroke: #000000; stroke-width: 0.8; stroke-linejoin: miter; stroke-linecap: square"/>
   </g>
   <g id="patch_4">
    <path d="M 414.72 307.584 
L 414.72 41.472 
" style="fill: none; stroke: #000000; stroke-width: 0.8; stroke-linejoin: miter; stroke-linecap: square"/>
   </g>
   <g id="patch_5">
    <path d="M 57.6 307.584 
L 414.72 307.584 
" style="fill: none; stroke: #000000; stroke-width: 0.8; stroke-linejoin: miter; stroke-linecap: square"/>
   </g>
   <g id="patch_6">
    <path d="M 57.6 41.472 
L 414.72 41.472 
" style="fill: none; stroke: #000000; stroke-width: 0.8; stroke-linejoin: miter; stroke-linecap: square"/>
   </g>
   <g id="text_16">
    <!-- fitness on 7_pymoo -->
    <g transform="translate(177.630938 35.472) scale(0.12 -0.12)">
     <defs>
      <path id="DejaVuSans-66" d="M 2375 4863 
L 2375 4384 
L 1825 4384 
Q 1516 4384 1395 4259 
Q 1275 4134 1275 3809 
L 1275 3500 
L 2222 3500 
L 2222 3053 
L 1275 3053 
L 1275 0 
L 697 0 
L 697 3053 
L 147 3053 
L 147 3500 
L 697 3500 
L 697 3744 
Q 697 4328 969 4595 
Q 1241 4863 1831 4863 
L 2375 4863 
z
" transform="scale(0.015625)"/>
      <path id="DejaVuSans-69" d="M 603 3500 
L 1178 3500 
L 1178 0 
L 603 0 
L 603 3500 
z
M 603 4863 
L 1178 4863 
L 1178 4134 
L 603 4134 
L 603 4863 
z
" transform="scale(0.015625)"/>
      <path id="DejaVuSans-74" d="M 1172 4494 
L 1172 3500 
L 2356 3500 
L 2356 3053 
L 1172 3053 
L 1172 1153 
Q 1172 725 1289 603 
Q 1406 481 1766 481 
L 2356 481 
L 2356 0 
L 1766 0 
Q 1100 0 847 248 
Q 594 497 594 1153 
L 594 3053 
L 172 3053 
L 172 3500 
L 594 3500 
L 594 4494 
L 1172 4494 
z
" transform="scale(0.015625)"/>
      <path id="DejaVuSans-6e" d="M 3513 2113 
L 3513 0 
L 2938 0 
L 2938 2094 
Q 2938 2591 2744 2837 
Q 2550 3084 2163 3084 
Q 1697 3084 1428 2787 
Q 1159 2491 1159 1978 
L 1159 0 
L 581 0 
L 581 3500 
L 1159 3500 
L 1159 2956 
Q 1366 3272 1645 3428 
Q 1925 3584 2291 3584 
Q 2894 3584 3203 3211 
Q 3513 2838 3513 2113 
z
" transform="scale(0.015625)"/>
      <path id="DejaVuSans-65" d="M 3597 1894 
L 3597 1613 
L 953 1613 
Q 991 1019 1311 708 
Q 1631 397 2203 397 
Q 2534 397 2845 478 
Q 3156 559 3463 722 
L 3463 178 
Q 3153 47 2828 -22 
Q 2503 -91 2169 -91 
Q 1331 -91 842 396 
Q 353 884 353 1716 
Q 353 2575 817 3079 
Q 1281 3584 2069 3584 
Q 2775 3584 3186 3129 
Q 3597 2675 3597 1894 
z
M 3022 2063 
Q 3016 2534 2758 2815 
Q 2500 3097 2075 3097 
Q 1594 3097 1305 2825 
Q 1016 2553 972 2059 
L 3022 2063 
z
" transform="scale(0.015625)"/>
      <path id="DejaVuSans-73" d="M 2834 3397 
L 2834 2853 
Q 2591 2978 2328 3040 
Q 2066 3103 1784 3103 
Q 1356 3103 1142 2972 
Q 928 2841 928 2578 
Q 928 2378 1081 2264 
Q 1234 2150 1697 2047 
L 1894 2003 
Q 2506 1872 2764 1633 
Q 3022 1394 3022 966 
Q 3022 478 2636 193 
Q 2250 -91 1575 -91 
Q 1294 -91 989 -36 
Q 684 19 347 128 
L 347 722 
Q 666 556 975 473 
Q 1284 391 1588 391 
Q 1994 391 2212 530 
Q 2431 669 2431 922 
Q 2431 1156 2273 1281 
Q 2116 1406 1581 1522 
L 1381 1569 
Q 847 1681 609 1914 
Q 372 2147 372 2553 
Q 372 3047 722 3315 
Q 1072 3584 1716 3584 
Q 2034 3584 2315 3537 
Q 2597 3491 2834 3397 
z
" transform="scale(0.015625)"/>
      <path id="DejaVuSans-20" transform="scale(0.015625)"/>
      <path id="DejaVuSans-6f" d="M 1959 3097 
Q 1497 3097 1228 2736 
Q 959 2375 959 1747 
Q 959 1119 1226 758 
Q 1494 397 1959 397 
Q 2419 397 2687 759 
Q 2956 1122 2956 1747 
Q 2956 2369 2687 2733 
Q 2419 3097 1959 3097 
z
M 1959 3584 
Q 2709 3584 3137 3096 
Q 3566 2609 3566 1747 
Q 3566 888 3137 398 
Q 2709 -91 1959 -91 
Q 1206 -91 779 398 
Q 353 888 353 1747 
Q 353 2609 779 3096 
Q 1206 3584 1959 3584 
z
" transform="scale(0.015625)"/>
      <path id="DejaVuSans-5f" d="M 3263 -1063 
L 3263 -1509 
L -63 -1509 
L -63 -1063 
L 3263 -1063 
z
" transform="scale(0.015625)"/>
      <path id="DejaVuSans-70" d="M 1159 525 
L 1159 -1331 
L 581 -1331 
L 581 3500 
L 1159 3500 
L 1159 2969 
Q 1341 3281 1617 3432 
Q 1894 3584 2278 3584 
Q 2916 3584 3314 3078 
Q 3713 2572 3713 1747 
Q 3713 922 3314 415 
Q 2916 -91 2278 -91 
Q 1894 -91 1617 61 
Q 1341 213 1159 525 
z
M 3116 1747 
Q 3116 2381 2855 2742 
Q 2594 3103 2138 3103 
Q 1681 3103 1420 2742 
Q 1159 2381 1159 1747 
Q 1159 1113 1420 752 
Q 1681 391 2138 391 
Q 2594 391 2855 752 
Q 3116 1113 3116 1747 
z
" transform="scale(0.015625)"/>
      <path id="DejaVuSans-79" d="M 2059 -325 
Q 1816 -950 1584 -1140 
Q 1353 -1331 966 -1331 
L 506 -1331 
L 506 -850 
L 844 -850 
Q 1081 -850 1212 -737 
Q 1344 -625 1503 -206 
L 1606 56 
L 191 3500 
L 800 3500 
L 1894 763 
L 2988 3500 
L 3597 3500 
L 2059 -325 
z
" transform="scale(0.015625)"/>
      <path id="DejaVuSans-6d" d="M 3328 2828 
Q 3544 3216 3844 3400 
Q 4144 3584 4550 3584 
Q 5097 3584 5394 3201 
Q 5691 2819 5691 2113 
L 5691 0 
L 5113 0 
L 5113 2094 
Q 5113 2597 4934 2840 
Q 4756 3084 4391 3084 
Q 3944 3084 3684 2787 
Q 3425 2491 3425 1978 
L 3425 0 
L 2847 0 
L 2847 2094 
Q 2847 2600 2669 2842 
Q 2491 3084 2119 3084 
Q 1678 3084 1418 2786 
Q 1159 2488 1159 1978 
L 1159 0 
L 581 0 
L 581 3500 
L 1159 3500 
L 1159 2956 
Q 1356 3278 1631 3431 
Q 1906 3584 2284 3584 
Q 2666 3584 2933 3390 
Q 3200 3197 3328 2828 
z
" transform="scale(0.015625)"/>
     </defs>
     <use xlink:href="#DejaVuSans-66"/>
     <use xlink:href="#DejaVuSans-69" x="35.205078"/>
     <use xlink:href="#DejaVuSans-74" x="62.988281"/>
     <use xlink:href="#DejaVuSans-6e" x="102.197266"/>
     <use xlink:href="#DejaVuSans-65" x="165.576172"/>
     <use xlink:href="#DejaVuSans-73" x="227.099609"/>
     <use xlink:href="#DejaVuSans-73" x="279.199219"/>
     <use xlink:href="#DejaVuSans-20" x="331.298828"/>
     <use xlink:href="#DejaVuSans-6f" x="363.085938"/>
     <use xlink:href="#DejaVuSans-6e" x="424.267578"/>
     <use xlink:href="#DejaVuSans-20" x="487.646484"/>
     <use xlink:href="#DejaVuSans-37" x="519.433594"/>
     <use xlink:href="#DejaVuSans-5f" x="583.056641"/>
     <use xlink:href="#DejaVuSans-70" x="633.056641"/>
     <use xlink:href="#DejaVuSans-79" x="696.533203"/>
     <use xlink:href="#DejaVuSans-6d" x="755.712891"/>
     <use xlink:href="#DejaVuSans-6f" x="853.125"/>
     <use xlink:href="#DejaVuSans-6f" x="914.306641"/>
    </g>
   </g>
   <g id="legend_1">
    <g id="patch_7">
     <path d="M 334.555938 302.584 
L 407.72 302.584 
Q 409.72 302.584 409.72 300.584 
L 409.72 242.8715 
Q 409.72 240.8715 407.72 240.8715 
L 334.555938 240.8715 
Q 332.555938 240.8715 332.555938 242.8715 
L 332.555938 300.584 
Q 332.555938 302.584 334.555938 302.584 
z
" style="fill: #ffffff; opacity: 0.8; stroke: #cccccc; stroke-linejoin: miter"/>
    </g>
    <g id="line2d_20">
     <path d="M 336.555938 248.969937 
L 346.555938 248.969937 
L 356.555938 248.969937 
" style="fill: none; stroke: #1f77b4; stroke-width: 1.5; stroke-linecap: square"/>
    </g>
    <g id="text_17">
     <!-- enemyA -->
     <g transform="translate(364.555938 252.469937) scale(0.1 -0.1)">
      <defs>
       <path id="DejaVuSans-41" d="M 2188 4044 
L 1331 1722 
L 3047 1722 
L 2188 4044 
z
M 1831 4666 
L 2547 4666 
L 4325 0 
L 3669 0 
L 3244 1197 
L 1141 1197 
L 716 0 
L 50 0 
L 1831 4666 
z
" transform="scale(0.015625)"/>
      </defs>
      <use xlink:href="#DejaVuSans-65"/>
      <use xlink:href="#DejaVuSans-6e" x="61.523438"/>
      <use xlink:href="#DejaVuSans-65" x="124.902344"/>
      <use xlink:href="#DejaVuSans-6d" x="186.425781"/>
      <use xlink:href="#DejaVuSans-79" x="283.837891"/>
      <use xlink:href="#DejaVuSans-41" x="343.017578"/>
     </g>
    </g>
    <g id="line2d_21">
     <path d="M 336.555938 263.648062 
L 346.555938 263.648062 
L 356.555938 263.648062 
" style="fill: none; stroke: #ff7f0e; stroke-width: 1.5; stroke-linecap: square"/>
    </g>
    <g id="text_18">
     <!-- enemyB -->
     <g transform="translate(364.555938 267.148062) scale(0.1 -0.1)">
      <defs>
       <path id="DejaVuSans-42" d="M 1259 2228 
L 1259 519 
L 2272 519 
Q 2781 519 3026 730 
Q 3272 941 3272 1375 
Q 3272 1813 3026 2020 
Q 2781 2228 2272 2228 
L 1259 2228 
z
M 1259 4147 
L 1259 2741 
L 2194 2741 
Q 2656 2741 2882 2914 
Q 3109 3088 3109 3444 
Q 3109 3797 2882 3972 
Q 2656 4147 2194 4147 
L 1259 4147 
z
M 628 4666 
L 2241 4666 
Q 2963 4666 3353 4366 
Q 3744 4066 3744 3513 
Q 3744 3084 3544 2831 
Q 3344 2578 2956 2516 
Q 3422 2416 3680 2098 
Q 3938 1781 3938 1306 
Q 3938 681 3513 340 
Q 3088 0 2303 0 
L 628 0 
L 628 4666 
z
" transform="scale(0.015625)"/>
      </defs>
      <use xlink:href="#DejaVuSans-65"/>
      <use xlink:href="#DejaVuSans-6e" x="61.523438"/>
      <use xlink:href="#DejaVuSans-65" x="124.902344"/>
      <use xlink:href="#DejaVuSans-6d" x="186.425781"/>
      <use xlink:href="#DejaVuSans-79" x="283.837891"/>
      <use xlink:href="#DejaVuSans-42" x="343.017578"/>
     </g>
    </g>
    <g id="line2d_22">
     <path d="M 336.555938 278.326187 
L 346.555938 278.326187 
L 356.555938 278.326187 
" style="fill: none; stroke-dasharray: 5.55,2.4; stroke-dashoffset: 0; stroke: #2ca02c; stroke-width: 1.5"/>
    </g>
    <g id="text_19">
     <!-- enemyA -->
     <g transform="translate(364.555938 281.826187) scale(0.1 -0.1)">
      <use xlink:href="#DejaVuSans-65"/>
      <use xlink:href="#DejaVuSans-6e" x="61.523438"/>
      <use xlink:href="#DejaVuSans-65" x="124.902344"/>
      <use xlink:href="#DejaVuSans-6d" x="186.425781"/>
      <use xlink:href="#DejaVuSans-79" x="283.837891"/>
      <use xlink:href="#DejaVuSans-41" x="343.017578"/>
     </g>
    </g>
    <g id="line2d_23">
     <path d="M 336.555938 293.004312 
L 346.555938 293.004312 
L 356.555938 293.004312 
" style="fill: none; stroke-dasharray: 5.55,2.4; stroke-dashoffset: 0; stroke: #d62728; stroke-width: 1.5"/>
    </g>
    <g id="text_20">
     <!-- enemyB -->
     <g transform="translate(364.555938 296.504312) scale(0.1 -0.1)">
      <use xlink:href="#DejaVuSans-65"/>
      <use xlink:href="#DejaVuSans-6e" x="61.523438"/>
      <use xlink:href="#DejaVuSans-65" x="124.902344"/>
      <use xlink:href="#DejaVuSans-6d" x="186.425781"/>
      <use xlink:href="#DejaVuSans-79" x="283.837891"/>
      <use xlink:href="#DejaVuSans-42" x="343.017578"/>
     </g>
    </g>
   </g>
  </g>
 </g>
 <defs>
  <clipPath id="p21a43e6070">
   <rect x="57.6" y="41.472" width="357.12" height="266.112"/>
  </clipPath>
 </defs>
</svg>
