<?xml version="1.0" encoding="utf-8" standalone="no"?>
<!DOCTYPE svg PUBLIC "-//W3C//DTD SVG 1.1//EN"
  "http://www.w3.org/Graphics/SVG/1.1/DTD/svg11.dtd">
<svg xmlns:xlink="http://www.w3.org/1999/xlink" width="460.8pt" height="345.6pt" viewBox="0 0 460.8 345.6" xmlns="http://www.w3.org/2000/svg" version="1.1">
 <metadata>
  <rdf:RDF xmlns:dc="http://purl.org/dc/elements/1.1/" xmlns:cc="http://creativecommons.org/ns#" xmlns:rdf="http://www.w3.org/1999/02/22-rdf-syntax-ns#">
   <cc:Work>
    <dc:type rdf:resource="http://purl.org/dc/dcmitype/StillImage"/>
    <dc:date>2022-10-13T23:26:55.865106</dc:date>
    <dc:format>image/svg+xml</dc:format>
    <dc:creator>
     <cc:Agent>
      <dc:title>Matplotlib v3.5.3, https://matplotlib.org/</dc:title>
     </cc:Agent>
    </dc:creator>
   </cc:Work>
  </rdf:RDF>
 </metadata>
 <defs>
  <style type="text/css">*{stroke-linejoin: round; stroke-linecap: butt}</style>
 </defs>
 <g id="figure_1">
  <g id="patch_1">
   <path d="M 0 345.6 
L 460.8 345.6 
L 460.8 0 
L 0 0 
z
" style="fill: #ffffff"/>
  </g>
  <g id="axes_1">
   <g id="patch_2">
    <path d="M 57.6 307.584 
L 414.72 307.584 
L 414.72 41.472 
L 57.6 41.472 
z
" style="fill: #ffffff"/>
   </g>
   <g id="PolyCollection_1">
    <path d="M 73.832727 291.68898 
L 73.832727 294.946553 
L 77.942278 290.397753 
L 82.05183 281.507672 
L 86.161381 276.452575 
L 90.270932 275.080954 
L 94.380483 271.126369 
L 98.490035 263.246754 
L 102.599586 258.925471 
L 106.709137 255.430108 
L 110.818688 251.963149 
L 114.928239 247.401502 
L 119.037791 245.094201 
L 123.147342 241.772239 
L 127.256893 234.519533 
L 131.366444 233.153984 
L 135.475995 231.601052 
L 139.585547 227.28383 
L 143.695098 225.342437 
L 147.804649 225.882931 
L 151.9142 224.235005 
L 156.023751 223.047218 
L 160.133303 220.868657 
L 164.242854 219.509909 
L 168.352405 218.23888 
L 172.461956 217.232243 
L 176.571507 217.129175 
L 180.681059 214.193565 
L 184.79061 211.599181 
L 188.900161 209.730028 
L 193.009712 210.317589 
L 197.119264 208.450114 
L 201.228815 207.074388 
L 205.338366 201.196196 
L 209.447917 201.358635 
L 213.557468 201.84812 
L 217.66702 200.453154 
L 221.776571 200.94593 
L 225.886122 202.805311 
L 229.995673 203.811385 
L 234.105224 199.15056 
L 238.214776 199.365422 
L 242.324327 199.58872 
L 246.433878 199.425909 
L 250.543429 197.56415 
L 254.65298 198.333682 
L 258.762532 199.738309 
L 262.872083 200.260082 
L 266.981634 200.557043 
L 271.091185 202.799746 
L 275.200736 200.283818 
L 279.310288 198.598023 
L 283.419839 196.922889 
L 287.52939 195.832774 
L 291.638941 196.244662 
L 295.748493 196.336159 
L 299.858044 195.883901 
L 303.967595 195.449905 
L 308.077146 193.845606 
L 312.186697 192.867204 
L 316.296249 193.534275 
L 320.4058 194.724786 
L 324.515351 195.713985 
L 328.624902 195.701187 
L 332.734453 196.607827 
L 336.844005 196.896732 
L 340.953556 196.428133 
L 345.063107 196.318883 
L 349.172658 195.166296 
L 353.282209 195.076479 
L 357.391761 192.995308 
L 361.501312 191.658522 
L 365.610863 193.394601 
L 369.720414 193.121101 
L 373.829965 191.740814 
L 377.939517 189.772159 
L 382.049068 190.084908 
L 386.158619 188.371154 
L 390.26817 186.080338 
L 394.377722 184.493267 
L 398.487273 184.71785 
L 398.487273 116.813867 
L 398.487273 116.813867 
L 394.377722 116.843512 
L 390.26817 117.124506 
L 386.158619 118.095191 
L 382.049068 119.272988 
L 377.939517 119.693962 
L 373.829965 119.504898 
L 369.720414 119.496572 
L 365.610863 120.086212 
L 361.501312 121.336766 
L 357.391761 122.10864 
L 353.282209 122.977373 
L 349.172658 123.916155 
L 345.063107 124.533754 
L 340.953556 124.076653 
L 336.844005 125.418754 
L 332.734453 124.678003 
L 328.624902 125.691627 
L 324.515351 124.940978 
L 320.4058 126.302617 
L 316.296249 126.959435 
L 312.186697 128.220104 
L 308.077146 129.245108 
L 303.967595 128.180713 
L 299.858044 130.793807 
L 295.748493 131.777889 
L 291.638941 135.191341 
L 287.52939 137.559319 
L 283.419839 140.696294 
L 279.310288 139.263042 
L 275.200736 143.694003 
L 271.091185 144.563339 
L 266.981634 148.40235 
L 262.872083 150.895842 
L 258.762532 154.273379 
L 254.65298 159.184744 
L 250.543429 160.877287 
L 246.433878 160.383262 
L 242.324327 161.696929 
L 238.214776 163.996536 
L 234.105224 164.69274 
L 229.995673 168.431341 
L 225.886122 169.924008 
L 221.776571 171.280535 
L 217.66702 170.191988 
L 213.557468 174.861612 
L 209.447917 174.987622 
L 205.338366 175.951567 
L 201.228815 176.350141 
L 197.119264 175.961085 
L 193.009712 178.068881 
L 188.900161 177.509217 
L 184.79061 178.74207 
L 180.681059 179.597437 
L 176.571507 183.987319 
L 172.461956 184.02769 
L 168.352405 187.921983 
L 164.242854 192.111746 
L 160.133303 192.043835 
L 156.023751 193.338061 
L 151.9142 193.156434 
L 147.804649 194.818658 
L 143.695098 196.048082 
L 139.585547 198.194495 
L 135.475995 196.377987 
L 131.366444 198.690855 
L 127.256893 201.16999 
L 123.147342 205.440009 
L 119.037791 207.845038 
L 114.928239 210.556705 
L 110.818688 213.70494 
L 106.709137 218.840298 
L 102.599586 223.366563 
L 98.490035 229.144305 
L 94.380483 241.134029 
L 90.270932 253.071419 
L 86.161381 261.358722 
L 82.05183 271.546008 
L 77.942278 283.04961 
L 73.832727 291.68898 
z
" clip-path="url(#p0d786bef54)" style="fill: #1f77b4; fill-opacity: 0.3"/>
   </g>
   <g id="PolyCollection_2">
    <path d="M 73.832727 181.257086 
L 73.832727 254.79085 
L 77.942278 249.816061 
L 82.05183 229.0184 
L 86.161381 205.257799 
L 90.270932 196.10497 
L 94.380483 194.750967 
L 98.490035 190.989334 
L 102.599586 179.404665 
L 106.709137 179.218159 
L 110.818688 172.51962 
L 114.928239 159.34008 
L 119.037791 139.574422 
L 123.147342 135.791642 
L 127.256893 123.128878 
L 131.366444 120.758656 
L 135.475995 120.758656 
L 139.585547 111.893712 
L 143.695098 111.893712 
L 147.804649 112.093634 
L 151.9142 108.612098 
L 156.023751 104.239766 
L 160.133303 104.239766 
L 164.242854 102.893197 
L 168.352405 102.893197 
L 172.461956 102.893197 
L 176.571507 103.205223 
L 180.681059 103.205223 
L 184.79061 103.205223 
L 188.900161 103.221463 
L 193.009712 103.221463 
L 197.119264 103.139054 
L 201.228815 103.078609 
L 205.338366 100.654361 
L 209.447917 100.654361 
L 213.557468 100.600559 
L 217.66702 100.600559 
L 221.776571 100.600559 
L 225.886122 100.600559 
L 229.995673 100.58171 
L 234.105224 95.951388 
L 238.214776 93.060186 
L 242.324327 92.993467 
L 246.433878 92.91296 
L 250.543429 89.649119 
L 254.65298 89.621061 
L 258.762532 81.525064 
L 262.872083 81.240575 
L 266.981634 81.199716 
L 271.091185 81.199097 
L 275.200736 81.199097 
L 279.310288 81.199097 
L 283.419839 81.04025 
L 287.52939 81.04025 
L 291.638941 75.930781 
L 295.748493 75.915929 
L 299.858044 75.915929 
L 303.967595 75.915929 
L 308.077146 75.915929 
L 312.186697 75.915929 
L 316.296249 75.62055 
L 320.4058 75.154702 
L 324.515351 74.228034 
L 328.624902 74.228034 
L 332.734453 74.228034 
L 336.844005 74.191109 
L 340.953556 73.985778 
L 345.063107 73.985778 
L 349.172658 73.985778 
L 353.282209 73.810686 
L 357.391761 73.810686 
L 361.501312 73.810686 
L 365.610863 73.810686 
L 369.720414 73.810686 
L 373.829965 73.810686 
L 377.939517 73.810686 
L 382.049068 73.810686 
L 386.158619 73.810686 
L 390.26817 73.810686 
L 394.377722 73.810686 
L 398.487273 73.810686 
L 398.487273 53.568 
L 398.487273 53.568 
L 394.377722 53.568 
L 390.26817 53.568 
L 386.158619 53.568 
L 382.049068 53.568 
L 377.939517 53.568 
L 373.829965 53.568 
L 369.720414 53.568 
L 365.610863 53.568 
L 361.501312 53.568 
L 357.391761 53.568 
L 353.282209 53.568 
L 349.172658 53.791694 
L 345.063107 53.791694 
L 340.953556 53.791694 
L 336.844005 53.97611 
L 332.734453 54.000251 
L 328.624902 54.000251 
L 324.515351 54.000251 
L 320.4058 55.277347 
L 316.296249 56.67458 
L 312.186697 57.458707 
L 308.077146 57.458707 
L 303.967595 57.458707 
L 299.858044 57.458707 
L 295.748493 57.458707 
L 291.638941 57.474388 
L 287.52939 57.463119 
L 283.419839 57.463119 
L 279.310288 57.721665 
L 275.200736 57.721665 
L 271.091185 57.721665 
L 266.981634 57.849929 
L 262.872083 58.383626 
L 258.762532 58.713332 
L 254.65298 56.3116 
L 250.543429 56.377092 
L 246.433878 57.607176 
L 242.324327 58.447018 
L 238.214776 58.647386 
L 234.105224 60.879588 
L 229.995673 66.472714 
L 225.886122 67.319892 
L 221.776571 67.319892 
L 217.66702 67.319892 
L 213.557468 67.319892 
L 209.447917 67.337628 
L 205.338366 67.337628 
L 201.228815 70.074068 
L 197.119264 70.097264 
L 193.009712 70.134708 
L 188.900161 70.134708 
L 184.79061 70.240465 
L 180.681059 70.240465 
L 176.571507 70.240465 
L 172.461956 72.044779 
L 168.352405 72.044779 
L 164.242854 72.044779 
L 160.133303 76.019715 
L 156.023751 76.019715 
L 151.9142 80.892888 
L 147.804649 81.833634 
L 143.695098 82.38911 
L 139.585547 82.38911 
L 135.475995 82.716139 
L 131.366444 82.716139 
L 127.256893 84.538248 
L 123.147342 85.126361 
L 119.037791 86.090257 
L 114.928239 84.496996 
L 110.818688 89.743915 
L 106.709137 96.537068 
L 102.599586 96.499301 
L 98.490035 102.979966 
L 94.380483 128.054473 
L 90.270932 130.881568 
L 86.161381 140.386128 
L 82.05183 148.474537 
L 77.942278 158.602392 
L 73.832727 181.257086 
z
" clip-path="url(#p0d786bef54)" style="fill: #ff7f0e; fill-opacity: 0.3"/>
   </g>
   <g id="PolyCollection_3">
    <path d="M 73.832727 290.307404 
L 73.832727 295.488 
L 77.942278 291.447237 
L 82.05183 289.165824 
L 86.161381 288.043063 
L 90.270932 283.582435 
L 94.380483 277.057114 
L 98.490035 276.52463 
L 102.599586 277.462429 
L 106.709137 276.595553 
L 110.818688 275.325579 
L 114.928239 274.230296 
L 119.037791 271.353025 
L 123.147342 270.947761 
L 127.256893 272.616909 
L 131.366444 275.436981 
L 135.475995 270.870087 
L 139.585547 272.522568 
L 143.695098 265.879477 
L 147.804649 267.104375 
L 151.9142 269.873376 
L 156.023751 270.185694 
L 160.133303 273.725047 
L 164.242854 270.496771 
L 168.352405 273.415046 
L 172.461956 270.225154 
L 176.571507 267.695709 
L 180.681059 270.29793 
L 184.79061 267.891116 
L 188.900161 270.764336 
L 193.009712 268.789758 
L 197.119264 269.372288 
L 201.228815 269.423992 
L 205.338366 271.630154 
L 209.447917 272.079508 
L 213.557468 266.421642 
L 217.66702 270.026749 
L 221.776571 267.473142 
L 225.886122 263.704818 
L 229.995673 262.068472 
L 234.105224 263.706716 
L 238.214776 268.690235 
L 242.324327 261.792505 
L 246.433878 262.461905 
L 250.543429 263.632344 
L 254.65298 264.097753 
L 258.762532 267.421149 
L 262.872083 265.837822 
L 266.981634 262.338467 
L 271.091185 265.622904 
L 275.200736 270.183749 
L 279.310288 265.29598 
L 283.419839 263.844162 
L 287.52939 260.991029 
L 291.638941 261.760798 
L 295.748493 256.565288 
L 299.858044 258.208571 
L 303.967595 260.652027 
L 308.077146 260.530257 
L 312.186697 261.513188 
L 316.296249 258.810234 
L 320.4058 259.740196 
L 324.515351 258.015279 
L 328.624902 256.206664 
L 332.734453 257.874343 
L 336.844005 262.659375 
L 340.953556 257.143823 
L 345.063107 260.854418 
L 349.172658 259.11277 
L 353.282209 255.067537 
L 357.391761 253.304821 
L 361.501312 252.319501 
L 365.610863 255.05072 
L 369.720414 257.275368 
L 373.829965 259.249616 
L 377.939517 249.506427 
L 382.049068 254.488067 
L 386.158619 252.747887 
L 390.26817 251.279484 
L 394.377722 251.415077 
L 398.487273 251.740293 
L 398.487273 179.288283 
L 398.487273 179.288283 
L 394.377722 173.864748 
L 390.26817 179.95269 
L 386.158619 184.375063 
L 382.049068 187.139515 
L 377.939517 184.943842 
L 373.829965 185.775817 
L 369.720414 184.982869 
L 365.610863 185.179963 
L 361.501312 187.053589 
L 357.391761 188.249594 
L 353.282209 183.721517 
L 349.172658 186.912703 
L 345.063107 187.419232 
L 340.953556 186.205771 
L 336.844005 188.403652 
L 332.734453 186.559446 
L 328.624902 185.609772 
L 324.515351 188.305748 
L 320.4058 183.814883 
L 316.296249 186.77256 
L 312.186697 188.770664 
L 308.077146 195.365955 
L 303.967595 195.375852 
L 299.858044 192.480435 
L 295.748493 194.567902 
L 291.638941 194.176022 
L 287.52939 196.251845 
L 283.419839 199.366776 
L 279.310288 194.428731 
L 275.200736 200.73024 
L 271.091185 198.921309 
L 266.981634 203.18201 
L 262.872083 204.830341 
L 258.762532 206.658574 
L 254.65298 199.219346 
L 250.543429 198.22826 
L 246.433878 201.137507 
L 242.324327 205.515997 
L 238.214776 203.51539 
L 234.105224 204.82081 
L 229.995673 207.777742 
L 225.886122 206.304021 
L 221.776571 205.008461 
L 217.66702 206.394277 
L 213.557468 209.929254 
L 209.447917 220.162835 
L 205.338366 210.341598 
L 201.228815 227.57076 
L 197.119264 219.864048 
L 193.009712 222.18437 
L 188.900161 222.444377 
L 184.79061 225.836765 
L 180.681059 226.520065 
L 176.571507 222.540569 
L 172.461956 225.748576 
L 168.352405 225.741181 
L 164.242854 230.094258 
L 160.133303 227.817706 
L 156.023751 235.720892 
L 151.9142 234.802992 
L 147.804649 236.69654 
L 143.695098 239.314534 
L 139.585547 238.588164 
L 135.475995 245.358761 
L 131.366444 244.93534 
L 127.256893 248.532151 
L 123.147342 252.833664 
L 119.037791 254.014439 
L 114.928239 258.442003 
L 110.818688 259.219744 
L 106.709137 261.724563 
L 102.599586 260.872948 
L 98.490035 263.937615 
L 94.380483 268.29145 
L 90.270932 272.70496 
L 86.161381 276.746755 
L 82.05183 279.205584 
L 77.942278 284.205939 
L 73.832727 290.307404 
z
" clip-path="url(#p0d786bef54)" style="fill: #2ca02c; fill-opacity: 0.3"/>
   </g>
   <g id="PolyCollection_4">
    <path d="M 73.832727 218.315114 
L 73.832727 272.220587 
L 77.942278 263.845041 
L 82.05183 249.005436 
L 86.161381 243.307267 
L 90.270932 227.701316 
L 94.380483 201.495714 
L 98.490035 191.072294 
L 102.599586 190.774214 
L 106.709137 188.817829 
L 110.818688 180.028339 
L 114.928239 176.810949 
L 119.037791 172.341076 
L 123.147342 168.966501 
L 127.256893 168.766194 
L 131.366444 168.716672 
L 135.475995 163.683104 
L 139.585547 163.681079 
L 143.695098 163.680786 
L 147.804649 158.008703 
L 151.9142 158.008703 
L 156.023751 158.008703 
L 160.133303 153.985839 
L 164.242854 153.985408 
L 168.352405 147.284031 
L 172.461956 147.108229 
L 176.571507 144.29531 
L 180.681059 144.283124 
L 184.79061 144.281271 
L 188.900161 144.281271 
L 193.009712 144.28064 
L 197.119264 144.046745 
L 201.228815 144.025215 
L 205.338366 144.025215 
L 209.447917 144.025215 
L 213.557468 138.97242 
L 217.66702 135.437401 
L 221.776571 135.306776 
L 225.886122 131.421251 
L 229.995673 131.624623 
L 234.105224 131.624623 
L 238.214776 131.623606 
L 242.324327 131.623606 
L 246.433878 131.623606 
L 250.543429 131.623606 
L 254.65298 131.623606 
L 258.762532 131.623606 
L 262.872083 131.623606 
L 266.981634 129.115996 
L 271.091185 129.115996 
L 275.200736 129.115996 
L 279.310288 129.115996 
L 283.419839 129.115996 
L 287.52939 129.115996 
L 291.638941 129.115996 
L 295.748493 129.112718 
L 299.858044 129.120455 
L 303.967595 129.120455 
L 308.077146 129.158949 
L 312.186697 129.158949 
L 316.296249 129.158949 
L 320.4058 129.158949 
L 324.515351 129.135169 
L 328.624902 129.135169 
L 332.734453 129.072853 
L 336.844005 129.072853 
L 340.953556 124.773195 
L 345.063107 124.773195 
L 349.172658 124.773195 
L 353.282209 124.773195 
L 357.391761 124.773195 
L 361.501312 124.773195 
L 365.610863 124.773195 
L 369.720414 124.773195 
L 373.829965 124.773195 
L 377.939517 124.767217 
L 382.049068 124.767217 
L 386.158619 124.767217 
L 390.26817 124.769448 
L 394.377722 124.769448 
L 398.487273 124.769448 
L 398.487273 73.2975 
L 398.487273 73.2975 
L 394.377722 73.2975 
L 390.26817 73.2975 
L 386.158619 73.324388 
L 382.049068 73.324388 
L 377.939517 73.324388 
L 373.829965 73.325648 
L 369.720414 73.325648 
L 365.610863 73.325648 
L 361.501312 73.325648 
L 357.391761 73.325648 
L 353.282209 73.325648 
L 349.172658 73.325648 
L 345.063107 73.325648 
L 340.953556 73.325648 
L 336.844005 73.348299 
L 332.734453 73.348299 
L 328.624902 73.340074 
L 324.515351 73.340074 
L 320.4058 73.347597 
L 316.296249 73.347597 
L 312.186697 73.347597 
L 308.077146 73.347597 
L 303.967595 73.859994 
L 299.858044 73.859994 
L 295.748493 73.953583 
L 291.638941 73.954624 
L 287.52939 73.954624 
L 283.419839 73.954624 
L 279.310288 73.954624 
L 275.200736 73.954624 
L 271.091185 73.954624 
L 266.981634 73.954624 
L 262.872083 80.663364 
L 258.762532 80.663364 
L 254.65298 80.663364 
L 250.543429 80.663364 
L 246.433878 80.663364 
L 242.324327 80.663364 
L 238.214776 80.663364 
L 234.105224 80.663824 
L 229.995673 80.663824 
L 225.886122 85.693203 
L 221.776571 86.353169 
L 217.66702 86.346133 
L 213.557468 87.251255 
L 209.447917 86.605836 
L 205.338366 86.605836 
L 201.228815 86.605836 
L 197.119264 86.608322 
L 193.009712 95.711118 
L 188.900161 95.712022 
L 184.79061 95.712022 
L 180.681059 95.712312 
L 176.571507 95.729452 
L 172.461956 97.439425 
L 168.352405 97.715236 
L 164.242854 99.566426 
L 160.133303 99.567439 
L 156.023751 100.124446 
L 151.9142 100.124446 
L 147.804649 100.124446 
L 143.695098 103.601145 
L 139.585547 103.602292 
L 135.475995 103.6024 
L 131.366444 103.160678 
L 127.256893 103.167532 
L 123.147342 103.334184 
L 119.037791 104.7991 
L 114.928239 104.964051 
L 110.818688 115.290725 
L 106.709137 115.444349 
L 102.599586 117.870599 
L 98.490035 117.986244 
L 94.380483 120.831556 
L 90.270932 140.775262 
L 86.161381 143.640189 
L 82.05183 146.925006 
L 77.942278 153.597585 
L 73.832727 218.315114 
z
" clip-path="url(#p0d786bef54)" style="fill: #d62728; fill-opacity: 0.3"/>
   </g>
   <g id="matplotlib.axis_1">
    <g id="xtick_1">
     <g id="line2d_1">
      <defs>
       <path id="mf01350b6cd" d="M 0 0 
L 0 3.5 
" style="stroke: #000000; stroke-width: 0.8"/>
      </defs>
      <g>
       <use xlink:href="#mf01350b6cd" x="73.832727" y="307.584" style="stroke: #000000; stroke-width: 0.8"/>
      </g>
     </g>
     <g id="text_1">
      <!-- 0 -->
      <g transform="translate(70.651477 322.182437)scale(0.1 -0.1)">
       <defs>
        <path id="DejaVuSans-30" d="M 2034 4250 
Q 1547 4250 1301 3770 
Q 1056 3291 1056 2328 
Q 1056 1369 1301 889 
Q 1547 409 2034 409 
Q 2525 409 2770 889 
Q 3016 1369 3016 2328 
Q 3016 3291 2770 3770 
Q 2525 4250 2034 4250 
z
M 2034 4750 
Q 2819 4750 3233 4129 
Q 3647 3509 3647 2328 
Q 3647 1150 3233 529 
Q 2819 -91 2034 -91 
Q 1250 -91 836 529 
Q 422 1150 422 2328 
Q 422 3509 836 4129 
Q 1250 4750 2034 4750 
z
" transform="scale(0.015625)"/>
       </defs>
       <use xlink:href="#DejaVuSans-30"/>
      </g>
     </g>
    </g>
    <g id="xtick_2">
     <g id="line2d_2">
      <g>
       <use xlink:href="#mf01350b6cd" x="114.928239" y="307.584" style="stroke: #000000; stroke-width: 0.8"/>
      </g>
     </g>
     <g id="text_2">
      <!-- 10 -->
      <g transform="translate(108.565739 322.182437)scale(0.1 -0.1)">
       <defs>
        <path id="DejaVuSans-31" d="M 794 531 
L 1825 531 
L 1825 4091 
L 703 3866 
L 703 4441 
L 1819 4666 
L 2450 4666 
L 2450 531 
L 3481 531 
L 3481 0 
L 794 0 
L 794 531 
z
" transform="scale(0.015625)"/>
       </defs>
       <use xlink:href="#DejaVuSans-31"/>
       <use xlink:href="#DejaVuSans-30" x="63.623047"/>
      </g>
     </g>
    </g>
    <g id="xtick_3">
     <g id="line2d_3">
      <g>
       <use xlink:href="#mf01350b6cd" x="156.023751" y="307.584" style="stroke: #000000; stroke-width: 0.8"/>
      </g>
     </g>
     <g id="text_3">
      <!-- 20 -->
      <g transform="translate(149.661251 322.182437)scale(0.1 -0.1)">
       <defs>
        <path id="DejaVuSans-32" d="M 1228 531 
L 3431 531 
L 3431 0 
L 469 0 
L 469 531 
Q 828 903 1448 1529 
Q 2069 2156 2228 2338 
Q 2531 2678 2651 2914 
Q 2772 3150 2772 3378 
Q 2772 3750 2511 3984 
Q 2250 4219 1831 4219 
Q 1534 4219 1204 4116 
Q 875 4013 500 3803 
L 500 4441 
Q 881 4594 1212 4672 
Q 1544 4750 1819 4750 
Q 2544 4750 2975 4387 
Q 3406 4025 3406 3419 
Q 3406 3131 3298 2873 
Q 3191 2616 2906 2266 
Q 2828 2175 2409 1742 
Q 1991 1309 1228 531 
z
" transform="scale(0.015625)"/>
       </defs>
       <use xlink:href="#DejaVuSans-32"/>
       <use xlink:href="#DejaVuSans-30" x="63.623047"/>
      </g>
     </g>
    </g>
    <g id="xtick_4">
     <g id="line2d_4">
      <g>
       <use xlink:href="#mf01350b6cd" x="197.119264" y="307.584" style="stroke: #000000; stroke-width: 0.8"/>
      </g>
     </g>
     <g id="text_4">
      <!-- 30 -->
      <g transform="translate(190.756764 322.182437)scale(0.1 -0.1)">
       <defs>
        <path id="DejaVuSans-33" d="M 2597 2516 
Q 3050 2419 3304 2112 
Q 3559 1806 3559 1356 
Q 3559 666 3084 287 
Q 2609 -91 1734 -91 
Q 1441 -91 1130 -33 
Q 819 25 488 141 
L 488 750 
Q 750 597 1062 519 
Q 1375 441 1716 441 
Q 2309 441 2620 675 
Q 2931 909 2931 1356 
Q 2931 1769 2642 2001 
Q 2353 2234 1838 2234 
L 1294 2234 
L 1294 2753 
L 1863 2753 
Q 2328 2753 2575 2939 
Q 2822 3125 2822 3475 
Q 2822 3834 2567 4026 
Q 2313 4219 1838 4219 
Q 1578 4219 1281 4162 
Q 984 4106 628 3988 
L 628 4550 
Q 988 4650 1302 4700 
Q 1616 4750 1894 4750 
Q 2613 4750 3031 4423 
Q 3450 4097 3450 3541 
Q 3450 3153 3228 2886 
Q 3006 2619 2597 2516 
z
" transform="scale(0.015625)"/>
       </defs>
       <use xlink:href="#DejaVuSans-33"/>
       <use xlink:href="#DejaVuSans-30" x="63.623047"/>
      </g>
     </g>
    </g>
    <g id="xtick_5">
     <g id="line2d_5">
      <g>
       <use xlink:href="#mf01350b6cd" x="238.214776" y="307.584" style="stroke: #000000; stroke-width: 0.8"/>
      </g>
     </g>
     <g id="text_5">
      <!-- 40 -->
      <g transform="translate(231.852276 322.182437)scale(0.1 -0.1)">
       <defs>
        <path id="DejaVuSans-34" d="M 2419 4116 
L 825 1625 
L 2419 1625 
L 2419 4116 
z
M 2253 4666 
L 3047 4666 
L 3047 1625 
L 3713 1625 
L 3713 1100 
L 3047 1100 
L 3047 0 
L 2419 0 
L 2419 1100 
L 313 1100 
L 313 1709 
L 2253 4666 
z
" transform="scale(0.015625)"/>
       </defs>
       <use xlink:href="#DejaVuSans-34"/>
       <use xlink:href="#DejaVuSans-30" x="63.623047"/>
      </g>
     </g>
    </g>
    <g id="xtick_6">
     <g id="line2d_6">
      <g>
       <use xlink:href="#mf01350b6cd" x="279.310288" y="307.584" style="stroke: #000000; stroke-width: 0.8"/>
      </g>
     </g>
     <g id="text_6">
      <!-- 50 -->
      <g transform="translate(272.947788 322.182437)scale(0.1 -0.1)">
       <defs>
        <path id="DejaVuSans-35" d="M 691 4666 
L 3169 4666 
L 3169 4134 
L 1269 4134 
L 1269 2991 
Q 1406 3038 1543 3061 
Q 1681 3084 1819 3084 
Q 2600 3084 3056 2656 
Q 3513 2228 3513 1497 
Q 3513 744 3044 326 
Q 2575 -91 1722 -91 
Q 1428 -91 1123 -41 
Q 819 9 494 109 
L 494 744 
Q 775 591 1075 516 
Q 1375 441 1709 441 
Q 2250 441 2565 725 
Q 2881 1009 2881 1497 
Q 2881 1984 2565 2268 
Q 2250 2553 1709 2553 
Q 1456 2553 1204 2497 
Q 953 2441 691 2322 
L 691 4666 
z
" transform="scale(0.015625)"/>
       </defs>
       <use xlink:href="#DejaVuSans-35"/>
       <use xlink:href="#DejaVuSans-30" x="63.623047"/>
      </g>
     </g>
    </g>
    <g id="xtick_7">
     <g id="line2d_7">
      <g>
       <use xlink:href="#mf01350b6cd" x="320.4058" y="307.584" style="stroke: #000000; stroke-width: 0.8"/>
      </g>
     </g>
     <g id="text_7">
      <!-- 60 -->
      <g transform="translate(314.0433 322.182437)scale(0.1 -0.1)">
       <defs>
        <path id="DejaVuSans-36" d="M 2113 2584 
Q 1688 2584 1439 2293 
Q 1191 2003 1191 1497 
Q 1191 994 1439 701 
Q 1688 409 2113 409 
Q 2538 409 2786 701 
Q 3034 994 3034 1497 
Q 3034 2003 2786 2293 
Q 2538 2584 2113 2584 
z
M 3366 4563 
L 3366 3988 
Q 3128 4100 2886 4159 
Q 2644 4219 2406 4219 
Q 1781 4219 1451 3797 
Q 1122 3375 1075 2522 
Q 1259 2794 1537 2939 
Q 1816 3084 2150 3084 
Q 2853 3084 3261 2657 
Q 3669 2231 3669 1497 
Q 3669 778 3244 343 
Q 2819 -91 2113 -91 
Q 1303 -91 875 529 
Q 447 1150 447 2328 
Q 447 3434 972 4092 
Q 1497 4750 2381 4750 
Q 2619 4750 2861 4703 
Q 3103 4656 3366 4563 
z
" transform="scale(0.015625)"/>
       </defs>
       <use xlink:href="#DejaVuSans-36"/>
       <use xlink:href="#DejaVuSans-30" x="63.623047"/>
      </g>
     </g>
    </g>
    <g id="xtick_8">
     <g id="line2d_8">
      <g>
       <use xlink:href="#mf01350b6cd" x="361.501312" y="307.584" style="stroke: #000000; stroke-width: 0.8"/>
      </g>
     </g>
     <g id="text_8">
      <!-- 70 -->
      <g transform="translate(355.138812 322.182437)scale(0.1 -0.1)">
       <defs>
        <path id="DejaVuSans-37" d="M 525 4666 
L 3525 4666 
L 3525 4397 
L 1831 0 
L 1172 0 
L 2766 4134 
L 525 4134 
L 525 4666 
z
" transform="scale(0.015625)"/>
       </defs>
       <use xlink:href="#DejaVuSans-37"/>
       <use xlink:href="#DejaVuSans-30" x="63.623047"/>
      </g>
     </g>
    </g>
    <g id="xtick_9">
     <g id="line2d_9">
      <g>
       <use xlink:href="#mf01350b6cd" x="402.596824" y="307.584" style="stroke: #000000; stroke-width: 0.8"/>
      </g>
     </g>
     <g id="text_9">
      <!-- 80 -->
      <g transform="translate(396.234324 322.182437)scale(0.1 -0.1)">
       <defs>
        <path id="DejaVuSans-38" d="M 2034 2216 
Q 1584 2216 1326 1975 
Q 1069 1734 1069 1313 
Q 1069 891 1326 650 
Q 1584 409 2034 409 
Q 2484 409 2743 651 
Q 3003 894 3003 1313 
Q 3003 1734 2745 1975 
Q 2488 2216 2034 2216 
z
M 1403 2484 
Q 997 2584 770 2862 
Q 544 3141 544 3541 
Q 544 4100 942 4425 
Q 1341 4750 2034 4750 
Q 2731 4750 3128 4425 
Q 3525 4100 3525 3541 
Q 3525 3141 3298 2862 
Q 3072 2584 2669 2484 
Q 3125 2378 3379 2068 
Q 3634 1759 3634 1313 
Q 3634 634 3220 271 
Q 2806 -91 2034 -91 
Q 1263 -91 848 271 
Q 434 634 434 1313 
Q 434 1759 690 2068 
Q 947 2378 1403 2484 
z
M 1172 3481 
Q 1172 3119 1398 2916 
Q 1625 2713 2034 2713 
Q 2441 2713 2670 2916 
Q 2900 3119 2900 3481 
Q 2900 3844 2670 4047 
Q 2441 4250 2034 4250 
Q 1625 4250 1398 4047 
Q 1172 3844 1172 3481 
z
" transform="scale(0.015625)"/>
       </defs>
       <use xlink:href="#DejaVuSans-38"/>
       <use xlink:href="#DejaVuSans-30" x="63.623047"/>
      </g>
     </g>
    </g>
    <g id="text_10">
     <!-- generations -->
     <g transform="translate(206.362344 335.860562)scale(0.1 -0.1)">
      <defs>
       <path id="DejaVuSans-67" d="M 2906 1791 
Q 2906 2416 2648 2759 
Q 2391 3103 1925 3103 
Q 1463 3103 1205 2759 
Q 947 2416 947 1791 
Q 947 1169 1205 825 
Q 1463 481 1925 481 
Q 2391 481 2648 825 
Q 2906 1169 2906 1791 
z
M 3481 434 
Q 3481 -459 3084 -895 
Q 2688 -1331 1869 -1331 
Q 1566 -1331 1297 -1286 
Q 1028 -1241 775 -1147 
L 775 -588 
Q 1028 -725 1275 -790 
Q 1522 -856 1778 -856 
Q 2344 -856 2625 -561 
Q 2906 -266 2906 331 
L 2906 616 
Q 2728 306 2450 153 
Q 2172 0 1784 0 
Q 1141 0 747 490 
Q 353 981 353 1791 
Q 353 2603 747 3093 
Q 1141 3584 1784 3584 
Q 2172 3584 2450 3431 
Q 2728 3278 2906 2969 
L 2906 3500 
L 3481 3500 
L 3481 434 
z
" transform="scale(0.015625)"/>
       <path id="DejaVuSans-65" d="M 3597 1894 
L 3597 1613 
L 953 1613 
Q 991 1019 1311 708 
Q 1631 397 2203 397 
Q 2534 397 2845 478 
Q 3156 559 3463 722 
L 3463 178 
Q 3153 47 2828 -22 
Q 2503 -91 2169 -91 
Q 1331 -91 842 396 
Q 353 884 353 1716 
Q 353 2575 817 3079 
Q 1281 3584 2069 3584 
Q 2775 3584 3186 3129 
Q 3597 2675 3597 1894 
z
M 3022 2063 
Q 3016 2534 2758 2815 
Q 2500 3097 2075 3097 
Q 1594 3097 1305 2825 
Q 1016 2553 972 2059 
L 3022 2063 
z
" transform="scale(0.015625)"/>
       <path id="DejaVuSans-6e" d="M 3513 2113 
L 3513 0 
L 2938 0 
L 2938 2094 
Q 2938 2591 2744 2837 
Q 2550 3084 2163 3084 
Q 1697 3084 1428 2787 
Q 1159 2491 1159 1978 
L 1159 0 
L 581 0 
L 581 3500 
L 1159 3500 
L 1159 2956 
Q 1366 3272 1645 3428 
Q 1925 3584 2291 3584 
Q 2894 3584 3203 3211 
Q 3513 2838 3513 2113 
z
" transform="scale(0.015625)"/>
       <path id="DejaVuSans-72" d="M 2631 2963 
Q 2534 3019 2420 3045 
Q 2306 3072 2169 3072 
Q 1681 3072 1420 2755 
Q 1159 2438 1159 1844 
L 1159 0 
L 581 0 
L 581 3500 
L 1159 3500 
L 1159 2956 
Q 1341 3275 1631 3429 
Q 1922 3584 2338 3584 
Q 2397 3584 2469 3576 
Q 2541 3569 2628 3553 
L 2631 2963 
z
" transform="scale(0.015625)"/>
       <path id="DejaVuSans-61" d="M 2194 1759 
Q 1497 1759 1228 1600 
Q 959 1441 959 1056 
Q 959 750 1161 570 
Q 1363 391 1709 391 
Q 2188 391 2477 730 
Q 2766 1069 2766 1631 
L 2766 1759 
L 2194 1759 
z
M 3341 1997 
L 3341 0 
L 2766 0 
L 2766 531 
Q 2569 213 2275 61 
Q 1981 -91 1556 -91 
Q 1019 -91 701 211 
Q 384 513 384 1019 
Q 384 1609 779 1909 
Q 1175 2209 1959 2209 
L 2766 2209 
L 2766 2266 
Q 2766 2663 2505 2880 
Q 2244 3097 1772 3097 
Q 1472 3097 1187 3025 
Q 903 2953 641 2809 
L 641 3341 
Q 956 3463 1253 3523 
Q 1550 3584 1831 3584 
Q 2591 3584 2966 3190 
Q 3341 2797 3341 1997 
z
" transform="scale(0.015625)"/>
       <path id="DejaVuSans-74" d="M 1172 4494 
L 1172 3500 
L 2356 3500 
L 2356 3053 
L 1172 3053 
L 1172 1153 
Q 1172 725 1289 603 
Q 1406 481 1766 481 
L 2356 481 
L 2356 0 
L 1766 0 
Q 1100 0 847 248 
Q 594 497 594 1153 
L 594 3053 
L 172 3053 
L 172 3500 
L 594 3500 
L 594 4494 
L 1172 4494 
z
" transform="scale(0.015625)"/>
       <path id="DejaVuSans-69" d="M 603 3500 
L 1178 3500 
L 1178 0 
L 603 0 
L 603 3500 
z
M 603 4863 
L 1178 4863 
L 1178 4134 
L 603 4134 
L 603 4863 
z
" transform="scale(0.015625)"/>
       <path id="DejaVuSans-6f" d="M 1959 3097 
Q 1497 3097 1228 2736 
Q 959 2375 959 1747 
Q 959 1119 1226 758 
Q 1494 397 1959 397 
Q 2419 397 2687 759 
Q 2956 1122 2956 1747 
Q 2956 2369 2687 2733 
Q 2419 3097 1959 3097 
z
M 1959 3584 
Q 2709 3584 3137 3096 
Q 3566 2609 3566 1747 
Q 3566 888 3137 398 
Q 2709 -91 1959 -91 
Q 1206 -91 779 398 
Q 353 888 353 1747 
Q 353 2609 779 3096 
Q 1206 3584 1959 3584 
z
" transform="scale(0.015625)"/>
       <path id="DejaVuSans-73" d="M 2834 3397 
L 2834 2853 
Q 2591 2978 2328 3040 
Q 2066 3103 1784 3103 
Q 1356 3103 1142 2972 
Q 928 2841 928 2578 
Q 928 2378 1081 2264 
Q 1234 2150 1697 2047 
L 1894 2003 
Q 2506 1872 2764 1633 
Q 3022 1394 3022 966 
Q 3022 478 2636 193 
Q 2250 -91 1575 -91 
Q 1294 -91 989 -36 
Q 684 19 347 128 
L 347 722 
Q 666 556 975 473 
Q 1284 391 1588 391 
Q 1994 391 2212 530 
Q 2431 669 2431 922 
Q 2431 1156 2273 1281 
Q 2116 1406 1581 1522 
L 1381 1569 
Q 847 1681 609 1914 
Q 372 2147 372 2553 
Q 372 3047 722 3315 
Q 1072 3584 1716 3584 
Q 2034 3584 2315 3537 
Q 2597 3491 2834 3397 
z
" transform="scale(0.015625)"/>
      </defs>
      <use xlink:href="#DejaVuSans-67"/>
      <use xlink:href="#DejaVuSans-65" x="63.476562"/>
      <use xlink:href="#DejaVuSans-6e" x="125"/>
      <use xlink:href="#DejaVuSans-65" x="188.378906"/>
      <use xlink:href="#DejaVuSans-72" x="249.902344"/>
      <use xlink:href="#DejaVuSans-61" x="291.015625"/>
      <use xlink:href="#DejaVuSans-74" x="352.294922"/>
      <use xlink:href="#DejaVuSans-69" x="391.503906"/>
      <use xlink:href="#DejaVuSans-6f" x="419.287109"/>
      <use xlink:href="#DejaVuSans-6e" x="480.46875"/>
      <use xlink:href="#DejaVuSans-73" x="543.847656"/>
     </g>
    </g>
   </g>
   <g id="matplotlib.axis_2">
    <g id="ytick_1">
     <g id="line2d_10">
      <defs>
       <path id="m0579e36f26" d="M 0 0 
L -3.5 0 
" style="stroke: #000000; stroke-width: 0.8"/>
      </defs>
      <g>
       <use xlink:href="#m0579e36f26" x="57.6" y="284.090428" style="stroke: #000000; stroke-width: 0.8"/>
      </g>
     </g>
     <g id="text_11">
      <!-- 0 -->
      <g transform="translate(44.2375 287.889646)scale(0.1 -0.1)">
       <use xlink:href="#DejaVuSans-30"/>
      </g>
     </g>
    </g>
    <g id="ytick_2">
     <g id="line2d_11">
      <g>
       <use xlink:href="#m0579e36f26" x="57.6" y="233.202969" style="stroke: #000000; stroke-width: 0.8"/>
      </g>
     </g>
     <g id="text_12">
      <!-- 20 -->
      <g transform="translate(37.875 237.002188)scale(0.1 -0.1)">
       <use xlink:href="#DejaVuSans-32"/>
       <use xlink:href="#DejaVuSans-30" x="63.623047"/>
      </g>
     </g>
    </g>
    <g id="ytick_3">
     <g id="line2d_12">
      <g>
       <use xlink:href="#m0579e36f26" x="57.6" y="182.315511" style="stroke: #000000; stroke-width: 0.8"/>
      </g>
     </g>
     <g id="text_13">
      <!-- 40 -->
      <g transform="translate(37.875 186.11473)scale(0.1 -0.1)">
       <use xlink:href="#DejaVuSans-34"/>
       <use xlink:href="#DejaVuSans-30" x="63.623047"/>
      </g>
     </g>
    </g>
    <g id="ytick_4">
     <g id="line2d_13">
      <g>
       <use xlink:href="#m0579e36f26" x="57.6" y="131.428053" style="stroke: #000000; stroke-width: 0.8"/>
      </g>
     </g>
     <g id="text_14">
      <!-- 60 -->
      <g transform="translate(37.875 135.227271)scale(0.1 -0.1)">
       <use xlink:href="#DejaVuSans-36"/>
       <use xlink:href="#DejaVuSans-30" x="63.623047"/>
      </g>
     </g>
    </g>
    <g id="ytick_5">
     <g id="line2d_14">
      <g>
       <use xlink:href="#m0579e36f26" x="57.6" y="80.540594" style="stroke: #000000; stroke-width: 0.8"/>
      </g>
     </g>
     <g id="text_15">
      <!-- 80 -->
      <g transform="translate(37.875 84.339813)scale(0.1 -0.1)">
       <use xlink:href="#DejaVuSans-38"/>
       <use xlink:href="#DejaVuSans-30" x="63.623047"/>
      </g>
     </g>
    </g>
    <g id="text_16">
     <!-- fitness -->
     <g transform="translate(31.795312 191.092062)rotate(-90)scale(0.1 -0.1)">
      <defs>
       <path id="DejaVuSans-66" d="M 2375 4863 
L 2375 4384 
L 1825 4384 
Q 1516 4384 1395 4259 
Q 1275 4134 1275 3809 
L 1275 3500 
L 2222 3500 
L 2222 3053 
L 1275 3053 
L 1275 0 
L 697 0 
L 697 3053 
L 147 3053 
L 147 3500 
L 697 3500 
L 697 3744 
Q 697 4328 969 4595 
Q 1241 4863 1831 4863 
L 2375 4863 
z
" transform="scale(0.015625)"/>
      </defs>
      <use xlink:href="#DejaVuSans-66"/>
      <use xlink:href="#DejaVuSans-69" x="35.205078"/>
      <use xlink:href="#DejaVuSans-74" x="62.988281"/>
      <use xlink:href="#DejaVuSans-6e" x="102.197266"/>
      <use xlink:href="#DejaVuSans-65" x="165.576172"/>
      <use xlink:href="#DejaVuSans-73" x="227.099609"/>
      <use xlink:href="#DejaVuSans-73" x="279.199219"/>
     </g>
    </g>
   </g>
   <g id="line2d_15">
    <path d="M 73.832727 293.317767 
L 77.942278 286.723682 
L 82.05183 276.52684 
L 86.161381 268.905649 
L 90.270932 264.076186 
L 94.380483 256.130199 
L 98.490035 246.19553 
L 102.599586 241.146017 
L 106.709137 237.135203 
L 110.818688 232.834044 
L 114.928239 228.979104 
L 119.037791 226.469619 
L 123.147342 223.606124 
L 127.256893 217.844761 
L 131.366444 215.922419 
L 135.475995 213.98952 
L 139.585547 212.739162 
L 143.695098 210.695259 
L 147.804649 210.350795 
L 151.9142 208.695719 
L 156.023751 208.192639 
L 160.133303 206.456246 
L 164.242854 205.810828 
L 168.352405 203.080432 
L 172.461956 200.629966 
L 176.571507 200.558247 
L 180.681059 196.895501 
L 184.79061 195.170625 
L 188.900161 193.619622 
L 193.009712 194.193235 
L 197.119264 192.205599 
L 201.228815 191.712264 
L 205.338366 188.573882 
L 209.447917 188.173128 
L 213.557468 188.354866 
L 217.66702 185.322571 
L 221.776571 186.113232 
L 225.886122 186.364659 
L 229.995673 186.121363 
L 234.105224 181.92165 
L 238.214776 181.680979 
L 242.324327 180.642824 
L 246.433878 179.904585 
L 250.543429 179.220718 
L 254.65298 178.759213 
L 258.762532 177.005844 
L 262.872083 175.577962 
L 266.981634 174.479697 
L 271.091185 173.681542 
L 275.200736 171.988911 
L 279.310288 168.930533 
L 283.419839 168.809591 
L 287.52939 166.696047 
L 291.638941 165.718002 
L 295.748493 164.057024 
L 299.858044 163.338854 
L 303.967595 161.815309 
L 308.077146 161.545357 
L 312.186697 160.543654 
L 316.296249 160.246855 
L 320.4058 160.513702 
L 324.515351 160.327481 
L 328.624902 160.696407 
L 332.734453 160.642915 
L 336.844005 161.157743 
L 340.953556 160.252393 
L 345.063107 160.426318 
L 349.172658 159.541226 
L 353.282209 159.026926 
L 357.391761 157.551974 
L 361.501312 156.497644 
L 365.610863 156.740406 
L 369.720414 156.308837 
L 373.829965 155.622856 
L 377.939517 154.733061 
L 382.049068 154.678948 
L 386.158619 153.233173 
L 390.26817 151.602422 
L 394.377722 150.668389 
L 398.487273 150.765858 
" clip-path="url(#p0d786bef54)" style="fill: none; stroke: #1f77b4; stroke-width: 1.5; stroke-linecap: square"/>
   </g>
   <g id="line2d_16">
    <path d="M 73.832727 218.023968 
L 77.942278 204.209226 
L 82.05183 188.746469 
L 86.161381 172.821964 
L 90.270932 163.493269 
L 94.380483 161.40272 
L 98.490035 146.98465 
L 102.599586 137.951983 
L 106.709137 137.877614 
L 110.818688 131.131768 
L 114.928239 121.918538 
L 119.037791 112.832339 
L 123.147342 110.459001 
L 127.256893 103.833563 
L 131.366444 101.737397 
L 135.475995 101.737397 
L 139.585547 97.141411 
L 143.695098 97.141411 
L 147.804649 96.963634 
L 151.9142 94.752493 
L 156.023751 90.129741 
L 160.133303 90.129741 
L 164.242854 87.468988 
L 168.352405 87.468988 
L 172.461956 87.468988 
L 176.571507 86.722844 
L 180.681059 86.722844 
L 184.79061 86.722844 
L 188.900161 86.678086 
L 193.009712 86.678086 
L 197.119264 86.618159 
L 201.228815 86.576338 
L 205.338366 83.995995 
L 209.447917 83.995995 
L 213.557468 83.960225 
L 217.66702 83.960225 
L 221.776571 83.960225 
L 225.886122 83.960225 
L 229.995673 83.527212 
L 234.105224 78.415488 
L 238.214776 75.853786 
L 242.324327 75.720243 
L 246.433878 75.260068 
L 250.543429 73.013105 
L 254.65298 72.966331 
L 258.762532 70.119198 
L 262.872083 69.8121 
L 266.981634 69.524823 
L 271.091185 69.460381 
L 275.200736 69.460381 
L 279.310288 69.460381 
L 283.419839 69.251684 
L 287.52939 69.251684 
L 291.638941 66.702584 
L 295.748493 66.687318 
L 299.858044 66.687318 
L 303.967595 66.687318 
L 308.077146 66.687318 
L 312.186697 66.687318 
L 316.296249 66.147565 
L 320.4058 65.216024 
L 324.515351 64.114142 
L 328.624902 64.114142 
L 332.734453 64.114142 
L 336.844005 64.08361 
L 340.953556 63.888736 
L 345.063107 63.888736 
L 349.172658 63.888736 
L 353.282209 63.689343 
L 357.391761 63.689343 
L 361.501312 63.689343 
L 365.610863 63.689343 
L 369.720414 63.689343 
L 373.829965 63.689343 
L 377.939517 63.689343 
L 382.049068 63.689343 
L 386.158619 63.689343 
L 390.26817 63.689343 
L 394.377722 63.689343 
L 398.487273 63.689343 
" clip-path="url(#p0d786bef54)" style="fill: none; stroke-dasharray: 5.55,2.4; stroke-dashoffset: 0; stroke: #ff7f0e; stroke-width: 1.5"/>
   </g>
   <g id="line2d_17">
    <path d="M 73.832727 292.897702 
L 77.942278 287.826588 
L 82.05183 284.185704 
L 86.161381 282.394909 
L 90.270932 278.143697 
L 94.380483 272.674282 
L 98.490035 270.231123 
L 102.599586 269.167688 
L 106.709137 269.160058 
L 110.818688 267.272661 
L 114.928239 266.336149 
L 119.037791 262.683732 
L 123.147342 261.890713 
L 127.256893 260.57453 
L 131.366444 260.18616 
L 135.475995 258.114424 
L 139.585547 255.555366 
L 143.695098 252.597005 
L 147.804649 251.900458 
L 151.9142 252.338184 
L 156.023751 252.953293 
L 160.133303 250.771377 
L 164.242854 250.295515 
L 168.352405 249.578114 
L 172.461956 247.986865 
L 176.571507 245.118139 
L 180.681059 248.408997 
L 184.79061 246.86394 
L 188.900161 246.604357 
L 193.009712 245.487064 
L 197.119264 244.618168 
L 201.228815 248.497376 
L 205.338366 240.985876 
L 209.447917 246.121172 
L 213.557468 238.175448 
L 217.66702 238.210513 
L 221.776571 236.240801 
L 225.886122 235.004419 
L 229.995673 234.923107 
L 234.105224 234.263763 
L 238.214776 236.102813 
L 242.324327 233.654251 
L 246.433878 231.799706 
L 250.543429 230.930302 
L 254.65298 231.65855 
L 258.762532 237.039861 
L 262.872083 235.334082 
L 266.981634 232.760238 
L 271.091185 232.272107 
L 275.200736 235.456995 
L 279.310288 229.862355 
L 283.419839 231.605469 
L 287.52939 228.621437 
L 291.638941 227.96841 
L 295.748493 225.566595 
L 299.858044 225.344503 
L 303.967595 228.01394 
L 308.077146 227.948106 
L 312.186697 225.141926 
L 316.296249 222.791397 
L 320.4058 221.777539 
L 324.515351 223.160513 
L 328.624902 220.908218 
L 332.734453 222.216895 
L 336.844005 225.531514 
L 340.953556 221.674797 
L 345.063107 224.136825 
L 349.172658 223.012737 
L 353.282209 219.394527 
L 357.391761 220.777207 
L 361.501312 219.686545 
L 365.610863 220.115341 
L 369.720414 221.129118 
L 373.829965 222.512717 
L 377.939517 217.225134 
L 382.049068 220.813791 
L 386.158619 218.561475 
L 390.26817 215.616087 
L 394.377722 212.639913 
L 398.487273 215.514288 
" clip-path="url(#p0d786bef54)" style="fill: none; stroke: #2ca02c; stroke-width: 1.5; stroke-linecap: square"/>
   </g>
   <g id="line2d_18">
    <path d="M 73.832727 245.267851 
L 77.942278 208.721313 
L 82.05183 197.965221 
L 86.161381 193.473728 
L 90.270932 184.238289 
L 94.380483 161.163635 
L 98.490035 154.529269 
L 102.599586 154.322406 
L 106.709137 152.131089 
L 110.818688 147.659532 
L 114.928239 140.8875 
L 119.037791 138.570088 
L 123.147342 136.150343 
L 127.256893 135.966863 
L 131.366444 135.938675 
L 135.475995 133.642752 
L 139.585547 133.641685 
L 143.695098 133.640966 
L 147.804649 129.066574 
L 151.9142 129.066574 
L 156.023751 129.066574 
L 160.133303 126.776639 
L 164.242854 126.775917 
L 168.352405 122.499634 
L 172.461956 122.273827 
L 176.571507 120.012381 
L 180.681059 119.997718 
L 184.79061 119.996647 
L 188.900161 119.996647 
L 193.009712 119.995879 
L 197.119264 115.327534 
L 201.228815 115.315525 
L 205.338366 115.315525 
L 209.447917 115.315525 
L 213.557468 113.111838 
L 217.66702 110.891767 
L 221.776571 110.829972 
L 225.886122 108.557227 
L 229.995673 106.144223 
L 234.105224 106.144223 
L 238.214776 106.143485 
L 242.324327 106.143485 
L 246.433878 106.143485 
L 250.543429 106.143485 
L 254.65298 106.143485 
L 258.762532 106.143485 
L 262.872083 106.143485 
L 266.981634 101.53531 
L 271.091185 101.53531 
L 275.200736 101.53531 
L 279.310288 101.53531 
L 283.419839 101.53531 
L 287.52939 101.53531 
L 291.638941 101.53531 
L 295.748493 101.53315 
L 299.858044 101.490224 
L 303.967595 101.490224 
L 308.077146 101.253273 
L 312.186697 101.253273 
L 316.296249 101.253273 
L 320.4058 101.253273 
L 324.515351 101.237622 
L 328.624902 101.237622 
L 332.734453 101.210576 
L 336.844005 101.210576 
L 340.953556 99.049422 
L 345.063107 99.049422 
L 349.172658 99.049422 
L 353.282209 99.049422 
L 357.391761 99.049422 
L 361.501312 99.049422 
L 365.610863 99.049422 
L 369.720414 99.049422 
L 373.829965 99.049422 
L 377.939517 99.045803 
L 382.049068 99.045803 
L 386.158619 99.045803 
L 390.26817 99.033474 
L 394.377722 99.033474 
L 398.487273 99.033474 
" clip-path="url(#p0d786bef54)" style="fill: none; stroke-dasharray: 5.55,2.4; stroke-dashoffset: 0; stroke: #d62728; stroke-width: 1.5"/>
   </g>
   <g id="patch_3">
    <path d="M 57.6 307.584 
L 57.6 41.472 
" style="fill: none; stroke: #000000; stroke-width: 0.8; stroke-linejoin: miter; stroke-linecap: square"/>
   </g>
   <g id="patch_4">
    <path d="M 414.72 307.584 
L 414.72 41.472 
" style="fill: none; stroke: #000000; stroke-width: 0.8; stroke-linejoin: miter; stroke-linecap: square"/>
   </g>
   <g id="patch_5">
    <path d="M 57.6 307.584 
L 414.72 307.584 
" style="fill: none; stroke: #000000; stroke-width: 0.8; stroke-linejoin: miter; stroke-linecap: square"/>
   </g>
   <g id="patch_6">
    <path d="M 57.6 41.472 
L 414.72 41.472 
" style="fill: none; stroke: #000000; stroke-width: 0.8; stroke-linejoin: miter; stroke-linecap: square"/>
   </g>
   <g id="text_17">
    <!-- enemy set [6,8] -->
    <g transform="translate(188.370937 35.472)scale(0.12 -0.12)">
     <defs>
      <path id="DejaVuSans-6d" d="M 3328 2828 
Q 3544 3216 3844 3400 
Q 4144 3584 4550 3584 
Q 5097 3584 5394 3201 
Q 5691 2819 5691 2113 
L 5691 0 
L 5113 0 
L 5113 2094 
Q 5113 2597 4934 2840 
Q 4756 3084 4391 3084 
Q 3944 3084 3684 2787 
Q 3425 2491 3425 1978 
L 3425 0 
L 2847 0 
L 2847 2094 
Q 2847 2600 2669 2842 
Q 2491 3084 2119 3084 
Q 1678 3084 1418 2786 
Q 1159 2488 1159 1978 
L 1159 0 
L 581 0 
L 581 3500 
L 1159 3500 
L 1159 2956 
Q 1356 3278 1631 3431 
Q 1906 3584 2284 3584 
Q 2666 3584 2933 3390 
Q 3200 3197 3328 2828 
z
" transform="scale(0.015625)"/>
      <path id="DejaVuSans-79" d="M 2059 -325 
Q 1816 -950 1584 -1140 
Q 1353 -1331 966 -1331 
L 506 -1331 
L 506 -850 
L 844 -850 
Q 1081 -850 1212 -737 
Q 1344 -625 1503 -206 
L 1606 56 
L 191 3500 
L 800 3500 
L 1894 763 
L 2988 3500 
L 3597 3500 
L 2059 -325 
z
" transform="scale(0.015625)"/>
      <path id="DejaVuSans-20" transform="scale(0.015625)"/>
      <path id="DejaVuSans-5b" d="M 550 4863 
L 1875 4863 
L 1875 4416 
L 1125 4416 
L 1125 -397 
L 1875 -397 
L 1875 -844 
L 550 -844 
L 550 4863 
z
" transform="scale(0.015625)"/>
      <path id="DejaVuSans-2c" d="M 750 794 
L 1409 794 
L 1409 256 
L 897 -744 
L 494 -744 
L 750 256 
L 750 794 
z
" transform="scale(0.015625)"/>
      <path id="DejaVuSans-5d" d="M 1947 4863 
L 1947 -844 
L 622 -844 
L 622 -397 
L 1369 -397 
L 1369 4416 
L 622 4416 
L 622 4863 
L 1947 4863 
z
" transform="scale(0.015625)"/>
     </defs>
     <use xlink:href="#DejaVuSans-65"/>
     <use xlink:href="#DejaVuSans-6e" x="61.523438"/>
     <use xlink:href="#DejaVuSans-65" x="124.902344"/>
     <use xlink:href="#DejaVuSans-6d" x="186.425781"/>
     <use xlink:href="#DejaVuSans-79" x="283.837891"/>
     <use xlink:href="#DejaVuSans-20" x="343.017578"/>
     <use xlink:href="#DejaVuSans-73" x="374.804688"/>
     <use xlink:href="#DejaVuSans-65" x="426.904297"/>
     <use xlink:href="#DejaVuSans-74" x="488.427734"/>
     <use xlink:href="#DejaVuSans-20" x="527.636719"/>
     <use xlink:href="#DejaVuSans-5b" x="559.423828"/>
     <use xlink:href="#DejaVuSans-36" x="598.4375"/>
     <use xlink:href="#DejaVuSans-2c" x="662.060547"/>
     <use xlink:href="#DejaVuSans-38" x="693.847656"/>
     <use xlink:href="#DejaVuSans-5d" x="757.470703"/>
    </g>
   </g>
   <g id="legend_1">
    <g id="patch_7">
     <path d="M 309.937187 302.584 
L 407.72 302.584 
Q 409.72 302.584 409.72 300.584 
L 409.72 242.8715 
Q 409.72 240.8715 407.72 240.8715 
L 309.937187 240.8715 
Q 307.937187 240.8715 307.937187 242.8715 
L 307.937187 300.584 
Q 307.937187 302.584 309.937187 302.584 
z
" style="fill: #ffffff; opacity: 0.8; stroke: #cccccc; stroke-linejoin: miter"/>
    </g>
    <g id="line2d_19">
     <path d="M 311.937187 248.969937 
L 321.937187 248.969937 
L 331.937187 248.969937 
" style="fill: none; stroke: #1f77b4; stroke-width: 1.5; stroke-linecap: square"/>
    </g>
    <g id="text_18">
     <!-- pymoo mean -->
     <g transform="translate(339.937187 252.469937)scale(0.1 -0.1)">
      <defs>
       <path id="DejaVuSans-70" d="M 1159 525 
L 1159 -1331 
L 581 -1331 
L 581 3500 
L 1159 3500 
L 1159 2969 
Q 1341 3281 1617 3432 
Q 1894 3584 2278 3584 
Q 2916 3584 3314 3078 
Q 3713 2572 3713 1747 
Q 3713 922 3314 415 
Q 2916 -91 2278 -91 
Q 1894 -91 1617 61 
Q 1341 213 1159 525 
z
M 3116 1747 
Q 3116 2381 2855 2742 
Q 2594 3103 2138 3103 
Q 1681 3103 1420 2742 
Q 1159 2381 1159 1747 
Q 1159 1113 1420 752 
Q 1681 391 2138 391 
Q 2594 391 2855 752 
Q 3116 1113 3116 1747 
z
" transform="scale(0.015625)"/>
      </defs>
      <use xlink:href="#DejaVuSans-70"/>
      <use xlink:href="#DejaVuSans-79" x="63.476562"/>
      <use xlink:href="#DejaVuSans-6d" x="122.65625"/>
      <use xlink:href="#DejaVuSans-6f" x="220.068359"/>
      <use xlink:href="#DejaVuSans-6f" x="281.25"/>
      <use xlink:href="#DejaVuSans-20" x="342.431641"/>
      <use xlink:href="#DejaVuSans-6d" x="374.21875"/>
      <use xlink:href="#DejaVuSans-65" x="471.630859"/>
      <use xlink:href="#DejaVuSans-61" x="533.154297"/>
      <use xlink:href="#DejaVuSans-6e" x="594.433594"/>
     </g>
    </g>
    <g id="line2d_20">
     <path d="M 311.937187 263.648062 
L 321.937187 263.648062 
L 331.937187 263.648062 
" style="fill: none; stroke-dasharray: 5.55,2.4; stroke-dashoffset: 0; stroke: #ff7f0e; stroke-width: 1.5"/>
    </g>
    <g id="text_19">
     <!-- pymoo max -->
     <g transform="translate(339.937187 267.148062)scale(0.1 -0.1)">
      <defs>
       <path id="DejaVuSans-78" d="M 3513 3500 
L 2247 1797 
L 3578 0 
L 2900 0 
L 1881 1375 
L 863 0 
L 184 0 
L 1544 1831 
L 300 3500 
L 978 3500 
L 1906 2253 
L 2834 3500 
L 3513 3500 
z
" transform="scale(0.015625)"/>
      </defs>
      <use xlink:href="#DejaVuSans-70"/>
      <use xlink:href="#DejaVuSans-79" x="63.476562"/>
      <use xlink:href="#DejaVuSans-6d" x="122.65625"/>
      <use xlink:href="#DejaVuSans-6f" x="220.068359"/>
      <use xlink:href="#DejaVuSans-6f" x="281.25"/>
      <use xlink:href="#DejaVuSans-20" x="342.431641"/>
      <use xlink:href="#DejaVuSans-6d" x="374.21875"/>
      <use xlink:href="#DejaVuSans-61" x="471.630859"/>
      <use xlink:href="#DejaVuSans-78" x="532.910156"/>
     </g>
    </g>
    <g id="line2d_21">
     <path d="M 311.937187 278.326187 
L 321.937187 278.326187 
L 331.937187 278.326187 
" style="fill: none; stroke: #2ca02c; stroke-width: 1.5; stroke-linecap: square"/>
    </g>
    <g id="text_20">
     <!-- incest mean -->
     <g transform="translate(339.937187 281.826187)scale(0.1 -0.1)">
      <defs>
       <path id="DejaVuSans-63" d="M 3122 3366 
L 3122 2828 
Q 2878 2963 2633 3030 
Q 2388 3097 2138 3097 
Q 1578 3097 1268 2742 
Q 959 2388 959 1747 
Q 959 1106 1268 751 
Q 1578 397 2138 397 
Q 2388 397 2633 464 
Q 2878 531 3122 666 
L 3122 134 
Q 2881 22 2623 -34 
Q 2366 -91 2075 -91 
Q 1284 -91 818 406 
Q 353 903 353 1747 
Q 353 2603 823 3093 
Q 1294 3584 2113 3584 
Q 2378 3584 2631 3529 
Q 2884 3475 3122 3366 
z
" transform="scale(0.015625)"/>
      </defs>
      <use xlink:href="#DejaVuSans-69"/>
      <use xlink:href="#DejaVuSans-6e" x="27.783203"/>
      <use xlink:href="#DejaVuSans-63" x="91.162109"/>
      <use xlink:href="#DejaVuSans-65" x="146.142578"/>
      <use xlink:href="#DejaVuSans-73" x="207.666016"/>
      <use xlink:href="#DejaVuSans-74" x="259.765625"/>
      <use xlink:href="#DejaVuSans-20" x="298.974609"/>
      <use xlink:href="#DejaVuSans-6d" x="330.761719"/>
      <use xlink:href="#DejaVuSans-65" x="428.173828"/>
      <use xlink:href="#DejaVuSans-61" x="489.697266"/>
      <use xlink:href="#DejaVuSans-6e" x="550.976562"/>
     </g>
    </g>
    <g id="line2d_22">
     <path d="M 311.937187 293.004312 
L 321.937187 293.004312 
L 331.937187 293.004312 
" style="fill: none; stroke-dasharray: 5.55,2.4; stroke-dashoffset: 0; stroke: #d62728; stroke-width: 1.5"/>
    </g>
    <g id="text_21">
     <!-- incest max -->
     <g transform="translate(339.937187 296.504312)scale(0.1 -0.1)">
      <use xlink:href="#DejaVuSans-69"/>
      <use xlink:href="#DejaVuSans-6e" x="27.783203"/>
      <use xlink:href="#DejaVuSans-63" x="91.162109"/>
      <use xlink:href="#DejaVuSans-65" x="146.142578"/>
      <use xlink:href="#DejaVuSans-73" x="207.666016"/>
      <use xlink:href="#DejaVuSans-74" x="259.765625"/>
      <use xlink:href="#DejaVuSans-20" x="298.974609"/>
      <use xlink:href="#DejaVuSans-6d" x="330.761719"/>
      <use xlink:href="#DejaVuSans-61" x="428.173828"/>
      <use xlink:href="#DejaVuSans-78" x="489.453125"/>
     </g>
    </g>
   </g>
  </g>
 </g>
 <defs>
  <clipPath id="p0d786bef54">
   <rect x="57.6" y="41.472" width="357.12" height="266.112"/>
  </clipPath>
 </defs>
</svg>
