<?xml version="1.0" encoding="utf-8" standalone="no"?>
<!DOCTYPE svg PUBLIC "-//W3C//DTD SVG 1.1//EN"
  "http://www.w3.org/Graphics/SVG/1.1/DTD/svg11.dtd">
<svg xmlns:xlink="http://www.w3.org/1999/xlink" width="460.8pt" height="345.6pt" viewBox="0 0 460.8 345.6" xmlns="http://www.w3.org/2000/svg" version="1.1">
 <metadata>
  <rdf:RDF xmlns:dc="http://purl.org/dc/elements/1.1/" xmlns:cc="http://creativecommons.org/ns#" xmlns:rdf="http://www.w3.org/1999/02/22-rdf-syntax-ns#">
   <cc:Work>
    <dc:type rdf:resource="http://purl.org/dc/dcmitype/StillImage"/>
    <dc:date>2022-10-13T23:32:57.043676</dc:date>
    <dc:format>image/svg+xml</dc:format>
    <dc:creator>
     <cc:Agent>
      <dc:title>Matplotlib v3.5.3, https://matplotlib.org/</dc:title>
     </cc:Agent>
    </dc:creator>
   </cc:Work>
  </rdf:RDF>
 </metadata>
 <defs>
  <style type="text/css">*{stroke-linejoin: round; stroke-linecap: butt}</style>
 </defs>
 <g id="figure_1">
  <g id="patch_1">
   <path d="M 0 345.6 
L 460.8 345.6 
L 460.8 0 
L 0 0 
z
" style="fill: #ffffff"/>
  </g>
  <g id="axes_1">
   <g id="patch_2">
    <path d="M 57.6 307.584 
L 414.72 307.584 
L 414.72 41.472 
L 57.6 41.472 
z
" style="fill: #ffffff"/>
   </g>
   <g id="PolyCollection_1">
    <path d="M 73.832727 287.989207 
L 73.832727 294.013017 
L 77.942278 279.339371 
L 82.05183 258.269679 
L 86.161381 252.00563 
L 90.270932 252.166214 
L 94.380483 251.286778 
L 98.490035 246.618574 
L 102.599586 244.944321 
L 106.709137 245.024391 
L 110.818688 243.86699 
L 114.928239 242.249098 
L 119.037791 240.04636 
L 123.147342 237.487568 
L 127.256893 236.463543 
L 131.366444 236.652706 
L 135.475995 234.879252 
L 139.585547 233.931535 
L 143.695098 230.820633 
L 147.804649 230.906479 
L 151.9142 228.057948 
L 156.023751 226.430781 
L 160.133303 223.695054 
L 164.242854 222.009067 
L 168.352405 220.996669 
L 172.461956 220.21887 
L 176.571507 214.663026 
L 180.681059 212.346051 
L 184.79061 209.807008 
L 188.900161 209.311802 
L 193.009712 207.823202 
L 197.119264 206.779568 
L 201.228815 207.044332 
L 205.338366 205.672961 
L 209.447917 200.775554 
L 213.557468 199.234496 
L 217.66702 197.655741 
L 221.776571 197.50653 
L 225.886122 198.170488 
L 229.995673 196.07705 
L 234.105224 195.257408 
L 238.214776 194.647072 
L 242.324327 192.842187 
L 246.433878 192.624762 
L 250.543429 189.734976 
L 254.65298 188.646399 
L 258.762532 188.539847 
L 262.872083 189.049967 
L 266.981634 189.970833 
L 271.091185 189.188282 
L 275.200736 187.927217 
L 279.310288 185.689842 
L 283.419839 184.578908 
L 287.52939 185.563938 
L 291.638941 183.601116 
L 295.748493 182.69905 
L 299.858044 182.336603 
L 303.967595 179.244334 
L 308.077146 178.425887 
L 312.186697 176.825796 
L 316.296249 174.00578 
L 320.4058 171.861186 
L 324.515351 171.01957 
L 328.624902 172.319431 
L 332.734453 172.522005 
L 336.844005 172.748454 
L 340.953556 171.621304 
L 345.063107 171.192233 
L 349.172658 171.114177 
L 353.282209 170.013858 
L 357.391761 169.166077 
L 361.501312 167.745408 
L 365.610863 169.794364 
L 369.720414 168.03759 
L 373.829965 168.919457 
L 377.939517 168.559512 
L 382.049068 168.046892 
L 386.158619 170.021957 
L 390.26817 172.053944 
L 394.377722 172.062377 
L 398.487273 170.303066 
L 398.487273 130.514656 
L 398.487273 130.514656 
L 394.377722 132.14049 
L 390.26817 130.117278 
L 386.158619 129.454706 
L 382.049068 131.231389 
L 377.939517 131.236448 
L 373.829965 134.082619 
L 369.720414 134.997772 
L 365.610863 136.415944 
L 361.501312 137.191392 
L 357.391761 138.3458 
L 353.282209 138.097669 
L 349.172658 136.974668 
L 345.063107 139.375993 
L 340.953556 139.513988 
L 336.844005 140.352127 
L 332.734453 138.553347 
L 328.624902 139.975136 
L 324.515351 140.200773 
L 320.4058 141.033064 
L 316.296249 140.246719 
L 312.186697 140.618204 
L 308.077146 141.664381 
L 303.967595 142.194028 
L 299.858044 143.61889 
L 295.748493 143.876777 
L 291.638941 144.330355 
L 287.52939 145.720893 
L 283.419839 145.07503 
L 279.310288 144.568456 
L 275.200736 146.736405 
L 271.091185 147.860562 
L 266.981634 150.080844 
L 262.872083 150.026602 
L 258.762532 149.117105 
L 254.65298 151.541386 
L 250.543429 151.066806 
L 246.433878 155.364864 
L 242.324327 157.511252 
L 238.214776 157.867714 
L 234.105224 159.791074 
L 229.995673 160.508024 
L 225.886122 158.838296 
L 221.776571 158.642843 
L 217.66702 157.477691 
L 213.557468 157.551173 
L 209.447917 158.372328 
L 205.338366 159.712682 
L 201.228815 160.830118 
L 197.119264 163.688549 
L 193.009712 167.732888 
L 188.900161 168.050468 
L 184.79061 171.091727 
L 180.681059 174.103442 
L 176.571507 172.697899 
L 172.461956 172.535016 
L 168.352405 178.932029 
L 164.242854 179.599717 
L 160.133303 178.601588 
L 156.023751 178.427208 
L 151.9142 178.831399 
L 147.804649 180.825682 
L 143.695098 184.066284 
L 139.585547 186.030738 
L 135.475995 187.019698 
L 131.366444 189.934099 
L 127.256893 192.536689 
L 123.147342 195.056737 
L 119.037791 203.274543 
L 114.928239 213.838932 
L 110.818688 221.622386 
L 106.709137 227.86817 
L 102.599586 232.081815 
L 98.490035 233.986013 
L 94.380483 238.4724 
L 90.270932 237.459655 
L 86.161381 240.343508 
L 82.05183 244.419067 
L 77.942278 266.909142 
L 73.832727 287.989207 
z
" clip-path="url(#p0a8bfa1bdd)" style="fill: #1f77b4; fill-opacity: 0.3"/>
   </g>
   <g id="PolyCollection_2">
    <path d="M 73.832727 207.013026 
L 73.832727 241.763467 
L 77.942278 227.352479 
L 82.05183 219.477305 
L 86.161381 202.915192 
L 90.270932 194.634928 
L 94.380483 194.610128 
L 98.490035 193.786521 
L 102.599586 193.786521 
L 106.709137 187.950484 
L 110.818688 165.177561 
L 114.928239 165.177561 
L 119.037791 165.73378 
L 123.147342 165.909606 
L 127.256893 159.309526 
L 131.366444 156.781285 
L 135.475995 156.780883 
L 139.585547 156.77999 
L 143.695098 146.238238 
L 147.804649 146.238238 
L 151.9142 146.238238 
L 156.023751 146.237985 
L 160.133303 131.862675 
L 164.242854 131.862675 
L 168.352405 131.845914 
L 172.461956 131.845914 
L 176.571507 120.066436 
L 180.681059 114.720095 
L 184.79061 114.740131 
L 188.900161 111.580202 
L 193.009712 111.572378 
L 197.119264 107.182147 
L 201.228815 107.182147 
L 205.338366 107.15398 
L 209.447917 106.965895 
L 213.557468 106.965895 
L 217.66702 106.944357 
L 221.776571 100.036591 
L 225.886122 100.036591 
L 229.995673 100.036591 
L 234.105224 100.136165 
L 238.214776 100.133276 
L 242.324327 93.70517 
L 246.433878 93.70517 
L 250.543429 93.70517 
L 254.65298 93.70517 
L 258.762532 93.70517 
L 262.872083 87.882423 
L 266.981634 87.879483 
L 271.091185 87.879483 
L 275.200736 87.865598 
L 279.310288 87.865598 
L 283.419839 87.865598 
L 287.52939 87.863425 
L 291.638941 87.863425 
L 295.748493 87.828919 
L 299.858044 87.828919 
L 303.967595 87.827869 
L 308.077146 87.827869 
L 312.186697 87.827869 
L 316.296249 85.377948 
L 320.4058 85.377948 
L 324.515351 85.337375 
L 328.624902 85.337375 
L 332.734453 85.337375 
L 336.844005 85.337375 
L 340.953556 85.337375 
L 345.063107 85.337375 
L 349.172658 85.337375 
L 353.282209 82.307502 
L 357.391761 82.301028 
L 361.501312 82.301028 
L 365.610863 82.301028 
L 369.720414 82.301028 
L 373.829965 82.291838 
L 377.939517 82.291838 
L 382.049068 82.291838 
L 386.158619 78.770924 
L 390.26817 78.770924 
L 394.377722 78.770924 
L 398.487273 78.770924 
L 398.487273 53.568 
L 398.487273 53.568 
L 394.377722 53.568 
L 390.26817 53.568 
L 386.158619 53.568 
L 382.049068 54.981862 
L 377.939517 54.981862 
L 373.829965 54.981862 
L 369.720414 55.030345 
L 365.610863 55.030345 
L 361.501312 55.030345 
L 357.391761 55.030345 
L 353.282209 55.029702 
L 349.172658 57.219016 
L 345.063107 57.219016 
L 340.953556 57.219016 
L 336.844005 57.219016 
L 332.734453 57.219016 
L 328.624902 57.219016 
L 324.515351 57.219016 
L 320.4058 57.5511 
L 316.296249 57.5511 
L 312.186697 59.823826 
L 308.077146 59.823826 
L 303.967595 59.823826 
L 299.858044 59.823928 
L 295.748493 59.823928 
L 291.638941 59.827161 
L 287.52939 59.827161 
L 283.419839 59.827386 
L 279.310288 59.827386 
L 275.200736 59.827386 
L 271.091185 59.828794 
L 266.981634 59.828794 
L 262.872083 59.829061 
L 258.762532 58.804481 
L 254.65298 58.804481 
L 250.543429 58.804481 
L 246.433878 58.804481 
L 242.324327 58.804481 
L 238.214776 63.481261 
L 234.105224 63.480672 
L 229.995673 64.32533 
L 225.886122 64.32533 
L 221.776571 64.32533 
L 217.66702 62.192556 
L 213.557468 62.191371 
L 209.447917 62.191371 
L 205.338366 62.167567 
L 201.228815 62.194656 
L 197.119264 62.194656 
L 193.009712 67.976548 
L 188.900161 67.976454 
L 184.79061 69.69975 
L 180.681059 74.960435 
L 176.571507 74.586702 
L 172.461956 77.916146 
L 168.352405 77.916146 
L 164.242854 77.915546 
L 160.133303 77.915546 
L 156.023751 77.98779 
L 151.9142 77.989918 
L 147.804649 77.989918 
L 143.695098 77.989918 
L 139.585547 81.175679 
L 135.475995 81.191167 
L 131.366444 81.191831 
L 127.256893 83.520566 
L 123.147342 91.458996 
L 119.037791 101.760399 
L 114.928239 107.151936 
L 110.818688 107.151936 
L 106.709137 108.352388 
L 102.599586 112.238117 
L 98.490035 112.238117 
L 94.380483 126.287108 
L 90.270932 126.28391 
L 86.161381 132.481232 
L 82.05183 172.014493 
L 77.942278 192.693256 
L 73.832727 207.013026 
z
" clip-path="url(#p0a8bfa1bdd)" style="fill: #ff7f0e; fill-opacity: 0.3"/>
   </g>
   <g id="PolyCollection_3">
    <path d="M 73.832727 287.920595 
L 73.832727 295.488 
L 77.942278 288.372556 
L 82.05183 281.911786 
L 86.161381 280.523554 
L 90.270932 275.08169 
L 94.380483 272.790952 
L 98.490035 267.420213 
L 102.599586 266.078123 
L 106.709137 263.497445 
L 110.818688 262.710328 
L 114.928239 260.088661 
L 119.037791 256.474298 
L 123.147342 257.792388 
L 127.256893 256.415332 
L 131.366444 252.288919 
L 135.475995 252.642269 
L 139.585547 250.218748 
L 143.695098 252.738331 
L 147.804649 253.097547 
L 151.9142 250.718343 
L 156.023751 250.737187 
L 160.133303 252.127012 
L 164.242854 250.492846 
L 168.352405 250.866011 
L 172.461956 252.845729 
L 176.571507 249.067569 
L 180.681059 247.566026 
L 184.79061 246.990537 
L 188.900161 245.423063 
L 193.009712 246.743744 
L 197.119264 244.264419 
L 201.228815 242.206134 
L 205.338366 242.774033 
L 209.447917 240.282697 
L 213.557468 241.153019 
L 217.66702 244.079332 
L 221.776571 243.476046 
L 225.886122 242.413352 
L 229.995673 241.295774 
L 234.105224 241.410885 
L 238.214776 235.841094 
L 242.324327 240.937161 
L 246.433878 240.769459 
L 250.543429 235.724338 
L 254.65298 238.902193 
L 258.762532 238.724209 
L 262.872083 242.308304 
L 266.981634 244.21138 
L 271.091185 238.948888 
L 275.200736 244.007129 
L 279.310288 240.148559 
L 283.419839 236.510404 
L 287.52939 238.59505 
L 291.638941 240.640566 
L 295.748493 244.995127 
L 299.858044 238.902024 
L 303.967595 244.8576 
L 308.077146 240.957352 
L 312.186697 236.860923 
L 316.296249 238.211435 
L 320.4058 237.145497 
L 324.515351 239.442685 
L 328.624902 239.676027 
L 332.734453 237.704399 
L 336.844005 232.344022 
L 340.953556 235.080901 
L 345.063107 234.564167 
L 349.172658 236.468242 
L 353.282209 238.45198 
L 357.391761 231.152287 
L 361.501312 233.900899 
L 365.610863 235.356531 
L 369.720414 232.453512 
L 373.829965 234.804746 
L 377.939517 236.191546 
L 382.049068 232.755493 
L 386.158619 237.025616 
L 390.26817 231.03893 
L 394.377722 231.191821 
L 398.487273 230.073842 
L 398.487273 190.830722 
L 398.487273 190.830722 
L 394.377722 188.732485 
L 390.26817 193.399555 
L 386.158619 194.288437 
L 382.049068 195.829526 
L 377.939517 199.844071 
L 373.829965 200.457573 
L 369.720414 197.624308 
L 365.610863 195.84474 
L 361.501312 207.044085 
L 357.391761 201.476332 
L 353.282209 200.537017 
L 349.172658 201.697449 
L 345.063107 200.552751 
L 340.953556 199.077828 
L 336.844005 202.812085 
L 332.734453 207.111944 
L 328.624902 208.27758 
L 324.515351 202.523876 
L 320.4058 203.611461 
L 316.296249 205.718252 
L 312.186697 206.442062 
L 308.077146 203.993987 
L 303.967595 207.484864 
L 299.858044 203.730973 
L 295.748493 203.716431 
L 291.638941 208.62903 
L 287.52939 211.679646 
L 283.419839 206.72781 
L 279.310288 212.911331 
L 275.200736 209.04401 
L 271.091185 212.273963 
L 266.981634 218.132586 
L 262.872083 215.288357 
L 258.762532 211.606065 
L 254.65298 212.313176 
L 250.543429 210.314084 
L 246.433878 216.288188 
L 242.324327 215.140008 
L 238.214776 218.550459 
L 234.105224 220.833198 
L 229.995673 222.760994 
L 225.886122 220.254386 
L 221.776571 220.83394 
L 217.66702 220.25753 
L 213.557468 222.25618 
L 209.447917 224.407119 
L 205.338366 224.126801 
L 201.228815 226.618987 
L 197.119264 227.480762 
L 193.009712 226.039222 
L 188.900161 225.864581 
L 184.79061 227.710481 
L 180.681059 225.060422 
L 176.571507 227.581541 
L 172.461956 231.018294 
L 168.352405 229.398451 
L 164.242854 230.374991 
L 160.133303 229.634594 
L 156.023751 231.848562 
L 151.9142 234.579424 
L 147.804649 234.747282 
L 143.695098 235.097445 
L 139.585547 231.270441 
L 135.475995 233.531797 
L 131.366444 235.73865 
L 127.256893 240.612402 
L 123.147342 241.788278 
L 119.037791 240.726451 
L 114.928239 244.682985 
L 110.818688 248.525668 
L 106.709137 249.576507 
L 102.599586 249.521664 
L 98.490035 250.038481 
L 94.380483 252.451973 
L 90.270932 255.088697 
L 86.161381 261.559159 
L 82.05183 266.672535 
L 77.942278 275.515449 
L 73.832727 287.920595 
z
" clip-path="url(#p0a8bfa1bdd)" style="fill: #2ca02c; fill-opacity: 0.3"/>
   </g>
   <g id="PolyCollection_4">
    <path d="M 73.832727 214.285254 
L 73.832727 233.206131 
L 77.942278 234.523698 
L 82.05183 236.281531 
L 86.161381 236.174215 
L 90.270932 228.756631 
L 94.380483 228.648395 
L 98.490035 217.259908 
L 102.599586 212.310982 
L 106.709137 212.310982 
L 110.818688 207.194143 
L 114.928239 207.194143 
L 119.037791 191.514613 
L 123.147342 191.514613 
L 127.256893 192.170423 
L 131.366444 192.170423 
L 135.475995 187.818469 
L 139.585547 182.27906 
L 143.695098 180.222976 
L 147.804649 180.222976 
L 151.9142 181.68645 
L 156.023751 181.68645 
L 160.133303 179.435234 
L 164.242854 179.435234 
L 168.352405 175.235172 
L 172.461956 175.235172 
L 176.571507 175.235172 
L 180.681059 175.230897 
L 184.79061 175.229822 
L 188.900161 175.098713 
L 193.009712 175.089468 
L 197.119264 170.872467 
L 201.228815 166.701817 
L 205.338366 162.08284 
L 209.447917 162.08284 
L 213.557468 162.009548 
L 217.66702 162.009548 
L 221.776571 162.009548 
L 225.886122 161.928139 
L 229.995673 161.928139 
L 234.105224 161.928139 
L 238.214776 161.928139 
L 242.324327 161.928139 
L 246.433878 158.276468 
L 250.543429 158.276468 
L 254.65298 158.157853 
L 258.762532 158.002774 
L 262.872083 158.002774 
L 266.981634 158.002774 
L 271.091185 158.002774 
L 275.200736 157.998679 
L 279.310288 151.752288 
L 283.419839 151.752288 
L 287.52939 151.733973 
L 291.638941 151.713485 
L 295.748493 151.713485 
L 299.858044 151.714199 
L 303.967595 151.01589 
L 308.077146 151.01589 
L 312.186697 146.511917 
L 316.296249 146.511917 
L 320.4058 146.511917 
L 324.515351 146.504659 
L 328.624902 146.470942 
L 332.734453 146.470942 
L 336.844005 146.470942 
L 340.953556 146.470942 
L 345.063107 146.470942 
L 349.172658 146.470942 
L 353.282209 146.470942 
L 357.391761 146.470942 
L 361.501312 146.470942 
L 365.610863 142.818816 
L 369.720414 142.818816 
L 373.829965 142.818816 
L 377.939517 142.818816 
L 382.049068 142.818816 
L 386.158619 142.818816 
L 390.26817 142.818638 
L 394.377722 142.818638 
L 398.487273 142.818638 
L 398.487273 75.080259 
L 398.487273 75.080259 
L 394.377722 75.080259 
L 390.26817 75.080259 
L 386.158619 75.081263 
L 382.049068 75.081263 
L 377.939517 75.081263 
L 373.829965 75.081263 
L 369.720414 75.081263 
L 365.610863 75.081263 
L 361.501312 86.163009 
L 357.391761 86.163009 
L 353.282209 86.163009 
L 349.172658 86.163009 
L 345.063107 86.163009 
L 340.953556 86.163009 
L 336.844005 86.163009 
L 332.734453 86.163009 
L 328.624902 86.163009 
L 324.515351 86.173382 
L 320.4058 86.175417 
L 316.296249 86.175417 
L 312.186697 86.175417 
L 308.077146 86.443426 
L 303.967595 86.443426 
L 299.858044 90.616952 
L 295.748493 90.625865 
L 291.638941 90.625865 
L 287.52939 90.62417 
L 283.419839 90.622638 
L 279.310288 90.622638 
L 275.200736 93.987591 
L 271.091185 93.987708 
L 266.981634 93.987708 
L 262.872083 93.987708 
L 258.762532 93.987708 
L 254.65298 93.991297 
L 250.543429 94.069255 
L 246.433878 94.069255 
L 242.324327 95.149612 
L 238.214776 95.149612 
L 234.105224 95.149612 
L 229.995673 95.149612 
L 225.886122 95.149612 
L 221.776571 95.15586 
L 217.66702 95.15586 
L 213.557468 95.15586 
L 209.447917 95.162135 
L 205.338366 95.162135 
L 201.228815 104.727721 
L 197.119264 110.222233 
L 193.009712 110.555096 
L 188.900161 110.572052 
L 184.79061 110.624633 
L 180.681059 110.625051 
L 176.571507 110.626711 
L 172.461956 110.626711 
L 168.352405 110.626711 
L 164.242854 111.244446 
L 160.133303 111.244446 
L 156.023751 113.664285 
L 151.9142 113.664285 
L 147.804649 119.967792 
L 143.695098 119.967792 
L 139.585547 128.341516 
L 135.475995 127.740835 
L 131.366444 127.468541 
L 127.256893 127.468541 
L 123.147342 132.950077 
L 119.037791 132.950077 
L 114.928239 140.84748 
L 110.818688 140.84748 
L 106.709137 140.445276 
L 102.599586 140.445276 
L 98.490035 149.114297 
L 94.380483 161.296928 
L 90.270932 161.349482 
L 86.161381 168.05938 
L 82.05183 168.074565 
L 77.942278 203.561927 
L 73.832727 214.285254 
z
" clip-path="url(#p0a8bfa1bdd)" style="fill: #d62728; fill-opacity: 0.3"/>
   </g>
   <g id="matplotlib.axis_1">
    <g id="xtick_1">
     <g id="line2d_1">
      <defs>
       <path id="m9ed7aaaf76" d="M 0 0 
L 0 3.5 
" style="stroke: #000000; stroke-width: 0.8"/>
      </defs>
      <g>
       <use xlink:href="#m9ed7aaaf76" x="73.832727" y="307.584" style="stroke: #000000; stroke-width: 0.8"/>
      </g>
     </g>
     <g id="text_1">
      <!-- 0 -->
      <g transform="translate(70.651477 322.182437)scale(0.1 -0.1)">
       <defs>
        <path id="DejaVuSans-30" d="M 2034 4250 
Q 1547 4250 1301 3770 
Q 1056 3291 1056 2328 
Q 1056 1369 1301 889 
Q 1547 409 2034 409 
Q 2525 409 2770 889 
Q 3016 1369 3016 2328 
Q 3016 3291 2770 3770 
Q 2525 4250 2034 4250 
z
M 2034 4750 
Q 2819 4750 3233 4129 
Q 3647 3509 3647 2328 
Q 3647 1150 3233 529 
Q 2819 -91 2034 -91 
Q 1250 -91 836 529 
Q 422 1150 422 2328 
Q 422 3509 836 4129 
Q 1250 4750 2034 4750 
z
" transform="scale(0.015625)"/>
       </defs>
       <use xlink:href="#DejaVuSans-30"/>
      </g>
     </g>
    </g>
    <g id="xtick_2">
     <g id="line2d_2">
      <g>
       <use xlink:href="#m9ed7aaaf76" x="114.928239" y="307.584" style="stroke: #000000; stroke-width: 0.8"/>
      </g>
     </g>
     <g id="text_2">
      <!-- 10 -->
      <g transform="translate(108.565739 322.182437)scale(0.1 -0.1)">
       <defs>
        <path id="DejaVuSans-31" d="M 794 531 
L 1825 531 
L 1825 4091 
L 703 3866 
L 703 4441 
L 1819 4666 
L 2450 4666 
L 2450 531 
L 3481 531 
L 3481 0 
L 794 0 
L 794 531 
z
" transform="scale(0.015625)"/>
       </defs>
       <use xlink:href="#DejaVuSans-31"/>
       <use xlink:href="#DejaVuSans-30" x="63.623047"/>
      </g>
     </g>
    </g>
    <g id="xtick_3">
     <g id="line2d_3">
      <g>
       <use xlink:href="#m9ed7aaaf76" x="156.023751" y="307.584" style="stroke: #000000; stroke-width: 0.8"/>
      </g>
     </g>
     <g id="text_3">
      <!-- 20 -->
      <g transform="translate(149.661251 322.182437)scale(0.1 -0.1)">
       <defs>
        <path id="DejaVuSans-32" d="M 1228 531 
L 3431 531 
L 3431 0 
L 469 0 
L 469 531 
Q 828 903 1448 1529 
Q 2069 2156 2228 2338 
Q 2531 2678 2651 2914 
Q 2772 3150 2772 3378 
Q 2772 3750 2511 3984 
Q 2250 4219 1831 4219 
Q 1534 4219 1204 4116 
Q 875 4013 500 3803 
L 500 4441 
Q 881 4594 1212 4672 
Q 1544 4750 1819 4750 
Q 2544 4750 2975 4387 
Q 3406 4025 3406 3419 
Q 3406 3131 3298 2873 
Q 3191 2616 2906 2266 
Q 2828 2175 2409 1742 
Q 1991 1309 1228 531 
z
" transform="scale(0.015625)"/>
       </defs>
       <use xlink:href="#DejaVuSans-32"/>
       <use xlink:href="#DejaVuSans-30" x="63.623047"/>
      </g>
     </g>
    </g>
    <g id="xtick_4">
     <g id="line2d_4">
      <g>
       <use xlink:href="#m9ed7aaaf76" x="197.119264" y="307.584" style="stroke: #000000; stroke-width: 0.8"/>
      </g>
     </g>
     <g id="text_4">
      <!-- 30 -->
      <g transform="translate(190.756764 322.182437)scale(0.1 -0.1)">
       <defs>
        <path id="DejaVuSans-33" d="M 2597 2516 
Q 3050 2419 3304 2112 
Q 3559 1806 3559 1356 
Q 3559 666 3084 287 
Q 2609 -91 1734 -91 
Q 1441 -91 1130 -33 
Q 819 25 488 141 
L 488 750 
Q 750 597 1062 519 
Q 1375 441 1716 441 
Q 2309 441 2620 675 
Q 2931 909 2931 1356 
Q 2931 1769 2642 2001 
Q 2353 2234 1838 2234 
L 1294 2234 
L 1294 2753 
L 1863 2753 
Q 2328 2753 2575 2939 
Q 2822 3125 2822 3475 
Q 2822 3834 2567 4026 
Q 2313 4219 1838 4219 
Q 1578 4219 1281 4162 
Q 984 4106 628 3988 
L 628 4550 
Q 988 4650 1302 4700 
Q 1616 4750 1894 4750 
Q 2613 4750 3031 4423 
Q 3450 4097 3450 3541 
Q 3450 3153 3228 2886 
Q 3006 2619 2597 2516 
z
" transform="scale(0.015625)"/>
       </defs>
       <use xlink:href="#DejaVuSans-33"/>
       <use xlink:href="#DejaVuSans-30" x="63.623047"/>
      </g>
     </g>
    </g>
    <g id="xtick_5">
     <g id="line2d_5">
      <g>
       <use xlink:href="#m9ed7aaaf76" x="238.214776" y="307.584" style="stroke: #000000; stroke-width: 0.8"/>
      </g>
     </g>
     <g id="text_5">
      <!-- 40 -->
      <g transform="translate(231.852276 322.182437)scale(0.1 -0.1)">
       <defs>
        <path id="DejaVuSans-34" d="M 2419 4116 
L 825 1625 
L 2419 1625 
L 2419 4116 
z
M 2253 4666 
L 3047 4666 
L 3047 1625 
L 3713 1625 
L 3713 1100 
L 3047 1100 
L 3047 0 
L 2419 0 
L 2419 1100 
L 313 1100 
L 313 1709 
L 2253 4666 
z
" transform="scale(0.015625)"/>
       </defs>
       <use xlink:href="#DejaVuSans-34"/>
       <use xlink:href="#DejaVuSans-30" x="63.623047"/>
      </g>
     </g>
    </g>
    <g id="xtick_6">
     <g id="line2d_6">
      <g>
       <use xlink:href="#m9ed7aaaf76" x="279.310288" y="307.584" style="stroke: #000000; stroke-width: 0.8"/>
      </g>
     </g>
     <g id="text_6">
      <!-- 50 -->
      <g transform="translate(272.947788 322.182437)scale(0.1 -0.1)">
       <defs>
        <path id="DejaVuSans-35" d="M 691 4666 
L 3169 4666 
L 3169 4134 
L 1269 4134 
L 1269 2991 
Q 1406 3038 1543 3061 
Q 1681 3084 1819 3084 
Q 2600 3084 3056 2656 
Q 3513 2228 3513 1497 
Q 3513 744 3044 326 
Q 2575 -91 1722 -91 
Q 1428 -91 1123 -41 
Q 819 9 494 109 
L 494 744 
Q 775 591 1075 516 
Q 1375 441 1709 441 
Q 2250 441 2565 725 
Q 2881 1009 2881 1497 
Q 2881 1984 2565 2268 
Q 2250 2553 1709 2553 
Q 1456 2553 1204 2497 
Q 953 2441 691 2322 
L 691 4666 
z
" transform="scale(0.015625)"/>
       </defs>
       <use xlink:href="#DejaVuSans-35"/>
       <use xlink:href="#DejaVuSans-30" x="63.623047"/>
      </g>
     </g>
    </g>
    <g id="xtick_7">
     <g id="line2d_7">
      <g>
       <use xlink:href="#m9ed7aaaf76" x="320.4058" y="307.584" style="stroke: #000000; stroke-width: 0.8"/>
      </g>
     </g>
     <g id="text_7">
      <!-- 60 -->
      <g transform="translate(314.0433 322.182437)scale(0.1 -0.1)">
       <defs>
        <path id="DejaVuSans-36" d="M 2113 2584 
Q 1688 2584 1439 2293 
Q 1191 2003 1191 1497 
Q 1191 994 1439 701 
Q 1688 409 2113 409 
Q 2538 409 2786 701 
Q 3034 994 3034 1497 
Q 3034 2003 2786 2293 
Q 2538 2584 2113 2584 
z
M 3366 4563 
L 3366 3988 
Q 3128 4100 2886 4159 
Q 2644 4219 2406 4219 
Q 1781 4219 1451 3797 
Q 1122 3375 1075 2522 
Q 1259 2794 1537 2939 
Q 1816 3084 2150 3084 
Q 2853 3084 3261 2657 
Q 3669 2231 3669 1497 
Q 3669 778 3244 343 
Q 2819 -91 2113 -91 
Q 1303 -91 875 529 
Q 447 1150 447 2328 
Q 447 3434 972 4092 
Q 1497 4750 2381 4750 
Q 2619 4750 2861 4703 
Q 3103 4656 3366 4563 
z
" transform="scale(0.015625)"/>
       </defs>
       <use xlink:href="#DejaVuSans-36"/>
       <use xlink:href="#DejaVuSans-30" x="63.623047"/>
      </g>
     </g>
    </g>
    <g id="xtick_8">
     <g id="line2d_8">
      <g>
       <use xlink:href="#m9ed7aaaf76" x="361.501312" y="307.584" style="stroke: #000000; stroke-width: 0.8"/>
      </g>
     </g>
     <g id="text_8">
      <!-- 70 -->
      <g transform="translate(355.138812 322.182437)scale(0.1 -0.1)">
       <defs>
        <path id="DejaVuSans-37" d="M 525 4666 
L 3525 4666 
L 3525 4397 
L 1831 0 
L 1172 0 
L 2766 4134 
L 525 4134 
L 525 4666 
z
" transform="scale(0.015625)"/>
       </defs>
       <use xlink:href="#DejaVuSans-37"/>
       <use xlink:href="#DejaVuSans-30" x="63.623047"/>
      </g>
     </g>
    </g>
    <g id="xtick_9">
     <g id="line2d_9">
      <g>
       <use xlink:href="#m9ed7aaaf76" x="402.596824" y="307.584" style="stroke: #000000; stroke-width: 0.8"/>
      </g>
     </g>
     <g id="text_9">
      <!-- 80 -->
      <g transform="translate(396.234324 322.182437)scale(0.1 -0.1)">
       <defs>
        <path id="DejaVuSans-38" d="M 2034 2216 
Q 1584 2216 1326 1975 
Q 1069 1734 1069 1313 
Q 1069 891 1326 650 
Q 1584 409 2034 409 
Q 2484 409 2743 651 
Q 3003 894 3003 1313 
Q 3003 1734 2745 1975 
Q 2488 2216 2034 2216 
z
M 1403 2484 
Q 997 2584 770 2862 
Q 544 3141 544 3541 
Q 544 4100 942 4425 
Q 1341 4750 2034 4750 
Q 2731 4750 3128 4425 
Q 3525 4100 3525 3541 
Q 3525 3141 3298 2862 
Q 3072 2584 2669 2484 
Q 3125 2378 3379 2068 
Q 3634 1759 3634 1313 
Q 3634 634 3220 271 
Q 2806 -91 2034 -91 
Q 1263 -91 848 271 
Q 434 634 434 1313 
Q 434 1759 690 2068 
Q 947 2378 1403 2484 
z
M 1172 3481 
Q 1172 3119 1398 2916 
Q 1625 2713 2034 2713 
Q 2441 2713 2670 2916 
Q 2900 3119 2900 3481 
Q 2900 3844 2670 4047 
Q 2441 4250 2034 4250 
Q 1625 4250 1398 4047 
Q 1172 3844 1172 3481 
z
" transform="scale(0.015625)"/>
       </defs>
       <use xlink:href="#DejaVuSans-38"/>
       <use xlink:href="#DejaVuSans-30" x="63.623047"/>
      </g>
     </g>
    </g>
    <g id="text_10">
     <!-- generations -->
     <g transform="translate(206.362344 335.860562)scale(0.1 -0.1)">
      <defs>
       <path id="DejaVuSans-67" d="M 2906 1791 
Q 2906 2416 2648 2759 
Q 2391 3103 1925 3103 
Q 1463 3103 1205 2759 
Q 947 2416 947 1791 
Q 947 1169 1205 825 
Q 1463 481 1925 481 
Q 2391 481 2648 825 
Q 2906 1169 2906 1791 
z
M 3481 434 
Q 3481 -459 3084 -895 
Q 2688 -1331 1869 -1331 
Q 1566 -1331 1297 -1286 
Q 1028 -1241 775 -1147 
L 775 -588 
Q 1028 -725 1275 -790 
Q 1522 -856 1778 -856 
Q 2344 -856 2625 -561 
Q 2906 -266 2906 331 
L 2906 616 
Q 2728 306 2450 153 
Q 2172 0 1784 0 
Q 1141 0 747 490 
Q 353 981 353 1791 
Q 353 2603 747 3093 
Q 1141 3584 1784 3584 
Q 2172 3584 2450 3431 
Q 2728 3278 2906 2969 
L 2906 3500 
L 3481 3500 
L 3481 434 
z
" transform="scale(0.015625)"/>
       <path id="DejaVuSans-65" d="M 3597 1894 
L 3597 1613 
L 953 1613 
Q 991 1019 1311 708 
Q 1631 397 2203 397 
Q 2534 397 2845 478 
Q 3156 559 3463 722 
L 3463 178 
Q 3153 47 2828 -22 
Q 2503 -91 2169 -91 
Q 1331 -91 842 396 
Q 353 884 353 1716 
Q 353 2575 817 3079 
Q 1281 3584 2069 3584 
Q 2775 3584 3186 3129 
Q 3597 2675 3597 1894 
z
M 3022 2063 
Q 3016 2534 2758 2815 
Q 2500 3097 2075 3097 
Q 1594 3097 1305 2825 
Q 1016 2553 972 2059 
L 3022 2063 
z
" transform="scale(0.015625)"/>
       <path id="DejaVuSans-6e" d="M 3513 2113 
L 3513 0 
L 2938 0 
L 2938 2094 
Q 2938 2591 2744 2837 
Q 2550 3084 2163 3084 
Q 1697 3084 1428 2787 
Q 1159 2491 1159 1978 
L 1159 0 
L 581 0 
L 581 3500 
L 1159 3500 
L 1159 2956 
Q 1366 3272 1645 3428 
Q 1925 3584 2291 3584 
Q 2894 3584 3203 3211 
Q 3513 2838 3513 2113 
z
" transform="scale(0.015625)"/>
       <path id="DejaVuSans-72" d="M 2631 2963 
Q 2534 3019 2420 3045 
Q 2306 3072 2169 3072 
Q 1681 3072 1420 2755 
Q 1159 2438 1159 1844 
L 1159 0 
L 581 0 
L 581 3500 
L 1159 3500 
L 1159 2956 
Q 1341 3275 1631 3429 
Q 1922 3584 2338 3584 
Q 2397 3584 2469 3576 
Q 2541 3569 2628 3553 
L 2631 2963 
z
" transform="scale(0.015625)"/>
       <path id="DejaVuSans-61" d="M 2194 1759 
Q 1497 1759 1228 1600 
Q 959 1441 959 1056 
Q 959 750 1161 570 
Q 1363 391 1709 391 
Q 2188 391 2477 730 
Q 2766 1069 2766 1631 
L 2766 1759 
L 2194 1759 
z
M 3341 1997 
L 3341 0 
L 2766 0 
L 2766 531 
Q 2569 213 2275 61 
Q 1981 -91 1556 -91 
Q 1019 -91 701 211 
Q 384 513 384 1019 
Q 384 1609 779 1909 
Q 1175 2209 1959 2209 
L 2766 2209 
L 2766 2266 
Q 2766 2663 2505 2880 
Q 2244 3097 1772 3097 
Q 1472 3097 1187 3025 
Q 903 2953 641 2809 
L 641 3341 
Q 956 3463 1253 3523 
Q 1550 3584 1831 3584 
Q 2591 3584 2966 3190 
Q 3341 2797 3341 1997 
z
" transform="scale(0.015625)"/>
       <path id="DejaVuSans-74" d="M 1172 4494 
L 1172 3500 
L 2356 3500 
L 2356 3053 
L 1172 3053 
L 1172 1153 
Q 1172 725 1289 603 
Q 1406 481 1766 481 
L 2356 481 
L 2356 0 
L 1766 0 
Q 1100 0 847 248 
Q 594 497 594 1153 
L 594 3053 
L 172 3053 
L 172 3500 
L 594 3500 
L 594 4494 
L 1172 4494 
z
" transform="scale(0.015625)"/>
       <path id="DejaVuSans-69" d="M 603 3500 
L 1178 3500 
L 1178 0 
L 603 0 
L 603 3500 
z
M 603 4863 
L 1178 4863 
L 1178 4134 
L 603 4134 
L 603 4863 
z
" transform="scale(0.015625)"/>
       <path id="DejaVuSans-6f" d="M 1959 3097 
Q 1497 3097 1228 2736 
Q 959 2375 959 1747 
Q 959 1119 1226 758 
Q 1494 397 1959 397 
Q 2419 397 2687 759 
Q 2956 1122 2956 1747 
Q 2956 2369 2687 2733 
Q 2419 3097 1959 3097 
z
M 1959 3584 
Q 2709 3584 3137 3096 
Q 3566 2609 3566 1747 
Q 3566 888 3137 398 
Q 2709 -91 1959 -91 
Q 1206 -91 779 398 
Q 353 888 353 1747 
Q 353 2609 779 3096 
Q 1206 3584 1959 3584 
z
" transform="scale(0.015625)"/>
       <path id="DejaVuSans-73" d="M 2834 3397 
L 2834 2853 
Q 2591 2978 2328 3040 
Q 2066 3103 1784 3103 
Q 1356 3103 1142 2972 
Q 928 2841 928 2578 
Q 928 2378 1081 2264 
Q 1234 2150 1697 2047 
L 1894 2003 
Q 2506 1872 2764 1633 
Q 3022 1394 3022 966 
Q 3022 478 2636 193 
Q 2250 -91 1575 -91 
Q 1294 -91 989 -36 
Q 684 19 347 128 
L 347 722 
Q 666 556 975 473 
Q 1284 391 1588 391 
Q 1994 391 2212 530 
Q 2431 669 2431 922 
Q 2431 1156 2273 1281 
Q 2116 1406 1581 1522 
L 1381 1569 
Q 847 1681 609 1914 
Q 372 2147 372 2553 
Q 372 3047 722 3315 
Q 1072 3584 1716 3584 
Q 2034 3584 2315 3537 
Q 2597 3491 2834 3397 
z
" transform="scale(0.015625)"/>
      </defs>
      <use xlink:href="#DejaVuSans-67"/>
      <use xlink:href="#DejaVuSans-65" x="63.476562"/>
      <use xlink:href="#DejaVuSans-6e" x="125"/>
      <use xlink:href="#DejaVuSans-65" x="188.378906"/>
      <use xlink:href="#DejaVuSans-72" x="249.902344"/>
      <use xlink:href="#DejaVuSans-61" x="291.015625"/>
      <use xlink:href="#DejaVuSans-74" x="352.294922"/>
      <use xlink:href="#DejaVuSans-69" x="391.503906"/>
      <use xlink:href="#DejaVuSans-6f" x="419.287109"/>
      <use xlink:href="#DejaVuSans-6e" x="480.46875"/>
      <use xlink:href="#DejaVuSans-73" x="543.847656"/>
     </g>
    </g>
   </g>
   <g id="matplotlib.axis_2">
    <g id="ytick_1">
     <g id="line2d_10">
      <defs>
       <path id="meac6a8ecbf" d="M 0 0 
L -3.5 0 
" style="stroke: #000000; stroke-width: 0.8"/>
      </defs>
      <g>
       <use xlink:href="#meac6a8ecbf" x="57.6" y="286.33778" style="stroke: #000000; stroke-width: 0.8"/>
      </g>
     </g>
     <g id="text_11">
      <!-- 0 -->
      <g transform="translate(44.2375 290.136999)scale(0.1 -0.1)">
       <use xlink:href="#DejaVuSans-30"/>
      </g>
     </g>
    </g>
    <g id="ytick_2">
     <g id="line2d_11">
      <g>
       <use xlink:href="#meac6a8ecbf" x="57.6" y="232.636623" style="stroke: #000000; stroke-width: 0.8"/>
      </g>
     </g>
     <g id="text_12">
      <!-- 20 -->
      <g transform="translate(37.875 236.435842)scale(0.1 -0.1)">
       <use xlink:href="#DejaVuSans-32"/>
       <use xlink:href="#DejaVuSans-30" x="63.623047"/>
      </g>
     </g>
    </g>
    <g id="ytick_3">
     <g id="line2d_12">
      <g>
       <use xlink:href="#meac6a8ecbf" x="57.6" y="178.935466" style="stroke: #000000; stroke-width: 0.8"/>
      </g>
     </g>
     <g id="text_13">
      <!-- 40 -->
      <g transform="translate(37.875 182.734685)scale(0.1 -0.1)">
       <use xlink:href="#DejaVuSans-34"/>
       <use xlink:href="#DejaVuSans-30" x="63.623047"/>
      </g>
     </g>
    </g>
    <g id="ytick_4">
     <g id="line2d_13">
      <g>
       <use xlink:href="#meac6a8ecbf" x="57.6" y="125.234309" style="stroke: #000000; stroke-width: 0.8"/>
      </g>
     </g>
     <g id="text_14">
      <!-- 60 -->
      <g transform="translate(37.875 129.033528)scale(0.1 -0.1)">
       <use xlink:href="#DejaVuSans-36"/>
       <use xlink:href="#DejaVuSans-30" x="63.623047"/>
      </g>
     </g>
    </g>
    <g id="ytick_5">
     <g id="line2d_14">
      <g>
       <use xlink:href="#meac6a8ecbf" x="57.6" y="71.533152" style="stroke: #000000; stroke-width: 0.8"/>
      </g>
     </g>
     <g id="text_15">
      <!-- 80 -->
      <g transform="translate(37.875 75.33237)scale(0.1 -0.1)">
       <use xlink:href="#DejaVuSans-38"/>
       <use xlink:href="#DejaVuSans-30" x="63.623047"/>
      </g>
     </g>
    </g>
    <g id="text_16">
     <!-- fitness -->
     <g transform="translate(31.795312 191.092062)rotate(-90)scale(0.1 -0.1)">
      <defs>
       <path id="DejaVuSans-66" d="M 2375 4863 
L 2375 4384 
L 1825 4384 
Q 1516 4384 1395 4259 
Q 1275 4134 1275 3809 
L 1275 3500 
L 2222 3500 
L 2222 3053 
L 1275 3053 
L 1275 0 
L 697 0 
L 697 3053 
L 147 3053 
L 147 3500 
L 697 3500 
L 697 3744 
Q 697 4328 969 4595 
Q 1241 4863 1831 4863 
L 2375 4863 
z
" transform="scale(0.015625)"/>
      </defs>
      <use xlink:href="#DejaVuSans-66"/>
      <use xlink:href="#DejaVuSans-69" x="35.205078"/>
      <use xlink:href="#DejaVuSans-74" x="62.988281"/>
      <use xlink:href="#DejaVuSans-6e" x="102.197266"/>
      <use xlink:href="#DejaVuSans-65" x="165.576172"/>
      <use xlink:href="#DejaVuSans-73" x="227.099609"/>
      <use xlink:href="#DejaVuSans-73" x="279.199219"/>
     </g>
    </g>
   </g>
   <g id="line2d_15">
    <path d="M 73.832727 291.001112 
L 77.942278 273.124256 
L 82.05183 251.344373 
L 86.161381 246.174569 
L 90.270932 244.812935 
L 94.380483 244.879589 
L 98.490035 240.302293 
L 102.599586 238.513068 
L 106.709137 236.446281 
L 110.818688 232.744688 
L 114.928239 228.044015 
L 119.037791 221.660451 
L 123.147342 216.272153 
L 127.256893 214.500116 
L 131.366444 213.293403 
L 135.475995 210.949475 
L 139.585547 209.981137 
L 143.695098 207.443458 
L 147.804649 205.866081 
L 151.9142 203.444673 
L 156.023751 202.428994 
L 160.133303 201.148321 
L 164.242854 200.804392 
L 168.352405 199.964349 
L 172.461956 196.376943 
L 176.571507 193.680462 
L 180.681059 193.224747 
L 184.79061 190.449367 
L 188.900161 188.681135 
L 193.009712 187.778045 
L 197.119264 185.234059 
L 201.228815 183.937225 
L 205.338366 182.692822 
L 209.447917 179.573941 
L 213.557468 178.392835 
L 217.66702 177.566716 
L 221.776571 178.074686 
L 225.886122 178.504392 
L 229.995673 178.292537 
L 234.105224 177.524241 
L 238.214776 176.257393 
L 242.324327 175.17672 
L 246.433878 173.994813 
L 250.543429 170.400891 
L 254.65298 170.093892 
L 258.762532 168.828476 
L 262.872083 169.538285 
L 266.981634 170.025839 
L 271.091185 168.524422 
L 275.200736 167.331811 
L 279.310288 165.129149 
L 283.419839 164.826969 
L 287.52939 165.642415 
L 291.638941 163.965736 
L 295.748493 163.287913 
L 299.858044 162.977747 
L 303.967595 160.719181 
L 308.077146 160.045134 
L 312.186697 158.722 
L 316.296249 157.126249 
L 320.4058 156.447125 
L 324.515351 155.610171 
L 328.624902 156.147283 
L 332.734453 155.537676 
L 336.844005 156.55029 
L 340.953556 155.567646 
L 345.063107 155.284113 
L 349.172658 154.044423 
L 353.282209 154.055763 
L 357.391761 153.755939 
L 361.501312 152.4684 
L 365.610863 153.105154 
L 369.720414 151.517681 
L 373.829965 151.501038 
L 377.939517 149.89798 
L 382.049068 149.639141 
L 386.158619 149.738332 
L 390.26817 151.085611 
L 394.377722 152.101434 
L 398.487273 150.408861 
" clip-path="url(#p0a8bfa1bdd)" style="fill: none; stroke: #1f77b4; stroke-width: 1.5; stroke-linecap: square"/>
   </g>
   <g id="line2d_16">
    <path d="M 73.832727 224.388246 
L 77.942278 210.022868 
L 82.05183 195.745899 
L 86.161381 167.698212 
L 90.270932 160.459419 
L 94.380483 160.448618 
L 98.490035 153.012319 
L 102.599586 153.012319 
L 106.709137 148.151436 
L 110.818688 136.164748 
L 114.928239 136.164748 
L 119.037791 133.74709 
L 123.147342 128.684301 
L 127.256893 121.415046 
L 131.366444 118.986558 
L 135.475995 118.986025 
L 139.585547 118.977835 
L 143.695098 112.114078 
L 147.804649 112.114078 
L 151.9142 112.114078 
L 156.023751 112.112887 
L 160.133303 104.88911 
L 164.242854 104.88911 
L 168.352405 104.88103 
L 172.461956 104.88103 
L 176.571507 97.326569 
L 180.681059 94.840265 
L 184.79061 92.21994 
L 188.900161 89.778328 
L 193.009712 89.774463 
L 197.119264 84.688401 
L 201.228815 84.688401 
L 205.338366 84.660774 
L 209.447917 84.578633 
L 213.557468 84.578633 
L 217.66702 84.568456 
L 221.776571 82.18096 
L 225.886122 82.18096 
L 229.995673 82.18096 
L 234.105224 81.808419 
L 238.214776 81.807269 
L 242.324327 76.254826 
L 246.433878 76.254826 
L 250.543429 76.254826 
L 254.65298 76.254826 
L 258.762532 76.254826 
L 262.872083 73.855742 
L 266.981634 73.854139 
L 271.091185 73.854139 
L 275.200736 73.846492 
L 279.310288 73.846492 
L 283.419839 73.846492 
L 287.52939 73.845293 
L 291.638941 73.845293 
L 295.748493 73.826423 
L 299.858044 73.826423 
L 303.967595 73.825848 
L 308.077146 73.825848 
L 312.186697 73.825848 
L 316.296249 71.464524 
L 320.4058 71.464524 
L 324.515351 71.278195 
L 328.624902 71.278195 
L 332.734453 71.278195 
L 336.844005 71.278195 
L 340.953556 71.278195 
L 345.063107 71.278195 
L 349.172658 71.278195 
L 353.282209 68.668602 
L 357.391761 68.665687 
L 361.501312 68.665687 
L 365.610863 68.665687 
L 369.720414 68.665687 
L 373.829965 68.63685 
L 377.939517 68.63685 
L 382.049068 68.63685 
L 386.158619 66.169462 
L 390.26817 66.169462 
L 394.377722 66.169462 
L 398.487273 66.169462 
" clip-path="url(#p0a8bfa1bdd)" style="fill: none; stroke-dasharray: 5.55,2.4; stroke-dashoffset: 0; stroke: #ff7f0e; stroke-width: 1.5"/>
   </g>
   <g id="line2d_17">
    <path d="M 73.832727 291.704298 
L 77.942278 281.944002 
L 82.05183 274.29216 
L 86.161381 271.041357 
L 90.270932 265.085193 
L 94.380483 262.621463 
L 98.490035 258.729347 
L 102.599586 257.799893 
L 106.709137 256.536976 
L 110.818688 255.617998 
L 114.928239 252.385823 
L 119.037791 248.600374 
L 123.147342 249.790333 
L 127.256893 248.513867 
L 131.366444 244.013785 
L 135.475995 243.087033 
L 139.585547 240.744595 
L 143.695098 243.917888 
L 147.804649 243.922414 
L 151.9142 242.648884 
L 156.023751 241.292874 
L 160.133303 240.880803 
L 164.242854 240.433919 
L 168.352405 240.132231 
L 172.461956 241.932011 
L 176.571507 238.324555 
L 180.681059 236.313224 
L 184.79061 237.350509 
L 188.900161 235.643822 
L 193.009712 236.391483 
L 197.119264 235.87259 
L 201.228815 234.41256 
L 205.338366 233.450417 
L 209.447917 232.344908 
L 213.557468 231.7046 
L 217.66702 232.168431 
L 221.776571 232.154993 
L 225.886122 231.333869 
L 229.995673 232.028384 
L 234.105224 231.122042 
L 238.214776 227.195777 
L 242.324327 228.038584 
L 246.433878 228.528823 
L 250.543429 223.019211 
L 254.65298 225.607685 
L 258.762532 225.165137 
L 262.872083 228.798331 
L 266.981634 231.171983 
L 271.091185 225.611425 
L 275.200736 226.52557 
L 279.310288 226.529945 
L 283.419839 221.619107 
L 287.52939 225.137348 
L 291.638941 224.634798 
L 295.748493 224.355779 
L 299.858044 221.316499 
L 303.967595 226.171232 
L 308.077146 222.475669 
L 312.186697 221.651493 
L 316.296249 221.964843 
L 320.4058 220.378479 
L 324.515351 220.983281 
L 328.624902 223.976804 
L 332.734453 222.408171 
L 336.844005 217.578053 
L 340.953556 217.079365 
L 345.063107 217.558459 
L 349.172658 219.082846 
L 353.282209 219.494498 
L 357.391761 216.31431 
L 361.501312 220.472492 
L 365.610863 215.600635 
L 369.720414 215.03891 
L 373.829965 217.631159 
L 377.939517 218.017808 
L 382.049068 214.29251 
L 386.158619 215.657027 
L 390.26817 212.219243 
L 394.377722 209.962153 
L 398.487273 210.452282 
" clip-path="url(#p0a8bfa1bdd)" style="fill: none; stroke: #2ca02c; stroke-width: 1.5; stroke-linecap: square"/>
   </g>
   <g id="line2d_18">
    <path d="M 73.832727 223.745692 
L 77.942278 219.042812 
L 82.05183 202.178048 
L 86.161381 202.116797 
L 90.270932 195.053056 
L 94.380483 194.972662 
L 98.490035 183.187102 
L 102.599586 176.378129 
L 106.709137 176.378129 
L 110.818688 174.020812 
L 114.928239 174.020812 
L 119.037791 162.232345 
L 123.147342 162.232345 
L 127.256893 159.819482 
L 131.366444 159.819482 
L 135.475995 157.779652 
L 139.585547 155.310288 
L 143.695098 150.095384 
L 147.804649 150.095384 
L 151.9142 147.675367 
L 156.023751 147.675367 
L 160.133303 145.33984 
L 164.242854 145.33984 
L 168.352405 142.930941 
L 172.461956 142.930941 
L 176.571507 142.930941 
L 180.681059 142.927974 
L 184.79061 142.927227 
L 188.900161 142.835383 
L 193.009712 142.822282 
L 197.119264 140.54735 
L 201.228815 135.714769 
L 205.338366 128.622487 
L 209.447917 128.622487 
L 213.557468 128.582704 
L 217.66702 128.582704 
L 221.776571 128.582704 
L 225.886122 128.538875 
L 229.995673 128.538875 
L 234.105224 128.538875 
L 238.214776 128.538875 
L 242.324327 128.538875 
L 246.433878 126.172862 
L 250.543429 126.172862 
L 254.65298 126.074575 
L 258.762532 125.995241 
L 262.872083 125.995241 
L 266.981634 125.995241 
L 271.091185 125.995241 
L 275.200736 125.993135 
L 279.310288 121.187463 
L 283.419839 121.187463 
L 287.52939 121.179072 
L 291.638941 121.169675 
L 295.748493 121.169675 
L 299.858044 121.165576 
L 303.967595 118.729658 
L 308.077146 118.729658 
L 312.186697 116.343667 
L 316.296249 116.343667 
L 320.4058 116.343667 
L 324.515351 116.33902 
L 328.624902 116.316975 
L 332.734453 116.316975 
L 336.844005 116.316975 
L 340.953556 116.316975 
L 345.063107 116.316975 
L 349.172658 116.316975 
L 353.282209 116.316975 
L 357.391761 116.316975 
L 361.501312 116.316975 
L 365.610863 108.95004 
L 369.720414 108.95004 
L 373.829965 108.95004 
L 377.939517 108.95004 
L 382.049068 108.95004 
L 386.158619 108.95004 
L 390.26817 108.949449 
L 394.377722 108.949449 
L 398.487273 108.949449 
" clip-path="url(#p0a8bfa1bdd)" style="fill: none; stroke-dasharray: 5.55,2.4; stroke-dashoffset: 0; stroke: #d62728; stroke-width: 1.5"/>
   </g>
   <g id="patch_3">
    <path d="M 57.6 307.584 
L 57.6 41.472 
" style="fill: none; stroke: #000000; stroke-width: 0.8; stroke-linejoin: miter; stroke-linecap: square"/>
   </g>
   <g id="patch_4">
    <path d="M 414.72 307.584 
L 414.72 41.472 
" style="fill: none; stroke: #000000; stroke-width: 0.8; stroke-linejoin: miter; stroke-linecap: square"/>
   </g>
   <g id="patch_5">
    <path d="M 57.6 307.584 
L 414.72 307.584 
" style="fill: none; stroke: #000000; stroke-width: 0.8; stroke-linejoin: miter; stroke-linecap: square"/>
   </g>
   <g id="patch_6">
    <path d="M 57.6 41.472 
L 414.72 41.472 
" style="fill: none; stroke: #000000; stroke-width: 0.8; stroke-linejoin: miter; stroke-linecap: square"/>
   </g>
   <g id="text_17">
    <!-- enemy set [3,4] -->
    <g transform="translate(188.370937 35.472)scale(0.12 -0.12)">
     <defs>
      <path id="DejaVuSans-6d" d="M 3328 2828 
Q 3544 3216 3844 3400 
Q 4144 3584 4550 3584 
Q 5097 3584 5394 3201 
Q 5691 2819 5691 2113 
L 5691 0 
L 5113 0 
L 5113 2094 
Q 5113 2597 4934 2840 
Q 4756 3084 4391 3084 
Q 3944 3084 3684 2787 
Q 3425 2491 3425 1978 
L 3425 0 
L 2847 0 
L 2847 2094 
Q 2847 2600 2669 2842 
Q 2491 3084 2119 3084 
Q 1678 3084 1418 2786 
Q 1159 2488 1159 1978 
L 1159 0 
L 581 0 
L 581 3500 
L 1159 3500 
L 1159 2956 
Q 1356 3278 1631 3431 
Q 1906 3584 2284 3584 
Q 2666 3584 2933 3390 
Q 3200 3197 3328 2828 
z
" transform="scale(0.015625)"/>
      <path id="DejaVuSans-79" d="M 2059 -325 
Q 1816 -950 1584 -1140 
Q 1353 -1331 966 -1331 
L 506 -1331 
L 506 -850 
L 844 -850 
Q 1081 -850 1212 -737 
Q 1344 -625 1503 -206 
L 1606 56 
L 191 3500 
L 800 3500 
L 1894 763 
L 2988 3500 
L 3597 3500 
L 2059 -325 
z
" transform="scale(0.015625)"/>
      <path id="DejaVuSans-20" transform="scale(0.015625)"/>
      <path id="DejaVuSans-5b" d="M 550 4863 
L 1875 4863 
L 1875 4416 
L 1125 4416 
L 1125 -397 
L 1875 -397 
L 1875 -844 
L 550 -844 
L 550 4863 
z
" transform="scale(0.015625)"/>
      <path id="DejaVuSans-2c" d="M 750 794 
L 1409 794 
L 1409 256 
L 897 -744 
L 494 -744 
L 750 256 
L 750 794 
z
" transform="scale(0.015625)"/>
      <path id="DejaVuSans-5d" d="M 1947 4863 
L 1947 -844 
L 622 -844 
L 622 -397 
L 1369 -397 
L 1369 4416 
L 622 4416 
L 622 4863 
L 1947 4863 
z
" transform="scale(0.015625)"/>
     </defs>
     <use xlink:href="#DejaVuSans-65"/>
     <use xlink:href="#DejaVuSans-6e" x="61.523438"/>
     <use xlink:href="#DejaVuSans-65" x="124.902344"/>
     <use xlink:href="#DejaVuSans-6d" x="186.425781"/>
     <use xlink:href="#DejaVuSans-79" x="283.837891"/>
     <use xlink:href="#DejaVuSans-20" x="343.017578"/>
     <use xlink:href="#DejaVuSans-73" x="374.804688"/>
     <use xlink:href="#DejaVuSans-65" x="426.904297"/>
     <use xlink:href="#DejaVuSans-74" x="488.427734"/>
     <use xlink:href="#DejaVuSans-20" x="527.636719"/>
     <use xlink:href="#DejaVuSans-5b" x="559.423828"/>
     <use xlink:href="#DejaVuSans-33" x="598.4375"/>
     <use xlink:href="#DejaVuSans-2c" x="662.060547"/>
     <use xlink:href="#DejaVuSans-34" x="693.847656"/>
     <use xlink:href="#DejaVuSans-5d" x="757.470703"/>
    </g>
   </g>
   <g id="legend_1">
    <g id="patch_7">
     <path d="M 306.480938 302.584 
L 407.72 302.584 
Q 409.72 302.584 409.72 300.584 
L 409.72 242.8715 
Q 409.72 240.8715 407.72 240.8715 
L 306.480938 240.8715 
Q 304.480938 240.8715 304.480938 242.8715 
L 304.480938 300.584 
Q 304.480938 302.584 306.480938 302.584 
z
" style="fill: #ffffff; opacity: 0.8; stroke: #cccccc; stroke-linejoin: miter"/>
    </g>
    <g id="line2d_19">
     <path d="M 308.480938 248.969937 
L 318.480938 248.969937 
L 328.480938 248.969937 
" style="fill: none; stroke: #1f77b4; stroke-width: 1.5; stroke-linecap: square"/>
    </g>
    <g id="text_18">
     <!-- NSGA-II mean -->
     <g transform="translate(336.480938 252.469937)scale(0.1 -0.1)">
      <defs>
       <path id="DejaVuSans-4e" d="M 628 4666 
L 1478 4666 
L 3547 763 
L 3547 4666 
L 4159 4666 
L 4159 0 
L 3309 0 
L 1241 3903 
L 1241 0 
L 628 0 
L 628 4666 
z
" transform="scale(0.015625)"/>
       <path id="DejaVuSans-53" d="M 3425 4513 
L 3425 3897 
Q 3066 4069 2747 4153 
Q 2428 4238 2131 4238 
Q 1616 4238 1336 4038 
Q 1056 3838 1056 3469 
Q 1056 3159 1242 3001 
Q 1428 2844 1947 2747 
L 2328 2669 
Q 3034 2534 3370 2195 
Q 3706 1856 3706 1288 
Q 3706 609 3251 259 
Q 2797 -91 1919 -91 
Q 1588 -91 1214 -16 
Q 841 59 441 206 
L 441 856 
Q 825 641 1194 531 
Q 1563 422 1919 422 
Q 2459 422 2753 634 
Q 3047 847 3047 1241 
Q 3047 1584 2836 1778 
Q 2625 1972 2144 2069 
L 1759 2144 
Q 1053 2284 737 2584 
Q 422 2884 422 3419 
Q 422 4038 858 4394 
Q 1294 4750 2059 4750 
Q 2388 4750 2728 4690 
Q 3069 4631 3425 4513 
z
" transform="scale(0.015625)"/>
       <path id="DejaVuSans-47" d="M 3809 666 
L 3809 1919 
L 2778 1919 
L 2778 2438 
L 4434 2438 
L 4434 434 
Q 4069 175 3628 42 
Q 3188 -91 2688 -91 
Q 1594 -91 976 548 
Q 359 1188 359 2328 
Q 359 3472 976 4111 
Q 1594 4750 2688 4750 
Q 3144 4750 3555 4637 
Q 3966 4525 4313 4306 
L 4313 3634 
Q 3963 3931 3569 4081 
Q 3175 4231 2741 4231 
Q 1884 4231 1454 3753 
Q 1025 3275 1025 2328 
Q 1025 1384 1454 906 
Q 1884 428 2741 428 
Q 3075 428 3337 486 
Q 3600 544 3809 666 
z
" transform="scale(0.015625)"/>
       <path id="DejaVuSans-41" d="M 2188 4044 
L 1331 1722 
L 3047 1722 
L 2188 4044 
z
M 1831 4666 
L 2547 4666 
L 4325 0 
L 3669 0 
L 3244 1197 
L 1141 1197 
L 716 0 
L 50 0 
L 1831 4666 
z
" transform="scale(0.015625)"/>
       <path id="DejaVuSans-2d" d="M 313 2009 
L 1997 2009 
L 1997 1497 
L 313 1497 
L 313 2009 
z
" transform="scale(0.015625)"/>
       <path id="DejaVuSans-49" d="M 628 4666 
L 1259 4666 
L 1259 0 
L 628 0 
L 628 4666 
z
" transform="scale(0.015625)"/>
      </defs>
      <use xlink:href="#DejaVuSans-4e"/>
      <use xlink:href="#DejaVuSans-53" x="74.804688"/>
      <use xlink:href="#DejaVuSans-47" x="138.28125"/>
      <use xlink:href="#DejaVuSans-41" x="215.771484"/>
      <use xlink:href="#DejaVuSans-2d" x="281.929688"/>
      <use xlink:href="#DejaVuSans-49" x="318.013672"/>
      <use xlink:href="#DejaVuSans-49" x="347.505859"/>
      <use xlink:href="#DejaVuSans-20" x="376.998047"/>
      <use xlink:href="#DejaVuSans-6d" x="408.785156"/>
      <use xlink:href="#DejaVuSans-65" x="506.197266"/>
      <use xlink:href="#DejaVuSans-61" x="567.720703"/>
      <use xlink:href="#DejaVuSans-6e" x="629"/>
     </g>
    </g>
    <g id="line2d_20">
     <path d="M 308.480938 263.648062 
L 318.480938 263.648062 
L 328.480938 263.648062 
" style="fill: none; stroke-dasharray: 5.55,2.4; stroke-dashoffset: 0; stroke: #ff7f0e; stroke-width: 1.5"/>
    </g>
    <g id="text_19">
     <!-- NSGA-II max -->
     <g transform="translate(336.480938 267.148062)scale(0.1 -0.1)">
      <defs>
       <path id="DejaVuSans-78" d="M 3513 3500 
L 2247 1797 
L 3578 0 
L 2900 0 
L 1881 1375 
L 863 0 
L 184 0 
L 1544 1831 
L 300 3500 
L 978 3500 
L 1906 2253 
L 2834 3500 
L 3513 3500 
z
" transform="scale(0.015625)"/>
      </defs>
      <use xlink:href="#DejaVuSans-4e"/>
      <use xlink:href="#DejaVuSans-53" x="74.804688"/>
      <use xlink:href="#DejaVuSans-47" x="138.28125"/>
      <use xlink:href="#DejaVuSans-41" x="215.771484"/>
      <use xlink:href="#DejaVuSans-2d" x="281.929688"/>
      <use xlink:href="#DejaVuSans-49" x="318.013672"/>
      <use xlink:href="#DejaVuSans-49" x="347.505859"/>
      <use xlink:href="#DejaVuSans-20" x="376.998047"/>
      <use xlink:href="#DejaVuSans-6d" x="408.785156"/>
      <use xlink:href="#DejaVuSans-61" x="506.197266"/>
      <use xlink:href="#DejaVuSans-78" x="567.476562"/>
     </g>
    </g>
    <g id="line2d_21">
     <path d="M 308.480938 278.326187 
L 318.480938 278.326187 
L 328.480938 278.326187 
" style="fill: none; stroke: #2ca02c; stroke-width: 1.5; stroke-linecap: square"/>
    </g>
    <g id="text_20">
     <!-- incest mean -->
     <g transform="translate(336.480938 281.826187)scale(0.1 -0.1)">
      <defs>
       <path id="DejaVuSans-63" d="M 3122 3366 
L 3122 2828 
Q 2878 2963 2633 3030 
Q 2388 3097 2138 3097 
Q 1578 3097 1268 2742 
Q 959 2388 959 1747 
Q 959 1106 1268 751 
Q 1578 397 2138 397 
Q 2388 397 2633 464 
Q 2878 531 3122 666 
L 3122 134 
Q 2881 22 2623 -34 
Q 2366 -91 2075 -91 
Q 1284 -91 818 406 
Q 353 903 353 1747 
Q 353 2603 823 3093 
Q 1294 3584 2113 3584 
Q 2378 3584 2631 3529 
Q 2884 3475 3122 3366 
z
" transform="scale(0.015625)"/>
      </defs>
      <use xlink:href="#DejaVuSans-69"/>
      <use xlink:href="#DejaVuSans-6e" x="27.783203"/>
      <use xlink:href="#DejaVuSans-63" x="91.162109"/>
      <use xlink:href="#DejaVuSans-65" x="146.142578"/>
      <use xlink:href="#DejaVuSans-73" x="207.666016"/>
      <use xlink:href="#DejaVuSans-74" x="259.765625"/>
      <use xlink:href="#DejaVuSans-20" x="298.974609"/>
      <use xlink:href="#DejaVuSans-6d" x="330.761719"/>
      <use xlink:href="#DejaVuSans-65" x="428.173828"/>
      <use xlink:href="#DejaVuSans-61" x="489.697266"/>
      <use xlink:href="#DejaVuSans-6e" x="550.976562"/>
     </g>
    </g>
    <g id="line2d_22">
     <path d="M 308.480938 293.004312 
L 318.480938 293.004312 
L 328.480938 293.004312 
" style="fill: none; stroke-dasharray: 5.55,2.4; stroke-dashoffset: 0; stroke: #d62728; stroke-width: 1.5"/>
    </g>
    <g id="text_21">
     <!-- incest max -->
     <g transform="translate(336.480938 296.504312)scale(0.1 -0.1)">
      <use xlink:href="#DejaVuSans-69"/>
      <use xlink:href="#DejaVuSans-6e" x="27.783203"/>
      <use xlink:href="#DejaVuSans-63" x="91.162109"/>
      <use xlink:href="#DejaVuSans-65" x="146.142578"/>
      <use xlink:href="#DejaVuSans-73" x="207.666016"/>
      <use xlink:href="#DejaVuSans-74" x="259.765625"/>
      <use xlink:href="#DejaVuSans-20" x="298.974609"/>
      <use xlink:href="#DejaVuSans-6d" x="330.761719"/>
      <use xlink:href="#DejaVuSans-61" x="428.173828"/>
      <use xlink:href="#DejaVuSans-78" x="489.453125"/>
     </g>
    </g>
   </g>
  </g>
 </g>
 <defs>
  <clipPath id="p0a8bfa1bdd">
   <rect x="57.6" y="41.472" width="357.12" height="266.112"/>
  </clipPath>
 </defs>
</svg>
