<?xml version="1.0" encoding="utf-8" standalone="no"?>
<!DOCTYPE svg PUBLIC "-//W3C//DTD SVG 1.1//EN"
  "http://www.w3.org/Graphics/SVG/1.1/DTD/svg11.dtd">
<svg xmlns:xlink="http://www.w3.org/1999/xlink" width="460.8pt" height="345.6pt" viewBox="0 0 460.8 345.6" xmlns="http://www.w3.org/2000/svg" version="1.1">
 <metadata>
  <rdf:RDF xmlns:dc="http://purl.org/dc/elements/1.1/" xmlns:cc="http://creativecommons.org/ns#" xmlns:rdf="http://www.w3.org/1999/02/22-rdf-syntax-ns#">
   <cc:Work>
    <dc:type rdf:resource="http://purl.org/dc/dcmitype/StillImage"/>
    <dc:date>2022-10-13T11:28:34.700864</dc:date>
    <dc:format>image/svg+xml</dc:format>
    <dc:creator>
     <cc:Agent>
      <dc:title>Matplotlib v3.6.0, https://matplotlib.org/</dc:title>
     </cc:Agent>
    </dc:creator>
   </cc:Work>
  </rdf:RDF>
 </metadata>
 <defs>
  <style type="text/css">*{stroke-linejoin: round; stroke-linecap: butt}</style>
 </defs>
 <g id="figure_1">
  <g id="patch_1">
   <path d="M 0 345.6 
L 460.8 345.6 
L 460.8 0 
L 0 0 
z
" style="fill: #ffffff"/>
  </g>
  <g id="axes_1">
   <g id="patch_2">
    <path d="M 57.6 307.584 
L 414.72 307.584 
L 414.72 41.472 
L 57.6 41.472 
z
" style="fill: #ffffff"/>
   </g>
   <g id="PolyCollection_1">
    <path d="M 73.832727 78.87233 
L 73.832727 113.356313 
L 77.942278 119.283361 
L 82.05183 127.088412 
L 86.161381 119.736333 
L 90.270932 138.23807 
L 94.380483 146.121722 
L 98.490035 155.198879 
L 102.599586 154.707565 
L 106.709137 157.712444 
L 110.818688 160.050619 
L 114.928239 162.605593 
L 119.037791 158.784978 
L 123.147342 166.683068 
L 127.256893 176.739252 
L 131.366444 165.090293 
L 135.475995 169.235645 
L 139.585547 171.46492 
L 143.695098 164.888591 
L 147.804649 158.864228 
L 151.9142 156.06717 
L 156.023751 168.519709 
L 160.133303 154.306217 
L 164.242854 161.540373 
L 168.352405 165.152324 
L 172.461956 156.296237 
L 176.571507 159.292276 
L 180.681059 164.248111 
L 184.79061 165.994362 
L 188.900161 167.220088 
L 193.009712 160.926557 
L 197.119264 163.8428 
L 201.228815 165.095284 
L 205.338366 163.036224 
L 209.447917 160.896953 
L 213.557468 173.815615 
L 217.66702 165.269494 
L 221.776571 164.361797 
L 225.886122 168.760074 
L 229.995673 181.376578 
L 234.105224 166.84069 
L 238.214776 178.768083 
L 242.324327 187.905525 
L 246.433878 176.495001 
L 250.543429 182.445808 
L 254.65298 177.612489 
L 258.762532 172.899309 
L 262.872083 177.453248 
L 266.981634 174.681983 
L 271.091185 172.151972 
L 275.200736 184.243908 
L 279.310288 173.306432 
L 283.419839 185.817191 
L 287.52939 180.452906 
L 291.638941 176.167719 
L 295.748493 173.589168 
L 299.858044 173.295521 
L 303.967595 175.588971 
L 308.077146 173.429852 
L 312.186697 172.427972 
L 316.296249 178.055294 
L 320.4058 180.692916 
L 324.515351 168.678398 
L 328.624902 170.705276 
L 332.734453 175.886177 
L 336.844005 165.764057 
L 340.953556 166.582906 
L 345.063107 181.278072 
L 349.172658 189.909281 
L 353.282209 181.285001 
L 357.391761 177.729581 
L 361.501312 190.32496 
L 365.610863 173.310733 
L 369.720414 190.489286 
L 373.829965 184.580443 
L 377.939517 183.691973 
L 382.049068 178.901997 
L 386.158619 178.197503 
L 390.26817 183.679433 
L 394.377722 180.547898 
L 398.487273 186.732543 
L 398.487273 85.44828 
L 398.487273 85.44828 
L 394.377722 75.495627 
L 390.26817 87.327295 
L 386.158619 77.422411 
L 382.049068 74.282111 
L 377.939517 76.092941 
L 373.829965 78.523877 
L 369.720414 77.846125 
L 365.610863 70.431281 
L 361.501312 77.953868 
L 357.391761 79.884639 
L 353.282209 78.631436 
L 349.172658 91.05945 
L 345.063107 76.295955 
L 340.953556 71.762015 
L 336.844005 70.120142 
L 332.734453 71.141223 
L 328.624902 71.31277 
L 324.515351 75.030198 
L 320.4058 80.786979 
L 316.296249 76.834129 
L 312.186697 79.792893 
L 308.077146 75.443282 
L 303.967595 77.183865 
L 299.858044 77.630473 
L 295.748493 82.394611 
L 291.638941 81.53884 
L 287.52939 84.119561 
L 283.419839 88.096372 
L 279.310288 95.110868 
L 275.200736 95.738671 
L 271.091185 90.37549 
L 266.981634 86.955705 
L 262.872083 87.359417 
L 258.762532 86.774759 
L 254.65298 79.879223 
L 250.543429 88.379222 
L 246.433878 83.835682 
L 242.324327 89.23797 
L 238.214776 82.150563 
L 234.105224 80.065128 
L 229.995673 84.175072 
L 225.886122 76.308977 
L 221.776571 82.747319 
L 217.66702 80.720379 
L 213.557468 86.611611 
L 209.447917 80.396541 
L 205.338366 73.180891 
L 201.228815 84.116342 
L 197.119264 78.749205 
L 193.009712 78.013444 
L 188.900161 86.178694 
L 184.79061 82.168843 
L 180.681059 77.929178 
L 176.571507 78.600701 
L 172.461956 75.516033 
L 168.352405 80.602641 
L 164.242854 80.792483 
L 160.133303 71.582877 
L 156.023751 74.88169 
L 151.9142 77.212793 
L 147.804649 76.182389 
L 143.695098 77.382878 
L 139.585547 85.960607 
L 135.475995 87.343692 
L 131.366444 94.270814 
L 127.256893 91.622759 
L 123.147342 89.339782 
L 119.037791 83.897459 
L 114.928239 89.215925 
L 110.818688 83.81666 
L 106.709137 82.283001 
L 102.599586 80.996685 
L 98.490035 82.968196 
L 94.380483 86.986541 
L 90.270932 80.624885 
L 86.161381 80.767011 
L 82.05183 78.902394 
L 77.942278 80.04454 
L 73.832727 78.87233 
z
" clip-path="url(#p65a35981fe)" style="fill: #1f77b4; fill-opacity: 0.3"/>
   </g>
   <g id="PolyCollection_2">
    <path d="M 73.832727 53.568 
L 73.832727 194.778876 
L 77.942278 175.790824 
L 82.05183 190.544667 
L 86.161381 184.068028 
L 90.270932 211.929327 
L 94.380483 219.544451 
L 98.490035 280.433423 
L 102.599586 269.266056 
L 106.709137 259.12253 
L 110.818688 261.177237 
L 114.928239 232.691212 
L 119.037791 226.233537 
L 123.147342 260.043757 
L 127.256893 209.966819 
L 131.366444 221.734764 
L 135.475995 278.168366 
L 139.585547 295.488 
L 143.695098 224.188095 
L 147.804649 261.473048 
L 151.9142 224.859142 
L 156.023751 263.394938 
L 160.133303 248.215363 
L 164.242854 241.602919 
L 168.352405 271.894916 
L 172.461956 230.372716 
L 176.571507 226.69895 
L 180.681059 225.339476 
L 184.79061 269.593125 
L 188.900161 257.426658 
L 193.009712 221.548803 
L 197.119264 258.095218 
L 201.228815 256.595033 
L 205.338366 259.240744 
L 209.447917 293.625332 
L 213.557468 265.383501 
L 217.66702 239.556968 
L 221.776571 242.970666 
L 225.886122 241.275203 
L 229.995673 237.570016 
L 234.105224 260.456733 
L 238.214776 243.701259 
L 242.324327 252.597091 
L 246.433878 269.150152 
L 250.543429 270.24795 
L 254.65298 245.767343 
L 258.762532 261.10737 
L 262.872083 265.234515 
L 266.981634 270.281855 
L 271.091185 250.593764 
L 275.200736 286.183898 
L 279.310288 264.384884 
L 283.419839 284.05641 
L 287.52939 260.494153 
L 291.638941 256.019695 
L 295.748493 274.665367 
L 299.858044 259.811501 
L 303.967595 226.022848 
L 308.077146 242.682966 
L 312.186697 257.751411 
L 316.296249 244.497103 
L 320.4058 266.807116 
L 324.515351 248.389256 
L 328.624902 248.544226 
L 332.734453 250.198825 
L 336.844005 242.510381 
L 340.953556 250.997442 
L 345.063107 283.642811 
L 349.172658 264.415793 
L 353.282209 231.605639 
L 357.391761 207.359318 
L 361.501312 253.514742 
L 365.610863 251.576596 
L 369.720414 247.576774 
L 373.829965 267.77023 
L 377.939517 256.385095 
L 382.049068 260.956554 
L 386.158619 271.498077 
L 390.26817 249.264964 
L 394.377722 240.090161 
L 398.487273 264.594341 
L 398.487273 85.987362 
L 398.487273 85.987362 
L 394.377722 69.360841 
L 390.26817 68.706157 
L 386.158619 84.349086 
L 382.049068 80.44769 
L 377.939517 82.082856 
L 373.829965 83.300673 
L 369.720414 80.179978 
L 365.610863 80.343742 
L 361.501312 77.081482 
L 357.391761 65.423999 
L 353.282209 71.846595 
L 349.172658 83.094821 
L 345.063107 96.823514 
L 340.953556 74.440745 
L 336.844005 63.751517 
L 332.734453 70.92831 
L 328.624902 65.983548 
L 324.515351 76.920869 
L 320.4058 89.148419 
L 316.296249 77.760311 
L 312.186697 81.380944 
L 308.077146 82.742006 
L 303.967595 69.373143 
L 299.858044 86.006626 
L 295.748493 94.897842 
L 291.638941 80.904982 
L 287.52939 93.97017 
L 283.419839 113.132464 
L 279.310288 106.501773 
L 275.200736 103.451028 
L 271.091185 88.530566 
L 266.981634 98.519239 
L 262.872083 102.00787 
L 258.762532 91.999504 
L 254.65298 77.72476 
L 250.543429 97.697875 
L 246.433878 95.198376 
L 242.324327 88.547926 
L 238.214776 68.963863 
L 234.105224 79.383756 
L 229.995673 70.92069 
L 225.886122 66.009725 
L 221.776571 67.497787 
L 217.66702 72.849755 
L 213.557468 80.274974 
L 209.447917 95.358653 
L 205.338366 69.516295 
L 201.228815 82.801225 
L 197.119264 85.832969 
L 193.009712 65.492098 
L 188.900161 78.808987 
L 184.79061 78.77091 
L 180.681059 61.959454 
L 176.571507 62.845491 
L 172.461956 62.29603 
L 168.352405 87.33515 
L 164.242854 70.988836 
L 160.133303 68.76485 
L 156.023751 74.852272 
L 151.9142 64.921883 
L 147.804649 82.804899 
L 143.695098 61.702163 
L 139.585547 118.453444 
L 135.475995 94.09508 
L 131.366444 67.965152 
L 127.256893 70.107708 
L 123.147342 71.672106 
L 119.037791 68.657946 
L 114.928239 77.775805 
L 110.818688 81.669097 
L 106.709137 81.624589 
L 102.599586 94.407328 
L 98.490035 83.95171 
L 94.380483 68.844436 
L 90.270932 63.792001 
L 86.161381 63.230615 
L 82.05183 58.325078 
L 77.942278 57.603585 
L 73.832727 53.568 
z
" clip-path="url(#p65a35981fe)" style="fill: #ff7f0e; fill-opacity: 0.3"/>
   </g>
   <g id="matplotlib.axis_1">
    <g id="xtick_1">
     <g id="line2d_1">
      <defs>
       <path id="mf0acda950b" d="M 0 0 
L 0 3.5 
" style="stroke: #000000; stroke-width: 0.8"/>
      </defs>
      <g>
       <use xlink:href="#mf0acda950b" x="73.832727" y="307.584" style="stroke: #000000; stroke-width: 0.8"/>
      </g>
     </g>
     <g id="text_1">
      <!-- 0 -->
      <g transform="translate(70.651477 322.182437) scale(0.1 -0.1)">
       <defs>
        <path id="DejaVuSans-30" d="M 2034 4250 
Q 1547 4250 1301 3770 
Q 1056 3291 1056 2328 
Q 1056 1369 1301 889 
Q 1547 409 2034 409 
Q 2525 409 2770 889 
Q 3016 1369 3016 2328 
Q 3016 3291 2770 3770 
Q 2525 4250 2034 4250 
z
M 2034 4750 
Q 2819 4750 3233 4129 
Q 3647 3509 3647 2328 
Q 3647 1150 3233 529 
Q 2819 -91 2034 -91 
Q 1250 -91 836 529 
Q 422 1150 422 2328 
Q 422 3509 836 4129 
Q 1250 4750 2034 4750 
z
" transform="scale(0.015625)"/>
       </defs>
       <use xlink:href="#DejaVuSans-30"/>
      </g>
     </g>
    </g>
    <g id="xtick_2">
     <g id="line2d_2">
      <g>
       <use xlink:href="#mf0acda950b" x="114.928239" y="307.584" style="stroke: #000000; stroke-width: 0.8"/>
      </g>
     </g>
     <g id="text_2">
      <!-- 10 -->
      <g transform="translate(108.565739 322.182437) scale(0.1 -0.1)">
       <defs>
        <path id="DejaVuSans-31" d="M 794 531 
L 1825 531 
L 1825 4091 
L 703 3866 
L 703 4441 
L 1819 4666 
L 2450 4666 
L 2450 531 
L 3481 531 
L 3481 0 
L 794 0 
L 794 531 
z
" transform="scale(0.015625)"/>
       </defs>
       <use xlink:href="#DejaVuSans-31"/>
       <use xlink:href="#DejaVuSans-30" x="63.623047"/>
      </g>
     </g>
    </g>
    <g id="xtick_3">
     <g id="line2d_3">
      <g>
       <use xlink:href="#mf0acda950b" x="156.023751" y="307.584" style="stroke: #000000; stroke-width: 0.8"/>
      </g>
     </g>
     <g id="text_3">
      <!-- 20 -->
      <g transform="translate(149.661251 322.182437) scale(0.1 -0.1)">
       <defs>
        <path id="DejaVuSans-32" d="M 1228 531 
L 3431 531 
L 3431 0 
L 469 0 
L 469 531 
Q 828 903 1448 1529 
Q 2069 2156 2228 2338 
Q 2531 2678 2651 2914 
Q 2772 3150 2772 3378 
Q 2772 3750 2511 3984 
Q 2250 4219 1831 4219 
Q 1534 4219 1204 4116 
Q 875 4013 500 3803 
L 500 4441 
Q 881 4594 1212 4672 
Q 1544 4750 1819 4750 
Q 2544 4750 2975 4387 
Q 3406 4025 3406 3419 
Q 3406 3131 3298 2873 
Q 3191 2616 2906 2266 
Q 2828 2175 2409 1742 
Q 1991 1309 1228 531 
z
" transform="scale(0.015625)"/>
       </defs>
       <use xlink:href="#DejaVuSans-32"/>
       <use xlink:href="#DejaVuSans-30" x="63.623047"/>
      </g>
     </g>
    </g>
    <g id="xtick_4">
     <g id="line2d_4">
      <g>
       <use xlink:href="#mf0acda950b" x="197.119264" y="307.584" style="stroke: #000000; stroke-width: 0.8"/>
      </g>
     </g>
     <g id="text_4">
      <!-- 30 -->
      <g transform="translate(190.756764 322.182437) scale(0.1 -0.1)">
       <defs>
        <path id="DejaVuSans-33" d="M 2597 2516 
Q 3050 2419 3304 2112 
Q 3559 1806 3559 1356 
Q 3559 666 3084 287 
Q 2609 -91 1734 -91 
Q 1441 -91 1130 -33 
Q 819 25 488 141 
L 488 750 
Q 750 597 1062 519 
Q 1375 441 1716 441 
Q 2309 441 2620 675 
Q 2931 909 2931 1356 
Q 2931 1769 2642 2001 
Q 2353 2234 1838 2234 
L 1294 2234 
L 1294 2753 
L 1863 2753 
Q 2328 2753 2575 2939 
Q 2822 3125 2822 3475 
Q 2822 3834 2567 4026 
Q 2313 4219 1838 4219 
Q 1578 4219 1281 4162 
Q 984 4106 628 3988 
L 628 4550 
Q 988 4650 1302 4700 
Q 1616 4750 1894 4750 
Q 2613 4750 3031 4423 
Q 3450 4097 3450 3541 
Q 3450 3153 3228 2886 
Q 3006 2619 2597 2516 
z
" transform="scale(0.015625)"/>
       </defs>
       <use xlink:href="#DejaVuSans-33"/>
       <use xlink:href="#DejaVuSans-30" x="63.623047"/>
      </g>
     </g>
    </g>
    <g id="xtick_5">
     <g id="line2d_5">
      <g>
       <use xlink:href="#mf0acda950b" x="238.214776" y="307.584" style="stroke: #000000; stroke-width: 0.8"/>
      </g>
     </g>
     <g id="text_5">
      <!-- 40 -->
      <g transform="translate(231.852276 322.182437) scale(0.1 -0.1)">
       <defs>
        <path id="DejaVuSans-34" d="M 2419 4116 
L 825 1625 
L 2419 1625 
L 2419 4116 
z
M 2253 4666 
L 3047 4666 
L 3047 1625 
L 3713 1625 
L 3713 1100 
L 3047 1100 
L 3047 0 
L 2419 0 
L 2419 1100 
L 313 1100 
L 313 1709 
L 2253 4666 
z
" transform="scale(0.015625)"/>
       </defs>
       <use xlink:href="#DejaVuSans-34"/>
       <use xlink:href="#DejaVuSans-30" x="63.623047"/>
      </g>
     </g>
    </g>
    <g id="xtick_6">
     <g id="line2d_6">
      <g>
       <use xlink:href="#mf0acda950b" x="279.310288" y="307.584" style="stroke: #000000; stroke-width: 0.8"/>
      </g>
     </g>
     <g id="text_6">
      <!-- 50 -->
      <g transform="translate(272.947788 322.182437) scale(0.1 -0.1)">
       <defs>
        <path id="DejaVuSans-35" d="M 691 4666 
L 3169 4666 
L 3169 4134 
L 1269 4134 
L 1269 2991 
Q 1406 3038 1543 3061 
Q 1681 3084 1819 3084 
Q 2600 3084 3056 2656 
Q 3513 2228 3513 1497 
Q 3513 744 3044 326 
Q 2575 -91 1722 -91 
Q 1428 -91 1123 -41 
Q 819 9 494 109 
L 494 744 
Q 775 591 1075 516 
Q 1375 441 1709 441 
Q 2250 441 2565 725 
Q 2881 1009 2881 1497 
Q 2881 1984 2565 2268 
Q 2250 2553 1709 2553 
Q 1456 2553 1204 2497 
Q 953 2441 691 2322 
L 691 4666 
z
" transform="scale(0.015625)"/>
       </defs>
       <use xlink:href="#DejaVuSans-35"/>
       <use xlink:href="#DejaVuSans-30" x="63.623047"/>
      </g>
     </g>
    </g>
    <g id="xtick_7">
     <g id="line2d_7">
      <g>
       <use xlink:href="#mf0acda950b" x="320.4058" y="307.584" style="stroke: #000000; stroke-width: 0.8"/>
      </g>
     </g>
     <g id="text_7">
      <!-- 60 -->
      <g transform="translate(314.0433 322.182437) scale(0.1 -0.1)">
       <defs>
        <path id="DejaVuSans-36" d="M 2113 2584 
Q 1688 2584 1439 2293 
Q 1191 2003 1191 1497 
Q 1191 994 1439 701 
Q 1688 409 2113 409 
Q 2538 409 2786 701 
Q 3034 994 3034 1497 
Q 3034 2003 2786 2293 
Q 2538 2584 2113 2584 
z
M 3366 4563 
L 3366 3988 
Q 3128 4100 2886 4159 
Q 2644 4219 2406 4219 
Q 1781 4219 1451 3797 
Q 1122 3375 1075 2522 
Q 1259 2794 1537 2939 
Q 1816 3084 2150 3084 
Q 2853 3084 3261 2657 
Q 3669 2231 3669 1497 
Q 3669 778 3244 343 
Q 2819 -91 2113 -91 
Q 1303 -91 875 529 
Q 447 1150 447 2328 
Q 447 3434 972 4092 
Q 1497 4750 2381 4750 
Q 2619 4750 2861 4703 
Q 3103 4656 3366 4563 
z
" transform="scale(0.015625)"/>
       </defs>
       <use xlink:href="#DejaVuSans-36"/>
       <use xlink:href="#DejaVuSans-30" x="63.623047"/>
      </g>
     </g>
    </g>
    <g id="xtick_8">
     <g id="line2d_8">
      <g>
       <use xlink:href="#mf0acda950b" x="361.501312" y="307.584" style="stroke: #000000; stroke-width: 0.8"/>
      </g>
     </g>
     <g id="text_8">
      <!-- 70 -->
      <g transform="translate(355.138812 322.182437) scale(0.1 -0.1)">
       <defs>
        <path id="DejaVuSans-37" d="M 525 4666 
L 3525 4666 
L 3525 4397 
L 1831 0 
L 1172 0 
L 2766 4134 
L 525 4134 
L 525 4666 
z
" transform="scale(0.015625)"/>
       </defs>
       <use xlink:href="#DejaVuSans-37"/>
       <use xlink:href="#DejaVuSans-30" x="63.623047"/>
      </g>
     </g>
    </g>
    <g id="xtick_9">
     <g id="line2d_9">
      <g>
       <use xlink:href="#mf0acda950b" x="402.596824" y="307.584" style="stroke: #000000; stroke-width: 0.8"/>
      </g>
     </g>
     <g id="text_9">
      <!-- 80 -->
      <g transform="translate(396.234324 322.182437) scale(0.1 -0.1)">
       <defs>
        <path id="DejaVuSans-38" d="M 2034 2216 
Q 1584 2216 1326 1975 
Q 1069 1734 1069 1313 
Q 1069 891 1326 650 
Q 1584 409 2034 409 
Q 2484 409 2743 651 
Q 3003 894 3003 1313 
Q 3003 1734 2745 1975 
Q 2488 2216 2034 2216 
z
M 1403 2484 
Q 997 2584 770 2862 
Q 544 3141 544 3541 
Q 544 4100 942 4425 
Q 1341 4750 2034 4750 
Q 2731 4750 3128 4425 
Q 3525 4100 3525 3541 
Q 3525 3141 3298 2862 
Q 3072 2584 2669 2484 
Q 3125 2378 3379 2068 
Q 3634 1759 3634 1313 
Q 3634 634 3220 271 
Q 2806 -91 2034 -91 
Q 1263 -91 848 271 
Q 434 634 434 1313 
Q 434 1759 690 2068 
Q 947 2378 1403 2484 
z
M 1172 3481 
Q 1172 3119 1398 2916 
Q 1625 2713 2034 2713 
Q 2441 2713 2670 2916 
Q 2900 3119 2900 3481 
Q 2900 3844 2670 4047 
Q 2441 4250 2034 4250 
Q 1625 4250 1398 4047 
Q 1172 3844 1172 3481 
z
" transform="scale(0.015625)"/>
       </defs>
       <use xlink:href="#DejaVuSans-38"/>
       <use xlink:href="#DejaVuSans-30" x="63.623047"/>
      </g>
     </g>
    </g>
   </g>
   <g id="matplotlib.axis_2">
    <g id="ytick_1">
     <g id="line2d_10">
      <defs>
       <path id="maa1fe74267" d="M 0 0 
L -3.5 0 
" style="stroke: #000000; stroke-width: 0.8"/>
      </defs>
      <g>
       <use xlink:href="#maa1fe74267" x="57.6" y="291.642287" style="stroke: #000000; stroke-width: 0.8"/>
      </g>
     </g>
     <g id="text_10">
      <!-- −80 -->
      <g transform="translate(29.495313 295.441506) scale(0.1 -0.1)">
       <defs>
        <path id="DejaVuSans-2212" d="M 678 2272 
L 4684 2272 
L 4684 1741 
L 678 1741 
L 678 2272 
z
" transform="scale(0.015625)"/>
       </defs>
       <use xlink:href="#DejaVuSans-2212"/>
       <use xlink:href="#DejaVuSans-38" x="83.789062"/>
       <use xlink:href="#DejaVuSans-30" x="147.412109"/>
      </g>
     </g>
    </g>
    <g id="ytick_2">
     <g id="line2d_11">
      <g>
       <use xlink:href="#maa1fe74267" x="57.6" y="244.474839" style="stroke: #000000; stroke-width: 0.8"/>
      </g>
     </g>
     <g id="text_11">
      <!-- −60 -->
      <g transform="translate(29.495313 248.274058) scale(0.1 -0.1)">
       <use xlink:href="#DejaVuSans-2212"/>
       <use xlink:href="#DejaVuSans-36" x="83.789062"/>
       <use xlink:href="#DejaVuSans-30" x="147.412109"/>
      </g>
     </g>
    </g>
    <g id="ytick_3">
     <g id="line2d_12">
      <g>
       <use xlink:href="#maa1fe74267" x="57.6" y="197.307391" style="stroke: #000000; stroke-width: 0.8"/>
      </g>
     </g>
     <g id="text_12">
      <!-- −40 -->
      <g transform="translate(29.495313 201.10661) scale(0.1 -0.1)">
       <use xlink:href="#DejaVuSans-2212"/>
       <use xlink:href="#DejaVuSans-34" x="83.789062"/>
       <use xlink:href="#DejaVuSans-30" x="147.412109"/>
      </g>
     </g>
    </g>
    <g id="ytick_4">
     <g id="line2d_13">
      <g>
       <use xlink:href="#maa1fe74267" x="57.6" y="150.139943" style="stroke: #000000; stroke-width: 0.8"/>
      </g>
     </g>
     <g id="text_13">
      <!-- −20 -->
      <g transform="translate(29.495313 153.939162) scale(0.1 -0.1)">
       <use xlink:href="#DejaVuSans-2212"/>
       <use xlink:href="#DejaVuSans-32" x="83.789062"/>
       <use xlink:href="#DejaVuSans-30" x="147.412109"/>
      </g>
     </g>
    </g>
    <g id="ytick_5">
     <g id="line2d_14">
      <g>
       <use xlink:href="#maa1fe74267" x="57.6" y="102.972495" style="stroke: #000000; stroke-width: 0.8"/>
      </g>
     </g>
     <g id="text_14">
      <!-- 0 -->
      <g transform="translate(44.2375 106.771713) scale(0.1 -0.1)">
       <use xlink:href="#DejaVuSans-30"/>
      </g>
     </g>
    </g>
    <g id="ytick_6">
     <g id="line2d_15">
      <g>
       <use xlink:href="#maa1fe74267" x="57.6" y="55.805046" style="stroke: #000000; stroke-width: 0.8"/>
      </g>
     </g>
     <g id="text_15">
      <!-- 20 -->
      <g transform="translate(37.875 59.604265) scale(0.1 -0.1)">
       <use xlink:href="#DejaVuSans-32"/>
       <use xlink:href="#DejaVuSans-30" x="63.623047"/>
      </g>
     </g>
    </g>
   </g>
   <g id="line2d_16">
    <path d="M 73.832727 96.114322 
L 77.942278 99.66395 
L 82.05183 102.995403 
L 86.161381 100.251672 
L 90.270932 109.431477 
L 94.380483 116.554131 
L 98.490035 119.083538 
L 102.599586 117.852125 
L 106.709137 119.997723 
L 110.818688 121.93364 
L 114.928239 125.910759 
L 119.037791 121.341218 
L 123.147342 128.011425 
L 127.256893 134.181006 
L 131.366444 129.680554 
L 135.475995 128.289668 
L 139.585547 128.712763 
L 143.695098 121.135735 
L 147.804649 117.523308 
L 151.9142 116.639981 
L 156.023751 121.700699 
L 160.133303 112.944547 
L 164.242854 121.166428 
L 168.352405 122.877482 
L 172.461956 115.906135 
L 176.571507 118.946489 
L 180.681059 121.088645 
L 184.79061 124.081603 
L 188.900161 126.699391 
L 193.009712 119.470001 
L 197.119264 121.296003 
L 201.228815 124.605813 
L 205.338366 118.108558 
L 209.447917 120.646747 
L 213.557468 130.213613 
L 217.66702 122.994937 
L 221.776571 123.554558 
L 225.886122 122.534525 
L 229.995673 132.775825 
L 234.105224 123.452909 
L 238.214776 130.459323 
L 242.324327 138.571748 
L 246.433878 130.165341 
L 250.543429 135.412515 
L 254.65298 128.745856 
L 258.762532 129.837034 
L 262.872083 132.406332 
L 266.981634 130.818844 
L 271.091185 131.263731 
L 275.200736 139.991289 
L 279.310288 134.20865 
L 283.419839 136.956782 
L 287.52939 132.286233 
L 291.638941 128.85328 
L 295.748493 127.99189 
L 299.858044 125.462997 
L 303.967595 126.386418 
L 308.077146 124.436567 
L 312.186697 126.110432 
L 316.296249 127.444712 
L 320.4058 130.739948 
L 324.515351 121.854298 
L 328.624902 121.009023 
L 332.734453 123.5137 
L 336.844005 117.9421 
L 340.953556 119.17246 
L 345.063107 128.787014 
L 349.172658 140.484366 
L 353.282209 129.958218 
L 357.391761 128.80711 
L 361.501312 134.139414 
L 365.610863 121.871007 
L 369.720414 134.167705 
L 373.829965 131.55216 
L 377.939517 129.892457 
L 382.049068 126.592054 
L 386.158619 127.809957 
L 390.26817 135.503364 
L 394.377722 128.021762 
L 398.487273 136.090412 
" clip-path="url(#p65a35981fe)" style="fill: none; stroke: #1f77b4; stroke-width: 1.5; stroke-linecap: square"/>
   </g>
   <g id="line2d_17">
    <path d="M 73.832727 124.173438 
L 77.942278 116.697204 
L 82.05183 124.434873 
L 86.161381 123.649322 
L 90.270932 137.860664 
L 94.380483 144.194444 
L 98.490035 182.192567 
L 102.599586 181.836692 
L 106.709137 170.37356 
L 110.818688 171.423167 
L 114.928239 155.233508 
L 119.037791 147.445741 
L 123.147342 165.857931 
L 127.256893 140.037264 
L 131.366444 144.849958 
L 135.475995 186.131723 
L 139.585547 206.970722 
L 143.695098 142.945129 
L 147.804649 172.138974 
L 151.9142 144.890513 
L 156.023751 169.123605 
L 160.133303 158.490106 
L 164.242854 156.295877 
L 168.352405 179.615033 
L 172.461956 146.334373 
L 176.571507 144.77222 
L 180.681059 143.649465 
L 184.79061 174.182017 
L 188.900161 168.117823 
L 193.009712 143.520451 
L 197.119264 171.964093 
L 201.228815 169.698129 
L 205.338366 164.378519 
L 209.447917 194.491992 
L 213.557468 172.829238 
L 217.66702 156.203361 
L 221.776571 155.234226 
L 225.886122 153.642464 
L 229.995673 154.245353 
L 234.105224 169.920245 
L 238.214776 156.332561 
L 242.324327 170.572508 
L 246.433878 182.174264 
L 250.543429 183.972913 
L 254.65298 161.746051 
L 258.762532 176.553437 
L 262.872083 183.621193 
L 266.981634 184.400547 
L 271.091185 169.562165 
L 275.200736 194.817463 
L 279.310288 185.443329 
L 283.419839 198.594437 
L 287.52939 177.232161 
L 291.638941 168.462339 
L 295.748493 184.781605 
L 299.858044 172.909063 
L 303.967595 147.697995 
L 308.077146 162.712486 
L 312.186697 169.566177 
L 316.296249 161.128707 
L 320.4058 177.977768 
L 324.515351 162.655062 
L 328.624902 157.263887 
L 332.734453 160.563567 
L 336.844005 153.130949 
L 340.953556 162.719094 
L 345.063107 190.233163 
L 349.172658 173.755307 
L 353.282209 151.726117 
L 357.391761 136.391658 
L 361.501312 165.298112 
L 365.610863 165.960169 
L 369.720414 163.878376 
L 373.829965 175.535451 
L 377.939517 169.233976 
L 382.049068 170.702122 
L 386.158619 177.923581 
L 390.26817 158.985561 
L 394.377722 154.725501 
L 398.487273 175.290852 
" clip-path="url(#p65a35981fe)" style="fill: none; stroke: #ff7f0e; stroke-width: 1.5; stroke-linecap: square"/>
   </g>
   <g id="line2d_18">
    <path d="M 73.832727 88.457047 
L 77.942278 88.533376 
L 82.05183 86.251453 
L 86.161381 85.580373 
L 90.270932 89.786865 
L 94.380483 88.944813 
L 98.490035 89.019887 
L 102.599586 87.99886 
L 106.709137 89.191241 
L 110.818688 89.683562 
L 114.928239 88.606917 
L 119.037791 87.668533 
L 123.147342 89.625328 
L 127.256893 89.734648 
L 131.366444 89.769331 
L 135.475995 89.904132 
L 139.585547 89.143869 
L 143.695098 89.813414 
L 147.804649 89.443521 
L 151.9142 88.606917 
L 156.023751 88.606917 
L 160.133303 89.058339 
L 164.242854 88.104256 
L 168.352405 88.121566 
L 172.461956 87.933798 
L 176.571507 89.481869 
L 180.681059 88.944813 
L 184.79061 88.517912 
L 188.900161 88.580389 
L 193.009712 89.288939 
L 197.119264 88.944813 
L 201.228815 88.590964 
L 205.338366 89.204952 
L 209.447917 85.887908 
L 213.557468 89.143869 
L 217.66702 89.481869 
L 221.776571 89.552508 
L 225.886122 89.876548 
L 229.995673 88.274061 
L 234.105224 88.926412 
L 238.214776 89.904132 
L 242.324327 89.65011 
L 246.433878 88.575119 
L 250.543429 88.70497 
L 254.65298 88.606917 
L 258.762532 86.719474 
L 262.872083 89.65011 
L 266.981634 89.077803 
L 271.091185 89.077803 
L 275.200736 89.82233 
L 279.310288 89.204952 
L 283.419839 88.926412 
L 287.52939 88.192102 
L 291.638941 88.836501 
L 295.748493 89.104008 
L 299.858044 87.913828 
L 303.967595 89.032635 
L 308.077146 89.858336 
L 312.186697 89.211838 
L 316.296249 89.778082 
L 320.4058 89.204952 
L 324.515351 87.715593 
L 328.624902 89.795681 
L 332.734453 89.084327 
L 336.844005 89.876548 
L 340.953556 88.807277 
L 345.063107 89.904132 
L 349.172658 89.071298 
L 353.282209 88.56986 
L 357.391761 87.901927 
L 361.501312 88.56986 
L 365.610863 88.219106 
L 369.720414 87.255336 
L 373.829965 89.904132 
L 377.939517 88.512779 
L 382.049068 89.211838 
L 386.158619 89.481869 
L 390.26817 88.92031 
L 394.377722 87.078629 
L 398.487273 88.274061 
" clip-path="url(#p65a35981fe)" style="fill: none; stroke-dasharray: 5.55,2.4; stroke-dashoffset: 0; stroke: #2ca02c; stroke-width: 1.5"/>
   </g>
   <g id="line2d_19">
    <path d="M 73.832727 88.169832 
L 77.942278 88.169832 
L 82.05183 88.112895 
L 86.161381 88.944813 
L 90.270932 87.482521 
L 94.380483 89.332081 
L 98.490035 88.908154 
L 102.599586 88.93253 
L 106.709137 88.169832 
L 110.818688 89.058339 
L 114.928239 89.332081 
L 119.037791 89.332081 
L 123.147342 89.191241 
L 127.256893 89.324835 
L 131.366444 89.804531 
L 135.475995 88.104256 
L 139.585547 88.564614 
L 143.695098 89.332081 
L 147.804649 88.52821 
L 151.9142 88.169832 
L 156.023751 88.950979 
L 160.133303 88.693872 
L 164.242854 88.169832 
L 168.352405 89.013539 
L 172.461956 87.542909 
L 176.571507 89.045452 
L 180.681059 88.836501 
L 184.79061 88.169832 
L 188.900161 87.050883 
L 193.009712 89.211838 
L 197.119264 89.353952 
L 201.228815 90.086744 
L 205.338366 88.169832 
L 209.447917 87.640032 
L 213.557468 88.801475 
L 217.66702 88.169832 
L 221.776571 88.902099 
L 225.886122 89.071298 
L 229.995673 88.46206 
L 234.105224 88.512779 
L 238.214776 87.622393 
L 242.324327 89.013539 
L 246.433878 89.332081 
L 250.543429 90.137247 
L 254.65298 89.332081 
L 258.762532 89.019887 
L 262.872083 89.332081 
L 266.981634 90.157755 
L 271.091185 89.332081 
L 275.200736 90.127059 
L 279.310288 90.037301 
L 283.419839 90.395958 
L 287.52939 89.184415 
L 291.638941 88.926412 
L 295.748493 89.332081 
L 299.858044 90.127059 
L 303.967595 89.332081 
L 308.077146 89.332081 
L 312.186697 88.969573 
L 316.296249 89.332081 
L 320.4058 89.000893 
L 324.515351 89.26061 
L 328.624902 88.125913 
L 332.734453 88.890035 
L 336.844005 89.332081 
L 340.953556 86.917272 
L 345.063107 89.332081 
L 349.172658 89.058339 
L 353.282209 89.332081 
L 357.391761 88.575119 
L 361.501312 89.045452 
L 365.610863 87.11803 
L 369.720414 89.332081 
L 373.829965 89.332081 
L 377.939517 88.896059 
L 382.049068 89.332081 
L 386.158619 89.332081 
L 390.26817 88.091357 
L 394.377722 87.647125 
L 398.487273 89.332081 
" clip-path="url(#p65a35981fe)" style="fill: none; stroke-dasharray: 5.55,2.4; stroke-dashoffset: 0; stroke: #d62728; stroke-width: 1.5"/>
   </g>
   <g id="patch_3">
    <path d="M 57.6 307.584 
L 57.6 41.472 
" style="fill: none; stroke: #000000; stroke-width: 0.8; stroke-linejoin: miter; stroke-linecap: square"/>
   </g>
   <g id="patch_4">
    <path d="M 414.72 307.584 
L 414.72 41.472 
" style="fill: none; stroke: #000000; stroke-width: 0.8; stroke-linejoin: miter; stroke-linecap: square"/>
   </g>
   <g id="patch_5">
    <path d="M 57.6 307.584 
L 414.72 307.584 
" style="fill: none; stroke: #000000; stroke-width: 0.8; stroke-linejoin: miter; stroke-linecap: square"/>
   </g>
   <g id="patch_6">
    <path d="M 57.6 41.472 
L 414.72 41.472 
" style="fill: none; stroke: #000000; stroke-width: 0.8; stroke-linejoin: miter; stroke-linecap: square"/>
   </g>
   <g id="text_16">
    <!-- fitness on 0_incest -->
    <g transform="translate(180.24 35.472) scale(0.12 -0.12)">
     <defs>
      <path id="DejaVuSans-66" d="M 2375 4863 
L 2375 4384 
L 1825 4384 
Q 1516 4384 1395 4259 
Q 1275 4134 1275 3809 
L 1275 3500 
L 2222 3500 
L 2222 3053 
L 1275 3053 
L 1275 0 
L 697 0 
L 697 3053 
L 147 3053 
L 147 3500 
L 697 3500 
L 697 3744 
Q 697 4328 969 4595 
Q 1241 4863 1831 4863 
L 2375 4863 
z
" transform="scale(0.015625)"/>
      <path id="DejaVuSans-69" d="M 603 3500 
L 1178 3500 
L 1178 0 
L 603 0 
L 603 3500 
z
M 603 4863 
L 1178 4863 
L 1178 4134 
L 603 4134 
L 603 4863 
z
" transform="scale(0.015625)"/>
      <path id="DejaVuSans-74" d="M 1172 4494 
L 1172 3500 
L 2356 3500 
L 2356 3053 
L 1172 3053 
L 1172 1153 
Q 1172 725 1289 603 
Q 1406 481 1766 481 
L 2356 481 
L 2356 0 
L 1766 0 
Q 1100 0 847 248 
Q 594 497 594 1153 
L 594 3053 
L 172 3053 
L 172 3500 
L 594 3500 
L 594 4494 
L 1172 4494 
z
" transform="scale(0.015625)"/>
      <path id="DejaVuSans-6e" d="M 3513 2113 
L 3513 0 
L 2938 0 
L 2938 2094 
Q 2938 2591 2744 2837 
Q 2550 3084 2163 3084 
Q 1697 3084 1428 2787 
Q 1159 2491 1159 1978 
L 1159 0 
L 581 0 
L 581 3500 
L 1159 3500 
L 1159 2956 
Q 1366 3272 1645 3428 
Q 1925 3584 2291 3584 
Q 2894 3584 3203 3211 
Q 3513 2838 3513 2113 
z
" transform="scale(0.015625)"/>
      <path id="DejaVuSans-65" d="M 3597 1894 
L 3597 1613 
L 953 1613 
Q 991 1019 1311 708 
Q 1631 397 2203 397 
Q 2534 397 2845 478 
Q 3156 559 3463 722 
L 3463 178 
Q 3153 47 2828 -22 
Q 2503 -91 2169 -91 
Q 1331 -91 842 396 
Q 353 884 353 1716 
Q 353 2575 817 3079 
Q 1281 3584 2069 3584 
Q 2775 3584 3186 3129 
Q 3597 2675 3597 1894 
z
M 3022 2063 
Q 3016 2534 2758 2815 
Q 2500 3097 2075 3097 
Q 1594 3097 1305 2825 
Q 1016 2553 972 2059 
L 3022 2063 
z
" transform="scale(0.015625)"/>
      <path id="DejaVuSans-73" d="M 2834 3397 
L 2834 2853 
Q 2591 2978 2328 3040 
Q 2066 3103 1784 3103 
Q 1356 3103 1142 2972 
Q 928 2841 928 2578 
Q 928 2378 1081 2264 
Q 1234 2150 1697 2047 
L 1894 2003 
Q 2506 1872 2764 1633 
Q 3022 1394 3022 966 
Q 3022 478 2636 193 
Q 2250 -91 1575 -91 
Q 1294 -91 989 -36 
Q 684 19 347 128 
L 347 722 
Q 666 556 975 473 
Q 1284 391 1588 391 
Q 1994 391 2212 530 
Q 2431 669 2431 922 
Q 2431 1156 2273 1281 
Q 2116 1406 1581 1522 
L 1381 1569 
Q 847 1681 609 1914 
Q 372 2147 372 2553 
Q 372 3047 722 3315 
Q 1072 3584 1716 3584 
Q 2034 3584 2315 3537 
Q 2597 3491 2834 3397 
z
" transform="scale(0.015625)"/>
      <path id="DejaVuSans-20" transform="scale(0.015625)"/>
      <path id="DejaVuSans-6f" d="M 1959 3097 
Q 1497 3097 1228 2736 
Q 959 2375 959 1747 
Q 959 1119 1226 758 
Q 1494 397 1959 397 
Q 2419 397 2687 759 
Q 2956 1122 2956 1747 
Q 2956 2369 2687 2733 
Q 2419 3097 1959 3097 
z
M 1959 3584 
Q 2709 3584 3137 3096 
Q 3566 2609 3566 1747 
Q 3566 888 3137 398 
Q 2709 -91 1959 -91 
Q 1206 -91 779 398 
Q 353 888 353 1747 
Q 353 2609 779 3096 
Q 1206 3584 1959 3584 
z
" transform="scale(0.015625)"/>
      <path id="DejaVuSans-5f" d="M 3263 -1063 
L 3263 -1509 
L -63 -1509 
L -63 -1063 
L 3263 -1063 
z
" transform="scale(0.015625)"/>
      <path id="DejaVuSans-63" d="M 3122 3366 
L 3122 2828 
Q 2878 2963 2633 3030 
Q 2388 3097 2138 3097 
Q 1578 3097 1268 2742 
Q 959 2388 959 1747 
Q 959 1106 1268 751 
Q 1578 397 2138 397 
Q 2388 397 2633 464 
Q 2878 531 3122 666 
L 3122 134 
Q 2881 22 2623 -34 
Q 2366 -91 2075 -91 
Q 1284 -91 818 406 
Q 353 903 353 1747 
Q 353 2603 823 3093 
Q 1294 3584 2113 3584 
Q 2378 3584 2631 3529 
Q 2884 3475 3122 3366 
z
" transform="scale(0.015625)"/>
     </defs>
     <use xlink:href="#DejaVuSans-66"/>
     <use xlink:href="#DejaVuSans-69" x="35.205078"/>
     <use xlink:href="#DejaVuSans-74" x="62.988281"/>
     <use xlink:href="#DejaVuSans-6e" x="102.197266"/>
     <use xlink:href="#DejaVuSans-65" x="165.576172"/>
     <use xlink:href="#DejaVuSans-73" x="227.099609"/>
     <use xlink:href="#DejaVuSans-73" x="279.199219"/>
     <use xlink:href="#DejaVuSans-20" x="331.298828"/>
     <use xlink:href="#DejaVuSans-6f" x="363.085938"/>
     <use xlink:href="#DejaVuSans-6e" x="424.267578"/>
     <use xlink:href="#DejaVuSans-20" x="487.646484"/>
     <use xlink:href="#DejaVuSans-30" x="519.433594"/>
     <use xlink:href="#DejaVuSans-5f" x="583.056641"/>
     <use xlink:href="#DejaVuSans-69" x="633.056641"/>
     <use xlink:href="#DejaVuSans-6e" x="660.839844"/>
     <use xlink:href="#DejaVuSans-63" x="724.21875"/>
     <use xlink:href="#DejaVuSans-65" x="779.199219"/>
     <use xlink:href="#DejaVuSans-73" x="840.722656"/>
     <use xlink:href="#DejaVuSans-74" x="892.822266"/>
    </g>
   </g>
   <g id="legend_1">
    <g id="patch_7">
     <path d="M 64.6 302.584 
L 137.764062 302.584 
Q 139.764062 302.584 139.764062 300.584 
L 139.764062 242.8715 
Q 139.764062 240.8715 137.764062 240.8715 
L 64.6 240.8715 
Q 62.6 240.8715 62.6 242.8715 
L 62.6 300.584 
Q 62.6 302.584 64.6 302.584 
z
" style="fill: #ffffff; opacity: 0.8; stroke: #cccccc; stroke-linejoin: miter"/>
    </g>
    <g id="line2d_20">
     <path d="M 66.6 248.969937 
L 76.6 248.969937 
L 86.6 248.969937 
" style="fill: none; stroke: #1f77b4; stroke-width: 1.5; stroke-linecap: square"/>
    </g>
    <g id="text_17">
     <!-- enemyA -->
     <g transform="translate(94.6 252.469937) scale(0.1 -0.1)">
      <defs>
       <path id="DejaVuSans-6d" d="M 3328 2828 
Q 3544 3216 3844 3400 
Q 4144 3584 4550 3584 
Q 5097 3584 5394 3201 
Q 5691 2819 5691 2113 
L 5691 0 
L 5113 0 
L 5113 2094 
Q 5113 2597 4934 2840 
Q 4756 3084 4391 3084 
Q 3944 3084 3684 2787 
Q 3425 2491 3425 1978 
L 3425 0 
L 2847 0 
L 2847 2094 
Q 2847 2600 2669 2842 
Q 2491 3084 2119 3084 
Q 1678 3084 1418 2786 
Q 1159 2488 1159 1978 
L 1159 0 
L 581 0 
L 581 3500 
L 1159 3500 
L 1159 2956 
Q 1356 3278 1631 3431 
Q 1906 3584 2284 3584 
Q 2666 3584 2933 3390 
Q 3200 3197 3328 2828 
z
" transform="scale(0.015625)"/>
       <path id="DejaVuSans-79" d="M 2059 -325 
Q 1816 -950 1584 -1140 
Q 1353 -1331 966 -1331 
L 506 -1331 
L 506 -850 
L 844 -850 
Q 1081 -850 1212 -737 
Q 1344 -625 1503 -206 
L 1606 56 
L 191 3500 
L 800 3500 
L 1894 763 
L 2988 3500 
L 3597 3500 
L 2059 -325 
z
" transform="scale(0.015625)"/>
       <path id="DejaVuSans-41" d="M 2188 4044 
L 1331 1722 
L 3047 1722 
L 2188 4044 
z
M 1831 4666 
L 2547 4666 
L 4325 0 
L 3669 0 
L 3244 1197 
L 1141 1197 
L 716 0 
L 50 0 
L 1831 4666 
z
" transform="scale(0.015625)"/>
      </defs>
      <use xlink:href="#DejaVuSans-65"/>
      <use xlink:href="#DejaVuSans-6e" x="61.523438"/>
      <use xlink:href="#DejaVuSans-65" x="124.902344"/>
      <use xlink:href="#DejaVuSans-6d" x="186.425781"/>
      <use xlink:href="#DejaVuSans-79" x="283.837891"/>
      <use xlink:href="#DejaVuSans-41" x="343.017578"/>
     </g>
    </g>
    <g id="line2d_21">
     <path d="M 66.6 263.648062 
L 76.6 263.648062 
L 86.6 263.648062 
" style="fill: none; stroke: #ff7f0e; stroke-width: 1.5; stroke-linecap: square"/>
    </g>
    <g id="text_18">
     <!-- enemyB -->
     <g transform="translate(94.6 267.148062) scale(0.1 -0.1)">
      <defs>
       <path id="DejaVuSans-42" d="M 1259 2228 
L 1259 519 
L 2272 519 
Q 2781 519 3026 730 
Q 3272 941 3272 1375 
Q 3272 1813 3026 2020 
Q 2781 2228 2272 2228 
L 1259 2228 
z
M 1259 4147 
L 1259 2741 
L 2194 2741 
Q 2656 2741 2882 2914 
Q 3109 3088 3109 3444 
Q 3109 3797 2882 3972 
Q 2656 4147 2194 4147 
L 1259 4147 
z
M 628 4666 
L 2241 4666 
Q 2963 4666 3353 4366 
Q 3744 4066 3744 3513 
Q 3744 3084 3544 2831 
Q 3344 2578 2956 2516 
Q 3422 2416 3680 2098 
Q 3938 1781 3938 1306 
Q 3938 681 3513 340 
Q 3088 0 2303 0 
L 628 0 
L 628 4666 
z
" transform="scale(0.015625)"/>
      </defs>
      <use xlink:href="#DejaVuSans-65"/>
      <use xlink:href="#DejaVuSans-6e" x="61.523438"/>
      <use xlink:href="#DejaVuSans-65" x="124.902344"/>
      <use xlink:href="#DejaVuSans-6d" x="186.425781"/>
      <use xlink:href="#DejaVuSans-79" x="283.837891"/>
      <use xlink:href="#DejaVuSans-42" x="343.017578"/>
     </g>
    </g>
    <g id="line2d_22">
     <path d="M 66.6 278.326187 
L 76.6 278.326187 
L 86.6 278.326187 
" style="fill: none; stroke-dasharray: 5.55,2.4; stroke-dashoffset: 0; stroke: #2ca02c; stroke-width: 1.5"/>
    </g>
    <g id="text_19">
     <!-- enemyA -->
     <g transform="translate(94.6 281.826187) scale(0.1 -0.1)">
      <use xlink:href="#DejaVuSans-65"/>
      <use xlink:href="#DejaVuSans-6e" x="61.523438"/>
      <use xlink:href="#DejaVuSans-65" x="124.902344"/>
      <use xlink:href="#DejaVuSans-6d" x="186.425781"/>
      <use xlink:href="#DejaVuSans-79" x="283.837891"/>
      <use xlink:href="#DejaVuSans-41" x="343.017578"/>
     </g>
    </g>
    <g id="line2d_23">
     <path d="M 66.6 293.004312 
L 76.6 293.004312 
L 86.6 293.004312 
" style="fill: none; stroke-dasharray: 5.55,2.4; stroke-dashoffset: 0; stroke: #d62728; stroke-width: 1.5"/>
    </g>
    <g id="text_20">
     <!-- enemyB -->
     <g transform="translate(94.6 296.504312) scale(0.1 -0.1)">
      <use xlink:href="#DejaVuSans-65"/>
      <use xlink:href="#DejaVuSans-6e" x="61.523438"/>
      <use xlink:href="#DejaVuSans-65" x="124.902344"/>
      <use xlink:href="#DejaVuSans-6d" x="186.425781"/>
      <use xlink:href="#DejaVuSans-79" x="283.837891"/>
      <use xlink:href="#DejaVuSans-42" x="343.017578"/>
     </g>
    </g>
   </g>
  </g>
 </g>
 <defs>
  <clipPath id="p65a35981fe">
   <rect x="57.6" y="41.472" width="357.12" height="266.112"/>
  </clipPath>
 </defs>
</svg>
