<?xml version="1.0" encoding="utf-8" standalone="no"?>
<!DOCTYPE svg PUBLIC "-//W3C//DTD SVG 1.1//EN"
  "http://www.w3.org/Graphics/SVG/1.1/DTD/svg11.dtd">
<svg xmlns:xlink="http://www.w3.org/1999/xlink" width="460.8pt" height="345.6pt" viewBox="0 0 460.8 345.6" xmlns="http://www.w3.org/2000/svg" version="1.1">
 <metadata>
  <rdf:RDF xmlns:dc="http://purl.org/dc/elements/1.1/" xmlns:cc="http://creativecommons.org/ns#" xmlns:rdf="http://www.w3.org/1999/02/22-rdf-syntax-ns#">
   <cc:Work>
    <dc:type rdf:resource="http://purl.org/dc/dcmitype/StillImage"/>
    <dc:date>2022-10-13T09:19:02.323872</dc:date>
    <dc:format>image/svg+xml</dc:format>
    <dc:creator>
     <cc:Agent>
      <dc:title>Matplotlib v3.6.0, https://matplotlib.org/</dc:title>
     </cc:Agent>
    </dc:creator>
   </cc:Work>
  </rdf:RDF>
 </metadata>
 <defs>
  <style type="text/css">*{stroke-linejoin: round; stroke-linecap: butt}</style>
 </defs>
 <g id="figure_1">
  <g id="patch_1">
   <path d="M 0 345.6 
L 460.8 345.6 
L 460.8 0 
L 0 0 
z
" style="fill: #ffffff"/>
  </g>
  <g id="axes_1">
   <g id="patch_2">
    <path d="M 57.6 307.584 
L 414.72 307.584 
L 414.72 41.472 
L 57.6 41.472 
z
" style="fill: #ffffff"/>
   </g>
   <g id="PolyCollection_1">
    <path d="M 73.832727 241.848194 
L 73.832727 272.785915 
L 80.45833 271.734253 
L 87.083933 272.758943 
L 93.709536 271.086079 
L 100.335139 271.213589 
L 106.960742 265.506153 
L 113.586345 269.111259 
L 120.211948 270.880025 
L 126.837551 269.72599 
L 133.463154 268.35005 
L 140.088757 263.506034 
L 146.71436 268.27756 
L 153.339963 263.394914 
L 159.965566 261.346714 
L 166.591169 258.97098 
L 173.216772 265.185731 
L 179.842375 266.426582 
L 186.467978 274.122195 
L 193.093581 275.199228 
L 199.719184 274.274789 
L 206.344787 276.366166 
L 212.97039 279.325735 
L 219.595993 271.063227 
L 226.221596 271.233546 
L 232.847199 275.797058 
L 239.472801 273.02961 
L 246.098404 273.632075 
L 252.724007 269.828408 
L 259.34961 266.230923 
L 265.975213 273.556475 
L 272.600816 272.896378 
L 279.226419 268.081187 
L 285.852022 277.892058 
L 292.477625 271.418451 
L 299.103228 265.842526 
L 305.728831 271.127916 
L 312.354434 269.309422 
L 318.980037 275.085659 
L 325.60564 268.028497 
L 332.231243 271.715782 
L 338.856846 269.844809 
L 345.482449 263.486256 
L 352.108052 268.332984 
L 358.733655 264.256693 
L 365.359258 271.882569 
L 371.984861 265.696156 
L 378.610464 265.171623 
L 385.236067 265.533818 
L 391.86167 262.465717 
L 398.487273 257.654074 
L 398.487273 178.250534 
L 398.487273 178.250534 
L 391.86167 189.09896 
L 385.236067 186.829129 
L 378.610464 184.342856 
L 371.984861 188.428477 
L 365.359258 184.199991 
L 358.733655 179.86372 
L 352.108052 185.202559 
L 345.482449 174.965469 
L 338.856846 183.163236 
L 332.231243 193.864041 
L 325.60564 180.822993 
L 318.980037 192.142042 
L 312.354434 196.088009 
L 305.728831 195.273657 
L 299.103228 187.606402 
L 292.477625 199.196536 
L 285.852022 197.277262 
L 279.226419 195.429952 
L 272.600816 196.553633 
L 265.975213 199.169976 
L 259.34961 193.523659 
L 252.724007 194.623334 
L 246.098404 196.190004 
L 239.472801 200.63619 
L 232.847199 203.324123 
L 226.221596 195.378778 
L 219.595993 198.619283 
L 212.97039 205.109494 
L 206.344787 192.357688 
L 199.719184 203.529634 
L 193.093581 201.02022 
L 186.467978 195.615389 
L 179.842375 189.715357 
L 173.216772 191.715378 
L 166.591169 195.43443 
L 159.965566 184.983426 
L 153.339963 194.005453 
L 146.71436 201.09132 
L 140.088757 197.663609 
L 133.463154 199.955834 
L 126.837551 202.053556 
L 120.211948 204.749419 
L 113.586345 204.308631 
L 106.960742 212.452313 
L 100.335139 219.525226 
L 93.709536 236.124282 
L 87.083933 229.528276 
L 80.45833 236.530672 
L 73.832727 241.848194 
z
" clip-path="url(#p97ace53722)" style="fill: #1f77b4; fill-opacity: 0.3"/>
   </g>
   <g id="PolyCollection_2">
    <path d="M 73.832727 168.79896 
L 73.832727 295.488 
L 80.45833 291.867426 
L 87.083933 291.22013 
L 93.709536 286.819068 
L 100.335139 286.315414 
L 106.960742 281.782561 
L 113.586345 268.228888 
L 120.211948 258.848505 
L 126.837551 270.316692 
L 133.463154 270.276761 
L 140.088757 273.769676 
L 146.71436 281.949873 
L 153.339963 279.245683 
L 159.965566 280.649201 
L 166.591169 282.571421 
L 173.216772 259.128641 
L 179.842375 237.275241 
L 186.467978 288.190338 
L 193.093581 269.257763 
L 199.719184 285.301727 
L 206.344787 276.392559 
L 212.97039 281.853963 
L 219.595993 279.858687 
L 226.221596 265.193394 
L 232.847199 287.657543 
L 239.472801 287.164587 
L 246.098404 287.959506 
L 252.724007 272.876906 
L 259.34961 272.842744 
L 265.975213 284.790152 
L 272.600816 266.541094 
L 279.226419 269.26106 
L 285.852022 281.179795 
L 292.477625 257.995012 
L 299.103228 271.527516 
L 305.728831 278.189141 
L 312.354434 282.990724 
L 318.980037 284.325756 
L 325.60564 279.919825 
L 332.231243 272.327083 
L 338.856846 281.675416 
L 345.482449 264.105338 
L 352.108052 258.138806 
L 358.733655 255.89635 
L 365.359258 273.815472 
L 371.984861 261.008713 
L 378.610464 252.029586 
L 385.236067 255.159454 
L 391.86167 264.120913 
L 398.487273 250.73484 
L 398.487273 86.793842 
L 398.487273 86.793842 
L 391.86167 118.723959 
L 385.236067 101.060551 
L 378.610464 105.588834 
L 371.984861 109.291551 
L 365.359258 123.054042 
L 358.733655 101.09097 
L 352.108052 102.075873 
L 345.482449 116.926651 
L 338.856846 124.907654 
L 332.231243 109.875278 
L 325.60564 130.408372 
L 318.980037 127.084219 
L 312.354434 125.563114 
L 305.728831 128.625754 
L 299.103228 105.455169 
L 292.477625 80.11767 
L 285.852022 110.966218 
L 279.226419 113.339848 
L 272.600816 111.99394 
L 265.975213 144.781997 
L 259.34961 112.593746 
L 252.724007 101.678454 
L 246.098404 141.381148 
L 239.472801 140.16148 
L 232.847199 136.865517 
L 226.221596 99.613375 
L 219.595993 126.790205 
L 212.97039 120.857771 
L 206.344787 107.239232 
L 199.719184 141.812086 
L 193.093581 108.963479 
L 186.467978 142.414124 
L 179.842375 78.446555 
L 173.216772 93.985073 
L 166.591169 144.61516 
L 159.965566 155.172913 
L 153.339963 110.245785 
L 146.71436 140.579032 
L 140.088757 134.78545 
L 133.463154 109.22887 
L 126.837551 111.072275 
L 120.211948 101.971888 
L 113.586345 91.95295 
L 106.960742 146.580225 
L 100.335139 153.412226 
L 93.709536 178.408326 
L 87.083933 172.597731 
L 80.45833 185.83432 
L 73.832727 168.79896 
z
" clip-path="url(#p97ace53722)" style="fill: #ff7f0e; fill-opacity: 0.3"/>
   </g>
   <g id="matplotlib.axis_1">
    <g id="xtick_1">
     <g id="line2d_1">
      <defs>
       <path id="m3f2eeab810" d="M 0 0 
L 0 3.5 
" style="stroke: #000000; stroke-width: 0.8"/>
      </defs>
      <g>
       <use xlink:href="#m3f2eeab810" x="73.832727" y="307.584" style="stroke: #000000; stroke-width: 0.8"/>
      </g>
     </g>
     <g id="text_1">
      <!-- 0 -->
      <g transform="translate(70.651477 322.182437) scale(0.1 -0.1)">
       <defs>
        <path id="DejaVuSans-30" d="M 2034 4250 
Q 1547 4250 1301 3770 
Q 1056 3291 1056 2328 
Q 1056 1369 1301 889 
Q 1547 409 2034 409 
Q 2525 409 2770 889 
Q 3016 1369 3016 2328 
Q 3016 3291 2770 3770 
Q 2525 4250 2034 4250 
z
M 2034 4750 
Q 2819 4750 3233 4129 
Q 3647 3509 3647 2328 
Q 3647 1150 3233 529 
Q 2819 -91 2034 -91 
Q 1250 -91 836 529 
Q 422 1150 422 2328 
Q 422 3509 836 4129 
Q 1250 4750 2034 4750 
z
" transform="scale(0.015625)"/>
       </defs>
       <use xlink:href="#DejaVuSans-30"/>
      </g>
     </g>
    </g>
    <g id="xtick_2">
     <g id="line2d_2">
      <g>
       <use xlink:href="#m3f2eeab810" x="140.088757" y="307.584" style="stroke: #000000; stroke-width: 0.8"/>
      </g>
     </g>
     <g id="text_2">
      <!-- 10 -->
      <g transform="translate(133.726257 322.182437) scale(0.1 -0.1)">
       <defs>
        <path id="DejaVuSans-31" d="M 794 531 
L 1825 531 
L 1825 4091 
L 703 3866 
L 703 4441 
L 1819 4666 
L 2450 4666 
L 2450 531 
L 3481 531 
L 3481 0 
L 794 0 
L 794 531 
z
" transform="scale(0.015625)"/>
       </defs>
       <use xlink:href="#DejaVuSans-31"/>
       <use xlink:href="#DejaVuSans-30" x="63.623047"/>
      </g>
     </g>
    </g>
    <g id="xtick_3">
     <g id="line2d_3">
      <g>
       <use xlink:href="#m3f2eeab810" x="206.344787" y="307.584" style="stroke: #000000; stroke-width: 0.8"/>
      </g>
     </g>
     <g id="text_3">
      <!-- 20 -->
      <g transform="translate(199.982287 322.182437) scale(0.1 -0.1)">
       <defs>
        <path id="DejaVuSans-32" d="M 1228 531 
L 3431 531 
L 3431 0 
L 469 0 
L 469 531 
Q 828 903 1448 1529 
Q 2069 2156 2228 2338 
Q 2531 2678 2651 2914 
Q 2772 3150 2772 3378 
Q 2772 3750 2511 3984 
Q 2250 4219 1831 4219 
Q 1534 4219 1204 4116 
Q 875 4013 500 3803 
L 500 4441 
Q 881 4594 1212 4672 
Q 1544 4750 1819 4750 
Q 2544 4750 2975 4387 
Q 3406 4025 3406 3419 
Q 3406 3131 3298 2873 
Q 3191 2616 2906 2266 
Q 2828 2175 2409 1742 
Q 1991 1309 1228 531 
z
" transform="scale(0.015625)"/>
       </defs>
       <use xlink:href="#DejaVuSans-32"/>
       <use xlink:href="#DejaVuSans-30" x="63.623047"/>
      </g>
     </g>
    </g>
    <g id="xtick_4">
     <g id="line2d_4">
      <g>
       <use xlink:href="#m3f2eeab810" x="272.600816" y="307.584" style="stroke: #000000; stroke-width: 0.8"/>
      </g>
     </g>
     <g id="text_4">
      <!-- 30 -->
      <g transform="translate(266.238316 322.182437) scale(0.1 -0.1)">
       <defs>
        <path id="DejaVuSans-33" d="M 2597 2516 
Q 3050 2419 3304 2112 
Q 3559 1806 3559 1356 
Q 3559 666 3084 287 
Q 2609 -91 1734 -91 
Q 1441 -91 1130 -33 
Q 819 25 488 141 
L 488 750 
Q 750 597 1062 519 
Q 1375 441 1716 441 
Q 2309 441 2620 675 
Q 2931 909 2931 1356 
Q 2931 1769 2642 2001 
Q 2353 2234 1838 2234 
L 1294 2234 
L 1294 2753 
L 1863 2753 
Q 2328 2753 2575 2939 
Q 2822 3125 2822 3475 
Q 2822 3834 2567 4026 
Q 2313 4219 1838 4219 
Q 1578 4219 1281 4162 
Q 984 4106 628 3988 
L 628 4550 
Q 988 4650 1302 4700 
Q 1616 4750 1894 4750 
Q 2613 4750 3031 4423 
Q 3450 4097 3450 3541 
Q 3450 3153 3228 2886 
Q 3006 2619 2597 2516 
z
" transform="scale(0.015625)"/>
       </defs>
       <use xlink:href="#DejaVuSans-33"/>
       <use xlink:href="#DejaVuSans-30" x="63.623047"/>
      </g>
     </g>
    </g>
    <g id="xtick_5">
     <g id="line2d_5">
      <g>
       <use xlink:href="#m3f2eeab810" x="338.856846" y="307.584" style="stroke: #000000; stroke-width: 0.8"/>
      </g>
     </g>
     <g id="text_5">
      <!-- 40 -->
      <g transform="translate(332.494346 322.182437) scale(0.1 -0.1)">
       <defs>
        <path id="DejaVuSans-34" d="M 2419 4116 
L 825 1625 
L 2419 1625 
L 2419 4116 
z
M 2253 4666 
L 3047 4666 
L 3047 1625 
L 3713 1625 
L 3713 1100 
L 3047 1100 
L 3047 0 
L 2419 0 
L 2419 1100 
L 313 1100 
L 313 1709 
L 2253 4666 
z
" transform="scale(0.015625)"/>
       </defs>
       <use xlink:href="#DejaVuSans-34"/>
       <use xlink:href="#DejaVuSans-30" x="63.623047"/>
      </g>
     </g>
    </g>
    <g id="xtick_6">
     <g id="line2d_6">
      <g>
       <use xlink:href="#m3f2eeab810" x="405.112876" y="307.584" style="stroke: #000000; stroke-width: 0.8"/>
      </g>
     </g>
     <g id="text_6">
      <!-- 50 -->
      <g transform="translate(398.750376 322.182437) scale(0.1 -0.1)">
       <defs>
        <path id="DejaVuSans-35" d="M 691 4666 
L 3169 4666 
L 3169 4134 
L 1269 4134 
L 1269 2991 
Q 1406 3038 1543 3061 
Q 1681 3084 1819 3084 
Q 2600 3084 3056 2656 
Q 3513 2228 3513 1497 
Q 3513 744 3044 326 
Q 2575 -91 1722 -91 
Q 1428 -91 1123 -41 
Q 819 9 494 109 
L 494 744 
Q 775 591 1075 516 
Q 1375 441 1709 441 
Q 2250 441 2565 725 
Q 2881 1009 2881 1497 
Q 2881 1984 2565 2268 
Q 2250 2553 1709 2553 
Q 1456 2553 1204 2497 
Q 953 2441 691 2322 
L 691 4666 
z
" transform="scale(0.015625)"/>
       </defs>
       <use xlink:href="#DejaVuSans-35"/>
       <use xlink:href="#DejaVuSans-30" x="63.623047"/>
      </g>
     </g>
    </g>
   </g>
   <g id="matplotlib.axis_2">
    <g id="ytick_1">
     <g id="line2d_7">
      <defs>
       <path id="m2d2f6472c4" d="M 0 0 
L -3.5 0 
" style="stroke: #000000; stroke-width: 0.8"/>
      </defs>
      <g>
       <use xlink:href="#m2d2f6472c4" x="57.6" y="293.481007" style="stroke: #000000; stroke-width: 0.8"/>
      </g>
     </g>
     <g id="text_7">
      <!-- −20 -->
      <g transform="translate(29.495313 297.280226) scale(0.1 -0.1)">
       <defs>
        <path id="DejaVuSans-2212" d="M 678 2272 
L 4684 2272 
L 4684 1741 
L 678 1741 
L 678 2272 
z
" transform="scale(0.015625)"/>
       </defs>
       <use xlink:href="#DejaVuSans-2212"/>
       <use xlink:href="#DejaVuSans-32" x="83.789062"/>
       <use xlink:href="#DejaVuSans-30" x="147.412109"/>
      </g>
     </g>
    </g>
    <g id="ytick_2">
     <g id="line2d_8">
      <g>
       <use xlink:href="#m2d2f6472c4" x="57.6" y="251.164162" style="stroke: #000000; stroke-width: 0.8"/>
      </g>
     </g>
     <g id="text_8">
      <!-- 0 -->
      <g transform="translate(44.2375 254.963381) scale(0.1 -0.1)">
       <use xlink:href="#DejaVuSans-30"/>
      </g>
     </g>
    </g>
    <g id="ytick_3">
     <g id="line2d_9">
      <g>
       <use xlink:href="#m2d2f6472c4" x="57.6" y="208.847317" style="stroke: #000000; stroke-width: 0.8"/>
      </g>
     </g>
     <g id="text_9">
      <!-- 20 -->
      <g transform="translate(37.875 212.646536) scale(0.1 -0.1)">
       <use xlink:href="#DejaVuSans-32"/>
       <use xlink:href="#DejaVuSans-30" x="63.623047"/>
      </g>
     </g>
    </g>
    <g id="ytick_4">
     <g id="line2d_10">
      <g>
       <use xlink:href="#m2d2f6472c4" x="57.6" y="166.530472" style="stroke: #000000; stroke-width: 0.8"/>
      </g>
     </g>
     <g id="text_10">
      <!-- 40 -->
      <g transform="translate(37.875 170.329691) scale(0.1 -0.1)">
       <use xlink:href="#DejaVuSans-34"/>
       <use xlink:href="#DejaVuSans-30" x="63.623047"/>
      </g>
     </g>
    </g>
    <g id="ytick_5">
     <g id="line2d_11">
      <g>
       <use xlink:href="#m2d2f6472c4" x="57.6" y="124.213627" style="stroke: #000000; stroke-width: 0.8"/>
      </g>
     </g>
     <g id="text_11">
      <!-- 60 -->
      <g transform="translate(37.875 128.012846) scale(0.1 -0.1)">
       <defs>
        <path id="DejaVuSans-36" d="M 2113 2584 
Q 1688 2584 1439 2293 
Q 1191 2003 1191 1497 
Q 1191 994 1439 701 
Q 1688 409 2113 409 
Q 2538 409 2786 701 
Q 3034 994 3034 1497 
Q 3034 2003 2786 2293 
Q 2538 2584 2113 2584 
z
M 3366 4563 
L 3366 3988 
Q 3128 4100 2886 4159 
Q 2644 4219 2406 4219 
Q 1781 4219 1451 3797 
Q 1122 3375 1075 2522 
Q 1259 2794 1537 2939 
Q 1816 3084 2150 3084 
Q 2853 3084 3261 2657 
Q 3669 2231 3669 1497 
Q 3669 778 3244 343 
Q 2819 -91 2113 -91 
Q 1303 -91 875 529 
Q 447 1150 447 2328 
Q 447 3434 972 4092 
Q 1497 4750 2381 4750 
Q 2619 4750 2861 4703 
Q 3103 4656 3366 4563 
z
" transform="scale(0.015625)"/>
       </defs>
       <use xlink:href="#DejaVuSans-36"/>
       <use xlink:href="#DejaVuSans-30" x="63.623047"/>
      </g>
     </g>
    </g>
    <g id="ytick_6">
     <g id="line2d_12">
      <g>
       <use xlink:href="#m2d2f6472c4" x="57.6" y="81.896782" style="stroke: #000000; stroke-width: 0.8"/>
      </g>
     </g>
     <g id="text_12">
      <!-- 80 -->
      <g transform="translate(37.875 85.696001) scale(0.1 -0.1)">
       <defs>
        <path id="DejaVuSans-38" d="M 2034 2216 
Q 1584 2216 1326 1975 
Q 1069 1734 1069 1313 
Q 1069 891 1326 650 
Q 1584 409 2034 409 
Q 2484 409 2743 651 
Q 3003 894 3003 1313 
Q 3003 1734 2745 1975 
Q 2488 2216 2034 2216 
z
M 1403 2484 
Q 997 2584 770 2862 
Q 544 3141 544 3541 
Q 544 4100 942 4425 
Q 1341 4750 2034 4750 
Q 2731 4750 3128 4425 
Q 3525 4100 3525 3541 
Q 3525 3141 3298 2862 
Q 3072 2584 2669 2484 
Q 3125 2378 3379 2068 
Q 3634 1759 3634 1313 
Q 3634 634 3220 271 
Q 2806 -91 2034 -91 
Q 1263 -91 848 271 
Q 434 634 434 1313 
Q 434 1759 690 2068 
Q 947 2378 1403 2484 
z
M 1172 3481 
Q 1172 3119 1398 2916 
Q 1625 2713 2034 2713 
Q 2441 2713 2670 2916 
Q 2900 3119 2900 3481 
Q 2900 3844 2670 4047 
Q 2441 4250 2034 4250 
Q 1625 4250 1398 4047 
Q 1172 3844 1172 3481 
z
" transform="scale(0.015625)"/>
       </defs>
       <use xlink:href="#DejaVuSans-38"/>
       <use xlink:href="#DejaVuSans-30" x="63.623047"/>
      </g>
     </g>
    </g>
   </g>
   <g id="line2d_13">
    <path d="M 73.832727 257.317054 
L 80.45833 254.132462 
L 87.083933 251.14361 
L 93.709536 253.605181 
L 100.335139 245.369408 
L 106.960742 238.979233 
L 113.586345 236.709945 
L 120.211948 237.814722 
L 126.837551 235.889773 
L 133.463154 234.152942 
L 140.088757 230.584821 
L 146.71436 234.68444 
L 153.339963 228.700183 
L 159.965566 223.16507 
L 166.591169 227.202705 
L 173.216772 228.450554 
L 179.842375 228.070969 
L 186.467978 234.868792 
L 193.093581 238.109724 
L 199.719184 238.902211 
L 206.344787 234.361927 
L 212.97039 242.217615 
L 219.595993 234.841255 
L 226.221596 233.306162 
L 232.847199 239.56059 
L 239.472801 236.8329 
L 246.098404 234.911039 
L 252.724007 232.225871 
L 259.34961 229.877291 
L 265.975213 236.363225 
L 272.600816 234.725006 
L 279.226419 231.75557 
L 285.852022 237.58466 
L 292.477625 235.307493 
L 299.103228 226.724464 
L 305.728831 233.200787 
L 312.354434 232.698716 
L 318.980037 233.61385 
L 325.60564 224.425745 
L 332.231243 232.789911 
L 338.856846 226.504022 
L 345.482449 219.225863 
L 352.108052 226.767771 
L 358.733655 222.060206 
L 365.359258 228.04128 
L 371.984861 227.062316 
L 378.610464 224.757239 
L 385.236067 226.181474 
L 391.86167 225.782338 
L 398.487273 217.952304 
" clip-path="url(#p97ace53722)" style="fill: none; stroke: #1f77b4; stroke-width: 1.5; stroke-linecap: square"/>
   </g>
   <g id="line2d_14">
    <path d="M 73.832727 232.14348 
L 80.45833 238.850873 
L 87.083933 231.908931 
L 93.709536 232.613697 
L 100.335139 219.86382 
L 106.960742 214.181393 
L 113.586345 180.090919 
L 120.211948 180.410196 
L 126.837551 190.694484 
L 133.463154 189.752816 
L 140.088757 204.277563 
L 146.71436 211.264452 
L 153.339963 194.745734 
L 159.965566 217.911057 
L 166.591169 213.59329 
L 173.216772 176.556857 
L 179.842375 157.860898 
L 186.467978 215.302231 
L 193.093581 189.110621 
L 199.719184 213.556906 
L 206.344787 191.815895 
L 212.97039 201.355867 
L 219.595993 203.324446 
L 226.221596 182.403384 
L 232.847199 212.26153 
L 239.472801 213.663034 
L 246.098404 214.670327 
L 252.724007 187.27768 
L 259.34961 192.718245 
L 265.975213 214.786074 
L 272.600816 189.267517 
L 279.226419 191.300454 
L 285.852022 196.073006 
L 292.477625 169.056341 
L 299.103228 188.491343 
L 305.728831 203.407448 
L 312.354434 204.276919 
L 318.980037 205.704987 
L 325.60564 205.164098 
L 332.231243 191.101181 
L 338.856846 203.291535 
L 345.482449 190.515994 
L 352.108052 180.107339 
L 358.733655 178.49366 
L 365.359258 198.434757 
L 371.984861 185.150132 
L 378.610464 178.80921 
L 385.236067 178.110003 
L 391.86167 191.422436 
L 398.487273 168.764341 
" clip-path="url(#p97ace53722)" style="fill: none; stroke: #ff7f0e; stroke-width: 1.5; stroke-linecap: square"/>
   </g>
   <g id="line2d_15">
    <path d="M 73.832727 186.297377 
L 80.45833 186.297377 
L 87.083933 167.716786 
L 93.709536 186.297377 
L 100.335139 168.075248 
L 106.960742 150.177103 
L 113.586345 148.35887 
L 120.211948 148.35887 
L 126.837551 148.35887 
L 133.463154 148.35887 
L 140.088757 148.35887 
L 146.71436 148.35887 
L 153.339963 148.272103 
L 159.965566 111.283457 
L 166.591169 148.272103 
L 173.216772 148.272103 
L 179.842375 148.272103 
L 186.467978 148.272103 
L 193.093581 148.272103 
L 199.719184 148.272103 
L 206.344787 148.272103 
L 212.97039 148.272103 
L 219.595993 148.272103 
L 226.221596 148.272103 
L 232.847199 148.272103 
L 239.472801 148.272103 
L 246.098404 129.679898 
L 252.724007 129.679898 
L 259.34961 129.679898 
L 265.975213 129.679898 
L 272.600816 129.679898 
L 279.226419 129.679898 
L 285.852022 129.679898 
L 292.477625 129.679898 
L 299.103228 129.679898 
L 305.728831 129.679898 
L 312.354434 129.679898 
L 318.980037 129.557087 
L 325.60564 129.557087 
L 332.231243 129.557087 
L 338.856846 129.362999 
L 345.482449 110.096466 
L 352.108052 129.557087 
L 358.733655 129.557087 
L 365.359258 129.557087 
L 371.984861 129.557087 
L 378.610464 129.557087 
L 385.236067 129.557087 
L 391.86167 129.557087 
L 398.487273 129.557087 
" clip-path="url(#p97ace53722)" style="fill: none; stroke-dasharray: 5.55,2.4; stroke-dashoffset: 0; stroke: #2ca02c; stroke-width: 1.5"/>
   </g>
   <g id="line2d_16">
    <path d="M 73.832727 68.029772 
L 80.45833 68.887451 
L 87.083933 68.762965 
L 93.709536 68.491347 
L 100.335139 63.263281 
L 106.960742 56.034358 
L 113.586345 56.034358 
L 120.211948 56.034358 
L 126.837551 56.034358 
L 133.463154 56.034358 
L 140.088757 56.034358 
L 146.71436 56.034358 
L 153.339963 56.034358 
L 159.965566 56.034358 
L 166.591169 53.568 
L 173.216772 59.955414 
L 179.842375 59.955414 
L 186.467978 59.955414 
L 193.093581 59.955414 
L 199.719184 59.955414 
L 206.344787 59.955414 
L 212.97039 59.955414 
L 219.595993 59.955414 
L 226.221596 59.955414 
L 232.847199 59.955414 
L 239.472801 59.955414 
L 246.098404 59.955414 
L 252.724007 59.955414 
L 259.34961 59.955414 
L 265.975213 59.955414 
L 272.600816 59.955414 
L 279.226419 59.955414 
L 285.852022 59.955414 
L 292.477625 59.955414 
L 299.103228 59.955414 
L 305.728831 59.955414 
L 312.354434 56.161308 
L 318.980037 59.732897 
L 325.60564 59.955414 
L 332.231243 59.701513 
L 338.856846 58.998156 
L 345.482449 59.955414 
L 352.108052 59.955414 
L 358.733655 57.938579 
L 365.359258 61.332153 
L 371.984861 57.683206 
L 378.610464 59.942433 
L 385.236067 61.332153 
L 391.86167 59.554846 
L 398.487273 57.381342 
" clip-path="url(#p97ace53722)" style="fill: none; stroke-dasharray: 5.55,2.4; stroke-dashoffset: 0; stroke: #d62728; stroke-width: 1.5"/>
   </g>
   <g id="patch_3">
    <path d="M 57.6 307.584 
L 57.6 41.472 
" style="fill: none; stroke: #000000; stroke-width: 0.8; stroke-linejoin: miter; stroke-linecap: square"/>
   </g>
   <g id="patch_4">
    <path d="M 414.72 307.584 
L 414.72 41.472 
" style="fill: none; stroke: #000000; stroke-width: 0.8; stroke-linejoin: miter; stroke-linecap: square"/>
   </g>
   <g id="patch_5">
    <path d="M 57.6 307.584 
L 414.72 307.584 
" style="fill: none; stroke: #000000; stroke-width: 0.8; stroke-linejoin: miter; stroke-linecap: square"/>
   </g>
   <g id="patch_6">
    <path d="M 57.6 41.472 
L 414.72 41.472 
" style="fill: none; stroke: #000000; stroke-width: 0.8; stroke-linejoin: miter; stroke-linecap: square"/>
   </g>
   <g id="text_13">
    <!-- fitness on incest_6&amp;8_0 -->
    <g transform="translate(164.925938 35.472) scale(0.12 -0.12)">
     <defs>
      <path id="DejaVuSans-66" d="M 2375 4863 
L 2375 4384 
L 1825 4384 
Q 1516 4384 1395 4259 
Q 1275 4134 1275 3809 
L 1275 3500 
L 2222 3500 
L 2222 3053 
L 1275 3053 
L 1275 0 
L 697 0 
L 697 3053 
L 147 3053 
L 147 3500 
L 697 3500 
L 697 3744 
Q 697 4328 969 4595 
Q 1241 4863 1831 4863 
L 2375 4863 
z
" transform="scale(0.015625)"/>
      <path id="DejaVuSans-69" d="M 603 3500 
L 1178 3500 
L 1178 0 
L 603 0 
L 603 3500 
z
M 603 4863 
L 1178 4863 
L 1178 4134 
L 603 4134 
L 603 4863 
z
" transform="scale(0.015625)"/>
      <path id="DejaVuSans-74" d="M 1172 4494 
L 1172 3500 
L 2356 3500 
L 2356 3053 
L 1172 3053 
L 1172 1153 
Q 1172 725 1289 603 
Q 1406 481 1766 481 
L 2356 481 
L 2356 0 
L 1766 0 
Q 1100 0 847 248 
Q 594 497 594 1153 
L 594 3053 
L 172 3053 
L 172 3500 
L 594 3500 
L 594 4494 
L 1172 4494 
z
" transform="scale(0.015625)"/>
      <path id="DejaVuSans-6e" d="M 3513 2113 
L 3513 0 
L 2938 0 
L 2938 2094 
Q 2938 2591 2744 2837 
Q 2550 3084 2163 3084 
Q 1697 3084 1428 2787 
Q 1159 2491 1159 1978 
L 1159 0 
L 581 0 
L 581 3500 
L 1159 3500 
L 1159 2956 
Q 1366 3272 1645 3428 
Q 1925 3584 2291 3584 
Q 2894 3584 3203 3211 
Q 3513 2838 3513 2113 
z
" transform="scale(0.015625)"/>
      <path id="DejaVuSans-65" d="M 3597 1894 
L 3597 1613 
L 953 1613 
Q 991 1019 1311 708 
Q 1631 397 2203 397 
Q 2534 397 2845 478 
Q 3156 559 3463 722 
L 3463 178 
Q 3153 47 2828 -22 
Q 2503 -91 2169 -91 
Q 1331 -91 842 396 
Q 353 884 353 1716 
Q 353 2575 817 3079 
Q 1281 3584 2069 3584 
Q 2775 3584 3186 3129 
Q 3597 2675 3597 1894 
z
M 3022 2063 
Q 3016 2534 2758 2815 
Q 2500 3097 2075 3097 
Q 1594 3097 1305 2825 
Q 1016 2553 972 2059 
L 3022 2063 
z
" transform="scale(0.015625)"/>
      <path id="DejaVuSans-73" d="M 2834 3397 
L 2834 2853 
Q 2591 2978 2328 3040 
Q 2066 3103 1784 3103 
Q 1356 3103 1142 2972 
Q 928 2841 928 2578 
Q 928 2378 1081 2264 
Q 1234 2150 1697 2047 
L 1894 2003 
Q 2506 1872 2764 1633 
Q 3022 1394 3022 966 
Q 3022 478 2636 193 
Q 2250 -91 1575 -91 
Q 1294 -91 989 -36 
Q 684 19 347 128 
L 347 722 
Q 666 556 975 473 
Q 1284 391 1588 391 
Q 1994 391 2212 530 
Q 2431 669 2431 922 
Q 2431 1156 2273 1281 
Q 2116 1406 1581 1522 
L 1381 1569 
Q 847 1681 609 1914 
Q 372 2147 372 2553 
Q 372 3047 722 3315 
Q 1072 3584 1716 3584 
Q 2034 3584 2315 3537 
Q 2597 3491 2834 3397 
z
" transform="scale(0.015625)"/>
      <path id="DejaVuSans-20" transform="scale(0.015625)"/>
      <path id="DejaVuSans-6f" d="M 1959 3097 
Q 1497 3097 1228 2736 
Q 959 2375 959 1747 
Q 959 1119 1226 758 
Q 1494 397 1959 397 
Q 2419 397 2687 759 
Q 2956 1122 2956 1747 
Q 2956 2369 2687 2733 
Q 2419 3097 1959 3097 
z
M 1959 3584 
Q 2709 3584 3137 3096 
Q 3566 2609 3566 1747 
Q 3566 888 3137 398 
Q 2709 -91 1959 -91 
Q 1206 -91 779 398 
Q 353 888 353 1747 
Q 353 2609 779 3096 
Q 1206 3584 1959 3584 
z
" transform="scale(0.015625)"/>
      <path id="DejaVuSans-63" d="M 3122 3366 
L 3122 2828 
Q 2878 2963 2633 3030 
Q 2388 3097 2138 3097 
Q 1578 3097 1268 2742 
Q 959 2388 959 1747 
Q 959 1106 1268 751 
Q 1578 397 2138 397 
Q 2388 397 2633 464 
Q 2878 531 3122 666 
L 3122 134 
Q 2881 22 2623 -34 
Q 2366 -91 2075 -91 
Q 1284 -91 818 406 
Q 353 903 353 1747 
Q 353 2603 823 3093 
Q 1294 3584 2113 3584 
Q 2378 3584 2631 3529 
Q 2884 3475 3122 3366 
z
" transform="scale(0.015625)"/>
      <path id="DejaVuSans-5f" d="M 3263 -1063 
L 3263 -1509 
L -63 -1509 
L -63 -1063 
L 3263 -1063 
z
" transform="scale(0.015625)"/>
      <path id="DejaVuSans-26" d="M 1556 2509 
Q 1272 2256 1139 2004 
Q 1006 1753 1006 1478 
Q 1006 1022 1337 719 
Q 1669 416 2169 416 
Q 2466 416 2725 514 
Q 2984 613 3213 813 
L 1556 2509 
z
M 1997 2859 
L 3584 1234 
Q 3769 1513 3872 1830 
Q 3975 2147 3994 2503 
L 4575 2503 
Q 4538 2091 4375 1687 
Q 4213 1284 3922 891 
L 4794 0 
L 4006 0 
L 3559 459 
Q 3234 181 2878 45 
Q 2522 -91 2113 -91 
Q 1359 -91 881 339 
Q 403 769 403 1441 
Q 403 1841 612 2192 
Q 822 2544 1241 2853 
Q 1091 3050 1012 3245 
Q 934 3441 934 3628 
Q 934 4134 1281 4442 
Q 1628 4750 2203 4750 
Q 2463 4750 2720 4694 
Q 2978 4638 3244 4525 
L 3244 3956 
Q 2972 4103 2725 4179 
Q 2478 4256 2266 4256 
Q 1938 4256 1733 4082 
Q 1528 3909 1528 3634 
Q 1528 3475 1620 3314 
Q 1713 3153 1997 2859 
z
" transform="scale(0.015625)"/>
     </defs>
     <use xlink:href="#DejaVuSans-66"/>
     <use xlink:href="#DejaVuSans-69" x="35.205078"/>
     <use xlink:href="#DejaVuSans-74" x="62.988281"/>
     <use xlink:href="#DejaVuSans-6e" x="102.197266"/>
     <use xlink:href="#DejaVuSans-65" x="165.576172"/>
     <use xlink:href="#DejaVuSans-73" x="227.099609"/>
     <use xlink:href="#DejaVuSans-73" x="279.199219"/>
     <use xlink:href="#DejaVuSans-20" x="331.298828"/>
     <use xlink:href="#DejaVuSans-6f" x="363.085938"/>
     <use xlink:href="#DejaVuSans-6e" x="424.267578"/>
     <use xlink:href="#DejaVuSans-20" x="487.646484"/>
     <use xlink:href="#DejaVuSans-69" x="519.433594"/>
     <use xlink:href="#DejaVuSans-6e" x="547.216797"/>
     <use xlink:href="#DejaVuSans-63" x="610.595703"/>
     <use xlink:href="#DejaVuSans-65" x="665.576172"/>
     <use xlink:href="#DejaVuSans-73" x="727.099609"/>
     <use xlink:href="#DejaVuSans-74" x="779.199219"/>
     <use xlink:href="#DejaVuSans-5f" x="818.408203"/>
     <use xlink:href="#DejaVuSans-36" x="868.408203"/>
     <use xlink:href="#DejaVuSans-26" x="932.03125"/>
     <use xlink:href="#DejaVuSans-38" x="1010.009766"/>
     <use xlink:href="#DejaVuSans-5f" x="1073.632812"/>
     <use xlink:href="#DejaVuSans-30" x="1123.632812"/>
    </g>
   </g>
   <g id="legend_1">
    <g id="patch_7">
     <path d="M 334.555938 302.584 
L 407.72 302.584 
Q 409.72 302.584 409.72 300.584 
L 409.72 242.8715 
Q 409.72 240.8715 407.72 240.8715 
L 334.555938 240.8715 
Q 332.555938 240.8715 332.555938 242.8715 
L 332.555938 300.584 
Q 332.555938 302.584 334.555938 302.584 
z
" style="fill: #ffffff; opacity: 0.8; stroke: #cccccc; stroke-linejoin: miter"/>
    </g>
    <g id="line2d_17">
     <path d="M 336.555938 248.969937 
L 346.555938 248.969937 
L 356.555938 248.969937 
" style="fill: none; stroke: #1f77b4; stroke-width: 1.5; stroke-linecap: square"/>
    </g>
    <g id="text_14">
     <!-- enemyA -->
     <g transform="translate(364.555938 252.469937) scale(0.1 -0.1)">
      <defs>
       <path id="DejaVuSans-6d" d="M 3328 2828 
Q 3544 3216 3844 3400 
Q 4144 3584 4550 3584 
Q 5097 3584 5394 3201 
Q 5691 2819 5691 2113 
L 5691 0 
L 5113 0 
L 5113 2094 
Q 5113 2597 4934 2840 
Q 4756 3084 4391 3084 
Q 3944 3084 3684 2787 
Q 3425 2491 3425 1978 
L 3425 0 
L 2847 0 
L 2847 2094 
Q 2847 2600 2669 2842 
Q 2491 3084 2119 3084 
Q 1678 3084 1418 2786 
Q 1159 2488 1159 1978 
L 1159 0 
L 581 0 
L 581 3500 
L 1159 3500 
L 1159 2956 
Q 1356 3278 1631 3431 
Q 1906 3584 2284 3584 
Q 2666 3584 2933 3390 
Q 3200 3197 3328 2828 
z
" transform="scale(0.015625)"/>
       <path id="DejaVuSans-79" d="M 2059 -325 
Q 1816 -950 1584 -1140 
Q 1353 -1331 966 -1331 
L 506 -1331 
L 506 -850 
L 844 -850 
Q 1081 -850 1212 -737 
Q 1344 -625 1503 -206 
L 1606 56 
L 191 3500 
L 800 3500 
L 1894 763 
L 2988 3500 
L 3597 3500 
L 2059 -325 
z
" transform="scale(0.015625)"/>
       <path id="DejaVuSans-41" d="M 2188 4044 
L 1331 1722 
L 3047 1722 
L 2188 4044 
z
M 1831 4666 
L 2547 4666 
L 4325 0 
L 3669 0 
L 3244 1197 
L 1141 1197 
L 716 0 
L 50 0 
L 1831 4666 
z
" transform="scale(0.015625)"/>
      </defs>
      <use xlink:href="#DejaVuSans-65"/>
      <use xlink:href="#DejaVuSans-6e" x="61.523438"/>
      <use xlink:href="#DejaVuSans-65" x="124.902344"/>
      <use xlink:href="#DejaVuSans-6d" x="186.425781"/>
      <use xlink:href="#DejaVuSans-79" x="283.837891"/>
      <use xlink:href="#DejaVuSans-41" x="343.017578"/>
     </g>
    </g>
    <g id="line2d_18">
     <path d="M 336.555938 263.648062 
L 346.555938 263.648062 
L 356.555938 263.648062 
" style="fill: none; stroke: #ff7f0e; stroke-width: 1.5; stroke-linecap: square"/>
    </g>
    <g id="text_15">
     <!-- enemyB -->
     <g transform="translate(364.555938 267.148062) scale(0.1 -0.1)">
      <defs>
       <path id="DejaVuSans-42" d="M 1259 2228 
L 1259 519 
L 2272 519 
Q 2781 519 3026 730 
Q 3272 941 3272 1375 
Q 3272 1813 3026 2020 
Q 2781 2228 2272 2228 
L 1259 2228 
z
M 1259 4147 
L 1259 2741 
L 2194 2741 
Q 2656 2741 2882 2914 
Q 3109 3088 3109 3444 
Q 3109 3797 2882 3972 
Q 2656 4147 2194 4147 
L 1259 4147 
z
M 628 4666 
L 2241 4666 
Q 2963 4666 3353 4366 
Q 3744 4066 3744 3513 
Q 3744 3084 3544 2831 
Q 3344 2578 2956 2516 
Q 3422 2416 3680 2098 
Q 3938 1781 3938 1306 
Q 3938 681 3513 340 
Q 3088 0 2303 0 
L 628 0 
L 628 4666 
z
" transform="scale(0.015625)"/>
      </defs>
      <use xlink:href="#DejaVuSans-65"/>
      <use xlink:href="#DejaVuSans-6e" x="61.523438"/>
      <use xlink:href="#DejaVuSans-65" x="124.902344"/>
      <use xlink:href="#DejaVuSans-6d" x="186.425781"/>
      <use xlink:href="#DejaVuSans-79" x="283.837891"/>
      <use xlink:href="#DejaVuSans-42" x="343.017578"/>
     </g>
    </g>
    <g id="line2d_19">
     <path d="M 336.555938 278.326187 
L 346.555938 278.326187 
L 356.555938 278.326187 
" style="fill: none; stroke-dasharray: 5.55,2.4; stroke-dashoffset: 0; stroke: #2ca02c; stroke-width: 1.5"/>
    </g>
    <g id="text_16">
     <!-- enemyA -->
     <g transform="translate(364.555938 281.826187) scale(0.1 -0.1)">
      <use xlink:href="#DejaVuSans-65"/>
      <use xlink:href="#DejaVuSans-6e" x="61.523438"/>
      <use xlink:href="#DejaVuSans-65" x="124.902344"/>
      <use xlink:href="#DejaVuSans-6d" x="186.425781"/>
      <use xlink:href="#DejaVuSans-79" x="283.837891"/>
      <use xlink:href="#DejaVuSans-41" x="343.017578"/>
     </g>
    </g>
    <g id="line2d_20">
     <path d="M 336.555938 293.004312 
L 346.555938 293.004312 
L 356.555938 293.004312 
" style="fill: none; stroke-dasharray: 5.55,2.4; stroke-dashoffset: 0; stroke: #d62728; stroke-width: 1.5"/>
    </g>
    <g id="text_17">
     <!-- enemyB -->
     <g transform="translate(364.555938 296.504312) scale(0.1 -0.1)">
      <use xlink:href="#DejaVuSans-65"/>
      <use xlink:href="#DejaVuSans-6e" x="61.523438"/>
      <use xlink:href="#DejaVuSans-65" x="124.902344"/>
      <use xlink:href="#DejaVuSans-6d" x="186.425781"/>
      <use xlink:href="#DejaVuSans-79" x="283.837891"/>
      <use xlink:href="#DejaVuSans-42" x="343.017578"/>
     </g>
    </g>
   </g>
  </g>
 </g>
 <defs>
  <clipPath id="p97ace53722">
   <rect x="57.6" y="41.472" width="357.12" height="266.112"/>
  </clipPath>
 </defs>
</svg>
