<?xml version="1.0" encoding="UTF-8" standalone="no"?>
<!DOCTYPE svg PUBLIC "-//W3C//DTD SVG 1.1//EN"
 "http://www.w3.org/Graphics/SVG/1.1/DTD/svg11.dtd">
<!-- Generated by graphviz version 2.43.0 (0)
 -->
<!-- Title: %3 Pages: 1 -->
<svg width="1088pt" height="171pt"
 viewBox="0.00 0.00 1088.28 171.28" xmlns="http://www.w3.org/2000/svg" xmlns:xlink="http://www.w3.org/1999/xlink">
<g id="graph0" class="graph" transform="scale(1 1) rotate(0) translate(4 167.28)">
<title>%3</title>
<polygon fill="white" stroke="transparent" points="-4,4 -4,-167.28 1084.28,-167.28 1084.28,4 -4,4"/>
<!-- &#45;1 -->
<g id="node1" class="node">
<title>&#45;1</title>
<polygon fill="lightgray" stroke="black" points="26,-143.99 0,-143.99 0,-125.99 26,-125.99 26,-143.99"/>
<text text-anchor="middle" x="13" y="-132.79" font-family="Times,serif" font-size="9.00">&#45;1</text>
</g>
<!-- shoot -->
<g id="node24" class="node">
<title>shoot</title>
<ellipse fill="lightblue" stroke="black" cx="46" cy="-35.36" rx="28.98" ry="28.98"/>
<text text-anchor="middle" x="46" y="-33.16" font-family="Times,serif" font-size="9.00">shoot</text>
</g>
<!-- &#45;1&#45;&gt;shoot -->
<g id="edge5" class="edge">
<title>&#45;1&#45;&gt;shoot</title>
<path fill="none" stroke="red" stroke-width="0.3" d="M15.81,-125.67C19.74,-114.05 27.12,-92.22 33.6,-73.05"/>
<polygon fill="red" stroke="red" stroke-width="0.3" points="36.99,-73.94 36.88,-63.34 30.36,-71.7 36.99,-73.94"/>
</g>
<!-- &#45;2 -->
<g id="node2" class="node">
<title>&#45;2</title>
<polygon fill="lightgray" stroke="black" points="134,-143.99 108,-143.99 108,-125.99 134,-125.99 134,-143.99"/>
<text text-anchor="middle" x="121" y="-132.79" font-family="Times,serif" font-size="9.00">&#45;2</text>
</g>
<!-- jump -->
<g id="node23" class="node">
<title>jump</title>
<ellipse fill="lightblue" stroke="black" cx="121" cy="-35.36" rx="28.07" ry="28.07"/>
<text text-anchor="middle" x="121" y="-33.16" font-family="Times,serif" font-size="9.00">jump</text>
</g>
<!-- &#45;2&#45;&gt;jump -->
<g id="edge3" class="edge">
<title>&#45;2&#45;&gt;jump</title>
<path fill="none" stroke="green" stroke-width="0.2" d="M121,-125.67C121,-114.23 121,-92.91 121,-73.97"/>
<polygon fill="green" stroke="green" stroke-width="0.2" points="124.5,-73.77 121,-63.77 117.5,-73.77 124.5,-73.77"/>
</g>
<!-- &#45;2&#45;&gt;shoot -->
<g id="edge1" class="edge">
<title>&#45;2&#45;&gt;shoot</title>
<path fill="none" stroke="green" stroke-width="0.58" d="M114.61,-125.67C104.7,-112.78 85.17,-87.35 69.47,-66.91"/>
<polygon fill="green" stroke="green" stroke-width="0.58" points="72.1,-64.59 63.23,-58.79 66.55,-68.85 72.1,-64.59"/>
</g>
<!-- release -->
<g id="node25" class="node">
<title>release</title>
<ellipse fill="lightblue" stroke="black" cx="203" cy="-35.36" rx="35.21" ry="35.21"/>
<text text-anchor="middle" x="203" y="-33.16" font-family="Times,serif" font-size="9.00">release</text>
</g>
<!-- &#45;2&#45;&gt;release -->
<g id="edge4" class="edge">
<title>&#45;2&#45;&gt;release</title>
<path fill="none" stroke="red" stroke-width="0.7" d="M127.49,-125.83C131.84,-120.38 137.72,-113.08 143,-106.71 152.91,-94.76 163.89,-81.8 173.72,-70.3"/>
<polygon fill="red" stroke="red" stroke-width="0.7" points="176.47,-72.47 180.32,-62.6 171.15,-67.92 176.47,-72.47"/>
</g>
<!-- &#45;3 -->
<g id="node3" class="node">
<title>&#45;3</title>
<polygon fill="lightgray" stroke="black" points="178,-143.99 152,-143.99 152,-125.99 178,-125.99 178,-143.99"/>
<text text-anchor="middle" x="165" y="-132.79" font-family="Times,serif" font-size="9.00">&#45;3</text>
</g>
<!-- &#45;4 -->
<g id="node4" class="node">
<title>&#45;4</title>
<polygon fill="lightgray" stroke="black" points="222,-143.99 196,-143.99 196,-125.99 222,-125.99 222,-143.99"/>
<text text-anchor="middle" x="209" y="-132.79" font-family="Times,serif" font-size="9.00">&#45;4</text>
</g>
<!-- &#45;5 -->
<g id="node5" class="node">
<title>&#45;5</title>
<polygon fill="lightgray" stroke="black" points="266,-143.99 240,-143.99 240,-125.99 266,-125.99 266,-143.99"/>
<text text-anchor="middle" x="253" y="-132.79" font-family="Times,serif" font-size="9.00">&#45;5</text>
</g>
<!-- &#45;6 -->
<g id="node6" class="node">
<title>&#45;6</title>
<polygon fill="lightgray" stroke="black" points="310,-143.99 284,-143.99 284,-125.99 310,-125.99 310,-143.99"/>
<text text-anchor="middle" x="297" y="-132.79" font-family="Times,serif" font-size="9.00">&#45;6</text>
</g>
<!-- &#45;7 -->
<g id="node7" class="node">
<title>&#45;7</title>
<polygon fill="lightgray" stroke="black" points="354,-143.99 328,-143.99 328,-125.99 354,-125.99 354,-143.99"/>
<text text-anchor="middle" x="341" y="-132.79" font-family="Times,serif" font-size="9.00">&#45;7</text>
</g>
<!-- &#45;8 -->
<g id="node8" class="node">
<title>&#45;8</title>
<polygon fill="lightgray" stroke="black" points="398,-143.99 372,-143.99 372,-125.99 398,-125.99 398,-143.99"/>
<text text-anchor="middle" x="385" y="-132.79" font-family="Times,serif" font-size="9.00">&#45;8</text>
</g>
<!-- &#45;9 -->
<g id="node9" class="node">
<title>&#45;9</title>
<polygon fill="lightgray" stroke="black" points="442,-143.99 416,-143.99 416,-125.99 442,-125.99 442,-143.99"/>
<text text-anchor="middle" x="429" y="-132.79" font-family="Times,serif" font-size="9.00">&#45;9</text>
</g>
<!-- &#45;10 -->
<g id="node10" class="node">
<title>&#45;10</title>
<polygon fill="lightgray" stroke="black" points="492,-143.99 460,-143.99 460,-125.99 492,-125.99 492,-143.99"/>
<text text-anchor="middle" x="476" y="-132.79" font-family="Times,serif" font-size="9.00">&#45;10</text>
</g>
<!-- &#45;11 -->
<g id="node11" class="node">
<title>&#45;11</title>
<polygon fill="lightgray" stroke="black" points="542,-143.99 510,-143.99 510,-125.99 542,-125.99 542,-143.99"/>
<text text-anchor="middle" x="526" y="-132.79" font-family="Times,serif" font-size="9.00">&#45;11</text>
</g>
<!-- &#45;12 -->
<g id="node12" class="node">
<title>&#45;12</title>
<polygon fill="lightgray" stroke="black" points="592,-143.99 560,-143.99 560,-125.99 592,-125.99 592,-143.99"/>
<text text-anchor="middle" x="576" y="-132.79" font-family="Times,serif" font-size="9.00">&#45;12</text>
</g>
<!-- &#45;13 -->
<g id="node13" class="node">
<title>&#45;13</title>
<polygon fill="lightgray" stroke="black" points="642,-143.99 610,-143.99 610,-125.99 642,-125.99 642,-143.99"/>
<text text-anchor="middle" x="626" y="-132.79" font-family="Times,serif" font-size="9.00">&#45;13</text>
</g>
<!-- &#45;14 -->
<g id="node14" class="node">
<title>&#45;14</title>
<polygon fill="lightgray" stroke="black" points="692,-143.99 660,-143.99 660,-125.99 692,-125.99 692,-143.99"/>
<text text-anchor="middle" x="676" y="-132.79" font-family="Times,serif" font-size="9.00">&#45;14</text>
</g>
<!-- &#45;15 -->
<g id="node15" class="node">
<title>&#45;15</title>
<polygon fill="lightgray" stroke="black" points="742,-143.99 710,-143.99 710,-125.99 742,-125.99 742,-143.99"/>
<text text-anchor="middle" x="726" y="-132.79" font-family="Times,serif" font-size="9.00">&#45;15</text>
</g>
<!-- &#45;16 -->
<g id="node16" class="node">
<title>&#45;16</title>
<polygon fill="lightgray" stroke="black" points="792,-143.99 760,-143.99 760,-125.99 792,-125.99 792,-143.99"/>
<text text-anchor="middle" x="776" y="-132.79" font-family="Times,serif" font-size="9.00">&#45;16</text>
</g>
<!-- &#45;17 -->
<g id="node17" class="node">
<title>&#45;17</title>
<polygon fill="lightgray" stroke="black" points="842,-143.99 810,-143.99 810,-125.99 842,-125.99 842,-143.99"/>
<text text-anchor="middle" x="826" y="-132.79" font-family="Times,serif" font-size="9.00">&#45;17</text>
</g>
<!-- &#45;18 -->
<g id="node18" class="node">
<title>&#45;18</title>
<polygon fill="lightgray" stroke="black" points="892,-143.99 860,-143.99 860,-125.99 892,-125.99 892,-143.99"/>
<text text-anchor="middle" x="876" y="-132.79" font-family="Times,serif" font-size="9.00">&#45;18</text>
</g>
<!-- &#45;19 -->
<g id="node19" class="node">
<title>&#45;19</title>
<polygon fill="lightgray" stroke="black" points="942,-143.99 910,-143.99 910,-125.99 942,-125.99 942,-143.99"/>
<text text-anchor="middle" x="926" y="-132.79" font-family="Times,serif" font-size="9.00">&#45;19</text>
</g>
<!-- &#45;20 -->
<g id="node20" class="node">
<title>&#45;20</title>
<polygon fill="lightgray" stroke="black" points="76,-143.99 44,-143.99 44,-125.99 76,-125.99 76,-143.99"/>
<text text-anchor="middle" x="60" y="-132.79" font-family="Times,serif" font-size="9.00">&#45;20</text>
</g>
<!-- &#45;20&#45;&gt;shoot -->
<g id="edge2" class="edge">
<title>&#45;20&#45;&gt;shoot</title>
<path fill="none" stroke="red" stroke-width="0.23" d="M58.81,-125.67C57.18,-114.31 54.15,-93.2 51.45,-74.36"/>
<polygon fill="red" stroke="red" stroke-width="0.23" points="54.88,-73.6 49.99,-64.2 47.95,-74.59 54.88,-73.6"/>
</g>
<!-- left -->
<g id="node21" class="node">
<title>left</title>
<ellipse fill="lightblue" stroke="black" cx="983" cy="-134.99" rx="22.76" ry="22.76"/>
<text text-anchor="middle" x="983" y="-132.79" font-family="Times,serif" font-size="9.00">left</text>
</g>
<!-- right -->
<g id="node22" class="node">
<title>right</title>
<ellipse fill="lightblue" stroke="black" cx="1052" cy="-134.99" rx="28.07" ry="28.07"/>
<text text-anchor="middle" x="1052" y="-132.79" font-family="Times,serif" font-size="9.00">right</text>
</g>
</g>
</svg>
